<svg width="32" height="32" viewBox="0 0 32 32" fill="none" xmlns="http://www.w3.org/2000/svg">
<g clip-path="url(#clip0_301_38)">
<path d="M32 0H0V32H32V0Z" fill="white"/>
<path d="M16.5333 7V7.56024L14.1808 8.10681L13.8606 8.17514L13.9302 8.4894L15.0856 13.3129L9.92104 14.5017L9.60086 14.57L9.68439 14.8843L10.979 20.3363L11.0625 20.6506L11.3688 20.5823L16.5333 19.3935V24.0667H8V7H16.5333Z" fill="#284CCB"/>
<path d="M19.6411 7L20.8 12.1514L25.9752 10.8943L27.2 16.3464L22.0247 17.6035L23.1835 22.7412L17.6921 24.0667L16.5333 18.9289L11.358 20.186L10.1333 14.734L15.3086 13.4769L14.1498 8.33909L19.6411 7Z" fill="#C126CE"/>
</g>
<defs>
<clipPath id="clip0_301_38">
<rect width="32" height="32" rx="16" fill="white"/>
</clipPath>
</defs>
</svg>
