<svg width="176" height="162" viewBox="0 0 176 162" fill="none" xmlns="http://www.w3.org/2000/svg">
<path d="M22.221 0H152.943C165.215 0 175.163 9.859 175.163 22.021V139.435C175.163 151.596 165.215 161.455 152.943 161.455H22.221C9.949 161.455 0 151.596 0 139.435V22.021C0 9.859 9.949 0 22.221 0Z" fill="url(#paint0_linear_309_171)"/>
<path d="M105.726 83.4072C112.778 83.4072 118.611 88.7552 118.611 95.4852V123.624C118.611 125.363 117.2 126.774 115.461 126.774C113.721 126.774 112.311 125.363 112.311 123.624V95.4852C112.311 92.3622 109.415 89.7072 105.726 89.7072H69.4958C65.7628 89.7072 62.8508 92.3762 62.8508 95.5312V123.624C62.8508 125.363 61.4408 126.774 59.7008 126.774C57.9608 126.774 56.5508 125.363 56.5508 123.624V95.5312C56.5508 88.7672 62.4008 83.4072 69.4958 83.4072H105.726Z" fill="#AEAFBF"/>
<path d="M87.916 45.2451C98.186 45.2451 106.581 53.1791 106.58 63.0571C106.581 72.9361 98.186 80.8701 87.916 80.8701C77.647 80.8701 69.252 72.9361 69.252 63.0571C69.252 53.1791 77.647 45.2451 87.916 45.2451ZM87.916 51.5451C81.049 51.5451 75.5519 56.7401 75.5519 63.0571C75.5519 69.3751 81.049 74.5701 87.916 74.5701C94.783 74.5701 100.281 69.3751 100.28 63.0571C100.281 56.7401 94.783 51.5451 87.916 51.5451Z" fill="#AEAFBF"/>
<path d="M142.322 61.4062C147.209 61.4062 151.16 65.3863 151.16 70.2753V88.2834C151.16 90.0234 149.75 91.4333 148.01 91.4333C146.27 91.4333 144.86 90.0234 144.86 88.2834V70.2753C144.86 68.8553 143.719 67.7063 142.322 67.7063H121.18C119.769 67.7063 118.611 68.8683 118.611 70.3003L118.627 79.7683C118.63 81.5073 117.222 82.9204 115.483 82.9234C113.743 82.9264 112.33 81.5183 112.327 79.7793L112.311 70.3053C112.311 65.3943 116.284 61.4062 121.18 61.4062H142.322Z" fill="#AEAFBF"/>
<path d="M131.751 34.6821C138.515 34.6821 143.951 40.3191 143.951 47.2161C143.951 54.1141 138.515 59.7511 131.751 59.7511C124.987 59.7511 119.551 54.1141 119.551 47.2161C119.551 40.3191 124.987 34.6821 131.751 34.6821ZM131.751 40.9821C128.518 40.9821 125.851 43.7481 125.851 47.2161C125.851 50.6851 128.518 53.4511 131.751 53.4511C134.983 53.4511 137.651 50.6851 137.651 47.2161C137.651 43.7481 134.983 40.9821 131.751 40.9821Z" fill="#AEAFBF"/>
<path d="M53.9829 61.4062C58.8779 61.4062 62.852 65.3943 62.852 70.3103L62.835 79.7793C62.832 81.5183 61.42 82.9264 59.68 82.9234C57.94 82.9204 56.532 81.5073 56.535 79.7683L56.5518 70.3053C56.5518 68.8683 55.3939 67.7063 53.9829 67.7063H32.841C31.443 67.7063 30.3019 68.8553 30.3019 70.2753V88.2834C30.3019 90.0234 28.892 91.4333 27.152 91.4333C25.413 91.4333 24.002 90.0234 24.002 88.2834V70.2753C24.002 65.3863 27.953 61.4062 32.841 61.4062H53.9829Z" fill="#AEAFBF"/>
<path d="M43.4109 34.6821C50.1749 34.6821 55.6109 40.3191 55.6109 47.2161C55.6109 54.1141 50.1749 59.7511 43.4109 59.7511C36.6469 59.7511 31.2109 54.1141 31.2109 47.2161C31.2109 40.3191 36.6469 34.6821 43.4109 34.6821ZM43.4109 40.9821C40.1789 40.9821 37.5109 43.7481 37.5109 47.2161C37.5109 50.6851 40.1789 53.4511 43.4109 53.4511C46.6429 53.4511 49.3109 50.6851 49.3109 47.2161C49.3109 43.7481 46.6429 40.9821 43.4109 40.9821Z" fill="#AEAFBF"/>
<defs>
<linearGradient id="paint0_linear_309_171" x1="86.949" y1="4.183" x2="86.526" y2="156.018" gradientUnits="userSpaceOnUse">
<stop stop-color="#31394B"/>
<stop offset="1" stop-color="#262C3B"/>
</linearGradient>
</defs>
</svg>
