<svg width="176" height="162" viewBox="0 0 176 162" fill="none" xmlns="http://www.w3.org/2000/svg">
<path d="M22.221 0H152.943C165.215 0 175.163 9.859 175.163 22.021V139.435C175.163 151.596 165.215 161.455 152.943 161.455H22.221C9.949 161.455 0 151.596 0 139.435V22.021C0 9.859 9.949 0 22.221 0Z" fill="url(#paint0_linear_309_174)"/>
<path d="M50.5469 60.2168C49.3889 60.2168 48.5469 60.9858 48.5469 61.9168V73.4168C48.5469 74.5218 47.6519 75.4168 46.5469 75.4168C45.4429 75.4168 44.5469 74.5218 44.5469 73.4168V61.9168C44.5469 58.6928 47.2559 56.2168 50.5469 56.2168H65.4969C68.7579 56.2168 71.4969 58.7668 71.4969 61.9168V73.4168C71.4969 74.5218 70.6019 75.4168 69.4969 75.4168C68.3929 75.4168 67.4969 74.5218 67.4969 73.4168V61.9168C67.4969 61.0428 66.6099 60.2168 65.4969 60.2168H50.5469Z" fill="#AEAFBF"/>
<path d="M58.0773 38.6709C62.6403 38.6709 66.3773 42.2299 66.3773 46.6709C66.3773 51.1119 62.6403 54.6709 58.0773 54.6709C53.5143 54.6709 49.7773 51.1119 49.7773 46.6709C49.7773 42.2299 53.5143 38.6709 58.0773 38.6709ZM58.0773 42.6709C55.6813 42.6709 53.7773 44.4839 53.7773 46.6709C53.7773 48.8579 55.6813 50.6709 58.0773 50.6709C60.4733 50.6709 62.3773 48.8579 62.3773 46.6709C62.3773 44.4839 60.4733 42.6709 58.0773 42.6709Z" fill="#AEAFBF"/>
<path d="M130.778 98.7979C132.462 99.4259 131.826 98.9949 132.818 99.8689L148.863 117.969C152.358 122.067 152.676 128.044 149.021 131.243C145.35 134.456 139.417 133.409 135.828 129.339L119.829 111.198C118.359 109.531 118.959 106.913 121.008 106.052C121.91 105.673 123.554 104.592 124.635 103.646C125.924 102.518 127.138 101.187 127.538 100.459C128.456 98.9798 129.199 98.9739 130.778 98.7979ZM130.482 107.033C129.838 107.763 130.326 107.228 128.915 108.538C127.522 109.663 128.094 109.272 127.271 109.809L140.703 125.04C142.108 126.633 144.032 126.972 144.741 126.352C145.408 125.768 145.304 123.813 143.958 122.235L130.482 107.033Z" fill="#AEAFBF"/>
<path d="M109.564 60.4438L112.379 60.4828C127.539 61.4598 139.039 74.4998 138.058 89.6128C137.076 104.726 123.988 116.18 108.83 115.203C93.6701 114.227 82.1711 101.187 83.1521 86.0728C84.1441 74.2158 92.4191 63.9788 104.137 61.1868C105.913 60.7638 107.755 60.6908 109.564 60.4438ZM109.81 66.9388C98.8001 67.8128 90.9051 75.5749 89.6381 86.4939C88.8901 98.0189 97.6661 107.971 109.248 108.717C120.831 109.463 130.823 100.718 131.571 89.1918C132.319 77.6678 123.543 67.7158 111.961 66.9698L109.81 66.9388Z" fill="#AEAFBF"/>
<path d="M74.7249 83.9097C76.5199 83.9097 77.9749 85.3647 77.9749 87.1597C77.9749 88.9547 76.5199 90.4097 74.7249 90.4097H46.5469C44.7519 90.4097 43.2969 88.9547 43.2969 87.1597C43.2969 85.3647 44.7519 83.9097 46.5469 83.9097H74.7249Z" fill="#AEAFBF"/>
<path d="M46.5509 95.1597L76.0349 95.1957C77.8299 95.1987 79.2829 96.6547 79.2809 98.4497C79.2789 100.245 77.8219 101.699 76.0269 101.696L46.5429 101.66C44.7479 101.658 43.2949 100.201 43.2969 98.4057C43.2989 96.6117 44.7559 95.1577 46.5509 95.1597Z" fill="#AEAFBF"/>
<path d="M46.5479 106.742L82.1029 106.75C83.8979 106.75 85.3529 108.205 85.3519 110C85.3519 111.795 83.8969 113.25 82.1019 113.25L46.5459 113.242C44.7509 113.242 43.2969 111.786 43.2969 109.991C43.2969 108.197 44.7529 106.742 46.5479 106.742Z" fill="#AEAFBF"/>
<path d="M108.188 25.0288C117.685 25.0288 125.327 33.0248 125.327 42.8228V56.1298C125.327 57.7868 123.984 59.1298 122.327 59.1298C120.671 59.1298 119.327 57.7868 119.327 56.1298V42.8228C119.327 36.2798 114.309 31.0288 108.188 31.0288H47.7211H47.7191C41.5991 31.0288 36.5811 36.2798 36.5801 42.8228V116.144C36.5811 122.687 41.5991 127.938 47.7191 127.938H108.188C112.535 127.938 116.448 125.272 118.277 121.15C118.949 119.636 120.722 118.953 122.236 119.625C123.751 120.297 124.433 122.07 123.761 123.584C120.99 129.829 114.959 133.938 108.188 133.938H47.7191C38.2231 133.938 30.5811 125.941 30.5801 116.144V42.8228C30.7161 33.0278 38.0211 25.5378 47.7171 25.0288H47.7191H108.188Z" fill="#AEAFBF"/>
<defs>
<linearGradient id="paint0_linear_309_174" x1="86.949" y1="4.183" x2="86.526" y2="156.018" gradientUnits="userSpaceOnUse">
<stop stop-color="#31394B"/>
<stop offset="1" stop-color="#262C3B"/>
</linearGradient>
</defs>
</svg>
