<svg width="176" height="162" viewBox="0 0 176 162" fill="none" xmlns="http://www.w3.org/2000/svg">
<path d="M22.221 0H152.943C165.215 0 175.163 9.859 175.163 22.021V139.435C175.163 151.596 165.215 161.455 152.943 161.455H22.221C9.949 161.455 0 151.596 0 139.435V22.021C0 9.859 9.949 0 22.221 0Z" fill="url(#paint0_linear_227_199)"/>
<path d="M96.3412 23.2031L97.9362 30.0191L103.265 52.7911L127.377 47.1491L134.193 45.5541L135.788 52.3701L143.131 83.7451L144.726 90.5611L137.91 92.1561L113.798 97.7981L119.127 120.571L120.722 127.387L113.906 128.982L81.1112 136.656L74.2952 138.251L72.7002 131.436L67.3712 108.663L43.2592 114.306L36.4432 115.901L34.8482 109.085L27.5052 77.7101L25.9102 70.8941L32.7262 69.2991L56.8382 63.6571L51.5092 40.8841L49.9142 34.0681L56.7302 32.4731L89.5252 24.7981L96.3412 23.2031ZM91.1212 31.6141L58.3252 39.2891L65.2492 68.8771L34.3212 76.1151L41.6632 107.49L72.5912 100.253L79.5162 129.841L112.311 122.166L105.387 92.5781L136.315 85.3401L128.972 53.9651L98.0452 61.2021L91.1212 31.6141Z" fill="url(#paint1_linear_227_199)"/>
<defs>
<linearGradient id="paint0_linear_227_199" x1="86.949" y1="4.183" x2="86.526" y2="156.018" gradientUnits="userSpaceOnUse">
<stop stop-color="#31394B"/>
<stop offset="1" stop-color="#262C3B"/>
</linearGradient>
<linearGradient id="paint1_linear_227_199" x1="31.2073" y1="93.44" x2="139.525" y2="68.0843" gradientUnits="userSpaceOnUse">
<stop stop-color="#6756E2"/>
<stop offset="1" stop-color="#E72AB5"/>
</linearGradient>
</defs>
</svg>
