<svg width="199" height="185" viewBox="0 0 199 185" fill="none" xmlns="http://www.w3.org/2000/svg">
<g filter="url(#filter0_f_309_179)">
<path d="M164.943 12C177.215 12 187.163 21.859 187.163 34.021V151.435C187.163 163.596 177.215 173.455 164.943 173.455H34.221C21.949 173.455 12 163.596 12 151.435V34.021C12 21.859 21.949 12 34.221 12H164.943Z" fill="black" fill-opacity="0.498"/>
</g>
<path d="M34.221 12H164.943C177.215 12 187.163 21.859 187.163 34.021V151.435C187.163 163.596 177.215 173.455 164.943 173.455H34.221C21.949 173.455 12 163.596 12 151.435V34.021C12 21.859 21.949 12 34.221 12Z" fill="url(#paint0_linear_309_179)"/>
<path d="M94.3205 37.8779C94.9345 37.8779 95.4815 38.2809 95.6865 38.8849L131.873 145.56C132.207 146.545 131.507 147.578 130.507 147.578H107.353C106.72 147.578 106.16 147.148 105.971 146.518L99.7035 125.649H64.1655L57.4265 146.548C57.2285 147.163 56.6755 147.578 56.0535 147.578H33.7315C32.7295 147.578 32.0305 146.542 32.3665 145.557L68.8315 38.8819C69.0375 38.2799 69.5835 37.8779 70.1955 37.8779H94.3205ZM82.0285 68.7079L70.8775 104.242H92.8265L82.0285 68.7079Z" fill="#AEAFBF"/>
<path d="M105.073 37.9629L162.536 37.9649C164.936 37.9659 166.882 39.9969 166.882 42.5029C166.882 45.0089 164.936 47.0399 162.535 47.0399L105.073 47.0379C102.673 47.0379 100.727 45.0059 100.727 42.4999C100.727 39.9939 102.673 37.9629 105.074 37.9629H105.073Z" fill="#AEAFBF"/>
<path d="M162.446 61.8159C164.895 61.8149 166.88 63.8659 166.881 66.3979C166.882 68.9299 164.898 70.9829 162.449 70.9839L118.554 70.9999C116.106 71.0009 114.12 68.9489 114.119 66.4179C114.119 63.8859 116.102 61.8329 118.551 61.8319L162.446 61.8159Z" fill="#AEAFBF"/>
<path d="M131.432 85.1519L162.536 85.1529C164.936 85.1529 166.882 87.1839 166.882 89.6899C166.882 92.1959 164.936 94.2269 162.536 94.2269H131.432C129.032 94.2269 127.086 92.1949 127.086 89.6889C127.086 87.1839 129.032 85.1519 131.432 85.1519Z" fill="#AEAFBF"/>
<defs>
<filter id="filter0_f_309_179" x="0.5" y="0.5" width="198.162" height="184.455" filterUnits="userSpaceOnUse" color-interpolation-filters="sRGB">
<feFlood flood-opacity="0" result="BackgroundImageFix"/>
<feBlend mode="normal" in="SourceGraphic" in2="BackgroundImageFix" result="shape"/>
<feGaussianBlur stdDeviation="5.75" result="effect1_foregroundBlur_309_179"/>
</filter>
<linearGradient id="paint0_linear_309_179" x1="98.949" y1="16.183" x2="98.526" y2="168.018" gradientUnits="userSpaceOnUse">
<stop stop-color="#31394B"/>
<stop offset="1" stop-color="#262C3B"/>
</linearGradient>
</defs>
</svg>
