<svg width="199" height="185" viewBox="0 0 199 185" fill="none" xmlns="http://www.w3.org/2000/svg">
<g filter="url(#filter0_f_309_180)">
<path d="M164.943 12C177.215 12 187.163 21.859 187.163 34.021V151.435C187.163 163.596 177.215 173.455 164.943 173.455H34.221C21.949 173.455 12 163.596 12 151.435V34.021C12 21.859 21.949 12 34.221 12H164.943Z" fill="black" fill-opacity="0.498"/>
</g>
<path d="M34.221 12H164.943C177.215 12 187.163 21.859 187.163 34.021V151.435C187.163 163.596 177.215 173.455 164.943 173.455H34.221C21.949 173.455 12 163.596 12 151.435V34.021C12 21.859 21.949 12 34.221 12Z" fill="url(#paint0_linear_309_180)"/>
<path d="M151.983 42.627C159.448 42.628 165.283 49.408 165.283 57.528V127.927C165.283 136.047 159.448 142.828 151.983 142.828H47.1828C39.7178 142.828 33.8828 136.047 33.8828 127.928V57.527C33.8828 49.408 39.7178 42.628 47.1828 42.628L151.983 42.627ZM158.283 66.3279H40.8828V127.927C40.8828 132.395 43.8368 135.828 47.1828 135.828H151.983C155.329 135.828 158.283 132.395 158.283 127.928V66.3279ZM151.983 49.627H47.1828C43.8368 49.628 40.8828 53.06 40.8828 57.528V59.3279H158.283V57.527C158.283 53.06 155.329 49.628 151.983 49.628V49.627Z" fill="#AEAFBF"/>
<path d="M84.245 75.1982C85.891 75.5652 85.211 75.3132 86.331 75.8202L125.73 96.4202L125.755 96.4332C129.726 98.5512 129.726 104.192 125.73 106.323L86.274 126.952C82.571 128.804 78.209 126.149 78.209 122.021V80.7222C78.287 78.2932 79.797 76.1512 82.18 75.4272C82.843 75.2252 83.557 75.2742 84.245 75.1982ZM85.209 83.1322V119.611L120.093 101.372L85.209 83.1322Z" fill="#AEAFBF"/>
<defs>
<filter id="filter0_f_309_180" x="0.5" y="0.5" width="198.162" height="184.455" filterUnits="userSpaceOnUse" color-interpolation-filters="sRGB">
<feFlood flood-opacity="0" result="BackgroundImageFix"/>
<feBlend mode="normal" in="SourceGraphic" in2="BackgroundImageFix" result="shape"/>
<feGaussianBlur stdDeviation="5.75" result="effect1_foregroundBlur_309_180"/>
</filter>
<linearGradient id="paint0_linear_309_180" x1="98.949" y1="16.183" x2="98.526" y2="168.018" gradientUnits="userSpaceOnUse">
<stop stop-color="#31394B"/>
<stop offset="1" stop-color="#262C3B"/>
</linearGradient>
</defs>
</svg>
