<svg width="176" height="162" viewBox="0 0 176 162" fill="none" xmlns="http://www.w3.org/2000/svg">
<path d="M22.221 0H152.943C165.215 0 175.164 9.859 175.164 22.021V139.435C175.164 151.597 165.215 161.456 152.943 161.456H22.221C9.949 161.456 0 151.597 0 139.435V22.021C0 9.859 9.949 0 22.221 0Z" fill="url(#paint0_linear_231_135)"/>
<path d="M129.432 33.936C138.235 33.936 145.332 41.073 145.332 49.836V103.836C145.332 112.569 138.265 119.636 129.532 119.636H46.132C37.099 119.636 29.832 112.369 29.832 103.336V49.936C29.832 41.103 36.999 33.936 45.832 33.936H129.432ZM129.432 40.936H45.832C40.865 40.936 36.832 44.969 36.832 49.936V103.336C36.832 108.503 40.965 112.636 46.132 112.636H129.532C134.399 112.636 138.332 108.703 138.332 103.836V49.836C138.332 44.93 134.36 40.936 129.432 40.936Z" fill="url(#paint1_linear_231_135)"/>
<path d="M132.433 113.136C135.183 113.136 136.484 116.529 134.438 118.367L118.638 132.567C116.707 134.303 113.633 132.932 113.633 130.336V116.136C113.633 114.479 114.976 113.136 116.633 113.136H132.433Z" fill="url(#paint2_linear_231_135)"/>
<path d="M78.6624 81.7548C78.6624 80.3248 78.8954 79.0538 79.2054 78.0218C79.5924 76.9888 80.2124 76.0358 81.1424 75.1618C82.5364 73.8118 83.6984 72.6208 84.7834 71.6668C85.9454 70.7138 86.8754 69.7608 87.7274 68.8868C88.5804 68.0138 89.1224 67.2188 89.6644 66.4248C90.1294 65.6308 90.3624 64.9158 90.3624 64.0418C90.3624 62.4538 89.8974 61.1828 88.8894 60.2298C87.9604 59.3558 86.6434 58.7998 85.1714 58.7998C82.9244 58.7998 81.2194 59.4348 79.9794 60.7858C79.0504 61.8178 78.3524 63.1678 78.0434 64.6778C77.9654 65.0748 77.5784 65.4718 77.1134 65.4718C75.1764 65.3128 70.3724 64.9948 68.0484 64.8358C67.3514 64.7568 66.8864 64.1218 66.9634 63.4068C67.6604 58.7998 69.5204 55.2258 72.4644 52.7628C75.6414 50.0628 79.8254 48.6328 84.8614 48.6328C87.0304 48.6328 89.1224 48.9508 91.1364 49.5068C93.0734 50.1418 94.7784 51.0158 96.3274 52.2868C97.8774 53.5568 98.9624 55.0668 99.8914 56.8938C100.744 58.7198 101.209 60.7858 101.209 63.1678C101.209 64.5978 101.054 65.8688 100.821 67.0608C100.511 68.2518 100.046 69.3638 99.3494 70.4758C98.6524 71.5878 97.7224 72.7788 96.6374 73.8908C95.4754 75.0828 94.0814 76.3538 92.3764 77.7038C91.2914 78.5778 90.5174 79.4518 90.1294 80.3248C89.7424 81.1988 89.5874 81.9928 89.5874 82.8668V83.7408C89.5874 84.4558 89.0444 84.9318 88.4254 84.9318H79.9024C79.2054 84.9318 78.6624 84.3758 78.6624 83.6608V81.7548ZM77.4234 95.8928C77.4234 95.0198 77.5784 94.0668 77.8884 93.2718C78.1974 92.3988 78.7404 91.7628 79.2824 91.1278C79.8254 90.4918 80.5994 90.0158 81.4524 89.6978C82.1494 89.3798 82.8464 89.3008 83.4664 89.3008C84.4734 89.2208 85.5584 89.3798 86.5654 89.7768C87.4174 90.0948 88.0374 90.6508 88.6574 91.2068C89.2774 91.7628 89.7424 92.5568 90.0524 93.4308C90.3624 94.1458 90.4394 94.8608 90.4394 95.4958C90.5174 96.5288 90.3624 97.6408 89.9744 98.6738C89.6644 99.5468 89.1224 100.183 88.5804 100.818C88.0374 101.454 87.2624 101.93 86.4104 102.248C85.7134 102.566 85.0164 102.645 84.3964 102.645C83.3894 102.724 82.3044 102.566 81.2974 102.168C80.4444 101.851 79.8254 101.295 79.2054 100.739C78.5854 100.183 78.1204 99.3878 77.8104 98.5938C77.6554 97.7198 77.4234 96.7668 77.4234 95.8928Z" fill="url(#paint3_linear_231_135)"/>
<defs>
<linearGradient id="paint0_linear_231_135" x1="86.949" y1="4.183" x2="86.527" y2="156.018" gradientUnits="userSpaceOnUse">
<stop stop-color="#31394B"/>
<stop offset="1" stop-color="#262C3B"/>
</linearGradient>
<linearGradient id="paint1_linear_231_135" x1="29.832" y1="76.786" x2="145.332" y2="76.786" gradientUnits="userSpaceOnUse">
<stop stop-color="#6756E2"/>
<stop offset="1" stop-color="#BF37C3"/>
</linearGradient>
<linearGradient id="paint2_linear_231_135" x1="114.079" y1="117.892" x2="135.311" y2="116.983" gradientUnits="userSpaceOnUse">
<stop stop-color="#A540CC"/>
<stop offset="1" stop-color="#B839C5"/>
</linearGradient>
<linearGradient id="paint3_linear_231_135" x1="37.7474" y1="76.2018" x2="110.358" y2="75.8048" gradientUnits="userSpaceOnUse">
<stop stop-color="#6756E2"/>
<stop offset="1" stop-color="#BF37C3"/>
</linearGradient>
</defs>
</svg>
