<svg width="176" height="162" viewBox="0 0 176 162" fill="none" xmlns="http://www.w3.org/2000/svg">
<path d="M22.221 0H152.943C165.215 0 175.163 9.859 175.163 22.021V139.435C175.163 151.596 165.215 161.455 152.943 161.455H22.221C9.949 161.455 0 151.596 0 139.435V22.021C0 9.859 9.949 0 22.221 0Z" fill="url(#paint0_linear_231_238)"/>
<path d="M93.5914 57.27C97.3984 57.27 100.489 60.372 100.489 64.196L100.161 68.417C100.158 69.77 98.7674 70.63 97.4134 70.628C96.0604 70.625 95.5744 72.905 95.5764 71.552L95.5894 64.192C95.5894 63.074 94.6884 62.17 93.5914 62.17H77.1474C76.0604 62.17 75.1734 63.064 75.1734 64.168L75.1694 69.958C75.1694 71.311 74.5124 71.365 73.1594 71.365C71.8064 71.365 70.3814 70.172 70.3814 68.819L70.2734 64.168C70.2734 60.366 73.3454 57.27 77.1474 57.27H93.5914Z" fill="url(#paint1_linear_231_238)"/>
<path d="M85.3699 36.4849C90.6309 36.4849 94.8589 40.8689 94.8589 46.2339C94.8589 51.5989 90.6309 55.9829 85.3699 55.9829C80.1089 55.9829 75.8809 51.5989 75.8809 46.2339C75.8809 40.8689 80.1089 36.4849 85.3699 36.4849ZM85.3699 41.3849C82.8559 41.3849 80.7809 43.5359 80.7809 46.2339C80.7809 48.9319 82.8559 51.0829 85.3699 51.0829C87.8839 51.0829 89.9589 48.9319 89.9589 46.2339C89.9589 43.5359 87.8839 41.3849 85.3699 41.3849Z" fill="url(#paint2_linear_231_238)"/>
<path d="M85.3828 23.9282C100.018 23.9282 111.883 35.7922 111.883 50.4282C111.883 65.0632 100.018 76.9282 85.3828 76.9282C70.7468 76.9282 58.8828 65.0632 58.8828 50.4282C58.8828 35.7922 70.7468 23.9282 85.3828 23.9282ZM85.3828 30.9282C74.6128 30.9282 65.8828 39.6582 65.8828 50.4282C65.8828 61.1972 74.6128 69.9282 85.3828 69.9282C96.1518 69.9282 104.883 61.1972 104.883 50.4282C104.883 39.6582 96.1518 30.9282 85.3828 30.9282Z" fill="url(#paint3_linear_231_238)"/>
<path d="M57.082 84.5278C71.717 84.5278 83.582 96.3918 83.582 111.028C83.582 125.663 71.717 137.528 57.082 137.528C42.446 137.528 30.582 125.663 30.582 111.028C30.582 96.3918 42.446 84.5278 57.082 84.5278ZM57.082 91.5278C46.312 91.5278 37.582 100.258 37.582 111.028C37.582 121.797 46.312 130.528 57.082 130.528C67.851 130.528 76.582 121.797 76.582 111.028C76.582 100.258 67.851 91.5278 57.082 91.5278Z" fill="url(#paint4_linear_231_238)"/>
<path d="M118.082 84.5278C132.717 84.5278 144.582 96.3918 144.582 111.028C144.582 125.663 132.717 137.528 118.082 137.528C103.446 137.528 91.582 125.663 91.582 111.028C91.582 96.3918 103.446 84.5278 118.082 84.5278ZM118.082 91.5278C107.312 91.5278 98.582 100.258 98.582 111.028C98.582 121.797 107.312 130.528 118.082 130.528C128.851 130.528 137.582 121.797 137.582 111.028C137.582 100.258 128.851 91.5278 118.082 91.5278Z" fill="url(#paint5_linear_231_238)"/>
<path d="M85.9821 70.6279C87.9151 70.6279 89.4821 72.1949 89.4821 74.1279V85.5279C89.4821 86.8289 88.7601 88.0219 87.6081 88.6269L73.5081 96.0269C71.7971 96.9249 69.6811 96.2659 68.7821 94.5539C67.8841 92.8429 68.5441 90.7269 70.2551 89.8289L82.4821 83.4119V74.1279C82.4821 72.1949 84.0491 70.6279 85.9821 70.6279Z" fill="url(#paint6_linear_231_238)"/>
<path d="M86.6323 82.0879L87.3123 82.2909L105.311 89.6909C107.099 90.4259 107.953 92.4709 107.218 94.2579C106.483 96.0459 104.438 96.8999 102.65 96.1649L84.6504 88.7649C82.8624 88.0299 82.0093 85.9849 82.7443 84.1969C83.7353 82.2849 84.6453 82.1049 86.6323 82.0879Z" fill="url(#paint7_linear_231_238)"/>
<path d="M85.3828 23.9282C100.018 23.9282 111.883 35.7922 111.883 50.4282C111.883 65.0632 100.018 76.9282 85.3828 76.9282C70.7468 76.9282 58.8828 65.0632 58.8828 50.4282C58.8828 35.7922 70.7468 23.9282 85.3828 23.9282ZM85.3828 30.9282C74.6128 30.9282 65.8828 39.6582 65.8828 50.4282C65.8828 61.1972 74.6128 69.9282 85.3828 69.9282C96.1518 69.9282 104.883 61.1972 104.883 50.4282C104.883 39.6582 96.1518 30.9282 85.3828 30.9282Z" fill="url(#paint8_linear_231_238)"/>
<path d="M65.2926 117.214C69.0996 117.214 72.1906 120.316 72.1906 124.14L71.8626 128.361C71.8596 129.714 70.4686 130.574 69.1156 130.571C67.7626 130.569 67.2756 132.848 67.2776 131.495L67.2906 124.135C67.2906 123.018 66.3896 122.114 65.2926 122.114H48.8486C47.7616 122.114 46.8746 123.008 46.8746 124.112L46.8706 129.902C46.8706 131.255 46.2136 131.309 44.8606 131.309C43.5076 131.309 42.0826 130.116 42.0826 128.763L41.9746 124.112C41.9746 120.309 45.0476 117.214 48.8486 117.214H65.2926Z" fill="url(#paint9_linear_231_238)"/>
<path d="M57.0691 96.4282C62.3301 96.4282 66.5581 100.813 66.5581 106.178C66.5581 111.542 62.3301 115.927 57.0691 115.927C51.8081 115.927 47.5801 111.542 47.5801 106.178C47.5801 100.813 51.8081 96.4282 57.0691 96.4282ZM57.0691 101.328C54.5551 101.328 52.4801 103.48 52.4801 106.178C52.4801 108.875 54.5551 111.027 57.0691 111.027C59.5831 111.027 61.6581 108.875 61.6581 106.178C61.6581 103.48 59.5831 101.328 57.0691 101.328Z" fill="url(#paint10_linear_231_238)"/>
<path d="M126.293 117.214C130.1 117.214 133.191 120.316 133.191 124.14L132.863 128.361C132.86 129.714 131.469 130.574 130.116 130.571C128.763 130.569 128.276 132.848 128.278 131.495L128.291 124.135C128.291 123.018 127.39 122.114 126.293 122.114H109.849C108.762 122.114 107.875 123.008 107.875 124.112L107.871 129.902C107.871 131.255 107.214 131.309 105.861 131.309C104.508 131.309 103.083 130.116 103.083 128.763L102.975 124.112C102.975 120.309 106.048 117.214 109.849 117.214H126.293Z" fill="url(#paint11_linear_231_238)"/>
<path d="M118.069 96.4282C123.33 96.4282 127.558 100.813 127.558 106.178C127.558 111.542 123.33 115.927 118.069 115.927C112.808 115.927 108.58 111.542 108.58 106.178C108.58 100.813 112.808 96.4282 118.069 96.4282ZM118.069 101.328C115.555 101.328 113.48 103.48 113.48 106.178C113.48 108.875 115.555 111.027 118.069 111.027C120.583 111.027 122.658 108.875 122.658 106.178C122.658 103.48 120.583 101.328 118.069 101.328Z" fill="url(#paint12_linear_231_238)"/>
<defs>
<linearGradient id="paint0_linear_231_238" x1="86.949" y1="4.183" x2="86.526" y2="156.018" gradientUnits="userSpaceOnUse">
<stop stop-color="#31394B"/>
<stop offset="1" stop-color="#262C3B"/>
</linearGradient>
<linearGradient id="paint1_linear_231_238" x1="34.8854" y1="79.037" x2="140.831" y2="80.696" gradientUnits="userSpaceOnUse">
<stop stop-color="#6557E3"/>
<stop offset="1" stop-color="#C435C1"/>
</linearGradient>
<linearGradient id="paint2_linear_231_238" x1="37.2818" y1="45.6879" x2="142.49" y2="44.9509" gradientUnits="userSpaceOnUse">
<stop stop-color="#6557E3"/>
<stop offset="1" stop-color="#C435C1"/>
</linearGradient>
<linearGradient id="paint3_linear_231_238" x1="45.5638" y1="50.6672" x2="140.81" y2="51.0082" gradientUnits="userSpaceOnUse">
<stop stop-color="#6756E2"/>
<stop offset="1" stop-color="#C335C1"/>
</linearGradient>
<linearGradient id="paint4_linear_231_238" x1="30.582" y1="111.028" x2="144.046" y2="111.494" gradientUnits="userSpaceOnUse">
<stop stop-color="#6756E2"/>
<stop offset="1" stop-color="#C335C1"/>
</linearGradient>
<linearGradient id="paint5_linear_231_238" x1="30.91" y1="112.517" x2="144.582" y2="111.028" gradientUnits="userSpaceOnUse">
<stop stop-color="#6756E2"/>
<stop offset="1" stop-color="#C335C1"/>
</linearGradient>
<linearGradient id="paint6_linear_231_238" x1="38.0671" y1="87.1289" x2="141.49" y2="87.9809" gradientUnits="userSpaceOnUse">
<stop stop-color="#6756E2"/>
<stop offset="1" stop-color="#C335C1"/>
</linearGradient>
<linearGradient id="paint7_linear_231_238" x1="36.0213" y1="92.2409" x2="141.319" y2="93.7739" gradientUnits="userSpaceOnUse">
<stop stop-color="#6756E2"/>
<stop offset="1" stop-color="#C335C1"/>
</linearGradient>
<linearGradient id="paint8_linear_231_238" x1="45.5638" y1="50.6672" x2="140.81" y2="51.0082" gradientUnits="userSpaceOnUse">
<stop stop-color="#6756E2"/>
<stop offset="1" stop-color="#C335C1"/>
</linearGradient>
<linearGradient id="paint9_linear_231_238" x1="33.2286" y1="120.126" x2="143.044" y2="119.573" gradientUnits="userSpaceOnUse">
<stop stop-color="#6557E3"/>
<stop offset="1" stop-color="#C435C1"/>
</linearGradient>
<linearGradient id="paint10_linear_231_238" x1="29.9111" y1="103.175" x2="143.042" y2="102.99" gradientUnits="userSpaceOnUse">
<stop stop-color="#6557E3"/>
<stop offset="1" stop-color="#C435C1"/>
</linearGradient>
<linearGradient id="paint11_linear_231_238" x1="34.1496" y1="122.89" x2="143.412" y2="122.705" gradientUnits="userSpaceOnUse">
<stop stop-color="#6557E3"/>
<stop offset="1" stop-color="#C435C1"/>
</linearGradient>
<linearGradient id="paint12_linear_231_238" x1="33.0431" y1="104.096" x2="144.7" y2="104.464" gradientUnits="userSpaceOnUse">
<stop stop-color="#6557E3"/>
<stop offset="1" stop-color="#C435C1"/>
</linearGradient>
</defs>
</svg>
