<svg width="176" height="162" viewBox="0 0 176 162" fill="none" xmlns="http://www.w3.org/2000/svg">
<path d="M22.221 0H152.943C165.215 0 175.163 9.85898 175.163 22.021V139.435C175.163 151.596 165.215 161.455 152.943 161.455H22.221C9.949 161.455 0 151.596 0 139.435V22.021C0 9.85898 9.949 0 22.221 0Z" fill="url(#paint0_linear_309_184)"/>
<path d="M109.183 73.1787L95.1082 79.9517H62.6482C57.1482 79.9517 52.7952 83.9357 52.7952 88.6887V126.647C52.7952 128.513 51.2822 130.027 49.4152 130.027C47.5492 130.027 46.0352 128.513 46.0352 126.647V88.6887C46.0352 80.0617 53.5412 73.1917 62.6482 73.1917L109.183 73.1787Z" fill="#AEAFBF"/>
<path d="M87.4903 22.458C100.889 22.458 111.826 32.795 111.826 45.645C111.826 58.494 100.889 68.832 87.4903 68.832C74.0913 68.832 63.1543 58.494 63.1543 45.645C63.1543 32.795 74.0913 22.458 87.4903 22.458ZM87.4903 29.218C77.7423 29.218 69.9143 36.617 69.9143 45.645C69.9143 54.673 77.7423 62.072 87.4903 62.072C97.2383 62.072 105.066 54.673 105.066 45.645C105.066 36.617 97.2383 29.218 87.4903 29.218Z" fill="#AEAFBF"/>
<path d="M109.129 73.1787L109.632 75.3257L112.795 88.8447L126.746 85.5797L128.893 85.0767L129.395 87.2237L133.283 103.836L133.785 105.983L131.639 106.486L117.688 109.75L120.851 123.269L121.354 125.416L119.207 125.919L102.137 129.913L99.9902 130.416L99.488 128.269L96.324 114.75L82.373 118.015L80.226 118.517L79.724 116.37L75.836 99.7577L75.334 97.6107L77.481 97.1087L91.432 93.8437L88.268 80.3247L87.766 78.1777L89.912 77.6757L106.982 73.6807L109.129 73.1787ZM105.84 78.4767L93.064 81.4667L96.228 94.9857L96.73 97.1327L94.583 97.6357L80.632 100.9L83.515 113.219L97.466 109.954L99.613 109.451L100.115 111.598L103.279 125.117L116.055 122.127L112.892 108.608L112.389 106.462L114.536 105.959L128.487 102.694L125.604 90.3757L111.653 93.6407L109.507 94.1427L109.004 91.9957L105.84 78.4767Z" fill="#AEAFBF"/>
<defs>
<linearGradient id="paint0_linear_309_184" x1="86.949" y1="4.183" x2="86.526" y2="156.018" gradientUnits="userSpaceOnUse">
<stop stop-color="#31394B"/>
<stop offset="1" stop-color="#262C3B"/>
</linearGradient>
</defs>
</svg>
