<svg width="75" height="101" viewBox="0 0 75 101" fill="none" xmlns="http://www.w3.org/2000/svg">
<path d="M72.7155 23.8549L51.3105 2.25031C50.1046 1.03451 48.458 0.333008 46.7419 0.333008H11.353C5.18421 0.333008 0.198212 5.36011 0.198212 11.5796V88.9962C0.198212 95.216 5.18421 100.243 11.353 100.243H16.8491V89.6977C16.8491 82.7066 22.4613 77.0248 29.4185 77.0248H29.9983V86.3307H29.4185C27.5632 86.3307 26.1022 87.8271 26.1022 89.6743V100.219H48.7131V89.6743C48.7131 87.8038 47.2057 86.3307 45.3505 86.3307H44.7939V77.0248H45.3505C52.2845 77.0248 57.943 82.6832 57.943 89.6977V100.243H63.4392C69.6079 100.243 74.5939 95.216 74.5939 88.9962V28.4611C74.5939 26.7309 73.9214 25.0708 72.7155 23.8549ZM42.011 87.3829C42.011 89.9549 39.9471 92.036 37.3961 92.036C34.8451 92.036 32.7811 89.9549 32.7811 87.3829V61.6163C32.7811 59.0443 34.8451 56.9634 37.3961 56.9634C39.9471 56.9634 42.011 59.0443 42.011 61.6163V87.3829ZM57.943 60.2602C57.943 67.2513 52.2845 72.9564 45.3505 72.9564H44.7939V63.6505H45.3505C47.2057 63.6505 48.7131 62.1307 48.7131 60.2602V53.8536C48.7131 51.2816 50.7771 49.2007 53.3281 49.2007C55.8791 49.2007 57.943 51.2816 57.943 53.8536V60.2602ZM57.943 34.5637C57.943 37.1591 55.8791 39.2167 53.3281 39.2167C50.7771 39.2167 48.7131 37.1591 48.7131 34.5637V28.1572C48.7131 26.2866 47.2057 24.8136 45.3505 24.8136H29.4185C27.5632 24.8136 26.1022 26.31 26.1022 28.1572V60.2602C26.1022 62.1307 27.5864 63.6505 29.4185 63.6505H29.9983V72.9564H29.4185C22.4845 72.9564 16.8491 67.2513 16.8491 60.2602V28.1806C16.8491 21.1894 22.4613 15.5077 29.4185 15.5077H45.3505C52.2845 15.5077 57.943 21.1661 57.943 28.1806V34.5871V34.5637Z" fill="white"/>
</svg>
