<svg width="13" height="13" viewBox="0 0 13 13" fill="none" xmlns="http://www.w3.org/2000/svg">
<path d="M10.89 12.35H7.88V8.32327H9.94V6.28552H7.88V5.29103V5.09602V5.07653C7.89001 4.87178 8.06998 4.69627 8.28998 4.69627H8.33002H9.08002H10.16V2.65852H8.33002V2.66828H8.27002C6.90002 2.66828 5.78998 3.75053 5.78998 5.07653V5.67127V6.28552H4.14001V8.32327H5.78998V12.35H1.14001C0.510015 12.35 0.0100098 11.8625 0.0100098 11.258V1.74202C0.0100098 1.13752 0.510015 0.650024 1.14001 0.650024H10.89C11.51 0.650024 12.01 1.13752 12.01 1.74202V11.258C12.01 11.8625 11.51 12.35 10.89 12.35Z" fill="white"/>
</svg>
