<svg width="15" height="16" viewBox="0 0 15 16" fill="none" xmlns="http://www.w3.org/2000/svg">
<path d="M6.24988 14.1823C6.24986 14.0756 6.22619 13.9703 6.18054 13.8738C6.13489 13.7772 6.06837 13.6918 5.98571 13.6236C5.90305 13.5553 5.80626 13.506 5.70221 13.479C5.59815 13.4519 5.48938 13.448 5.38359 13.4673C4.42348 13.6419 3.21125 13.6682 2.88894 12.7707C2.6079 12.0756 2.14237 11.4689 1.54171 11.0148C1.49885 10.9917 1.458 10.9651 1.41959 10.9353C1.36702 10.7978 1.27365 10.6794 1.15179 10.5956C1.02993 10.5118 0.885314 10.4666 0.737015 10.466H0.733436C0.539517 10.4659 0.353469 10.542 0.216012 10.6776C0.0785563 10.8132 0.00088903 10.9973 1.02833e-05 11.1895C-0.00285741 11.7824 0.594818 12.1622 0.837289 12.2908C1.12321 12.5756 1.353 12.9107 1.51485 13.2791C1.78201 14.0232 2.5584 15.1522 4.7902 15.0067C4.79093 15.0322 4.79162 15.0564 4.79198 15.0784L4.7952 15.2729C4.7952 15.4658 4.87248 15.6507 5.01002 15.787C5.14756 15.9234 5.33411 16 5.52863 16C5.72315 16 5.9097 15.9234 6.04724 15.787C6.18478 15.6507 6.26206 15.4658 6.26206 15.2729L6.25848 15.0415C6.2549 14.9037 6.24988 14.7041 6.24988 14.1823ZM14.0733 3.1845C14.0966 3.09362 14.1195 2.99279 14.1396 2.87919C14.2582 2.06892 14.1548 1.24195 13.8402 0.484922C13.8005 0.386231 13.7395 0.297342 13.6615 0.224486C13.5835 0.151629 13.4904 0.0965699 13.3886 0.0631669C13.1275 -0.0241696 12.1635 -0.196 10.3199 0.972013C8.78744 0.614505 7.19218 0.614505 5.65972 0.972013C3.82364 -0.178891 2.86459 -0.0227154 2.60603 0.0596478C2.50179 0.0916977 2.4061 0.146466 2.32597 0.219938C2.24585 0.29341 2.18333 0.383724 2.14298 0.484261C1.82196 1.25582 1.71968 2.09966 1.84718 2.92465C1.86509 3.01767 1.88442 3.10358 1.90448 3.18239C1.29689 3.98468 0.973258 4.96327 0.983761 5.96644C0.981781 6.19026 0.992182 6.41402 1.01492 6.63671C1.25988 9.98311 3.46016 10.9878 4.99324 11.3329C4.96138 11.4238 4.93237 11.5211 4.90658 11.624C4.86063 11.8111 4.89138 12.0086 4.9921 12.1732C5.09282 12.3379 5.25528 12.4562 5.44387 12.5022C5.63245 12.5483 5.83177 12.5183 5.9981 12.4189C6.16443 12.3195 6.28421 12.1588 6.33117 11.9719C6.37784 11.7297 6.49746 11.5071 6.67426 11.3336C6.78116 11.2408 6.85856 11.1192 6.89704 10.9837C6.93552 10.8481 6.93342 10.7043 6.891 10.5699C6.84858 10.4355 6.76767 10.3162 6.65811 10.2265C6.54855 10.1368 6.41506 10.0806 6.27388 10.0648C3.74055 9.77792 2.64077 8.75476 2.47532 6.50324C2.45699 6.3249 2.44875 6.1457 2.45061 5.96645C2.43884 5.25148 2.67711 4.55452 3.12495 3.99397C3.16994 3.93553 3.21787 3.87936 3.26855 3.82569C3.35834 3.72608 3.41872 3.60387 3.44304 3.47248C3.46737 3.34108 3.4547 3.20559 3.40643 3.08086C3.35695 2.94965 3.31886 2.81449 3.29255 2.67685C3.2328 2.28547 3.2524 1.88622 3.3502 1.50244C3.98765 1.68092 4.58758 1.97144 5.12142 2.36016C5.20971 2.41846 5.3096 2.45725 5.41433 2.47391C5.51907 2.49057 5.62619 2.48471 5.72844 2.45673C7.21077 2.05793 8.77356 2.05818 10.2558 2.45746C10.3586 2.48541 10.4663 2.49093 10.5714 2.47365C10.6766 2.45637 10.7767 2.41669 10.8649 2.35735C11.3963 1.96701 11.9937 1.67389 12.629 1.49181C12.7264 1.86637 12.7482 2.2563 12.6931 2.63923C12.6665 2.79012 12.625 2.93806 12.5692 3.08088C12.5209 3.2056 12.5083 3.3411 12.5326 3.47249C12.5569 3.60389 12.6173 3.72609 12.7071 3.8257C12.7637 3.88889 12.8202 3.95706 12.8711 4.02096C13.3158 4.57202 13.55 5.26097 13.5326 5.96644C13.5339 6.1552 13.5247 6.34388 13.505 6.53163C13.3435 8.75333 12.2394 9.7772 9.69426 10.0648C9.55304 10.0807 9.41954 10.137 9.30999 10.2267C9.20044 10.3165 9.11956 10.4359 9.07718 10.5704C9.03481 10.7049 9.03276 10.8487 9.0713 10.9843C9.10983 11.1199 9.18729 11.2415 9.29424 11.3343C9.4766 11.5125 9.59647 11.7439 9.63625 11.9946C9.68581 12.1893 9.70858 12.3897 9.70393 12.5904V14.2874C9.69675 14.7581 9.69675 15.111 9.69675 15.2729C9.69675 15.4657 9.77402 15.6506 9.91157 15.787C10.0491 15.9234 10.2357 16 10.4302 16C10.6247 16 10.8112 15.9234 10.9488 15.787C11.0863 15.6506 11.1636 15.4657 11.1636 15.2729C11.1636 15.1153 11.1636 14.7695 11.1708 14.2987V12.5904C11.1767 12.2689 11.1385 11.9481 11.0572 11.6368C11.034 11.5346 11.0056 11.4336 10.972 11.3343C12.0877 11.1506 13.1015 10.5803 13.8328 9.72502C14.5642 8.86973 14.9656 7.78493 14.9657 6.6637C14.9899 6.43207 15.0012 6.1993 14.9994 5.96644C15.0157 4.96218 14.6894 3.98191 14.0733 3.18452L14.0733 3.1845Z" fill="white"/>
</svg>
