<svg width="208" height="32" viewBox="0 0 208 32" fill="none" xmlns="http://www.w3.org/2000/svg">
<g clip-path="url(#clip0)">
<path fill-rule="evenodd" clip-rule="evenodd" d="M45.7982 12.0325C45.7982 13.5034 47.6369 13.9524 49.7716 14.4586L49.7744 14.4593C52.8159 15.1755 56.2667 15.988 56.281 19.8886C56.281 23.332 53.3152 25.5575 48.7257 25.5575C45.9558 25.5575 43.1285 24.7408 41.5 23.4705L42.8468 20.3949C44.5786 21.6122 46.6377 22.2781 48.7544 22.3052C51.8348 22.3052 52.3123 21.0014 52.3123 20.2277C52.3123 18.7186 50.4689 18.2744 48.3293 17.7634L48.2477 17.7434C45.2259 17.0037 41.8439 16.1758 41.8439 12.2426C41.8439 9.4918 43.8115 6.54993 49.3466 6.54993C51.5639 6.57808 53.7329 7.20157 55.6267 8.35517L52.6896 10.5186C51.6335 10.0176 50.4716 9.78002 49.3036 9.8261C48.2482 9.8261 45.7982 10.041 45.7982 12.0325ZM72.8816 15.7097L73.0726 15.7766C74.0366 16.0591 74.8784 16.6558 75.4643 17.4719C76.0501 18.2879 76.3463 19.2764 76.3058 20.2801C76.3058 23.4894 73.7746 25.2612 69.1851 25.2612H59.9631V6.86975H68.6741C72.8863 6.86975 75.4032 8.64156 75.4032 11.6073C75.4277 12.4279 75.2208 13.2389 74.8061 13.9475C74.3914 14.656 73.7857 15.2336 73.0583 15.6142L72.8816 15.7097ZM68.1583 9.93102H63.9318V14.425H68.1583C70.2692 14.425 71.382 13.6561 71.382 12.1756C71.382 11.1584 70.8232 9.93102 68.1583 9.93102ZM63.9318 22.1952H68.8795C71.1718 22.1952 72.2846 21.4215 72.2846 19.8503C72.2846 18.2791 71.1384 17.4958 68.8795 17.4958H63.9318V22.1952ZM89.7496 9.93115L93.9045 6.86511H80.0022V25.2566H93.9045V22.1953H83.9709V17.4864H92.4431V14.4252H83.9709V9.93115H89.7496ZM109.244 19.282L113.285 25.2612H109.044L105.486 20.0509H101.55V25.2612H97.5818V6.86975H105.171C110.004 6.86975 113.003 9.39136 113.003 13.4508C113.053 14.6915 112.719 15.9176 112.047 16.9614C111.374 18.0051 110.395 18.8156 109.244 19.282ZM105.085 9.93102H101.57V16.9896H105.085C107.63 16.9896 109.029 15.7383 109.029 13.4603C109.029 11.1823 107.63 9.93102 105.085 9.93102Z" fill="#00A421"/>
<path fill-rule="evenodd" clip-rule="evenodd" d="M127.368 17.7492C127.353 18.4762 127.471 19.1998 127.717 19.884C127.923 20.4427 128.249 20.9496 128.672 21.3693C129.101 21.7825 129.619 22.0914 130.186 22.2719C130.795 22.4587 131.43 22.5505 132.068 22.5441C133.228 22.6161 134.372 22.2439 135.267 21.503C136.022 20.8057 136.399 19.6643 136.399 18.0788V6.93689H139.666V17.7206C139.691 18.9049 139.51 20.0847 139.131 21.2069C138.814 22.1296 138.286 22.9653 137.588 23.6473C136.902 24.3071 136.071 24.7977 135.162 25.08C134.118 25.4064 133.028 25.5675 131.934 25.5576C130.754 25.5838 129.579 25.4027 128.462 25.0227C127.545 24.7016 126.711 24.1794 126.021 23.4945C125.367 22.8192 124.876 22.0021 124.589 21.1066C124.261 20.09 124.1 19.0273 124.111 17.9594V6.9751H127.378L127.368 17.7492ZM148.1 11.9753V25.2137H144.862V6.93689H148.491L158.387 20.1753V6.93689H161.653V25.2137H157.995L148.1 11.9753ZM166.907 25.2137H170.173V6.93689H166.907V25.2137ZM188.942 9.94085H182.781V25.2233H179.515V9.94085H173.459V6.93689H188.942V9.94085ZM200.853 25.2137V18.4799L207.83 6.93689H204.12L199.396 15.1608L194.487 6.93689H190.666L197.586 18.2937V25.2137H200.853Z" fill="#A80534"/>
<path d="M28.6577 6.22217C29.422 7.20275 30.0666 8.27105 30.5777 9.40439L15.9999 20.0711L9.91992 16.3199V11.7333L15.9999 15.5555L28.6577 6.22217Z" fill="#21A038"/>
<path d="M3.69778 16C3.69778 15.7866 3.69778 15.5911 3.69778 15.3777L0 15.2C0 15.4666 0 15.7333 0 16C0.00373444 20.242 1.69189 24.3089 4.69333 27.3066L7.30667 24.6933C4.99221 22.3929 3.69292 19.2631 3.69778 16V16Z" fill="url(#paint0_linear)"/>
<path d="M16 3.69778H16.6222L16.8 0H16C11.758 0.00373444 7.69106 1.69189 4.69336 4.69333L7.30669 7.30667C9.6115 4.99886 12.7384 3.70077 16 3.69778Z" fill="url(#paint1_linear)"/>
<path d="M16 28.3022H15.3777L15.2 32H16C20.242 31.9963 24.3089 30.3081 27.3066 27.3067L24.6933 24.6934C22.3885 27.0012 19.2616 28.2993 16 28.3022Z" fill="url(#paint2_linear)"/>
<path d="M22.9333 5.84889L26.0444 3.55556C23.2009 1.25759 19.656 0.00278569 16 0V0V3.69778C18.4754 3.69776 20.8927 4.44775 22.9333 5.84889V5.84889Z" fill="url(#paint3_linear)"/>
<path d="M32.0001 16.0002C31.9975 15.0408 31.9143 14.0834 31.7512 13.1379L28.3024 15.6624V16.0002C28.3026 19.4768 26.8298 22.7907 24.249 25.1202L26.6668 27.8579C30.0428 24.8384 31.9809 20.5295 32.0001 16.0002Z" fill="#21A038"/>
<path d="M15.9999 28.3021C12.5233 28.3024 9.20934 26.8295 6.87987 24.2488L4.14209 26.6666C7.16162 30.0426 11.4706 31.9806 15.9999 31.9999V28.3021Z" fill="url(#paint4_linear)"/>
<path d="M7.75111 6.88011L5.33333 4.14233C1.95731 7.16186 0.0192632 11.4708 0 16.0001H3.69778C3.6975 12.5235 5.17035 9.20959 7.75111 6.88011V6.88011Z" fill="url(#paint5_linear)"/>
</g>
<defs>
<linearGradient id="paint0_linear" x1="8.95922" y1="23.5011" x2="1.22135" y2="15.3561" gradientUnits="userSpaceOnUse">
<stop offset="0.14" stop-color="#F2E913"/>
<stop offset="0.3" stop-color="#E7E518"/>
<stop offset="0.58" stop-color="#CADB26"/>
<stop offset="0.89" stop-color="#A3CD39"/>
</linearGradient>
<linearGradient id="paint1_linear" x1="9.02666" y1="8.48944" x2="15.9704" y2="1.22247" gradientUnits="userSpaceOnUse">
<stop offset="0.06" stop-color="#0FA8E0"/>
<stop offset="0.54" stop-color="#0099F9"/>
<stop offset="0.92" stop-color="#0291EB"/>
</linearGradient>
<linearGradient id="paint2_linear" x1="17.1603" y1="33.3292" x2="26.8416" y2="27.3067" gradientUnits="userSpaceOnUse">
<stop offset="0.12" stop-color="#A3CD39"/>
<stop offset="0.28" stop-color="#86C339"/>
<stop offset="0.87" stop-color="#21A038"/>
</linearGradient>
<linearGradient id="paint3_linear" x1="12.5616" y1="4.17406" x2="19.6235" y2="10.5767" gradientUnits="userSpaceOnUse">
<stop offset="0.06" stop-color="#0291EB"/>
<stop offset="0.79" stop-color="#0C8ACB"/>
</linearGradient>
<linearGradient id="paint4_linear" x1="1.93891" y1="29.8666" x2="10.1561" y2="37.0588" gradientUnits="userSpaceOnUse">
<stop offset="0.13" stop-color="#F2E913"/>
<stop offset="0.3" stop-color="#EBE716"/>
<stop offset="0.53" stop-color="#D9E01F"/>
<stop offset="0.8" stop-color="#BBD62D"/>
<stop offset="0.98" stop-color="#A3CD39"/>
</linearGradient>
<linearGradient id="paint5_linear" x1="5.10499" y1="19.817" x2="12.7702" y2="11.3251" gradientUnits="userSpaceOnUse">
<stop offset="0.07" stop-color="#A3CD39"/>
<stop offset="0.26" stop-color="#81C55F"/>
<stop offset="0.92" stop-color="#0FA8E0"/>
</linearGradient>
<clipPath id="clip0">
<rect width="208" height="32" fill="white"/>
</clipPath>
</defs>
</svg>
