<svg version="1.1" xmlns="http://www.w3.org/2000/svg" xmlns:xlink="http://www.w3.org/1999/xlink" width="16" height="16" viewBox="0,0,256,256"><defs><clipPath id="clip-1"><rect x="0" y="0" width="16" height="16" id="clip0_3293_23600" fill="none"></rect></clipPath></defs><g fill="none" fill-rule="nonzero" stroke="none" stroke-width="1" stroke-linecap="butt" stroke-linejoin="miter" stroke-miterlimit="10" stroke-dasharray="" stroke-dashoffset="0" font-family="none" font-weight="none" font-size="none" text-anchor="none" style="mix-blend-mode: normal"><g transform="scale(16,16)"><g clip-path="url(#clip-1)"><path d="M12.6502,2.96094c-0.2142,0 -0.3885,0.17428 -0.3885,0.38844c0,0.21415 0.1743,0.38843 0.3885,0.38843c0.2141,0 0.3884,-0.17425 0.3884,-0.38843c0,-0.21419 -0.1743,-0.38844 -0.3884,-0.38844z" fill="#ffffff"></path><path d="M7.99831,4.55664c-1.89881,0 -3.44362,1.54481 -3.44362,3.44363c0,1.89881 1.54481,3.44363 3.44362,3.44363c1.89885,0 3.44369,-1.54479 3.44369,-3.4436c0,-1.89882 -1.54484,-3.44366 -3.44369,-3.44366z" fill="#ffffff"></path><path d="M11.6138,0h-7.22764c-2.41854,0 -4.38616,1.96763 -4.38616,4.38619v7.22761c0,2.4186 1.96762,4.3862 4.38616,4.3862h7.22764c2.4186,0 4.3862,-1.9676 4.3862,-4.3862v-7.22761c0,-2.41856 -1.9676,-4.38619 -4.3862,-4.38619zM8,12.3885c-2.41984,0 -4.38847,-1.9687 -4.38847,-4.3885c0,-2.41984 1.96866,-4.38844 4.38847,-4.38844c2.4198,0 4.3885,1.96863 4.3885,4.38844c0,2.4198 -1.9687,4.3885 -4.3885,4.3885zM12.651,4.68237c-0.7352,0 -1.3333,-0.59812 -1.3333,-1.33331c0,-0.73519 0.5981,-1.33334 1.3333,-1.33334c0.7352,0 1.3333,0.59812 1.3333,1.33331c0,0.73519 -0.5981,1.33334 -1.3333,1.33334z" fill="#ffffff"></path></g></g></g></svg>