<svg width="16" height="16" viewBox="0 0 16 16" fill="none" xmlns="http://www.w3.org/2000/svg">
<g clip-path="url(#clip0_3293_23600)">
<path d="M12.6502 2.96094C12.436 2.96094 12.2617 3.13522 12.2617 3.34938C12.2617 3.56353 12.436 3.73781 12.6502 3.73781C12.8643 3.73781 13.0386 3.56356 13.0386 3.34938C13.0386 3.13519 12.8643 2.96094 12.6502 2.96094Z" fill="#A8B0CE"/>
<path d="M7.99831 4.55664C6.0995 4.55664 4.55469 6.10145 4.55469 8.00027C4.55469 9.89908 6.0995 11.4439 7.99831 11.4439C9.89716 11.4439 11.442 9.89911 11.442 8.0003C11.442 6.10148 9.89716 4.55664 7.99831 4.55664Z" fill="#A8B0CE"/>
<path d="M11.6138 0H4.38616C1.96762 0 0 1.96763 0 4.38619V11.6138C0 14.0324 1.96762 16 4.38616 16H11.6138C14.0324 16 16 14.0324 16 11.6138V4.38619C16 1.96763 14.0324 0 11.6138 0ZM8 12.3885C5.58016 12.3885 3.61153 10.4198 3.61153 8C3.61153 5.58016 5.58019 3.61156 8 3.61156C10.4198 3.61156 12.3885 5.58019 12.3885 8C12.3885 10.4198 10.4198 12.3885 8 12.3885ZM12.651 4.68237C11.9158 4.68237 11.3177 4.08425 11.3177 3.34906C11.3177 2.61387 11.9158 2.01572 12.651 2.01572C13.3862 2.01572 13.9843 2.61384 13.9843 3.34903C13.9843 4.08422 13.3862 4.68237 12.651 4.68237Z" fill="#A8B0CE"/>
</g>
<defs>
<clipPath id="clip0_3293_23600">
<rect width="16" height="16" fill="white"/>
</clipPath>
</defs>
</svg>
