<svg xmlns="http://www.w3.org/2000/svg" width="20" height="20" viewBox="0 0 20 20"> <defs> <linearGradient id="prefix__a" x1="58.168%" x2="5.207%" y1="0%" y2="71.405%"> <stop offset="0%" stop-color="#0187C8"/> <stop offset="31.332%" stop-color="#08A652"/> <stop offset="72.384%" stop-color="#08A652"/> <stop offset="100%" stop-color="#FAEF23"/> </linearGradient> </defs> <g fill="none" fill-rule="evenodd"> <path fill="url(#prefix__a)" d="M10 0c2.403 0 4.608.847 6.332 2.26L14.61 3.637c-1.295-.94-2.888-1.494-4.611-1.494-4.34 0-7.857 3.518-7.857 7.857 0 4.34 3.518 7.857 7.857 7.857 4.34 0 7.857-3.518 7.857-7.857 0-.1-.002-.2-.005-.3l1.997-1.442c.1.566.151 1.148.151 1.742 0 5.523-4.477 10-10 10S0 15.523 0 10 4.477 0 10 0z"/> <path fill="#229E39" d="M6.238 7.563L10 10 18.118 4.05 19.324 6.009 10 12.823 6.238 10.475z"/> </g> </svg>