<svg version="1.1" xmlns="http://www.w3.org/2000/svg" xmlns:xlink="http://www.w3.org/1999/xlink" width="16" height="16" viewBox="0,0,256,256"><g fill="#ffffff" fill-rule="nonzero" stroke="none" stroke-width="1" stroke-linecap="butt" stroke-linejoin="miter" stroke-miterlimit="10" stroke-dasharray="" stroke-dashoffset="0" font-family="none" font-weight="none" font-size="none" text-anchor="none" style="mix-blend-mode: normal"><g transform="translate(0.00053,-0.00768) scale(16,16)"><path d="M0.28261,7.71486l3.68672,1.376l1.42698,4.58914c0.09131,0.294 0.45072,0.4026 0.68928,0.2076l2.05504,-1.6754c0.21541,-0.1755 0.52224,-0.1842 0.74736,-0.0208l3.70661,2.691c0.2551,0.1855 0.6167,0.0457 0.6807,-0.2627l2.7152,-13.06084c0.0699,-0.33685 -0.2611,-0.61787 -0.5818,-0.49381l-15.13041,5.83685c-0.37339,0.144 -0.37013,0.67264 0.00432,0.81296zM5.16634,8.35838l7.20526,-4.43771c0.1295,-0.07952 0.2627,0.09558 0.1515,0.19872l-5.94641,5.52747c-0.20902,0.19456 -0.34384,0.45494 -0.38203,0.73754l-0.20256,1.5011c-0.02683,0.2005 -0.30837,0.2203 -0.36368,0.0264l-0.77904,-2.73736c-0.08923,-0.31221 0.0408,-0.64571 0.31696,-0.81616z"></path></g></g></svg>