<svg width="16" height="16" viewBox="0 0 16 16" fill="none" xmlns="http://www.w3.org/2000/svg">
<path d="M0.282607 7.71486L3.96933 9.09086L5.39631 13.68C5.48762 13.974 5.84703 14.0826 6.08559 13.8876L8.14063 12.2122C8.35604 12.0367 8.66287 12.028 8.88799 12.1914L12.5946 14.8824C12.8497 15.0679 13.2113 14.9281 13.2753 14.6197L15.9905 1.55886C16.0604 1.22201 15.7294 0.940994 15.4087 1.06505L0.278287 6.9019C-0.0950994 7.0459 -0.0918461 7.57454 0.282607 7.71486ZM5.16634 8.35838L12.3716 3.92067C12.5011 3.84115 12.6343 4.01625 12.5231 4.11939L6.57669 9.64686C6.36767 9.84142 6.23285 10.1018 6.19466 10.3844L5.9921 11.8855C5.96527 12.086 5.68373 12.1058 5.62842 11.9119L4.84938 9.17454C4.76015 8.86233 4.89018 8.52883 5.16634 8.35838Z" fill="#A8B0CE"/>
</svg>
