<svg version="1.1" xmlns="http://www.w3.org/2000/svg" xmlns:xlink="http://www.w3.org/1999/xlink" width="18" height="16" viewBox="0,0,256,227.54688"><g fill="#ffffff" fill-rule="nonzero" stroke="none" stroke-width="1" stroke-linecap="butt" stroke-linejoin="miter" stroke-miterlimit="10" stroke-dasharray="" stroke-dashoffset="0" font-family="none" font-weight="none" font-size="none" text-anchor="none" style="mix-blend-mode: normal"><g transform="translate(0.2888,-0.15516) scale(14.22222,14.22222)"><path d="M17.7797,2.54361c-0.66,0.286 -1.342,0.484 -2.068,0.572c0.748,-0.44 1.32,-1.144 1.584,-2.002c-0.704,0.418 -1.474,0.704 -2.288,0.88c-0.66,-0.704 -1.606,-1.144 -2.64,-1.144c-2.002,0 -3.60801,1.628 -3.60801,3.608c0,0.286 0.022,0.55 0.088,0.814c-2.992,-0.132 -5.632,-1.584 -7.414,-3.762c-1.276,2.288 0.154,4.18 1.1,4.818c-0.572,0 -1.144,-0.176 -1.628,-0.44c0,1.782 1.254,3.256 2.882,3.586c-0.352,0.11 -1.144,0.176 -1.628,0.066c0.462,1.42999 1.804,2.48599 3.366,2.50799c-1.232,0.968 -3.036,1.738 -5.346,1.496c1.606,1.034 3.498,1.628 5.544,1.628c6.64401,0 10.25201,-5.49999 10.25201,-10.25199c0,-0.154 0,-0.308 -0.022,-0.462c0.748,-0.55 1.364,-1.188 1.826,-1.914z"></path></g></g></svg>