<?xml version="1.0" standalone="no"?>
<!DOCTYPE svg PUBLIC "-//W3C//DTD SVG 20010904//EN"
 "http://www.w3.org/TR/2001/REC-SVG-20010904/DTD/svg10.dtd">
<svg version="1.0" xmlns="http://www.w3.org/2000/svg"
 width="1024.000000pt" height="1024.000000pt" viewBox="0 0 1024.000000 1024.000000"
 preserveAspectRatio="xMidYMid meet">

<g transform="translate(0.000000,1024.000000) scale(0.100000,-0.100000)"
fill="#000000" stroke="none">
<path d="M2045 10233 c-342 -23 -722 -144 -1013 -322 -280 -171 -547 -434
-713 -701 -74 -120 -172 -326 -213 -452 -45 -137 -82 -319 -96 -473 -8 -83
-10 -1083 -7 -3250 4 -3468 -2 -3172 68 -3435 232 -872 1012 -1510 1944 -1590
93 -8 1002 -10 3185 -8 2870 3 3061 5 3160 21 496 84 892 278 1229 602 375
361 598 827 641 1340 8 92 10 1041 8 3235 -4 3444 2 3157 -68 3426 -194 752
-800 1343 -1576 1540 -295 74 5 68 -3424 69 -1691 1 -3097 0 -3125 -2z m5052
-1344 c-1 -12 4 -24 11 -26 6 -3 12 0 12 7 0 6 -5 8 -12 4 -7 -4 -8 -3 -4 5
10 15 29 3 22 -14 -3 -8 2 -19 10 -26 8 -7 13 -18 10 -25 -7 -18 5 -25 21 -12
11 9 13 8 11 -3 -2 -8 -7 -17 -13 -21 -6 -5 -5 -8 2 -8 7 0 10 -7 7 -15 -4 -8
-1 -15 5 -15 6 0 11 6 12 13 0 9 2 9 6 -1 2 -6 10 -10 16 -6 7 3 3 -2 -7 -10
-11 -9 -14 -16 -7 -16 7 0 9 -4 6 -10 -9 -14 8 -12 25 3 8 6 6 2 -4 -10 -19
-23 -19 -23 3 -23 12 0 20 -4 17 -9 -3 -5 1 -12 10 -15 8 -3 12 -10 9 -16 -3
-6 1 -17 9 -26 18 -18 21 -39 4 -28 -7 4 -8 3 -4 -4 4 -6 14 -8 23 -5 11 4 14
3 9 -5 -4 -8 0 -12 11 -13 16 0 16 -1 -1 -8 -19 -7 -19 -8 3 -14 16 -4 22 -11
18 -21 -4 -11 -1 -16 11 -16 14 0 15 -2 2 -9 -8 -6 -18 -7 -24 -4 -5 3 -6 1
-3 -5 4 -5 15 -8 25 -6 10 2 24 -6 35 -21 10 -14 14 -25 9 -25 -6 0 -12 7 -16
15 -3 8 -11 15 -18 15 -10 0 -10 -2 1 -9 8 -5 10 -14 6 -21 -5 -8 -4 -11 3 -6
6 3 15 -2 21 -11 6 -10 11 -12 11 -5 0 6 4 12 8 12 4 0 8 -12 7 -27 0 -29 15
-54 28 -46 4 2 7 -1 7 -7 0 -6 4 -9 9 -5 5 3 13 0 17 -6 4 -7 3 -10 -2 -7 -5
3 -14 0 -21 -7 -10 -10 -9 -16 2 -25 8 -6 19 -9 25 -5 5 3 10 -1 10 -9 0 -9 5
-16 10 -16 6 0 10 -4 10 -10 0 -5 -8 -7 -17 -4 -14 5 -15 4 -4 -4 8 -6 21 -7
30 -4 14 5 14 3 2 -11 -7 -9 -17 -15 -21 -12 -5 3 -11 1 -15 -4 -6 -10 27 -7
45 4 16 10 12 -2 -7 -21 -17 -17 -17 -18 2 -10 45 18 49 17 20 -3 -16 -11 -24
-21 -18 -21 7 0 12 -4 10 -8 -1 -4 10 -23 26 -41 15 -18 27 -29 27 -24 0 5 -5
14 -12 21 -9 9 -9 12 3 13 7 0 1 6 -14 13 -28 12 -28 12 -8 30 20 18 20 18 16
-3 -2 -14 1 -21 11 -21 11 0 13 -6 9 -21 -5 -14 -3 -19 3 -15 6 3 14 1 18 -5
4 -8 3 -9 -4 -5 -8 5 -12 -1 -12 -15 0 -18 3 -20 12 -11 7 7 17 12 22 12 6 0
4 -5 -4 -10 -11 -7 -12 -12 -3 -21 8 -8 9 -18 2 -31 -5 -10 -8 -18 -7 -19 31
-8 38 -6 28 6 -7 8 -9 19 -5 26 4 6 1 16 -6 21 -12 8 -11 9 1 5 8 -2 15 -14
15 -27 0 -14 8 -26 20 -31 19 -7 19 -8 1 -8 -16 -1 -17 -4 -8 -13 15 -15 16
-42 2 -33 -6 4 -7 11 -4 17 5 7 2 8 -6 3 -10 -6 -8 -12 10 -27 18 -15 20 -21
10 -33 -7 -8 -16 -13 -20 -10 -5 3 -11 1 -14 -4 -7 -10 20 -9 30 2 11 10 36 8
29 -2 -3 -5 3 -11 12 -13 14 -3 12 -7 -12 -22 -16 -9 -23 -15 -14 -12 9 2 22
-1 28 -7 10 -9 12 -9 9 2 -2 8 7 15 21 17 l24 4 -24 -20 c-20 -16 -21 -19 -6
-20 9 0 17 -4 17 -9 0 -6 -17 -3 -37 6 -37 15 -38 15 -20 -4 9 -11 15 -23 12
-26 -3 -4 1 -3 7 3 20 17 30 11 23 -12 -7 -22 -6 -22 7 -4 12 15 17 16 23 6 5
-9 4 -11 -3 -6 -8 5 -11 -1 -10 -18 1 -15 6 -26 10 -26 3 0 9 -9 13 -19 4 -13
13 -18 26 -16 11 2 17 0 14 -6 -4 -5 -10 -7 -15 -4 -5 3 -11 1 -14 -4 -3 -5 3
-11 14 -14 11 -3 24 -16 29 -30 l9 -24 69 13 c114 22 207 27 298 15 325 -44
581 -277 677 -616 l23 -80 -3 -1910 c-2 -1116 -7 -1944 -13 -1992 -36 -312
-241 -582 -522 -688 -49 -18 -902 -176 -3095 -572 -3311 -598 -3131 -569
-3297 -529 -94 22 -236 93 -312 155 -164 135 -281 352 -300 561 -12 129 4
5166 17 5257 17 121 65 253 131 352 76 115 160 191 274 247 l90 44 2535 504
c2384 475 2671 532 2677 535 2 1 2 -9 0 -20z m348 -519 c3 -5 1 -10 -4 -10 -6
0 -11 5 -11 10 0 6 2 10 4 10 3 0 8 -4 11 -10z m35 -70 c0 -5 -4 -10 -10 -10
-5 0 -10 5 -10 10 0 6 5 10 10 10 6 0 10 -4 10 -10z m231 -337 c13 -16 12 -17
-3 -4 -10 7 -18 15 -18 17 0 8 8 3 21 -13z m-6 -23 c3 -5 1 -10 -4 -10 -6 0
-11 5 -11 10 0 6 2 10 4 10 3 0 8 -4 11 -10z m112 -220 c3 -10 2 -11 -4 -4 -4
6 -15 14 -23 17 -11 5 -9 6 4 4 11 -1 21 -9 23 -17z m54 -77 c13 -16 12 -17
-3 -4 -10 7 -18 15 -18 17 0 8 8 3 21 -13z"/>
<path d="M7640 7926 c0 -2 7 -7 16 -10 8 -3 12 -2 9 4 -6 10 -25 14 -25 6z"/>
<path d="M8073 7543 l-23 -4 0 -282 c0 -186 4 -277 10 -267 5 8 10 10 10 4 0
-5 -5 -15 -11 -21 -12 -12 -3 -37 11 -28 15 9 22 -15 10 -30 -8 -10 -9 -15 -2
-15 6 0 14 5 17 10 4 7 12 7 24 0 10 -5 21 -6 25 -3 3 3 6 1 6 -6 0 -8 -6 -11
-16 -7 -10 4 -14 2 -11 -6 2 -7 10 -12 17 -10 7 1 21 0 32 -4 16 -5 18 -8 7
-15 -11 -7 -9 -10 9 -15 12 -4 22 -11 22 -16 0 -5 6 -6 13 -2 7 5 6 0 -3 -11
-8 -10 -10 -16 -4 -12 12 7 57 -26 48 -36 -3 -3 3 -10 14 -16 11 -6 22 -7 26
-4 3 3 6 -1 6 -10 0 -8 9 -18 19 -22 13 -4 18 -12 14 -22 -5 -13 -2 -15 16
-10 19 5 20 3 9 -11 -11 -13 -11 -15 4 -9 10 3 17 3 17 -1 -3 -18 2 -33 9 -29
9 6 33 -19 26 -26 -6 -5 22 -23 41 -27 6 -1 9 -6 8 -11 -2 -5 2 -9 8 -9 5 0 7
-4 4 -10 -3 -5 0 -7 8 -4 8 3 18 0 23 -7 4 -8 3 -10 -4 -5 -7 4 -12 2 -12 -5
0 -7 8 -9 21 -6 17 5 18 3 8 -10 -11 -12 -10 -14 7 -11 13 2 18 -2 16 -13 -1
-9 5 -19 13 -23 11 -4 14 -2 9 7 -5 8 -2 7 9 -2 22 -18 22 -32 0 -25 -14 5
-15 4 -4 -4 8 -5 24 -9 36 -8 12 2 22 -3 23 -11 1 -7 3 -19 4 -26 1 -9 10 -12
25 -9 15 3 25 -1 29 -12 5 -14 9 -14 23 -4 14 11 14 11 4 -2 -14 -19 -12 -45
6 -63 10 -10 10 -7 2 14 -9 24 -7 26 15 21 13 -2 21 -8 18 -13 -3 -5 -10 -7
-16 -3 -5 3 -3 -7 6 -24 8 -16 22 -32 31 -36 9 -3 13 -10 10 -16 -3 -5 -1 -10
4 -10 6 0 11 7 11 15 0 8 -4 15 -9 15 -5 0 -12 7 -15 16 -5 14 -4 15 7 5 12
-9 15 -4 21 26 10 63 7 516 -5 599 -40 293 -250 538 -519 607 -62 16 -183 27
-217 20z m52 -613 c3 -6 -1 -7 -9 -4 -18 7 -21 14 -7 14 6 0 13 -4 16 -10z
m539 -516 c3 -8 2 -12 -4 -9 -6 3 -10 10 -10 16 0 14 7 11 14 -7z m116 -98 c0
-3 -4 -8 -10 -11 -5 -3 -10 -1 -10 4 0 6 5 11 10 11 6 0 10 -2 10 -4z"/>
<path d="M8150 6859 c0 -5 5 -7 10 -4 6 3 10 8 10 11 0 2 -4 4 -10 4 -5 0 -10
-5 -10 -11z"/>
<path d="M8680 6359 c0 -11 4 -18 10 -14 5 3 7 12 3 20 -7 21 -13 19 -13 -6z"/>
<path d="M3310 4229 c-173 -78 -318 -144 -323 -148 -4 -4 51 -140 123 -301 72
-161 127 -297 123 -301 -5 -4 -143 -66 -308 -139 -165 -72 -302 -133 -304
-136 -7 -7 272 -624 283 -624 6 1 146 61 311 134 165 74 303 131 307 127 4 -3
64 -134 133 -290 69 -156 128 -287 130 -291 4 -6 486 201 636 273 l26 12 -128
290 c-71 160 -129 295 -129 300 0 6 136 71 303 144 166 74 305 137 308 140 8
8 -267 626 -278 626 -5 0 -145 -60 -311 -134 -179 -80 -306 -131 -311 -125 -5
5 -66 138 -136 297 -70 158 -130 287 -134 286 -3 0 -148 -63 -321 -140z"/>
<path d="M2692 4195 c-266 -51 -486 -96 -489 -99 -6 -5 371 -2027 384 -2062 2
-6 186 24 506 85 276 52 504 96 506 98 5 4 -98 555 -104 562 -3 2 -143 -58
-311 -133 -169 -75 -311 -133 -315 -129 -7 8 -307 686 -312 704 -1 5 136 70
306 145 169 76 307 141 307 146 0 5 -57 138 -126 294 -69 157 -124 290 -122
295 2 5 68 39 147 74 79 36 146 67 148 69 11 10 -10 46 -25 45 -9 -1 -234 -43
-500 -94z"/>
</g>
</svg>
