<svg width="12" height="9" viewBox="0 0 12 9" fill="none" xmlns="http://www.w3.org/2000/svg">
<path d="M11.75 1.81873C11.61 1.34098 11.2099 0.960716 10.6899 0.833966C9.74994 0.599966 6 0.599976 6 0.599976C6 0.599976 2.25006 0.599966 1.31006 0.833966C0.800059 0.960716 0.39 1.34098 0.25 1.81873C0 2.68648 0 4.49998 0 4.49998C0 4.49998 0 6.31348 0.25 7.18123C0.39 7.65898 0.800059 8.03924 1.31006 8.16599C2.25006 8.39999 6 8.39998 6 8.39998C6 8.39998 9.74994 8.39999 10.6899 8.16599C11.2099 8.03924 11.61 7.65898 11.75 7.18123C12 6.31348 12 4.49998 12 4.49998C12 4.49998 12 2.68648 11.75 1.81873ZM5 6.44998V2.54998L8 4.49998L5 6.44998Z" fill="white"/>
</svg>
