<svg width="21" height="21" viewBox="0 0 21 21" fill="none" xmlns="http://www.w3.org/2000/svg">
<path d="M6.41971 8.81931L10.4962 4.74119L14.5766 8.81931L16.9504 6.44679L10.4962 0L4.0459 6.4353L6.41971 8.80781V8.81931ZM6.10352e-05 10.4789L2.37004 8.11024L4.74385 10.4789L2.37004 12.8514L6.10352e-05 10.4789ZM6.41971 12.1845L10.4962 16.2626L14.5766 12.1845L16.9504 14.5532L10.4962 21L4.0459 14.5532L6.42355 12.1845H6.41971ZM16.2563 10.5134L18.6262 8.1409L21.0001 10.5134L18.6262 12.8821L16.2563 10.5134Z" fill="white"/>
<path d="M12.9045 10.4906L10.4962 8.08354L8.71676 9.86197L8.5135 10.0689L8.09167 10.4906L10.4962 12.8976L12.9045 10.4906Z" fill="white"/>
</svg>
