<svg width="12" height="16" viewBox="0 0 12 16" fill="none" xmlns="http://www.w3.org/2000/svg">
<path fill-rule="evenodd" clip-rule="evenodd" d="M3.7892 3.96493L3.80251 6.71H7.72133C8.41732 6.71 8.98137 6.14124 8.97788 5.44174L8.9769 5.23319C8.97352 4.53358 8.40402 3.96493 7.70792 3.96493H4.32567H3.7892ZM9.47538 10.8827L9.47429 10.6623C9.47058 9.88207 8.83609 9.24854 8.05985 9.24854H7.73372H3.815L3.82983 12.2966H8.07457C8.85081 12.2966 9.4792 11.662 9.47538 10.8827ZM10.719 7.76674C11.4989 8.48893 11.9934 9.51818 11.9989 10.6624L12 10.8828C12.0106 13.0612 10.2551 14.8341 8.08675 14.8341H7.9908L7.99636 16H5.47169L5.46602 14.8341H4.43125L4.43692 16H1.91226L1.90659 14.8341H1.31724H0.0651567L0.0528354 12.2967H1.30492L1.2902 9.24859L1.27777 6.71009L1.26447 3.96501H0.0123823L6.10352e-05 1.42662H1.84149L1.83462 0H4.35929L4.36616 1.42662H5.40104L5.39406 0H7.91883L7.9257 1.43857C9.90779 1.55944 11.4919 3.21247 11.5017 5.23328L11.5027 5.44183C11.5069 6.31755 11.2122 7.12236 10.719 7.76674Z" fill="white"/>
</svg>
