<svg width="682" height="1092" viewBox="0 0 682 1092" fill="none" xmlns="http://www.w3.org/2000/svg">
<g clip-path="url(#clip0_3293_23851)">
<path d="M543.175 466.988C518.945 465.285 496.812 482.031 472.66 483.014C442.298 484.081 417.692 460.826 393.046 443.261C368.401 425.696 332.006 413.551 309.991 434.327C293.059 450.141 294.029 477.776 303.761 498.788C313.493 519.8 329.633 536.897 341.561 556.86C352.301 575.205 359.284 596.041 361.46 617.177C364.743 647.793 358.216 679.325 363.616 709.723C369.016 740.121 392.515 771.475 423.471 769.46C453.081 767.485 471.871 737.447 482.869 710.021C494.123 682.536 505.575 651.219 532.931 639.487C547.963 633.037 565.746 633.796 579.354 624.701C627.498 592.747 604.809 471.136 543.175 466.988Z" stroke="url(#paint0_linear_3293_23851)" stroke-width="0.5" stroke-miterlimit="10" stroke-linecap="round" stroke-linejoin="round"/>
<path d="M361.856 711.482C363.656 721.615 367.117 731.904 372.26 741.265C382.724 760.755 399.873 775.184 420.543 775.546C433.34 775.834 444.556 771.619 454.426 763.929C467.994 753.49 479.051 736.87 486.844 720.192C497.782 696.026 507.83 668.008 527.135 651.916C530.063 649.346 533.366 647.23 536.728 645.371C550.95 637.757 567.862 637.094 581.806 627.109C588.749 621.988 594.94 615.959 599.687 608.371C606.867 597.245 609.537 584.185 610.823 569.823C612.108 551.945 610.921 532.745 606.313 515.147C602.119 499.347 595.216 484.713 585.82 473.361C575.357 460.903 561.748 452.417 545.766 451.242C521.536 449.539 499.541 465.712 475.192 467.012C444.889 468.335 421.114 445.159 395.578 430.775C384.996 424.836 372.317 421.545 359.677 419.597C346.207 417.572 332.243 418.094 319.742 422.606C313.946 424.486 308.645 427.334 303.898 431.407C286.334 446.826 286.789 474.58 295.492 495.83C299.666 505.685 305.007 514.729 311.119 523.594C318.101 533.882 325.281 543.853 331.611 554.832C342.411 573.433 348.879 594.388 352.143 615.543C354.536 631.759 355.98 647.384 356.91 663.127C357.583 678.93 358.889 695.128 361.856 711.482Z" stroke="url(#paint1_linear_3293_23851)" stroke-width="0.5" stroke-miterlimit="10" stroke-linecap="round" stroke-linejoin="round"/>
<path d="M360.095 713.242C362.014 723.888 365.277 734.494 370.222 744.17C380.29 764.293 397.044 779.355 417.358 781.692C430.136 783.067 442.023 780.59 453.219 773.945C468.429 764.75 481.662 748.168 490.563 730.423C502.984 705.643 512.933 676.026 531.111 658.571C533.979 655.744 536.965 653.431 540.269 651.315C553.679 642.536 569.721 640.451 583.744 629.637C591.083 623.884 598.243 617.36 603.761 609.593C612.563 597.281 614.739 583.254 615.926 567.292C617.31 547.498 617.053 526.46 612.543 506.946C608.508 489.486 601.762 473.193 591.437 460.162C580.36 446.223 565.11 436.494 547.526 435.418C523.296 433.715 501.241 449.632 476.892 450.931C446.708 452.768 423.704 429.414 397.535 418.151C386.043 412.963 372.415 412.597 358.846 412.487C344.446 412.299 329.493 414.402 315.192 419.33C308.942 421.586 302.493 424.158 297.034 428.666C279.094 443.631 278.778 471.564 286.71 492.992C290.369 502.965 295.453 512.069 301.11 521.31C307.578 531.716 314.817 541.944 320.89 552.983C331.492 571.9 338.019 593.112 342.055 614.088C345.457 631.153 348.82 646.875 351.411 662.776C353.805 678.992 356.89 695.86 360.095 713.242Z" stroke="url(#paint2_linear_3293_23851)" stroke-width="0.5" stroke-miterlimit="10" stroke-linecap="round" stroke-linejoin="round"/>
<path d="M358.394 715.258C360.372 726.161 363.438 737.083 368.245 747.332C377.977 768.344 394.335 784.038 414.491 788.035C427.565 790.693 440.066 789.698 452.013 783.961C468.608 776.069 484.333 759.722 494.341 740.91C507.989 715.576 518.156 684.556 535.206 665.739C537.757 662.715 540.685 660.145 543.928 657.772C556.528 647.828 571.699 644.322 585.802 632.678C593.734 625.976 601.665 619.274 608.153 611.013C618.834 597.455 620.258 582.52 621.346 564.958C622.572 543.306 623.561 520.628 619.09 498.941C615.273 480.078 608.369 461.929 597.174 447.476C585.227 432.115 568.651 421.34 549.405 420.108C525.175 418.405 503.002 433.808 478.772 435.621C448.647 437.714 423.823 419.379 399.356 406.1C385.945 404.331 372.119 404.28 357.62 406.008C342.548 407.598 326.289 411.086 310.248 416.686C303.226 419.121 295.947 421.614 290.033 426.497C271.519 441.325 270.57 468.863 277.73 490.469C281.133 500.502 285.761 509.981 291.102 519.025C297.372 529.747 304.157 540.351 310.229 551.389C320.633 570.623 327.161 591.835 332.027 612.889C336.438 630.803 341.66 646.366 345.774 662.997C350.284 678.994 354.893 696.592 358.394 715.258Z" stroke="url(#paint3_linear_3293_23851)" stroke-width="0.5" stroke-miterlimit="10" stroke-linecap="round" stroke-linejoin="round"/>
<path d="M356.949 717.215C359.243 728.315 361.914 739.87 366.523 750.435C375.661 772.396 391.881 788.663 411.68 794.635C425.052 798.578 437.908 799.122 451.181 794.432C469.418 787.783 487.318 771.474 498.434 751.595C513.249 725.45 523.752 693.541 539.813 672.789C542.305 669.508 544.916 666.741 547.784 663.914C559.573 652.805 573.874 647.877 588.056 635.403C596.383 628.069 605.343 621.129 612.543 612.433C624.846 597.688 625.775 581.786 626.764 562.624C628.089 539.056 629.75 514.6 625.636 490.937C621.976 470.415 614.915 450.408 603.166 434.731C590.605 417.889 572.388 405.871 551.738 404.422C527.507 402.719 505.216 417.608 481.045 419.678C451.039 422.285 425.998 405.353 401.886 393.614C387.486 393.426 372.79 395.47 357.302 398.779C341.3 402.207 323.795 407.334 306.468 413.232C298.675 415.845 290.882 418.457 284.196 423.519C265.307 437.892 263.586 465.608 269.975 487.393C272.863 497.545 277.234 507.083 282.377 516.443C288.133 527.284 294.72 538.204 300.535 549.302C310.742 568.852 317.329 590.321 322.966 611.197C328.129 630.019 335.527 645.62 341.303 662.407C346.821 679.254 352.894 697.325 356.949 717.215Z" stroke="url(#paint4_linear_3293_23851)" stroke-width="0.5" stroke-miterlimit="10" stroke-linecap="round" stroke-linejoin="round"/>
<path d="M355.189 718.974C357.602 730.588 360.332 742.399 364.486 753.34C373.229 775.933 389.171 793.346 408.496 800.781C422.164 806.007 435.694 808.29 449.658 804.251C469.28 798.905 489.356 782.634 501.896 761.884C517.937 735.186 528.401 701.933 543.532 679.503C545.965 675.965 548.516 672.941 551.068 669.917C562.046 657.643 575.219 651.353 589.737 637.989C598.401 629.766 608.389 622.589 616.558 613.398C630.483 597.467 630.918 580.597 631.868 560.092C633.034 534.668 635.882 508.314 632.124 482.675C628.623 460.494 621.462 438.888 608.843 421.789C595.412 403.525 575.869 390.46 553.558 388.855C529.327 387.152 506.917 401.527 482.865 404.111C452.918 406.975 427.976 391.642 403.706 381.563C388.06 383.015 372.75 387.094 356.333 392.241C339.402 397.507 320.848 403.958 301.781 410.529C293.216 413.32 284.592 415.854 277.195 421.35C257.988 435.526 255.437 463.164 260.798 485.186C263.428 495.397 267.286 505.055 272.231 514.731C277.789 525.888 284.118 536.868 289.736 548.282C299.745 568.148 306.391 589.873 312.74 610.315C318.912 629.986 328.228 645.684 335.468 662.945C343.301 679.256 350.897 698.057 355.189 718.974Z" stroke="url(#paint5_linear_3293_23851)" stroke-width="0.5" stroke-miterlimit="10" stroke-linecap="round" stroke-linejoin="round"/>
<path d="M353.488 720.989C355.961 732.86 358.493 744.987 362.508 756.501C370.915 779.983 386.462 798.029 405.629 807.123C419.593 813.633 433.479 817.456 448.769 814.463C470.032 810.361 492.284 794.128 505.932 772.311C523.199 745.059 533.88 710.404 548.082 686.294C550.198 682.56 552.691 679.279 555.183 675.998C565.349 662.559 577.652 654.847 592.448 640.338C601.764 631.423 612.524 624.067 621.346 614.184C636.892 597.067 636.833 579.229 637.683 557.124C638.949 529.784 642.47 501.652 639.067 474.038C635.981 450.137 628.722 426.931 615.173 408.154C601.129 388.408 580.004 374.357 556.031 372.595C531.8 370.892 509.271 384.754 485.278 387.594C455.45 390.972 430.35 377.298 406.119 368.563C389.227 371.655 373.048 377.829 355.641 384.556C337.721 391.403 318.238 399.692 297.627 406.62C288.608 409.786 278.837 412.044 270.984 417.916C251.204 431.954 248.02 459.197 252.609 481.398C254.726 491.728 258.326 501.445 263.014 511.18C268.058 522.457 274.189 533.752 279.866 545.423C289.677 565.605 296.383 587.587 303.504 607.85C310.684 628.37 321.919 644.166 330.82 661.584C339.781 679.258 349.156 698.729 353.488 720.989Z" stroke="url(#paint6_linear_3293_23851)" stroke-width="0.5" stroke-miterlimit="10" stroke-linecap="round" stroke-linejoin="round"/>
<path d="M352.046 722.946C354.637 735.33 356.971 747.774 360.789 759.604C368.8 783.719 383.813 802.969 402.762 813.466C417.024 821.26 431.522 826.564 447.821 824.42C470.726 821.561 494.897 805.426 509.969 782.739C528.462 754.933 539.361 718.875 552.435 693.403C554.492 689.412 556.668 685.934 558.844 682.455C568.199 667.851 579.573 658.461 594.506 643.379C604.159 633.574 615.947 625.981 625.798 615.861C643.223 597.498 642.412 578.752 643.421 554.987C644.528 525.79 649.236 495.761 645.991 466.487C643.123 441.184 635.706 416.121 621.543 395.863C606.629 374.696 584.376 359.282 558.801 357.62C534.571 355.917 511.923 369.265 487.99 372.362C458.221 375.996 433.219 363.923 409.028 356.531C390.95 361.521 374.097 369.473 355.762 378.038C337.169 386.663 316.38 396.336 294.029 403.936C284.238 407.28 273.953 409.658 265.329 415.708C245.232 429.549 241.217 456.713 245.035 479.092C246.894 489.481 250.04 499.574 254.213 509.428C259.059 521.021 264.934 532.376 270.354 544.106C279.908 564.348 286.989 586.784 294.624 606.928C302.813 628.297 315.967 644.19 326.529 661.765C336.261 679.26 347.16 699.462 352.046 722.946Z" stroke="url(#paint7_linear_3293_23851)" stroke-width="0.5" stroke-miterlimit="10" stroke-linecap="round" stroke-linejoin="round"/>
<path d="M350.286 724.705C352.936 737.346 355.132 750.363 358.752 762.509C366.427 787.513 381.103 807.652 399.578 819.612C414.195 828.946 428.991 835.534 446.357 834.496C470.647 832.939 497.251 816.783 513.43 793.028C532.893 764.728 544.266 727.208 556.411 700.058C558.151 695.869 560.209 691.877 562.325 688.142C570.87 672.373 581.373 661.561 596.385 645.649C606.374 634.956 619.508 627.322 629.754 616.569C648.801 597.02 647.496 577.307 648.405 551.942C649.612 520.828 654.992 489.021 652.103 457.772C649.393 430.809 641.877 404.146 626.844 382.466C611.376 360.075 587.482 343.418 560.245 341.598C536.015 339.895 513.308 352.987 489.433 356.341C459.784 360.488 434.564 349.818 410.472 344.025C391.147 350.655 373.425 360.702 354.417 371.046C334.894 381.508 312.859 392.822 288.965 400.778C278.403 404.301 267.287 406.6 257.951 413.085C237.538 426.728 232.692 453.814 235.739 476.372C237.084 486.88 239.972 497.032 243.948 507.202C248.279 518.914 253.956 530.585 259.435 542.572C268.791 563.13 275.873 585.566 284.339 605.789C293.794 627.947 308.609 643.997 320.635 662.045C332.8 679.519 345.163 700.194 350.286 724.705Z" stroke="url(#paint8_linear_3293_23851)" stroke-width="0.5" stroke-miterlimit="10" stroke-linecap="round" stroke-linejoin="round"/>
<path d="M348.585 726.722C351.295 739.619 353.293 752.952 356.774 765.671C363.796 791.367 378.513 812.85 396.453 826.014C411.11 836.692 426.776 844.702 445.151 844.512C471.082 844.199 499.605 828.141 517.209 803.516C537.839 774.405 549.231 735.798 560.446 706.969C562.128 702.524 563.868 698.335 565.668 694.403C573.402 677.468 582.777 665.294 598.126 648.493C608.511 637.167 622.614 629.039 633.888 618.049C654.815 597.254 652.758 576.632 653.568 549.667C654.616 516.697 661.183 482.992 658.394 449.827C655.842 421.205 648.226 392.942 632.58 369.78C616.242 345.968 591.023 328.264 562.381 326.228C538.151 324.525 515.325 337.104 491.511 340.714C461.92 345.119 436.542 336.108 412.807 331.856C392.236 340.126 373.9 352.208 353.645 364.192C333.193 376.492 310.11 389.13 284.733 397.7C273.399 401.401 261.511 403.878 251.661 410.482C230.991 424.185 225.255 450.936 227.273 473.731C228.361 484.298 230.735 494.569 234.454 504.799C238.588 516.827 244.007 528.557 249.229 540.604C258.388 561.478 265.785 584.111 275.023 604.156C285.486 627.162 302.161 643.054 315.908 661.515C329.279 679.522 343.165 700.926 348.585 726.722Z" stroke="url(#paint9_linear_3293_23851)" stroke-width="0.5" stroke-miterlimit="10" stroke-linecap="round" stroke-linejoin="round"/>
<path d="M346.882 728.738C349.71 742.149 351.51 755.798 354.794 768.834C361.48 795.418 375.603 817.85 393.583 832.358C408.536 844.319 424.618 854.126 444.002 854.785C471.575 855.716 502.214 839.439 520.984 814.003C542.841 784.338 554.451 744.329 564.479 713.881C566.101 709.179 567.525 704.792 569.266 700.603C576.189 682.504 584.635 668.651 600.379 651.218C611.357 638.944 626.291 630.894 638.218 619.212C660.826 597.487 658.215 575.641 658.926 547.076C660.073 512.19 667.312 476.707 664.879 441.566C662.486 411.285 654.712 381.165 638.453 356.522C621.501 331.228 594.64 312.281 564.337 310.088C540.107 308.385 517.163 320.45 493.407 324.317C463.935 329.235 438.657 321.824 414.644 318.718C392.827 328.629 373.878 342.746 352.694 356.568C331.253 370.449 307.24 384.924 280.063 393.91C268.215 397.73 255.496 400.129 244.934 407.168C223.948 420.673 217.322 447.089 218.568 470.062C219.142 480.749 221.317 491.335 224.779 501.625C228.656 513.712 233.621 525.818 238.902 538.122C247.863 559.312 255.577 582.143 265.328 602.068C276.801 625.924 295.394 641.913 310.803 660.531C325.757 679.524 341.165 701.659 346.882 728.738Z" stroke="url(#paint10_linear_3293_23851)" stroke-width="0.5" stroke-miterlimit="10" stroke-linecap="round" stroke-linejoin="round"/>
<path d="M345.379 730.437C348.267 744.105 349.928 758.327 353.014 771.679C359.364 799.153 372.893 822.533 390.656 838.443C405.708 852.005 422.6 862.977 442.993 864.485C471.951 866.718 504.765 850.479 524.96 824.173C548.043 793.955 559.871 752.542 569.029 720.673C570.334 715.773 571.699 711.13 573.321 706.428C579.433 687.164 587.008 671.889 602.832 653.626C614.146 640.462 630.108 632.175 642.747 620.058C666.977 597.147 663.615 574.393 664.485 544.168C665.473 507.425 673.899 470.045 671.565 432.988C669.389 401.304 661.457 369.327 644.327 343.263C626.506 316.547 598.319 296.554 566.355 294.204C541.867 292.561 519.061 304.053 495.425 308.433C466.012 313.608 440.575 307.856 416.919 306.291C393.915 318.099 374.036 334.054 351.922 349.713C329.552 365.432 304.234 381.291 275.83 390.831C263.27 395.086 249.721 397.406 238.387 404.623C217.084 417.932 209.627 444.269 210.102 467.42C210.419 478.166 212.08 488.872 215.087 499.537C218.45 511.743 223.217 524.165 228.498 536.469C237.261 557.975 245.292 581.003 255.557 600.81C268.296 625.455 288.55 641.601 305.423 660.692C322.236 679.526 339.168 702.391 345.379 730.437Z" stroke="url(#paint11_linear_3293_23851)" stroke-width="0.5" stroke-miterlimit="10" stroke-linecap="round" stroke-linejoin="round"/>
<path d="M343.679 732.454C346.686 746.635 348.091 760.917 351.038 774.841C356.992 802.948 370.245 827.474 387.532 844.846C402.941 859.948 420.13 872.204 441.848 874.758C472.447 878.235 507.438 862.034 528.74 834.661C552.733 803.691 565.095 761.073 573.066 727.585C574.312 722.428 575.617 717.528 576.666 712.688C581.967 692.259 588.355 675.365 604.515 656.213C616.225 642.417 633.473 633.833 646.824 621.28C672.933 597.124 668.819 573.461 669.649 541.894C670.737 503.234 680.092 464.016 677.916 425.3C675.898 391.956 668.124 358.32 650.125 330.834C631.689 302.637 601.921 281.658 568.552 279.091C544.065 277.448 521.14 288.426 497.305 293.123C468.012 298.811 442.614 294.403 418.799 294.497C394.807 307.886 374.058 325.935 350.955 343.175C327.912 360.673 301.348 378.172 271.144 388.128C257.812 392.561 243.749 395 231.584 402.139C209.965 415.25 201.678 441.509 201.381 464.838C201.183 475.703 202.588 486.468 205.337 497.193C208.502 509.715 213.012 522.197 217.839 534.876C226.403 556.698 234.691 579.667 245.531 599.612C259.278 625.105 281.451 641.349 299.985 660.597C318.776 679.786 337.172 703.123 343.679 732.454Z" stroke="url(#paint12_linear_3293_23851)" stroke-width="0.5" stroke-miterlimit="10" stroke-linecap="round" stroke-linejoin="round"/>
<path d="M341.976 734.47C345.042 748.908 346.308 763.762 349.057 778.003C354.675 806.998 367.394 832.73 384.662 851.189C400.11 867.634 418.228 881.569 440.698 885.031C472.999 890.008 509.848 873.647 532.516 845.148C557.735 813.624 570.314 769.603 577.355 734.437C578.285 729.083 579.531 723.926 580.52 718.829C585.01 697.235 590.528 678.919 606.767 658.937C618.813 644.252 637.09 635.43 651.153 622.443C678.884 597.1 674.275 572.47 675.264 539.243C676.193 498.727 686.478 457.671 684.658 416.979C683.056 381.917 674.926 346.74 656.056 317.832C636.75 288.213 605.597 265.931 570.626 263.465C546.139 261.821 523.155 272.542 499.379 277.496C470.145 283.441 444.589 280.692 421.071 282.07C395.832 297.1 374.213 317.243 350.438 336.262C326.406 355.34 298.853 374.42 266.908 385.049C252.805 389.661 237.911 392.021 225.292 399.536C203.415 412.706 194.178 438.372 192.853 461.94C192.398 472.864 193.289 483.748 195.84 494.789C198.491 507.43 202.803 520.228 207.629 532.907C215.996 555.046 224.601 578.212 235.955 598.037C250.968 624.32 274.803 640.721 294.741 660.185C315.253 679.788 335.171 703.855 341.976 734.47Z" stroke="url(#paint13_linear_3293_23851)" stroke-width="0.5" stroke-miterlimit="10" stroke-linecap="round" stroke-linejoin="round"/>
<path d="M340.475 736.169C343.858 750.805 344.985 766.232 347.28 780.848C352.502 810.476 364.687 837.413 381.737 857.274C397.284 875.32 415.956 890.479 439.692 894.73C473.377 901.01 512.403 884.688 536.494 855.318C562.88 822.983 575.796 778.074 581.591 741.031C582.462 735.421 583.391 730.067 584.321 724.713C588 701.954 592.391 682.276 609.223 661.345C621.862 645.712 640.969 636.968 656.002 623.486C685.612 596.898 680.251 571.359 681.141 536.532C682.169 494.1 693.444 451.464 691.663 408.598C690.219 371.876 681.99 335.1 662.507 304.711C642.588 273.611 610.109 250.283 573.22 247.719C548.733 246.075 525.63 256.283 501.914 261.493C472.798 267.952 447.084 266.862 423.606 269.584C397.121 286.254 374.888 308.432 349.867 329.091C324.905 350.007 296.106 370.728 262.876 381.653C248.259 386.384 232.593 388.923 218.945 396.675C196.752 409.648 186.685 435.236 184.588 458.982C183.619 470.025 184.312 481.225 186.606 492.325C189.059 505.282 193.114 518.14 197.742 531.135C205.912 553.59 214.833 576.953 226.701 596.66C242.92 623.476 268.417 640.033 290.135 660.168C311.478 679.849 333.433 704.528 340.475 736.169Z" stroke="url(#paint14_linear_3293_23851)" stroke-width="0.5" stroke-miterlimit="10" stroke-linecap="round" stroke-linejoin="round"/>
<path d="M338.774 738.185C342.276 753.334 343.146 768.821 345.302 784.01C349.931 814.586 361.779 842.412 378.612 863.677C394.258 883.322 413.741 899.646 438.288 905.062C473.615 912.586 514.816 896.302 540.015 865.864C567.628 832.976 580.504 786.723 585.429 748.259C586.24 742.391 586.853 736.84 587.407 731.032C590.275 707.108 593.736 685.751 610.707 664.248C623.682 647.725 643.818 638.744 659.562 624.827C690.854 597.309 684.94 570.546 685.73 534.119C686.857 489.771 698.804 445.356 697.38 400.515C696.153 362.39 687.766 323.757 667.61 291.63C646.88 259.365 612.958 234.477 574.723 231.954C550.236 230.31 527.015 240.004 503.358 245.472C474.301 252.187 448.687 252.697 425.05 257.078C397.319 275.388 374.157 299.405 348.522 322.099C322.631 344.852 292.783 366.897 257.813 378.496C242.483 383.661 225.987 386.122 211.825 393.993C189.315 406.768 178.417 432.278 175.549 456.202C174.323 467.305 174.758 478.564 176.281 489.843C178.22 502.919 182.077 516.092 186.765 529.344C194.736 552.115 203.914 575.419 216.297 595.007C233.782 622.612 260.94 639.326 284.32 659.618C307.957 679.851 331.436 705.26 338.774 738.185Z" stroke="url(#paint15_linear_3293_23851)" stroke-width="0.5" stroke-miterlimit="10" stroke-linecap="round" stroke-linejoin="round"/>
<path d="M337.073 740.201C340.633 755.607 341.365 771.667 343.581 787.113C347.873 818.578 359.128 847.353 376 869.96C391.686 890.949 411.782 908.754 437.595 914.96C474.564 923.727 517.624 907.283 544.307 876.232C572.829 842.593 586.239 795.135 590.235 754.992C590.729 748.927 591.223 742.862 591.777 737.054C593.834 711.965 596.425 689.187 613.475 666.854C626.846 649.699 648.01 640.48 664.665 625.812C697.578 597.108 691.169 569.377 691.861 531.35C692.771 484.888 705.963 438.833 704.638 392.076C703.569 352.292 695.024 311.801 674.057 278.509C652.715 244.763 617.209 218.889 577.254 215.951C552.767 214.308 529.427 223.489 505.889 229.47C476.951 236.698 451.119 238.611 427.838 244.533C398.92 264.74 375.085 290.535 348.521 315.066C321.7 339.658 290.864 363.284 254.093 375.298C237.992 380.642 220.665 383.024 206.048 391.271C183.024 404.165 171.434 429.023 167.854 453.382C166.113 464.604 166.291 475.923 167.617 487.517C169.357 500.91 172.958 514.142 177.388 527.454C185.103 550.285 194.656 574.043 207.553 593.512C226.305 621.906 255.124 638.777 279.908 659.286C304.435 679.854 329.437 705.992 337.073 740.201Z" stroke="url(#paint16_linear_3293_23851)" stroke-width="0.5" stroke-miterlimit="10" stroke-linecap="round" stroke-linejoin="round"/>
<path d="M335.312 741.96C338.991 757.88 339.526 774.256 341.543 790.018C345.44 822.116 356.221 852.353 372.816 876.106C388.6 898.694 409.567 917.921 436.389 924.976C474.742 935.046 519.978 918.64 548.026 886.463C577.774 852.269 591.402 803.409 594.21 761.647C594.646 755.325 594.824 749.063 595.318 742.998C596.564 716.744 597.968 692.347 615.414 669.382C629.121 651.337 651.571 641.821 668.74 627.034C703.532 597.084 696.371 568.445 696.964 528.818C697.973 480.44 711.838 432.606 710.868 383.874C709.958 342.43 701.571 300.281 679.734 265.567C657.778 230.34 620.691 203.478 579.331 200.325C554.844 198.681 531.385 207.348 507.906 213.586C479.028 221.072 451.692 221.168 429.796 231.909C396.526 248.524 374.927 281.645 347.374 307.758C319.564 333.931 287.481 359.197 249.484 371.765C232.612 377.288 214.771 379.788 199.125 388.273C175.785 400.97 163.364 425.749 158.696 450.089C156.698 461.37 156.421 473.065 157.49 484.719C158.716 498.23 162.118 511.779 166.608 525.347C174.125 548.494 183.936 572.193 197.406 591.8C217.424 620.983 247.904 638.012 274.41 658.934C300.974 680.113 327.44 706.724 335.312 741.96Z" stroke="url(#paint17_linear_3293_23851)" stroke-width="0.5" stroke-miterlimit="10" stroke-linecap="round" stroke-linejoin="round"/>
<path d="M333.866 743.917C337.605 760.094 337.941 776.786 339.82 793.121C343.381 826.108 353.311 857.352 369.946 882.449C385.77 906.381 407.35 927.089 435.18 934.993C475.175 946.306 522.587 929.938 551.801 896.95C582.717 861.946 596.622 811.939 598.5 768.499C598.876 761.92 598.995 755.402 598.916 749.199C599.351 721.78 599.884 695.961 617.607 671.85C631.65 652.916 655.188 643.419 673.267 627.881C709.681 596.745 702.026 567.138 702.58 526.168C703.43 475.933 718.482 426.202 717.67 375.81C716.918 332.707 708.432 288.957 685.982 252.763C663.156 216.114 624.684 187.949 581.722 184.895C557.235 183.252 533.657 191.406 510.238 197.9C481.478 205.899 454.044 207.912 432.385 219.68C397.988 238.449 375.657 273.092 347.174 301.042C318.691 328.993 285.363 355.9 245.566 368.884C227.922 374.585 209.309 377.263 193.149 385.867C169.552 398.623 156.241 423.068 150.801 447.586C148.289 458.986 147.755 470.74 148.567 482.453C149.595 496.281 152.483 509.948 156.973 523.517C164.292 546.98 174.42 570.876 188.404 590.364C209.687 620.337 241.83 637.522 269.739 658.661C297.451 680.115 325.44 707.457 333.866 743.917Z" stroke="url(#paint18_linear_3293_23851)" stroke-width="0.5" stroke-miterlimit="10" stroke-linecap="round" stroke-linejoin="round"/>
<path d="M332.167 745.933C335.965 762.366 336.163 779.631 337.845 796.282C341.01 829.902 350.405 862.351 367.08 888.791C383.003 914.323 405.394 936.196 434.292 945.205C475.672 957.821 525.26 941.492 555.839 907.377C587.981 871.819 602.103 820.41 602.854 775.607C602.914 768.831 602.973 762.055 602.775 755.339C602.34 726.499 601.746 699.317 619.864 674.574C634.244 654.751 658.81 645.016 677.66 629.3C716.013 597.174 707.488 566.146 708.259 523.773C709.208 471.622 725.189 420.054 724.734 367.686C724.14 322.923 715.555 277.574 692.175 239.7C668.479 201.63 628.681 172.419 584.058 169.209C559.571 167.565 535.934 175.462 512.574 182.213C483.616 190.529 456.399 194.655 434.721 207.509C398.88 228.234 375.501 264.202 346.088 293.99C316.617 323.522 282.299 352.009 241.019 365.607C222.92 371.683 203.417 374.027 186.545 383.065C162.631 395.624 148.232 420.05 142.278 444.687C139.509 456.146 138.461 468.019 138.817 480.108C139.589 493.995 142.279 507.979 146.314 521.923C153.435 545.702 163.879 569.795 178.378 589.165C200.868 619.67 234.731 637.269 264.302 658.565C293.932 680.117 323.444 708.188 332.167 745.933Z" stroke="url(#paint19_linear_3293_23851)" stroke-width="0.5" stroke-miterlimit="10" stroke-linecap="round" stroke-linejoin="round"/>
<path d="M330.407 747.692C334.323 764.638 334.324 782.219 335.807 799.187C338.636 833.696 347.438 867.094 363.895 894.937C379.858 921.812 402.921 945.423 432.769 955.024C475.85 969.14 527.495 952.336 559.3 917.667C592.352 881.357 607.008 828.743 606.573 782.321C606.573 775.288 606.316 768.315 606.058 761.342C604.812 731.337 603.348 702.734 621.545 677.16C636.261 656.448 661.916 646.733 681.675 630.265C721.65 596.954 712.63 564.958 713.302 520.985C714.093 466.977 731.004 413.571 730.905 359.227C730.786 313.003 721.786 265.856 697.792 226.501C673.483 186.949 632.103 156.752 585.818 153.384C561.331 151.741 537.575 159.124 514.275 166.132C485.436 174.961 458.318 180.688 436.62 194.628C400.284 217.902 375.916 255.451 345.515 286.82C315.113 318.189 279.807 348.258 236.726 362.271C217.856 368.526 197.582 371.048 179.939 380.264C155.768 392.883 140.419 416.716 133.753 441.789C130.47 453.367 129.165 465.299 129.323 477.704C129.58 491.71 132.073 506.01 136.108 519.954C143.031 544.049 153.989 568.024 168.804 587.59C192.56 618.885 228.026 636.384 259.377 658.351C290.411 680.119 321.446 708.92 330.407 747.692Z" stroke="url(#paint20_linear_3293_23851)" stroke-width="0.5" stroke-miterlimit="10" stroke-linecap="round" stroke-linejoin="round"/>
<path d="M328.963 749.649C332.939 766.852 332.998 784.69 334.086 802.29C336.579 837.687 344.788 872.034 361.027 901.28C377.089 929.755 400.706 954.59 431.879 965.237C476.344 980.656 530.165 963.89 563.336 928.094C597.614 891.231 612.547 837.47 611.122 789.113C610.806 781.883 610.489 774.654 609.916 767.483C607.858 736.313 605.207 706.091 623.8 679.885C639.169 658.481 665.535 648.331 686.007 631.428C727.604 596.93 718.09 563.967 718.663 518.394C719.552 462.469 737.393 407.225 737.393 350.966C737.432 303.082 728.333 254.335 703.469 213.559C678.289 172.585 635.782 141.026 587.895 137.758C563.408 136.114 539.533 142.984 516.292 150.249C487.513 159.334 460.355 167.234 438.637 182.261C401.491 207.886 375.817 246.818 344.743 279.966C313.155 313.232 276.8 344.625 232.236 359.252C212.595 365.685 191.806 368.325 173.391 377.72C148.904 390.142 132.724 413.896 124.971 438.95C121.431 450.587 119.67 462.895 119.512 475.103C119.572 489.425 121.807 503.785 125.644 518.044C132.37 542.456 143.644 566.628 158.974 586.076C184.193 617.844 221.122 635.816 253.878 657.998C286.95 680.378 319.449 709.653 328.963 749.649Z" stroke="url(#paint21_linear_3293_23851)" stroke-width="0.5" stroke-miterlimit="10" stroke-linecap="round" stroke-linejoin="round"/>
<path d="M327.26 751.664C331.355 769.381 331.216 787.535 332.107 805.452C334.204 841.482 341.621 877.093 357.9 907.682C373.744 937.56 398.489 963.757 430.414 975.313C476.521 991.975 532.26 975.306 566.855 938.64C602.3 900.966 617.51 846.06 614.958 796.341C614.582 788.854 613.949 781.427 613.257 773.743C610.131 741.467 606.867 709.764 625.796 682.669C641.501 660.376 669.213 650.185 690.397 632.847C733.872 597.104 723.349 563.291 724.081 516.059C724.812 458.278 743.583 401.196 743.938 342.961C744.135 293.418 735.135 242.754 709.461 200.813C683.667 158.359 639.578 125.813 589.97 122.131C565.423 120.23 541.49 126.844 518.367 134.622C489.706 144.221 462.707 153.977 440.712 170.15C402.695 197.87 376.033 238.383 343.97 273.111C311.65 307.899 274.049 340.933 227.744 356.232C207.332 362.843 185.772 365.662 166.843 375.176C142.039 387.4 124.969 410.82 116.503 436.308C112.449 448.064 110.431 460.432 110.075 472.956C109.621 487.396 111.658 502.072 115.495 516.332C122.023 541.06 133.555 565.172 149.458 584.758C175.943 617.316 214.534 635.445 249.01 658.041C283.427 680.38 317.449 710.385 327.26 751.664Z" stroke="url(#paint22_linear_3293_23851)" stroke-width="0.5" stroke-miterlimit="10" stroke-linecap="round" stroke-linejoin="round"/>
<path d="M325.501 753.424C329.655 771.398 329.378 790.125 330.071 808.357C331.574 845.336 338.656 881.837 354.974 913.769C370.917 945.246 396.275 972.925 429.466 985.27C477.214 1003.18 535.129 986.545 570.832 948.812C607.246 910.643 622.931 854.275 619.449 802.877C619.014 795.134 618.064 787.509 617.313 779.568C613.376 746.127 608.926 712.805 628.25 685.078C644.291 661.896 673.091 651.724 694.927 633.694C740.342 596.962 729.007 561.985 729.64 513.152C730.47 453.455 750.17 394.535 750.625 334.384C750.98 283.181 741.881 230.918 715.534 187.239C689.187 143.56 643.396 109.513 592.444 105.872C567.897 103.972 543.845 110.071 520.781 118.106C492.18 127.962 465.398 139.832 443.383 157.092C404.556 187.162 376.845 229 343.595 265.625C310.346 302.251 271.756 336.865 223.908 352.522C202.981 359.251 180.65 362.249 160.692 372C135.631 384.284 117.671 407.368 108.434 433.034C104.123 444.85 101.591 457.336 100.78 470.236C100.127 484.993 101.908 499.728 105.547 514.305C111.877 539.349 123.666 563.401 140.143 583.125C167.835 616.215 208.146 634.758 244.027 657.571C279.908 680.383 315.452 711.117 325.501 753.424Z" stroke="url(#paint23_linear_3293_23851)" stroke-width="0.5" stroke-miterlimit="10" stroke-linecap="round" stroke-linejoin="round"/>
<path d="M323.8 755.44C328.013 773.67 327.539 792.713 328.093 811.519C329.201 849.13 335.748 886.836 351.849 920.171C367.832 952.992 394.06 982.092 428.259 995.286C477.393 1014.49 537.424 997.645 574.61 959.298C612.191 920.319 627.896 862.864 623.485 809.788C622.733 801.847 621.724 793.966 620.656 785.828C615.908 751.222 610.587 716.478 629.932 687.664C646.309 663.593 676.137 653.183 698.745 634.975C745.781 597.057 733.953 561.112 734.803 510.877C735.475 449.323 756.164 388.822 756.974 326.695C757.547 274.09 748.29 219.97 721.073 174.869C693.855 129.768 646.739 94.6758 594.125 90.8774C569.578 88.977 545.407 94.5633 522.206 103.171C493.723 113.541 467.099 127.267 444.748 145.416C405.11 177.838 376.034 220.802 342.171 259.463C308.388 297.294 268.294 333.608 219.221 349.818C197.582 356.983 174.419 359.902 153.947 369.772C128.313 381.918 109.779 404.864 99.4546 430.511C94.6284 442.446 91.8989 455.248 90.7716 467.951C89.6047 482.827 91.1872 497.878 94.8862 512.711C101.018 538.071 113.124 562.322 130.115 581.926C159.33 615.746 201.045 634.506 238.588 657.475C276.387 680.385 313.455 711.849 323.8 755.44Z" stroke="url(#paint24_linear_3293_23851)" stroke-width="0.5" stroke-miterlimit="10" stroke-linecap="round" stroke-linejoin="round"/>
<path d="M322.354 757.397C326.686 776.141 326.014 795.5 326.37 814.622C327.142 853.122 332.839 891.836 348.98 926.514C365.061 960.935 391.843 991.26 427.111 1005.56C477.885 1026.01 539.836 1009.26 578.386 969.786C617.135 929.996 633.116 871.395 627.518 816.7C626.707 808.502 625.322 800.167 624.254 792.029C618.696 756.258 612.188 719.895 631.928 690.449C648.641 665.489 679.557 655.098 703.075 636.139C751.733 597.034 739.41 560.121 740.161 508.286C740.932 444.816 762.551 382.478 763.46 318.435C764.192 264.17 754.835 208.45 727.005 161.868C699.115 115.029 650.674 78.8904 596.398 74.9351C571.594 73.0941 547.621 78.3642 524.419 86.9721C495.996 97.5984 469.59 113.438 447.219 132.673C407.027 167.387 376.645 211.735 341.536 252.036C306.685 292.278 265.543 329.916 214.67 346.542C192.259 353.886 168.583 356.923 147.339 366.972C121.705 379.117 102.024 401.788 90.9278 427.614C85.8445 439.608 82.6007 452.529 81.2756 465.548C79.9109 480.74 80.9791 495.91 84.6781 510.743C90.6123 536.419 103.232 560.551 120.48 580.096C150.902 614.449 194.279 633.365 233.602 657.005C272.667 680.704 311.713 712.523 322.354 757.397Z" stroke="url(#paint25_linear_3293_23851)" stroke-width="0.5" stroke-miterlimit="10" stroke-linecap="round" stroke-linejoin="round"/>
<path d="M770.206 310.113C771.096 254.189 761.64 196.869 732.939 148.865C704.239 100.862 654.156 63.4796 598.535 59.5646C543.428 55.5307 490.3 83.4972 449.554 120.503C408.808 157.509 376.804 203.043 341.023 245.122C305.182 286.945 263.111 326.421 210.438 343.463C187.256 350.985 162.749 353.944 140.793 364.427C102.638 382.171 76.5093 421.479 71.7823 463.143C67.0552 504.808 82.6619 547.723 110.967 578.778C142.852 613.604 187.693 632.993 228.42 656.85C269.404 680.647 309.716 713.255 320.595 759.156C325.244 778.097 324.176 798.089 324.334 817.527C324.769 856.916 329.873 896.579 346.053 932.6C361.917 968.424 389.827 1000.11 426.162 1015.52C478.322 1037.27 542.705 1020.5 582.422 980.213C622.14 939.929 638.596 879.866 632.128 823.749C627.044 779.483 609.756 730.465 634.441 693.114C651.491 667.264 683.692 656.576 707.665 637.241C758.262 597.148 745.127 559.07 745.78 505.635C746.392 440.308 768.881 375.875 770.206 310.113Z" stroke="url(#paint26_linear_3293_23851)" stroke-width="0.5" stroke-miterlimit="10" stroke-linecap="round" stroke-linejoin="round"/>
<path d="M316.301 762.853C321.899 782.386 323.66 801.724 325.302 820.549C328.585 858.198 334.619 896.023 351.728 930.206C369.095 964.33 397.796 994.753 434.33 1009.84C485.283 1031.06 547.668 1015.02 587.03 976.714C626.589 938.089 644.034 879.961 638.891 824.89C634.756 781.217 619.189 732.612 642.529 695.301C658.946 669.057 688.616 656.791 711.382 636.923C758.794 595.943 746.609 558.457 747.637 505.476C748.982 442.144 770.541 379.549 772.341 315.841C773.982 260.825 765.852 204.551 738.615 157.02C711.378 109.49 663.273 72.462 608.957 67.1634C554.899 61.8053 501.81 87.5988 460.51 123.38C419.21 159.162 386.95 204.755 351.426 246.775C316.099 288.479 275.116 327.974 222.957 344.897C199.973 352.103 175.09 354.608 153.015 364.578C114.168 381.67 88.5536 420.859 82.7387 462.504C76.726 504.466 89.5833 547.205 115.515 578.539C144.512 613.761 186.841 634.002 225.887 658.787C264.992 683.83 303.622 717.368 316.301 762.853Z" stroke="url(#paint27_linear_3293_23851)" stroke-width="0.5" stroke-miterlimit="10" stroke-linecap="round" stroke-linejoin="round"/>
<path d="M312.207 766.233C318.813 786.615 323.66 805.24 326.726 823.195C332.798 858.847 339.504 894.894 358.058 927.12C376.611 959.347 406.361 988.445 443.468 1003.67C493.214 1024.36 553.661 1009.31 592.35 972.779C631.751 935.814 649.928 879.681 646.367 825.596C643.44 782.455 629.138 734.64 651.331 697.053C667.313 670.099 694.193 656.313 715.813 636.169C760.159 594.815 748.805 557.408 750.209 504.881C751.968 443.346 772.658 382.846 775.129 320.876C777.325 267.084 770.46 211.6 744.687 164.542C718.913 117.485 672.47 80.6141 619.717 73.8725C566.965 67.1308 513.658 90.8107 471.804 125.368C429.951 159.925 397.314 205.064 362.107 247.281C327.235 288.61 287.399 328.381 235.813 345.442C212.374 353.023 187.432 355.271 164.982 364.787C125.502 381.485 100.342 420.298 93.38 461.668C86.3387 503.867 96.1301 546.233 119.55 578.417C145.916 613.977 185.793 635.325 223.157 661.041C260.521 686.756 297.846 721.677 312.207 766.233Z" stroke="url(#paint28_linear_3293_23851)" stroke-width="0.5" stroke-miterlimit="10" stroke-linecap="round" stroke-linejoin="round"/>
<path d="M307.857 769.673C315.413 790.647 323.088 808.618 327.637 825.959C336.499 859.615 344.134 893.824 363.934 924.41C383.734 954.996 414.472 982.514 452.153 997.878C500.95 1017.98 559.201 1003.97 597.534 969.417C636.52 934.171 656.003 880.17 653.767 827.132C652.105 784.78 639.208 737.181 659.997 699.379C675.286 671.772 699.694 656.664 720.107 635.989C761.071 594.064 750.864 556.933 752.703 505.117C754.938 445.636 774.697 386.973 777.901 326.998C780.59 274.174 775.052 219.735 750.742 173.151C726.432 126.567 681.65 89.8529 630.519 81.925C578.815 73.8591 525.489 95.1093 483.397 128.639C441.306 162.169 407.978 206.657 373.027 248.815C338.927 289.965 299.664 329.874 248.85 346.757C225.411 354.338 200.35 356.072 177.524 365.134C137.095 381.24 112.706 419.875 104.597 460.969C96.2108 503.208 103.055 545.715 124.358 578.117C148.094 614.015 185.459 636.214 220.944 663.176C256.37 689.88 292.27 725.671 307.857 769.673Z" stroke="url(#paint29_linear_3293_23851)" stroke-width="0.5" stroke-miterlimit="10" stroke-linecap="round" stroke-linejoin="round"/>
<path d="M303.822 773.31C312.387 795.133 322.831 812.194 328.864 828.922C340.514 860.58 348.822 893.011 370.066 921.64C391.369 950.527 422.839 976.523 460.836 992.084C508.426 1011.65 564.937 998.319 602.657 965.799C641.485 932.212 661.699 880.206 660.789 828.214C660.076 786.454 648.9 739.269 668.343 701.507C682.941 673.249 704.876 656.819 724.023 635.354C761.921 593.056 752.545 556.003 754.76 504.641C757.41 446.958 776.299 390.39 779.977 332.468C783.162 280.612 778.948 227.219 756.102 181.108C733.256 134.997 690.452 98.6378 640.627 89.3262C589.97 79.9361 536.684 99.0133 494.039 131.319C451.394 163.625 417.749 207.915 383.055 250.014C349.469 291.045 311.354 331.229 260.995 347.736C237.299 355.377 212.119 356.598 189.175 365.147C148.052 380.601 124.179 419.117 114.981 460.192C105.566 502.669 109.345 544.802 128.334 577.739C149.182 614.034 184.291 637.025 217.838 664.975C252.216 693.004 286.494 729.981 303.822 773.31Z" stroke="url(#paint30_linear_3293_23851)" stroke-width="0.5" stroke-miterlimit="10" stroke-linecap="round" stroke-linejoin="round"/>
<path d="M299.472 776.75C309.244 799.106 322.2 815.315 330.033 831.627C344.156 861.091 353.71 891.882 376.199 918.871C398.689 945.86 431.208 970.532 469.778 986.231C516.162 1005.26 570.735 992.922 607.782 962.181C646.451 930.253 667.655 880.183 668.129 829.493C668.623 788.266 658.654 741.614 677.266 703.773C691.23 675.12 710.634 657.112 728.574 635.114C763.406 592.443 754.861 555.469 757.709 504.501C760.774 448.615 778.991 393.825 783.144 337.958C787.139 287.267 784.192 234.663 762.611 189.342C740.972 143.763 700.087 107.501 651.883 97.0034C602.275 86.2892 549.028 103.193 505.829 134.275C462.888 165.296 428.61 209.192 394.233 251.488C361.359 292.084 324.134 332.604 274.289 348.992C250.395 356.949 225.037 357.4 201.776 365.751C159.902 380.297 136.8 418.635 126.515 459.691C115.814 502.465 116.784 544.165 133.459 577.638C151.676 614.27 184.273 638.112 215.941 667.307C247.807 696.187 281.176 733.916 299.472 776.75Z" stroke="url(#paint31_linear_3293_23851)" stroke-width="0.5" stroke-miterlimit="10" stroke-linecap="round" stroke-linejoin="round"/>
<path d="M295.436 780.388C306.216 803.592 321.625 818.694 331.198 834.333C347.477 861.406 358.337 890.812 382.33 916.102C406.066 941.451 439.573 964.542 478.401 980.182C523.519 998.425 576.469 987.269 612.903 958.563C651.414 928.295 673.607 880.16 675.406 830.516C676.909 790.138 668.601 743.642 685.809 705.585C699.081 676.281 716.072 657.207 732.746 634.42C764.512 591.376 756.541 554.539 760.021 503.967C763.562 450.135 780.849 397.183 785.734 343.31C790.223 293.586 788.601 242.029 768.485 197.181C748.309 152.075 709.085 115.97 662.503 104.286C613.944 92.2477 560.42 106.782 517.241 136.776C473.805 166.83 439.091 210.015 405.031 252.509C372.474 293.302 336.594 333.781 287.204 349.794C263.31 357.751 237.576 357.748 214.196 365.585C171.235 380.112 148.587 418.075 137.471 459.052C125.742 502.064 123.646 543.391 138.006 577.398C153.534 614.111 183.738 639.317 213.665 669.186C243.651 699.311 275.656 738.167 295.436 780.388Z" stroke="url(#paint32_linear_3293_23851)" stroke-width="0.5" stroke-miterlimit="10" stroke-linecap="round" stroke-linejoin="round"/>
<path d="M291.086 783.828C303.072 807.565 320.993 821.816 332.109 837.098C350.347 862.095 362.966 889.742 387.889 913.194C412.812 936.646 447.368 958.413 486.769 974.19C530.68 991.901 581.692 981.735 617.711 954.747C655.807 926.198 678.988 879.998 682.43 831.598C685.139 791.752 678.038 745.789 694.158 707.713C706.738 677.758 720.999 657.421 736.724 634.042C765.226 590.94 758.283 553.866 762.199 504.005C766.154 451.97 782.828 401.053 788.188 349.235C793.172 300.478 792.934 250.224 774.222 205.592C755.51 160.96 718.205 124.952 672.988 112.141C625.418 98.522 571.993 111.14 528.26 139.91C484.527 168.68 449.181 211.471 415.694 254.102C383.789 294.203 348.799 335.018 299.983 351.169C275.832 359.185 250.039 358.925 226.283 366.308C182.57 379.927 160.694 417.711 148.431 458.412C135.416 501.722 130.511 542.616 142.617 577.415C155.454 614.208 182.948 640.582 211.253 671.637C239.183 702.238 270.396 742.358 291.086 783.828Z" stroke="url(#paint33_linear_3293_23851)" stroke-width="0.5" stroke-miterlimit="10" stroke-linecap="round" stroke-linejoin="round"/>
<path d="M287.051 787.465C300.303 811.991 317.749 827.704 333.336 840.06C349.12 866.165 367.654 888.929 394.08 910.681C420.506 932.433 455.794 952.678 495.512 968.653C538.216 985.832 587.547 976.595 622.894 951.385C660.831 924.495 685.002 880.231 689.768 832.877C693.684 793.564 688.046 748.074 702.822 710.038C714.709 679.431 726.557 658.03 740.956 633.605C766.452 590.386 760.281 553.134 764.572 503.726C769.003 453.746 784.747 404.666 790.779 354.586C796.515 306.738 797.345 257.589 780.097 213.43C762.908 169.528 727.205 133.421 683.551 119.167C637.029 104.223 583.584 114.411 539.356 142.214C495.129 170.016 459.407 212.353 426.177 254.924C395.044 294.848 360.944 335.997 312.583 351.773C288.491 360.045 262.579 359.272 238.448 366.201C194.042 379.169 172.681 416.834 159.33 457.516C145.029 501.122 137.256 541.327 147.107 576.917C157.313 614.049 182.296 641.273 208.662 673.317C235.029 705.361 265.075 746.292 287.051 787.465Z" stroke="url(#paint34_linear_3293_23851)" stroke-width="0.5" stroke-miterlimit="10" stroke-linecap="round" stroke-linejoin="round"/>
<path d="M282.697 790.905C297.156 815.964 316.718 831.458 334.5 842.766C352.303 867.052 372.537 887.801 400.21 907.912C427.822 927.767 464.415 946.628 504.45 962.801C545.948 979.446 593.538 970.882 628.073 948.024C665.853 922.794 691.012 880.464 697.163 834.414C702.345 795.89 697.855 750.676 711.483 712.364C722.678 681.106 732.113 658.639 745.246 633.425C767.795 590.346 762.078 552.718 767.003 503.705C771.848 455.522 786.92 408.221 793.487 360.452C799.717 313.571 801.873 265.469 786.088 221.783C770.363 178.354 736.578 142.344 694.289 126.963C648.756 110.439 595.41 118.71 550.628 145.289C506.104 171.807 469.749 213.749 436.836 256.518C406.158 296.066 373.205 337.491 325.358 353.148C301.207 361.164 274.919 359.936 250.729 366.609C205.374 378.984 184.526 416.53 170.285 456.877C154.897 500.465 144.374 540.493 151.654 576.678C159.17 613.89 181.7 642.222 206.187 675.512C230.873 708.485 259.811 750.484 282.697 790.905Z" stroke="url(#paint35_linear_3293_23851)" stroke-width="0.5" stroke-miterlimit="10" stroke-linecap="round" stroke-linejoin="round"/>
<path d="M278.604 794.286C294.072 820.193 316.146 834.836 335.669 845.471C355.291 868.255 377.167 886.731 406.283 904.886C435.142 923.1 472.724 940.38 513.332 956.691C553.624 972.804 599.276 965.228 633.396 944.089C671.274 920.459 697.165 880.124 704.641 835.12C711.03 797.128 707.687 752.19 720.286 714.116C730.73 681.95 737.811 658.675 749.678 632.671C769.28 589.733 764.216 551.413 769.576 503.111C774.579 456.784 789.295 411.459 796.336 365.744C803.378 320.028 806.799 272.715 792.538 229.759C778.276 186.803 745.837 150.753 705.486 134.383C661.001 116.534 607.694 122.633 562.616 147.928C517.538 173.222 480.808 214.71 448.211 257.676C418.047 297.105 386.182 338.549 338.849 354.087C314.184 362.222 288.035 360.421 263.468 366.64C217.421 378.364 197.088 415.791 181.7 455.862C165.026 499.747 151.694 539.342 156.402 576.122C161.486 613.355 181.306 642.854 204.112 677.074C226.464 711.668 254.492 754.418 278.604 794.286Z" stroke="url(#paint36_linear_3293_23851)" stroke-width="0.5" stroke-miterlimit="10" stroke-linecap="round" stroke-linejoin="round"/>
<path d="M274.311 797.983C291.243 824.363 317.293 835.113 336.638 848.494C361.679 865.426 381.914 886.175 412.217 902.433C442.52 918.691 480.893 934.706 521.817 951.214C560.902 966.794 604.932 960.405 638.38 941.045C676.1 919.074 702.98 880.674 711.782 836.716C719.377 799.257 717.24 754.851 728.752 716.758C738.503 683.94 742.914 659.66 753.772 632.807C770.743 590.206 766.075 551.254 771.87 503.663C777.348 459.39 791.392 415.843 798.591 371.985C806.127 327.237 810.874 280.97 798.076 238.487C785.278 196.004 754.757 160.052 715.771 142.555C672.275 123.125 619.008 127.051 573.436 151.378C528.12 175.646 490.499 216.798 458.417 259.645C428.965 298.639 397.99 340.419 351.172 355.838C326.506 363.972 299.982 361.718 275.296 367.423C228.557 378.495 208.678 415.547 192.519 455.796C174.559 499.978 158.36 538.884 160.872 576.712C163.266 614.026 180.692 644.89 201.56 680.098C222.309 714.793 249.171 758.353 274.311 797.983Z" stroke="url(#paint37_linear_3293_23851)" stroke-width="0.5" stroke-miterlimit="10" stroke-linecap="round" stroke-linejoin="round"/>
<path d="M270.215 801.363C288.413 828.533 316.203 838.61 337.803 851.199C364.091 866.491 386.541 885.105 418.09 899.722C449.639 914.34 489.06 929.031 530.44 945.163C568.318 960.211 610.667 954.752 643.184 937.229C680.805 917.174 708.616 880.453 718.802 837.797C727.346 800.931 726.673 756.998 737.038 718.629C746.097 685.16 748.411 660.011 757.628 631.915C771.908 589.395 767.438 550.127 773.866 502.93C779.76 460.455 793.19 418.943 800.864 377.139C809.152 333.299 814.966 288.138 803.632 246.128C792.298 204.118 763.38 168.066 726.075 149.64C683.568 128.629 630.142 130.698 584.273 153.741C538.404 176.784 500.407 217.482 468.582 260.27C439.645 299.145 409.758 340.944 363.453 356.244C338.531 364.438 311.887 361.67 286.886 367.178C239.197 377.658 220.09 414.532 202.783 454.505C183.537 498.984 164.786 537.398 164.727 575.82C164.688 613.155 179.405 645.187 198.334 681.384C217.837 717.719 244.165 762.484 270.215 801.363Z" stroke="url(#paint38_linear_3293_23851)" stroke-width="0.5" stroke-miterlimit="10" stroke-linecap="round" stroke-linejoin="round"/>
<path d="M265.923 805.06C285.327 832.762 315.175 842.363 339.03 854.161C366.82 867.753 391.486 884.232 424.222 896.953C457.017 909.93 497.427 923.04 539.123 939.37C575.795 953.885 616.462 949.355 648.307 933.61C685.77 915.215 714.569 880.429 726.081 838.819C735.891 802.742 736.306 758.829 745.642 720.697C754.009 686.577 753.909 660.363 761.861 631.478C773.511 589.295 769.436 549.394 776.497 502.593C782.549 461.974 795.564 422.181 803.772 382.688C812.811 339.756 819.694 295.7 809.823 254.164C799.696 212.687 772.894 176.416 736.954 156.863C695.436 134.271 642.109 134.424 595.943 156.183C549.778 177.942 511.148 218.246 479.639 261.231C451.156 299.73 422.476 342.062 376.627 356.986C351.704 365.18 324.685 361.958 299.565 366.952C251.183 376.781 232.333 413.595 214.136 453.234C193.803 497.693 172.243 535.675 169.672 574.947C167.2 612.304 179.207 645.503 196.257 682.945C213.308 720.388 239.101 766.359 265.923 805.06Z" stroke="url(#paint39_linear_3293_23851)" stroke-width="0.5" stroke-miterlimit="10" stroke-linecap="round" stroke-linejoin="round"/>
<path d="M261.829 808.44C282.44 836.675 314.147 846.117 340.197 856.866C369.551 869.016 396.372 883.103 430.354 894.183C464.336 905.263 505.794 917.049 548.064 933.517C583.529 947.499 622.515 943.899 653.747 930.189C691.309 913.394 720.84 880.603 733.479 840.356C744.496 804.811 746.118 761.43 754.365 723.28C762.04 688.508 759.587 661.486 766.213 631.554C775.232 589.709 771.295 549.235 778.989 502.828C785.259 464.323 797.859 426.249 806.482 388.553C816.273 346.53 824.481 303.52 815.817 262.516C807.153 221.512 782.013 185.398 747.695 164.659C707.166 140.486 653.879 138.466 607.218 159.258C560.558 180.049 521.493 219.642 490.301 262.824C462.59 301.145 434.74 343.555 389.405 358.361C364.225 366.614 337.345 362.819 311.908 367.616C262.518 376.596 244.499 413.489 225.214 453.108C203.595 497.865 179.483 535.354 174.341 575.221C169.436 612.599 178.476 647.024 194.102 685.337C209.728 723.65 234.038 770.234 261.829 808.44Z" stroke="url(#paint40_linear_3293_23851)" stroke-width="0.5" stroke-miterlimit="10" stroke-linecap="round" stroke-linejoin="round"/>
<path d="M257.479 811.881C279.554 840.589 312.804 849.674 341.109 859.632C372.024 870.339 400.745 882.094 436.23 891.474C471.715 900.854 513.905 911.118 556.491 927.783C590.75 941.233 628.114 938.819 658.357 926.69C695.82 911.811 726.34 880.955 740.245 841.498C752.726 806.426 755.238 763.38 762.655 725.151C769.32 689.531 765.087 661.838 770.071 630.663C776.776 589.353 772.662 548.109 781.048 502.353C787.733 465.646 799.719 429.607 808.818 393.965C819.103 352.909 828.696 311.202 821.496 270.671C814.295 230.141 791.014 193.867 758.12 172.258C718.837 146.445 665.392 142.568 618.178 162.135C571.221 181.643 531.582 221.098 500.647 264.221C473.707 302.364 446.946 344.793 402.184 359.736C376.747 368.049 349.748 363.74 323.935 368.083C273.853 376.412 256.289 412.929 235.916 452.529C213.011 497.583 186.606 534.52 178.694 575.298C171.356 612.697 177.686 648.29 191.433 687.848C205.121 727.15 228.719 774.169 257.479 811.881Z" stroke="url(#paint41_linear_3293_23851)" stroke-width="0.5" stroke-miterlimit="10" stroke-linecap="round" stroke-linejoin="round"/>
<path d="M253.442 815.518C276.782 845.016 312.089 853.625 342.531 862.278C375.009 871.541 405.885 880.905 442.557 888.388C479.229 895.87 522.468 904.811 565.628 921.614C598.68 934.531 634.363 933.047 663.933 922.696C701.554 909.674 733.004 880.496 748.036 842.401C761.783 808.119 765.442 765.349 771.771 727.101C777.744 690.829 771.414 662.268 774.816 630.106C779.148 589.074 775.172 547.258 783.934 501.956C790.777 467.105 802.407 433.042 811.981 399.454C823.077 359.563 833.678 318.705 827.942 278.647C822.205 238.59 800.526 202.217 769.314 179.678C731.02 152.284 677.673 146.491 630.162 164.774C582.651 183.057 542.637 222.058 512.019 265.378C485.277 303.205 459.662 345.91 415.415 360.734C390.037 369.304 362.603 364.285 336.671 368.114C285.64 375.851 268.59 412.249 247.386 451.77C223.136 496.865 194.238 533.567 183.755 574.939C174.301 612.556 177.664 649.376 189.414 689.667C200.965 730.273 223.713 778.301 253.442 815.518Z" stroke="url(#paint42_linear_3293_23851)" stroke-width="0.5" stroke-miterlimit="10" stroke-linecap="round" stroke-linejoin="round"/>
<path d="M249.091 818.959C273.895 848.929 310.863 857.696 343.441 865.043C377.482 872.864 410.257 879.895 448.175 885.737C486.093 891.58 530.321 898.939 574.054 915.88C605.899 928.265 639.209 923.542 668.859 919.394C707.686 913.937 738.76 880.79 755.118 843.74C770.071 809.991 774.877 767.497 780.178 729.486C785.201 692.622 776.973 662.878 778.852 629.986C781.067 589.173 776.715 546.902 786.11 501.995C793.111 469.001 804.643 436.853 814.433 405.379C826.538 366.337 837.951 326.644 833.678 287.059C829.405 247.475 809.586 210.943 779.797 187.534C742.69 158.243 689.185 150.593 641.18 167.908C593.432 185.165 552.725 223.514 522.423 267.032C496.136 304.483 471.669 347.463 427.936 362.169C402.301 370.798 374.748 365.265 348.5 368.897C296.776 375.982 280.24 412.261 258.146 451.448C232.611 496.84 201.161 533.049 188.107 575.015C176.22 612.654 176.873 650.641 186.743 692.178C196.495 733.201 218.649 782.176 249.091 818.959Z" stroke="url(#paint43_linear_3293_23851)" stroke-width="0.5" stroke-miterlimit="10" stroke-linecap="round" stroke-linejoin="round"/>
<path d="M245.058 822.595C271.069 853.099 310.154 861.647 344.67 868.005C380.333 874.639 415.205 879.022 454.31 882.967C493.672 886.853 538.75 893.205 582.681 909.829C613.32 921.682 645.324 918.342 673.668 915.578C712.397 912.037 744.4 880.568 762.143 844.822C778.302 811.605 784.058 769.703 788.468 731.357C792.741 693.585 782.732 663.17 782.771 629.351C782.672 589.072 778.142 546.031 788.229 501.775C795.389 470.638 806.564 440.467 816.513 410.849C829.37 372.715 842.108 334.068 839.042 295.016C836.232 255.905 818.272 219.214 789.908 194.934C753.789 164.062 700.127 154.556 651.825 170.588C603.522 186.619 562.44 224.514 532.454 268.23C507.453 305.384 483.559 348.502 440.598 363.029C414.963 371.659 387.034 365.671 360.668 368.79C307.994 375.283 291.913 411.187 268.989 450.295C242.168 495.983 208.424 531.642 192.284 574.321C178.28 612.179 175.907 651.135 184.096 693.601C192.345 736.324 213.588 786.051 245.058 822.595Z" stroke="url(#paint44_linear_3293_23851)" stroke-width="0.5" stroke-miterlimit="10" stroke-linecap="round" stroke-linejoin="round"/>
<path d="M240.961 825.976C268.435 856.953 309.182 865.658 345.834 870.711C383.316 875.843 419.83 877.952 460.438 880.198C501.046 882.444 547.113 887.214 591.618 903.976C621.05 915.296 651.491 913.4 679.045 911.901C717.358 910.079 750.924 880.683 769.675 845.785C787.101 813.357 793.944 771.474 797.326 733.366C800.649 695.002 789.058 663.6 787.198 628.597C784.983 588.538 780.077 545.042 790.797 501.181C798.115 471.901 809.192 443.646 819.358 416.141C833.026 379.173 846.772 341.374 845.486 302.993C844.141 264.355 828.04 227.504 801.04 202.098C766.109 169.329 712.347 158.222 663.748 172.97C614.952 188.035 573.236 225.535 543.765 269.131C518.704 306.028 496.017 349.68 453.51 363.831C427.619 372.52 399.571 366.019 372.888 368.94C319.463 374.525 303.956 410.567 279.943 449.656C251.777 495.385 215.541 530.807 196.889 574.338C180.512 612.474 175.369 652.341 181.679 696.052C188.187 739.448 208.521 789.926 240.961 825.976Z" stroke="url(#paint45_linear_3293_23851)" stroke-width="0.5" stroke-miterlimit="10" stroke-linecap="round" stroke-linejoin="round"/>
<path d="M236.669 829.673C265.607 861.122 308.272 869.925 347.061 873.673C386.165 877.618 424.775 877.08 466.63 877.685C508.424 878.033 555.54 881.48 600.361 898.439C628.587 909.227 658.039 912.428 684.287 908.796C722.027 903.319 756.997 881.172 777.073 847.321C796.022 815.623 803.499 774.135 806.05 735.948C808.68 696.932 795.25 664.603 791.55 628.673C787.218 588.832 781.62 544.685 793.29 501.416C800.509 474.052 811.744 447.654 822.128 422.263C836.804 386.143 851.362 349.51 851.54 311.602C851.717 273.693 837.416 236.427 811.841 210.15C778.155 175.741 724.176 162.521 675.083 176.301C625.989 190.081 583.641 227.187 554.427 270.724C529.88 307.502 508.281 351.173 466.289 365.205C440.397 373.894 412.231 366.88 385.172 369.347C330.797 374.34 316.002 409.946 290.902 449.016C261.45 495.042 222.919 529.913 201.439 574.097C182.945 612.452 174.579 653.605 179.148 697.989C183.777 742.631 203.399 793.544 236.669 829.673Z" stroke="url(#paint46_linear_3293_23851)" stroke-width="0.5" stroke-miterlimit="10" stroke-linecap="round" stroke-linejoin="round"/>
<path d="M232.577 833.053C262.979 864.976 307.503 873.619 348.23 876.378C389.214 879.078 429.406 876.01 472.704 874.658C515.745 873.366 563.85 875.232 609.245 892.329C636.264 902.584 664.153 907.228 689.353 904.92C727.31 901.558 763.151 880.832 784.355 848.343C804.51 817.178 813.134 775.965 814.597 737.76C816.219 697.895 801.206 664.58 795.726 627.979C789.475 588.04 783.304 543.756 795.864 500.822C803.241 475.315 814.377 450.832 824.919 427.298C840.664 392.284 855.973 356.559 857.615 319.124C858.999 281.748 846.755 244.006 822.663 217.117C790.164 180.81 736.086 165.99 686.439 178.546C636.792 191.102 594.068 227.753 565.17 271.488C541.335 307.831 520.626 351.836 479.148 365.75C452.999 374.498 424.714 366.97 397.596 369.18C342.529 373.522 327.991 409.069 302.001 447.804C271.204 493.87 230.498 528.703 206.129 573.284C185.202 611.66 174.126 653.98 176.817 699.611C179.626 745.754 198.595 797.359 232.577 833.053Z" stroke="url(#paint47_linear_3293_23851)" stroke-width="0.5" stroke-miterlimit="10" stroke-linecap="round" stroke-linejoin="round"/>
<path d="M228.225 836.493C260.09 868.889 306.534 877.63 349.139 879.143C392.002 880.597 434.094 875.197 478.321 872.008C522.806 868.759 571.761 869.617 617.413 886.655C643.226 896.377 669.493 902.207 694.02 901.678C731.938 900.488 768.709 881.441 791.178 849.741C812.6 819.365 822.113 778.488 822.746 740.204C823.418 699.747 807.08 665.386 799.247 627.977C790.879 588.257 784.015 543.321 797.584 501.236C805.12 477.585 816.216 455.276 826.917 433.599C843.729 399.69 860.107 365.07 862.895 327.911C865.743 291.009 855.616 253.048 832.691 225.348C801.695 187.341 747.202 170.723 697.258 181.996C647.373 193.525 603.957 229.525 575.375 273.456C552.055 309.681 532.434 353.705 491.47 367.5C465.064 376.308 436.66 368.266 409.167 370.023C353.348 373.456 339.324 408.884 312.306 447.857C280.223 494.22 237.024 528.818 210.025 573.736C186.725 612.39 172.879 655.621 173.948 702.437C175.155 748.681 193.531 801.235 228.225 836.493Z" stroke="url(#paint48_linear_3293_23851)" stroke-width="0.5" stroke-miterlimit="10" stroke-linecap="round" stroke-linejoin="round"/>
<path d="M224.189 840.131C257.459 872.743 305.88 881.838 350.365 882.106C395.107 882.314 438.78 874.385 484.511 869.496C530.242 864.607 580.186 863.883 626.412 881.059C651.018 890.249 675.723 897.522 699.459 898.258C737.396 899.497 775.294 881.813 798.832 851.218C821.776 821.572 832.121 780.774 831.725 742.728C831.388 701.422 813.725 666.014 803.795 627.737C793.509 587.92 785.755 542.648 800.273 501.156C807.71 479.421 818.965 458.969 829.883 439.405C847.763 406.602 864.892 372.89 869.145 336.204C873.456 299.775 865.188 261.655 843.687 233.085C813.879 193.181 759.227 174.707 708.789 185.011C658.35 195.316 614.558 230.862 586.293 274.991C563.428 310.839 545.013 355.397 504.504 368.816C478.098 377.624 449.319 369.128 421.706 370.371C364.938 373.212 351.429 408.521 323.777 447.099C290.349 493.503 244.915 527.806 215.147 573.635C189.671 612.251 172.74 656.194 171.87 704C171 751.805 188.466 805.11 224.189 840.131Z" stroke="url(#paint49_linear_3293_23851)" stroke-width="0.5" stroke-miterlimit="10" stroke-linecap="round" stroke-linejoin="round"/>
<path d="M219.839 843.57C254.572 876.656 304.912 885.849 351.533 884.811C398.095 883.517 443.667 873.255 490.585 866.469C537.502 859.683 588.495 857.635 635.235 874.692C658.634 883.349 681.52 892.125 704.721 894.066C742.619 897.478 781.388 881.216 805.994 851.727C830.145 822.613 841.438 782.407 840.152 744.025C838.866 702.128 819.818 665.417 807.851 626.529C795.646 586.614 787.002 541.008 802.47 500.107C810.065 480.229 821.28 461.949 832.297 443.986C851.305 412.545 869.127 379.485 874.902 343.529C880.677 307.573 874.268 269.293 854.192 239.853C825.886 198.25 770.562 178.037 719.827 187.058C669.092 196.079 624.409 231.289 596.718 275.556C574.308 311.029 557.041 355.863 517.046 369.163C490.383 378.03 461.484 369.021 433.555 370.066C376.095 372.256 363.1 407.447 334.36 446.005C299.647 492.707 251.721 526.774 219.322 572.94C191.591 612.348 171.891 657.202 169.142 706.253C166.393 755.304 183.344 808.728 219.839 843.57Z" stroke="url(#paint50_linear_3293_23851)" stroke-width="0.5" stroke-miterlimit="10" stroke-linecap="round" stroke-linejoin="round"/>
<path d="M215.802 847.208C252 880.766 304.258 890.057 352.758 887.773C401.199 885.234 448.354 872.442 496.775 863.956C545.195 855.47 596.722 852.217 643.976 869.155C666.169 877.28 687.432 887.242 709.704 891.02C747.365 896.922 787.518 881.962 813.192 853.579C838.866 825.196 850.734 785.127 848.676 746.924C846.441 704.434 826.008 666.421 812.003 626.922C797.88 586.909 788.089 541.027 804.763 500.658C812.259 482.697 823.949 466.471 834.61 450.484C855.003 420.346 873.259 387.996 880.498 352.513C887.738 317.03 883.445 278.532 864.476 248.025C837.614 204.465 781.875 182.455 730.902 190.449C679.673 198.502 634.555 233.002 607.18 277.466C585.284 312.82 569.105 357.672 529.625 370.854C502.961 379.721 473.944 370.198 445.639 370.789C387.17 372.131 374.69 407.202 345.119 445.682C309.061 492.424 258.959 526.453 223.672 573.016C193.825 612.642 171.157 658.723 166.411 708.507C162.435 758.112 178.28 812.603 215.802 847.208Z" stroke="url(#paint51_linear_3293_23851)" stroke-width="0.5" stroke-miterlimit="10" stroke-linecap="round" stroke-linejoin="round"/>
<path d="M228.675 572.401C196.454 612.305 170.76 659.356 164.649 710.266C158.28 761.236 173.472 816.419 211.706 850.589C249.308 884.364 303.544 894.008 353.864 890.223C404.441 886.377 453.178 871.056 502.845 860.93C552.512 850.804 605.028 845.97 652.856 863.046C673.842 870.638 693.286 882.102 715.024 887.086C752.704 895.418 793.728 881.88 820.667 854.286C847.607 826.692 860.622 786.899 857.675 748.36C854.49 705.279 832.929 665.903 816.63 625.852C800.588 585.742 789.591 539.327 807.59 500.005C814.928 483.703 826.895 469.848 837.714 455.717C859.551 427.138 878.183 395.243 886.886 360.233C895.589 325.223 893.413 286.507 875.61 255.188C849.995 209.988 794.097 186.121 742.571 192.891C691.045 199.66 645.353 234.022 618.236 278.427C597.052 313.346 581.762 358.533 542.796 371.596C515.876 380.523 486.74 370.486 458.376 370.821C399.215 371.511 387.189 406.207 356.531 444.668C319.384 491.39 266.592 525.5 228.675 572.401Z" stroke="url(#paint52_linear_3293_23851)" stroke-width="0.5" stroke-miterlimit="10" stroke-linecap="round" stroke-linejoin="round"/>
</g>
<defs>
<linearGradient id="paint0_linear_3293_23851" x1="432.929" y1="406.042" x2="492.607" y2="758.403" gradientUnits="userSpaceOnUse">
<stop offset="0.00067472" stop-color="#4F5FEB"/>
<stop offset="1" stop-color="#DC0574"/>
</linearGradient>
<linearGradient id="paint1_linear_3293_23851" x1="430.429" y1="400.671" x2="497.334" y2="763.095" gradientUnits="userSpaceOnUse">
<stop offset="0.00067472" stop-color="#4F5FEB"/>
<stop offset="1" stop-color="#DC0574"/>
</linearGradient>
<linearGradient id="paint2_linear_3293_23851" x1="428.038" y1="395.127" x2="502.638" y2="768.309" gradientUnits="userSpaceOnUse">
<stop offset="0.00067472" stop-color="#4F5FEB"/>
<stop offset="1" stop-color="#DC0574"/>
</linearGradient>
<linearGradient id="paint3_linear_3293_23851" x1="425.63" y1="389.284" x2="508.549" y2="774.106" gradientUnits="userSpaceOnUse">
<stop offset="0.00067472" stop-color="#4F5FEB"/>
<stop offset="1" stop-color="#DC0574"/>
</linearGradient>
<linearGradient id="paint4_linear_3293_23851" x1="423.073" y1="382.76" x2="515.014" y2="780.398" gradientUnits="userSpaceOnUse">
<stop offset="0.00067472" stop-color="#4F5FEB"/>
<stop offset="1" stop-color="#DC0574"/>
</linearGradient>
<linearGradient id="paint5_linear_3293_23851" x1="420.101" y1="374.617" x2="521.976" y2="787.013" gradientUnits="userSpaceOnUse">
<stop offset="0.00067472" stop-color="#4F5FEB"/>
<stop offset="1" stop-color="#DC0574"/>
</linearGradient>
<linearGradient id="paint6_linear_3293_23851" x1="416.57" y1="364.838" x2="529.433" y2="793.767" gradientUnits="userSpaceOnUse">
<stop offset="0.00067472" stop-color="#4F5FEB"/>
<stop offset="1" stop-color="#DC0574"/>
</linearGradient>
<linearGradient id="paint7_linear_3293_23851" x1="412.64" y1="354.335" x2="537.282" y2="800.604" gradientUnits="userSpaceOnUse">
<stop offset="0.00067472" stop-color="#4F5FEB"/>
<stop offset="1" stop-color="#DC0574"/>
</linearGradient>
<linearGradient id="paint8_linear_3293_23851" x1="408.41" y1="343.734" x2="545.547" y2="807.414" gradientUnits="userSpaceOnUse">
<stop offset="0.00067472" stop-color="#4F5FEB"/>
<stop offset="1" stop-color="#DC0574"/>
</linearGradient>
<linearGradient id="paint9_linear_3293_23851" x1="403.977" y1="333.405" x2="554.167" y2="814.146" gradientUnits="userSpaceOnUse">
<stop offset="0.00067472" stop-color="#4F5FEB"/>
<stop offset="1" stop-color="#DC0574"/>
</linearGradient>
<linearGradient id="paint10_linear_3293_23851" x1="399.354" y1="323.357" x2="563.072" y2="820.775" gradientUnits="userSpaceOnUse">
<stop offset="0.00067472" stop-color="#4F5FEB"/>
<stop offset="1" stop-color="#DC0574"/>
</linearGradient>
<linearGradient id="paint11_linear_3293_23851" x1="394.505" y1="313.622" x2="572.299" y2="827.217" gradientUnits="userSpaceOnUse">
<stop offset="0.00067472" stop-color="#4F5FEB"/>
<stop offset="1" stop-color="#DC0574"/>
</linearGradient>
<linearGradient id="paint12_linear_3293_23851" x1="389.481" y1="304.192" x2="581.766" y2="833.485" gradientUnits="userSpaceOnUse">
<stop offset="0.00067472" stop-color="#4F5FEB"/>
<stop offset="1" stop-color="#DC0574"/>
</linearGradient>
<linearGradient id="paint13_linear_3293_23851" x1="384.22" y1="295.108" x2="591.487" y2="839.51" gradientUnits="userSpaceOnUse">
<stop offset="0.00067472" stop-color="#4F5FEB"/>
<stop offset="1" stop-color="#DC0574"/>
</linearGradient>
<linearGradient id="paint14_linear_3293_23851" x1="378.717" y1="286.389" x2="601.368" y2="845.319" gradientUnits="userSpaceOnUse">
<stop offset="0.00067472" stop-color="#4F5FEB"/>
<stop offset="1" stop-color="#DC0574"/>
</linearGradient>
<linearGradient id="paint15_linear_3293_23851" x1="373.222" y1="277.942" x2="611.59" y2="850.822" gradientUnits="userSpaceOnUse">
<stop offset="0.00067472" stop-color="#4F5FEB"/>
<stop offset="1" stop-color="#DC0574"/>
</linearGradient>
<linearGradient id="paint16_linear_3293_23851" x1="367.753" y1="269.773" x2="622.225" y2="855.936" gradientUnits="userSpaceOnUse">
<stop offset="0.00067472" stop-color="#4F5FEB"/>
<stop offset="1" stop-color="#DC0574"/>
</linearGradient>
<linearGradient id="paint17_linear_3293_23851" x1="362.332" y1="261.804" x2="633.202" y2="860.685" gradientUnits="userSpaceOnUse">
<stop offset="0.00067472" stop-color="#4F5FEB"/>
<stop offset="1" stop-color="#DC0574"/>
</linearGradient>
<linearGradient id="paint18_linear_3293_23851" x1="356.953" y1="254.066" x2="644.562" y2="864.997" gradientUnits="userSpaceOnUse">
<stop offset="0.00067472" stop-color="#4F5FEB"/>
<stop offset="1" stop-color="#DC0574"/>
</linearGradient>
<linearGradient id="paint19_linear_3293_23851" x1="351.64" y1="246.525" x2="656.263" y2="868.879" gradientUnits="userSpaceOnUse">
<stop offset="0.00067472" stop-color="#4F5FEB"/>
<stop offset="1" stop-color="#DC0574"/>
</linearGradient>
<linearGradient id="paint20_linear_3293_23851" x1="346.398" y1="239.155" x2="668.248" y2="872.344" gradientUnits="userSpaceOnUse">
<stop offset="0.00067472" stop-color="#4F5FEB"/>
<stop offset="1" stop-color="#DC0574"/>
</linearGradient>
<linearGradient id="paint21_linear_3293_23851" x1="341.214" y1="231.958" x2="680.565" y2="875.334" gradientUnits="userSpaceOnUse">
<stop offset="0.00067472" stop-color="#4F5FEB"/>
<stop offset="1" stop-color="#DC0574"/>
</linearGradient>
<linearGradient id="paint22_linear_3293_23851" x1="336.1" y1="224.885" x2="693.118" y2="877.868" gradientUnits="userSpaceOnUse">
<stop offset="0.00067472" stop-color="#4F5FEB"/>
<stop offset="1" stop-color="#DC0574"/>
</linearGradient>
<linearGradient id="paint23_linear_3293_23851" x1="331.041" y1="217.939" x2="705.957" y2="879.894" gradientUnits="userSpaceOnUse">
<stop offset="0.00067472" stop-color="#4F5FEB"/>
<stop offset="1" stop-color="#DC0574"/>
</linearGradient>
<linearGradient id="paint24_linear_3293_23851" x1="326.037" y1="211.092" x2="719.038" y2="881.416" gradientUnits="userSpaceOnUse">
<stop offset="0.00067472" stop-color="#4F5FEB"/>
<stop offset="1" stop-color="#DC0574"/>
</linearGradient>
<linearGradient id="paint25_linear_3293_23851" x1="321.099" y1="204.303" x2="732.263" y2="882.484" gradientUnits="userSpaceOnUse">
<stop offset="0.00067472" stop-color="#4F5FEB"/>
<stop offset="1" stop-color="#DC0574"/>
</linearGradient>
<linearGradient id="paint26_linear_3293_23851" x1="316.228" y1="197.642" x2="745.753" y2="883.031" gradientUnits="userSpaceOnUse">
<stop offset="0.00067472" stop-color="#4F5FEB"/>
<stop offset="1" stop-color="#DC0574"/>
</linearGradient>
<linearGradient id="paint27_linear_3293_23851" x1="322.794" y1="210.8" x2="757.788" y2="867.404" gradientUnits="userSpaceOnUse">
<stop stop-color="#545CE6"/>
<stop offset="0.00067472" stop-color="#545CE6"/>
<stop offset="0.9993" stop-color="#D70879"/>
<stop offset="1" stop-color="#D70879"/>
</linearGradient>
<linearGradient id="paint28_linear_3293_23851" x1="326.094" y1="226.976" x2="767.136" y2="852.087" gradientUnits="userSpaceOnUse">
<stop stop-color="#5A58E2"/>
<stop offset="0.00067472" stop-color="#5A58E2"/>
<stop offset="0.9993" stop-color="#D10C7D"/>
<stop offset="1" stop-color="#D10C7D"/>
</linearGradient>
<linearGradient id="paint29_linear_3293_23851" x1="328.208" y1="245.343" x2="775.696" y2="835.598" gradientUnits="userSpaceOnUse">
<stop stop-color="#5F55DD"/>
<stop offset="0.00067472" stop-color="#5F55DD"/>
<stop offset="0.9993" stop-color="#CC0F82"/>
<stop offset="1" stop-color="#CC0F82"/>
</linearGradient>
<linearGradient id="paint30_linear_3293_23851" x1="318.357" y1="251.368" x2="784.322" y2="816.707" gradientUnits="userSpaceOnUse">
<stop stop-color="#6551D9"/>
<stop offset="0.00067472" stop-color="#6551D9"/>
<stop offset="0.9993" stop-color="#C61386"/>
<stop offset="1" stop-color="#C61386"/>
</linearGradient>
<linearGradient id="paint31_linear_3293_23851" x1="306.057" y1="259.482" x2="792.716" y2="794.883" gradientUnits="userSpaceOnUse">
<stop stop-color="#6A4ED4"/>
<stop offset="0.00067472" stop-color="#6A4ED4"/>
<stop offset="0.9993" stop-color="#C1168B"/>
<stop offset="1" stop-color="#C1168B"/>
</linearGradient>
<linearGradient id="paint32_linear_3293_23851" x1="290.838" y1="270.752" x2="800.421" y2="769.222" gradientUnits="userSpaceOnUse">
<stop stop-color="#704AD0"/>
<stop offset="0.00067472" stop-color="#704AD0"/>
<stop offset="0.9993" stop-color="#BB1A8F"/>
<stop offset="1" stop-color="#BB1A8F"/>
</linearGradient>
<linearGradient id="paint33_linear_3293_23851" x1="272.507" y1="286.761" x2="806.505" y2="738.778" gradientUnits="userSpaceOnUse">
<stop stop-color="#7547CB"/>
<stop offset="0.00067472" stop-color="#7547CB"/>
<stop offset="0.9993" stop-color="#B61D94"/>
<stop offset="1" stop-color="#B61D94"/>
</linearGradient>
<linearGradient id="paint34_linear_3293_23851" x1="251.288" y1="309.84" x2="809.286" y2="702.671" gradientUnits="userSpaceOnUse">
<stop stop-color="#7A43C6"/>
<stop offset="0.00067472" stop-color="#7A43C6"/>
<stop offset="0.9993" stop-color="#B12199"/>
<stop offset="1" stop-color="#B12199"/>
</linearGradient>
<linearGradient id="paint35_linear_3293_23851" x1="228.115" y1="343.51" x2="805.853" y2="660.538" gradientUnits="userSpaceOnUse">
<stop stop-color="#8040C2"/>
<stop offset="0.00067472" stop-color="#8040C2"/>
<stop offset="0.9993" stop-color="#AB249D"/>
<stop offset="1" stop-color="#AB249D"/>
</linearGradient>
<linearGradient id="paint36_linear_3293_23851" x1="205.058" y1="392.868" x2="791.626" y2="615.689" gradientUnits="userSpaceOnUse">
<stop stop-color="#853CBD"/>
<stop offset="0.00067472" stop-color="#853CBD"/>
<stop offset="0.9993" stop-color="#A628A2"/>
<stop offset="1" stop-color="#A628A2"/>
</linearGradient>
<linearGradient id="paint37_linear_3293_23851" x1="178.607" y1="460.601" x2="767.992" y2="575.354" gradientUnits="userSpaceOnUse">
<stop stop-color="#8B39B9"/>
<stop offset="0.00067472" stop-color="#8B39B9"/>
<stop offset="0.9993" stop-color="#A02BA6"/>
<stop offset="1" stop-color="#A02BA6"/>
</linearGradient>
<linearGradient id="paint38_linear_3293_23851" x1="164.783" y1="548.7" x2="812.681" y2="543.082" gradientUnits="userSpaceOnUse">
<stop stop-color="#9035B4"/>
<stop offset="0.00067472" stop-color="#9035B4"/>
<stop offset="0.9993" stop-color="#9B2FAB"/>
<stop offset="1" stop-color="#9B2FAB"/>
</linearGradient>
<linearGradient id="paint39_linear_3293_23851" x1="179.73" y1="648.343" x2="864.747" y2="488.245" gradientUnits="userSpaceOnUse">
<stop stop-color="#9632B0"/>
<stop offset="0.00067472" stop-color="#9532B0"/>
<stop offset="0.9993" stop-color="#9632B0"/>
<stop offset="1" stop-color="#9632AF"/>
</linearGradient>
<linearGradient id="paint40_linear_3293_23851" x1="220.054" y1="742.809" x2="895.42" y2="416.174" gradientUnits="userSpaceOnUse">
<stop stop-color="#9B2FAB"/>
<stop offset="0.00067472" stop-color="#9B2FAB"/>
<stop offset="0.9993" stop-color="#9035B4"/>
<stop offset="1" stop-color="#9035B4"/>
</linearGradient>
<linearGradient id="paint41_linear_3293_23851" x1="261.947" y1="818.013" x2="893.586" y2="336.384" gradientUnits="userSpaceOnUse">
<stop stop-color="#A02BA6"/>
<stop offset="0.00067472" stop-color="#A02BA6"/>
<stop offset="0.9993" stop-color="#8B39B9"/>
<stop offset="1" stop-color="#8B39B9"/>
</linearGradient>
<linearGradient id="paint42_linear_3293_23851" x1="298.304" y1="858.988" x2="855.877" y2="258.725" gradientUnits="userSpaceOnUse">
<stop stop-color="#A628A2"/>
<stop offset="0.00067472" stop-color="#A628A2"/>
<stop offset="0.9993" stop-color="#853CBD"/>
<stop offset="1" stop-color="#853CBD"/>
</linearGradient>
<linearGradient id="paint43_linear_3293_23851" x1="338.848" y1="886.33" x2="811.763" y2="209.173" gradientUnits="userSpaceOnUse">
<stop stop-color="#AB249D"/>
<stop offset="0.00067472" stop-color="#AB249D"/>
<stop offset="0.9993" stop-color="#8040C2"/>
<stop offset="1" stop-color="#8040C2"/>
</linearGradient>
<linearGradient id="paint44_linear_3293_23851" x1="372.514" y1="899.967" x2="765.474" y2="177.837" gradientUnits="userSpaceOnUse">
<stop stop-color="#B12199"/>
<stop offset="0.00067472" stop-color="#B12199"/>
<stop offset="0.9993" stop-color="#7A43C6"/>
<stop offset="1" stop-color="#7A43C6"/>
</linearGradient>
<linearGradient id="paint45_linear_3293_23851" x1="398.394" y1="905.825" x2="721.982" y2="159.78" gradientUnits="userSpaceOnUse">
<stop stop-color="#B61D94"/>
<stop offset="0.00067472" stop-color="#B61D94"/>
<stop offset="0.9993" stop-color="#7547CB"/>
<stop offset="1" stop-color="#7547CB"/>
</linearGradient>
<linearGradient id="paint46_linear_3293_23851" x1="420.217" y1="908.63" x2="685.674" y2="151.603" gradientUnits="userSpaceOnUse">
<stop stop-color="#BB1A8F"/>
<stop offset="0.00067472" stop-color="#BB1A8F"/>
<stop offset="0.9993" stop-color="#704AD0"/>
<stop offset="1" stop-color="#704AD0"/>
</linearGradient>
<linearGradient id="paint47_linear_3293_23851" x1="438.38" y1="909.743" x2="655.859" y2="149.433" gradientUnits="userSpaceOnUse">
<stop stop-color="#C1168B"/>
<stop offset="0.00067472" stop-color="#C1168B"/>
<stop offset="0.9993" stop-color="#6A4ED4"/>
<stop offset="1" stop-color="#6A4ED4"/>
</linearGradient>
<linearGradient id="paint48_linear_3293_23851" x1="453.491" y1="909.991" x2="631.393" y2="150.862" gradientUnits="userSpaceOnUse">
<stop stop-color="#C61386"/>
<stop offset="0.00067472" stop-color="#C61386"/>
<stop offset="0.9993" stop-color="#6551D9"/>
<stop offset="1" stop-color="#6551D9"/>
</linearGradient>
<linearGradient id="paint49_linear_3293_23851" x1="466.14" y1="909.835" x2="611.109" y2="154.445" gradientUnits="userSpaceOnUse">
<stop stop-color="#CC0F82"/>
<stop offset="0.00067472" stop-color="#CC0F82"/>
<stop offset="0.9993" stop-color="#5F55DD"/>
<stop offset="1" stop-color="#5F55DD"/>
</linearGradient>
<linearGradient id="paint50_linear_3293_23851" x1="476.784" y1="909.571" x2="594.253" y2="159.307" gradientUnits="userSpaceOnUse">
<stop stop-color="#D10C7D"/>
<stop offset="0.00067472" stop-color="#D10C7D"/>
<stop offset="0.9993" stop-color="#5A58E2"/>
<stop offset="1" stop-color="#5A58E2"/>
</linearGradient>
<linearGradient id="paint51_linear_3293_23851" x1="485.859" y1="909.349" x2="580.107" y2="164.926" gradientUnits="userSpaceOnUse">
<stop stop-color="#D70879"/>
<stop offset="0.00067472" stop-color="#D70879"/>
<stop offset="0.9993" stop-color="#545CE6"/>
<stop offset="1" stop-color="#545CE6"/>
</linearGradient>
<linearGradient id="paint52_linear_3293_23851" x1="493.693" y1="909.267" x2="568.22" y2="170.964" gradientUnits="userSpaceOnUse">
<stop stop-color="#DC0574"/>
<stop offset="0.9993" stop-color="#4F5FEB"/>
</linearGradient>
<clipPath id="clip0_3293_23851">
<rect width="844" height="925" fill="white" transform="translate(0 190.05) rotate(-13.0133)"/>
</clipPath>
</defs>
</svg>
