<svg width="20" height="20" viewBox="0 0 20 20" fill="none" xmlns="http://www.w3.org/2000/svg">
<path d="M13.1218 6.52308C12.5103 3.68331 11.2064 1.88672 10.0003 1.88672C8.7943 1.88672 7.49033 3.68331 6.87891 6.52308H13.1218Z" fill="#A8B0CE"/>
<path d="M6.52344 9.99982C6.52329 10.7751 6.57499 11.5496 6.67818 12.318H13.3232C13.4264 11.5496 13.4781 10.7751 13.478 9.99982C13.4781 9.22451 13.4264 8.45006 13.3232 7.68164H6.67818C6.57499 8.45006 6.52329 9.22451 6.52344 9.99982Z" fill="#A8B0CE"/>
<path d="M6.87891 13.4775C7.49033 16.3173 8.7943 18.1139 10.0003 18.1139C11.2064 18.1139 12.5103 16.3173 13.1218 13.4775H6.87891Z" fill="#A8B0CE"/>
<path d="M14.3069 6.5226H17.958C17.4094 5.27412 16.5759 4.17158 15.5242 3.30342C14.4726 2.43525 13.2321 1.82563 11.9023 1.52344C13.0017 2.4907 13.8641 4.27918 14.3069 6.5226Z" fill="#A8B0CE"/>
<path d="M18.3757 7.68164H14.4928C14.5884 8.45066 14.6362 9.22488 14.6359 9.99982C14.636 10.7748 14.588 11.549 14.4922 12.318H18.3751C18.7978 10.8014 18.7978 9.1982 18.3751 7.68164H18.3757Z" fill="#A8B0CE"/>
<path d="M11.9023 18.4767C13.2323 18.1747 14.473 17.5651 15.5249 16.6969C16.5767 15.8288 17.4105 14.7262 17.9592 13.4775H14.308C13.8641 15.721 13.0017 17.5094 11.9023 18.4767Z" fill="#A8B0CE"/>
<path d="M5.6902 13.4775H2.03906C2.58777 14.7262 3.4215 15.8288 4.47335 16.6969C5.5252 17.5651 6.7659 18.1747 8.0959 18.4767C6.99534 17.5094 6.13297 15.721 5.6902 13.4775Z" fill="#A8B0CE"/>
<path d="M8.09589 1.52344C6.76589 1.82546 5.5252 2.43502 4.47335 3.30319C3.4215 4.17136 2.58777 5.27399 2.03906 6.5226H5.6902C6.13413 4.27918 6.99649 2.4907 8.09589 1.52344Z" fill="#A8B0CE"/>
<path d="M5.3609 9.99982C5.36082 9.22487 5.40882 8.45065 5.50462 7.68164H1.62167C1.19903 9.1982 1.19903 10.8014 1.62167 12.318H5.50462C5.40882 11.549 5.36082 10.7748 5.3609 9.99982Z" fill="#A8B0CE"/>
</svg>
