<svg width="18" height="16" viewBox="0 0 18 16" fill="none" xmlns="http://www.w3.org/2000/svg">
<path d="M17.7797 2.54361C17.1197 2.82961 16.4377 3.02761 15.7117 3.11561C16.4597 2.67561 17.0317 1.97161 17.2957 1.11361C16.5917 1.53161 15.8217 1.81761 15.0077 1.99361C14.3477 1.28961 13.4017 0.849609 12.3677 0.849609C10.3657 0.849609 8.75969 2.47761 8.75969 4.45761C8.75969 4.74361 8.78169 5.00761 8.84769 5.27161C5.85569 5.13961 3.21569 3.68761 1.43369 1.50961C0.157688 3.79761 1.58769 5.68961 2.53369 6.32761C1.96169 6.32761 1.38969 6.15161 0.905688 5.88761C0.905688 7.66961 2.15969 9.14361 3.78769 9.47361C3.43569 9.58361 2.64369 9.64961 2.15969 9.53961C2.62169 10.9696 3.96369 12.0256 5.52569 12.0476C4.29369 13.0156 2.48969 13.7856 0.179688 13.5436C1.78569 14.5776 3.67769 15.1716 5.72369 15.1716C12.3677 15.1716 15.9757 9.67161 15.9757 4.91961C15.9757 4.76561 15.9757 4.61161 15.9537 4.45761C16.7017 3.90761 17.3177 3.26961 17.7797 2.54361Z" fill="#A8B0CE"/>
</svg>
