<svg width="36" height="36" viewBox="0 0 36 36" fill="none" xmlns="http://www.w3.org/2000/svg">
<g clip-path="url(#clip0_1553_3441)">
<path d="M3.13488 6.33523C6.08759 5.91321 8.44446 3.55641 8.86648 0.603633C8.91598 0.257273 9.21263 0 9.5625 0H26.4375C26.7874 0 27.084 0.257273 27.1335 0.603633C27.5555 3.55634 29.9124 5.91321 32.8651 6.33523C33.2115 6.38473 33.4688 6.6813 33.4688 7.03125V9.00914C33.4688 19.8058 27.6841 30.5726 18.3488 35.9074C18.2408 35.9691 18.1204 36 18 36C17.8796 36 17.7592 35.9691 17.6512 35.9074C8.84074 30.8725 2.53125 20.4776 2.53125 9.00914V7.03125C2.53125 6.6813 2.78852 6.38473 3.13488 6.33523ZM3.9375 9.00914C3.9375 19.4629 9.44459 29.4142 18 34.4834C26.5554 29.4142 32.0625 19.463 32.0625 9.00914V7.61836C28.9886 6.94526 26.5341 4.52883 25.8505 1.40625H10.1495C9.47651 4.4801 7.06015 6.93457 3.9375 7.61836V9.00914Z" fill="white"/>
<path d="M11.9637 4.60195C12.0838 4.36676 12.3257 4.21875 12.5898 4.21875H23.4109C23.6751 4.21875 23.9171 4.36683 24.0372 4.60223C25.0854 6.65613 26.7935 8.36761 28.8465 9.42138C29.0904 9.54654 29.2393 9.80212 29.2279 10.0761C28.8926 18.1482 24.7946 26.3145 18.419 30.8612C18.1708 31.0454 17.8377 31.046 17.5913 30.8711C11.6757 26.6733 7.12573 18.7981 6.77129 10.0755C6.76018 9.80163 6.9091 9.54633 7.15302 9.42124C9.20516 8.36888 10.9135 6.65747 11.9637 4.60195ZM17.2972 28.8712V20.4609C17.2972 20.0727 17.612 19.7578 18.0003 19.7578C18.3887 19.7578 18.7035 20.0727 18.7035 20.4609V28.8719C23.8784 24.6204 27.3779 17.5823 27.8008 10.4556C25.7935 9.32801 24.1077 7.63573 22.9891 5.625H18.7035V14.1328C18.7035 14.5211 18.3887 14.8359 18.0003 14.8359C17.612 14.8359 17.2972 14.5211 17.2972 14.1328V5.625H13.0114C11.8913 7.63706 10.2046 9.3297 8.19779 10.4562C8.68323 18.9326 13.1574 25.4384 17.2972 28.8712Z" fill="white"/>
<path d="M18 18C17.6117 18 17.2969 17.6852 17.2969 17.2969C17.2969 16.9085 17.6117 16.5938 18 16.5938C18.3883 16.5938 18.7031 16.9085 18.7031 17.2969C18.7031 17.6852 18.3883 18 18 18Z" fill="white"/>
</g>
<defs>
<clipPath id="clip0_1553_3441">
<rect width="36" height="36" fill="white" transform="matrix(-1 0 0 1 36 0)"/>
</clipPath>
</defs>
</svg>
