<svg width="36" height="36" viewBox="0 0 36 36" fill="none" xmlns="http://www.w3.org/2000/svg">
<g clip-path="url(#clip0_1553_3668)">
<path d="M26.6124 15.6415C27.5919 14.0992 28.1393 12.3222 28.1972 10.496C28.2551 8.66992 27.8215 6.86175 26.9416 5.26052C26.0618 3.6593 24.768 2.32379 23.1954 1.3936C21.6229 0.4634 19.8294 -0.0273437 18.0023 -0.0273438C16.1753 -0.0273437 14.3818 0.4634 12.8093 1.3936C11.2367 2.32379 9.94293 3.6593 9.06306 5.26052C8.18318 6.86175 7.74955 8.66992 7.80748 10.496C7.8654 12.3222 8.41276 14.0992 9.39235 15.6415C7.71695 15.7728 6.10001 16.3163 4.6854 17.2236C3.2708 18.1308 2.1024 19.3737 1.28417 20.8416C0.465943 22.3095 0.0232665 23.9569 -0.0044704 25.6372C-0.0322073 27.3175 0.355856 28.9786 1.12519 30.4727C1.89452 31.9668 3.02126 33.2476 4.40516 34.201C5.78905 35.1545 7.38717 35.751 9.05732 35.9376C10.7275 36.1242 12.4178 35.8951 13.978 35.2706C15.5382 34.646 16.9198 33.6455 17.9999 32.3581C19.0801 33.6443 20.4613 34.6438 22.0209 35.2675C23.5804 35.8912 25.2699 36.1199 26.9391 35.9332C28.6084 35.7465 30.2056 35.1502 31.5888 34.1973C32.972 33.2444 34.0983 31.9645 34.8676 30.4714C35.6368 28.9783 36.0252 27.3182 35.9982 25.6388C35.9711 23.9594 35.5295 22.3127 34.7125 20.8451C33.8956 19.3775 32.7287 18.1345 31.3155 17.2267C29.9023 16.3189 28.2867 15.7743 26.6124 15.6415ZM17.9621 19.2001C17.076 18.157 15.9885 17.3034 14.7648 16.6905C13.541 16.0776 12.2062 15.718 10.8401 15.6331C10.1471 14.7278 9.63363 13.6983 9.32755 12.6001H13.7999C14.1182 12.6001 14.4234 12.4736 14.6485 12.2486C14.8735 12.0236 14.9999 11.7183 14.9999 11.4001V7.20007L17.0868 9.63487C17.2026 9.76147 17.3434 9.86257 17.5005 9.93174C17.6575 10.0009 17.8272 10.0366 17.9987 10.0366C18.1703 10.0366 18.34 10.0009 18.497 9.93174C18.6541 9.86257 18.7949 9.76147 18.9107 9.63487L21 7.20007V11.4001C21 11.7183 21.1264 12.0236 21.3514 12.2486C21.5765 12.4736 21.8817 12.6001 22.2 12.6001H26.6652C26.1394 14.4953 25.0078 16.1664 23.4432 17.3582C21.8785 18.5499 19.9668 19.1968 17.9999 19.2001H17.9621ZM17.9999 1.20007C19.2855 1.19146 20.5577 1.4602 21.73 1.98795C22.9022 2.51571 23.9468 3.29007 24.7926 4.25822C25.6383 5.22637 26.2653 6.36554 26.6309 7.59804C26.9964 8.83053 27.0918 10.1274 26.9106 11.4001H22.2V7.20007C22.1998 6.95489 22.1246 6.71564 21.9844 6.5145C21.8442 6.31336 21.6458 6.15999 21.4158 6.07503C21.1858 5.99007 20.9353 5.97759 20.698 6.03928C20.4607 6.10097 20.248 6.23386 20.0885 6.42007L17.9999 8.85607L15.9137 6.42007C15.7545 6.23294 15.5416 6.09923 15.3039 6.03699C15.0662 5.97475 14.8151 5.987 14.5845 6.07206C14.354 6.15713 14.1551 6.31093 14.0148 6.51266C13.8745 6.71439 13.7995 6.95434 13.7999 7.20007V11.4001H9.08635C9.03123 11.0024 9.00236 10.6015 8.99995 10.2001C9.00265 7.81395 9.95173 5.52633 11.639 3.83909C13.3262 2.15185 15.6138 1.20277 17.9999 1.20007ZM10.1999 34.8001C8.41992 34.8001 6.67986 34.2722 5.19981 33.2833C3.71977 32.2944 2.56622 30.8888 1.88503 29.2442C1.20384 27.5997 1.02561 25.7901 1.37288 24.0443C1.72015 22.2984 2.57731 20.6948 3.83598 19.4361C5.09466 18.1774 6.69831 17.3203 8.44413 16.973C10.19 16.6257 11.9996 16.804 13.6441 17.4852C15.2886 18.1663 16.6942 19.3199 17.6832 20.7999C18.6721 22.28 19.1999 24.02 19.1999 25.8001C19.1973 28.1862 18.2482 30.4738 16.5609 32.161C14.8737 33.8483 12.5861 34.7974 10.1999 34.8001ZM25.8 34.8001C24.44 34.7956 23.0987 34.4831 21.8767 33.8861C20.6548 33.2891 19.5839 32.4231 18.7445 31.3531C19.813 29.7215 20.3877 27.8161 20.3997 25.8659C20.4118 23.9156 19.8606 22.0033 18.8123 20.3587C20.148 20.2523 21.4495 19.8832 22.6422 19.2725C23.8348 18.6619 24.8951 17.8216 25.7622 16.8001C26.944 16.7976 28.1149 17.0279 29.2077 17.4779C30.3006 17.9279 31.2942 18.5888 32.1316 19.4227C32.9691 20.2567 33.6342 21.2475 34.0887 22.3385C34.5433 23.4294 34.7786 24.5993 34.7811 25.7812C34.7835 26.9631 34.5532 28.1339 34.1032 29.2268C33.6532 30.3196 32.9923 31.3132 32.1584 32.1507C31.3244 32.9882 30.3336 33.6532 29.2427 34.1078C28.1517 34.5623 26.9818 34.7976 25.8 34.8001Z" fill="white"/>
<path d="M11.2388 19.1875C11.1309 19.0086 10.9785 18.8607 10.7965 18.758C10.6146 18.6553 10.4092 18.6013 10.2002 18.6013C9.9913 18.6013 9.7859 18.6553 9.60394 18.758C9.42198 18.8607 9.26963 19.0086 9.16164 19.1875L6.17304 24.1387C6.07101 24.3075 6.01216 24.4988 6.00169 24.6958C5.99123 24.8927 6.02947 25.0892 6.11304 25.2679L9.09924 31.6999C9.19561 31.9103 9.35077 32.0883 9.546 32.2125C9.74124 32.3368 9.96823 32.4019 10.1996 32.4001C10.4309 32.4016 10.6577 32.3363 10.8527 32.212C11.0477 32.0876 11.2026 31.9096 11.2988 31.6993L14.2862 25.2637C14.3697 25.0851 14.4079 24.8887 14.3974 24.6919C14.387 24.495 14.3282 24.3038 14.2262 24.1351L11.2388 19.1875ZM13.001 24.4309L10.7996 25.9867V20.7823L13.001 24.4309ZM9.59964 20.8129V25.9699L7.39944 24.4291L9.59964 20.8129ZM10.187 31.1929L7.88484 26.2345L9.51744 27.3781C9.71579 27.5221 9.95454 27.5998 10.1996 27.6001C10.4408 27.6003 10.676 27.5245 10.8716 27.3835L12.503 26.2405L10.187 31.1929Z" fill="white"/>
<path d="M28.2002 30.6H23.6774L25.3106 26.4H27.0002C27.1593 26.4 27.3119 26.3368 27.4245 26.2243C27.537 26.1117 27.6002 25.9591 27.6002 25.8C27.6002 25.6409 27.537 25.4882 27.4245 25.3757C27.3119 25.2632 27.1593 25.2 27.0002 25.2H25.7774L27.5594 20.6172C27.5896 20.5434 27.6048 20.4644 27.6041 20.3847C27.6035 20.305 27.5869 20.2262 27.5554 20.1529C27.524 20.0797 27.4782 20.0135 27.4209 19.9581C27.3635 19.9027 27.2957 19.8594 27.2214 19.8305C27.1471 19.8016 27.0678 19.7879 26.9881 19.79C26.9084 19.7921 26.8299 19.8101 26.7573 19.8429C26.6846 19.8757 26.6192 19.9227 26.5649 19.981C26.5106 20.0394 26.4685 20.108 26.441 20.1828L24.4898 25.2H22.8002C22.6411 25.2 22.4885 25.2632 22.3759 25.3757C22.2634 25.4882 22.2002 25.6409 22.2002 25.8C22.2002 25.9591 22.2634 26.1117 22.3759 26.2243C22.4885 26.3368 22.6411 26.4 22.8002 26.4H24.0236L22.241 30.9828C22.2057 31.0737 22.1931 31.1719 22.2043 31.2688C22.2154 31.3656 22.2501 31.4583 22.3051 31.5388C22.3602 31.6193 22.4341 31.6852 22.5203 31.7307C22.6066 31.7762 22.7027 31.8 22.8002 31.8H28.2002C28.3593 31.8 28.5119 31.7368 28.6245 31.6243C28.737 31.5117 28.8002 31.3591 28.8002 31.2C28.8002 31.0409 28.737 30.8883 28.6245 30.7757C28.5119 30.6632 28.3593 30.6 28.2002 30.6Z" fill="white"/>
</g>
<defs>
<clipPath id="clip0_1553_3668">
<rect width="36" height="36" fill="white"/>
</clipPath>
</defs>
</svg>
