<svg width="295" height="1712" viewBox="0 0 295 1712" fill="none" xmlns="http://www.w3.org/2000/svg">
<path d="M-633.538 1514.57C-563.844 1398.44 -429.745 1326.97 -295.999 1266.17C-162.253 1205.37 -20.8743 1149.06 76.7788 1050.99C159.074 968.307 205.471 858.106 207.003 741.476C208.601 621.349 164.333 498.965 133.536 377.694C102.739 256.424 85.9747 127.651 139.928 23.3081M-628.151 1517.97C-561.46 1401.57 -430.147 1328.52 -298.129 1266.75C-166.111 1204.99 -25.8205 1148.14 71.9195 1050.85C150.151 973.188 197.568 871.935 205.923 763.315C206.432 756.398 206.842 749.522 207.043 742.558C208.901 682.117 198.999 620.784 183.464 559.396C168.267 498.967 148.046 438.983 131.551 378.914C97.902 257.601 80.9642 127.281 136.116 22.619M-622.792 1521.43C-559.174 1404.73 -430.508 1330.18 -300.259 1267.34C-170.01 1204.51 -30.8357 1147.2 67.061 1050.7C146.119 973.226 195.351 872.731 205.586 764.322C206.234 757.463 206.744 750.546 207.043 743.541C209.984 683.06 201.002 621.292 184.71 559.752C168.936 499.328 147.36 439.844 129.566 380.135C93.4038 258.756 75.9836 126.842 132.236 21.901M-617.405 1524.83C-556.859 1407.83 -430.911 1331.73 -302.43 1267.83C-173.949 1203.93 -35.8925 1146.15 62.2309 1050.49C142.115 973.194 193.162 873.457 205.346 765.287C206.094 758.388 206.772 751.459 207.211 744.513C211.234 683.992 203.073 621.828 186.153 560.026C169.803 499.608 146.772 440.664 127.779 381.274C88.9339 259.841 71.171 126.391 128.552 21.1014M-612.018 1528.23C-554.504 1411.03 -431.243 1333.31 -304.56 1268.41C-177.877 1203.52 -41.1296 1144.95 57.3715 1050.35C137.931 973.005 190.944 874.252 205.008 766.293C205.896 759.452 206.672 752.483 207.251 745.595C212.328 685.104 205.086 622.505 187.508 560.509C170.582 500.097 146.096 441.693 125.904 382.622C84.3766 261.135 66.2711 126.149 124.822 20.6102M-606.631 1531.62C-552.189 1414.12 -431.645 1334.86 -306.661 1268.93C-181.677 1203 -46.0867 1143.87 52.6411 1050.09C133.986 972.834 188.885 874.868 204.799 767.189C205.855 760.337 206.702 753.396 207.38 746.468C213.538 685.937 207.018 622.983 188.882 560.755C171.281 500.389 145.339 442.525 123.978 383.703C79.7678 262.162 61.3196 125.64 120.999 19.7527M-601.273 1535.09C-549.834 1417.32 -432.007 1336.52 -308.791 1269.52C-185.576 1202.52 -51.1726 1142.89 47.7818 1049.95C129.912 972.773 186.667 875.663 204.46 768.196C205.586 761.372 206.602 754.42 207.449 747.48C214.69 686.909 209.06 623.589 190.226 561.07C172.048 500.709 144.652 443.385 122.092 384.883C75.1698 263.358 56.4081 125.229 117.217 18.9938M-595.885 1538.48C-547.519 1420.42 -432.409 1338.07 -310.991 1270.07C-189.573 1202.08 -56.2582 1141.92 42.853 1049.78C125.74 972.753 184.38 876.43 204.123 769.202C205.417 762.367 206.503 755.444 207.419 748.533C215.743 687.922 210.933 624.208 191.442 561.496C172.659 501.21 143.837 444.356 120.049 386.243C70.3742 264.635 51.4094 125.028 113.347 18.4447M-590.498 1541.88C-545.204 1423.51 -432.771 1339.72 -313.092 1270.59C-193.414 1201.46 -61.216 1140.83 38.0927 1049.6C121.835 972.68 182.261 877.185 203.883 770.167C205.248 763.361 206.502 756.427 207.587 749.505C216.993 688.854 213.104 624.703 192.885 561.77C173.526 501.49 143.179 445.147 118.262 387.382C65.8345 265.69 46.6259 124.507 109.664 17.6449M-585.111 1545.27C-542.82 1426.64 -433.173 1341.27 -315.193 1271.11C-197.213 1200.94 -66.2722 1139.79 33.263 1049.38C117.791 972.55 180.073 877.911 203.575 771.104C205.108 764.286 206.432 757.381 207.616 750.418C218.075 689.797 215.105 625.211 194.159 562.056C174.224 501.781 142.393 446.048 116.236 388.504C61.0275 266.798 41.5752 124.038 105.783 16.9268M-579.724 1548.67C-540.504 1429.73 -433.505 1342.86 -317.363 1271.59C-201.222 1200.33 -71.3283 1138.74 28.4627 1049.1C113.816 972.449 177.914 878.567 203.365 772C204.968 765.212 206.461 758.295 207.785 751.39C219.257 690.7 217.177 625.748 195.603 562.33C175.092 502.061 141.736 446.839 114.45 389.643C56.4594 267.924 36.7632 123.587 102.1 16.1275M-574.366 1552.13C-538.149 1432.93 -433.936 1344.48 -319.523 1272.25C-205.11 1200.02 -76.3736 1137.87 23.5741 1049.03C109.713 972.457 175.597 879.403 202.998 773.076C204.77 766.276 206.332 759.388 207.755 752.443C220.309 691.712 219.12 626.394 196.818 562.755C175.731 502.492 140.821 447.851 112.435 390.933C51.6925 269.131 31.7237 123.287 98.1896 15.4789M-568.979 1555.53C-535.864 1436.1 -434.269 1346.06 -321.624 1272.77C-208.979 1199.47 -81.3605 1136.85 18.7441 1048.82C105.739 972.356 173.409 880.128 202.689 774.012C204.531 767.241 206.332 760.372 207.853 753.385C221.49 692.615 221.122 626.902 198.162 563.071C176.499 502.812 140.064 448.682 110.549 392.113C46.9551 270.268 26.8122 122.877 94.477 14.7492M-563.591 1558.92C-533.549 1439.19 -434.671 1347.62 -323.795 1273.25C-212.919 1198.89 -86.3876 1135.74 13.9144 1048.6C101.666 972.295 171.221 880.854 202.45 774.978C204.461 768.196 206.331 761.355 207.993 754.427C222.712 693.616 223.234 627.537 199.576 563.415C177.337 503.162 139.348 449.613 108.664 393.293C42.2877 271.435 21.9011 122.466 90.695 13.9904M-558.204 1562.32C-531.164 1442.32 -435.003 1349.2 -325.925 1273.84C-216.846 1198.48 -91.4034 1134.79 9.05542 1048.46C97.662 972.263 169.032 881.58 202.112 775.984C204.262 769.26 206.232 762.379 207.992 755.41C223.765 694.63 225.207 628.115 200.822 563.771C178.006 503.523 138.562 450.514 106.679 394.513C37.4224 272.682 16.9201 122.027 86.814 13.2724M-552.817 1565.71C-528.849 1445.42 -435.405 1350.75 -328.025 1274.36C-220.646 1197.96 -96.3898 1133.77 4.32474 1048.21C93.7576 972.191 166.943 882.265 201.903 776.88C204.152 770.115 206.261 763.292 208.19 756.312C225.045 695.492 227.336 628.512 202.294 563.975C178.903 503.733 137.904 451.305 104.921 395.583C32.883 273.738 12.1371 121.506 83.2007 12.5023M-547.459 1569.18C-526.494 1448.61 -435.837 1352.37 -330.156 1274.94C-224.475 1197.51 -101.336 1132.86 -0.534621 1048.06C89.7536 972.159 164.725 883.061 201.564 777.886C203.953 771.18 206.161 764.316 208.16 757.365C226.097 696.505 229.279 629.159 203.51 564.401C179.542 504.164 136.99 452.316 102.907 396.873C28.0174 274.986 7.09738 121.206 79.2901 11.8537M-542.072 1572.57C-524.18 1451.71 -436.169 1353.96 -332.356 1275.5C-228.543 1197.04 -106.422 1131.88 -5.46361 1047.89C85.6509 972.168 162.438 883.827 201.226 778.892C203.714 772.145 206.062 765.34 208.229 758.377C227.249 697.477 231.322 629.765 204.854 564.716C180.31 504.485 136.204 453.218 100.951 398.024C23.1809 276.164 2.11614 120.766 75.4379 11.0657M-536.684 1575.97C-521.864 1454.8 -436.6 1355.58 -334.456 1276.02C-232.313 1196.45 -111.408 1130.87 -10.2231 1047.71C81.7467 972.096 160.32 884.582 200.988 779.858C203.615 773.169 206.062 766.323 208.299 759.39C228.401 698.449 233.364 630.372 206.169 565.101C181.119 504.904 135.32 454.16 99.0363 399.273C18.3858 277.441 -2.82386 120.426 71.6968 10.4061M-531.227 1579.39C-519.41 1457.96 -436.863 1357.19 -336.488 1276.56C-236.113 1195.93 -116.255 1129.91 -14.9836 1047.53C77.7427 972.064 158.201 885.337 200.748 780.824C203.475 774.094 206.061 767.307 208.467 760.362C229.623 699.451 235.465 630.839 207.583 565.445C181.957 505.254 134.603 455.09 97.2198 400.482C13.6888 278.677 -7.59578 120.073 67.9841 9.6764M-525.84 1582.79C-517.095 1461.06 -437.265 1358.74 -338.658 1277.05C-240.052 1195.36 -121.312 1128.86 -19.784 1047.24C73.8675 971.922 156.042 885.993 200.539 781.72C203.405 775.049 206.09 768.22 208.665 761.264C230.903 700.313 237.635 631.335 209.125 565.679C182.923 505.493 134.015 455.91 95.5322 401.581C9.12066 279.802 -12.2797 119.512 64.4002 8.83625M-520.482 1586.25C-514.769 1464.32 -437.626 1360.4 -340.818 1277.71C-244.009 1195.02 -126.287 1128.02 -24.6724 1047.17C69.8053 972.03 153.795 886.859 200.172 782.796C203.206 776.113 205.961 769.314 208.606 762.386C231.926 701.395 239.549 632.051 210.312 566.174C183.563 505.924 133.072 456.991 93.4189 402.911C4.12683 281.16 -17.4183 119.252 60.4314 8.32738M-515.095 1589.65C-512.454 1467.42 -438.028 1361.95 -342.919 1278.22C-247.809 1194.49 -131.273 1127 -29.5021 1046.96C65.8019 971.998 151.607 887.585 199.863 783.732C202.967 777.079 205.921 770.198 208.705 763.329C233.107 702.298 241.65 632.518 211.685 566.419C184.36 506.174 132.315 457.823 91.5623 404.022C-0.680145 282.269 -22.3002 118.772 56.6786 7.4988M-509.708 1593.05C-510.14 1470.51 -438.361 1363.53 -345.02 1278.74C-251.679 1193.95 -136.22 1126.09 -34.2626 1046.77C61.8968 971.926 149.517 888.27 199.722 784.657C202.996 777.992 206.019 771.141 208.902 764.231C234.387 703.16 243.82 633.014 213.128 566.693C185.296 506.483 131.628 458.683 89.7749 405.161C-5.37721 283.505 -27.113 118.321 52.9948 6.6995M-504.32 1596.44C-507.755 1473.64 -438.763 1365.08 -347.219 1279.3C-255.676 1193.51 -141.235 1125.14 -39.1909 1046.6C57.8646 971.964 147.231 889.036 199.315 785.634C202.658 778.998 205.92 772.164 208.873 765.284C235.341 704.213 245.723 633.562 214.374 567.049C185.966 506.845 130.743 459.625 87.7905 406.381C-10.2421 284.752 -32.1226 117.951 49.1841 6.01029M-498.933 1599.84C-505.44 1476.74 -439.095 1366.67 -349.321 1279.81C-259.546 1192.96 -146.222 1124.12 -43.9221 1046.35C53.9596 971.891 145.141 889.721 199.105 786.53C202.617 779.882 205.948 773.078 209 766.157C236.551 705.046 247.992 634.017 215.747 567.294C186.891 506.985 129.887 460.498 85.8637 407.462C-15.1484 285.901 -37.0748 117.442 45.361 5.15266M-493.575 1603.3C-503.084 1479.93 -439.527 1368.29 -351.45 1280.4C-263.374 1192.51 -151.168 1123.21 -48.7808 1046.21C49.9272 971.929 142.924 890.517 198.837 787.566C202.419 780.947 205.919 774.131 209.14 767.198C237.773 706.048 250.064 634.554 217.161 567.639C187.799 507.364 129.172 461.428 84.0479 408.671C-19.8739 287.207 -41.8869 116.991 41.6489 4.42294M-488.188 1606.7C-500.77 1483.03 -439.859 1369.87 -353.65 1280.95C-267.442 1192.04 -156.213 1122.33 -53.7096 1046.03C45.8945 971.968 140.636 891.283 198.429 788.543C202.18 781.913 205.75 775.126 209.11 768.251C238.826 707.061 252.007 635.201 218.377 568.064C188.439 507.795 128.228 462.51 82.0339 409.961C-24.7975 288.594 -46.9261 116.691 37.7794 3.87368M-482.801 1610.09C-498.455 1486.13 -440.291 1371.49 -355.752 1281.47C-271.213 1191.45 -161.049 1121.54 -58.4702 1045.85C42.1404 972.122 138.517 892.038 198.19 789.508C202.01 782.907 205.749 776.109 209.208 769.194C240.006 707.963 254.078 635.738 219.721 568.379C189.206 508.115 127.442 463.411 80.1475 411.141C-29.6635 289.842 -51.838 116.28 33.9966 3.11468M-477.413 1613.49C-496.07 1489.25 -440.623 1373.08 -357.852 1281.99C-275.082 1190.9 -165.965 1120.56 -63.2996 1045.64C38.0675 972.061 136.33 892.764 197.882 790.445C201.871 783.833 205.679 777.063 209.308 770.136C241.159 708.936 256.08 636.245 221.094 568.625C190.004 508.366 126.558 464.353 78.1922 412.292C-34.8137 291.38 -56.8186 115.841 30.215 2.35604M-472.056 1616.95C-493.814 1492.49 -441.054 1374.7 -360.053 1282.54C-279.051 1190.39 -171.051 1119.58 -68.1298 1045.42C34.0927 971.96 134.071 893.461 197.642 791.41C201.771 784.856 205.679 778.046 209.377 771.149C242.31 709.908 258.151 636.782 222.409 569.009C190.742 508.756 125.742 465.324 76.2768 413.541C-39.5107 292.616 -61.6895 115.529 26.4033 1.66687M-466.668 1620.35C-491.429 1495.61 -441.386 1376.28 -362.182 1283.13C-282.978 1189.98 -176.037 1118.57 -72.9886 1045.28C30.0601 971.998 131.854 894.256 197.305 792.417C238.974 727.528 264.282 645.076 223.753 569.324C191.511 509.076 124.956 466.225 74.3911 414.721C-44.2769 293.823 -66.6006 115.119 22.6213 0.908206M-464.126 1623.29C-486.555 1500.43 -438.275 1381.6 -362.412 1289.18C-286.892 1197.2 -182.46 1129.24 -85.1255 1054.72C-62.0914 1037.05 -39.5571 1018.01 -15.9872 999.248C17.8164 972.461 52.289 946.036 84.1085 918.503C119.7 887.628 152.156 855.034 179.848 818.731C183.242 814.329 186.526 809.799 189.74 805.24C220.251 762.574 243.235 711.031 242.722 658.042C242.523 633.374 237.174 608.278 225.016 583.783C212.736 558.99 194.7 536.795 173.864 515.808C142.907 484.697 106.234 456.282 75.2832 424.763C49.1484 398.205 27.577 368.962 11.3542 338.099C-7.29904 302.452 -18.6077 265.117 -23.3757 228.217C-28.6894 188.303 -26.4907 148.656 -17.1118 110.858C-7.80265 73.03 8.64609 36.9524 31.2264 5.23654M-461.655 1626.21C-481.651 1505.18 -435.263 1386.95 -362.741 1295.27C-290.806 1204.42 -188.925 1139.82 -97.362 1064.2C-75.4741 1046.13 -54.6442 1025.48 -31.1903 1006.02C2.34593 978.298 38.5409 952.263 71.6926 925.86C108.64 896.452 142.346 865.773 171.532 830.995C175.107 826.751 178.542 822.448 182.007 818.075C214.419 776.941 239.679 726.429 241.301 673.429C242.074 648.593 237.685 623.16 226.237 598.142C214.697 572.757 197.01 549.724 176.157 527.992C145.2 495.898 107.737 466.824 76.2039 434.736C49.4874 407.607 27.3052 377.863 11.4028 346.232C-7.04063 309.69 -16.5974 271.693 -19.8174 234.619C-23.2748 194.578 -19.2955 155.182 -8.81657 117.105C1.73215 79.0576 18.6001 42.1716 39.8191 9.39598M-459.113 1629.16C-476.707 1510.03 -432.211 1392.4 -362.97 1301.32C-294.847 1211.74 -195.301 1150.19 -109.528 1073.71C-88.7574 1055.17 -69.5912 1033.01 -46.2243 1012.77C-12.8564 984.082 24.962 958.479 59.4166 933.276C97.6782 905.235 132.676 876.57 163.427 843.347C167.182 839.26 170.867 835.143 174.483 830.997C208.908 791.522 236.303 741.984 240.061 688.974C241.846 664.068 238.307 638.171 227.57 612.629C216.669 586.692 199.501 562.81 178.532 540.374C147.616 507.395 109.391 477.594 77.1366 444.877C49.8384 417.177 27.1443 386.892 11.3935 354.505C-6.74111 317.026 -14.7148 278.379 -16.2879 241.091C-17.9878 200.964 -12.1987 161.749 -0.57915 123.493C11.1102 85.2654 28.4965 47.5305 48.4241 13.7242M-456.571 1632.1C-471.763 1514.88 -429.129 1397.79 -363.2 1307.37C-298.761 1218.96 -201.59 1160.35 -121.665 1083.15C-101.884 1064.04 -84.6198 1040.35 -61.3282 1019.5C-28.1985 989.809 11.2839 964.736 47.0707 940.662C86.6876 914.089 122.895 887.24 155.181 855.641C159.088 851.78 162.953 847.821 166.819 843.861C203.217 805.947 232.886 757.439 238.681 704.46C241.438 679.387 238.859 653.152 228.762 627.058C218.531 600.499 201.782 575.808 180.726 552.599C149.811 518.637 110.864 488.207 77.9177 454.791C50.0379 426.521 26.832 395.694 11.3026 362.58C-6.59295 324.136 -12.9137 284.867 -12.8399 247.365C-12.7125 207.181 -5.2127 168.189 7.57663 129.683C20.4358 91.2058 38.3111 52.6914 56.8774 17.8254M-454.029 1635.05C-466.819 1519.73 -426.076 1403.24 -363.458 1313.49C-302.692 1226.42 -207.891 1170.34 -133.832 1092.66C-115.109 1072.94 -99.6365 1047.85 -76.4319 1026.23C-43.5695 995.605 -2.46371 970.964 34.7542 947.979C75.6856 922.774 113.184 897.938 147.035 867.894C151.192 864.22 155.238 860.417 159.214 856.586C197.653 820.261 229.458 772.727 237.359 719.807C241.158 694.594 239.47 667.994 230.083 641.377C220.522 614.195 204.262 588.726 183.09 564.812C152.216 529.966 112.437 498.779 78.9087 464.793C50.4472 435.952 26.6304 404.625 11.4214 370.743C-6.19453 331.432 -10.903 291.443 -9.11243 253.755C-7.22763 213.485 2.08189 174.675 16.0817 136.018C30.0815 97.3618 48.4751 57.9985 65.6801 22.0728M-451.487 1637.99C-461.874 1524.58 -423.052 1408.76 -363.687 1319.54C-306.634 1233.7 -214.173 1180.09 -145.968 1102.1C-128.205 1081.74 -114.624 1055.28 -91.5353 1032.95C-58.8412 1001.36 -16.112 977.151 22.4787 955.394C64.6258 931.598 103.514 908.736 138.86 880.217C143.168 876.769 147.394 873.124 151.62 869.479C192.032 834.715 226.083 788.281 236.05 735.322C240.82 709.942 240.023 682.975 231.346 655.835C222.454 628.031 206.614 601.753 185.424 577.095C154.551 541.266 114.051 509.45 79.8012 474.835C50.758 445.424 26.4293 413.555 11.4418 378.946C-5.93513 338.669 -9.01983 298.128 -5.55316 260.157C-1.91091 219.801 9.2083 181.172 24.3779 142.266C39.5474 103.36 58.4302 63.2177 74.274 26.2322M-448.946 1640.94C-456.93 1529.43 -419.929 1414.25 -363.946 1325.66C-310.566 1241.16 -220.608 1189.62 -158.135 1111.61C-141.332 1090.6 -129.571 1062.81 -106.569 1039.71C-74.1134 1007.12 -29.79 983.408 10.2027 962.81C53.6352 940.451 93.8725 919.463 130.754 892.568C135.242 889.278 139.69 885.889 144.096 882.402C186.55 849.227 222.835 803.726 234.809 750.867C240.593 725.417 240.715 698.015 232.678 670.323C224.526 641.926 209.104 614.84 187.799 589.477C156.897 552.734 115.675 520.29 80.8327 484.935C51.2078 454.954 26.3381 422.613 11.6011 387.208C-5.46702 345.994 -6.96864 304.803 -1.88416 266.687C3.51554 226.245 16.4154 187.867 32.7547 148.712C49.094 109.557 68.466 68.635 83.0184 30.6189M-446.404 1643.88C-451.956 1534.21 -416.935 1419.84 -364.176 1331.71C-314.468 1248.55 -240.421 1187.01 -170.272 1121.05C-158.617 1096.66 -144.559 1070.24 -121.673 1046.44C-89.4149 1012.94 -43.5087 989.566 -2.11414 970.127C42.633 949.136 84.1612 930.162 122.538 904.792C127.206 901.659 131.834 898.428 136.462 895.196C180.928 863.68 219.447 819.112 233.459 766.283C240.284 740.695 241.296 712.927 233.97 684.711C226.458 655.762 211.485 627.797 190.133 601.76C159.202 564.104 117.288 530.961 81.7244 494.978C51.448 464.396 26.0665 431.514 11.5218 395.452C-5.33642 353.342 -5.15609 311.46 1.57533 273.13C8.73247 232.602 23.4421 194.405 40.9221 155.07C58.4719 115.765 78.2922 73.9647 91.4832 34.8888M-443.932 1646.8C-447.081 1539.03 -413.911 1425.36 -364.504 1337.81C-318.428 1256.07 -248.513 1195.59 -182.607 1130.58C-172.54 1105.27 -159.744 1077.75 -136.945 1053.18C-104.925 1018.68 -57.3956 995.736 -14.6282 977.525C31.3637 957.873 74.2528 940.942 114.194 917.126C119.084 914.25 123.822 911.146 128.63 908.072C175.208 878.175 215.932 834.608 231.91 781.781C239.707 756.024 241.61 727.891 234.994 699.152C228.151 669.581 213.668 640.837 192.229 614.026C161.368 575.415 118.593 541.586 82.3781 505.002C51.52 473.851 25.5975 440.497 11.3034 403.637C-5.24604 360.592 -3.51163 318.128 4.89585 279.515C13.7813 238.97 30.3297 200.885 49.0493 161.33C67.7689 121.775 88.0784 79.1957 99.9082 39.0601M-441.39 1649.74C-442.137 1543.88 -410.876 1431.05 -364.733 1343.86C-322.289 1263.56 -256.577 1204.11 -194.744 1140.02C-186.295 1113.88 -174.731 1085.18 -151.979 1059.93C-120.157 1024.53 -71.0735 1001.99 -26.9041 984.94C20.3733 966.726 64.5127 951.71 106.048 929.379C111.118 926.66 116.106 923.743 121.095 920.825C169.715 892.518 212.643 849.954 230.728 797.186C239.567 771.29 242.361 742.79 236.455 713.529C230.351 683.365 216.217 653.783 194.662 626.268C163.773 586.744 120.306 552.216 83.468 514.963C52.0283 483.241 25.594 449.346 11.5213 411.759C-4.78918 367.748 -1.47172 324.634 8.72234 285.864C19.3653 245.233 37.6942 207.4 57.5836 167.596C77.4438 127.861 98.2716 84.4325 108.74 43.2372M-438.848 1652.69C-437.193 1548.73 -407.771 1436.77 -364.963 1349.91C-326.081 1271.07 -264.57 1212.66 -206.881 1149.46C-200.02 1122.41 -189.719 1092.62 -167.054 1066.59C-135.47 1030.19 -84.7632 1008.08 -39.1918 992.187C9.33031 975.312 54.8597 962.269 97.9308 941.562C103.181 939 108.39 936.339 113.559 933.579C164.261 906.961 209.425 865.328 229.476 812.562C239.357 786.527 243.041 757.661 237.775 727.847C232.341 697.061 218.626 666.671 197.054 638.411C166.136 597.974 121.977 562.747 84.4179 524.866C52.3965 492.573 25.3805 458.108 11.599 419.823C-4.4026 374.875 0.468892 331.18 12.3099 292.196C24.6404 251.45 44.8489 213.828 65.8789 173.844C86.909 133.86 108.226 89.652 117.374 47.4958M-436.306 1655.64C-432.249 1553.58 -415.72 1436.57 -365.221 1356.03C-320.104 1284.05 -272.662 1221.25 -219.047 1158.97C-213.705 1131.04 -204.666 1100.15 -182.187 1073.39C-150.8 1036.09 -98.5804 1014.28 -51.5664 999.643C-1.79956 984.107 45.0907 973.107 89.6567 953.926C95.0579 951.591 100.477 949.017 105.866 946.513C158.611 921.484 204.332 880.085 228.068 828.118C239.827 802.294 243.523 772.614 238.939 742.346C234.174 710.938 220.949 679.769 199.261 650.805C168.384 609.484 123.462 573.529 85.2519 535.048C52.6487 502.184 25.0916 467.248 11.5607 428.166C-4.23101 382.322 2.25268 337.907 15.8104 298.738C29.8984 257.906 51.9166 220.465 74.0873 180.301C96.2871 140.068 118.093 95.0809 125.88 51.865M-433.794 1658.65C-427.403 1558.47 -413.458 1442.35 -365.55 1362.12C-323.447 1291.67 -280.755 1229.83 -231.283 1168.45C-227.529 1139.61 -219.753 1107.62 -197.291 1080.11C-166.101 1041.91 -112.299 1020.44 -63.8831 1006.96C-12.8714 992.763 35.3797 983.806 81.5104 966.179C87.1618 964.03 92.7318 961.683 98.3018 959.336C153.129 935.996 202.76 896.228 226.787 843.563C238.751 817.251 244.175 787.555 240.3 756.764C236.275 724.763 223.399 692.756 201.694 663.047C170.817 620.743 125.105 584.13 86.2428 545.049C53.058 511.615 24.989 476.137 11.6796 436.328C-3.80338 389.548 4.23438 344.552 19.4682 305.099C35.2845 264.251 59.1124 226.991 82.4819 186.508C105.822 146.095 128.147 100.259 134.572 55.9838M-431.252 1661.6C-422.459 1563.32 -411.127 1448.16 -365.809 1368.24C-326.692 1299.25 -288.847 1238.42 -243.449 1177.96C-241.284 1148.21 -234.77 1115.12 -212.424 1086.91C-181.472 1047.71 -126.047 1026.66 -76.1882 1014.45C-23.9318 1001.59 25.6802 994.673 73.3058 978.571C79.1084 976.649 84.8587 974.46 90.6382 972.2C147.507 950.45 199.413 911.714 225.407 859.05C238.412 832.599 244.727 802.536 241.493 771.193C238.137 738.57 225.75 705.784 203.929 675.371C173.024 632.153 126.59 594.911 87.0647 555.062C53.2982 521.058 24.6185 485.079 11.5596 444.473C-3.6843 396.727 6.84413 351.46 22.8871 311.443C39.4834 270.101 66.0984 233.431 90.6784 192.797C115.189 152.135 138.072 105.548 143.066 60.1838M-428.71 1664.54C-417.485 1568.1 -408.715 1454.16 -366.038 1374.29C-329.977 1306.73 -296.84 1246.97 -255.586 1187.4C-255.009 1156.74 -249.687 1122.58 -227.498 1093.57C-196.744 1053.46 -139.806 1032.72 -88.5045 1021.76C-34.9335 1010.27 15.9987 1005.3 65.1599 990.824C71.1429 989.06 77.1433 987.056 83.074 985.024C142.026 964.962 196.166 927.158 224.126 874.495C238.243 847.934 245.309 817.448 242.785 785.581C240.169 752.365 228.102 718.812 206.293 687.585C175.358 643.453 128.233 605.513 88.056 565.064C53.7078 530.489 24.5163 493.969 11.6788 452.636C-3.28545 404.023 7.91843 357.726 26.5451 317.805C45.8065 276.755 73.3237 239.887 99.0443 199.074C124.765 158.261 148.097 110.797 151.8 64.402M-426.238 1667.46C-412.611 1572.92 -392.141 1465.91 -366.367 1380.38C-345.039 1309.62 -305.003 1255.53 -267.852 1196.95C-268.793 1165.41 -264.803 1130.12 -242.73 1100.41C-212.145 1059.33 -153.653 1038.99 -100.95 1029.19C-46.1338 1019.04 6.08941 1016.08 56.8154 1003.16C63.0484 1001.58 69.1303 999.775 75.3111 997.929C136.345 979.555 192.749 942.614 222.647 890.022C237.806 863.322 245.762 832.469 243.948 800.08C242.001 766.242 230.354 731.88 208.429 699.949C177.466 654.904 129.578 616.236 88.7497 575.187C53.8198 540.042 24.1163 502.98 11.5003 460.92C-3.15512 411.371 9.56212 364.394 29.9462 324.387C50.8952 283.221 80.2627 246.635 107.182 205.503C134.073 164.44 157.894 116.196 160.235 68.7415M-423.697 1670.4C-407.667 1577.77 -388.885 1471.86 -366.596 1386.43C-348.609 1317.4 -312.996 1264.07 -279.989 1206.39C-282.518 1173.95 -279.791 1137.55 -257.735 1107.09C-227.347 1065.11 -167.342 1045.08 -113.196 1036.53C-57.136 1027.72 -3.55194 1026.81 48.7387 1015.44C55.123 1014.09 61.4841 1012.4 67.8161 1010.78C130.933 994.096 189.641 958.116 221.436 905.497C237.636 878.658 246.512 847.369 245.309 814.498C244.102 780.067 232.874 744.896 210.862 712.191C179.94 666.262 131.29 626.866 89.8394 585.148C54.3279 549.432 24.0135 511.87 11.7179 469.042C-2.69855 418.528 11.5726 370.97 33.7026 330.707C56.3101 289.497 87.5864 253.051 115.647 211.739C143.707 170.427 168.017 121.404 168.997 72.8897M-421.155 1673.35C-402.722 1582.62 -385.518 1477.94 -366.855 1392.55C-352.139 1325.26 -321.089 1272.66 -292.155 1215.9C-296.302 1182.62 -294.808 1145.05 -272.868 1113.89C-242.718 1070.91 -181.061 1051.24 -125.571 1043.99C-68.2367 1036.45 -13.321 1037.65 40.4646 1027.8C47.0292 1026.61 53.5416 1025.15 60.0539 1023.69C125.253 1008.69 186.195 973.642 219.957 921.024C237.269 894.075 246.966 862.392 246.403 828.967C245.865 793.914 235.057 757.935 212.998 724.556C182.048 677.713 132.706 637.619 90.5336 595.272C54.3705 558.956 23.6143 520.881 11.511 477.396C-2.62582 426.015 13.1878 377.708 37.0345 337.261C61.3995 295.964 94.4854 259.699 123.686 218.208C152.887 176.717 177.715 126.845 177.335 77.2703M-418.613 1676.29C-397.778 1587.47 -382.122 1483.94 -367.084 1398.6C-355.529 1333.19 -329.082 1281.21 -304.292 1225.34C-310.027 1191.15 -309.726 1152.51 -287.942 1120.55C-257.99 1076.66 -194.75 1057.33 -137.858 1051.24C-79.3491 1045 -22.9736 1048.21 32.3476 1039.99C39.0925 1038.95 45.8259 1037.74 52.5477 1036.37C119.83 1023.06 183.076 988.976 218.735 936.33C237.088 909.242 247.675 877.193 247.823 843.245C248.024 807.599 237.565 770.783 215.46 736.728C184.51 688.902 134.447 648.179 91.6236 605.233C54.8788 568.347 23.5816 529.8 11.659 485.489C-2.23879 433.142 15.1579 384.185 40.7214 343.552C66.774 302.14 101.71 266.156 132.151 224.444C162.521 182.704 187.839 132.052 186.167 81.4474M-416.071 1679.24C-392.833 1592.32 -378.586 1490.01 -367.313 1404.65C-358.89 1341.05 -337.145 1289.73 -316.429 1234.78C-323.682 1199.71 -324.713 1159.94 -302.976 1127.3C-273.192 1082.45 -208.439 1063.41 -150.134 1058.65C-90.38 1053.76 -32.6436 1059 24.1725 1052.31C31.1384 1051.53 38.0813 1050.41 44.9543 1049.26C114.319 1037.64 179.799 1004.49 217.425 951.845C236.89 924.648 248.298 892.203 249.086 857.704C249.957 821.436 239.958 783.91 217.795 749.011C186.816 700.272 135.991 658.821 92.5449 615.205C55.2184 577.749 23.3395 538.632 11.7082 493.623C-1.88076 440.34 17.0001 390.772 44.3094 349.884C72.0497 308.357 108.866 272.584 140.476 230.623C172.016 188.633 197.823 137.202 194.789 85.5373M-413.53 1682.19C-387.889 1597.17 -374.981 1496.1 -367.572 1410.77C-362.181 1348.94 -345.168 1298.34 -328.595 1244.29C-337.437 1208.31 -339.66 1167.47 -318.08 1134.03C-288.494 1088.27 -222.158 1069.57 -162.41 1066.07C-101.382 1062.44 -42.3841 1069.77 16.0666 1064.66C23.2129 1064.04 30.3069 1063.15 37.43 1062.19C108.807 1052.23 176.661 1020.06 216.185 967.39C236.662 940.123 248.949 907.144 250.418 872.191C252.028 835.33 242.378 796.967 220.169 761.393C189.162 711.74 137.644 669.591 93.4773 625.346C55.5691 587.319 23.1491 547.73 11.7683 501.925C-1.61076 447.746 18.8824 397.458 47.9492 356.484C77.3771 314.842 116.072 279.279 148.823 237.138C181.574 194.998 207.829 142.689 203.434 89.9645M-410.987 1685.13C-382.916 1601.95 -371.206 1502.19 -367.801 1416.82C-365.402 1356.85 -353.231 1306.86 -340.732 1253.73C-351.162 1216.84 -354.648 1174.91 -333.184 1140.76C-303.765 1094.03 -235.917 1075.63 -174.727 1073.39C-112.425 1071.03 -52.0948 1080.47 7.85077 1076.89C15.1774 1076.42 22.4925 1075.78 29.7261 1074.95C103.186 1066.68 173.274 1035.45 214.764 982.777C236.354 955.401 249.461 922.027 251.64 886.551C253.92 849.068 244.689 809.896 222.393 773.548C191.357 722.982 139.118 680.204 94.3288 635.29C55.839 596.692 22.9072 556.562 11.7479 510.029C-1.32243 454.914 20.6548 404.016 51.4675 362.787C82.583 321.03 123.129 285.747 157.049 243.357C190.97 200.967 217.714 147.879 211.929 94.1648M-408.516 1688.05C-378.041 1606.77 -367.403 1508.2 -368.13 1422.91C-368.624 1364.77 -361.323 1315.45 -352.997 1263.28C-365.016 1225.49 -369.764 1182.45 -348.387 1147.53C-319.236 1099.87 -249.735 1081.83 -187.172 1080.81C-123.625 1079.8 -61.905 1091.21 -0.423798 1089.25C7.05404 1089.01 14.5786 1088.46 22.0624 1087.81C97.5757 1081.3 169.997 1050.96 213.384 998.263C236.015 970.748 250.013 937.008 252.833 900.98C255.852 862.904 246.941 822.964 224.629 785.872C193.534 734.462 140.563 690.886 95.1507 645.303C56.0792 606.134 22.5657 565.434 11.6976 518.203C-1.13365 462.122 22.4267 410.573 54.9561 369.16C87.7593 327.287 130.185 292.216 165.246 249.646C200.307 207.076 227.57 153.139 220.493 98.394M-405.974 1690.99C-373.097 1611.62 -363.361 1514.23 -368.359 1428.96C-371.647 1372.6 -369.386 1323.97 -365.134 1272.72C-378.671 1234.05 -384.611 1189.94 -363.42 1154.28C-334.327 1105.78 -263.424 1087.92 -199.418 1088.16C-134.597 1088.41 -71.5456 1101.94 -8.56956 1101.5C-0.841579 1101.45 6.83409 1101.13 14.4982 1100.64C92.0941 1095.81 166.791 1066.51 212.104 1013.71C235.846 986.084 250.665 951.949 254.195 915.397C257.883 876.699 249.392 835.951 227.062 798.114C195.939 745.791 142.275 701.517 96.2119 655.334C56.5587 615.595 22.5041 574.423 11.8866 526.395C-0.665014 469.447 24.4379 417.149 58.6841 375.551C93.1457 333.632 137.549 298.731 173.781 255.912C210.012 213.093 237.763 158.376 229.325 102.571M-403.433 1693.94C-368.223 1616.44 -359.221 1520.22 -368.618 1435.08C-374.671 1380.44 -377.409 1332.58 -377.371 1282.2C-392.525 1242.69 -399.699 1197.41 -378.595 1160.98C-349.74 1111.48 -277.184 1093.98 -211.834 1095.52C-145.74 1097.04 -81.3563 1112.68 -16.8155 1113.8C-8.93633 1113.97 -1.0803 1113.81 6.834 1113.5C86.5124 1110.37 163.513 1082.02 210.723 1029.2C235.478 1001.5 251.216 966.93 255.387 929.826C259.814 890.535 251.743 848.979 229.297 810.438C198.145 757.201 143.789 712.229 97.0042 665.416C56.7693 625.107 22.2029 583.393 11.737 534.609C-0.575607 476.696 26.1102 423.748 62.0441 382.034C98.2224 339.93 144.448 305.379 181.848 262.311C219.249 219.242 247.49 163.746 237.691 106.882M-400.89 1696.88C-363.278 1621.29 -354.882 1526.13 -368.847 1441.13C-377.566 1388.16 -377.854 1339.94 -389.507 1291.64C-399.784 1249.08 -414.686 1204.84 -393.698 1167.71C-365.04 1117.3 -290.942 1100.04 -224.179 1102.9C-156.84 1105.76 -91.0667 1123.38 -25.0601 1126.09C-17.0006 1126.42 -8.8944 1126.44 -0.898708 1126.34C80.8332 1124.96 160.167 1097.5 209.274 1044.65C235.141 1016.85 251.798 981.842 256.51 944.226C261.677 904.342 253.926 862.018 231.492 822.663C200.312 768.513 145.263 722.841 97.7571 675.4C56.9405 634.52 21.7634 592.306 11.6178 542.755C-0.38596 483.905 27.8132 430.276 65.4638 388.378C103.4 346.188 151.434 311.818 189.976 268.57C228.517 225.322 257.276 168.977 246.116 111.053M-398.348 1699.83C-358.334 1626.14 -350.456 1531.82 -369.077 1447.18C-380.362 1395.85 -387.488 1348.29 -401.644 1301.08C-414.65 1257.79 -429.604 1212.3 -408.703 1174.39C-380.213 1123.02 -304.562 1106.15 -236.397 1110.18C-167.784 1114.31 -100.749 1134 -33.1074 1138.3C-24.8676 1138.79 -16.6102 1139.04 -8.36436 1139.12C75.4501 1139.43 157.018 1112.91 208.092 1060.06C235.07 1032.14 252.479 996.713 257.971 958.603C263.877 918.126 256.475 874.965 233.995 834.934C202.786 779.871 146.975 733.472 98.9168 685.391C57.5185 643.94 21.8294 601.184 11.8762 550.975C0.082265 491.23 29.8645 436.951 69.3308 394.826C108.954 352.522 158.869 318.363 198.58 274.865C238.291 231.368 267.539 174.244 255.087 115.289M-395.807 1702.78C-353.36 1630.92 -345.861 1537.51 -369.335 1453.3C-383.228 1403.5 -397.14 1356.88 -413.811 1310.59C-429.673 1266.69 -444.62 1219.8 -423.835 1181.19C-395.544 1128.91 -318.35 1112.28 -248.772 1117.63C-178.885 1123.03 -110.518 1144.84 -41.3816 1150.66C-32.9208 1151.41 -24.4831 1151.82 -16.0278 1151.98C69.7704 1154.02 153.712 1128.49 206.782 1075.57C234.773 1047.59 253.101 1011.72 259.233 973.061C265.809 931.963 258.897 888.021 236.23 847.258C205.091 791.241 148.49 744.183 99.7099 695.473C57.7299 653.452 21.529 610.155 11.7972 559.219C0.312076 498.537 31.6077 443.579 72.7907 401.269C114.102 358.849 165.867 324.97 206.748 281.223C247.629 237.477 277.366 179.573 263.553 119.559M-393.294 1705.79C-348.445 1635.84 -341.237 1543.13 -369.594 1459.43C-385.967 1411.04 -406.74 1365.74 -425.977 1320.1C-444.684 1275.75 -459.637 1227.3 -438.939 1187.92C-410.885 1134.64 -332.051 1118.2 -261.047 1125.05C-189.828 1131.58 -120.188 1155.64 -49.4872 1163.02C-40.846 1163.92 -32.1873 1164.58 -23.5517 1164.91C64.3406 1168.8 150.575 1144.06 205.542 1091.12C234.644 1063.02 253.793 1026.76 260.566 987.549C267.881 945.857 261.318 901.078 238.634 859.57C207.467 802.639 150.144 754.953 100.742 705.574C58.081 663.023 21.3682 619.185 11.9567 567.481C0.710612 505.833 33.5486 450.125 76.489 407.729C119.418 365.165 173.132 331.526 215.224 287.629C257.315 243.731 287.571 184.979 272.326 123.875M-390.822 1708.71C-343.571 1640.66 -336.566 1548.44 -369.923 1465.52C-388.845 1418.53 -416.328 1374.77 -438.213 1329.58C-459.894 1284.89 -474.724 1234.77 -454.142 1194.69C-426.286 1140.5 -345.869 1124.4 -273.463 1132.41C-201 1140.27 -129.969 1166.31 -57.8025 1175.28C-48.981 1176.34 -40.1419 1177.16 -31.2852 1177.74C58.6198 1183.3 147.268 1159.65 204.092 1106.57C234.277 1078.44 254.275 1041.71 261.758 1001.98C269.742 959.664 263.599 914.077 240.869 871.894C209.673 814.05 151.658 765.665 101.563 715.587C58.321 672.466 21.0964 628.086 11.8366 575.626C0.87014 513.111 35.2215 456.724 79.8787 414.143C124.495 371.463 180.089 338.035 223.321 293.958C266.582 249.811 297.327 190.28 280.721 128.116M-388.28 1711.65C-338.626 1645.51 -331.698 1553.66 -370.152 1471.57C-391.635 1425.81 -425.736 1383.96 -450.379 1339.09C-475.022 1294.23 -489.671 1242.3 -469.205 1201.51C-441.517 1146.36 -359.547 1130.66 -285.768 1139.89C-211.99 1149.13 -139.668 1177.18 -65.9371 1187.7C34.951 1202.1 138.252 1180.47 202.782 1122.09C267.313 1063.71 287.47 967.472 243.203 884.177C185.103 774.705 31.2972 698.721 11.9264 583.858C1.19892 520.378 37.2031 463.369 83.5073 420.574C129.881 377.808 187.255 344.631 231.686 300.235C276.117 255.839 307.351 195.528 289.454 132.334" stroke="url(#paint0_linear_1556_3870)" stroke-width="0.5" stroke-miterlimit="10"/>
<defs>
<linearGradient id="paint0_linear_1556_3870" x1="-458" y1="1363.69" x2="294.587" y2="-104.418" gradientUnits="userSpaceOnUse">
<stop stop-color="#FF22AC" stop-opacity="0.45"/>
<stop offset="0.48974" stop-color="#8846D3" stop-opacity="0.39"/>
<stop offset="1" stop-color="#2973FF" stop-opacity="0.11"/>
</linearGradient>
</defs>
</svg>
