<svg width="36" height="36" viewBox="0 0 36 36" fill="none" xmlns="http://www.w3.org/2000/svg">
<g clip-path="url(#clip0_1553_3679)">
<path d="M33.7857 31.7569L28.4983 22.5987C28.6882 22.3775 28.9463 22.2138 29.2475 22.1428C30.0804 21.9465 30.771 21.3918 31.1423 20.6208C31.5136 19.8499 31.5166 18.964 31.1508 18.1905C30.8707 17.5985 31.0308 16.8973 31.5399 16.4855C32.2052 15.9472 32.5868 15.1478 32.5868 14.2921C32.5868 13.4364 32.2052 12.6369 31.5399 12.0988C31.0308 11.6869 30.8707 10.9857 31.1508 10.3937C31.5167 9.62014 31.5136 8.73431 31.1423 7.96335C30.771 7.1924 30.0804 6.63765 29.2474 6.44142C28.61 6.29123 28.1615 5.72896 28.157 5.07402C28.1511 4.21834 27.7639 3.42159 27.0949 2.88807C26.4259 2.35456 25.5628 2.15439 24.7274 2.33902C24.0878 2.4802 23.4398 2.16824 23.1516 1.58016C22.7749 0.81181 22.0805 0.261914 21.2462 0.0715132C20.4118 -0.118957 19.5475 0.0752396 18.8748 0.604043C18.36 1.00882 17.6408 1.00882 17.1259 0.604043C16.4532 0.0752396 15.5889 -0.118817 14.7546 0.0715132C13.9203 0.261914 13.2259 0.81181 12.8492 1.58016C12.5609 2.16824 11.9128 2.48041 11.2735 2.33902C10.4379 2.15453 9.57494 2.35456 8.90601 2.88807C8.23701 3.42159 7.84988 4.21834 7.8439 5.07402C7.83933 5.72889 7.39089 6.29123 6.75339 6.44142C5.92049 6.63765 5.22984 7.1924 4.8586 7.96335C4.48729 8.73431 4.48426 9.62014 4.85009 10.3936C5.13014 10.9856 4.97011 11.6868 4.46092 12.0987C3.79565 12.6369 3.41407 13.4364 3.41407 14.2921C3.41407 15.1477 3.79565 15.9472 4.46092 16.4854C4.97011 16.8973 5.13014 17.5985 4.85009 18.1905C4.48419 18.964 4.48729 19.8499 4.8586 20.6208C5.22984 21.3918 5.92049 21.9465 6.75346 22.1428C7.05467 22.2137 7.31278 22.3775 7.50269 22.5987L2.21528 31.7569C2.0729 32.0035 2.09336 32.3117 2.26703 32.5373C2.44077 32.7629 2.7334 32.8614 3.00824 32.787L6.69088 31.7879L7.667 35.4767C7.73984 35.752 7.97159 35.9561 8.25388 35.9938C8.28503 35.9979 8.31611 35.9999 8.34697 35.9999C8.59566 35.9999 8.82895 35.8678 8.95565 35.6484L13.4673 27.834C13.8246 28.1648 14.2653 28.401 14.7548 28.5127C15.5889 28.703 16.4533 28.509 17.1261 27.9802C17.6409 27.5754 18.3601 27.5754 18.875 27.9802C19.3784 28.3759 19.989 28.5842 20.6141 28.5842C20.8244 28.5842 21.0364 28.5607 21.2463 28.5127C21.7358 28.401 22.1765 28.1648 22.5338 27.834L27.0454 35.6484C27.1721 35.8678 27.4054 35.9999 27.6541 35.9999C27.6849 35.9999 27.7161 35.9979 27.7472 35.9938C28.0295 35.9561 28.2612 35.752 28.3341 35.4767L29.3102 31.7879L32.9928 32.787C33.2677 32.8616 33.5604 32.7629 33.7341 32.5373C33.9077 32.3117 33.9282 32.0035 33.7857 31.7569ZM8.59032 33.4688L7.86935 30.7442C7.8214 30.5633 7.70335 30.4088 7.54122 30.3152C7.37901 30.2216 7.18629 30.1965 7.00559 30.2455L4.28557 30.9834L8.02987 24.4982C8.20705 24.9625 8.50559 25.3767 8.90615 25.6962C9.57515 26.2297 10.4382 26.4299 11.2736 26.2452C11.7455 26.141 12.2216 26.2842 12.5548 26.6023L8.59032 33.4688ZM20.9334 27.1418C20.5147 27.2372 20.0814 27.1399 19.7441 26.8748C19.2307 26.4712 18.6157 26.2695 18.0005 26.2695C17.3854 26.2695 16.7701 26.4713 16.257 26.8748C15.9196 27.14 15.4863 27.2374 15.0677 27.1418C14.6492 27.0463 14.3009 26.7705 14.112 26.3851C13.5373 25.2127 12.2452 24.5905 10.9702 24.8721C10.5511 24.9647 10.1184 24.8643 9.78285 24.5967C9.44733 24.3291 9.25313 23.9296 9.25011 23.5004C9.24104 22.1947 8.34697 21.0736 7.07597 20.7741C6.65819 20.6757 6.31184 20.3974 6.12559 20.0107C5.93941 19.624 5.93786 19.1798 6.12137 18.7918C6.67963 17.6114 6.36057 16.2134 5.34535 15.3922C5.01166 15.1223 4.82035 14.7213 4.82035 14.2921C4.82035 13.8629 5.01173 13.462 5.34542 13.192C6.36057 12.3708 6.6797 10.9728 6.12137 9.79241C5.93786 9.40443 5.93941 8.96014 6.12566 8.57351C6.31184 8.1868 6.65826 7.90858 7.07597 7.81015C8.34697 7.51069 9.24104 6.3896 9.25011 5.08386C9.25313 4.65469 9.44726 4.25505 9.78285 3.98752C10.1184 3.71991 10.5511 3.61944 10.9703 3.71211C12.2451 3.99356 13.5373 3.3716 14.112 2.1991C14.3009 1.81373 14.6492 1.5379 15.0677 1.44242C15.4862 1.34701 15.9196 1.44425 16.257 1.70946C17.2836 2.51655 18.7175 2.51655 19.7441 1.70946C20.0815 1.44425 20.5148 1.34701 20.9334 1.44242C21.3518 1.5379 21.7001 1.81373 21.889 2.1991C22.4637 3.3716 23.7558 3.99356 25.0308 3.71211C25.4497 3.61937 25.8826 3.71991 26.2182 3.98752C26.5537 4.25512 26.7479 4.65469 26.7509 5.08386C26.76 6.3896 27.654 7.51069 28.925 7.81015C29.3428 7.90858 29.6892 8.1868 29.8754 8.57351C30.0616 8.96021 30.0632 9.40443 29.8796 9.79247C29.3214 10.9728 29.6404 12.3708 30.6557 13.192C30.9893 13.462 31.1807 13.8629 31.1807 14.2921C31.1807 14.7213 30.9893 15.1223 30.6556 15.3922C29.6404 16.2134 29.3213 17.6114 29.8796 18.7918C30.0632 19.1798 30.0616 19.6241 29.8754 20.0107C29.6892 20.3974 29.3428 20.6757 28.925 20.7741C27.654 21.0736 26.76 22.1947 26.7509 23.5004C26.7479 23.9296 26.5538 24.3292 26.2182 24.5967C25.8826 24.8643 25.4499 24.9647 25.0307 24.8721C23.7558 24.5904 22.4637 25.2127 21.889 26.3851C21.7001 26.7705 21.3518 27.0463 20.9334 27.1418ZM28.9954 30.2455C28.8147 30.1965 28.6219 30.2216 28.4598 30.3152C28.2977 30.4089 28.1795 30.5633 28.1317 30.7442L27.4107 33.4688L23.4463 26.6023C23.7796 26.2841 24.2557 26.1409 24.7274 26.2452C25.563 26.4298 26.4259 26.2297 27.0949 25.6962C27.4954 25.3768 27.794 24.9625 27.9711 24.4982L31.7154 30.9834L28.9954 30.2455Z" fill="white"/>
<path d="M21.3456 19.6091C21.4907 19.6091 21.6357 19.5643 21.7589 19.4748C22.0047 19.2962 22.108 18.9799 22.015 18.6907L20.9067 15.2449L23.8294 13.0974C24.0743 12.9175 24.1759 12.6005 24.0812 12.3118C23.9865 12.023 23.717 11.8278 23.4132 11.8278H19.7964L18.6685 8.39135C18.5738 8.10265 18.3043 7.90747 18.0005 7.90747C17.6967 7.90747 17.4272 8.10265 17.3325 8.39135L16.2047 11.8278H12.5879C12.284 11.8278 12.0145 12.023 11.9198 12.3118C11.8251 12.6005 11.9267 12.9175 12.1717 13.0974L15.0944 15.2449L13.9861 18.6907C13.8931 18.9799 13.9964 19.2962 14.2422 19.4748C14.488 19.6534 14.8207 19.6538 15.067 19.476L18.0007 17.3578L20.9343 19.476C21.0569 19.5647 21.2012 19.6091 21.3456 19.6091ZM18.412 15.9206C18.2891 15.8319 18.1447 15.7875 18.0004 15.7875C17.856 15.7875 17.7117 15.8319 17.5888 15.9206L15.9805 17.0818L16.5879 15.1934C16.6805 14.9055 16.5786 14.5905 16.3349 14.4115L14.7322 13.2338H16.7138C17.0176 13.2338 17.2871 13.0386 17.3818 12.75L18.0004 10.8651L18.619 12.75C18.7138 13.0386 18.9832 13.2338 19.287 13.2338H21.2686L19.6659 14.4115C19.4221 14.5905 19.3203 14.9054 19.4129 15.1934L20.0203 17.0818L18.412 15.9206Z" fill="white"/>
<path d="M27.8441 14.2922C27.8441 8.8645 23.4283 4.44873 18.0007 4.44873C12.573 4.44873 8.15723 8.8645 8.15723 14.2922C8.15723 18.4213 10.7641 22.1411 14.6442 23.5483C15.0092 23.6806 15.4125 23.4921 15.5449 23.1271C15.6773 22.762 15.4888 22.3588 15.1237 22.2263C11.798 21.0202 9.5635 17.8317 9.5635 14.2922C9.5635 9.63988 13.3484 5.85494 18.0007 5.85494C22.653 5.85494 26.438 9.63988 26.438 14.2922C26.438 17.8319 24.2033 21.0204 20.8773 22.2266C20.5123 22.3589 20.3236 22.7622 20.456 23.1272C20.5598 23.4131 20.8295 23.5909 21.117 23.5909C21.1966 23.5909 21.2775 23.5772 21.3567 23.5485C25.237 22.1414 27.8441 18.4216 27.8441 14.2922Z" fill="white"/>
<path d="M18.001 22.7292C17.8161 22.7292 17.6346 22.8045 17.5039 22.9353C17.3731 23.066 17.2979 23.2475 17.2979 23.4324C17.2979 23.6173 17.3731 23.7987 17.5039 23.9295C17.6346 24.0603 17.8161 24.1355 18.001 24.1355C18.1859 24.1355 18.3673 24.0603 18.4981 23.9295C18.6289 23.7987 18.7041 23.6173 18.7041 23.4324C18.7041 23.2475 18.6289 23.066 18.4981 22.9353C18.3673 22.8045 18.1859 22.7292 18.001 22.7292Z" fill="white"/>
</g>
<defs>
<clipPath id="clip0_1553_3679">
<rect width="36" height="36" fill="white"/>
</clipPath>
</defs>
</svg>
