<svg width="141" height="129" viewBox="0 0 141 129" fill="none" xmlns="http://www.w3.org/2000/svg">
<path d="M7.7002 107C7.7002 113.4 12.9002 118.6 19.4002 118.6H121C127.5 118.6 132.8 113.3 132.8 106.8V40.2001C132.8 33.6001 127.4 28.3 120.8 28.3H19.6002C13.0002 28.3 7.7002 33.6 7.7002 40.1V107V107Z" stroke="black" stroke-width="7" stroke-linecap="round" stroke-linejoin="round"/>
<path d="M120.9 25.2V21.5C120.9 15.3 116 10.3 110.1 10.3H18.4998C12.5998 10.3 7.7998 15.2 7.7998 21.3V37.4001" stroke="black" stroke-width="7" stroke-linecap="round" stroke-linejoin="round"/>
<path d="M92.5996 79.9001C92.5996 81.4001 94.1996 82.7 96.2996 82.7H128.3C130.4 82.7 132 81.4001 132 79.9001V64.1C132 62.5 130.3 61.3 128.2 61.3H96.3996C94.2996 61.3 92.6996 62.6 92.6996 64.1V79.9001H92.5996Z" stroke="black" stroke-width="7" stroke-linecap="round" stroke-linejoin="round"/>
<path d="M105.5 76.5C107.985 76.5 110 74.4853 110 72C110 69.5147 107.985 67.5 105.5 67.5C103.015 67.5 101 69.5147 101 72C101 74.4853 103.015 76.5 105.5 76.5Z" fill="black" stroke="black" stroke-width="0.75" stroke-linecap="round" stroke-linejoin="round"/>
</svg>
