<svg width="108" height="108" viewBox="0 0 108 108" fill="none" xmlns="http://www.w3.org/2000/svg">
<path d="M53.9921 5.54354e-07C31.2162 0.00317081 11.7348 14.107 3.80195 34.0572C3.77744 34.1189 3.75292 34.1806 3.72861 34.2426C-0.324028 44.5461 3.39193 56.2847 12.5755 62.4694L43.5265 86.8514C56.8809 97.3716 75.1929 99.3034 90.2878 91.483C93.4358 89.852 96.0397 87.9993 97.6155 85.8448C104.178 76.8719 108.038 65.7982 108 53.8212C107.903 24.1656 83.6476 -0.00422645 53.9921 5.54354e-07Z" fill="#00B7F0"/>
<path d="M70.1897 87.8011C70.639 86.7172 70.1246 85.4743 69.0406 85.025C67.9567 84.5757 66.7137 85.0902 66.2644 86.1741C65.8152 87.258 66.3296 88.5009 67.4136 88.9502C68.4975 89.3995 69.7404 88.8851 70.1897 87.8011Z" fill="#0091C8"/>
<path d="M68.7163 65.1997C69.0942 65.5786 77.5782 74.0865 77.9631 74.3799C81.302 77.0034 86.3932 75.4231 87.5311 71.1653L92.8217 51.3691C97.2518 46.5913 101.356 40.9884 104.674 35.3019C100.467 23.9044 92.5239 14.3181 82.3315 8.02393C78.044 10.289 73.7503 13.0378 69.7817 16.0442C66.0459 18.8738 63.7346 21.0634 63.4936 21.2711L43.0899 26.7242C38.5691 27.9323 37.089 33.5719 40.3717 36.8551L44.8521 41.3355L49.2617 45.7451C49.2545 47.1311 49.4012 48.4301 49.6999 49.7288L43.1668 56.2619C38.8589 56.0076 34.4659 57.523 31.1744 60.8146C29.6355 62.3534 27.0562 61.8322 26.1816 59.8396C26.1256 59.7122 26.0677 59.5858 26.0075 59.4605C25.9889 59.4218 25.9688 59.3858 25.9483 59.3508C25.1025 57.6302 23.8802 56.1283 22.3824 54.96C20.9154 53.8161 20.3139 51.8493 20.9463 50.1C21.4415 48.7302 21.6685 47.2322 21.563 45.6686C20.8865 35.6423 7.5826 31.6632 1.73116 40.3895C-7.17451 76.4074 45.5997 115.782 74.326 104.074C82.6384 100.686 90.3281 95.0821 96.3007 87.5356C100.309 82.4714 93.2921 76.096 88.63 80.565C86.3125 82.7863 83.7955 84.8028 81.1088 86.5866C80.0168 87.3116 78.6401 87.3145 77.4692 86.7253C76.5035 86.2394 75.3732 86.9005 75.2716 87.9317C75.1428 89.2437 74.3773 90.4112 73.1724 90.9464C70.9989 91.9118 68.748 92.7361 66.4318 93.4107C65.1517 93.7837 63.7819 93.3528 62.9344 92.3235C62.9298 92.3178 62.9249 92.3119 62.92 92.3062C60.8974 89.8624 58 88.1257 54.7763 87.5396C52.6053 87.145 51.7442 84.505 53.3044 82.9446C56.596 79.6531 58.1114 75.2602 57.8571 70.9522L64.1835 64.6259C65.6283 65.0088 67.1399 65.2079 68.7163 65.1997Z" fill="#0091C8"/>
<path d="M29.9824 53.1592C31.4965 53.1592 32.724 51.9319 32.724 50.4178C32.724 48.9037 31.4965 47.6761 29.9824 47.6761C28.4682 47.6761 27.2407 48.9037 27.2407 50.4178C27.2407 51.9319 28.4682 53.1592 29.9824 53.1592Z" fill="#0091C8"/>
<path d="M28.6115 41.5682C29.3686 41.5682 29.9823 40.9544 29.9823 40.1974C29.9823 39.4403 29.3686 38.8265 28.6115 38.8265C27.8545 38.8265 27.2407 39.4403 27.2407 40.1974C27.2407 40.9544 27.8545 41.5682 28.6115 41.5682Z" fill="#0091C8"/>
<path d="M62.2968 93.6075C60.3464 93.9729 58.373 93.1311 57.1855 91.5415C55.0946 88.743 52.015 86.8591 48.6218 86.2421C46.4508 85.8475 45.5897 83.2076 47.1499 81.6472C53.2609 75.5362 53.2609 65.6283 47.1499 59.5173C41.0389 53.4063 31.1311 53.4063 25.0201 59.5173C23.4812 61.0561 20.9019 60.535 20.0273 58.5423C19.1729 56.5954 17.8399 54.9061 16.177 53.6232C14.7058 52.488 14.1634 50.5444 14.7941 48.7966C15.2878 47.4285 15.514 45.9325 15.4085 44.3713C15.0481 39.0303 10.751 34.7014 5.41226 34.3072C4.83231 34.2643 4.26146 34.2683 3.70222 34.3136C1.31291 40.4133 0 47.0533 0 54C0 83.8234 24.1766 108 54 108C61.1861 108 68.0427 106.593 74.3139 104.045C74.3378 103.541 74.3266 103.03 74.2731 102.514C73.6471 96.4721 67.894 92.5585 62.2968 93.6075Z" fill="white"/>
<path d="M19.8534 58.1632C19.1851 56.7702 17.0526 57.7213 17.6418 59.1494C17.812 59.5619 18.0354 59.9079 18.3268 60.133C19.9897 61.4159 21.3227 63.1052 22.1772 65.0522C23.0518 67.045 25.6311 67.566 27.1699 66.0271C33.2809 59.9161 43.1888 59.9161 49.2998 66.0271C50.227 66.9543 51.0113 67.9701 51.6572 69.0456C51.3161 65.5674 49.8142 62.1816 47.1499 59.5173C41.0389 53.4063 31.131 53.4063 25.0201 59.5173C23.4812 61.0562 20.9019 60.535 20.0273 58.5424C19.9713 58.4147 19.9134 58.2883 19.8534 58.1632Z" fill="#F5F0F0"/>
<path d="M49.2997 88.157C47.7393 89.7174 48.6004 92.3572 50.7716 92.752C54.1914 93.3736 57.2928 95.2827 59.3845 98.1178C60.5474 99.6938 62.5218 100.478 64.447 100.117C66.8741 99.6625 69.3296 100.142 71.3839 101.323C72.6226 102.035 74.0429 100.764 73.4598 99.46C71.5948 95.2893 66.9849 92.7488 62.3373 93.6001C60.3918 93.9565 58.4087 93.1992 57.2344 91.6075C55.9955 89.9284 54.4021 88.5747 52.5981 87.6208C51.5151 87.0481 50.1806 87.2751 49.3149 88.142L49.2997 88.157Z" fill="#F5F0F0"/>
<path d="M4.70971 34.2798C4.59495 34.2785 4.48061 34.2793 4.36669 34.2817C4.29906 34.2831 4.231 34.2838 4.16358 34.2865C4.00888 34.2924 3.85501 34.3013 3.70221 34.3136C2.69998 36.8722 1.88988 39.5272 1.28394 42.2587C3.10535 41.1964 5.26366 40.6473 7.5621 40.817C8.49817 40.8861 9.40211 41.0764 10.2583 41.3716C12.3838 42.105 14.0903 39.4783 12.592 37.815C12.5273 37.7442 12.4601 37.6755 12.3936 37.6064C12.3492 37.5603 12.3059 37.5134 12.2608 37.4682C12.1957 37.4029 12.1285 37.3399 12.062 37.2763C12.01 37.2266 11.9586 37.1765 11.9056 37.1279C11.8417 37.0694 11.7762 37.0129 11.7109 36.9559C11.6524 36.9047 11.594 36.853 11.5342 36.8031C11.4717 36.7507 11.4076 36.6999 11.344 36.649C11.2787 36.5968 11.2136 36.5446 11.1472 36.4941C11.0862 36.4474 11.0238 36.4021 10.9617 36.3567C10.89 36.3045 10.8184 36.2525 10.7455 36.202C10.6856 36.1606 10.625 36.12 10.5641 36.0796C10.4866 36.0281 10.4086 35.9773 10.3297 35.9279C10.2712 35.8911 10.212 35.855 10.1526 35.8192C10.0691 35.7691 9.98523 35.7199 9.90048 35.6719C9.8432 35.6394 9.7855 35.6075 9.72759 35.5762C9.63882 35.5282 9.54942 35.4815 9.45939 35.4358C9.40296 35.4073 9.3461 35.3788 9.28904 35.3511C9.19562 35.3059 9.10136 35.2623 9.00646 35.2198C8.95067 35.1947 8.89487 35.1695 8.83844 35.1455C8.74058 35.1036 8.64188 35.0637 8.54276 35.0246C8.48739 35.0028 8.43222 34.9806 8.37643 34.9597C8.27498 34.9216 8.17248 34.8861 8.06976 34.851C8.01439 34.8322 7.95922 34.8126 7.90322 34.7946C7.79902 34.761 7.69356 34.7302 7.58809 34.6997C7.53208 34.6837 7.4765 34.6665 7.42028 34.6511C7.31334 34.6222 7.20555 34.5964 7.09734 34.5706C7.04112 34.5573 6.98532 34.5425 6.92868 34.53C6.81835 34.5057 6.70676 34.4848 6.59538 34.4639C6.54001 34.4535 6.48505 34.4414 6.42926 34.4319C6.31069 34.4116 6.19107 34.3952 6.07123 34.3789C6.02178 34.3721 5.97295 34.3637 5.92329 34.3575C5.75378 34.3368 5.58344 34.3197 5.41203 34.3072C5.23661 34.2943 5.06224 34.2872 4.8883 34.2825C4.82891 34.2808 4.76931 34.2804 4.70971 34.2798Z" fill="#F5F0F0"/>
<path d="M87.6252 46.4873L78.6669 37.5291L66.071 59.5507L71.2457 72.5859C74.5428 75.883 80.1727 74.3725 81.3768 69.8678L87.6252 46.4873Z" fill="#8757F3"/>
<path d="M71.7562 73.0441C73.8071 74.6911 76.2778 71.683 74.3346 69.91C74.2632 69.8449 74.1928 69.7777 74.1235 69.7081C72.6607 68.2454 73.0072 65.8015 74.8066 64.7807C74.851 64.7556 74.8951 64.7304 74.9395 64.7048C80.8823 61.3044 85.1826 55.6269 86.9506 49.0121L87.6254 46.4871L78.6671 37.5288L60.3058 55.8901L57.4281 58.7678L66.7653 68.1051L71.2458 72.5855C71.4102 72.7505 71.5807 72.9031 71.7562 73.0441Z" fill="#6A2BC2"/>
<path d="M60.3158 19.1781L69.2741 28.1364L45.7151 37.529L34.2172 35.5575C30.9201 32.2605 32.4307 26.6305 36.9354 25.4265L60.3158 19.1781Z" fill="#8757F3"/>
<path d="M33.7593 35.0471C32.112 32.9961 35.1203 30.5255 36.8934 32.4686C36.9585 32.5401 37.0257 32.6104 37.0952 32.6798C38.558 34.1425 41.0018 33.7961 42.0226 31.9967C42.0478 31.9523 42.0729 31.9081 42.0985 31.8637C45.4989 25.921 51.1764 21.6206 57.7913 19.8527L60.3163 19.1779L69.2746 28.1362L50.9133 46.4974L48.0355 49.3752L38.6983 40.0379L34.2179 35.5575C34.0526 35.3929 33.9 35.2225 33.7593 35.0471Z" fill="#6A2BC2"/>
<path d="M84.6671 52.1513C69.5262 67.2923 57.2937 66.1789 49.0622 57.9474C40.8307 49.7159 42.2867 42.0651 57.4279 26.9241C72.569 11.7832 95.6611 -5.11446 103.893 3.11721C112.124 11.3489 99.8081 37.0102 84.6671 52.1513Z" fill="#FEC502"/>
<path d="M85.4996 26.1245C84.833 25.0209 84.0504 24.0616 83.1819 23.2462C80.8812 21.086 83.037 17.2525 86.046 18.2053C87.9137 18.7966 89.6471 19.8322 91.0797 21.2648L91.3132 21.4983C95.968 26.1531 103.948 23.9996 105.578 17.6217C106.826 12.737 107.091 7.87043 104.983 4.49327C100.012 -3.45202 85.2388 2.05259 76.9165 6.33793C76.7493 6.42416 76.5819 6.51082 76.4147 6.59853C76.4145 6.59874 76.4143 6.59874 76.4139 6.59895C68.7391 10.6216 60.9479 16.2528 54.8583 22.3424C39.7173 37.4834 40.8307 49.7159 49.0622 57.9473C50.4178 59.3029 51.8827 60.4641 53.4507 61.3928C50.5057 56.4214 49.9125 50.4081 52.9717 43.5083C55.0922 38.7261 61.4581 37.5903 65.042 41.4009C65.1333 41.498 65.2263 41.5939 65.3209 41.6886C70.9875 47.3551 80.6329 46.6173 85.2633 39.4755C87.875 35.4474 87.9819 30.2338 85.4996 26.1245Z" fill="#FFA50A"/>
<path d="M102.215 26.924C106.827 16.8572 108.283 7.50745 103.892 3.11686C99.5018 -1.27373 93.089 3.11918 83.022 7.73064L102.215 26.924Z" fill="#8757F3"/>
<path d="M98.8214 19.5749L95.9213 16.6747C93.4162 14.1696 94.4674 9.89502 97.8505 8.84313C99.4424 8.34815 100.985 7.96032 102.46 7.69233C104.582 7.3064 105.441 4.68481 103.925 3.14999C103.914 3.139 103.904 3.12801 103.893 3.11702C99.502 -1.27358 90.1525 0.182628 80.0854 4.79408L98.8214 23.5301C99.9137 22.4378 99.9137 20.6671 98.8214 19.5749Z" fill="#6A2BC2"/>
<path d="M76.4774 43.3705C83.5679 43.3705 89.3159 37.6226 89.3159 30.5321C89.3159 23.4416 83.5679 17.6936 76.4774 17.6936C69.3869 17.6936 63.6389 23.4416 63.6389 30.5321C63.6389 37.6226 69.3869 43.3705 76.4774 43.3705Z" fill="white"/>
<path d="M29.6859 87.3364L24.4091 88.014C23.391 88.1447 22.5241 87.2779 22.6547 86.2596L23.3323 80.9828C24.009 75.7111 26.415 70.8129 30.1733 67.0546C33.8848 63.3431 39.9025 63.3431 43.6141 67.0546C47.3256 70.7662 47.3256 76.7839 43.6141 80.4955C39.8558 84.2537 34.9576 86.6597 29.6859 87.3364Z" fill="#F5F0F0"/>
<path d="M30.4105 82.6105L23.1208 83.5464C23.1208 83.5464 28.6819 68.0291 32.4401 64.2708C32.4401 64.2708 38.3093 58.7658 41.8685 60.5454C42.7597 60.9909 43.5954 61.5854 44.3385 62.3285C48.05 66.04 48.05 72.0578 44.3385 75.7693C40.5805 79.5278 35.682 81.9338 30.4105 82.6105Z" fill="#FEC502"/>
<path d="M82.8966 36.9515C79.3514 40.4967 73.6033 40.4967 70.0581 36.9515C66.5129 33.4063 68.093 29.7009 71.6382 26.1557C74.7404 23.0535 77.9487 20.6232 81.4725 22.9498C81.9759 23.2822 82.4534 23.6698 82.8966 24.113C86.4418 27.6582 86.4418 33.4061 82.8966 36.9515Z" fill="#00B7F0"/>
<path d="M43.5471 48.422L53.0045 57.8794L46.4534 64.4304L36.996 54.9731L43.5471 48.422Z" fill="#6A2BC2"/>
<path d="M51.6838 69.6738L44.4973 62.4872C42.6879 60.6779 42.6879 57.7445 44.4973 55.9352C46.3067 54.1258 49.24 54.1258 51.0494 55.9352L58.2359 63.1217L51.6838 69.6738Z" fill="#8757F3"/>
<path d="M76.7009 35.5634C77.4557 34.8086 77.4557 33.5851 76.7009 32.8304L73.9494 30.0788C73.3443 29.4737 73.3113 28.491 73.8961 27.866C73.9126 27.8482 73.9293 27.8307 73.946 27.8132C74.5572 27.1702 75.5888 27.1825 76.2161 27.8098L77.0486 28.6423C77.7765 29.3702 78.9611 29.4564 79.7344 28.7771C80.5817 28.0327 80.6132 26.741 79.8283 25.9562C79.4802 25.6081 79.7192 25.017 80.211 25.0003C80.2288 24.9997 80.2463 24.9992 80.2641 24.9986C81.5778 24.9616 82.0145 23.2152 80.8614 22.5846C77.5552 20.7765 73.2836 21.1453 70.3518 23.8322C66.5156 27.3478 66.4177 33.311 70.0582 36.9515C70.3076 37.2009 70.568 37.4326 70.8377 37.6464C71.3656 38.0653 72.1108 37.5494 71.9005 36.909C71.8944 36.89 71.8881 36.871 71.8819 36.852C71.4757 35.587 73.0285 34.6239 73.968 35.5634C74.7227 36.3179 75.9462 36.3179 76.7009 35.5634Z" fill="#0091C8"/>
<path d="M30.8977 62.3287C27.1395 66.0869 24.7337 70.9852 24.0567 76.2569L23.1208 83.5466C24.5872 83.3582 25.7424 82.2089 25.9413 80.7441C26.0669 79.819 26.2319 78.8546 26.5525 77.6545C26.9683 76.0984 28.9087 75.57 30.0476 76.709L31.1788 77.8401C32.0749 78.7362 33.528 78.7362 34.4241 77.8401C35.3202 76.944 35.3202 75.4909 34.4241 74.5948L31.3314 71.5021C30.5469 70.7176 30.4847 69.4664 31.1875 68.6079L31.2031 68.5889C32.0054 67.6088 33.4783 67.5355 34.3738 68.431L35.4354 69.4926C36.3315 70.3887 37.7845 70.3887 38.6807 69.4926C39.5768 68.5965 39.5768 67.1434 38.6807 66.2473C37.8754 65.4421 38.4457 64.0537 39.5844 64.0634C39.6218 64.0636 39.6594 64.0643 39.6968 64.0651C42.1246 64.1144 42.7289 60.7074 40.4093 59.9884C37.256 59.0105 33.6049 59.6215 30.8977 62.3287Z" fill="#FFA50A"/>
<path d="M62.0403 87.7948C63.2134 87.7948 64.1644 86.8438 64.1644 85.6707C64.1644 84.4976 63.2134 83.5466 62.0403 83.5466C60.8672 83.5466 59.9163 84.4976 59.9163 85.6707C59.9163 86.8438 60.8672 87.7948 62.0403 87.7948Z" fill="white"/>
<path d="M70.3737 87.7947C71.0719 87.7947 71.638 87.2287 71.638 86.5304C71.638 85.8322 71.0719 85.2661 70.3737 85.2661C69.6754 85.2661 69.1094 85.8322 69.1094 86.5304C69.1094 87.2287 69.6754 87.7947 70.3737 87.7947Z" fill="white"/>
<path d="M23.8278 51.8618C25.342 51.8618 26.5695 50.6343 26.5695 49.1202C26.5695 47.606 25.342 46.3785 23.8278 46.3785C22.3137 46.3785 21.0862 47.606 21.0862 49.1202C21.0862 50.6343 22.3137 51.8618 23.8278 51.8618Z" fill="white"/>
<path d="M22.457 40.2707C23.2141 40.2707 23.8278 39.657 23.8278 38.8999C23.8278 38.1428 23.2141 37.5291 22.457 37.5291C21.6999 37.5291 21.0862 38.1428 21.0862 38.8999C21.0862 39.657 21.6999 40.2707 22.457 40.2707Z" fill="white"/>
</svg>
