<?xml version="1.0" encoding="utf-8"?>
<!-- Generator: Adobe Illustrator 25.4.1, SVG Export Plug-In . SVG Version: 6.00 Build 0)  -->
<svg version="1.0" id="Слой_1" xmlns="http://www.w3.org/2000/svg" xmlns:xlink="http://www.w3.org/1999/xlink" x="0px" y="0px" viewBox="185.762 70.602 14.493 21.552" width="14.493" height="21.552">
  <path class="st1" d="M504.5,166.41c2.15-4.12,2.36-9.18,0.12-13.64l0,0c-2.25-4.47-6.43-7.32-11.02-8.04" style="fill: none; stroke: rgb(35, 31, 32); stroke-linecap: round; stroke-linejoin: round; stroke-miterlimit: 10; stroke-width: 2px;" transform="matrix(0.625071, 0, 0, 0.625071, -121.791687, -14.32666)"></path>
  <path class="st1" d="M496.44,162.37c0.93-1.66,1.05-3.74,0.13-5.56c-0.92-1.82-2.65-2.97-4.54-3.21" style="fill: none; stroke: rgb(35, 31, 32); stroke-linecap: round; stroke-linejoin: round; stroke-miterlimit: 10; stroke-width: 2px;" transform="matrix(0.625071, 0, 0, 0.625071, -121.791687, -14.32666)"></path>
  <path class="st1" d="M512.59,170.35c3.34-6.56,3.63-14.57,0.08-21.64c-3.55-7.07-10.15-11.61-17.41-12.84" style="fill: none; stroke: rgb(35, 31, 32); stroke-linecap: round; stroke-linejoin: round; stroke-miterlimit: 10; stroke-width: 2px;" transform="matrix(0.625071, 0, 0, 0.625071, -121.791687, -14.32666)"></path>
</svg>