<svg width="30" height="30" viewBox="0 0 30 30" fill="none" xmlns="http://www.w3.org/2000/svg">
<path d="M13.8281 20.2723V16.1707H9.72656C9.07928 16.1707 8.55469 15.6461 8.55469 14.9989C8.55469 14.3518 9.07928 13.827 9.72656 13.827H13.8281V9.72542C13.8281 9.07837 14.3527 8.55354 15 8.55354C15.6473 8.55354 16.1719 9.07837 16.1719 9.72542V13.827H20.2734C20.9207 13.827 21.4453 14.3518 21.4453 14.9989C21.4453 15.6461 20.9207 16.1707 20.2734 16.1707H16.1719V20.2723C16.1719 20.9196 15.6473 21.4442 15 21.4442C14.3527 21.4442 13.8281 20.9196 13.8281 20.2723ZM25.6066 4.39339C22.7735 1.56029 19.0066 0 15 0C10.9934 0 7.22649 1.56029 4.39339 4.39339C1.56029 7.22649 0 10.9934 0 15C0 19.0066 1.56029 22.7735 4.39339 25.6066C7.22649 28.4397 10.9934 30 15 30C17.7429 30 20.4268 29.2525 22.7614 27.8382C23.315 27.5029 23.492 26.7824 23.1567 26.2289C22.8214 25.6753 22.1006 25.4984 21.5472 25.8337C19.5788 27.0259 17.3147 27.6562 15 27.6562C8.02139 27.6562 2.34375 21.9786 2.34375 15C2.34375 8.02139 8.02139 2.34375 15 2.34375C21.9786 2.34375 27.6562 8.02139 27.6562 15C27.6562 17.4955 26.9142 19.9244 25.5103 22.0246C25.1505 22.5625 25.2951 23.2903 25.8332 23.6501C26.3711 24.0097 27.0989 23.8651 27.4587 23.3272C29.1211 20.8404 30 17.9608 30 15C30 10.9934 28.4397 7.22649 25.6066 4.39339Z" fill="white"/>
</svg>
