<svg width="50" height="47" viewBox="0 0 50 47" fill="none" xmlns="http://www.w3.org/2000/svg">
<path d="M47.1758 16.0256C46.9637 9.41048 41.5481 4.11328 34.8989 4.11328C30.8372 4.11328 27.236 6.09002 24.9999 9.1361C22.7637 6.09002 19.1626 4.11328 15.1009 4.11328C8.45161 4.11328 3.0363 9.41048 2.82396 16.0256C2.81918 16.1597 2.81738 16.2943 2.81738 16.4292C2.81738 16.5645 2.81948 16.6991 2.82396 16.8332C3.02524 23.1052 7.9037 28.1922 14.0766 28.7032C13.3417 30.2161 12.9069 31.9025 12.8498 33.6844C12.845 33.8184 12.8432 33.953 12.8432 34.0883C12.8432 34.2235 12.8453 34.3582 12.8498 34.4922C13.0618 41.1073 18.4774 46.4045 25.1267 46.4045C31.7759 46.4045 37.1913 41.1073 37.4033 34.4922C37.4081 34.3582 37.4102 34.2235 37.4102 34.0883C37.4102 33.953 37.4081 33.8184 37.4033 33.6844C37.3459 31.8935 36.9068 30.1993 36.1654 28.6807C42.2231 28.0585 46.9769 23.0228 47.1755 16.8332C47.1803 16.6991 47.1821 16.5645 47.1821 16.4292C47.1824 16.294 47.1803 16.1594 47.1758 16.0256Z" fill="#4E536F"/>
<path d="M27.3844 14.3309C27.3844 14.4661 27.3823 14.6008 27.3778 14.7348C27.1658 21.35 21.7502 26.6472 15.1009 26.6472C8.45161 26.6472 3.0363 21.35 2.82396 14.7348C2.81918 14.6008 2.81738 14.4661 2.81738 14.3309C2.81738 14.1957 2.81948 14.061 2.82396 13.927C3.03601 7.31185 8.45161 2.01465 15.1009 2.01465C21.7502 2.01465 27.1655 7.31185 27.3778 13.927C27.3823 14.061 27.3844 14.1957 27.3844 14.3309Z" fill="#106EA0"/>
<path d="M24.7111 16.4198C25.9524 11.1545 22.7016 5.87713 17.4503 4.6325C12.199 3.38788 6.9357 6.64729 5.69438 11.9126C4.45306 17.1779 7.70381 22.4553 12.9551 23.6999C18.2064 24.9445 23.4697 21.6851 24.7111 16.4198Z" fill="#1CAEE4"/>
<path d="M14.196 18.6785L14.8004 15.7934L17.8546 13.6943L18.3367 11.3328L15.2819 13.4406L16.274 8.96387H13.9277L12.543 15.3307L11.2582 16.2171L10.8359 18.5189L12.0642 17.6745L11.4323 20.6984H19.9705L20.388 18.6785H14.196Z" fill="#009ADD"/>
<path d="M20.2392 18.3729L20.0684 19.1966C20.0107 19.4749 19.766 19.6743 19.4825 19.6743H12.1702C11.7993 19.6743 11.5212 19.3415 11.581 18.9816C11.581 18.9726 11.581 18.9606 11.584 18.9516L12.0655 16.6486L11.4285 17.0865C11.2096 17.2367 10.9183 17.0484 10.9649 16.7866L10.9799 16.7026L11.2132 15.4372C11.2431 15.2812 11.3328 15.1403 11.4614 15.0503L12.544 14.3067L13.8241 8.41123C13.8839 8.13654 14.1264 7.94043 14.407 7.94043H15.5288C15.7591 7.94043 15.9535 8.06938 16.0522 8.2493C16.118 8.36925 16.1449 8.51618 16.112 8.66312L15.2806 12.4145L17.724 10.7292C17.8556 10.6393 18.0111 10.6692 18.1038 10.7652C18.1726 10.8312 18.2085 10.9271 18.1875 11.0381L17.9034 12.4325C17.8735 12.5854 17.7838 12.7144 17.6582 12.8043L14.898 14.7004C14.8343 14.7442 14.7901 14.8107 14.7745 14.8863L14.3477 16.9296C14.27 17.3027 14.5538 17.6529 14.9336 17.6529H19.653C19.8863 17.6529 20.0807 17.7819 20.1794 17.9708C20.2452 18.088 20.2691 18.229 20.2392 18.3729Z" fill="white"/>
<path d="M20.239 18.3725L20.0685 19.1942L20.0189 19.4347C19.9902 19.5741 19.8679 19.674 19.7261 19.674H12.17C11.7992 19.674 11.5211 19.3411 11.5809 18.9813H19.7264C19.8682 18.9813 19.9905 18.8814 20.0192 18.7423L20.1792 17.9707C20.245 18.0877 20.2689 18.2286 20.239 18.3725Z" fill="#E6E7E8"/>
<path d="M18.1874 11.0375L17.9033 12.4319L17.8555 12.6688L17.6581 12.8038L14.8979 14.6998C14.8342 14.7436 14.79 14.8102 14.7744 14.8858L14.3473 16.93C14.2696 17.3018 14.5537 17.6527 14.9335 17.6527H14.4191C14.2307 17.6527 14.0871 17.4787 14.126 17.2898L14.7744 14.1931C14.7903 14.1175 14.8345 14.0509 14.8982 14.0071L17.7562 12.0445C17.8202 12.0007 17.8644 11.9335 17.88 11.8574L18.104 10.7646C18.1725 10.8306 18.2084 10.9266 18.1874 11.0375Z" fill="#E6E7E8"/>
<path d="M16.1119 8.66284L15.2805 12.4142L15.1011 12.5402L16.0521 8.24902C16.1179 8.36897 16.1448 8.51591 16.1119 8.66284Z" fill="#E6E7E8"/>
<path d="M12.0814 16.5707L12.0655 16.6477L11.4285 17.0856C11.2096 17.2358 10.9183 17.0475 10.9649 16.7857L10.9799 16.7017L11.6196 16.2624C11.8421 16.1098 12.1364 16.3065 12.0814 16.5707Z" fill="#E6E7E8"/>
<path d="M37.4101 31.9891C37.4101 32.1243 37.408 32.259 37.4032 32.393C37.1911 39.0082 31.7755 44.3054 25.1263 44.3054C18.477 44.3054 13.0617 39.0082 12.8494 32.393C12.8446 32.259 12.8428 32.1243 12.8428 31.9891C12.8428 31.8539 12.8449 31.7192 12.8494 31.5852C13.0614 24.9701 18.477 19.6729 25.1263 19.6729C31.7755 19.6729 37.1908 24.9701 37.4032 31.5852C37.408 31.7192 37.4101 31.8539 37.4101 31.9891Z" fill="#A62973"/>
<path d="M34.6324 34.0858C35.8738 28.8205 32.623 23.5431 27.3717 22.2985C22.1204 21.0539 16.8571 24.3133 15.6158 29.5786C14.3744 34.8439 17.6252 40.1213 22.8765 41.3659C28.1278 42.6105 33.3911 39.3511 34.6324 34.0858Z" fill="#EF6EA8"/>
<path d="M33.6982 33.8638C34.8176 29.1158 31.8862 24.3569 27.1508 23.2345C22.4154 22.1121 17.6691 25.0513 16.5497 29.7994C15.4304 34.5474 18.3618 39.3063 23.0972 40.4287C27.8326 41.551 32.5789 38.6118 33.6982 33.8638Z" fill="#EE5A9C"/>
<path d="M29.6525 32.3637L25.4436 25.4886C25.3509 25.3371 25.1317 25.3371 25.0393 25.4886L20.8305 32.3637C20.7617 32.4764 20.7973 32.6237 20.91 32.6917L25.1188 35.2358C25.1942 35.2814 25.2884 35.2814 25.3638 35.2358L29.5726 32.6917C29.6857 32.6237 29.7216 32.4764 29.6525 32.3637Z" fill="#E43D91"/>
<path d="M29.4516 33.7868L25.366 36.3036C25.2897 36.3504 25.1937 36.3504 25.1174 36.3036L21.0318 33.7868C20.9585 33.7419 20.8763 33.8297 20.9256 33.9002L25.0474 39.7821C25.1419 39.9171 25.3411 39.9171 25.4356 39.7821L29.5575 33.9002C29.6071 33.8294 29.5249 33.7416 29.4516 33.7868Z" fill="#E43D91"/>
<path d="M29.6525 31.6467L25.4436 24.7716C25.3509 24.6204 25.1317 24.6204 25.0393 24.7716L20.8305 31.6467C20.7617 31.7594 20.7973 31.9067 20.91 31.9747L25.1188 34.5188C25.1942 34.5644 25.2884 34.5644 25.3638 34.5188L29.5726 31.9747C29.6857 31.9067 29.7216 31.7594 29.6525 31.6467Z" fill="white"/>
<path d="M29.4516 33.07L25.366 35.5865C25.2897 35.6333 25.1937 35.6333 25.1174 35.5865L21.0318 33.07C20.9585 33.0251 20.8763 33.1126 20.9256 33.1831L25.0474 39.0647C25.1419 39.1997 25.3411 39.1997 25.4356 39.0647L29.5575 33.1831C29.6071 33.1126 29.5249 33.0248 29.4516 33.07Z" fill="white"/>
<path d="M29.3318 31.1221L25.3643 33.5201C25.2889 33.5657 25.1947 33.5657 25.1193 33.5201L21.1518 31.1221L20.8309 31.6462C20.7622 31.759 20.7977 31.9062 20.9105 31.9743L25.1193 34.5184C25.1947 34.564 25.2889 34.564 25.3643 34.5184L29.5731 31.9743C29.6859 31.9059 29.7218 31.7587 29.653 31.6462L29.3318 31.1221Z" fill="#E6E7E8"/>
<path d="M29.4513 33.07L28.5469 33.6272L25.4356 38.0668C25.3411 38.2017 25.1419 38.2017 25.0474 38.0668L21.9362 33.6272L21.0318 33.07C20.9585 33.0251 20.8763 33.1129 20.9256 33.1831L25.0474 39.0647C25.1419 39.1997 25.3411 39.1997 25.4356 39.0647L29.5574 33.1831C29.6068 33.1126 29.5245 33.0248 29.4513 33.07Z" fill="#E6E7E8"/>
<path d="M34.6587 29.6431C33.6751 25.2746 29.7808 22.0117 25.1264 22.0117C24.6018 22.0117 24.0871 22.0534 23.585 22.1332C25.4225 26.4789 29.6777 29.5475 34.6587 29.6431Z" fill="#E43D91"/>
<path d="M25.0752 24.7259C25.4284 25.1967 25.8142 25.6411 26.2296 26.0561L25.4433 24.7718C25.3614 24.6374 25.1802 24.6224 25.0752 24.7259Z" fill="#D1D3D4"/>
<path d="M22.8824 19.8819C23.6104 19.747 24.3595 19.6735 25.1264 19.6735C25.47 19.6735 25.8094 19.6912 26.1459 19.7188C26.1462 19.7182 26.1465 19.7179 26.1465 19.7173C26.2362 19.5328 26.3211 19.3454 26.4019 19.1556C26.4061 19.146 26.41 19.1364 26.4142 19.1268C26.4898 18.9475 26.5613 18.7661 26.6286 18.5829C26.6361 18.5628 26.6432 18.5427 26.6507 18.5223C26.7129 18.3505 26.771 18.1768 26.8257 18.0014C26.8356 17.9699 26.8454 17.9384 26.855 17.9066C26.9046 17.7429 26.9501 17.5774 26.9932 17.411C27.0042 17.3684 27.0156 17.3261 27.0264 17.2832C27.0649 17.127 27.099 16.9687 27.1316 16.81C27.1424 16.7575 27.1541 16.706 27.1642 16.6532C27.1932 16.5015 27.2175 16.3479 27.2411 16.1944C27.2501 16.1356 27.2605 16.0771 27.2686 16.0181C27.2898 15.863 27.306 15.7068 27.3215 15.55C27.3272 15.4924 27.335 15.4357 27.3398 15.3778C27.3577 15.1646 27.3709 14.9502 27.3778 14.734C27.3826 14.6 27.3844 14.4653 27.3844 14.3301C27.3844 14.3259 27.3841 14.3217 27.3841 14.3172C27.3838 14.1862 27.382 14.056 27.3775 13.9262C27.3703 13.7061 27.3568 13.4875 27.3383 13.2707C27.3326 13.202 27.3233 13.1345 27.3165 13.0662C27.3012 12.918 27.2857 12.7699 27.2653 12.6232C27.2543 12.5441 27.2408 12.4658 27.2282 12.3872C27.207 12.2523 27.1846 12.1174 27.1591 11.9842C27.1436 11.9036 27.1262 11.8235 27.1092 11.7437C27.0814 11.613 27.0518 11.4825 27.0198 11.3533C27.0003 11.275 26.9803 11.1974 26.9594 11.1197C26.9241 10.9887 26.8867 10.8585 26.8472 10.7293C26.8251 10.6564 26.803 10.5835 26.7793 10.5113C26.7354 10.376 26.6881 10.242 26.6397 10.1085C26.6166 10.045 26.5942 9.98079 26.57 9.91782C26.5132 9.76968 26.4527 9.62365 26.3905 9.47851C26.3708 9.43203 26.3523 9.38495 26.3316 9.33877C26.2476 9.14895 26.1594 8.96093 26.066 8.77621C26.0657 8.77561 26.0654 8.77501 26.0651 8.77441C24.0171 10.9002 22.723 13.7609 22.6213 16.9252C22.6165 17.0592 22.6147 17.1939 22.6147 17.3288C22.6147 17.464 22.6168 17.5987 22.6213 17.7327C22.6455 18.4683 22.7359 19.1856 22.8824 19.8819Z" fill="#136DA0"/>
<path d="M47.1822 14.3309C47.1822 14.4661 47.1801 14.6008 47.1756 14.7348C46.9636 21.35 41.548 26.6472 34.8987 26.6472C28.2495 26.6472 22.8342 21.35 22.6218 14.7348C22.617 14.6008 22.6152 14.4661 22.6152 14.3309C22.6152 14.1957 22.6173 14.061 22.6218 13.927C22.8339 7.31185 28.2495 2.01465 34.8987 2.01465C41.548 2.01465 46.9633 7.31185 47.1756 13.927C47.1801 14.061 47.1822 14.1957 47.1822 14.3309Z" fill="#E7AD27"/>
<path d="M44.4113 16.4256C45.6526 11.1603 42.4018 5.88299 37.1505 4.63836C31.8992 3.39373 26.6359 6.65314 25.3946 11.9185C24.1533 17.1838 27.404 22.4611 32.6553 23.7057C37.9066 24.9504 43.1699 21.691 44.4113 16.4256Z" fill="#FEDE3A"/>
<path d="M38.9899 16.1871C38.8639 15.8782 38.6869 15.5975 38.4635 15.3525C38.3292 15.2059 38.18 15.0737 38.017 14.957C38.1055 14.8721 38.1868 14.781 38.2604 14.6832C38.4348 14.4517 38.5673 14.1857 38.6546 13.8919C38.7377 13.6115 38.7799 13.3104 38.7799 12.9974C38.7799 12.5197 38.6935 12.092 38.5227 11.7268C38.3474 11.3514 38.0923 11.0362 37.7646 10.7903C37.452 10.5558 37.0728 10.3819 36.6371 10.2733C36.4779 10.2338 36.3111 10.202 36.1373 10.1777V9.13413C36.1373 8.71821 35.8008 8.38086 35.386 8.38086C34.9712 8.38086 34.6348 8.71791 34.6348 9.13413V10.121H33.8533V9.13413C33.8533 8.71821 33.5168 8.38086 33.102 8.38086C32.6872 8.38086 32.3508 8.71791 32.3508 9.13413V10.121H31.3665C30.9517 10.121 30.6152 10.4584 30.6152 10.8743C30.6152 11.2902 30.9517 11.6276 31.3665 11.6276H32.3508V18.724H31.3665C30.9517 18.724 30.6152 19.061 30.6152 19.4772C30.6152 19.8932 30.9517 20.2305 31.3665 20.2305H32.3508V21.2174C32.3508 21.6333 32.6869 21.9707 33.102 21.9707C33.5171 21.9707 33.8533 21.6336 33.8533 21.2174V20.2305H34.6348V21.2174C34.6348 21.6333 34.9712 21.9707 35.386 21.9707C35.8008 21.9707 36.1373 21.6336 36.1373 21.2174V20.2212C36.4899 20.2002 36.824 20.1412 37.1329 20.044C37.5459 19.9141 37.9087 19.7168 38.2111 19.4568C38.52 19.1915 38.7626 18.861 38.9321 18.4745C39.099 18.0942 39.1837 17.6594 39.1837 17.1823C39.1834 16.8372 39.1182 16.5025 38.9899 16.1871ZM34.6342 11.6278H35.2802C36.0006 11.6278 36.5318 11.7511 36.859 11.994C37.0357 12.1253 37.2705 12.3694 37.2705 12.9731C37.2705 13.6688 36.9798 13.8895 36.8844 13.962C36.5784 14.1944 36.0799 14.3123 35.4022 14.3123H33.8524V11.6278H34.6342ZM37.5597 17.857C37.4822 18.0391 37.3761 18.1869 37.2352 18.3086C37.0881 18.4358 36.9005 18.5365 36.6777 18.6079C36.4373 18.685 36.1564 18.7243 35.8433 18.7243H34.6342H33.8527V15.8188H35.9043C36.2294 15.8188 36.5105 15.8614 36.7402 15.9457C36.9615 16.0269 37.1431 16.1328 37.2807 16.2605C37.4155 16.3859 37.513 16.5238 37.5788 16.6819C37.6473 16.8465 37.6805 17.0141 37.6805 17.1949C37.6808 17.445 37.6401 17.6678 37.5597 17.857Z" fill="#E7AD27"/>
<path d="M38.9899 15.1627C38.8639 14.8538 38.6869 14.5731 38.4635 14.3281C38.3292 14.1815 38.18 14.0492 38.017 13.9329C38.1055 13.848 38.1868 13.7566 38.2604 13.6588C38.4348 13.4273 38.5673 13.1613 38.6546 12.8675C38.7377 12.5871 38.7799 12.286 38.7799 11.9729C38.7799 11.4952 38.6935 11.0676 38.5227 10.7024C38.3474 10.327 38.0923 10.0118 37.7646 9.7659C37.452 9.5314 37.0728 9.35778 36.6371 9.24893C36.4779 9.20934 36.3111 9.17756 36.1373 9.15327V8.10972C36.1373 7.6938 35.8008 7.35645 35.386 7.35645C34.9712 7.35645 34.6348 7.6938 34.6348 8.10972V9.09659H33.8533V8.10972C33.8533 7.6938 33.5168 7.35645 33.102 7.35645C32.6872 7.35645 32.3508 7.6938 32.3508 8.10972V9.09659H31.3665C30.9517 9.09659 30.6152 9.43394 30.6152 9.84986C30.6152 10.2658 30.9517 10.6031 31.3665 10.6031H32.3508V17.6996H31.3665C30.9517 17.6996 30.6152 18.0369 30.6152 18.4528C30.6152 18.8687 30.9517 19.2061 31.3665 19.2061H32.3508V20.193C32.3508 20.6089 32.6869 20.9462 33.102 20.9462C33.5171 20.9462 33.8533 20.6089 33.8533 20.193V19.2061H34.6348V20.193C34.6348 20.6089 34.9712 20.9462 35.386 20.9462C35.8008 20.9462 36.1373 20.6089 36.1373 20.193V19.1968C36.4899 19.1758 36.824 19.1167 37.1329 19.0196C37.5459 18.8897 37.9087 18.6924 38.2111 18.4324C38.52 18.1671 38.7626 17.8363 38.9321 17.4498C39.099 17.0695 39.1837 16.6347 39.1837 16.1579C39.1834 15.8125 39.1182 15.4778 38.9899 15.1627ZM34.6342 10.6031H35.2802C36.0006 10.6031 36.5318 10.7264 36.859 10.9693C37.0357 11.1006 37.2705 11.3447 37.2705 11.9484C37.2705 12.6444 36.9798 12.8648 36.8844 12.9373C36.5784 13.1697 36.0799 13.2876 35.4022 13.2876H33.8524V10.6031H34.6342ZM37.5597 16.8323C37.4822 17.0144 37.3761 17.1622 37.2352 17.2839C37.0881 17.4111 36.9005 17.5118 36.6777 17.5832C36.4373 17.6603 36.1564 17.6996 35.8433 17.6996H34.6342H33.8527V14.7941H35.9043C36.2294 14.7941 36.5105 14.8367 36.7402 14.921C36.9615 15.0022 37.1431 15.1081 37.2807 15.2358C37.4155 15.3612 37.513 15.4991 37.5788 15.6571C37.6473 15.8218 37.6805 15.9894 37.6805 16.1702C37.6808 16.4203 37.6401 16.6431 37.5597 16.8323Z" fill="white"/>
<path d="M32.3505 18.7962H31.3662C31.0223 18.7962 30.7331 18.5641 30.6439 18.248C30.6257 18.3131 30.6152 18.3818 30.6152 18.4529C30.6152 18.8688 30.9517 19.2061 31.3665 19.2061H32.3508V18.7962H32.3505Z" fill="#E6E7E8"/>
<path d="M38.2603 13.2495C38.1864 13.3473 37.7949 13.7422 37.7949 13.7422L38.0168 13.9332C38.0168 13.9332 38.2513 13.6711 38.2603 13.6591C38.4346 13.4279 38.5671 13.1617 38.6545 12.8678C38.7376 12.5874 38.7798 12.2863 38.7798 11.9733C38.7798 11.9007 38.7771 11.8299 38.7732 11.7598C38.7591 12.0027 38.7203 12.2369 38.6548 12.4582C38.5671 12.752 38.4346 13.018 38.2603 13.2495Z" fill="#E6E7E8"/>
<path d="M33.853 10.1943V10.604H34.6342H35.2802C36.0007 10.604 36.5318 10.7272 36.859 10.9701C37.0142 11.0856 37.2146 11.2886 37.2607 11.7456C37.2666 11.6817 37.2705 11.6139 37.2705 11.5396C37.2705 10.9359 37.0355 10.6918 36.859 10.5605C36.5318 10.3176 36.0007 10.1943 35.2802 10.1943H34.6342H33.853Z" fill="#E6E7E8"/>
<path d="M37.5792 15.2478C37.5134 15.0898 37.4159 14.9518 37.281 14.8265C37.1434 14.6987 36.9619 14.5929 36.7406 14.5116C36.5109 14.4273 36.2295 14.3848 35.9047 14.3848H33.853V14.7944H35.9047C36.2298 14.7944 36.5109 14.837 36.7406 14.9212C36.9619 15.0025 37.1434 15.1084 37.281 15.2361C37.4159 15.3614 37.5134 15.4994 37.5792 15.6574C37.624 15.7651 37.6521 15.8742 37.6674 15.9876C37.6755 15.9144 37.6809 15.8394 37.6809 15.7609C37.6809 15.58 37.6477 15.4124 37.5792 15.2478Z" fill="#E6E7E8"/>
<path d="M31.3662 10.6036H32.3505V10.194H31.3662C31.0223 10.194 30.7331 9.96187 30.6439 9.64551C30.6257 9.71058 30.6152 9.77925 30.6152 9.85032C30.6149 10.2665 30.9514 10.6036 31.3662 10.6036Z" fill="#E6E7E8"/>
<path d="M35.3851 20.5375C34.9702 20.5375 34.6338 20.2004 34.6338 19.7842V20.1938C34.6338 20.61 34.9702 20.9471 35.3851 20.9471C35.7999 20.9471 36.1363 20.61 36.1363 20.1938V19.7842C36.1363 20.2004 35.7999 20.5375 35.3851 20.5375Z" fill="#E6E7E8"/>
<path d="M33.1019 20.5375C32.687 20.5375 32.3506 20.2004 32.3506 19.7842V20.1938C32.3506 20.61 32.6867 20.9471 33.1019 20.9471C33.5167 20.9471 33.8531 20.61 33.8531 20.1938V19.7842C33.8531 20.2004 33.5167 20.5375 33.1019 20.5375Z" fill="#E6E7E8"/>
<path d="M38.932 17.0407C38.7625 17.4272 38.5199 17.7577 38.211 18.0231C37.9083 18.2831 37.5455 18.4807 37.1328 18.6102C36.8236 18.7074 36.4898 18.7662 36.1372 18.7875V19.1971C36.4898 19.1761 36.8239 19.117 37.1328 19.0199C37.5458 18.89 37.9086 18.6927 38.211 18.4327C38.5199 18.1673 38.7625 17.8366 38.932 17.4503C39.0989 17.0698 39.1836 16.6353 39.1836 16.1582C39.1836 16.0958 39.1806 16.0335 39.1764 15.9717C39.1536 16.3615 39.0723 16.7205 38.932 17.0407Z" fill="#E6E7E8"/>
<path d="M34.6342 18.7969H33.853V18.7972V19.2068H34.6342V18.7969Z" fill="#E6E7E8"/>
</svg>
