<svg width="42" height="42" viewBox="0 0 42 42" fill="none" xmlns="http://www.w3.org/2000/svg">
<g clip-path="url(#clip0_2309_7442)">
<path d="M36.7431 5.5951C32.1165 5.5951 27.6312 4.00099 24.0423 1.08125C22.2703 -0.360418 19.7297 -0.360418 17.9577 1.08125C14.3688 4.00108 9.88348 5.5951 5.25697 5.5951C3.81225 5.5951 2.64111 6.76624 2.64111 8.21096V15.2218C2.64111 24.2157 6.69098 32.7315 13.6677 38.4075L15.821 40.1593C18.8376 42.6136 23.1626 42.6136 26.1793 40.1593L28.3326 38.4075C35.3092 32.7315 39.3592 24.2153 39.3592 15.2215C39.3592 12.5299 39.3592 10.0004 39.3592 8.21038C39.3589 6.76566 38.1878 5.5951 36.7431 5.5951Z" fill="url(#paint0_linear_2309_7442)"/>
<path d="M20.9999 39.692C20.4956 39.692 20.0023 39.5166 19.611 39.1983L15.4926 35.8477C12.4845 33.4004 10.0141 30.2556 8.34859 26.7536C6.68309 23.2515 5.80273 19.3506 5.80273 15.4727V9.90911C5.80273 9.23604 6.35302 8.66368 7.02518 8.62819C11.6087 8.38583 16.0399 6.68614 19.611 3.78073C20.0024 3.46236 20.4956 3.28711 20.9999 3.28711C21.5043 3.28711 21.9975 3.46236 22.3888 3.78065C25.9601 6.68614 30.3913 8.38583 34.9749 8.62819C35.6469 8.66368 36.1971 9.23596 36.1971 9.90894V15.4724C36.1971 19.3504 35.3167 23.2513 33.6512 26.7534C31.9857 30.2556 29.5154 33.4004 26.5073 35.8477L22.3888 39.1983C21.9975 39.5167 21.5043 39.692 20.9999 39.692Z" fill="url(#paint1_linear_2309_7442)"/>
<path d="M21.0001 38.1561C20.5383 38.1561 20.0867 37.9956 19.7284 37.7041L15.9576 34.6363C13.2033 32.3955 10.9414 29.5161 9.41645 26.3096C7.89152 23.1031 7.08545 19.5314 7.08545 15.9807V10.8866C7.08545 10.2703 7.58928 9.7463 8.20471 9.71369C12.4014 9.49175 16.4587 7.93553 19.7284 5.27528C20.0868 4.98383 20.5384 4.82324 21.0001 4.82324C21.462 4.82324 21.9136 4.98375 22.2717 5.2752C25.5417 7.93553 29.599 9.49175 33.7957 9.71369C34.4111 9.74622 34.9148 10.2701 34.9148 10.8863V15.9803C34.9148 19.531 34.1088 23.1027 32.5838 26.3094C31.0589 29.516 28.797 32.3954 26.0427 34.6362L22.2717 37.7041C21.9136 37.9956 21.462 38.1561 21.0001 38.1561Z" fill="url(#paint2_linear_2309_7442)"/>
<path d="M39.3589 8.21042C39.3589 6.7657 38.1878 5.59514 36.7431 5.59514C32.1165 5.59514 27.6312 4.00103 24.0423 1.08129C23.1562 0.360459 22.0782 0 21 0V42C22.8354 42 24.6708 41.3865 26.1792 40.1593L28.3325 38.4075C35.3091 32.7316 39.3589 24.2154 39.359 15.2215C39.3589 12.5298 39.3589 10.0004 39.3589 8.21042Z" fill="url(#paint3_linear_2309_7442)"/>
<path d="M34.7057 12.2218C33.8829 11.399 32.549 11.5677 31.7262 12.3904L21.461 22.6555C21.3609 22.7556 21.0781 22.9453 21 22.9453C20.922 22.9453 20.8078 22.9243 20.7077 22.8241L16.7729 18.8893C15.9501 18.0666 14.7005 18.0666 13.8777 18.8893C13.0549 19.7121 12.9706 20.8774 13.7933 21.7002L29.4994 37.4062C35.357 32.1181 38.8861 24.724 39.3145 16.8464L34.7057 12.2218Z" fill="url(#paint4_linear_2309_7442)"/>
<path d="M28.3323 38.4076C33.312 34.3563 36.8 28.8578 38.3892 22.7717L28.8951 13.2777C26.9137 11.185 24.1094 10.0479 21 10.0479C15.0756 10.0478 10.2973 14.8261 10.2974 20.7505C10.2974 23.86 11.4345 26.6642 13.5273 28.6456L24.938 40.0563C25.2866 40.4049 25.8425 40.4334 26.2249 40.1222L28.3323 38.4076Z" fill="url(#paint5_linear_2309_7442)"/>
<path d="M21.0001 31.6212C27.0041 31.6212 31.8712 26.7541 31.8712 20.7501C31.8712 14.7461 27.0041 9.87891 21.0001 9.87891C14.9961 9.87891 10.1289 14.7461 10.1289 20.7501C10.1289 26.7541 14.9961 31.6212 21.0001 31.6212Z" fill="url(#paint6_linear_2309_7442)"/>
<path d="M29.7788 14.3379L21.461 22.6556C21.3609 22.7557 21.0781 22.9453 21 22.9453C20.922 22.9453 20.8078 22.9243 20.7077 22.8242L16.7729 18.8894C15.9501 18.0667 14.7005 18.0667 13.8777 18.8894C13.0549 19.7122 12.9706 20.8775 13.7933 21.7002L23.4393 31.3462C28.2688 30.239 31.8712 25.9153 31.8712 20.75C31.8712 18.3519 31.094 16.1356 29.7788 14.3379Z" fill="url(#paint7_linear_2309_7442)"/>
<path d="M21.0001 26.99C19.7641 26.99 18.6021 26.5087 17.7282 25.6347L13.7934 21.7C12.9706 20.8772 12.9706 19.5433 13.7934 18.7205C14.6161 17.8978 15.95 17.8978 16.7729 18.7205L20.7077 22.6553C20.8079 22.7554 20.922 22.7764 21.0001 22.7764C21.0781 22.7764 21.1923 22.7554 21.2924 22.6553L31.7262 12.2215C32.549 11.3988 33.883 11.3988 34.7057 12.2215C35.5285 13.0443 35.5285 14.3783 34.7057 15.201L24.272 25.6347C23.398 26.5087 22.236 26.99 21.0001 26.99Z" fill="url(#paint8_linear_2309_7442)"/>
</g>
<defs>
<linearGradient id="paint0_linear_2309_7442" x1="5.61784" y1="1.98277" x2="37.2797" y2="33.6447" gradientUnits="userSpaceOnUse">
<stop stop-color="#B5DBFF"/>
<stop offset="1" stop-color="#76E2F8"/>
</linearGradient>
<linearGradient id="paint1_linear_2309_7442" x1="41.6598" y1="38.5289" x2="13.6456" y2="10.5147" gradientUnits="userSpaceOnUse">
<stop stop-color="#B5DBFF" stop-opacity="0"/>
<stop offset="0.2428" stop-color="#93CEF6" stop-opacity="0.243"/>
<stop offset="0.5763" stop-color="#6ABFEC" stop-opacity="0.576"/>
<stop offset="0.8403" stop-color="#51B5E5" stop-opacity="0.84"/>
<stop offset="1" stop-color="#48B2E3"/>
</linearGradient>
<linearGradient id="paint2_linear_2309_7442" x1="15.5837" y1="12.7582" x2="27.8897" y2="25.0642" gradientUnits="userSpaceOnUse">
<stop stop-color="#EDF5FF"/>
<stop offset="1" stop-color="#D5E8FE"/>
</linearGradient>
<linearGradient id="paint3_linear_2309_7442" x1="24.8157" y1="21.7075" x2="-0.466028" y2="9.5723" gradientUnits="userSpaceOnUse">
<stop stop-color="#B5DBFF" stop-opacity="0"/>
<stop offset="0.1734" stop-color="#8FC5E9" stop-opacity="0.173"/>
<stop offset="0.4541" stop-color="#56A4C8" stop-opacity="0.454"/>
<stop offset="0.6955" stop-color="#2D8DB1" stop-opacity="0.696"/>
<stop offset="0.8853" stop-color="#147EA2" stop-opacity="0.885"/>
<stop offset="1" stop-color="#0B799D"/>
</linearGradient>
<linearGradient id="paint4_linear_2309_7442" x1="34.4872" y1="26.6148" x2="25.8352" y2="20.0415" gradientUnits="userSpaceOnUse">
<stop stop-color="#B5DBFF" stop-opacity="0"/>
<stop offset="0.1734" stop-color="#8FC5E9" stop-opacity="0.173"/>
<stop offset="0.4541" stop-color="#56A4C8" stop-opacity="0.454"/>
<stop offset="0.6955" stop-color="#2D8DB1" stop-opacity="0.696"/>
<stop offset="0.8853" stop-color="#147EA2" stop-opacity="0.885"/>
<stop offset="1" stop-color="#0B799D"/>
</linearGradient>
<linearGradient id="paint5_linear_2309_7442" x1="33.0305" y1="32.781" x2="18.6106" y2="18.3611" gradientUnits="userSpaceOnUse">
<stop stop-color="#B5DBFF" stop-opacity="0"/>
<stop offset="0.1734" stop-color="#8FC5E9" stop-opacity="0.173"/>
<stop offset="0.4541" stop-color="#56A4C8" stop-opacity="0.454"/>
<stop offset="0.6955" stop-color="#2D8DB1" stop-opacity="0.696"/>
<stop offset="0.8853" stop-color="#147EA2" stop-opacity="0.885"/>
<stop offset="1" stop-color="#0B799D"/>
</linearGradient>
<linearGradient id="paint6_linear_2309_7442" x1="15.9437" y1="15.6938" x2="26.422" y2="26.172" gradientUnits="userSpaceOnUse">
<stop stop-color="#B9DD39"/>
<stop offset="1" stop-color="#90CC1C"/>
</linearGradient>
<linearGradient id="paint7_linear_2309_7442" x1="30.8812" y1="27.1143" x2="26.9849" y2="23.2178" gradientUnits="userSpaceOnUse">
<stop stop-color="#66BB00" stop-opacity="0"/>
<stop offset="1" stop-color="#66BB00"/>
</linearGradient>
<linearGradient id="paint8_linear_2309_7442" x1="20.0433" y1="12.7544" x2="30.896" y2="23.6071" gradientUnits="userSpaceOnUse">
<stop stop-color="#0B799D"/>
<stop offset="1" stop-color="#07485E"/>
</linearGradient>
<clipPath id="clip0_2309_7442">
<rect width="42" height="42" fill="white"/>
</clipPath>
</defs>
</svg>
