<svg width="54" height="54" viewBox="0 0 54 54" fill="none" xmlns="http://www.w3.org/2000/svg">
<path d="M47.362 40.9218C47.7989 40.9218 48.153 40.5676 48.153 40.1308V21.1464C48.153 20.2022 47.7851 19.2364 47.1169 18.427L41.2504 11.319C40.9431 10.9466 40.5898 10.6327 40.2061 10.3828C40.2296 10.141 40.243 9.89687 40.243 9.65039V0.791016C40.243 0.354164 39.8888 0 39.452 0C39.0151 0 38.661 0.354164 38.661 0.791016C38.661 0.791016 38.6594 9.7258 38.6587 9.76356C38.4337 9.72369 38.2052 9.70312 37.9754 9.70312H27.7449C27.0247 9.70312 26.3187 9.9052 25.6866 10.2766C25.6593 10.2864 25.6322 10.2973 25.6056 10.3103L17.8947 14.0663C17.0404 14.4948 16.3573 15.2136 15.9709 16.0901C15.9667 16.0997 15.9627 16.1093 15.9589 16.119L12.7708 24.2055C12.6106 24.612 12.8101 25.0713 13.2166 25.2316C13.3119 25.2692 13.4099 25.2869 13.5066 25.2869C13.8219 25.2869 14.12 25.0969 14.2426 24.7858L17.4245 16.7149C17.6638 16.1803 18.0822 15.7423 18.5957 15.4845L22.6698 13.5001L18.6033 18.4271C17.9945 19.1647 17.6727 20.1052 17.6727 21.1466V48.463C17.6727 48.7811 17.7006 49.0925 17.7514 49.3961L9.60052 45.7844C7.75924 44.9686 6.92477 42.8015 7.74068 40.9537C7.74416 40.9457 7.74754 40.9376 7.75091 40.9296L12.9065 28.1168C13.0696 27.7115 12.8733 27.2508 12.468 27.0876C12.0625 26.9246 11.602 27.121 11.4388 27.5262L6.28774 40.327C5.12949 42.969 6.32592 46.0637 8.95958 47.2306L18.5176 51.4658C18.5293 51.471 18.5412 51.4748 18.553 51.4793C19.5231 52.9951 21.2003 53.9999 23.1043 53.9999H42.616C45.6175 53.9999 48.1531 51.4642 48.1531 48.4628V43.8222C48.1531 43.3853 47.799 43.0311 47.3621 43.0311C46.9253 43.0311 46.5711 43.3853 46.5711 43.8222V48.4628C46.5711 50.6066 44.7599 52.4179 42.616 52.4179H23.1043C20.9816 52.4179 19.2547 50.6437 19.2547 48.4628V21.1464C19.2547 20.4674 19.446 19.8912 19.8235 19.434L25.69 12.326C26.236 11.6645 26.985 11.2851 27.7449 11.2851H37.9754C38.1244 11.2851 38.2729 11.3001 38.4196 11.3286C37.9245 13.0173 36.6979 14.4263 35.0415 15.1324C34.6083 14.408 33.8165 13.9218 32.9128 13.9218C31.5461 13.9218 30.4343 15.0336 30.4343 16.4003C30.4343 17.7669 31.5461 18.8788 32.9128 18.8788C34.1766 18.8788 35.2218 17.9277 35.3721 16.7037C37.5025 15.8979 39.1134 14.1906 39.8311 12.1067C39.9 12.1759 39.9667 12.2488 40.0304 12.326L45.8968 19.4341C46.3316 19.9608 46.5711 20.5689 46.5711 21.1465V40.1309C46.571 40.5676 46.9252 40.9218 47.362 40.9218ZM32.9128 17.2968C32.4185 17.2968 32.0163 16.8946 32.0163 16.4003C32.0163 15.906 32.4185 15.5038 32.9128 15.5038C33.4071 15.5038 33.8093 15.906 33.8093 16.4003C33.8093 16.8946 33.4071 17.2968 32.9128 17.2968Z" fill="url(#paint0_linear_2326_8775)"/>
<path d="M26.057 42.082C26.2594 42.082 26.4619 42.0048 26.6163 41.8503L40.1163 28.3503C40.4252 28.0414 40.4252 27.5405 40.1163 27.2317C39.8074 26.9228 39.3065 26.9228 38.9977 27.2317L25.4977 40.7317C24.9933 41.2018 25.3803 42.1059 26.057 42.082Z" fill="url(#paint1_linear_2326_8775)"/>
<path d="M27.7441 33.75C29.6341 33.75 31.1719 32.2123 31.1719 30.3223C31.1719 28.4323 29.6341 26.8945 27.7441 26.8945H27.6387C25.7487 26.8945 24.2109 28.4323 24.2109 30.3223C24.2109 32.2123 25.7487 33.75 27.6387 33.75H27.7441ZM25.793 30.3223C25.793 29.3046 26.621 28.4766 27.6387 28.4766H27.7441C28.7618 28.4766 29.5898 29.3046 29.5898 30.3223C29.5898 31.3399 28.7618 32.168 27.7441 32.168H27.6387C26.621 32.168 25.793 31.3399 25.793 30.3223Z" fill="url(#paint2_linear_2326_8775)"/>
<path d="M37.9746 42.082H38.0801C39.9701 42.082 41.5078 40.5443 41.5078 38.6543C41.5078 36.7643 39.9701 35.2266 38.0801 35.2266H37.9746C36.0846 35.2266 34.5469 36.7643 34.5469 38.6543C34.5469 40.5443 36.0846 42.082 37.9746 42.082ZM37.9746 36.8086H38.0801C39.0977 36.8086 39.9258 37.6366 39.9258 38.6543C39.9258 39.672 39.0977 40.5 38.0801 40.5H37.9746C36.9569 40.5 36.1289 39.672 36.1289 38.6543C36.1289 37.6366 36.9569 36.8086 37.9746 36.8086Z" fill="url(#paint3_linear_2326_8775)"/>
<defs>
<linearGradient id="paint0_linear_2326_8775" x1="5.8457" y1="36.6101" x2="47.6258" y2="36.0562" gradientUnits="userSpaceOnUse">
<stop stop-color="#679FEF"/>
<stop offset="1" stop-color="#A87FFF"/>
</linearGradient>
<linearGradient id="paint1_linear_2326_8775" x1="25.2676" y1="37.2254" x2="40.1584" y2="36.9735" gradientUnits="userSpaceOnUse">
<stop stop-color="#679FEF"/>
<stop offset="1" stop-color="#A87FFF"/>
</linearGradient>
<linearGradient id="paint2_linear_2326_8775" x1="24.2109" y1="31.5423" x2="31.0843" y2="31.4242" gradientUnits="userSpaceOnUse">
<stop stop-color="#679FEF"/>
<stop offset="1" stop-color="#A87FFF"/>
</linearGradient>
<linearGradient id="paint3_linear_2326_8775" x1="34.5469" y1="39.8743" x2="41.4202" y2="39.7562" gradientUnits="userSpaceOnUse">
<stop stop-color="#679FEF"/>
<stop offset="1" stop-color="#A87FFF"/>
</linearGradient>
</defs>
</svg>
