<svg width="24" height="24" viewBox="0 0 24 24" fill="none" xmlns="http://www.w3.org/2000/svg">
<path d="M21.9227 23.3708H2.07723C1.32781 23.3708 0.656002 22.9837 0.280192 22.3353C-0.0879278 21.7002 -0.0935551 20.951 0.264717 20.2797L10.1875 1.69209C10.5429 1.02647 11.2204 0.629089 12 0.629089C12.7795 0.629089 13.4571 1.02647 13.8124 1.69209L23.7352 20.2796C24.0936 20.9509 24.0879 21.7002 23.7197 22.3353C23.344 22.9837 22.6722 23.3708 21.9227 23.3708Z" fill="#EF5151"/>
<path d="M23.7352 20.2796L13.8124 1.69209C13.4571 1.02647 12.7795 0.629089 12 0.629089V23.3708H21.9227C22.6722 23.3708 23.344 22.9837 23.7197 22.3353C24.0879 21.7002 24.0935 20.9509 23.7352 20.2796Z" fill="#EF5151"/>
<path d="M12 20.3236C10.9657 20.3236 10.1242 19.4822 10.1242 18.4479C10.1242 17.4136 10.9657 16.5721 12 16.5721C13.0343 16.5721 13.8758 17.4136 13.8758 18.4479C13.8758 19.4822 13.0343 20.3236 12 20.3236Z" fill="#FFF3F3"/>
<path d="M12.0001 14.6963C10.9657 14.6963 10.1242 13.8548 10.1242 12.8205V8.76414C10.1242 7.72984 10.9657 6.88837 12 6.88837C13.0343 6.88837 13.8758 7.72984 13.8758 8.76414V12.8205C13.8758 13.8548 13.0344 14.6963 12.0001 14.6963Z" fill="#FFF3F3"/>
<path d="M12 6.88837H12V14.6963H12.0001C13.0344 14.6963 13.8758 13.8548 13.8758 12.8205V8.76414C13.8758 7.72989 13.0343 6.88837 12 6.88837Z" fill="#FFF3F3"/>
<path d="M12 16.5721H12V20.3236H12C13.0343 20.3236 13.8758 19.4822 13.8758 18.4479C13.8758 17.4136 13.0343 16.5721 12 16.5721Z" fill="#FFF3F3"/>
</svg>
