<svg width="9" height="9" viewBox="0 0 9 9" fill="none" xmlns="http://www.w3.org/2000/svg">
<g clip-path="url(#clip0_309_3714)">
<path d="M4.85118 7.00009L8.85622 2.99498C8.94893 2.90235 9 2.77869 9 2.64684C9 2.51498 8.94893 2.39132 8.85622 2.29869L8.56135 2.00374C8.3692 1.81182 8.05691 1.81182 7.86506 2.00374L4.50187 5.36694L1.13494 2.00001C1.04224 1.90738 0.918653 1.85623 0.786875 1.85623C0.654949 1.85623 0.531364 1.90738 0.438584 2.00001L0.143783 2.29496C0.0510759 2.38767 2.83239e-06 2.51125 2.82663e-06 2.6431C2.82086e-06 2.77496 0.0510759 2.89861 0.143783 2.99125L4.15248 7.00009C4.24548 7.09295 4.36965 7.14395 4.50165 7.14365C4.63416 7.14395 4.75826 7.09295 4.85118 7.00009Z" fill="#838AA5"/>
</g>
<defs>
<clipPath id="clip0_309_3714">
<rect width="9" height="9" fill="white" transform="translate(9) rotate(90)"/>
</clipPath>
</defs>
</svg>
