<svg width="16" height="9" viewBox="0 0 16 9" fill="none" xmlns="http://www.w3.org/2000/svg">
<path d="M8.62432 8.66682L15.7444 1.99163C15.9092 1.83724 16 1.63115 16 1.41139C16 1.19164 15.9092 0.985542 15.7444 0.831153L15.2202 0.339571C14.8786 0.0196957 14.3234 0.0196957 13.9823 0.339571L8.00332 5.94489L2.01768 0.333351C1.85286 0.178962 1.63316 0.0937189 1.39888 0.0937188C1.16435 0.0937188 0.944643 0.178962 0.779701 0.333351L0.255608 0.824933C0.0907964 0.979444 9.05955e-07 1.18542 8.96349e-07 1.40517C8.86743e-07 1.62493 0.0907964 1.83102 0.255608 1.98541L7.38218 8.66682C7.54752 8.82158 7.76826 8.90658 8.00293 8.90609C8.2385 8.90658 8.45912 8.82158 8.62432 8.66682Z" fill="#A2A6B3"/>
</svg>
