<svg width="14" height="13" viewBox="0 0 14 13" fill="none" xmlns="http://www.w3.org/2000/svg">
<path d="M12.8192 1.9482C12.2298 1.35875 11.4461 1.03415 10.6125 1.03415C9.77897 1.03415 8.99528 1.35875 8.40583 1.9482L3.48636 6.86763C2.75631 7.59768 2.75631 8.78558 3.4864 9.51571C4.2165 10.2458 5.40443 10.2457 6.13449 9.51563L9.37385 6.27626C9.6176 6.03251 9.6176 5.63734 9.37385 5.39358C9.13014 5.14983 8.73492 5.14983 8.49117 5.39358L5.25181 8.63295C5.00847 8.87637 4.61246 8.87633 4.36908 8.63299C4.12571 8.38961 4.12571 7.99361 4.36904 7.75027L9.28851 2.83093C9.64219 2.47728 10.1124 2.2825 10.6125 2.2825C11.1127 2.2825 11.5829 2.47728 11.9365 2.83093C12.6666 3.56102 12.6666 4.74891 11.9366 5.47901L6.57585 10.8397C5.35899 12.0564 3.37913 12.0564 2.16241 10.8397C1.57295 10.2503 1.24831 9.46657 1.24831 8.63299C1.24831 7.79941 1.57295 7.01568 2.16241 6.42623L7.52306 1.06548C7.76682 0.821727 7.76682 0.426553 7.52306 0.1828C7.27935 -0.0609124 6.88414 -0.060954 6.64038 0.1828L1.27973 5.54355C0.454468 6.36876 0 7.46595 0 8.63299C0 9.80004 0.454468 10.8972 1.27973 11.7224C2.13157 12.5742 3.25014 13.0001 4.36908 13C5.48778 12.9999 6.60685 12.574 7.45853 11.7224L12.8193 6.36165C14.036 5.14484 14.036 3.16501 12.8192 1.9482Z" fill="#F2F2F2"/>
</svg>
