<svg width="14" height="11" viewBox="0 0 14 11" fill="none" xmlns="http://www.w3.org/2000/svg">
<path fill-rule="evenodd" clip-rule="evenodd" d="M6.7978 2.92617L6.82815 3.40195L6.32236 3.34369C4.48129 3.12037 2.87288 2.363 1.50725 1.09102L0.839609 0.459879L0.667641 0.92595C0.303473 1.9649 0.536136 3.06211 1.29482 3.80006C1.69945 4.20787 1.60841 4.26613 0.910419 4.02338C0.667641 3.9457 0.45521 3.88744 0.434978 3.91657C0.364168 3.98454 0.606946 4.86814 0.799146 5.21769C1.06216 5.70318 1.59829 6.17896 2.18501 6.46055L2.68068 6.68387L2.09396 6.69358C1.52748 6.69358 1.50725 6.70329 1.56794 6.9072C1.77026 7.53834 2.56941 8.20831 3.45959 8.49961L4.08677 8.70351L3.54052 9.01423C2.73126 9.46088 1.78038 9.71334 0.829493 9.73275C0.374284 9.74246 0 9.7813 0 9.81043C0 9.90753 1.23412 10.4513 1.95234 10.6649C4.107 11.296 6.66629 11.0242 8.58829 9.94637C9.95392 9.17929 11.3195 7.65485 11.9568 6.17896C12.3008 5.39247 12.6447 3.95541 12.6447 3.26602C12.6447 2.81936 12.6751 2.76111 13.2415 2.22707C13.5754 1.91635 13.889 1.57651 13.9496 1.47941C14.0508 1.29492 14.0407 1.29492 13.5248 1.45999C12.6649 1.75128 12.5436 1.71245 12.9684 1.2755C13.282 0.964789 13.6563 0.40162 13.6563 0.236553C13.6563 0.207424 13.5046 0.255973 13.3326 0.343361C13.1505 0.440459 12.7459 0.586106 12.4424 0.673495L11.8961 0.838562L11.4005 0.518138C11.1273 0.343361 10.7429 0.149165 10.5406 0.0909057C10.0247 -0.0450317 9.2357 -0.0256121 8.77037 0.129745C7.5059 0.566687 6.70676 1.69303 6.7978 2.92617Z" fill="white"/>
</svg>
