<svg width="108" height="22" viewBox="0 0 108 22" fill="none" xmlns="http://www.w3.org/2000/svg">
<path fill-rule="evenodd" clip-rule="evenodd" d="M33.0383 6.65461C33.953 6.65461 34.7424 6.81415 35.4062 7.12842C36.0729 7.44543 36.624 7.87248 37.0652 8.40955C37.5007 8.94937 37.8249 9.58066 38.0342 10.3034C38.2421 11.0289 38.3464 11.808 38.3464 12.6429C38.3464 13.924 38.1061 15.1357 37.6198 16.2772C37.1343 17.4201 36.4746 18.4118 35.636 19.2576C34.798 20.1027 33.8086 20.7684 32.6676 21.2601C31.528 21.7532 30.2898 21.9987 28.9599 21.9987C28.788 21.9987 28.4856 21.9945 28.0586 21.9849C27.6315 21.9766 27.1403 21.934 26.5906 21.8611C26.0373 21.7862 25.4524 21.6748 24.8343 21.5255C24.217 21.3791 23.6306 21.1734 23.0781 20.9128L28.0156 0.669106L32.4378 0L30.6703 7.18343C31.0488 7.01701 31.4301 6.88773 31.8106 6.79421C32.1933 6.70343 32.6013 6.65461 33.0383 6.65461ZM29.3292 18.5761C29.9952 18.5761 30.6224 18.4166 31.2122 18.1023C31.8035 17.7887 32.3138 17.3644 32.7408 16.8356C33.1679 16.3054 33.5069 15.7072 33.7536 15.0387C34.0002 14.371 34.125 13.6744 34.125 12.9489C34.125 12.0584 33.9727 11.3631 33.6683 10.8611C33.3638 10.3605 32.8014 10.1095 31.9839 10.1095C31.7161 10.1095 31.3708 10.159 30.943 10.2477C30.5138 10.3433 30.1298 10.5393 29.7851 10.8343L27.9028 18.464C28.0162 18.4826 28.117 18.5019 28.2023 18.5191C28.2861 18.5376 28.3785 18.5514 28.4708 18.561C28.5687 18.572 28.6801 18.5768 28.8147 18.5768C28.9493 18.5768 29.1199 18.5761 29.3292 18.5761Z" fill="white"/>
<path fill-rule="evenodd" clip-rule="evenodd" d="M42.9352 21.6105H38.7109L42.2784 6.96373H46.5315L42.9352 21.6105ZM44.9902 5.18063C44.4003 5.18063 43.8661 5.00871 43.3919 4.66625C42.9133 4.32517 42.6765 3.79978 42.6765 3.09217C42.6765 2.70294 42.7576 2.3371 42.9183 1.99327C43.0811 1.64943 43.2946 1.35236 43.5617 1.10135C43.8288 0.85173 44.1375 0.652304 44.4884 0.501704C44.8415 0.353854 45.2171 0.280273 45.6174 0.280273C46.2066 0.280273 46.7387 0.451504 47.2144 0.794653C47.6887 1.13918 47.9276 1.66456 47.9276 2.36805C47.9276 2.75865 47.8472 3.12586 47.6845 3.4697C47.5231 3.81354 47.3102 4.10924 47.0431 4.36161C46.7789 4.61124 46.4667 4.80998 46.1164 4.9592C45.7633 5.10911 45.3898 5.18063 44.9902 5.18063Z" fill="white"/>
<path fill-rule="evenodd" clip-rule="evenodd" d="M50.2318 3.31559L54.6562 2.64648L53.5694 6.96301H58.3074L57.4519 10.3594H52.7421L51.4876 15.4833C51.3721 15.9103 51.3065 16.3092 51.2882 16.6791C51.2677 17.0519 51.3157 17.3716 51.4298 17.6405C51.5433 17.9101 51.7477 18.1178 52.0437 18.2656C52.3383 18.4148 52.7604 18.4898 53.3129 18.4898C53.7682 18.4898 54.2122 18.4478 54.6414 18.3633C55.0677 18.2814 55.5004 18.1659 55.9381 18.0153L56.2531 21.1917C55.6823 21.3959 55.0642 21.5719 54.3982 21.7198C53.7315 21.869 52.9415 21.9412 52.0289 21.9412C50.7166 21.9412 49.699 21.7521 48.9745 21.3732C48.2507 20.9915 47.7391 20.471 47.4325 19.8115C47.1302 19.1548 46.9956 18.3969 47.0336 17.5435C47.0731 16.6881 47.2049 15.7886 47.4325 14.8417L50.2318 3.31559Z" fill="white"/>
<path fill-rule="evenodd" clip-rule="evenodd" d="M58.1211 15.7634C58.1211 14.5015 58.3304 13.3125 58.749 12.1978C59.1662 11.0831 59.7681 10.1087 60.5489 9.27178C61.327 8.43901 62.2742 7.77953 63.3891 7.2961C64.499 6.81404 65.7415 6.57129 67.1115 6.57129C67.9685 6.57129 68.7346 6.64968 69.4083 6.80854C70.0849 6.96808 70.6973 7.17507 71.2505 7.43432L69.7938 10.6671C69.4132 10.5165 69.0179 10.3837 68.6098 10.2627C68.2011 10.1403 67.7021 10.0812 67.1122 10.0812C65.7027 10.0812 64.5878 10.555 63.7584 11.4998C62.9324 12.4461 62.5159 13.719 62.5159 15.3164C62.5159 16.2633 62.7252 17.028 63.1452 17.6139C63.5631 18.1991 64.3348 18.49 65.4561 18.49C66.0093 18.49 66.5428 18.4336 67.0544 18.3236C67.5696 18.2122 68.0242 18.0726 68.4252 17.9062L68.7402 21.2194C68.206 21.4223 67.6168 21.6052 66.9706 21.7647C66.3229 21.9195 65.5519 21.9985 64.6576 21.9985C63.4779 21.9985 62.4785 21.8307 61.6617 21.4986C60.8442 21.1616 60.1684 20.714 59.6363 20.1473C59.1014 19.5793 58.7173 18.9157 58.4798 18.1544C58.2416 17.3959 58.1211 16.5969 58.1211 15.7634H58.1211Z" fill="white"/>
<path fill-rule="evenodd" clip-rule="evenodd" d="M76.8844 21.9998C75.8759 21.9998 75.0006 21.8506 74.2578 21.5542C73.5171 21.2571 72.904 20.8411 72.4185 20.3013C71.9329 19.7642 71.5685 19.1274 71.3198 18.3943C71.0703 17.662 70.9512 16.8498 70.9512 15.9607C70.9512 14.8446 71.1351 13.7292 71.5058 12.6165C71.8751 11.5025 72.4227 10.5012 73.1486 9.61069C73.8681 8.71878 74.7554 7.98985 75.8012 7.42114C76.845 6.85725 78.0465 6.57324 79.3954 6.57324C80.3849 6.57324 81.2567 6.72315 82.0093 7.01954C82.7585 7.31662 83.3758 7.73541 83.8642 8.27248C84.347 8.81231 84.7141 9.44634 84.9608 10.1808C85.2096 10.9118 85.3315 11.726 85.3315 12.6158C85.3315 13.7285 85.1504 14.8439 84.791 15.96C84.4308 17.0699 83.8973 18.0739 83.1926 18.9658C82.4893 19.8563 81.6097 20.5846 80.5533 21.1512C79.4969 21.7165 78.2728 21.9998 76.8844 21.9998ZM78.9951 10.0824C78.3686 10.0824 77.8154 10.2599 77.3411 10.6106C76.8654 10.9647 76.4658 11.4103 76.1437 11.9474C75.8181 12.4865 75.5764 13.0766 75.4136 13.7154C75.2522 14.357 75.1726 14.9629 75.1726 15.5391C75.1726 16.4682 75.3262 17.1916 75.6278 17.7129C75.9344 18.2307 76.4841 18.4913 77.284 18.4913C77.9126 18.4913 78.463 18.3153 78.9401 17.9611C79.413 17.6097 79.8126 17.1641 80.1375 16.6256C80.461 16.0893 80.7048 15.4979 80.8676 14.8576C81.0276 14.2181 81.1087 13.6088 81.1087 13.0339C81.1087 12.107 80.9557 11.3821 80.6513 10.8616C80.3468 10.3424 79.7943 10.0824 78.9951 10.0824Z" fill="white"/>
<path fill-rule="evenodd" clip-rule="evenodd" d="M89.9341 21.6105H85.707L89.2745 6.96373H93.5297L89.9341 21.6105ZM91.9863 5.18063C91.3971 5.18063 90.8629 5.00871 90.3893 4.66625C89.9129 4.32517 89.674 3.79978 89.674 3.09217C89.674 2.70294 89.7557 2.3371 89.9171 1.99327C90.0785 1.64943 90.2928 1.35236 90.5599 1.10135C90.8255 0.85173 91.137 0.652304 91.4873 0.501704C91.8383 0.353854 92.2139 0.280273 92.6135 0.280273C93.2041 0.280273 93.7375 0.451504 94.2125 0.794653C94.6882 1.13918 94.9279 1.66456 94.9279 2.36805C94.9279 2.75865 94.8426 3.12586 94.6826 3.4697C94.5226 3.81354 94.3091 4.10924 94.0427 4.36161C93.7749 4.61124 93.4676 4.80998 93.1167 4.9592C92.7629 5.10911 92.388 5.18063 91.9863 5.18063Z" fill="white"/>
<path fill-rule="evenodd" clip-rule="evenodd" d="M96.5711 7.63124C96.8918 7.53978 97.2498 7.42976 97.6395 7.3101C98.0307 7.19045 98.4669 7.07904 98.9546 6.97864C99.4373 6.87549 99.9814 6.79228 100.58 6.72627C101.179 6.66025 101.861 6.62793 102.62 6.62793C104.847 6.62793 106.383 7.26059 107.231 8.52316C108.078 9.78572 108.225 11.5132 107.674 13.702L105.732 21.6103H101.48L103.363 13.8684C103.478 13.385 103.569 12.9174 103.635 12.4608C103.702 12.009 103.698 11.6101 103.62 11.2649C103.546 10.9238 103.368 10.6453 103.094 10.4287C102.815 10.2148 102.394 10.1089 101.822 10.1089C101.272 10.1089 100.712 10.1667 100.139 10.2781L97.3703 21.6103H93.1172L96.5711 7.63124Z" fill="white"/>
<path fill-rule="evenodd" clip-rule="evenodd" d="M11.2717 21.9983C17.4969 21.9983 22.5434 17.074 22.5434 10.9996C22.5434 4.92524 17.4969 0.000976562 11.2717 0.000976562C5.04651 0.000976562 0 4.92524 0 10.9996C0 17.074 5.04651 21.9983 11.2717 21.9983ZM16.2415 9.43201C16.4656 7.96796 15.3232 7.18126 13.7615 6.65588L14.2682 4.67194L13.0314 4.37074L12.5381 6.30241C12.2132 6.22333 11.8791 6.14837 11.5465 6.07479L12.0433 4.13074L10.8072 3.82954L10.2998 5.81279C10.0306 5.75296 9.76632 5.69382 9.50979 5.63124L9.5112 5.62505L7.80501 5.2097L7.4759 6.49909C7.4759 6.49909 8.39348 6.70401 8.37445 6.71708C8.87552 6.83949 8.96643 7.16269 8.95093 7.41919L8.37374 9.6782C8.40828 9.68645 8.45268 9.69814 8.50271 9.71877C8.46113 9.70777 8.41744 9.69746 8.37163 9.68645L7.56258 12.8525C7.50127 13.0003 7.34552 13.2232 6.99526 13.1386C7.00795 13.1558 6.09601 12.9199 6.09601 12.9199L5.48147 14.3021L7.09111 14.6934C7.39062 14.7663 7.6845 14.8433 7.97274 14.9155L7.4611 16.9215L8.69652 17.2227L9.20393 15.238C9.54151 15.3267 9.86921 15.41 10.1899 15.4877L9.68457 17.4627L10.9214 17.7639L11.4337 15.762C13.5438 16.1513 15.1301 15.9945 15.7975 14.1323C16.336 12.6324 15.7707 11.768 14.6608 11.2041C15.4698 11.0226 16.0787 10.5041 16.2415 9.43201ZM13.4149 13.3001C13.0322 14.7993 10.4458 13.9885 9.60715 13.785L10.2865 11.1278C11.1252 11.332 13.8145 11.7364 13.4149 13.3001ZM13.7975 9.41069C13.4486 10.7737 11.2956 10.0812 10.5972 9.91201L11.2132 7.50103C11.9116 7.67157 14.1604 7.98859 13.7975 9.41069Z" fill="#F7931A"/>
</svg>
