<svg width="32" height="32" viewBox="0 0 32 32" fill="none" xmlns="http://www.w3.org/2000/svg">
<g clip-path="url(#clip0_221_2353)">
<path d="M31.5215 19.8707C29.3843 28.4421 20.7019 33.6585 12.1285 31.5211C3.55864 29.3841 -1.65841 20.7021 0.47984 12.1313C2.61604 3.55884 11.2985 -1.6581 19.8693 0.478895C28.4423 2.61589 33.6589 11.2988 31.5215 19.8707Z" fill="#F7931A"/>
<path d="M15.3131 5.55801L17.0699 5.99801L16.3639 8.84091C16.7765 8.93551 17.1915 9.03091 17.5984 9.13076L17.7722 9.17386L18.4731 6.34956L20.2308 6.78956L19.5109 9.69031C21.7302 10.4583 23.3533 11.6094 23.0343 13.7507C22.8035 15.3183 21.9384 16.0771 20.79 16.3432C22.367 17.1679 23.1695 18.4327 22.405 20.6254C21.4659 23.3213 19.2474 23.5735 16.2949 23.0254L16.2052 23.0086L15.4779 25.937L13.7202 25.4969L14.438 22.6078C14.0135 22.502 13.59 22.3921 13.1677 22.2781L13.0372 22.2427L12.3168 25.1454L10.5611 24.7054L11.2884 21.7715C11.1794 21.7435 11.0699 21.7149 10.9599 21.6862L10.7946 21.6429L10.7829 21.6398C10.5857 21.5882 10.3869 21.5361 10.1863 21.4848L10.0354 21.4466L7.74805 20.8738L8.6206 18.8526C8.6206 18.8526 9.91585 19.1986 9.89825 19.173C10.3895 19.2951 10.611 18.9791 10.7004 18.762L10.7038 18.7536L12.6763 10.8073C12.6978 10.4321 12.5692 9.95886 11.8572 9.78036C11.8845 9.76196 10.608 9.46781 10.5811 9.46161L10.5806 9.46151L11.0482 7.57561L13.4703 8.19271C13.7942 8.27361 14.1269 8.35091 14.4655 8.42856L14.5927 8.45771L15.3131 5.55801H15.3131ZM14.5737 16.231L13.6084 20.1179C13.7068 20.1424 13.8221 20.1731 13.9511 20.2073C15.3853 20.5878 18.5199 21.4195 19.0183 19.4078C19.5238 17.3716 16.5493 16.6796 15.0505 16.3416L15.0055 16.3314L15.0001 16.3302C14.8366 16.2933 14.6921 16.2607 14.5736 16.231H14.5737ZM15.8904 10.9265L15.0153 14.4518C15.098 14.4725 15.195 14.4985 15.3036 14.5276C16.4994 14.8482 19.1076 15.5474 19.562 13.7191C20.026 11.8489 17.491 11.2852 16.2529 11.0099C16.1135 10.9789 15.9907 10.9516 15.8904 10.9265Z" fill="white"/>
</g>
<defs>
<clipPath id="clip0_221_2353">
<rect width="32" height="32" fill="white"/>
</clipPath>
</defs>
</svg>
