<?xml version="1.0" encoding="utf-8"?>
<!-- Generator: Adobe Illustrator 26.0.3, SVG Export Plug-In . SVG Version: 6.00 Build 0)  -->
<svg version="1.1" id="Слой_1" xmlns="http://www.w3.org/2000/svg" xmlns:xlink="http://www.w3.org/1999/xlink" x="0px" y="0px"
	 viewBox="0 0 140.6 129" style="enable-background:new 0 0 140.6 129;" xml:space="preserve">
<style type="text/css">
	.st0{fill:none;stroke:#000000;stroke-width:7;stroke-linecap:round;stroke-linejoin:round;stroke-miterlimit:10;}
</style>
<path d="M71,26.5v1.8l-9.2,2.2l-1.4,0.3l0.3,1.4l4.5,19.2L45,56.2l-1.4,0.3l0.3,1.4L49,79.8l0.3,1.4l1.4-0.3L71,76.2l0,0.1v18.9
	H37.3V26.5H71z"/>
<path d="M85,26.5l4.8,20.7l21.6-5.1l5.1,21.9L95,69.1l4.8,20.7l-22.9,5.4l-4.8-20.7l-21.6,5.1l-5.1-21.9l21.6-5.1l-4.8-20.7L85,26.5
	z"/>
<g>
	<path class="st0" d="M69.3,6.1C33.7,6.1,6.6,29.8,6.6,59c0,12.8,4.2,24.5,16.6,33.7c0,0,0,0,0,0c2.3,9.3,0.7,18.5-1.2,24.8
		c-1,3.2,2.1,6.2,5.3,5.1l32.4-11.5c3.4,0.5,6.4,0.8,10,0.8c35.6,0,64.2-23.7,64.2-52.9S104.9,6.1,69.3,6.1z"/>
</g>
</svg>
