<svg width="40" height="36" viewBox="0 0 40 36" fill="none" xmlns="http://www.w3.org/2000/svg">
<path d="M38.8281 5.10938H28.2031V3.9375C28.2031 1.99891 26.6261 0.421875 24.6875 0.421875H15.3125C13.3739 0.421875 11.7969 1.99891 11.7969 3.9375V5.10938H1.17188C0.524687 5.10938 0 5.63391 0 6.28125V13.3125C0 15.2541 1.57398 16.8281 3.51562 16.8281H36.4844C38.426 16.8281 40 15.2541 40 13.3125V6.28125C40 5.63391 39.4753 5.10938 38.8281 5.10938ZM25.8594 5.10938H14.1406V3.9375C14.1406 3.29094 14.667 2.76562 15.3125 2.76562H24.6875C25.333 2.76562 25.8594 3.29094 25.8594 3.9375V5.10938Z" fill="white"/>
<path d="M21.1719 19.1719H18.8281C18.8281 19.8184 19.3545 20.3438 20 20.3438C20.6455 20.3438 21.1719 19.8184 21.1719 19.1719Z" fill="white"/>
<path d="M16.4844 19.1718H3.51562C3.11422 19.1718 2.72258 19.1305 2.34375 19.0532V32.0624C2.34375 34.001 3.92078 35.5781 5.85938 35.5781H34.1406C36.0792 35.5781 37.6562 34.001 37.6562 32.0624V19.0532C37.2774 19.1305 36.8858 19.1718 36.4844 19.1718H23.5156C23.5156 21.1104 21.9386 22.6874 20 22.6874C18.0614 22.6874 16.4844 21.1104 16.4844 19.1718V19.1718ZM21.1719 29.8585L25.3741 25.6562H23.5156C22.8679 25.6562 22.3438 25.1321 22.3438 24.4843C22.3438 23.8366 22.8679 23.3124 23.5156 23.3124H28.2031C28.8509 23.3124 29.375 23.8366 29.375 24.4843V29.1718C29.375 29.8196 28.8509 30.3437 28.2031 30.3437C27.5554 30.3437 27.0312 29.8196 27.0312 29.1718V27.3133L22.0004 32.3442C21.5427 32.8019 20.8011 32.802 20.3433 32.3442L16.4844 28.4852L12.6254 32.3442C12.1677 32.8019 11.426 32.8019 10.9683 32.3442C10.5105 31.8864 10.5105 31.1448 10.9683 30.6871L15.6558 25.9996C16.1135 25.5418 16.8552 25.5418 17.3129 25.9996L21.1719 29.8585Z" fill="white"/>
<rect x="6" y="23" width="29" height="10" fill="white"/>
<rect x="14" y="23" width="5" height="11.7" fill="#A23DCA"/>
<rect x="15.6638" y="26.1978" width="3.4961" height="10.2403" transform="rotate(-37.7133 15.6638 26.1978)" fill="#C4C4C4" stroke="white"/>
<rect x="23.1603" y="24.6638" width="3.4961" height="10.2403" transform="rotate(52.2867 23.1603 24.6638)" fill="#C4C4C4" stroke="white"/>
<rect x="17.0984" y="26.3956" width="1.46349" height="8.18155" transform="rotate(-37.7133 17.0984 26.3956)" fill="#A23DCA" stroke="#A23DCA"/>
<rect x="17.4191" y="32.2295" width="1.53098" height="8.15785" transform="rotate(-127.568 17.4191 32.2295)" fill="#A23DCA" stroke="#A23DCA"/>
</svg>
