<svg width="44" height="50" viewBox="0 0 44 50" fill="none" xmlns="http://www.w3.org/2000/svg">
<path d="M25 50C18.3228 50 12.0457 47.3999 7.32307 42.6769C2.6001 37.9543 0 31.6772 0 25C0 18.3208 2.6001 12.0438 7.32307 7.32079C12.0457 2.59781 18.3228 0 25 0C31.6772 0 37.9543 2.6001 42.6769 7.32307C43.0832 7.72934 43.0832 8.38966 42.6769 8.79593C42.2707 9.20219 41.6103 9.20219 41.2041 8.79593C36.8752 4.46663 31.1207 2.08321 25 2.08321C18.8793 2.08321 13.1229 4.46663 8.79364 8.79593C4.46472 13.1248 2.08321 18.8793 2.08321 25C2.08321 31.1207 4.46663 36.8752 8.79593 41.2041C13.1248 45.5334 18.8793 47.9168 25 47.9168C31.1207 47.9168 36.8771 45.5334 41.2064 41.2041C41.6126 40.7978 42.2729 40.7978 42.6792 41.2041C43.0855 41.6103 43.0855 42.2707 42.6792 42.6769C37.9562 47.3999 31.6772 50 25 50Z" fill="white"/>
<path d="M42.708 10.4168H34.3748C33.7999 10.4168 33.333 9.94987 33.333 9.375C33.333 8.80013 33.7999 8.33321 34.3748 8.33321H41.6666V1.04179C41.6666 0.466537 42.1331 0 42.708 0C43.2833 0 43.7498 0.466537 43.7498 1.04179V9.375C43.7498 9.94987 43.2833 10.4168 42.708 10.4168Z" fill="white"/>
</svg>
