<svg width="16" height="16" viewBox="0 0 16 16" fill="none" xmlns="http://www.w3.org/2000/svg">
<path d="M8 0C12.4267 0 16 3.57333 16 8C16 12.4267 12.4267 16 8 16C3.57333 16 0 12.4267 0 8C0 3.57333 3.57333 0 8 0Z" fill="white"/>
<path d="M7.98696 4.12986C7.98696 3.98639 7.87068 3.87012 7.72722 3.87012C7.58375 3.87012 7.46748 3.98639 7.46748 4.12986V5.94804H6.948V12.1818H7.46748V13.7402C7.46748 13.8837 7.58375 14 7.72722 14C7.87068 14 7.98696 13.8837 7.98696 13.7402V12.1818H8.50644V5.94804H7.98696V4.12986Z" fill="url(#paint0_linear_570_2943)"/>
<path d="M10.7921 2.25974C10.7921 2.11627 10.6759 2 10.5324 2C10.3889 2 10.2727 2.11627 10.2727 2.25974V4.07792H9.75317V10.3117H10.2727V11.8701C10.2727 12.0136 10.3889 12.1299 10.5324 12.1299C10.6759 12.1299 10.7921 12.0136 10.7921 11.8701V10.3117H11.3116V4.07792H10.7921V2.25974Z" fill="url(#paint1_linear_570_2943)"/>
<path d="M5.18178 2.4155C5.18178 2.27204 5.06551 2.15576 4.92204 2.15576C4.77858 2.15576 4.6623 2.27204 4.6623 2.4155V4.23368H4.14282V10.4675H4.6623V12.0259C4.6623 12.1694 4.77858 12.2856 4.92204 12.2856C5.06551 12.2856 5.18178 12.1694 5.18178 12.0259V10.4675H5.70126V4.23368H5.18178V2.4155Z" fill="url(#paint2_linear_570_2943)"/>
<defs>
<linearGradient id="paint0_linear_570_2943" x1="7.72722" y1="3.87012" x2="7.72722" y2="14" gradientUnits="userSpaceOnUse">
<stop stop-color="#AA79FF"/>
<stop offset="1" stop-color="#9255FA"/>
</linearGradient>
<linearGradient id="paint1_linear_570_2943" x1="10.5324" y1="2" x2="10.5324" y2="12.1299" gradientUnits="userSpaceOnUse">
<stop stop-color="#AA79FF"/>
<stop offset="1" stop-color="#9255FA"/>
</linearGradient>
<linearGradient id="paint2_linear_570_2943" x1="4.92204" y1="2.15576" x2="4.92204" y2="12.2856" gradientUnits="userSpaceOnUse">
<stop stop-color="#AA79FF"/>
<stop offset="1" stop-color="#9255FA"/>
</linearGradient>
</defs>
</svg>
