<svg width="24" height="25" viewBox="0 0 24 25" fill="none" xmlns="http://www.w3.org/2000/svg">
<path d="M21.2617 25C21.1357 25 21.0098 24.9689 20.8952 24.9084L14.3381 21.4335C13.4513 21.6233 12.5679 21.7214 11.7073 21.7214C5.25162 21.7214 0 16.8477 0 10.8599C0 4.87206 5.25162 0 11.7073 0C18.1631 0 23.4147 4.87206 23.4147 10.8599C23.4147 13.8194 22.0912 16.6661 19.7746 18.7144C19.6649 20.5124 21.2273 23.0646 21.867 23.93C22.0601 24.1934 22.0339 24.5452 21.7999 24.7808C21.6593 24.9231 21.4597 25 21.2617 25ZM14.4493 20.0216C14.5753 20.0216 14.7013 20.0543 14.8141 20.1132L19.3312 22.5067C18.7062 21.2519 18.1385 19.6617 18.343 18.2972C18.3676 18.1385 18.4477 17.9929 18.577 17.885C20.7185 16.0837 21.9456 13.5233 21.9456 10.8615C21.9456 5.62627 17.3533 1.36608 11.709 1.36608C6.06472 1.36608 1.47242 5.62627 1.47242 10.8615C1.47242 16.0968 6.06308 20.357 11.7073 20.357C12.5401 20.357 13.4006 20.2539 14.2644 20.0461C14.325 20.0298 14.3871 20.0216 14.4493 20.0216Z" fill="white"/>
<path d="M12.4574 12.0776H7.38979C7.04013 12.0776 6.75635 12.3614 6.75635 12.7111C6.75635 13.0607 7.04013 13.3445 7.38979 13.3445H12.4574C12.807 13.3445 13.0908 13.0607 13.0908 12.7111C13.0908 12.3614 12.807 12.0776 12.4574 12.0776Z" fill="white"/>
<path d="M16.2583 8.27686H7.39004C7.04038 8.27686 6.75659 8.56064 6.75659 8.9103C6.75659 9.25996 7.04038 9.54375 7.39004 9.54375H16.2583C16.6079 9.54375 16.8917 9.25996 16.8917 8.9103C16.8917 8.56064 16.6079 8.27686 16.2583 8.27686Z" fill="white"/>
</svg>
