<svg width="137" height="119" viewBox="0 0 137 119" fill="none" xmlns="http://www.w3.org/2000/svg">
<path d="M90.5 99.7H17.8C10.7 99.7 5 94 5 86.9V33.5C5 26.6 10.6 21 17.5 21H101.1C108 21 113.5 26.6 113.5 33.4V87.4C113.5 94.2 108 99.7 101.2 99.7H98.1H90.5V99.7Z" stroke="white" stroke-width="10" stroke-linecap="round" stroke-linejoin="round"/>
<path d="M25.5 45.2H91.5" stroke="white" stroke-width="10" stroke-linecap="round" stroke-linejoin="round"/>
<path d="M25.5 60.4999L91.5 60.3999" stroke="white" stroke-width="10" stroke-linecap="round" stroke-linejoin="round"/>
<path d="M25.5 74.8999H91.5" stroke="white" stroke-width="10" stroke-linecap="round" stroke-linejoin="round"/>
<path d="M104.1 99.7L88.2998 113.9V99.7H104.1Z" fill="white" stroke="white" stroke-width="10" stroke-miterlimit="10" stroke-linecap="round" stroke-linejoin="round"/>
<path d="M23.1001 20.2V17.5C23.1001 10.6 28.7001 5 35.6001 5H119.2C126 5 131.5 10.5 131.5 17.3V71C131.5 78 125.9 83.6 118.9 83.6H113.4" stroke="white" stroke-width="10" stroke-linecap="round" stroke-linejoin="round"/>
</svg>
