<svg width="18" height="18" viewBox="0 0 18 18" fill="none" xmlns="http://www.w3.org/2000/svg">
<path d="M9 0C4.02571 0 0 4.02525 0 9C0 13.9742 4.02525 18 9 18C13.9743 18 18 13.9747 18 9C18 4.02571 13.9747 0 9 0ZM8.73369 13.2124C8.22428 13.2124 7.83334 12.7859 7.83334 12.3002C7.83334 11.8026 8.23612 11.388 8.73369 11.388C9.23129 11.388 9.64586 11.8026 9.64586 12.3002C9.64586 12.7859 9.24307 13.2124 8.73369 13.2124ZM10.0842 8.604C9.43263 9.11341 9.42075 9.46881 9.42075 10.0848C9.42075 10.31 9.30227 10.5706 8.72181 10.5706C8.23605 10.5706 8.07026 10.3929 8.07026 9.77685C8.07026 8.75802 8.52043 8.2723 8.86398 7.97614C9.25492 7.64441 9.91835 7.2772 9.91835 6.6375C9.91835 6.09251 9.44448 5.83189 8.85213 5.83189C7.64378 5.83189 7.90443 6.74413 7.26465 6.74413C6.9448 6.74413 6.55386 6.53084 6.55386 6.06885C6.55386 5.42914 7.28835 4.48137 8.88768 4.48137C10.404 4.48137 11.411 5.32252 11.411 6.43609C11.411 7.54966 10.404 8.35523 10.0842 8.604Z" fill="#8E9DCB"/>
</svg>
