<svg width="22" height="22" viewBox="0 0 22 22" fill="none" xmlns="http://www.w3.org/2000/svg">
<path d="M13.0155 10.9999L21.5819 2.43331C22.1394 1.87609 22.1394 0.97514 21.5819 0.417917C21.0247 -0.139306 20.1237 -0.139306 19.5665 0.417917L10.9999 8.98453L2.43352 0.417917C1.87603 -0.139306 0.975337 -0.139306 0.418114 0.417917C-0.139371 0.97514 -0.139371 1.87609 0.418114 2.43331L8.98448 10.9999L0.418114 19.5665C-0.139371 20.1238 -0.139371 21.0247 0.418114 21.5819C0.695812 21.8599 1.06094 21.9995 1.42581 21.9995C1.79068 21.9995 2.15556 21.8599 2.43352 21.5819L10.9999 13.0153L19.5665 21.5819C19.8445 21.8599 20.2093 21.9995 20.5742 21.9995C20.9391 21.9995 21.304 21.8599 21.5819 21.5819C22.1394 21.0247 22.1394 20.1238 21.5819 19.5665L13.0155 10.9999Z" fill="#F8F8F8"/>
</svg>
