<?xml version="1.0" encoding="utf-8"?>
<!-- Generator: Adobe Illustrator 26.0.3, SVG Export Plug-In . SVG Version: 6.00 Build 0)  -->
<svg version="1.1" id="Слой_1" xmlns="http://www.w3.org/2000/svg" xmlns:xlink="http://www.w3.org/1999/xlink" x="0px" y="0px"
	 viewBox="0 0 140.6 129" style="enable-background:new 0 0 140.6 129;" xml:space="preserve">
<style type="text/css">
	.st0{fill:none;stroke:#000000;stroke-width:7;stroke-linecap:round;stroke-linejoin:round;stroke-miterlimit:10;}
	.st1{fill:none;stroke:#000000;stroke-width:7;stroke-linecap:round;stroke-linejoin:round;}
</style>
<g>
	<path class="st0" d="M24.7,49.7c0,0,9.4-31.3,47.7-31.3"/>
	<polyline class="st0" points="61.6,10.1 72.4,18.3 63.9,28.5 	"/>
</g>
<g>
	<path class="st0" d="M119.9,81.3c0,0-9.4,31.3-47.7,31.3"/>
	<polyline class="st0" points="82.9,120.9 72.1,112.6 80.7,102.4 	"/>
</g>
<path class="st1" d="M56.2,124.4v-21c0-3.7-3-6.7-6.6-6.7H24.9c-3.7,0-6.7,3-6.7,6.7v20.9"/>
<ellipse class="st1" cx="37.2" cy="76.6" rx="10.5" ry="10.9"/>
<path class="st1" d="M129.1,63.4v-21c0-3.7-3-6.7-6.6-6.7H97.8c-3.7,0-6.7,3-6.7,6.7v20.9"/>
<ellipse class="st1" cx="110.1" cy="15.5" rx="10.5" ry="10.9"/>
</svg>
