<svg width="12" height="14" viewBox="0 0 12 14" fill="none" xmlns="http://www.w3.org/2000/svg">
<path d="M5.43957 0.223774L0.23032 5.27968C0.0816134 5.42401 1.01452e-06 5.61636 1.00556e-06 5.82146C9.96583e-07 6.0268 0.0817393 6.21904 0.23032 6.36336L0.703389 6.82241C0.851844 6.96662 1.05015 7.04606 1.26158 7.04606C1.47291 7.04606 1.6779 6.96662 1.82636 6.82241L4.87198 3.87286L4.87198 13.2437C4.87198 13.6662 5.21276 14 5.64819 14L6.31697 14C6.7524 14 7.12755 13.6662 7.12755 13.2437L7.12755 3.8394L10.1902 6.8223C10.3389 6.96651 10.5318 7.04595 10.7432 7.04595C10.9544 7.04595 11.1501 6.96651 11.2987 6.8223L11.7703 6.36325C11.919 6.21893 12 6.02669 12 5.82136C12 5.61625 11.9179 5.4239 11.7692 5.27957L6.56007 0.223661C6.41091 0.0789941 6.21179 -0.000565565 6.00012 2.76175e-06C5.78774 -0.000450694 5.5885 0.0789941 5.43957 0.223774Z" fill="url(#paint0_linear_434_3)"/>
<defs>
<linearGradient id="paint0_linear_434_3" x1="12" y1="14" x2="0.171173" y2="-1.35943" gradientUnits="userSpaceOnUse">
<stop stop-color="#2973FF"/>
<stop offset="0.48974" stop-color="#8846D3"/>
<stop offset="1" stop-color="#FF22AC"/>
</linearGradient>
</defs>
</svg>
