<svg width="24" height="24" viewBox="0 0 24 24" fill="none" xmlns="http://www.w3.org/2000/svg">
<path d="M12 0C5.40469 0 0 5.40469 0 12C0 18.5953 5.40469 24 12 24C18.5953 24 24 18.5953 24 12C24 5.40469 18.5953 0 12 0Z" fill="#50D57D"/>
<path d="M24 12C24 18.5953 18.5953 24 12 24V0C18.5953 0 24 5.40469 24 12Z" fill="#50D57D"/>
<path d="M19.1156 8.97654L17.1329 6.99377C16.8516 6.71252 16.4016 6.71252 16.1344 6.99377L9.89062 13.2375L7.16249 10.5094C6.89531 10.2281 6.44531 10.2281 6.16401 10.5094L4.18124 12.4922C3.89999 12.7734 3.89999 13.2235 4.18124 13.4907L9.39848 18.7079C9.63562 18.9714 10.1455 18.9716 10.3828 18.7079L19.1156 9.97503C19.3969 9.70784 19.3969 9.25784 19.1156 8.97654Z" fill="#ECECF1"/>
</svg>
