<svg width="14" height="14" viewBox="0 0 14 14" fill="none" xmlns="http://www.w3.org/2000/svg">
<g clip-path="url(#clip0_2326_11241)">
<path d="M9.47002 14.0003H2.17842C1.29349 14.0003 0.574219 13.281 0.574219 12.3961V4.52109C0.574219 3.63615 1.29349 2.91699 2.17842 2.91699H2.47002C2.71152 2.91699 2.90752 3.11299 2.90752 3.35449C2.90752 3.59599 2.71152 3.79199 2.47002 3.79199H2.17842C1.77649 3.79199 1.44922 4.11916 1.44922 4.52109V12.3961C1.44922 12.798 1.77649 13.1253 2.17842 13.1253H9.47002C9.87195 13.1253 10.1992 12.798 10.1992 12.3961V12.1045C10.1992 11.863 10.3952 11.667 10.6367 11.667C10.8782 11.667 11.0742 11.863 11.0742 12.1045V12.3961C11.0742 13.281 10.3549 14.0003 9.47002 14.0003Z" fill="white"/>
<path d="M11.8034 10.5H5.67842C4.79349 10.5 4.07422 9.78073 4.07422 8.8958V1.6042C4.07422 0.719269 4.79349 0 5.67842 0H11.8034C12.6884 0 13.4075 0.719269 13.4075 1.6042V8.8958C13.4075 9.78073 12.6884 10.5 11.8034 10.5ZM5.67842 0.875C5.27649 0.875 4.94922 1.20227 4.94922 1.6042V8.8958C4.94922 9.29773 5.27649 9.625 5.67842 9.625H11.8034C12.2054 9.625 12.5325 9.29773 12.5325 8.8958V1.6042C12.5325 1.20227 12.2054 0.875 11.8034 0.875H5.67842Z" fill="white"/>
</g>
<defs>
<clipPath id="clip0_2326_11241">
<rect width="14" height="14" fill="white"/>
</clipPath>
</defs>
</svg>
