<svg width="12" height="9" viewBox="0 0 12 9" fill="none" xmlns="http://www.w3.org/2000/svg">
<path fill-rule="evenodd" clip-rule="evenodd" d="M10.05 1.92596C10.05 1.92596 9.23999 1.23372 7.48999 0.74622L7.63 0.599976C7.63 0.599976 7.64002 0.599976 7.65002 0.599976C7.78002 0.599976 9.12002 0.619476 10.52 1.57498C10.52 1.57498 12 4.00271 12 6.98621C12 6.98621 11.13 8.34148 8.85999 8.39998C8.85999 8.39998 8.49005 8.00024 8.18005 7.64924C9.53005 7.30799 10.04 6.54748 10.04 6.54748C9.62004 6.79123 9.21999 6.97648 8.85999 7.09348C8.33998 7.28848 7.85 7.41523 7.37 7.49323C6.92 7.57123 6.48996 7.60047 6.07996 7.60047C5.58996 7.60047 5.12995 7.55172 4.69995 7.48347C4.11995 7.37622 3.60994 7.22997 3.18994 7.08372C2.95994 6.99597 2.69994 6.89846 2.43994 6.77171L2.34998 6.72297L2.31006 6.69373C2.12006 6.59623 2.02002 6.53772 2.02002 6.53772C2.02002 6.53772 2.50995 7.27872 3.81995 7.62972C3.50995 7.98072 3.13 8.39998 3.13 8.39998C0.860005 8.34148 0 6.98621 0 6.98621C0 4.00271 1.47998 1.57498 1.47998 1.57498C2.87998 0.619476 4.21998 0.599976 4.34998 0.599976C4.35998 0.599976 4.35999 0.599976 4.35999 0.599976L4.46997 0.707211C2.61997 1.19471 1.76001 1.92596 1.76001 1.92596C1.76001 1.92596 1.99 1.81872 2.37 1.66272C3.47 1.22397 4.33995 1.09724 4.69995 1.06799C4.76995 1.06799 4.82 1.05823 4.88 1.05823C5.23 1.00948 5.61 0.98997 6 0.98997C6.31 0.98997 6.62996 0.999738 6.95996 1.03874C7.92996 1.13624 8.98005 1.39946 10.05 1.92596ZM7.04004 5.35798C7.04004 5.91373 7.53 6.37199 8.13 6.37199C8.74 6.37199 9.22998 5.91373 9.22998 5.35798C9.22998 4.80223 8.74 4.34397 8.13 4.34397C7.53 4.34397 7.04004 4.80223 7.04004 5.35798ZM3.08997 5.35798C3.08997 5.91373 3.58005 6.37199 4.18005 6.37199C4.79005 6.37199 5.28003 5.91373 5.28003 5.35798C5.28003 4.80223 4.79005 4.34397 4.18005 4.34397C3.58005 4.34397 3.08997 4.80223 3.08997 5.35798Z" fill="white"/>
</svg>
