<svg width="16" height="12" viewBox="0 0 16 12" fill="none" xmlns="http://www.w3.org/2000/svg">
<path d="M3.69011 9.17322C7.04225 10.4814 9.89494 10.7362 13.1276 8.69998C13.1039 8.73553 12.4645 9.68288 10.7829 10.1684C11.1381 10.6539 11.6237 11.2105 11.6237 11.2105C12.7013 11.2105 13.7553 10.9026 14.6671 10.3105C15.3776 9.8368 15.7802 9.0197 15.6973 8.16709C15.5552 6.71049 15.2118 5.28944 14.6789 3.92763C14.0039 2.15132 12.3816 0.919731 10.4987 0.742086C10.3329 0.730238 10.2145 0.730238 10.1434 0.730238L9.95396 0.919695C12.1211 1.53549 13.1987 2.4947 13.2224 2.53024C9.89473 0.848644 5.96317 0.824984 2.61183 2.45919C2.61183 2.45919 3.67763 1.40524 6.03418 0.848645L5.89208 0.706543C5.64339 0.706543 5.40654 0.730238 5.15788 0.765746C3.41708 1.0618 1.96052 2.25785 1.33288 3.9039C0.788133 5.32495 0.432879 6.81705 0.302626 8.33285C0.231575 9.1381 0.610524 9.93154 1.27368 10.3934C2.14998 10.9736 3.19208 11.2815 4.24603 11.2815C4.24603 11.2815 4.67234 10.7249 5.09868 10.2276C3.49998 9.7539 2.84868 8.80654 2.83683 8.771L3.1377 8.92463C3.31755 9.01653 3.50195 9.09978 3.69011 9.17322ZM5.54868 8.14339C4.77893 8.11969 4.17498 7.46839 4.19868 6.6868C4.22237 5.95259 4.81447 5.36049 5.54868 5.3368C6.31842 5.36049 6.92237 6.0118 6.89868 6.79339C6.86313 7.52763 6.28288 8.11973 5.54868 8.14339ZM10.3802 8.14339C9.61049 8.11969 9.00654 7.46839 9.03023 6.6868C9.05393 5.95259 9.64603 5.36049 10.3802 5.3368C11.15 5.36049 11.7539 6.0118 11.7302 6.79339C11.7066 7.52763 11.1144 8.11973 10.3802 8.14339Z" fill="white"/>
</svg>
