<?xml version="1.0" encoding="utf-8"?>
<!-- Generator: Adobe Illustrator 25.4.1, SVG Export Plug-In . SVG Version: 6.00 Build 0)  -->
<svg version="1.1" id="Слой_1" xmlns="http://www.w3.org/2000/svg" xmlns:xlink="http://www.w3.org/1999/xlink" x="0px" y="0px"
	 viewBox="0 0 171.1 129" style="enable-background:new 0 0 171.1 129;" xml:space="preserve">
<style type="text/css">
	.st0{fill:none;stroke:#EB3148;stroke-width:7;stroke-linecap:round;stroke-linejoin:round;stroke-miterlimit:10;}
	.st1{fill:#EB3148;}
	.st2{fill:none;stroke:#40F2D0;stroke-width:7;stroke-linecap:round;stroke-linejoin:round;stroke-miterlimit:10;}
	.st3{fill:none;stroke:#EB3148;stroke-width:9;stroke-linecap:round;stroke-linejoin:round;stroke-miterlimit:10;}
</style>
<circle class="st0" cx="-344.1" cy="91.3" r="60.1"/>
<g>
	<path class="st1" d="M-352.1,100c0-2.1,0.3-3.9,0.8-5.4c0.6-1.5,1.5-2.9,2.9-4.1c2-1.9,3.8-3.6,5.4-5c1.7-1.4,3.1-2.7,4.3-4
		c1.2-1.2,2.1-2.4,2.8-3.5c0.7-1.1,1-2.2,1-3.4c0-2.3-0.7-4.1-2.2-5.5c-1.4-1.3-3.3-2-5.5-2c-3.3,0-5.8,0.9-7.6,2.8
		c-1.7,1.8-2.7,4.1-2.9,6.7l-16.3-1.1c0.8-7.5,3.5-13.2,8.3-17.1c4.7-3.9,10.8-5.9,18.2-5.9c3.2,0,6.3,0.4,9.2,1.3
		c2.9,0.9,5.4,2.2,7.6,4s3.9,4,5.2,6.6c1.3,2.6,1.9,5.6,1.9,9c0,2-0.2,3.9-0.6,5.6s-1.1,3.3-2.2,4.9c-1,1.6-2.4,3.3-4,4.9
		c-1.7,1.7-3.8,3.5-6.3,5.5c-1.6,1.3-2.7,2.5-3.3,3.7s-0.8,2.4-0.8,3.6v3h-15.9V100z M-353.9,120.3c0-1.3,0.2-2.6,0.7-3.8
		c0.5-1.2,1.2-2.2,2.1-3.1s1.9-1.6,3.1-2.1s2.5-0.7,3.8-0.7s2.6,0.2,3.8,0.7c1.2,0.5,2.2,1.2,3.1,2.1s1.6,1.9,2.1,3.1
		s0.7,2.5,0.7,3.8s-0.2,2.6-0.7,3.8c-0.5,1.2-1.2,2.2-2.1,3.1s-1.9,1.6-3.1,2.1s-2.5,0.7-3.8,0.7s-2.6-0.2-3.8-0.7s-2.2-1.2-3.1-2.1
		s-1.6-1.9-2.1-3.1C-353.6,122.9-353.9,121.6-353.9,120.3z"/>
</g>
<g>
	<path class="st1" d="M-355.2,107.1c0.4-0.4,0.6-1,0.6-1.6v-5.8c0-0.6,0-1.2,0.1-1.7c0-0.5-0.6-0.8-0.9-0.4l-33.7,34.8
		c-1.4,1.4,0,2.9,1.4,4.2c0.7,0.7,0.2,1.8,1.1,1.8s1.9-0.4,2.5-1.1L-355.2,107.1z"/>
	<path class="st1" d="M-334.4,78.5c-0.9,1.4-1.9,2.7-3.1,3.9c-1.2,1.3-2.7,2.7-4.5,4.2c-1.5,1.4-3.4,3.1-5.4,5h-0.1
		c-1,0.9-1.8,2-2.4,3.3c-0.5,1.4-0.7,3-0.7,4.8v2.6h0.4l29.1-30l0,0c0-3.2-0.7-5.9-1.9-8.2c0,0,0,0-0.1,0l-10,10.5l0,0
		C-333.2,76-333.7,77.3-334.4,78.5z"/>
	<path class="st1" d="M-300.4,45.8c-1.4-1.3-3.6-1.2-4.9,0.1c-4.1,4.2-12.2,12.6-14.3,14.7c-0.3,0.3-0.3,0.7-0.1,1s0.4,0.7,0.6,1
		c0.7,1.3,1.2,2.7,1.5,4.2c0.2,0.7,1,0.9,1.5,0.4l16.9-17.4C-297.9,48.5-298.9,47.1-300.4,45.8z"/>
</g>
<g>
	<path class="st0" d="M130.3,8.7c-19.6-7.3-37.9,8.5-43.1,17.7c-0.7,1.2-2.4,1.2-3.1,0C78.7,17.2,60.3,1.2,40.8,8.7
		c-14.1,5.2-23.1,19.8-21.9,34.9c2.8,35.1,66.7,78.7,66.7,78.7s63.8-43.6,66.7-78.7C153.4,28.5,144.4,13.9,130.3,8.7z"/>
</g>
<path class="st2" d="M45,52.5"/>
<line class="st3" x1="104.3" y1="64.5" x2="66.8" y2="64.5"/>
</svg>
