<svg width="396" height="99" viewBox="0 0 396 99" fill="none" xmlns="http://www.w3.org/2000/svg">
<g filter="url(#filter0_d_1567_3367)">
<path d="M10.224 77C9.968 77 9.84 76.84 9.84 76.52L9.936 10.568C9.936 10.312 10.064 10.184 10.32 10.184H41.136C41.392 10.184 41.52 10.344 41.52 10.664V21.416C41.52 21.672 41.392 21.8 41.136 21.8H21.456V36.776H41.136C41.392 36.776 41.52 36.904 41.52 37.16L41.616 48.008C41.616 48.264 41.488 48.392 41.232 48.392H21.456V65.192H41.232C41.488 65.192 41.616 65.352 41.616 65.672V76.616C41.616 76.872 41.488 77 41.232 77H10.224ZM50.5365 77C50.2805 77 50.1525 76.84 50.1525 76.52L50.3445 10.568C50.3445 10.312 50.4725 10.184 50.7285 10.184H70.1205C73.5765 10.184 76.7445 11.048 79.6245 12.776C82.5685 14.44 84.9045 16.712 86.6325 19.592C88.3605 22.408 89.2245 25.608 89.2245 29.192C89.2245 31.56 88.8725 33.704 88.1685 35.624C87.4645 37.48 86.6325 39.08 85.6725 40.424C84.7125 41.704 83.8485 42.664 83.0805 43.304C86.5365 47.144 88.2645 51.656 88.2645 56.84L88.3605 76.52C88.3605 76.84 88.2005 77 87.8805 77H77.0325C76.7765 77 76.6485 76.904 76.6485 76.712V56.84C76.6485 54.536 75.8165 52.552 74.1525 50.888C72.5525 49.16 70.5685 48.296 68.2005 48.296H61.8645L61.7685 76.52C61.7685 76.84 61.6405 77 61.3845 77H50.5365ZM61.8645 36.776H70.1205C72.1045 36.776 73.8645 36.04 75.4005 34.568C76.9365 33.096 77.7045 31.304 77.7045 29.192C77.7045 27.144 76.9365 25.384 75.4005 23.912C73.9285 22.44 72.1685 21.704 70.1205 21.704H61.8645V36.776ZM96.849 77C96.593 77 96.465 76.84 96.465 76.52L96.657 10.568C96.657 10.312 96.785 10.184 97.041 10.184H116.433C119.889 10.184 123.057 11.048 125.937 12.776C128.881 14.44 131.217 16.712 132.945 19.592C134.673 22.408 135.537 25.608 135.537 29.192C135.537 31.56 135.185 33.704 134.481 35.624C133.777 37.48 132.945 39.08 131.985 40.424C131.025 41.704 130.161 42.664 129.393 43.304C132.849 47.144 134.577 51.656 134.577 56.84L134.673 76.52C134.673 76.84 134.513 77 134.193 77H123.345C123.089 77 122.961 76.904 122.961 76.712V56.84C122.961 54.536 122.129 52.552 120.465 50.888C118.865 49.16 116.881 48.296 114.513 48.296H108.177L108.081 76.52C108.081 76.84 107.953 77 107.697 77H96.849ZM108.177 36.776H116.433C118.417 36.776 120.177 36.04 121.713 34.568C123.249 33.096 124.017 31.304 124.017 29.192C124.017 27.144 123.249 25.384 121.713 23.912C120.241 22.44 118.481 21.704 116.433 21.704H108.177V36.776ZM160.069 77.96C156.613 77.96 153.445 77.096 150.565 75.368C147.749 73.576 145.477 71.24 143.749 68.36C142.021 65.416 141.157 62.184 141.157 58.664L141.253 28.232C141.253 24.712 142.085 21.512 143.749 18.632C145.477 15.752 147.781 13.448 150.661 11.72C153.541 9.992 156.677 9.128 160.069 9.128C163.525 9.128 166.661 9.992 169.477 11.72C172.293 13.448 174.533 15.752 176.197 18.632C177.925 21.512 178.789 24.712 178.789 28.232L178.885 58.664C178.885 62.184 178.021 65.416 176.293 68.36C174.629 71.24 172.357 73.576 169.477 75.368C166.661 77.096 163.525 77.96 160.069 77.96ZM160.069 66.344C161.989 66.344 163.653 65.576 165.061 64.04C166.533 62.44 167.269 60.648 167.269 58.664L167.173 28.232C167.173 26.12 166.501 24.328 165.157 22.856C163.813 21.384 162.117 20.648 160.069 20.648C158.085 20.648 156.389 21.384 154.981 22.856C153.573 24.264 152.869 26.056 152.869 28.232V58.664C152.869 60.776 153.573 62.6 154.981 64.136C156.389 65.608 158.085 66.344 160.069 66.344ZM186.568 77C186.312 77 186.184 76.84 186.184 76.52L186.376 10.568C186.376 10.312 186.504 10.184 186.76 10.184H206.152C209.608 10.184 212.776 11.048 215.656 12.776C218.6 14.44 220.936 16.712 222.664 19.592C224.392 22.408 225.256 25.608 225.256 29.192C225.256 31.56 224.904 33.704 224.2 35.624C223.496 37.48 222.664 39.08 221.704 40.424C220.744 41.704 219.88 42.664 219.112 43.304C222.568 47.144 224.296 51.656 224.296 56.84L224.392 76.52C224.392 76.84 224.232 77 223.912 77H213.064C212.808 77 212.68 76.904 212.68 76.712V56.84C212.68 54.536 211.848 52.552 210.184 50.888C208.584 49.16 206.6 48.296 204.232 48.296H197.896L197.8 76.52C197.8 76.84 197.672 77 197.416 77H186.568ZM197.896 36.776H206.152C208.136 36.776 209.896 36.04 211.432 34.568C212.968 33.096 213.736 31.304 213.736 29.192C213.736 27.144 212.968 25.384 211.432 23.912C209.96 22.44 208.2 21.704 206.152 21.704H197.896V36.776ZM265.754 77C265.498 77 265.37 76.84 265.37 76.52V65.288H244.634C244.378 65.288 244.25 65.128 244.25 64.808V54.248L265.178 10.568C265.306 10.312 265.498 10.184 265.754 10.184H276.602C276.794 10.184 276.89 10.312 276.89 10.568L276.986 53.864H283.706C284.026 53.864 284.186 54.024 284.186 54.344V64.808C284.186 65.128 284.058 65.288 283.802 65.288H276.986V76.52C276.986 76.84 276.858 77 276.602 77H265.754ZM255.578 53.864H265.37V32.936L255.578 53.864ZM309.739 77.96C305.643 77.96 302.027 77.096 298.891 75.368C295.755 73.576 293.291 71.24 291.499 68.36C289.771 65.416 288.907 62.184 288.907 58.664L289.003 28.232C289.003 24.712 289.867 21.512 291.595 18.632C293.387 15.752 295.851 13.448 298.987 11.72C302.123 9.992 305.707 9.128 309.739 9.128C313.835 9.128 317.419 9.992 320.491 11.72C323.563 13.448 325.963 15.752 327.691 18.632C329.483 21.512 330.379 24.712 330.379 28.232L330.475 58.664C330.475 62.184 329.579 65.416 327.787 68.36C326.059 71.24 323.627 73.576 320.491 75.368C317.419 77.096 313.835 77.96 309.739 77.96ZM318.859 58.664L318.763 28.232C318.763 25.992 317.931 24.168 316.267 22.76C314.603 21.352 312.427 20.648 309.739 20.648C306.987 20.648 304.779 21.352 303.115 22.76C301.451 24.168 300.619 25.992 300.619 28.232V58.664C300.619 61.032 301.451 62.92 303.115 64.328C304.779 65.672 306.987 66.344 309.739 66.344C312.427 66.344 314.603 65.672 316.267 64.328C317.995 62.92 318.859 61.032 318.859 58.664ZM355.848 77C355.592 77 355.464 76.84 355.464 76.52V65.288H334.728C334.472 65.288 334.344 65.128 334.344 64.808V54.248L355.272 10.568C355.4 10.312 355.592 10.184 355.848 10.184H366.696C366.888 10.184 366.984 10.312 366.984 10.568L367.08 53.864H373.8C374.12 53.864 374.28 54.024 374.28 54.344V64.808C374.28 65.128 374.152 65.288 373.896 65.288H367.08V76.52C367.08 76.84 366.952 77 366.696 77H355.848ZM345.672 53.864H355.464V32.936L345.672 53.864Z" fill="white"/>
</g>
<defs>
<filter id="filter0_d_1567_3367" x="0.839996" y="0.12793" width="394.44" height="98.832" filterUnits="userSpaceOnUse" color-interpolation-filters="sRGB">
<feFlood flood-opacity="0" result="BackgroundImageFix"/>
<feColorMatrix in="SourceAlpha" type="matrix" values="0 0 0 0 0 0 0 0 0 0 0 0 0 0 0 0 0 0 127 0" result="hardAlpha"/>
<feOffset dx="6" dy="6"/>
<feGaussianBlur stdDeviation="7.5"/>
<feComposite in2="hardAlpha" operator="out"/>
<feColorMatrix type="matrix" values="0 0 0 0 0 0 0 0 0 0 0 0 0 0 0 0 0 0 0.25 0"/>
<feBlend mode="normal" in2="BackgroundImageFix" result="effect1_dropShadow_1567_3367"/>
<feBlend mode="normal" in="SourceGraphic" in2="effect1_dropShadow_1567_3367" result="shape"/>
</filter>
</defs>
</svg>
