<svg width="119" height="75" viewBox="0 0 119 75" fill="none" xmlns="http://www.w3.org/2000/svg">
<path d="M36.2996 37C54.0996 37 68.4996 50.6 68.4996 67.4C68.4996 68.4 68.4996 68.6 68.3996 69.7C68.3996 70.1 68.2996 70.6 68.2996 71H4.29961C4.09961 69.8 4.09961 68.6 4.09961 67.3C4.09961 50.6 18.4996 37 36.2996 37Z" stroke="black" stroke-width="7" stroke-linecap="round" stroke-linejoin="round"/>
<path d="M36.2998 37C26.3998 37 18.2998 29.6001 18.2998 20.4001C18.2998 11.2001 26.3998 3.80005 36.2998 3.80005C46.1998 3.80005 54.2998 11.2001 54.2998 20.4001C54.2998 29.6001 46.2998 37 36.2998 37Z" stroke="black" stroke-width="7" stroke-linecap="round" stroke-linejoin="round"/>
<path d="M59.4996 46.2C64.5996 41.2 73.0996 37 82.5996 37C100.4 37 114.8 50.6 114.8 67.4C114.8 68.4 114.8 68.6 114.7 69.7C114.7 70.1 114.6 70.6 114.6 71H50.5996" stroke="black" stroke-width="7" stroke-linecap="round" stroke-linejoin="round"/>
<path d="M82.7002 36.7C72.8002 36.7 64.7002 29.3 64.7002 20.1C64.7002 10.9 72.8002 3.5 82.7002 3.5C92.6002 3.5 100.7 10.9 100.7 20.1C100.7 29.3 92.6002 36.7 82.7002 36.7Z" stroke="black" stroke-width="7" stroke-linecap="round" stroke-linejoin="round"/>
</svg>
