<?xml version="1.0" encoding="utf-8"?>
<!-- Generator: Adobe Illustrator 26.0.3, SVG Export Plug-In . SVG Version: 6.00 Build 0)  -->
<svg version="1.1" id="Слой_1" xmlns="http://www.w3.org/2000/svg" xmlns:xlink="http://www.w3.org/1999/xlink" x="0px" y="0px"
	 viewBox="0 0 140.6 129" style="enable-background:new 0 0 140.6 129;" xml:space="preserve">
<style type="text/css">
	.st0{fill:none;stroke:#000000;stroke-width:7;stroke-linecap:round;stroke-linejoin:round;stroke-miterlimit:10;}
</style>
<path class="st0" d="M81.7,7.5H26.7c0,0,8.1,6.8,15.9,14.3c-16,12-31.5,28.6-31.5,55.7c0,7.2,1,14,2.7,20.8
	C20.1,73.1,43.4,56,66.2,44.8l15.4,15.9V7.5z"/>
<path class="st0" d="M65.3,121.6h48.5c0,0-8.1-6.8-15.9-14.3c16-12,31.5-28.6,31.5-55.7c0-7.2-1-14-2.7-20.8
	C120.5,56,97.2,73.2,74.4,84.3L58.9,68.4v46.8C58.9,118.7,61.8,121.6,65.3,121.6z"/>
</svg>
