<svg width="30" height="17" viewBox="0 0 30 17" fill="none" xmlns="http://www.w3.org/2000/svg">
<path d="M15.2052 16.1748C11.8992 16.1748 8.34109 14.8819 4.9156 12.4357C2.35486 10.607 0.774335 8.7954 0.708291 8.71905C0.437731 8.40666 0.437731 7.94295 0.708291 7.63049C0.774335 7.55427 2.35479 5.74249 4.9156 3.91389C8.34116 1.46788 11.8993 0.174805 15.2052 0.174805C18.5113 0.174805 22.0695 1.46781 25.4949 3.91389C28.0556 5.74249 29.6362 7.55421 29.7022 7.63049C29.9728 7.94289 29.9728 8.40659 29.7022 8.71905C29.6362 8.79527 28.0557 10.607 25.4949 12.4357C22.0695 14.8818 18.5114 16.1748 15.2052 16.1748ZM2.47657 8.17487C3.11573 8.8266 4.32201 9.97262 5.9147 11.106C8.0982 12.6597 11.4825 14.5121 15.2052 14.5121C18.928 14.5121 22.3124 12.6597 24.4958 11.106C26.0883 9.97282 27.2946 8.82666 27.9339 8.17487C27.2948 7.52315 26.0885 6.37713 24.4958 5.24374C22.3124 3.68995 18.928 1.83767 15.2052 1.83767C11.4825 1.83767 8.0982 3.68995 5.9147 5.24374C4.3222 6.37693 3.11586 7.52295 2.47657 8.17487Z" fill="black"/>
<path d="M15.1065 13.2416C12.2834 13.2416 9.98669 10.9448 9.98669 8.1218C9.98669 5.29875 12.2834 3.00195 15.1065 3.00195C16.3481 3.00195 17.5458 3.4521 18.4789 4.26956C18.822 4.57008 18.8564 5.09177 18.5559 5.43484C18.2554 5.7779 17.7336 5.81232 17.3906 5.51187C16.7588 4.95833 15.9476 4.65352 15.1065 4.65352C13.194 4.65352 11.6382 6.20942 11.6382 8.1218C11.6382 10.0342 13.194 11.5901 15.1065 11.5901C17.019 11.5901 18.5748 10.0342 18.5748 8.1218C18.5748 7.66577 18.9445 7.29601 19.4005 7.29601C19.8566 7.29601 20.2263 7.66577 20.2263 8.1218C20.2264 10.9448 17.9297 13.2416 15.1065 13.2416Z" fill="black"/>
<path d="M15.1065 9.77285C14.1958 9.77285 13.455 9.03196 13.455 8.12129C13.455 7.21062 14.1958 6.46973 15.1065 6.46973C16.0173 6.46973 16.7581 7.21062 16.7581 8.12129C16.7581 9.03196 16.0173 9.77285 15.1065 9.77285Z" fill="black"/>
<line x1="28.8375" y1="1.35344" x2="1.76056" y2="14.8919" stroke="black" stroke-width="1.5"/>
</svg>
