<svg width="30" height="16" viewBox="0 0 30 16" fill="none" xmlns="http://www.w3.org/2000/svg">
<path d="M14.6999 16C11.3938 16 7.83572 14.7071 4.41023 12.2609C1.84949 10.4322 0.268963 8.6206 0.20292 8.54425C-0.0676399 8.23185 -0.0676399 7.76815 0.20292 7.45569C0.268963 7.37947 1.84942 5.56769 4.41023 3.73908C7.83579 1.29307 11.3939 0 14.6999 0C18.0059 0 21.5641 1.29301 24.9895 3.73908C27.5503 5.56769 29.1308 7.3794 29.1968 7.45569C29.4674 7.76808 29.4674 8.23179 29.1968 8.54425C29.1308 8.62047 27.5503 10.4322 24.9895 12.2609C21.5641 14.707 18.006 16 14.6999 16ZM1.9712 8.00007C2.61036 8.65179 3.81663 9.79781 5.40933 10.9312C7.59283 12.4849 10.9771 14.3373 14.6999 14.3373C18.4227 14.3373 21.807 12.4849 23.9904 10.9312C25.5829 9.79801 26.7893 8.65186 27.4286 8.00007C26.7895 7.34834 25.5831 6.20232 23.9904 5.06894C21.807 3.51515 18.4227 1.66286 14.6999 1.66286C10.9771 1.66286 7.59283 3.51515 5.40933 5.06894C3.81683 6.20212 2.61049 7.34814 1.9712 8.00007Z" fill="black"/>
<path d="M14.7 13.1546C11.8578 13.1546 9.54553 10.8423 9.54553 8.00017C9.54553 5.15803 11.8578 2.8457 14.7 2.8457C15.95 2.8457 17.1558 3.2989 18.0952 4.12188C18.4405 4.42443 18.4753 4.94966 18.1727 5.29504C17.8702 5.64042 17.3449 5.67507 16.9996 5.37259C16.3635 4.81531 15.5467 4.50843 14.6999 4.50843C12.7746 4.50843 11.2082 6.07486 11.2082 8.00017C11.2082 9.92548 12.7746 11.4919 14.6999 11.4919C16.6254 11.4919 18.1917 9.92548 18.1917 8.00017C18.1917 7.54106 18.5639 7.16881 19.023 7.16881C19.4821 7.16881 19.8544 7.54106 19.8544 8.00017C19.8545 10.8423 17.5422 13.1546 14.7 13.1546Z" fill="black"/>
<path d="M14.7 9.66335C13.7831 9.66335 13.0372 8.91745 13.0372 8.00062C13.0372 7.08379 13.7831 6.33789 14.7 6.33789C15.6169 6.33789 16.3627 7.08379 16.3627 8.00062C16.3627 8.91745 15.6169 9.66335 14.7 9.66335Z" fill="black"/>
</svg>
