<svg width="141" height="129" viewBox="0 0 141 129" fill="none" xmlns="http://www.w3.org/2000/svg">
<g clip-path="url(#clip0_317_6)">
<path d="M99.0996 112.2V83.2C99.0996 78.1 94.5996 74 89.0996 74H51.6996C46.0996 74 41.5996 78.1 41.5996 83.3V112.3" stroke="#F9F9F9" stroke-width="7" stroke-linecap="round" stroke-linejoin="round"/>
<path d="M54.0996 112.2V91.9004" stroke="#F9F9F9" stroke-width="7" stroke-linecap="round" stroke-linejoin="round"/>
<path d="M70.7002 64.7996C79.5367 64.7996 86.7002 58.0391 86.7002 49.6996C86.7002 41.3601 79.5367 34.5996 70.7002 34.5996C61.8636 34.5996 54.7002 41.3601 54.7002 49.6996C54.7002 58.0391 61.8636 64.7996 70.7002 64.7996Z" stroke="#F9F9F9" stroke-width="7" stroke-linecap="round" stroke-linejoin="round"/>
<path d="M87.5 112.2V91.9004" stroke="#F9F9F9" stroke-width="7" stroke-linecap="round" stroke-linejoin="round"/>
<path d="M136.6 68.9004V50.3004C136.6 47.1004 134 44.4004 130.7 44.4004H108.9C105.7 44.4004 103 47.1004 103 50.3004V68.9004" stroke="#F9F9F9" stroke-width="7" stroke-linecap="round" stroke-linejoin="round"/>
<path d="M119.8 36.2008C124.936 36.2008 129.1 31.8579 129.1 26.5008C129.1 21.1436 124.936 16.8008 119.8 16.8008C114.664 16.8008 110.5 21.1436 110.5 26.5008C110.5 31.8579 114.664 36.2008 119.8 36.2008Z" stroke="#F9F9F9" stroke-width="7" stroke-linecap="round" stroke-linejoin="round"/>
<path d="M37.6 68.9004V50.3004C37.6 47.1004 35 44.4004 31.7 44.4004H9.9C6.7 44.4004 4 47.1004 4 50.3004V68.9004" stroke="#F9F9F9" stroke-width="7" stroke-linecap="round" stroke-linejoin="round"/>
<path d="M20.8 36.2008C25.9362 36.2008 30.1 31.8579 30.1 26.5008C30.1 21.1436 25.9362 16.8008 20.8 16.8008C15.6638 16.8008 11.5 21.1436 11.5 26.5008C11.5 31.8579 15.6638 36.2008 20.8 36.2008Z" stroke="#F9F9F9" stroke-width="7" stroke-linecap="round" stroke-linejoin="round"/>
</g>
<defs>
<clipPath id="clip0_317_6">
<rect width="140.6" height="129" fill="white"/>
</clipPath>
</defs>
</svg>
