<svg width="24" height="25" viewBox="0 0 24 25" fill="none" xmlns="http://www.w3.org/2000/svg">
<path d="M10.4962 21.4972C16.293 21.4972 20.9924 16.7979 20.9924 11.001C20.9924 5.20411 16.2931 0.504883 10.4962 0.504883C4.69926 0.504883 -1.5586e-05 5.20416 -1.5586e-05 11.0011C-1.5586e-05 16.798 4.69932 21.4972 10.4962 21.4972ZM10.4962 3.50381C14.6368 3.50381 17.9934 6.86043 17.9934 11.0011C17.9934 15.1417 14.6368 18.4983 10.4962 18.4983C6.35553 18.4983 2.99891 15.1417 2.99891 11.0011C2.99891 6.86043 6.35558 3.50381 10.4962 3.50381Z" fill="url(#paint0_linear_648_3256)"/>
<path d="M22.4918 24.496C22.8904 24.4983 23.2735 24.3418 23.5565 24.0612C24.1444 23.478 24.1483 22.5286 23.5651 21.9406C23.5622 21.9377 23.5593 21.9348 23.5565 21.9319L17.9185 16.294C17.3099 15.706 16.3398 15.7228 15.7518 16.3315C15.1638 16.9401 15.1806 17.9102 15.7893 18.4982L21.4272 24.0612C21.7102 24.3418 22.0933 24.4983 22.4918 24.496V24.496Z" fill="url(#paint1_linear_648_3256)"/>
<defs>
<linearGradient id="paint0_linear_648_3256" x1="18.2933" y1="3.15325" x2="-2.89239" y2="20.8869" gradientUnits="userSpaceOnUse">
<stop stop-color="#ADB6CE"/>
<stop offset="1" stop-color="#ADB6CE" stop-opacity="0"/>
</linearGradient>
<linearGradient id="paint1_linear_648_3256" x1="22.8842" y1="16.9528" x2="14.1643" y2="24.2909" gradientUnits="userSpaceOnUse">
<stop stop-color="#ADB6CE"/>
<stop offset="1" stop-color="#ADB6CE" stop-opacity="0"/>
</linearGradient>
</defs>
</svg>
