<svg width="20" height="10" viewBox="0 0 20 10" fill="none" xmlns="http://www.w3.org/2000/svg">
<path d="M19.7709 4.44699C19.7706 4.44675 19.7704 4.44648 19.7702 4.44624L15.688 0.383747C15.3821 0.0794116 14.8875 0.0805441 14.5831 0.386403C14.2787 0.692223 14.2799 1.18687 14.5857 1.49125L17.3265 4.21874H0.78125C0.349766 4.21874 0 4.56851 0 4.99999C0 5.43148 0.349766 5.78124 0.78125 5.78124H17.3264L14.5857 8.50874C14.2799 8.81312 14.2788 9.30776 14.5831 9.61358C14.8875 9.91948 15.3822 9.92054 15.688 9.61624L19.7702 5.55374C19.7704 5.55351 19.7706 5.55324 19.7709 5.553C20.0769 5.24761 20.0759 4.75136 19.7709 4.44699Z" fill="url(#paint0_linear_221_2519)"/>
<defs>
<linearGradient id="paint0_linear_221_2519" x1="-7.75845e-07" y1="9.84374" x2="12.2341" y2="-6.82904" gradientUnits="userSpaceOnUse">
<stop stop-color="#2973FF"/>
<stop offset="0.48974" stop-color="#8846D3"/>
<stop offset="1" stop-color="#FF22AC"/>
</linearGradient>
</defs>
</svg>
