<svg width="38" height="38" viewBox="0 0 38 38" fill="none" xmlns="http://www.w3.org/2000/svg">
<path d="M18.7023 38H15.7335C14.2602 38 13.0616 36.8014 13.0616 35.3281V16.9219C13.0616 15.4486 14.2602 14.25 15.7335 14.25H18.7023C20.1756 14.25 21.3741 15.4486 21.3741 16.9219V35.3281C21.3741 36.8014 20.1755 38 18.7023 38Z" fill="white"/>
<path d="M7.42103 38H4.45227C2.97896 38 1.7804 36.8014 1.7804 35.3281V22.8594C1.7804 21.3861 2.97896 20.1875 4.45227 20.1875H7.42103C8.89434 20.1875 10.0929 21.3861 10.0929 22.8594V35.3281C10.0929 36.8014 8.89427 38 7.42103 38Z" fill="white"/>
<path d="M29.9835 38H27.0148C25.5415 38 24.3429 36.8014 24.3429 35.3281V10.6875H22.7116C21.9489 10.6875 21.2771 10.257 20.9584 9.56413C20.6397 8.87122 20.75 8.08109 21.2464 7.50196C21.2521 7.49535 21.2578 7.48875 21.2636 7.48229L27.6148 0.394992C27.84 0.143613 28.1616 0 28.4992 0C28.8367 0 29.1582 0.143613 29.3835 0.394992L35.7347 7.48229C35.7405 7.48875 35.7463 7.49535 35.7519 7.50196C36.2483 8.08101 36.3586 8.87122 36.0399 9.56413C35.7212 10.257 35.0494 10.6875 34.2867 10.6875H32.6554V35.3281C32.6554 36.8014 31.4568 38 29.9835 38Z" fill="white"/>
</svg>
