<svg width="12" height="13" viewBox="0 0 12 13" fill="none" xmlns="http://www.w3.org/2000/svg">
<path d="M8.68994 0.650024H3.31006C1.48006 0.650024 0 2.09302 0 3.87727V9.11302C0 10.8973 1.48006 12.35 3.31006 12.35H8.68994C10.5099 12.35 12 10.8973 12 9.11302V3.87727C12 2.09302 10.5099 0.650024 8.68994 0.650024ZM10.64 8.96677C10.64 10.0978 9.69003 11.024 8.53003 11.024H3.46997C2.29997 11.024 1.35999 10.0978 1.35999 8.96677V4.03328C1.35999 2.89253 2.29997 1.96628 3.46997 1.96628H8.53003C9.69003 1.96628 10.64 2.89253 10.64 4.03328V8.96677ZM6 3.77977C4.46 3.77977 3.20996 4.99852 3.20996 6.50002C3.20996 7.99177 4.46 9.21052 6 9.21052C7.54 9.21052 8.79004 7.99177 8.79004 6.50002C8.79004 4.99852 7.54 3.77977 6 3.77977ZM6 8.09904C5.09 8.09904 4.35999 7.37752 4.35999 6.50002C4.35999 5.61277 5.09 4.89128 6 4.89128C6.91 4.89128 7.64001 5.61277 7.64001 6.50002C7.64001 7.37752 6.91 8.09904 6 8.09904ZM9.07996 2.73654C8.86996 2.73654 8.55001 2.82429 8.39001 2.98029C8.23001 3.13629 8.14001 3.35076 8.14001 3.56526C8.14001 3.78951 8.23001 4.00403 8.39001 4.16003C8.55001 4.31603 8.77 4.40378 9 4.40378C9.23 4.40378 9.44999 4.31603 9.60999 4.16003C9.76999 4.00403 9.85999 3.78951 9.85999 3.56526C9.85999 3.35076 9.76999 3.13629 9.60999 2.98029C9.44999 2.82429 9.27996 2.73654 9.07996 2.73654Z" fill="white"/>
</svg>
