<svg width="126" height="109" viewBox="0 0 126 109" fill="none" xmlns="http://www.w3.org/2000/svg">
<path d="M97.9998 72.1503C96.2688 72.1503 94.8635 73.7333 94.8635 75.6847V96.9796C94.8635 99.7083 92.8938 101.928 90.4725 101.928H24.6637C22.2424 101.928 20.2728 99.7083 20.2728 96.9796V19.997C21.6152 20.5965 23.0955 20.9528 24.6637 20.9528H90.4752C92.8966 20.9528 94.8663 23.1725 94.8663 25.9011V39.98C94.8663 41.9311 96.271 43.5145 98.0025 43.5145C99.7336 43.5145 101.139 41.9311 101.139 39.98V25.9011C101.139 19.276 96.3564 13.8837 90.4752 13.8837H89.5041V10.4764C89.5041 4.70236 84.7216 0 78.8404 0H24.6637C18.7849 0 14 4.69953 14 10.4764C14 10.7705 14.0652 11.0476 14.0878 11.3332C14.0652 11.5028 14 11.6527 14 11.828V96.982C14 103.61 18.7849 109 24.6637 109H90.4752C96.3564 109 101.139 103.61 101.139 96.982V75.6872C101.136 73.7333 99.7336 72.1503 97.9998 72.1503ZM24.6637 7.07193H78.8404C81.1813 7.07193 83.2315 8.66388 83.2315 10.4792V13.8865H24.6637C22.3252 13.8865 20.2728 12.2946 20.2728 10.4792C20.2728 8.66388 22.3252 7.07193 24.6637 7.07193ZM123.121 48.0925L108.109 40.6615C106.519 39.8754 104.674 40.6869 103.977 42.4768C103.282 44.2638 104.002 46.3478 105.587 47.1339L112.618 50.6119C101.136 54.6243 78.657 61.4729 64.9073 59.0354C63.1962 58.7187 61.5903 60.0477 61.3218 61.9763C61.0533 63.9049 62.2201 65.7144 63.9338 66.0167C66.2323 66.4269 68.7188 66.6077 71.3306 66.6077C86.8621 66.6077 106.732 60.1891 116.336 56.7224L112.4 66.8255C111.704 68.6152 112.425 70.6992 114.011 71.4827C114.422 71.6863 114.848 71.7795 115.27 71.7795C116.477 71.7795 117.626 70.9904 118.146 69.6671L124.74 52.7467C125.427 50.9653 124.707 48.8785 123.121 48.0925Z" fill="black"/>
</svg>
