<svg width="122" height="122" viewBox="0 0 122 122" fill="none" xmlns="http://www.w3.org/2000/svg">
<path d="M61.2 118.4C92.7907 118.4 118.4 92.7907 118.4 61.2C118.4 29.6093 92.7907 4 61.2 4C29.6093 4 4 29.6093 4 61.2C4 92.7907 29.6093 118.4 61.2 118.4Z" stroke="black" stroke-width="7" stroke-miterlimit="10" stroke-linecap="round" stroke-linejoin="round"/>
<path d="M61.2006 118.4C78.3766 118.4 92.3006 92.7907 92.3006 61.2C92.3006 29.6093 78.3766 4 61.2006 4C44.0245 4 30.1006 29.6093 30.1006 61.2C30.1006 92.7907 44.0245 118.4 61.2006 118.4Z" stroke="black" stroke-width="7" stroke-miterlimit="10" stroke-linecap="round" stroke-linejoin="round"/>
<path d="M114.801 42.7H8.10059" stroke="black" stroke-width="7" stroke-miterlimit="10" stroke-linecap="round" stroke-linejoin="round"/>
<path d="M112.901 82.1H8.10059" stroke="black" stroke-width="7" stroke-miterlimit="10" stroke-linecap="round" stroke-linejoin="round"/>
<path d="M61.2002 4V117.1" stroke="black" stroke-width="7" stroke-miterlimit="10" stroke-linecap="round" stroke-linejoin="round"/>
</svg>
