<svg width="17" height="27" viewBox="0 0 17 27" fill="none" xmlns="http://www.w3.org/2000/svg">
<path d="M5.81496 26.9359C6.17213 27.0886 6.58741 26.9611 6.79603 26.6316L16.2882 11.5496C16.4419 11.3054 16.4512 10.9972 16.3122 10.7454C16.1731 10.4928 15.9074 10.336 15.6192 10.336H9.28414L11.6402 0.985697C11.7352 0.607961 11.5429 0.217832 11.1852 0.0641111C10.8299 -0.0888186 10.412 0.0393787 10.2041 0.368441L0.711961 15.4505C0.55824 15.6946 0.548959 16.0028 0.688019 16.2546C0.82708 16.5072 1.09281 16.664 1.38095 16.664H7.71603L5.35997 26.0143C5.26494 26.3921 5.45726 26.7822 5.81496 26.9359Z" fill="white"/>
</svg>
