<svg width="931" height="1708" viewBox="0 0 931 1708" fill="none" xmlns="http://www.w3.org/2000/svg">
<path d="M687.473 0.94018C637.045 66.4931 629.04 158.256 666.529 240.791C687.473 286.8 721.081 329.047 745.196 374.203C769.312 419.349 783.35 471.447 762.407 511.994C734.075 566.816 651.925 581.553 578.261 571.458C504.595 561.353 432.608 532.457 359.005 521.073C258.293 505.49 154.746 525.907 89.5345 583.526C24.3231 641.145 3.03848 737.14 46.3253 820.948C103.137 931.094 256.041 1008.88 274.063 1123.96C284.045 1187.56 247.375 1244.14 200.572 1286.39C153.699 1328.61 95.9402 1361.11 50.9914 1404.99C6.04266 1448.86 -25.8968 1508.8 -8.74231 1572.2M930.401 200.884C859.351 316.188 724.421 386.08 589.971 445.307C455.521 504.534 313.492 559.182 214.695 656.099C131.435 737.811 83.7499 847.46 80.8488 964.064C77.8417 1084.16 120.671 1207.06 150.044 1328.68C179.417 1450.31 194.668 1579.27 139.495 1682.97L930.401 200.884ZM925.054 197.421C857.002 313.03 724.843 384.535 592.109 444.752C459.376 504.959 318.427 560.159 219.552 656.296C140.415 733.035 91.8145 833.725 82.1849 942.239C81.5948 949.15 81.1042 956.021 80.8215 962.982C78.2546 1023.4 87.4365 1084.84 102.25 1146.41C116.738 1207.01 136.253 1267.23 152.043 1327.49C184.266 1449.19 199.674 1579.7 143.298 1683.7L925.054 197.421ZM919.736 193.898C854.754 309.844 725.223 382.879 594.245 444.187C463.268 505.485 323.431 561.158 224.409 656.503C144.447 733.044 94.0397 832.955 82.5347 941.236C81.8053 948.087 81.2152 954.998 80.833 961.999C77.1827 1022.44 85.4405 1084.31 101.008 1146.04C116.073 1206.64 136.949 1266.38 154.042 1326.29C188.777 1448.08 204.649 1580.19 147.17 1684.47L919.736 193.898ZM914.39 190.435C852.476 306.717 725.643 381.334 596.421 443.723C467.2 506.111 328.475 562.267 229.236 656.77C148.451 733.123 96.2371 832.255 82.785 940.274C81.9561 947.164 81.1969 954.085 80.6765 961.025C75.9438 1021.49 83.376 1083.75 99.5688 1145.75C115.21 1206.35 137.548 1265.56 155.842 1325.17C193.26 1447.05 209.456 1580.7 150.844 1685.31L914.39 190.435ZM909.043 186.972C850.158 303.489 725.995 379.758 598.559 443.168C471.124 506.567 333.698 563.529 234.094 656.967C152.633 733.362 98.4643 831.486 83.1348 939.272C82.1676 946.102 81.3089 953.062 80.6491 959.943C74.8629 1020.37 81.3711 1083.05 98.2196 1145.25C114.436 1205.85 138.235 1264.54 157.733 1323.84C197.832 1445.81 214.353 1581 154.568 1685.84L909.043 186.972ZM903.696 183.519C847.879 300.373 726.414 378.213 600.665 442.672C474.916 507.132 338.642 564.667 238.821 657.282C156.576 733.579 100.53 830.894 83.3543 938.379C82.218 945.218 81.2907 952.149 80.5314 959.068C73.6628 1019.52 79.4438 1082.55 96.8485 1144.99C113.741 1205.55 139.002 1263.72 159.671 1322.79C202.453 1444.84 219.298 1581.57 158.381 1686.75L903.696 183.519ZM898.379 179.987C845.562 297.145 726.795 376.557 602.802 442.107C478.809 507.657 343.716 565.707 243.678 657.479C160.648 733.688 102.758 830.125 83.7051 937.376C82.4991 944.186 81.4016 951.126 80.4743 958.055C72.5232 1018.54 77.409 1081.92 95.5083 1144.65C112.977 1205.22 139.699 1262.87 161.571 1321.63C207.064 1443.7 224.205 1582.04 162.153 1687.55L898.379 179.987ZM893.032 176.534C843.284 294.018 727.215 375.012 605.008 441.583C482.801 508.144 348.79 566.736 248.604 657.707C164.82 733.756 105.054 829.385 84.0549 936.374C82.6798 943.193 81.5136 950.103 80.5156 957.003C71.4822 1017.51 75.5434 1081.28 94.2974 1144.21C112.372 1204.72 140.525 1261.9 163.63 1320.29C211.875 1442.48 229.201 1582.3 166.017 1688.14L893.032 176.534ZM887.685 173.071C841.006 290.901 727.597 373.367 607.115 441.088C486.634 508.809 353.734 567.884 253.362 657.943C168.724 733.875 107.181 828.655 84.3052 935.412C82.8604 942.201 81.5252 949.12 80.3591 956.029C70.2422 1016.57 73.3794 1080.76 92.8588 1143.92C111.508 1204.43 141.192 1261.12 165.431 1319.17C216.426 1441.47 233.978 1582.87 169.69 1688.99L887.685 173.071ZM882.338 169.618C838.658 287.743 728.017 371.821 609.222 440.593C490.428 509.374 358.778 568.983 258.189 658.22C172.766 734.053 109.377 827.955 84.6241 934.479C83.0113 941.278 81.6063 948.167 80.3407 955.116C69.1713 1015.61 71.3835 1080.23 91.5872 1143.62C110.814 1204.13 141.989 1260.23 167.469 1318.08C221.246 1440.42 239.022 1583.4 173.562 1689.75L882.338 169.618ZM876.991 166.155C836.379 284.626 728.368 370.235 611.398 440.138C494.429 510.031 363.822 570.093 262.986 658.556C176.739 734.2 111.544 827.324 84.8447 933.585C83.1621 940.354 81.5881 947.253 80.1832 954.142C68.001 1014.69 69.3179 1079.66 90.1475 1143.33C109.949 1203.84 142.656 1259.45 169.269 1316.96C225.827 1439.35 243.829 1583.91 177.236 1690.59L876.991 166.155ZM871.674 162.632C834.062 281.399 728.819 368.621 613.565 439.503C498.313 510.386 368.856 571.022 267.873 658.683C180.842 734.24 113.871 826.515 85.2243 932.513C83.3726 939.292 81.7299 946.161 80.2255 953.089C66.96 1013.67 67.3826 1079 88.9366 1142.89C109.315 1203.4 143.582 1258.45 171.298 1315.69C230.608 1438.2 248.864 1584.27 181.139 1691.29L871.674 162.632ZM866.327 159.169C831.813 278.202 729.169 367.045 615.672 439.008C502.176 510.982 373.831 572.1 272.701 658.95C184.814 734.388 116.067 825.816 85.5442 931.581C83.6239 938.33 81.7425 945.177 80.1386 952.146C65.7897 1012.75 65.3878 1078.46 87.5964 1142.56C108.551 1203.07 144.348 1257.62 173.198 1314.53C235.358 1437.12 253.771 1584.73 184.842 1692.06L866.327 159.169ZM860.98 155.716C829.535 275.086 729.589 365.489 617.848 438.554C506.108 511.608 378.845 573.269 277.527 659.227C188.887 734.497 118.264 825.116 85.7945 930.618C83.7051 937.376 81.754 944.195 80.0108 951.103C64.5795 1011.74 63.2823 1077.81 86.1865 1142.2C107.717 1202.71 145.075 1256.7 175.098 1313.38C240.039 1436.01 258.677 1585.2 188.615 1692.86L860.98 155.716ZM855.632 152.253C827.188 271.928 729.94 363.913 619.985 437.989C510.031 512.064 383.849 574.278 282.384 659.424C192.89 734.576 120.461 824.415 86.1443 929.616C83.9156 936.314 81.865 943.172 80.0233 950.12C63.5394 1010.71 61.3173 1077.2 84.9458 1141.83C107.052 1202.34 145.872 1255.81 177.096 1312.18C244.919 1434.82 263.652 1585.7 192.487 1693.63L855.632 152.253ZM850.286 148.8C824.909 268.801 730.36 362.368 622.092 437.493C513.823 512.628 388.823 575.356 287.112 659.729C196.793 734.694 122.558 823.755 86.3648 928.723C84.0366 935.461 81.8467 942.258 79.8359 949.215C62.2686 1009.83 59.192 1076.78 83.4752 1141.61C106.159 1202.12 146.539 1255.03 178.866 1311.13C249.47 1433.81 268.429 1586.28 196.091 1694.44L850.286 148.8ZM844.969 145.268C822.591 265.583 730.811 360.753 624.229 436.938C517.647 513.123 393.758 576.324 291.969 659.936C200.796 734.773 124.785 822.985 86.7145 927.721C84.247 934.398 81.9587 941.236 79.8783 948.163C61.2286 1008.81 57.2568 1076.11 82.2643 1141.17C105.524 1201.68 147.465 1254.03 180.895 1309.86C254.35 1432.62 273.465 1586.64 199.994 1695.13L844.969 145.268ZM839.622 141.815C820.313 262.457 731.162 359.167 626.435 436.404C521.709 513.641 398.832 577.364 296.896 660.164C204.899 734.812 127.081 822.246 87.0643 926.719C84.4974 933.436 82.0697 940.213 79.8212 947.15C60.0881 1007.82 55.2221 1075.48 80.9252 1140.84C104.76 1201.35 148.261 1253.13 182.865 1308.74C259.2 1431.5 278.44 1587.14 203.837 1695.97L839.622 141.815ZM834.274 138.352C818.035 259.34 731.612 357.553 628.542 435.909C525.472 514.275 403.806 578.432 301.653 660.4C208.802 734.93 129.207 821.516 87.3147 925.756C84.6084 932.413 82.0812 939.23 79.763 946.136C58.9475 1006.84 53.1863 1074.85 79.6137 1140.44C103.956 1200.92 149.157 1252.2 184.794 1307.51C264.01 1430.28 283.376 1587.53 207.57 1696.67L834.274 138.352ZM828.859 134.868C815.617 256.151 731.893 355.946 630.579 435.393C529.265 514.84 408.642 579.449 306.411 660.635C212.805 735.008 131.335 820.786 87.565 924.792C84.7602 931.49 82.0938 938.246 79.6065 945.162C57.7384 1005.82 51.0919 1074.36 78.2039 1140.08C103.123 1200.56 149.884 1251.28 186.624 1306.32C268.721 1429.1 288.144 1587.94 211.274 1697.44L828.859 134.868ZM823.511 131.405C813.338 253.024 732.314 354.401 632.756 434.928C533.198 515.456 413.686 580.558 311.207 660.982C216.679 735.196 133.502 820.155 87.7845 923.899C84.8414 930.536 82.0755 937.333 79.4191 944.258C56.4676 1004.94 48.9269 1073.84 76.6647 1139.82C102.159 1200.31 150.482 1250.47 188.325 1305.24C273.302 1428.03 292.82 1588.56 214.847 1698.33L823.511 131.405ZM818.194 127.882C811.051 249.737 732.695 352.745 634.923 434.294C537.15 515.842 418.65 581.457 316.095 661.109C220.742 735.136 135.759 819.315 88.165 922.827C85.0519 929.474 82.2173 936.24 79.4912 943.137C55.4573 1003.85 47.0214 1073.1 75.4836 1139.32C101.525 1199.88 151.437 1249.4 190.453 1303.94C278.311 1426.73 297.956 1588.88 218.81 1698.88L818.194 127.882ZM812.847 124.419C808.772 246.61 733.115 351.2 637.029 433.808C540.944 516.417 423.625 582.535 320.922 661.376C224.745 735.215 137.955 818.615 88.4841 921.895C85.3022 928.511 82.2687 935.357 79.4033 942.193C54.287 1002.93 44.926 1072.61 74.1136 1139.05C100.73 1199.62 152.204 1248.57 192.323 1302.85C283.131 1425.68 302.832 1589.42 222.553 1699.75L812.847 124.419ZM807.5 120.956C806.495 243.493 733.467 349.624 639.136 433.313C544.807 517.002 428.56 583.503 325.679 661.622C228.649 735.332 140.053 817.955 88.6359 920.972C85.2849 927.598 82.1818 934.413 79.2169 941.289C53.0182 1002.06 42.762 1072.09 72.6739 1138.76C99.7977 1199.3 152.901 1247.72 194.124 1301.73C287.842 1424.5 307.639 1589.92 226.227 1700.6L807.5 120.956ZM802.153 117.504C804.147 240.335 733.886 348.079 641.343 432.779C548.799 517.489 433.564 584.512 330.605 661.849C232.681 735.342 142.349 817.216 89.0543 920C85.6337 926.596 82.2918 933.391 79.2583 940.236C52.0757 1000.99 40.8656 1071.52 71.4332 1138.39C99.132 1198.93 153.797 1246.79 196.122 1300.53C292.721 1423.31 312.644 1590.35 230.029 1701.33L802.153 117.504ZM796.806 114.041C801.868 237.208 734.237 346.493 643.45 432.293C552.662 518.084 438.538 585.59 335.333 662.155C236.585 735.46 144.446 816.555 89.2748 919.106C85.6851 925.712 82.2745 932.477 79.1415 939.362C50.8755 1000.15 38.602 1071.04 70.0631 1138.13C98.2086 1198.78 154.663 1245.93 198.062 1299.48C297.641 1422.21 317.59 1590.92 233.842 1702.23L796.806 114.041ZM791.489 110.518C799.551 233.991 734.687 344.878 645.586 431.728C556.485 518.579 443.473 586.558 340.19 662.352C240.618 735.47 146.673 815.785 89.555 918.073C85.8956 924.65 82.3158 931.424 79.0137 938.319C49.6653 999.129 36.5365 1070.47 68.6522 1137.77C97.3052 1198.39 155.39 1245.01 199.892 1298.29C302.381 1420.96 322.396 1591.43 237.546 1703.01L791.489 110.518ZM786.142 107.055C797.272 230.864 735.038 343.302 647.793 431.204C560.547 519.097 448.508 587.497 345.116 662.59C244.65 735.478 148.969 815.046 89.9744 917.101C86.1458 923.687 82.4965 930.431 79.0561 937.266C48.6243 998.104 34.6012 1069.8 67.4413 1137.33C96.6702 1197.95 156.346 1243.94 201.921 1297.02C307.321 1419.63 327.431 1591.79 241.408 1703.6L786.142 107.055ZM780.795 103.602C794.995 227.737 735.489 341.687 649.9 430.709C564.311 519.731 453.334 588.344 349.875 662.825C248.406 735.368 151.096 814.316 90.2247 916.139C86.3275 922.695 82.509 929.448 78.9691 936.322C47.4549 997.188 32.5366 1069.24 66.1021 1137C95.907 1197.62 157.142 1243.04 203.821 1295.86C312.201 1418.44 332.338 1592.25 245.182 1704.4L780.795 103.602ZM775.448 100.139C792.646 224.589 735.84 340.101 652.006 430.214C568.173 520.326 458.238 589.382 354.701 663.092C252.478 735.477 153.293 813.616 90.5447 915.206C86.4784 921.77 82.5902 928.495 78.8812 935.379C46.3144 996.201 30.5408 1068.71 64.7311 1136.74C95.1121 1197.36 158.038 1242.11 205.789 1294.74C317.369 1416.97 337.313 1592.75 248.954 1705.21L775.448 100.139ZM770.131 96.6165C790.428 221.323 736.29 338.486 654.213 429.69C572.136 520.883 463.312 590.421 359.529 663.369C256.451 735.624 155.559 812.945 90.7949 914.244C86.5893 920.749 82.6027 927.512 78.824 934.365C45.1739 995.216 28.4762 1068.15 63.4207 1136.34C94.3787 1196.96 158.865 1241.15 207.719 1293.51C322.08 1415.79 342.18 1593.12 252.758 1705.94L770.131 96.6165ZM764.783 93.1535C788.08 218.175 736.641 336.91 656.35 429.125C576.058 521.339 468.287 591.49 364.385 663.566C260.484 735.634 157.785 812.176 91.1447 913.241C48.7164 977.636 22.4429 1059.79 62.0805 1136.01C93.6145 1196.63 159.661 1240.26 209.619 1292.35C326.86 1414.63 347.086 1593.59 256.531 1706.74L764.783 93.1535ZM762.276 90.1838C783.262 213.298 733.592 331.554 656.65 423.078C580.056 514.165 474.835 580.896 376.632 654.269C353.392 671.667 330.636 690.442 306.848 708.926C272.732 735.315 237.952 761.333 205.812 788.491C169.86 818.946 137.024 851.157 108.909 887.133C105.463 891.495 102.126 895.986 98.8586 900.507C67.8492 942.812 44.2622 994.082 44.1535 1047.07C44.0631 1071.74 49.1184 1096.9 60.9872 1121.54C72.9755 1146.47 90.7499 1168.88 111.338 1190.11C141.928 1221.58 178.265 1250.42 208.844 1282.3C234.666 1309.16 255.893 1338.66 271.752 1369.71C289.986 1405.57 300.856 1443.04 305.191 1479.99C310.036 1519.96 307.372 1559.58 297.551 1597.27C287.798 1634.98 270.928 1670.87 247.977 1702.32L762.276 90.1838ZM759.84 87.2351C778.415 208.491 730.644 326.169 657.05 416.992C584.054 506.992 481.422 570.392 388.979 644.933C366.881 662.745 345.81 683.149 322.129 702.333C288.27 729.659 251.772 755.268 218.313 781.28C181.024 810.253 146.96 840.534 117.368 874.968C113.743 879.169 110.258 883.432 106.743 887.764C73.8494 928.515 47.9996 978.727 45.755 1031.7C44.6917 1056.53 48.781 1082.01 59.9347 1107.16C71.1761 1132.68 88.5917 1155.92 109.188 1177.9C139.767 1210.35 176.887 1239.86 208.041 1272.32C234.437 1299.76 256.269 1329.76 271.799 1361.58C289.813 1398.33 298.923 1436.44 301.708 1473.55C304.695 1513.63 300.254 1552.97 289.329 1590.92C278.335 1628.85 261.036 1665.53 239.433 1698.06L759.84 87.2351ZM757.332 84.2554C773.528 203.584 727.655 320.684 657.35 410.945C588.182 499.72 487.92 560.098 401.256 635.566C380.269 653.861 360.844 675.795 337.241 695.759C303.539 724.054 265.423 749.212 230.675 774.009C192.087 801.599 156.757 829.852 125.618 862.711C121.814 866.754 118.081 870.828 114.418 874.931C79.531 913.999 51.5578 963.213 47.1772 1016.17C45.1002 1041.06 48.3351 1066.99 58.7727 1092.66C69.3677 1118.72 86.2544 1142.81 106.959 1165.49C137.486 1198.83 175.36 1229.07 207.227 1262.17C234.198 1290.18 256.536 1320.73 271.906 1353.3C289.599 1390.99 297.119 1429.73 298.255 1467.03C299.484 1507.18 293.235 1546.32 281.167 1584.44C269.03 1622.53 251.203 1660.06 230.88 1693.63L757.332 84.2554ZM754.826 81.2859C768.641 198.676 724.636 315.258 657.651 404.898C592.179 492.546 494.327 550.012 413.503 626.269C393.498 645.146 375.958 668.632 352.423 689.207C318.948 718.507 279.174 743.116 243.107 766.768C203.181 792.875 166.662 819.297 134.007 850.515C130.056 854.33 126.143 858.243 122.231 862.158C85.3918 899.642 55.1549 947.799 48.7388 1000.71C45.6879 1025.75 47.9589 1052.01 57.7491 1078.22C67.6678 1104.9 84.126 1129.78 104.908 1153.24C135.423 1187.56 174.01 1218.44 206.562 1252.24C234.109 1280.84 256.951 1311.94 272.091 1345.23C289.535 1383.88 295.394 1423.22 294.88 1460.72C294.282 1500.9 286.325 1539.8 273.085 1578.15C259.775 1616.48 241.449 1654.78 222.475 1689.43L754.826 81.2859ZM752.319 78.3062C763.754 193.768 721.647 309.772 657.982 398.782C596.199 485.133 500.745 540.097 425.78 616.903C406.827 636.402 391.061 661.309 367.605 682.655C334.385 712.892 292.993 737.049 255.509 759.596C214.284 784.319 176.498 808.714 142.296 838.358C138.097 841.983 134.007 845.739 129.986 849.523C91.1224 885.394 58.762 932.552 50.2407 985.376C46.1462 1010.54 47.522 1037.16 56.5962 1063.89C65.8386 1091.18 81.7988 1116.84 102.689 1141C133.152 1176.2 172.562 1207.85 205.689 1242.23C233.81 1271.4 257.258 1303.01 272.068 1337.07C289.222 1376.58 293.461 1416.62 291.228 1454.29C288.871 1494.53 279.107 1533.23 264.655 1571.72C250.202 1610.21 231.348 1649.35 213.723 1685.08L752.319 78.3062ZM749.81 75.3366C758.866 188.861 718.688 304.217 658.282 392.735C600.226 477.9 507.142 530.421 438.027 607.606C420.026 627.756 406.135 654.055 382.786 676.112C349.724 707.317 306.713 731.023 267.87 752.326C225.447 775.626 186.293 798.03 150.615 826.132C146.267 829.529 141.998 833.125 137.73 836.72C96.9126 871.007 62.3202 917.039 51.7326 969.877C46.6642 995.199 47.1448 1022.17 55.5028 1049.41C64.0681 1077.32 79.5997 1103.78 100.498 1128.69C130.95 1164.88 171.074 1197.16 204.914 1232.18C233.61 1261.93 257.563 1294.08 272.144 1328.86C289.047 1369.34 291.656 1409.92 287.744 1447.84C283.629 1488.15 272.057 1526.65 256.432 1565.38C240.807 1604.1 221.455 1644.02 205.178 1680.82L749.81 75.3366ZM747.304 72.3571C753.98 183.953 715.631 298.691 658.612 386.618C604.244 470.486 513.688 520.967 450.304 598.239C433.255 619.051 421.169 646.701 397.898 669.529C365.062 701.736 320.464 724.927 280.232 745.054C236.54 766.902 196.06 787.417 158.865 813.877C154.339 817.114 149.851 820.451 145.405 823.886C102.564 856.561 65.7491 901.633 53.1549 954.348C47.0737 979.728 46.6303 1007.13 54.3409 1034.91C62.1602 1063.4 77.2624 1090.67 98.2684 1116.28C128.738 1153.38 169.576 1186.31 204.001 1222.07C233.272 1252.39 257.761 1285.02 272.082 1320.6C288.665 1362.01 289.683 1403.22 284.152 1441.27C278.278 1481.65 264.929 1519.87 248.132 1558.83C231.334 1597.79 211.483 1638.48 196.486 1676.33L747.304 72.3571ZM744.797 69.3874C749.063 179.115 712.702 293.066 658.912 380.571C608.232 463.143 533.47 523.81 462.551 588.942C450.611 613.194 436.243 639.447 413.081 662.977C380.431 696.096 334.254 718.93 292.634 737.882C247.644 758.347 205.896 776.832 167.224 801.75C162.519 804.828 157.854 808.005 153.188 811.182C108.356 842.175 69.3164 886.288 54.6866 938.949C47.5619 964.455 46.2233 992.209 53.2188 1020.51C60.3907 1049.54 75.0346 1077.68 96.0787 1103.97C126.566 1141.98 168.088 1175.62 203.227 1212.01C233.143 1242.95 258.137 1276.13 272.258 1312.36C288.621 1354.66 287.949 1396.54 280.769 1434.79C273.136 1475.23 257.98 1513.25 240.04 1552.38C222.03 1591.47 201.721 1633.04 188.072 1671.96L744.797 69.3874ZM742.359 66.4385C744.245 174.238 709.743 287.511 659.312 374.476C612.28 455.669 541.662 515.325 474.997 579.558C464.634 604.748 451.515 632.116 428.431 656.416C396.008 690.538 348.212 712.923 305.234 730.631C259.015 749.743 215.93 766.169 175.712 789.515C170.789 792.334 166.014 795.382 161.171 798.399C114.245 827.748 73.013 870.834 56.4164 923.47C48.3178 949.134 46.0848 977.242 52.3632 1006.06C58.8589 1035.71 73.0047 1064.62 94.1267 1091.68C124.533 1130.65 166.908 1164.98 202.691 1201.98C233.182 1233.49 258.711 1267.15 272.572 1304.18C288.615 1347.41 286.383 1389.85 277.523 1428.36C268.163 1468.8 251.169 1506.69 231.986 1546.02C212.804 1585.36 191.996 1627.69 179.696 1667.69L742.359 66.4385ZM739.852 63.469C739.357 169.33 706.775 281.786 659.612 368.429C616.229 448.225 549.824 506.9 487.243 570.261C478.488 596.3 466.589 624.862 443.543 649.843C411.307 684.868 361.962 706.83 317.596 723.361C270.108 741.019 225.796 755.516 184.001 777.358C178.9 780.018 173.878 782.876 168.856 785.735C119.907 813.47 76.4818 855.528 57.779 908.08C48.6368 933.87 45.5097 962.336 51.072 991.664C56.8208 1021.9 70.6068 1051.64 91.8375 1079.41C122.261 1119.29 165.32 1154.33 201.718 1192.01C232.784 1224.1 258.819 1258.3 272.45 1296.05C288.243 1340.25 284.42 1383.32 273.771 1421.97C262.653 1462.47 243.881 1500.09 223.526 1539.66C203.201 1579.16 181.866 1622.34 170.914 1663.41L739.852 63.469ZM737.346 60.4894C734.47 164.423 703.737 276.03 659.913 362.382C620.109 440.76 557.917 498.445 499.49 560.964C492.313 587.931 481.664 617.598 458.695 643.361C426.685 679.388 375.723 700.901 329.968 716.259C281.251 732.563 235.572 745.071 192.261 765.272C186.981 767.772 181.741 770.372 176.54 773.071C125.529 799.092 79.8809 840.192 59.2113 892.72C49.0255 918.637 45.0042 947.458 49.9191 977.331C54.9916 1008.18 68.3491 1038.73 89.5881 1067.24C120.03 1108.04 163.772 1143.78 200.885 1182.1C232.525 1214.76 259.135 1249.54 272.466 1287.99C287.94 1333.12 282.556 1376.75 270.258 1415.6C257.451 1456.2 236.802 1493.58 215.305 1533.31C193.807 1573.05 171.973 1617 162.331 1659.05L737.346 60.4894ZM734.839 57.5097C729.584 159.515 711.683 276.323 660.244 356.265C614.284 427.711 566.11 489.95 511.767 551.597C506.098 579.462 496.697 610.244 473.906 636.739C442.083 673.668 389.612 694.864 342.429 708.948C292.484 723.899 245.467 734.349 200.679 753.005C195.251 755.277 189.803 757.787 184.384 760.228C131.349 784.636 85.1456 825.496 60.8026 877.181C48.7405 902.865 44.6966 932.5 48.9252 962.82C53.3214 994.281 66.1809 1025.6 87.5267 1054.82C117.918 1096.5 162.414 1132.98 200.17 1171.91C232.386 1205.15 259.531 1240.41 272.602 1279.65C287.855 1325.67 280.851 1370.01 266.835 1409.01C252.269 1449.68 229.813 1486.86 207.173 1526.76C184.502 1566.73 162.17 1611.46 153.877 1654.58L734.839 57.5097ZM732.361 54.4704C724.795 154.569 709.49 270.517 660.643 350.18C617.717 420.131 574.302 481.466 524.113 542.261C520.021 571.055 511.871 602.952 489.087 630.196C457.452 668.028 403.401 688.865 354.831 701.776C303.656 715.374 255.303 723.764 208.969 740.849C203.293 742.931 197.695 745.213 192.098 747.494C137.001 770.19 86.9069 809.373 62.2638 861.752C49.9929 887.922 44.2199 917.552 47.7335 948.387C51.3828 980.433 63.8824 1012.59 85.2374 1042.55C115.616 1085.21 160.895 1122.36 199.297 1161.89C232.087 1195.72 259.738 1231.52 272.579 1271.48C287.512 1318.44 278.948 1363.34 263.252 1402.61C246.957 1443.27 222.694 1480.25 198.851 1520.45C175.039 1560.59 152.178 1606.16 145.233 1650.36L732.361 54.4704ZM729.854 51.4909C719.908 149.661 707.227 264.68 660.974 344.063C621.05 412.589 582.494 472.971 536.391 532.895C533.876 562.617 526.975 595.628 504.299 623.574C472.89 662.408 417.221 682.807 367.223 694.431C314.819 706.677 265.13 713.012 217.318 728.554C211.494 730.408 205.718 732.529 199.912 734.721C142.792 755.803 90.4354 793.927 63.8253 846.282C50.5109 872.579 43.8437 902.566 46.7098 933.945C49.6829 966.605 61.6844 999.534 83.1471 1030.2C113.544 1073.78 159.537 1111.56 198.592 1151.87C231.958 1186.27 260.213 1222.58 272.795 1263.34C287.478 1311.26 276.419 1356.4 259.908 1396.23C242.828 1437.37 215.784 1473.73 190.729 1514.07C165.744 1554.44 142.315 1600.76 136.789 1646.06L729.854 51.4909ZM727.346 48.5212C714.991 144.823 704.885 258.652 661.274 338.016C624.423 405.148 590.588 464.516 548.637 523.597C547.7 554.249 541.979 588.344 519.45 617.092C488.228 656.838 431.051 676.909 379.624 687.266C325.922 698.127 274.935 702.499 225.607 716.397C219.604 718.091 213.581 720.025 207.627 721.987C148.444 741.356 93.8632 778.522 65.2874 830.854C50.8598 857.247 43.4367 887.648 45.5867 919.543C47.8139 952.787 59.4854 986.479 80.9276 1017.96C111.342 1062.45 158.019 1100.94 197.718 1141.86C231.659 1176.84 260.42 1213.69 272.771 1255.18C287.164 1303.96 275.418 1350.12 256.325 1389.82C236.583 1430.64 208.635 1467.19 182.438 1507.7C156.24 1548.2 132.353 1595.39 128.106 1641.74L727.346 48.5212ZM724.91 45.5725C710.174 139.946 688.45 246.709 661.674 331.93C639.518 402.435 598.85 456.052 561.014 514.192C561.585 545.741 557.183 580.982 534.763 610.431C503.697 651.149 444.97 670.802 392.156 679.983C337.225 689.489 284.97 691.836 234.096 704.16C227.845 705.667 221.742 707.4 215.54 709.174C154.295 726.831 97.4613 763.107 66.9484 815.345C51.4783 841.865 43.1599 872.623 44.5938 905.031C46.1438 938.889 57.3869 973.386 78.9368 1005.57C109.368 1050.98 156.799 1090.2 197.143 1131.73C231.659 1167.28 260.925 1204.69 273.047 1246.89C287.12 1296.61 273.853 1343.44 253.001 1383.2C231.57 1424.12 201.776 1460.36 174.376 1501.17C147.006 1541.92 122.62 1589.88 119.722 1637.3L724.91 45.5725ZM722.403 42.6028C705.287 135.038 685.264 240.721 661.974 325.883C643.179 394.698 606.944 447.606 573.261 504.895C575.41 537.363 572.257 573.728 549.845 603.927C518.965 645.548 458.731 664.873 404.488 672.787C348.328 680.939 294.737 681.22 242.316 691.976C235.917 693.251 229.536 694.866 223.185 696.412C159.877 712.354 100.752 747.643 68.3409 799.885C51.8272 826.532 42.5847 857.715 43.402 890.598C44.2051 925.041 55.0197 960.341 76.6475 993.302C107.028 1039.59 155.212 1079.55 196.171 1121.76C231.261 1157.89 261.132 1195.8 272.925 1238.77C286.748 1289.45 271.92 1336.84 249.319 1376.84C226.229 1417.78 194.528 1453.86 165.985 1494.84C137.442 1535.82 112.558 1584.55 111.009 1633.05L722.403 42.6028ZM719.895 39.6232C700.4 130.131 681.968 234.602 662.305 319.767C646.801 386.88 615.136 439.112 585.538 495.528C589.294 528.855 587.36 566.405 565.056 597.305C534.403 639.929 472.52 658.874 416.949 665.472C359.53 672.339 304.632 670.495 250.735 679.714C244.157 680.826 237.628 682.21 231.099 683.594C165.728 697.828 104.379 732.158 70.002 784.377C52.375 811.121 42.308 842.688 42.4779 876.117C42.6046 911.174 52.9908 947.277 74.6558 980.913C105.055 1028.12 153.923 1068.79 195.596 1111.62C231.33 1148.36 261.637 1186.8 273.23 1230.42C286.763 1281.96 270.384 1330.08 246.064 1370.25C221.216 1411.25 187.707 1447.13 158.022 1488.27C128.336 1529.42 102.925 1579 102.724 1628.57L719.895 39.6232ZM717.388 36.6536C695.512 125.223 678.643 228.562 662.605 313.72C650.283 378.99 623.228 430.656 597.785 486.232C603.118 520.486 602.364 559.12 580.208 590.822C549.742 634.358 486.279 652.945 429.321 658.367C370.742 663.92 314.408 660.049 258.994 667.62C252.238 668.58 245.491 669.711 238.753 671.002C171.32 683.522 107.679 716.862 71.4034 769.086C52.7339 795.957 41.7717 827.879 41.2255 861.823C40.6063 897.465 50.6327 934.401 72.3367 968.713C102.724 1016.9 152.305 1058.21 194.623 1101.65C230.932 1138.97 261.775 1177.88 273.177 1222.33C286.459 1274.83 268.49 1323.58 242.451 1363.91C215.915 1405.02 180.559 1440.59 149.63 1481.94C118.773 1523.32 92.8624 1573.67 93.9417 1624.29L717.388 36.6536ZM714.881 33.674C690.626 120.315 675.178 222.451 662.906 307.673C653.736 371.17 631.391 422.231 610.032 476.934C616.874 512.087 617.437 551.867 595.319 584.249C565.011 628.747 500.039 647.026 441.682 651.102C381.875 655.29 324.204 649.373 267.313 655.396C260.339 656.095 253.383 657.133 246.497 658.202C177.001 669.008 111.136 701.388 72.8954 753.588C53.1127 780.554 41.3248 812.863 40.1322 847.351C38.8358 883.606 48.3949 921.247 70.146 956.403C100.551 1005.5 150.887 1047.55 193.818 1091.67C230.703 1129.56 262.12 1169.05 273.223 1214.19C286.186 1267.63 266.725 1316.97 238.938 1357.54C210.712 1398.74 173.48 1434.08 141.378 1475.66C109.348 1517.28 82.9405 1568.4 85.3673 1620.1L714.881 33.674ZM712.375 30.6944C685.739 115.408 671.645 216.319 663.236 301.557C657.12 363.319 639.514 413.716 622.308 467.568C630.728 503.649 632.472 544.512 610.502 577.697C580.38 623.107 513.829 641.027 454.045 643.826C392.978 646.74 334.07 638.718 275.564 643.142C268.411 643.678 261.307 644.485 254.173 645.362C182.683 654.484 114.457 685.855 74.3186 738.058C53.5221 765.083 40.8491 797.916 38.9702 832.849C36.9279 869.689 46.1272 908.162 67.9174 943.994C98.3398 994.008 149.36 1036.76 193.005 1081.52C230.464 1119.99 262.417 1159.95 273.26 1205.89C286.003 1260.22 264.921 1310.27 235.376 1350.9C205.461 1392.19 166.352 1427.3 133.109 1469.05C99.8654 1510.8 72.9986 1562.8 76.7748 1615.57L712.375 30.6944ZM709.867 27.7247C680.821 110.57 667.943 210.186 663.537 295.51C660.433 355.447 647.677 405.291 634.555 458.271C644.552 495.281 647.546 537.249 625.683 571.145C595.718 617.526 527.658 635.129 466.446 636.651C404.121 638.28 343.906 628.133 283.922 631.01C276.591 631.394 269.269 631.948 262.026 632.693C188.474 640.101 118.024 670.506 75.919 722.689C54.0104 749.81 40.5127 783.028 37.9167 818.476C35.1982 855.929 43.968 895.207 65.8361 931.814C96.2768 982.741 148.01 1026.13 192.269 1071.56C230.304 1110.61 262.763 1151.13 273.376 1197.79C285.799 1253.05 263.226 1303.69 231.931 1344.55C200.328 1385.94 159.371 1420.75 124.956 1462.74C90.5401 1504.72 63.1751 1557.49 68.3296 1611.27L709.867 27.7247ZM707.43 24.7759C676.004 105.693 664.211 204.131 663.936 289.424C663.748 347.566 655.869 396.797 646.932 448.865C658.506 486.794 662.749 529.887 640.964 564.553C611.256 611.868 541.548 629.092 478.977 629.378C415.423 629.642 353.841 617.509 292.341 618.747C284.861 618.9 277.331 619.361 269.84 619.924C194.256 625.547 121.483 655.036 77.4806 707.22C54.5284 734.468 40.1355 768.041 36.8931 804.034C33.4286 842.072 41.8695 882.113 63.7458 919.465C94.2346 971.236 146.692 1015.43 191.566 1061.54C230.175 1101.17 263.209 1142.26 273.522 1189.61C285.694 1245.84 261.531 1297.11 228.518 1338.14C195.226 1379.62 152.392 1414.19 116.833 1456.35C81.2754 1498.51 53.3826 1552.12 59.8159 1606.94L707.43 24.7759ZM704.922 21.8063C671.116 100.785 660.239 198.054 664.236 283.377C666.863 339.772 664.031 388.372 659.178 439.569C672.261 478.395 677.684 522.571 656.076 557.98C626.415 606.136 555.308 623.163 491.309 622.172C426.496 621.161 363.607 606.893 300.63 606.594C292.902 606.553 285.223 606.783 277.554 607.183C199.907 611.103 124.872 639.524 78.9417 691.789C54.8773 719.135 39.6598 753.094 35.7003 789.602C31.5586 828.254 39.571 869.099 61.4556 907.195C91.9627 959.879 145.104 1004.78 190.622 1051.5C229.806 1091.7 263.376 1133.27 273.429 1181.42C285.312 1238.51 259.597 1290.51 224.865 1331.7C189.915 1373.22 145.104 1407.59 108.373 1449.98C71.6427 1492.38 43.2507 1546.76 51.0334 1602.66L704.922 21.8063ZM702.416 18.8268C666.299 95.9084 656.169 192.016 664.568 277.261C669.978 331.968 672.155 379.857 671.526 430.233C686.215 469.918 692.858 515.279 671.328 551.459C641.894 600.617 569.138 617.264 503.81 614.958C437.739 612.663 373.543 596.268 309.02 594.391C301.143 594.129 293.286 594.197 285.368 594.414C205.659 596.609 128.331 624.054 80.5043 676.316C55.4261 703.724 39.2836 738.107 34.6787 775.16C29.7901 814.396 37.373 856.044 59.3663 894.846C89.8907 948.444 143.715 994.051 189.948 1041.41C229.707 1082.19 263.782 1124.3 273.675 1173.21C285.307 1231.26 258.002 1283.89 221.581 1325.18C184.912 1366.86 138.285 1400.87 100.381 1443.49C62.4774 1486.12 33.5874 1541.28 42.7186 1598.25L702.416 18.8268ZM699.908 15.8571C661.412 91.0007 651.9 186.056 664.868 271.214C672.964 324.282 672.686 372.502 683.772 420.936C693.549 463.613 707.931 508.025 686.509 544.906C657.261 594.977 582.967 611.366 516.241 607.723C448.94 604.074 383.378 585.683 317.408 582.199C309.353 581.775 301.248 581.659 293.251 581.666C211.509 582.087 131.858 608.614 82.1345 660.884C55.9431 688.379 38.8766 723.189 33.7236 760.747C28.0891 800.568 35.3431 842.98 57.3139 882.596C87.8575 937.108 142.366 983.422 189.312 1031.42C229.646 1072.77 264.326 1115.4 273.89 1165.06C285.202 1224.05 256.376 1277.34 218.236 1318.8C179.809 1360.54 131.374 1394.34 92.327 1437.14C53.2814 1479.93 23.8633 1535.93 34.3431 1593.99L699.908 15.8571ZM697.401 12.8775C656.525 86.0931 647.541 180.314 665.168 265.167C675.85 316.626 682.418 364.266 696.02 411.639C708.516 455.078 722.935 500.741 701.591 538.403C672.501 589.435 596.657 605.416 528.544 600.587C459.984 595.652 393.184 575.177 325.598 570.084C317.365 569.498 309.111 569.151 300.866 568.974C217.061 567.681 135.188 593.242 83.4972 645.489C56.1935 673.091 38.3701 708.311 32.4314 746.354C26.051 786.759 32.9461 830.004 54.956 870.296C85.5159 925.721 140.779 972.772 188.269 1021.41C229.179 1063.35 264.364 1106.52 273.728 1156.84C284.82 1216.72 254.403 1270.65 214.445 1312.31C174.328 1354.14 124.017 1387.71 83.7975 1430.74C43.579 1473.77 13.6629 1530.55 25.4224 1589.64L697.401 12.8775ZM694.894 9.89785C651.607 81.255 643.013 174.571 665.498 259.05C678.806 309.01 692.169 355.79 708.296 402.272C723.642 446.355 738.039 493.417 716.803 531.781C687.899 583.725 610.516 599.449 541.005 593.283C471.186 587.063 403.08 564.453 334.017 557.822C325.565 556.973 317.133 556.464 308.68 556.205C222.912 553.159 138.676 577.702 84.989 629.996C56.6717 657.646 37.9242 693.298 31.3391 731.883C24.2815 772.901 30.6785 816.921 52.8648 857.947C83.3445 914.325 139.39 962.044 187.595 1011.32C229.079 1053.83 264.77 1097.55 273.903 1148.6C284.676 1209.41 252.738 1264 211.061 1305.82C169.255 1347.75 117.097 1381.02 75.7056 1424.29C34.3143 1467.55 3.89901 1525.1 17.007 1585.28L694.894 9.89785ZM692.417 6.85857C646.75 76.2776 638.455 168.897 665.828 252.924C681.633 301.502 701.873 347.043 720.573 392.906C738.759 437.472 753.142 486.094 731.984 525.228C703.307 578.176 624.285 593.69 553.367 586.007C482.23 578.642 412.876 553.767 342.267 545.558C333.637 544.557 324.986 543.795 316.355 543.364C228.514 538.443 141.996 562.17 86.4114 614.461C56.9817 642.218 37.4087 678.251 30.1762 717.38C22.3736 758.983 28.4109 803.836 50.6054 845.607C81.1034 902.9 137.862 951.255 186.682 1001.21C228.841 1044.26 265.037 1088.52 273.841 1140.34C284.363 1202.11 250.874 1257.43 207.439 1299.32C164.013 1341.38 109.908 1374.38 67.3053 1417.78C24.7013 1461.18 -6.24082 1519.58 8.28533 1580.86L692.417 6.85857ZM689.979 3.90985C641.933 71.4009 633.848 163.532 666.229 246.838C684.598 294.047 711.566 338.126 732.919 383.57C754.076 428.511 768.316 478.802 747.265 518.637C718.775 572.497 638.175 587.652 565.869 578.793C493.502 570.084 422.781 543.212 350.725 533.396C341.917 532.233 333.088 531.309 324.239 530.626C234.405 524.011 145.485 546.62 88.0425 599.03C57.5296 626.804 37.1021 663.296 29.1535 702.936C20.6737 745.155 26.2815 790.811 48.515 833.258C79.0303 891.464 136.474 940.526 185.978 991.188C228.711 1034.81 265.413 1079.63 274.057 1132.19C284.289 1194.83 249.278 1250.81 204.125 1292.87C159.011 1335.02 103.028 1367.79 59.2822 1411.36C15.5063 1455 -15.935 1514.16 -0.0593588 1576.52L689.979 3.90985Z" stroke="url(#paint0_linear_314_57)" stroke-width="0.5" stroke-miterlimit="10"/>
<defs>
<linearGradient id="paint0_linear_314_57" x1="753.105" y1="349.694" x2="-16.6512" y2="1808.87" gradientUnits="userSpaceOnUse">
<stop stop-color="#FF22AC" stop-opacity="0.45"/>
<stop offset="0.48974" stop-color="#8846D3" stop-opacity="0.39"/>
<stop offset="1" stop-color="#2973FF" stop-opacity="0.11"/>
</linearGradient>
</defs>
</svg>
