<svg width="10" height="11" viewBox="0 0 10 11" fill="none" xmlns="http://www.w3.org/2000/svg">
<g clip-path="url(#clip0_1431_2947)">
<path d="M9.97385 4.04808C9.90801 3.84559 9.72841 3.70223 9.51677 3.68308L6.63006 3.42101L5.48922 0.750066C5.40499 0.553835 5.21333 0.427185 5.00001 0.427185C4.78669 0.427185 4.59496 0.553835 4.51127 0.750066L3.37042 3.42101L0.48326 3.68308C0.271617 3.70262 0.0923996 3.84597 0.0261753 4.04808C-0.0396675 4.25057 0.0211398 4.47266 0.181207 4.61305L2.36333 6.52645L1.71993 9.36021C1.67285 9.56857 1.75373 9.78403 1.92661 9.909C2.01954 9.97652 2.12872 10.0102 2.23828 10.0102C2.33243 10.0102 2.42665 9.98522 2.51081 9.93487L5.00001 8.4465L7.48876 9.93487C7.67134 10.044 7.90091 10.034 8.07341 9.909C8.2463 9.78403 8.32717 9.56857 8.2801 9.36021L7.6367 6.52645L9.81882 4.61305C9.97881 4.47266 10.0397 4.25103 9.97385 4.04808Z" fill="url(#paint0_linear_1431_2947)"/>
</g>
<defs>
<linearGradient id="paint0_linear_1431_2947" x1="3.86795e-08" y1="6.92418" x2="9.87403" y2="6.74981" gradientUnits="userSpaceOnUse">
<stop stop-color="#679FEF"/>
<stop offset="1" stop-color="#A87FFF"/>
</linearGradient>
<clipPath id="clip0_1431_2947">
<rect width="10" height="10" fill="white" transform="translate(0 0.212524)"/>
</clipPath>
</defs>
</svg>
