<svg width="58" height="59" viewBox="0 0 58 59" fill="none" xmlns="http://www.w3.org/2000/svg">
<path d="M29 0.0100098C45.01 0.0100098 57.99 13 57.99 29.01C57.99 45.03 45.01 58.01 29 58.01C12.99 58.01 0.0100098 45.03 0.0100098 29.01C0.0100098 13 12.99 0.0100098 29 0.0100098Z" fill="white"/>
<path d="M29 6.01001C41.7 6.01001 51.99 16.3 51.99 29C51.99 41.69 41.7 51.98 29 51.98C16.3 51.98 6.01001 41.69 6.01001 29C6.01001 16.3 16.3 6.01001 29 6.01001Z" fill="#E7E7E7" stroke="#E7E7E7" stroke-width="2"/>
<path d="M0.0100098 30.62L44.87 4L48.49 10.27L3.63002 36.89L0.0100098 30.62ZM5.89001 40.82L50.76 14.2L57.99 26.75L13.13 53.37L5.89001 40.82Z" fill="white"/>
<path d="M29 11.99C38.39 11.99 46.01 19.61 46.01 29C46.01 38.39 38.39 46 29 46C19.61 46 11.99 38.39 11.99 29C11.99 19.61 19.61 11.99 29 11.99Z" fill="#C5C5C5"/>
<path d="M29 14.01C37.29 14.01 44.01 20.72 44.01 29C44.01 37.28 37.29 43.99 29 43.99C20.71 43.99 13.99 37.28 13.99 29C13.99 20.72 20.71 14.01 29 14.01Z" fill="#E7E7E7"/>
<path d="M32 18L51.89 39.49V58H45.7899L25.95 37.94V19.06L32 18Z" fill="#C5C5C5"/>
<path d="M27.5 31.99H30.5C31.32 31.99 31.99 32.66 31.99 33.49V36.5C31.99 37.33 31.32 38 30.5 38H27.5C26.68 38 26.01 37.33 26.01 36.5V33.49C26.01 32.66 26.68 31.99 27.5 31.99ZM27.5 17.99H30.5C31.32 17.99 31.99 18.7 31.99 19.56V28.44C31.99 29.3 31.32 30.01 30.5 30.01H27.5C26.68 30.01 26.01 29.3 26.01 28.44V19.56C26.01 18.7 26.68 17.99 27.5 17.99Z" fill="white"/>
</svg>
