<svg width="46" height="46" viewBox="0 0 46 46" fill="none" xmlns="http://www.w3.org/2000/svg">
<path d="M45.6791 16.5183L40.5399 3.14292C39.566 0.614424 36.7288 -0.645032 34.2029 0.329796C34.1662 0.343979 34.1297 0.358546 34.0933 0.373592L8.41111 11.0304C5.96569 12.0345 4.7638 14.8054 5.70059 17.2796L6.40675 19.1663H4.78688C2.14442 19.1693 0.00296786 21.3129 0 23.9581V41.2083C0.00296786 43.8534 2.14442 45.997 4.78688 46H37.3376C39.9801 45.997 42.1215 43.8534 42.1245 41.2083V23.9581C42.123 23.698 42.0999 23.4385 42.0556 23.1822L42.9448 22.8219C45.412 21.8096 46.6246 19.0141 45.6791 16.5183ZM4.78688 20.6998H37.3376C39.0567 20.7047 40.4748 22.0486 40.5736 23.7665H1.55095C1.64975 22.0485 3.06781 20.7046 4.78688 20.6998ZM12.4849 16.0813L17.6042 13.5183L18.6566 16.1534L13.5373 18.7156L12.4849 16.0813ZM40.5927 41.2084C40.5906 43.0071 39.1345 44.4646 37.3376 44.4667H4.78688C2.98998 44.4646 1.53391 43.0071 1.5318 41.2084V31.4333H40.5927V41.2084ZM40.5927 29.8999H1.5318V25.2999H40.5927V29.8999ZM42.3704 21.4051L41.57 21.7294C40.7433 20.1555 39.1141 19.1689 37.3376 19.1664H16.0625L19.9724 17.2091C20.3289 17.031 20.4895 16.6089 20.3415 16.2385L18.7171 12.1751C18.56 11.782 18.1143 11.5907 17.7216 11.7479C17.7018 11.7559 17.6823 11.7646 17.6633 11.7742L11.1692 15.0264C10.813 15.2048 10.6528 15.6268 10.8008 15.997L12.0676 19.1664H8.04195L7.13513 16.7453C6.49225 15.0454 7.31798 13.1421 8.99779 12.4519L34.6792 1.79511C36.3961 1.08248 38.365 1.89794 39.077 3.61654C39.0881 3.64327 39.0988 3.6702 39.1092 3.69723L44.2483 17.0727C44.8985 18.7876 44.0657 20.7089 42.3704 21.4051Z" fill="url(#paint0_linear_2319_8582)"/>
<path d="M27.5509 42.3108C28.9781 43.1408 30.7406 43.1408 32.1678 42.3108C34.3623 43.5871 37.1749 42.8408 38.4498 40.6441C39.7248 38.4473 38.9793 35.6319 36.7848 34.3557C36.0804 33.9461 35.2801 33.7312 34.4655 33.7332C33.6581 33.7335 32.8652 33.9483 32.1678 34.3557C29.9733 33.0795 27.1608 33.8256 25.8858 36.0224C24.6109 38.2192 25.3564 41.0345 27.5509 42.3108ZM33.4484 35.4537C33.7742 35.3335 34.1183 35.2702 34.4655 35.2666C36.1575 35.2666 37.5291 36.6396 37.5291 38.3333C37.5291 40.027 36.1575 41.4 34.4655 41.4C34.1183 41.3964 33.7742 41.3331 33.4484 41.2129C34.8044 39.5331 34.8044 37.1335 33.4484 35.4537ZM32.1678 36.3261C33.1891 37.4691 33.1891 39.1975 32.1678 40.3405C31.1466 39.1975 31.1466 37.469 32.1678 36.3261ZM29.8701 35.2666C30.2174 35.2701 30.5615 35.3335 30.8872 35.4537C29.5312 37.1335 29.5312 39.5332 30.8872 41.2129C30.5615 41.3331 30.2174 41.3964 29.8701 41.4C28.1782 41.4 26.8065 40.027 26.8065 38.3333C26.8065 36.6395 28.1782 35.2666 29.8701 35.2666Z" fill="url(#paint1_linear_2319_8582)"/>
<path d="M32.3072 15.8223L32.9294 17.2235L40.2361 13.9722L39.6139 12.5711L32.3072 15.8223Z" fill="url(#paint2_linear_2319_8582)"/>
<path d="M37.9836 9.32522L27.4296 14.2015L28.0713 15.5931L38.6252 10.7168L37.9836 9.32522Z" fill="url(#paint3_linear_2319_8582)"/>
<defs>
<linearGradient id="paint0_linear_2319_8582" x1="1.77926e-07" y1="31.1865" x2="45.4216" y2="30.4178" gradientUnits="userSpaceOnUse">
<stop stop-color="#679FEF"/>
<stop offset="1" stop-color="#A87FFF"/>
</linearGradient>
<linearGradient id="paint1_linear_2319_8582" x1="1.77926e-07" y1="31.1865" x2="45.4216" y2="30.4178" gradientUnits="userSpaceOnUse">
<stop stop-color="#679FEF"/>
<stop offset="1" stop-color="#A87FFF"/>
</linearGradient>
<linearGradient id="paint2_linear_2319_8582" x1="1.77926e-07" y1="31.1865" x2="45.4216" y2="30.4178" gradientUnits="userSpaceOnUse">
<stop stop-color="#679FEF"/>
<stop offset="1" stop-color="#A87FFF"/>
</linearGradient>
<linearGradient id="paint3_linear_2319_8582" x1="1.77926e-07" y1="31.1865" x2="45.4216" y2="30.4178" gradientUnits="userSpaceOnUse">
<stop stop-color="#679FEF"/>
<stop offset="1" stop-color="#A87FFF"/>
</linearGradient>
</defs>
</svg>
