<svg width="53" height="57" viewBox="0 0 53 57" fill="none" xmlns="http://www.w3.org/2000/svg">
<path d="M46.6876 57.0001H18.1876C14.9149 57.0001 12.2501 54.3377 12.2501 51.0626V15.4376C12.2501 12.1624 14.9149 9.50006 18.1876 9.50006H46.6876C49.9604 9.50006 52.6251 12.1624 52.6251 15.4376V51.0626C52.6251 54.3377 49.9604 57.0001 46.6876 57.0001ZM18.1876 11.8751C16.2235 11.8751 14.6251 13.4734 14.6251 15.4376V51.0626C14.6251 53.0267 16.2235 54.6251 18.1876 54.6251H46.6876C48.6518 54.6251 50.2501 53.0267 50.2501 51.0626V15.4376C50.2501 13.4734 48.6518 11.8751 46.6876 11.8751H18.1876Z" fill="url(#paint0_linear_2326_11267)"/>
<path d="M8.6875 49.875H6.3125C3.03975 49.875 0.375 47.2126 0.375 43.9375V5.9375C0.375 2.66238 3.03975 0 6.3125 0H34.8125C38.0853 0 40.75 2.66238 40.75 5.9375C40.75 6.593 40.218 7.125 39.5625 7.125C38.907 7.125 38.375 6.593 38.375 5.9375C38.375 3.97337 36.7766 2.375 34.8125 2.375H6.3125C4.34838 2.375 2.75 3.97337 2.75 5.9375V43.9375C2.75 45.9016 4.34838 47.5 6.3125 47.5H8.6875C9.343 47.5 9.875 48.032 9.875 48.6875C9.875 49.343 9.343 49.875 8.6875 49.875Z" fill="url(#paint1_linear_2326_11267)"/>
<path d="M41.9379 40.3751H22.9379C22.2824 40.3751 21.7504 39.8431 21.7504 39.1876C21.7504 38.5321 22.2824 38.0001 22.9379 38.0001H41.9379C42.5933 38.0001 43.1254 38.5321 43.1254 39.1876C43.1254 39.8431 42.5933 40.3751 41.9379 40.3751Z" fill="url(#paint2_linear_2326_11267)"/>
<path d="M41.9379 49.875H22.9379C22.2824 49.875 21.7504 49.343 21.7504 48.6875C21.7504 48.032 22.2824 47.5 22.9379 47.5H41.9379C42.5933 47.5 43.1254 48.032 43.1254 48.6875C43.1254 49.343 42.5933 49.875 41.9379 49.875Z" fill="url(#paint3_linear_2326_11267)"/>
<path d="M41.9379 30.875H22.9379C22.2824 30.875 21.7504 30.343 21.7504 29.6875C21.7504 29.032 22.2824 28.5 22.9379 28.5H41.9379C42.5933 28.5 43.1254 29.032 43.1254 29.6875C43.1254 30.343 42.5933 30.875 41.9379 30.875Z" fill="url(#paint4_linear_2326_11267)"/>
<path d="M41.9379 21.3749H22.9379C22.2824 21.3749 21.7504 20.8429 21.7504 20.1874C21.7504 19.5319 22.2824 18.9999 22.9379 18.9999H41.9379C42.5933 18.9999 43.1254 19.5319 43.1254 20.1874C43.1254 20.8429 42.5933 21.3749 41.9379 21.3749Z" fill="url(#paint5_linear_2326_11267)"/>
<defs>
<linearGradient id="paint0_linear_2326_11267" x1="0.375" y1="38.6441" x2="51.9705" y2="37.8438" gradientUnits="userSpaceOnUse">
<stop stop-color="#679FEF"/>
<stop offset="1" stop-color="#A87FFF"/>
</linearGradient>
<linearGradient id="paint1_linear_2326_11267" x1="0.375" y1="38.6441" x2="51.9705" y2="37.8438" gradientUnits="userSpaceOnUse">
<stop stop-color="#679FEF"/>
<stop offset="1" stop-color="#A87FFF"/>
</linearGradient>
<linearGradient id="paint2_linear_2326_11267" x1="0.375" y1="38.6441" x2="51.9705" y2="37.8438" gradientUnits="userSpaceOnUse">
<stop stop-color="#679FEF"/>
<stop offset="1" stop-color="#A87FFF"/>
</linearGradient>
<linearGradient id="paint3_linear_2326_11267" x1="0.375" y1="38.6441" x2="51.9705" y2="37.8438" gradientUnits="userSpaceOnUse">
<stop stop-color="#679FEF"/>
<stop offset="1" stop-color="#A87FFF"/>
</linearGradient>
<linearGradient id="paint4_linear_2326_11267" x1="0.375" y1="38.6441" x2="51.9705" y2="37.8438" gradientUnits="userSpaceOnUse">
<stop stop-color="#679FEF"/>
<stop offset="1" stop-color="#A87FFF"/>
</linearGradient>
<linearGradient id="paint5_linear_2326_11267" x1="0.375" y1="38.6441" x2="51.9705" y2="37.8438" gradientUnits="userSpaceOnUse">
<stop stop-color="#679FEF"/>
<stop offset="1" stop-color="#A87FFF"/>
</linearGradient>
</defs>
</svg>
