<svg width="111" height="30" viewBox="0 0 111 30" fill="none" xmlns="http://www.w3.org/2000/svg">
<path fill-rule="evenodd" clip-rule="evenodd" d="M13.336 0H4.69209C4.10051 0 3.59744 0.432686 3.50504 1.02077L0.00904237 23.3351C-0.0603466 23.7756 0.278456 24.1723 0.722049 24.1723H4.84857C5.44015 24.1723 5.94321 23.74 6.03562 23.1508L6.97838 17.1321C7.06937 16.5429 7.5735 16.1102 8.16402 16.1102H10.9003C16.5941 16.1102 19.8801 13.3363 20.7386 7.83966C21.1252 5.43459 20.7549 3.54524 19.6362 2.22188C18.4077 0.768783 16.2287 0 13.336 0ZM14.3327 8.15008C13.8601 11.2726 11.4902 11.2726 9.19896 11.2726H7.89438L8.80954 5.44098C8.86406 5.08849 9.1671 4.82902 9.52113 4.82902H10.1191C11.68 4.82902 13.1524 4.82902 13.9132 5.72469C14.367 6.25895 14.5058 7.05304 14.3327 8.15008Z" fill="white"/>
<path fill-rule="evenodd" clip-rule="evenodd" d="M39.3942 7.88034H35.255C34.9024 7.88034 34.5975 8.1398 34.5434 8.4923L34.36 9.65777L34.0708 9.23542C33.1747 7.92596 31.1762 7.48828 29.182 7.48828C24.6077 7.48828 20.701 10.9761 19.9402 15.8686C19.5447 18.309 20.1069 20.6428 21.4823 22.2702C22.7437 23.7664 24.5485 24.3901 26.6957 24.3901C30.3815 24.3901 32.4249 22.0043 32.4249 22.0043L32.2404 23.1623C32.171 23.6049 32.5099 24.002 32.951 24.002H36.6792C37.2722 24.002 37.7728 23.5693 37.8663 22.9801L40.1033 8.71755C40.1741 8.27845 39.8364 7.88034 39.3942 7.88034ZM33.6243 15.9909C33.225 18.3714 31.3483 19.9695 28.9544 19.9695C27.7524 19.9695 26.792 19.5814 26.1749 18.8461C25.5631 18.1158 25.3309 17.0762 25.5253 15.9182C25.8984 13.558 27.8066 11.9075 30.1641 11.9075C31.3394 11.9075 32.2949 12.301 32.9244 13.0423C33.5549 13.7918 33.8052 14.8379 33.6243 15.9909Z" fill="white"/>
<path fill-rule="evenodd" clip-rule="evenodd" d="M61.1216 8.2373H56.9618C56.5649 8.2373 56.1921 8.43583 55.9673 8.768L50.2303 17.2752L47.7985 9.09982C47.6456 8.58837 47.1769 8.2373 46.6458 8.2373H42.5586C42.0615 8.2373 41.7167 8.72595 41.8746 9.19677L46.4564 22.7326L42.149 28.8544C41.8102 29.3366 42.1515 29.9995 42.7367 29.9995H46.8912C47.2855 29.9995 47.6544 29.806 47.8782 29.4806L61.7128 9.37604C62.0441 8.89524 61.7039 8.2373 61.1216 8.2373Z" fill="white"/>
<path fill-rule="evenodd" clip-rule="evenodd" d="M74.988 0H66.343C65.7529 0 65.2498 0.432686 65.1574 1.02077L61.6614 23.3351C61.592 23.7756 61.9308 24.1723 62.3719 24.1723H66.8082C67.2199 24.1723 67.5725 23.8697 67.637 23.4573L68.6293 17.1321C68.7203 16.5429 69.2248 16.1102 69.8149 16.1102H72.5501C78.245 16.1102 81.53 13.3363 82.3896 7.83966C82.7776 5.43459 82.4048 3.54524 81.2861 2.22188C80.0587 0.768783 77.8811 0 74.988 0ZM75.9854 8.15008C75.5138 11.2726 73.144 11.2726 70.8513 11.2726H69.5485L70.4647 5.44098C70.5189 5.08849 70.8198 4.82902 71.1749 4.82902H71.7728C73.3323 4.82902 74.8061 4.82902 75.5669 5.72469C76.0208 6.25895 76.1585 7.05304 75.9854 8.15008Z" fill="#298FC2"/>
<path fill-rule="evenodd" clip-rule="evenodd" d="M101.041 7.88034H96.9042C96.5491 7.88034 96.2471 8.1398 96.194 8.4923L96.0107 9.65777L95.72 9.23542C94.824 7.92596 92.8269 7.48828 90.8323 7.48828C86.2583 7.48828 82.3531 10.9761 81.5923 15.8686C81.1979 18.309 81.7576 20.6428 83.1326 22.2702C84.3969 23.7664 86.1988 24.3901 88.3464 24.3901C92.0318 24.3901 94.0756 22.0043 94.0756 22.0043L93.8911 23.1623C93.8217 23.6049 94.1602 24.002 94.6041 24.002H98.3313C98.9214 24.002 99.4245 23.5693 99.5169 22.9801L101.755 8.71755C101.823 8.27845 101.485 7.88034 101.041 7.88034ZM95.2712 15.9909C94.8744 18.3714 92.9949 19.9695 90.6009 19.9695C89.4015 19.9695 88.4386 19.5814 87.8215 18.8461C87.2101 18.1158 86.98 17.0762 87.1719 15.9182C87.5475 13.558 89.4532 11.9075 91.8106 11.9075C92.986 11.9075 93.9415 12.301 94.571 13.0423C95.204 13.7918 95.4543 14.8379 95.2712 15.9909Z" fill="#298FC2"/>
<path fill-rule="evenodd" clip-rule="evenodd" d="M105.576 0.613387L102.029 23.3362C101.959 23.7767 102.298 24.1734 102.739 24.1734H106.306C106.899 24.1734 107.401 23.741 107.492 23.1519L110.991 0.83864C111.06 0.398114 110.722 0 110.281 0H106.287C105.934 0.00106924 105.631 0.260894 105.576 0.613387Z" fill="#298FC2"/>
</svg>
