<svg width="136" height="116" viewBox="0 0 136 116" fill="none" xmlns="http://www.w3.org/2000/svg">
<g clip-path="url(#clip0_261_36)">
<path d="M62.8033 17.6351L24.8427 86.1796C18.505 86.1233 15.682 84.011 15.5356 83.8744L15.1451 83.513C15.0374 83.3672 14.9447 83.2111 14.8684 83.0471C13.2434 79.155 11.903 75.1529 10.8576 71.0715C10.5973 69.3447 10.4101 67.7061 10.2718 66.156C9.90939 61.9388 9.90939 57.6988 10.2718 53.4816C10.4427 51.578 10.6623 49.9315 10.8657 48.6625C11.7656 44.5406 13.1102 40.5258 14.8766 36.6869C14.9529 36.5229 15.0455 36.3668 15.1532 36.221L15.5437 35.8596C15.7145 35.707 19.4488 32.8958 28.0399 33.691C30.3654 33.9174 32.6642 34.3584 34.9064 35.0082C35.9721 35.3134 36.8508 35.6186 37.4772 35.8114L37.9409 35.9479C38.0656 35.955 38.1905 35.955 38.3152 35.9479C38.8928 35.8997 56.8643 20.5347 62.8033 17.6351Z" fill="#E5E4E4"/>
<path d="M76.3163 59.8508C76.3163 59.8508 76.3163 91.3681 67.538 100.974L66.7245 101.858C65.9765 102.366 65.0753 102.607 64.1699 102.54C60.5252 102.308 38.9496 83.8181 38.3069 83.7458C38.1823 83.7387 38.0573 83.7387 37.9327 83.7458L37.4689 83.8823C36.8425 84.1072 35.9639 84.4124 34.8981 84.6855C34.5157 84.798 34.1415 84.8943 33.7754 84.9907L69.2221 20.9281C71.9882 25.2734 76.3163 35.5141 76.3163 59.8508Z" fill="#E5E4E4"/>
<path d="M9.93672 110.133L24.9411 83.6458L63.5571 15.4591L75.6483 -5.88217" fill="#E5E4E4"/>
<path d="M9.93672 110.133L24.9411 83.6458L63.5571 15.4591L75.6483 -5.88217" stroke="#E5E4E4" stroke-width="4" stroke-miterlimit="10" stroke-linecap="square"/>
</g>
<defs>
<clipPath id="clip0_261_36">
<rect width="66" height="100" fill="white" transform="translate(10 3)"/>
</clipPath>
</defs>
</svg>
