<svg width="76" height="81" viewBox="0 0 76 81" fill="none" xmlns="http://www.w3.org/2000/svg">
<path d="M75.3506 40.451C75.3403 40.9755 75.214 41.4912 74.9806 41.961C74.7149 42.4644 74.3174 42.886 73.8306 43.181L5.02057 80.391H4.96056C4.86582 80.4509 4.76533 80.5011 4.66057 80.541C4.22619 80.7467 3.75124 80.8527 3.27057 80.851C2.84031 80.851 2.41427 80.7661 2.01688 80.6011C1.61949 80.4362 1.25856 80.1944 0.954779 79.8897C0.651 79.585 0.410347 79.2233 0.246603 78.8254C0.0828594 78.4275 -0.000745452 78.0012 0.000570343 77.571V3.32096C-0.00983563 2.76467 0.122305 2.21498 0.38442 1.72421C0.646536 1.23343 1.0299 0.817908 1.49802 0.517189C1.96614 0.216471 2.50343 0.040564 3.05875 0.0062183C3.61408 -0.0281274 4.16896 0.0802179 4.67057 0.320961V0.320961C4.7679 0.3631 4.86156 0.413283 4.95057 0.47097V0.47097C10.5506 3.40097 71.6406 35.471 73.9506 37.731C74.7434 38.4288 75.2434 39.4003 75.3506 40.451V40.451Z" fill="#E5E4E4"/>
</svg>
