<svg width="153" height="166" viewBox="0 0 153 166" fill="none" xmlns="http://www.w3.org/2000/svg">
<path d="M7.19727 152.611H11.5586V154.491H7.19727V159.432H5.19922V154.491H0.837891V152.611H5.19922V148.045H7.19727V152.611Z" fill="#757E99"/>
<path d="M42.1973 117.611H46.5586V119.491H42.1973V124.432H40.1992V119.491H35.8379V117.611H40.1992V113.045H42.1973V117.611Z" fill="#757E99"/>
<path d="M77.1973 12.6107H81.5586V14.4906H77.1973V19.432H75.1992V14.4906H70.8379V12.6107H75.1992V8.04529H77.1973V12.6107Z" fill="#757E99"/>
<path d="M77.1973 47.6107H81.5586V49.4906H77.1973V54.432H75.1992V49.4906H70.8379V47.6107H75.1992V43.0453H77.1973V47.6107Z" fill="#757E99"/>
<path d="M77.1973 82.6107H81.5586V84.4906H77.1973V89.432H75.1992V84.4906H70.8379V82.6107H75.1992V78.0453H77.1973V82.6107Z" fill="#6246E5"/>
<path d="M77.1973 117.611H81.5586V119.491H77.1973V124.432H75.1992V119.491H70.8379V117.611H75.1992V113.045H77.1973V117.611Z" fill="#757E99"/>
<path d="M77.1973 152.611H81.5586V154.491H77.1973V159.432H75.1992V154.491H70.8379V152.611H75.1992V148.045H77.1973V152.611Z" fill="#757E99"/>
<path d="M112.197 12.6107H116.559V14.4906H112.197V19.432H110.199V14.4906H105.838V12.6107H110.199V8.04529H112.197V12.6107Z" fill="#757E99"/>
<path d="M112.197 47.6107H116.559V49.4906H112.197V54.432H110.199V49.4906H105.838V47.6107H110.199V43.0453H112.197V47.6107Z" fill="#757E99"/>
<path d="M112.197 82.6107H116.559V84.4906H112.197V89.432H110.199V84.4906H105.838V82.6107H110.199V78.0453H112.197V82.6107Z" fill="#757E99"/>
<path d="M112.197 117.611H116.559V119.491H112.197V124.432H110.199V119.491H105.838V117.611H110.199V113.045H112.197V117.611Z" fill="#757E99"/>
<path d="M112.197 152.611H116.559V154.491H112.197V159.432H110.199V154.491H105.838V152.611H110.199V148.045H112.197V152.611Z" fill="#757E99"/>
<path d="M147.197 12.6107H151.559V14.4906H147.197V19.432H145.199V14.4906H140.838V12.6107H145.199V8.04529H147.197V12.6107Z" fill="url(#paint0_linear_221_2439)"/>
<path d="M147.197 47.6107H151.559V49.4906H147.197V54.432H145.199V49.4906H140.838V47.6107H145.199V43.0453H147.197V47.6107Z" fill="#757E99"/>
<path d="M147.197 82.6107H151.559V84.4906H147.197V89.432H145.199V84.4906H140.838V82.6107H145.199V78.0453H147.197V82.6107Z" fill="#757E99"/>
<path d="M147.197 117.611H151.559V119.491H147.197V124.432H145.199V119.491H140.838V117.611H145.199V113.045H147.197V117.611Z" fill="#757E99"/>
<path d="M147.197 152.611H151.559V154.491H147.197V159.432H145.199V154.491H140.838V152.611H145.199V148.045H147.197V152.611Z" fill="#757E99"/>
<defs>
<linearGradient id="paint0_linear_221_2439" x1="140" y1="17.6275" x2="152.839" y2="17.5189" gradientUnits="userSpaceOnUse">
<stop stop-color="#2C66B8"/>
<stop offset="1" stop-color="#8859EC"/>
</linearGradient>
</defs>
</svg>
