<svg width="135" height="110" viewBox="0 0 135 110" fill="none" xmlns="http://www.w3.org/2000/svg">
<path d="M93 0C96.022 0.112 98.724 1.957 99.423 5.002L104.516 20.08L104.607 20.4H121.1C128.533 20.4 134.6 26.467 134.6 33.9V96.1C134.6 103.633 128.533 109.7 121 109.7H13.6C6.067 109.7 0 103.633 0 96.1V33.9C0 26.367 6.067 20.3 13.6 20.3H30.421L30.484 20.08L35.584 4.98L35.593 4.983C36.364 1.902 39.007 0.267 42 0H93ZM92.721 7H42.282C42.282 7.001 42.281 7.003 42.281 7.005C42.259 7.076 42.237 7.148 42.216 7.219L37.123 22.297C36.484 25.463 33.668 27.036 30.7 27.3H13.6C9.933 27.3 7 30.233 7 33.9V96.1C7 99.767 9.933 102.7 13.6 102.7H121C124.667 102.7 127.6 99.767 127.6 96.1V33.9C127.6 30.333 124.667 27.4 121.1 27.4H104.3L104.081 27.393C101.143 27.108 98.548 25.26 97.872 22.283L92.784 7.219L92.721 7Z" fill="url(#paint0_linear_205_152)"/>
<path d="M67.3002 35.3003C83.0952 35.3003 95.9002 48.1043 95.9002 63.9003C95.9002 79.6953 83.0952 92.5003 67.3002 92.5003C51.5042 92.5003 38.7002 79.6953 38.7002 63.9003C38.7002 48.1043 51.5042 35.3003 67.3002 35.3003ZM67.3002 42.3003C55.3702 42.3003 45.7002 51.9703 45.7002 63.9003C45.7002 75.8293 55.3702 85.5003 67.3002 85.5003C79.2292 85.5003 88.9002 75.8293 88.9002 63.9003C88.9002 51.9703 79.2292 42.3003 67.3002 42.3003Z" fill="url(#paint1_linear_205_152)"/>
<defs>
<linearGradient id="paint0_linear_205_152" x1="0" y1="54.85" x2="134.6" y2="54.85" gradientUnits="userSpaceOnUse">
<stop stop-color="#6457E3"/>
<stop offset="1" stop-color="#EB28B3"/>
</linearGradient>
<linearGradient id="paint1_linear_205_152" x1="11.5302" y1="103.931" x2="97.7922" y2="11.2533" gradientUnits="userSpaceOnUse">
<stop stop-color="#6457E3"/>
<stop offset="1" stop-color="#EB28B3"/>
</linearGradient>
</defs>
</svg>
