<svg width="132" height="101" viewBox="0 0 132 101" fill="none" xmlns="http://www.w3.org/2000/svg">
<path d="M118.1 0C125.565 0.001 131.4 6.781 131.4 14.901V85.3C131.4 93.42 125.565 100.201 118.1 100.201H13.3C5.835 100.201 0 93.42 0 85.301V14.9C0 6.781 5.835 0.000999451 13.3 0.000999451L118.1 0ZM124.4 23.701H7V85.3C7 89.768 9.954 93.201 13.3 93.201H118.1C121.446 93.201 124.4 89.768 124.4 85.301V23.701ZM118.1 7H13.3C9.954 7.001 7 10.433 7 14.901V16.701H124.4V14.9C124.4 10.433 121.446 7.001 118.1 7.001V7Z" fill="url(#paint0_linear_205_151)"/>
<path d="M50.3622 32.5713C52.0082 32.9383 51.3282 32.6863 52.4482 33.1933L91.8482 53.7933L91.8732 53.8063C95.8442 55.9243 95.8442 61.5653 91.8482 63.6963L52.3912 84.3253C48.6882 86.1773 44.3262 83.5223 44.3262 79.3943V38.0953C44.4042 35.6663 45.9142 33.5243 48.2972 32.8003C48.9602 32.5983 49.6742 32.6473 50.3622 32.5713ZM51.3262 40.5053V76.9843L86.2112 58.7453L51.3262 40.5053Z" fill="url(#paint1_linear_205_151)"/>
<defs>
<linearGradient id="paint0_linear_205_151" x1="0" y1="50.101" x2="131.4" y2="50.101" gradientUnits="userSpaceOnUse">
<stop stop-color="#6357E3"/>
<stop offset="1" stop-color="#EB27B2"/>
</linearGradient>
<linearGradient id="paint1_linear_205_151" x1="7.89118" y1="94.3113" x2="117.993" y2="0.597291" gradientUnits="userSpaceOnUse">
<stop stop-color="#6357E3"/>
<stop offset="1" stop-color="#EB27B2"/>
</linearGradient>
</defs>
</svg>
