<svg width="175" height="142" viewBox="0 0 175 142" fill="none" xmlns="http://www.w3.org/2000/svg">
<path d="M53.4267 65.2017H45.5863C45.5863 87.5554 64.1323 105.668 86.9566 105.668C87.238 105.668 87.513 105.668 87.7944 105.668C110.261 105.235 128.333 87.2943 128.333 65.2144H120.128M87.7944 136.415V105.655M68.6089 136.415H106.98M59.3359 32.1678H114.584M114.283 69.5451H59.6556M45.8229 69.5451H45.2537M98.4679 90.0774V8.97976M76.7243 90.5932V8.45117M60.4742 50.8532H115.115M114.654 34.0784V65.2017C114.544 72.4435 111.577 79.3516 106.396 84.4339C101.214 89.5162 94.2327 92.3649 86.9598 92.3649C79.6869 92.3649 72.7058 89.5162 67.5241 84.4339C62.3424 79.3516 59.376 72.4435 59.2655 65.2017V34.0784C59.2097 30.4214 59.8848 26.7898 61.2516 23.395C62.6183 20.0003 64.6493 16.9101 67.2265 14.3043C69.8037 11.6986 72.8755 9.62924 76.2633 8.21677C79.6511 6.8043 83.2871 6.0769 86.9598 6.0769C90.6325 6.0769 94.2685 6.8043 97.6563 8.21677C101.044 9.62924 104.116 11.6986 106.693 14.3043C109.27 16.9101 111.301 20.0003 112.668 23.395C114.035 26.7898 114.71 30.4214 114.654 34.0784V34.0784Z" stroke="url(#paint0_linear_290_49)" stroke-width="6" stroke-miterlimit="10"/>
<defs>
<linearGradient id="paint0_linear_290_49" x1="45.2537" y1="6.0769" x2="152.462" y2="106.418" gradientUnits="userSpaceOnUse">
<stop stop-color="#CC5CDA"/>
<stop offset="1" stop-color="#454FCE"/>
</linearGradient>
</defs>
</svg>
