<svg width="66" height="66" viewBox="0 0 66 66" fill="none" xmlns="http://www.w3.org/2000/svg">
<g clip-path="url(#clip0_2311_7633)">
<path d="M59.0469 52.2791C62.5373 47.1988 64.5816 41.0475 64.5816 34.4178C64.5816 16.9757 50.4419 2.83594 32.9997 2.83594C15.5576 2.83594 1.41797 16.9757 1.41797 34.4178C1.41797 41.0503 3.4641 47.2042 6.95733 52.2858L59.0469 52.2791Z" fill="#FF4155"/>
<path d="M32.829 2.38867C25.499 2.38867 19.5356 8.352 19.5356 15.682C19.5527 15.9372 19.4885 16.0753 19.6165 16.1676C19.787 16.2904 19.8887 16.4886 19.8887 16.6975V17.4508C19.8887 18.1344 20.6979 18.4786 20.8054 18.1446C21.077 17.3011 21.8284 17.2298 22.1434 17.2351C22.1527 17.2352 22.1618 17.2357 22.1715 17.2352C22.4309 17.2362 22.6817 17.3141 22.8974 17.4605C23.0028 17.5327 23.1521 17.4841 23.1921 17.3584C23.3105 16.9825 23.3509 16.602 23.3246 16.2456C23.1873 14.3758 23.2891 11.0898 25.5137 10.0888C27.4993 9.19428 29.4988 9.81419 30.813 10.0659C31.5556 10.2821 32.7789 10.8023 34.4943 10.2317C36.1076 9.69508 38.4293 9.23462 40.3278 10.0886C42.5481 11.0879 42.6529 14.3655 42.5177 16.2305C42.4929 16.5744 42.528 16.9205 42.6217 17.259C42.6547 17.3785 42.7897 17.4362 42.8981 17.3801C43.5853 17.0265 44.5808 17.3016 44.8526 18.1445C44.8823 18.2372 44.9757 18.2927 45.0714 18.2764C45.4757 18.2048 45.7692 17.8577 45.7692 17.4507V16.6974C45.7692 16.4886 45.8709 16.2904 46.0415 16.1675C46.1699 16.0749 46.1054 15.9347 46.1223 15.6819C46.1223 8.352 40.159 2.38867 32.829 2.38867Z" fill="#41416B"/>
<path d="M32.4598 2.82583C32.6025 2.72657 32.645 2.54495 32.5824 2.39258C25.3658 2.52458 19.5356 8.43519 19.5356 15.6827C19.5527 15.9379 19.4885 16.076 19.6165 16.1683C19.787 16.2911 19.8887 16.4893 19.8887 16.6982V17.4515C19.8887 18.1351 20.6979 18.4793 20.8054 18.1453C21.077 17.3017 21.8284 17.2305 22.1434 17.2357C22.1527 17.2359 22.1618 17.2364 22.1715 17.2359C22.4309 17.2369 22.6817 17.3148 22.8974 17.4612C23.0028 17.5335 23.1521 17.4848 23.1921 17.3591C23.3105 16.9832 23.3509 16.6027 23.3246 16.2463C23.1873 14.3765 23.2891 11.0905 25.5137 10.0894C27.4786 9.20437 29.4565 9.80185 30.7711 10.0584L30.8586 9.87739C30.8588 9.87739 28.3451 5.68691 32.4598 2.82583Z" fill="#35355E"/>
<path d="M6.86816 52.1574C12.5507 60.5122 22.1341 66.0002 33 66.0002C43.8689 66.0002 53.4545 60.5093 59.1366 52.1507C58.3582 49.6664 56.9227 47.2352 54.3099 45.8902L54.3107 45.8884C54.1347 45.8046 53.9003 45.6813 53.4928 45.5215C45.1103 41.7952 44.1444 41.9623 43.2946 41.6787C43.3203 41.704 43.3432 41.7319 43.3602 41.7657C43.3302 42.0171 43.4913 41.9758 42.9009 43.4936C41.6772 46.5301 39.4522 49.1968 36.8737 51.2358C36.6132 51.4416 36.2527 51.4552 35.9766 51.2709C35.5319 50.9739 34.7492 53.779 34.7916 54.575C34.8065 55.0526 34.7953 54.4844 34.7992 60.9742C34.7992 61.2299 34.5874 61.438 34.327 61.438C34.3052 61.438 31.5981 61.438 31.6803 61.438C31.42 61.438 31.2081 61.2299 31.2081 60.9742C31.2121 54.4845 31.2008 55.052 31.2157 54.575C31.2161 54.5693 31.2158 54.5635 31.2155 54.558C31.1065 53.1547 30.4326 51.0025 30.0307 51.2709C29.7546 51.4553 29.3941 51.4416 29.1336 51.2358C26.5551 49.1967 24.3301 46.5301 23.1064 43.4936C22.5158 41.9758 22.6771 42.0171 22.6471 41.7657C22.6641 41.7319 22.687 41.704 22.7125 41.6787C21.8628 41.9623 20.897 41.7952 12.5145 45.5215C12.107 45.6813 11.8724 45.8045 11.6965 45.8884L11.6974 45.8902C9.082 47.2364 7.64624 49.6708 6.86816 52.1574Z" fill="#FFDD40"/>
<path d="M22.6467 41.7657C22.6637 41.7319 22.6865 41.704 22.7122 41.6787C21.8624 41.9623 20.8966 41.7952 12.5141 45.5215C12.1067 45.6813 11.872 45.8045 11.6961 45.8884L11.697 45.8902C9.082 47.2364 7.64624 49.6708 6.86816 52.1574C8.97527 55.2554 11.6185 57.9592 14.6651 60.1351L15.6832 56.7756C16.1177 55.3416 17.1362 54.1571 18.4887 53.5126L26.0198 49.9237V48.2362C24.8071 46.804 23.7969 45.2078 23.1061 43.4935C22.5153 41.9758 22.6766 42.0171 22.6467 41.7657Z" fill="#FFC839"/>
<path d="M25.2447 39.5387L25.3852 40.3125L25.3896 40.3308C25.4303 40.5087 25.4766 40.6878 25.5273 40.8631L25.5351 40.8896C25.552 40.948 25.5701 41.0075 25.5883 41.0657L25.5993 41.1012C25.6188 41.1623 25.6389 41.2243 25.6607 41.2892L25.668 41.3105C26.1309 42.6701 27.1422 44.6516 29.3294 46.3709C29.8963 46.8166 30.5158 47.2263 31.1708 47.5885C31.465 47.7512 31.6793 47.9986 31.7907 48.3039C31.7981 48.3242 31.8093 48.3429 31.8236 48.3591C32.1594 48.7371 32.4802 49.1525 32.7772 49.5939C32.8413 49.6888 32.9987 49.6888 33.0624 49.5939C33.3581 49.1539 33.6798 48.7378 34.0182 48.3573C34.0326 48.3412 34.0437 48.3225 34.0511 48.3023C34.163 47.9975 34.377 47.7507 34.6701 47.5885C39.3735 44.987 40.3849 41.1525 40.6002 39.5107C40.0245 38.1927 39.8406 36.5633 39.7976 35.3125C39.1029 36.1216 38.3739 36.7983 37.6773 37.3393C36.3202 38.3932 34.6455 38.9656 32.9206 38.9656C31.1957 38.9656 29.5209 38.3931 28.1638 37.3393C27.4672 36.7983 26.7381 36.1216 26.0434 35.3125C26.0004 36.5633 25.8164 38.1928 25.2407 39.5108L25.2447 39.5387Z" fill="#FCA870"/>
<path d="M28.1643 37.3393C27.4677 36.7983 26.7386 36.1216 26.0439 35.3125C26.0009 36.5633 25.8169 38.1928 25.2412 39.5108L25.2447 39.5388L25.3852 40.3126L25.3896 40.3309C25.4303 40.5088 25.4766 40.6879 25.5273 40.8632L25.5351 40.8898C25.552 40.9482 25.5699 41.0076 25.5882 41.0658L25.5993 41.1013C25.6188 41.1624 25.6389 41.2244 25.6607 41.2892L25.668 41.3105C26.1309 42.6701 27.1422 44.6516 29.3293 46.3709C29.5076 46.5111 29.6929 46.6462 29.8811 46.779C31.7989 43.5494 32.4143 40.5498 32.6118 38.9593C30.9969 38.8951 29.4402 38.3301 28.1643 37.3393Z" fill="#F9955F"/>
<path d="M43.6126 18.9074C43.4767 18.5528 43.3148 18.2271 43.1312 17.9391C42.8173 17.4468 42.6686 16.8452 42.712 16.245C42.8509 14.3293 42.736 10.9596 40.408 9.91195C38.4527 9.03243 36.0795 9.50023 34.4331 10.0478C33.458 10.3724 32.3839 10.3723 31.4088 10.0478C29.7622 9.50023 27.3892 9.03191 25.4339 9.91195C24.4327 10.3625 22.8023 11.7864 23.1309 16.2603C23.1742 16.8497 23.0249 17.446 22.7107 17.9393C22.5324 18.2189 22.3744 18.5345 22.2411 18.8769C21.8506 19.88 21.7243 20.9932 21.8756 22.0964L22.4217 26.0675C22.4217 32.6442 26.4007 36.4438 28.1115 37.7723C29.4768 38.8328 31.185 39.4169 32.921 39.4169C34.6568 39.4169 36.3649 38.833 37.7303 37.7723C39.441 36.444 43.4201 32.6441 43.4192 26.0794L43.966 22.0973C44.1161 21.0051 43.9939 19.9021 43.6126 18.9074Z" fill="#F9BD91"/>
<path d="M32.7059 37.7725C31.4889 36.4441 28.6584 32.6443 28.6584 26.0676L28.27 22.0966C28.1622 20.9934 28.2521 19.8801 28.5299 18.877C28.6247 18.5345 28.7371 18.2189 28.864 17.9393C29.0876 17.446 29.1937 16.8498 29.1629 16.2603C28.9292 11.7864 30.089 10.3625 30.8012 9.91194C30.8204 9.89983 30.8399 9.88887 30.8592 9.87714C29.2614 9.41578 27.1812 9.12562 25.4343 9.91194C24.4332 10.3625 22.8028 11.7864 23.1314 16.2603C23.1747 16.8497 23.0254 17.446 22.7112 17.9393C22.5329 18.2189 22.3748 18.5345 22.2416 18.877C21.8511 19.8801 21.7248 20.9934 21.8761 22.0966L22.4221 26.0676C22.4221 32.6443 26.4012 36.444 28.1119 37.7725C29.4773 38.833 31.1854 39.417 32.9214 39.417C33.5547 39.417 34.1841 39.3384 34.7947 39.1882C34.0383 38.9267 33.3228 38.4461 32.7059 37.7725Z" fill="#FCA870"/>
<path d="M33.0415 49.6803C32.1041 48.2315 31.18 47.4707 31.18 47.4707L28.792 51.306C30.5122 52.4134 30.8196 55.1185 30.8743 55.99C31.017 53.189 32.0778 51.0604 33.0415 49.6803Z" fill="#FF9100"/>
<path d="M34.9553 61.5773V56.2668C34.9553 56.2668 34.9852 52.6347 37.0496 51.3061L34.6616 47.4707C34.6616 47.4707 30.8564 50.5973 30.8564 56.2669V61.5774H34.9553V61.5773Z" fill="#FFB332"/>
<path d="M31.2546 47.4382C26.4922 44.8042 25.5742 40.8828 25.3982 39.3809C25.367 39.1148 25.059 38.9833 24.8431 39.1418L21.6194 41.5052C21.4473 41.6314 21.3648 41.8492 21.4168 42.0559C22.6994 47.1611 26.8226 50.8887 28.6402 52.3258C29.1028 52.6916 29.7775 52.5855 30.1067 52.0962C30.5723 51.4042 31.2309 50.4256 31.7745 49.6178C32.2819 48.8636 32.0501 47.8781 31.2546 47.4382Z" fill="#FFC839"/>
<path d="M29.4358 46.2359C26.2461 43.7286 25.5485 40.6672 25.3977 39.3807C25.3665 39.1148 25.0585 38.9833 24.8426 39.1418L21.6189 41.5053C21.4468 41.6315 21.3643 41.8492 21.4163 42.0561C22.237 45.3231 24.2206 48.0244 26.0193 49.9237C27.4472 45.2362 29.0398 45.9622 29.4358 46.2359Z" fill="#FFB332"/>
<path d="M44.2227 41.5052L40.999 39.1418C40.7831 38.9833 40.4752 39.1148 40.444 39.3809C40.2679 40.8828 39.3499 44.8042 34.5875 47.4382C33.792 47.8781 33.5601 48.8636 34.0678 49.6178C34.6112 50.4256 35.2698 51.4042 35.7355 52.0962C36.0648 52.5855 36.7396 52.6915 37.2021 52.3258C39.0197 50.8887 43.1429 47.1611 44.4254 42.0559C44.4773 41.849 44.3948 41.6313 44.2227 41.5052Z" fill="#FFC839"/>
<path d="M33.9055 54.7184C33.9055 55.1631 33.5451 55.5236 33.1002 55.5236C32.6555 55.5236 32.2949 55.1631 32.2949 54.7184C32.2949 54.2736 32.6555 53.9131 33.1002 53.9131C33.5451 53.9131 33.9055 54.2736 33.9055 54.7184Z" fill="#FFC839"/>
<path d="M33.7263 58.7125C33.7263 59.1572 33.3657 59.5178 32.921 59.5178C32.4763 59.5178 32.1157 59.1572 32.1157 58.7125C32.1157 58.2678 32.4763 57.9072 32.921 57.9072C33.3657 57.9072 33.7263 58.2678 33.7263 58.7125Z" fill="#FFC839"/>
<path d="M30.8564 61.3984V62.903C30.8564 63.2797 31.1658 63.5849 31.5474 63.5849H34.2645C34.646 63.5849 34.9554 63.2797 34.9554 62.903V61.3984H30.8564Z" fill="#FF9100"/>
<path d="M32.8293 0C24.3198 0 17.4214 6.89829 17.4214 15.4078V17.2394H19.7304V15.6822C19.7304 8.448 25.5949 2.58341 32.8292 2.58341C40.0635 2.58341 45.9281 8.448 45.9281 15.6822V17.2394H48.2371V15.4078C48.2371 6.89829 41.3388 0 32.8293 0V0Z" fill="#E3E7FC"/>
<path d="M17.4214 15.4078V17.2394H19.7304V15.6822C19.7304 8.52225 25.4753 2.70484 32.6072 2.58625C32.6223 2.48557 32.5964 2.37845 32.5251 2.2935C32.1772 1.87855 31.7808 1.04839 32.8292 0C24.3197 0 17.4214 6.89829 17.4214 15.4078Z" fill="#C8CEFC"/>
<path d="M47.6346 15.8496H46.423C45.9548 15.8496 45.5752 16.2292 45.5752 16.6974V17.4508C45.5752 17.8343 45.2438 18.1275 44.8618 18.0931L44.8545 18.0924C44.9018 18.2346 44.9277 18.3856 44.9277 18.5419V28.6424C44.9277 28.7988 44.9019 28.9497 44.8545 29.0919C45.6782 29.0187 46.4519 28.7828 47.1397 28.4184C47.9672 27.9801 48.4823 27.1177 48.4823 26.1813V20.3945V19.7437V16.6974C48.4824 16.2291 48.1028 15.8496 47.6346 15.8496Z" fill="#C8CEFC"/>
<path d="M47.1396 22.1346C46.4723 22.4882 45.7237 22.7193 44.9276 22.7998V28.6428C44.9276 28.7992 44.9018 28.9502 44.8545 29.0923C45.6782 29.0191 46.4519 28.7834 47.1397 28.4188C47.9672 27.9805 48.4823 27.1181 48.4823 26.1816V20.3948V19.8975C48.4823 20.834 47.9671 21.6963 47.1396 22.1346Z" fill="#B8C0F4"/>
<path d="M43.6091 30.1438H43.492C42.6663 30.1438 41.9907 29.4684 41.9907 28.6427V18.5423C41.9907 17.7166 42.6663 17.041 43.492 17.041H43.6091C44.4348 17.041 45.1104 17.7166 45.1104 18.5423V28.6427C45.1102 29.4684 44.4348 30.1438 43.6091 30.1438Z" fill="#E3E7FC"/>
<path d="M18.024 15.8496H19.2355C19.7037 15.8496 20.0834 16.2292 20.0834 16.6974V17.4508C20.0834 17.8343 20.4148 18.1275 20.7967 18.0931L20.8041 18.0924C20.7568 18.2346 20.731 18.3856 20.731 18.5419V28.6424C20.731 28.7988 20.7568 28.9497 20.8041 29.0919C19.9804 29.0187 19.2067 28.7828 18.5188 28.4184C17.6914 27.9801 17.1763 27.1177 17.1763 26.1813V20.3945V19.7437V16.6974C17.1763 16.2291 17.5558 15.8496 18.024 15.8496Z" fill="#B8C0F4"/>
<path d="M20.7309 22.6709C19.9347 22.5904 19.186 22.3593 18.5188 22.0057C17.6914 21.5674 17.1763 20.7051 17.1763 19.7686V20.3948V26.1816C17.1763 27.118 17.6915 27.9804 18.5188 28.4188C19.2067 28.7832 19.9804 29.019 20.8041 29.0923C20.7568 28.9502 20.731 28.7993 20.731 28.6428V22.6709H20.7309Z" fill="#A4B0EA"/>
<path d="M22.0495 30.1438H22.1668C22.9924 30.1438 23.668 29.4684 23.668 28.6427V18.5423C23.668 17.7166 22.9925 17.041 22.1668 17.041H22.0495C21.2238 17.041 20.5483 17.7166 20.5483 18.5423V28.6427C20.5483 29.4684 21.2238 30.1438 22.0495 30.1438Z" fill="#E3E7FC"/>
<path d="M43.6091 23.7687H43.4918C42.6662 23.7687 41.9907 23.0931 41.9907 22.2676V28.6429C41.9907 29.4685 42.6662 30.1441 43.4918 30.1441H43.6091C44.4348 30.1441 45.1103 29.4687 45.1103 28.6429V22.2676C45.1104 23.0931 44.4348 23.7687 43.6091 23.7687Z" fill="#C8CEFC"/>
<path d="M22.1668 23.7687H22.0495C21.2238 23.7687 20.5483 23.0931 20.5483 22.2676V28.6429C20.5483 29.4685 21.2238 30.1441 22.0495 30.1441H22.1668C22.9924 30.1441 23.668 29.4687 23.668 28.6429V22.2676C23.6679 23.0931 22.9924 23.7687 22.1668 23.7687Z" fill="#C8CEFC"/>
<path d="M38.4494 39.7027C38.2916 39.1895 38.5799 38.6456 39.0931 38.4879C41.0332 37.8917 42.7747 37.1454 43.8939 36.6243C44.3078 36.4317 44.6261 36.0711 44.767 35.6352L46.2994 30.8921C46.5991 29.9647 46.0478 29.3372 45.9326 29.0127C45.6951 28.5314 45.893 27.9485 46.3745 27.7108C46.8561 27.4733 47.4387 27.6713 47.6764 28.1527C47.7651 28.4294 48.7291 29.6957 48.1496 31.4898L46.6172 36.2329C46.3106 37.1818 45.617 37.967 44.7145 38.3871C43.5398 38.9337 41.7101 39.7176 39.6642 40.3463C39.1487 40.505 38.6064 40.2137 38.4494 39.7027Z" fill="#E3E7FC"/>
<path d="M33.8959 42.1367C32.9295 42.1367 32.146 41.3534 32.146 40.3868C32.146 39.4204 32.9294 38.6369 33.8959 38.6369C35.0008 38.6369 36.3141 38.4388 37.7992 38.0484C38.7344 37.8021 39.6908 38.3608 39.9366 39.2955C40.1824 40.2302 39.6241 41.1871 38.6894 41.4329C36.9137 41.8998 35.301 42.1367 33.8959 42.1367Z" fill="#FF4155"/>
<path d="M35.6613 39.8278C35.6613 39.2607 35.9017 38.7508 36.2844 38.3906C35.4085 38.5538 34.6082 38.6374 33.8959 38.6374C32.9295 38.6374 32.146 39.4208 32.146 40.3873C32.146 41.3538 32.9294 42.1372 33.8959 42.1372C34.9127 42.1372 36.0397 42.0112 37.257 41.7658C36.3477 41.5887 35.6613 40.7888 35.6613 39.8278Z" fill="#E80054"/>
<path d="M54.4714 2.3877H45.5858C40.8503 2.3877 36.9756 6.26223 36.9756 10.9979C36.9756 15.7335 40.8501 19.608 45.5858 19.608H51.6407C51.9283 19.608 52.1615 19.8412 52.1615 20.1288V23.1484C52.1615 23.4896 52.532 23.7034 52.8268 23.5315C54.4894 22.5622 55.3126 21.2133 55.7197 20.0784C55.8464 19.7251 56.1362 19.4529 56.501 19.364C60.2656 18.4455 63.0817 15.0348 63.0817 10.9977C63.0816 6.26236 59.207 2.3877 54.4714 2.3877Z" fill="#49DAFC"/>
<path d="M36.9756 10.9979C36.9756 15.7335 40.8501 19.608 45.5856 19.608H48.3403C44.8904 16.2267 48.0943 12.066 48.0943 12.066L47.4536 9.94392C44.1598 6.07828 47.4536 2.39195 47.4536 2.39195L47.4473 2.3877H45.5857C40.8501 2.3877 36.9756 6.26236 36.9756 10.9979Z" fill="#26C6F7"/>
<path d="M43.9799 11.1022C43.9799 11.7417 43.4615 12.26 42.822 12.26C42.1825 12.26 41.6641 11.7417 41.6641 11.1022C41.6641 10.4627 42.1825 9.94434 42.822 9.94434C43.4615 9.94434 43.9799 10.4627 43.9799 11.1022Z" fill="white"/>
<path d="M48.6111 11.1022C48.6111 11.7417 48.0928 12.26 47.4532 12.26C46.8137 12.26 46.2954 11.7417 46.2954 11.1022C46.2954 10.4627 46.8137 9.94434 47.4532 9.94434C48.0928 9.94434 48.6111 10.4627 48.6111 11.1022Z" fill="white"/>
<path d="M53.2429 11.1022C53.2429 11.7417 52.7246 12.26 52.0851 12.26C51.4456 12.26 50.9272 11.7417 50.9272 11.1022C50.9272 10.4627 51.4456 9.94434 52.0851 9.94434C52.7246 9.94434 53.2429 10.4627 53.2429 11.1022Z" fill="white"/>
<path d="M57.8743 11.1022C57.8743 11.7417 57.3559 12.26 56.7164 12.26C56.0769 12.26 55.5586 11.7417 55.5586 11.1022C55.5586 10.4627 56.0769 9.94434 56.7164 9.94434C57.3559 9.94434 57.8743 10.4627 57.8743 11.1022Z" fill="white"/>
</g>
<defs>
<clipPath id="clip0_2311_7633">
<rect width="66" height="66" fill="white"/>
</clipPath>
</defs>
</svg>
