<svg width="33" height="37" viewBox="0 0 33 37" fill="none" xmlns="http://www.w3.org/2000/svg">
<path d="M32.01 25.43C32.01 26.45 31.3 27.71 30.4 28.23L17.64 35.62C16.75 36.14 15.29 36.14 14.39 35.62L1.62 28.23C0.729995 27.71 0 26.45 0 25.43V10.59C0 9.56001 0.729995 8.31002 1.62 7.79002L14.4 0.39C15.29 -0.13 16.76 -0.13 17.65 0.39L30.4 7.79002C31.3 8.31002 32.01 9.56001 32.01 10.59V25.43Z" fill="#F7F9FF"/>
<path d="M29.01 23.7901C29.01 24.5801 28.44 25.56 27.71 25.96L17.34 31.71C16.61 32.11 15.43 32.11 14.7 31.71L4.32999 25.96C3.59999 25.56 3.01001 24.5801 3.01001 23.7901V12.25C3.01001 11.46 3.59999 10.48 4.32999 10.08L14.71 4.33003C15.43 3.93003 16.62 3.93003 17.35 4.33003L27.71 10.08C28.44 10.48 29.01 11.46 29.01 12.25V23.7901Z" fill="url(#paint0_linear_221_2859)"/>
<defs>
<linearGradient id="paint0_linear_221_2859" x1="3.01001" y1="32.01" x2="36.0291" y2="11.7562" gradientUnits="userSpaceOnUse">
<stop stop-color="#2973FF"/>
<stop offset="0.48974" stop-color="#8846D3"/>
<stop offset="1" stop-color="#FF22AC"/>
</linearGradient>
</defs>
</svg>
