<svg width="35" height="38" viewBox="0 0 35 38" fill="none" xmlns="http://www.w3.org/2000/svg">
<path d="M34.2 26.8348C34.2 27.9054 33.447 29.2349 32.4887 29.7875L18.8498 37.5921C17.8915 38.136 16.3342 38.136 15.3759 37.5921L1.72836 29.7875C0.778599 29.2349 0 27.9054 0 26.8348V11.1652C0 10.086 0.778599 8.76509 1.72836 8.21255L15.3844 0.407929C16.3428 -0.135976 17.9 -0.135976 18.8583 0.407929L32.4887 8.21255C33.447 8.76509 34.2 10.086 34.2 11.1652V26.8348Z" fill="white"/>
<path d="M30.7939 25.0347C30.7939 25.8721 30.1864 26.8909 29.4249 27.3139L18.5069 33.34C17.7453 33.7631 16.4961 33.7631 15.7346 33.34L4.80801 27.3139C4.04649 26.8909 3.42188 25.8721 3.42188 25.0347V12.9393C3.42188 12.1105 4.04649 11.0831 4.80801 10.6601L15.7346 4.63393C16.4961 4.21089 17.7539 4.21089 18.5154 4.63393L29.4249 10.6601C30.1864 11.0831 30.7939 12.1105 30.7939 12.9393V25.0347Z" fill="#4F5A68"/>
</svg>
