<svg width="64" height="64" viewBox="0 0 64 64" fill="none" xmlns="http://www.w3.org/2000/svg">
<g clip-path="url(#clip0_2311_8095)">
<path d="M53.3503 10.6492L41.4898 22.5097C39.0608 20.0807 35.7055 18.5781 32 18.5781V1.80566C40.3373 1.80566 47.8868 5.18436 53.3503 10.6492Z" fill="url(#paint0_linear_2311_8095)"/>
<path d="M22.5101 22.5099C20.0812 24.9389 18.5785 28.2942 18.5785 31.9997H1.80615C1.80615 23.6624 5.18485 16.1129 10.6497 10.6494L22.5101 22.5099Z" fill="url(#paint1_linear_2311_8095)"/>
<path d="M32.0002 1.80566V18.5781C28.2947 18.5781 24.9394 20.0807 22.5104 22.5097L10.6499 10.6492C16.1134 5.18436 23.6629 1.80566 32.0002 1.80566Z" fill="url(#paint2_linear_2311_8095)"/>
<path d="M62.1937 31.9997H45.4214C45.4214 28.2942 43.9187 24.9389 41.4897 22.5099L53.3502 10.6494C58.815 16.1129 62.1937 23.6624 62.1937 31.9997Z" fill="url(#paint3_linear_2311_8095)"/>
<path d="M62.1937 31.999C62.1937 40.3363 58.815 47.8858 53.3502 53.3493L41.4897 41.4888C43.9187 39.0599 45.4214 35.7045 45.4214 31.999H62.1937Z" fill="url(#paint4_linear_2311_8095)"/>
<path d="M22.5101 41.4888L10.6497 53.3493C5.18485 47.8858 1.80615 40.3363 1.80615 31.999H18.5785C18.5785 35.7045 20.0812 39.0599 22.5101 41.4888Z" fill="url(#paint5_linear_2311_8095)"/>
<path d="M53.3503 53.3497C47.8868 58.8146 40.3373 62.1933 32 62.1933V45.4209C35.7055 45.4209 39.0608 43.9182 41.4898 41.4893L53.3503 53.3497Z" fill="url(#paint6_linear_2311_8095)"/>
<path d="M32.0002 45.4209V62.1933C23.6629 62.1933 16.1134 58.8146 10.6499 53.3497L22.5104 41.4893C24.9394 43.9182 28.2947 45.4209 32.0002 45.4209Z" fill="url(#paint7_linear_2311_8095)"/>
<path d="M48.1961 15.8035L41.4898 22.5098C39.0608 20.0809 35.7055 18.5782 32 18.5782V9.0957C38.3256 9.0957 44.0501 11.659 48.1961 15.8035Z" fill="url(#paint8_linear_2311_8095)"/>
<path d="M22.5103 22.51C20.0813 24.939 18.5787 28.2944 18.5787 31.9999H9.09619C9.09619 25.6743 11.6593 19.9498 15.804 15.8037L22.5103 22.51Z" fill="url(#paint9_linear_2311_8095)"/>
<path d="M32.0003 9.0957V18.5782C28.2949 18.5782 24.9395 20.0809 22.5105 22.5098L15.8042 15.8035C19.9503 11.659 25.6748 9.0957 32.0003 9.0957Z" fill="url(#paint10_linear_2311_8095)"/>
<path d="M54.9039 31.9999H45.4214C45.4214 28.2944 43.9187 24.939 41.4897 22.51L48.1961 15.8037C52.3406 19.9498 54.9039 25.6743 54.9039 31.9999Z" fill="url(#paint11_linear_2311_8095)"/>
<path d="M54.9039 32C54.9039 38.3256 52.3406 44.0501 48.1961 48.1961L41.4897 41.4898C43.9187 39.0608 45.4214 35.7055 45.4214 32H54.9039Z" fill="url(#paint12_linear_2311_8095)"/>
<path d="M22.5103 41.4898L15.804 48.1961C11.6595 44.0501 9.09619 38.3256 9.09619 32H18.5787C18.5787 35.7055 20.0813 39.0608 22.5103 41.4898Z" fill="url(#paint13_linear_2311_8095)"/>
<path d="M48.1961 48.1956C44.0501 52.3402 38.3256 54.9034 32 54.9034V45.4209C35.7055 45.4209 39.0608 43.9182 41.4898 41.4893L48.1961 48.1956Z" fill="url(#paint14_linear_2311_8095)"/>
<path d="M32.0003 45.4209V54.9034C25.6748 54.9034 19.9503 52.3402 15.8042 48.1956L22.5105 41.4893C24.9395 43.9182 28.2949 45.4209 32.0003 45.4209Z" fill="url(#paint15_linear_2311_8095)"/>
<path d="M56.8367 14.8281L44.5166 27.1483C45.1004 28.653 45.4212 30.2886 45.4212 31.9993C45.4212 35.7048 43.9186 39.0602 41.4896 41.4891C39.0606 43.9181 35.7053 45.4208 31.9998 45.4208C30.2891 45.4208 28.6534 45.0999 27.1487 44.5161L14.8286 56.8362C19.7039 60.2133 25.6206 62.1931 31.9999 62.1931C40.3373 62.1931 47.8867 58.8145 53.3502 53.3496C58.8151 47.8863 62.1938 40.3366 62.1938 31.9993C62.1936 25.6202 60.2138 19.7034 56.8367 14.8281Z" fill="url(#paint16_linear_2311_8095)"/>
<path d="M6.51474 44.4918L0.0662992 62.5304C-0.245669 63.4032 0.597123 64.2461 1.46991 63.9341L19.5085 57.4857C23.1074 53.8868 10.1135 40.893 6.51474 44.4918Z" fill="url(#paint17_linear_2311_8095)"/>
<path d="M41.2843 35.7114L19.508 57.4855C19.1523 56.8689 18.6116 56.3234 17.9191 55.9369C16.9729 55.4129 15.4931 55.6997 14.4686 56.0105C14.2456 56.0768 14.0417 55.9606 13.9587 55.7828C13.9065 55.6762 13.8971 55.5457 13.954 55.4176C13.9563 55.4176 13.9563 55.4153 13.9563 55.4153C14.0133 55.2849 14.0631 55.152 14.1058 55.0192C14.1247 54.9552 14.1437 54.8912 14.1628 54.8271C14.1652 54.8223 14.1652 54.8199 14.1652 54.8153C14.2197 54.609 14.2576 54.4027 14.279 54.1916C14.2861 54.1228 14.2909 54.0517 14.2955 53.9829C14.3014 53.8683 14.3026 53.7538 14.2988 53.6392C14.2728 52.8374 14.0109 52.0412 13.5129 51.3648C13.3919 51.1988 13.2567 51.0423 13.1074 50.8928C12.9579 50.7434 12.8015 50.6082 12.6354 50.4873C11.8623 49.9182 10.9327 49.6573 10.0173 49.7047C9.94856 49.7095 9.87741 49.7142 9.80864 49.7213C9.59756 49.7426 9.38887 49.7805 9.18495 49.8351C9.18018 49.8351 9.1778 49.8351 9.17303 49.8375C9.10903 49.8564 9.04491 49.8754 8.98091 49.8944C8.91214 49.9158 8.84575 49.9395 8.77937 49.9656C8.71537 49.9893 8.65124 50.0154 8.58724 50.0439C8.58486 50.0439 8.58486 50.0439 8.58247 50.0463C8.45435 50.1033 8.32397 50.0937 8.2173 50.0415C8.03948 49.9586 7.92327 49.7545 7.98966 49.5317C8.30037 48.5072 8.58724 47.0298 8.0632 46.0836C7.67656 45.3887 7.13357 44.848 6.51465 44.4923L28.2887 22.716C29.2704 21.7366 30.8594 21.7366 31.8388 22.716L33.6909 24.5681L39.4322 30.3094L41.2843 32.1616C42.2636 33.1408 42.2636 34.7296 41.2843 35.7114Z" fill="url(#paint18_linear_2311_8095)"/>
<path d="M39.4322 30.3088L13.9587 55.7824C13.9065 55.6757 13.8971 55.5452 13.9539 55.4172C13.9563 55.4172 13.9563 55.4148 13.9563 55.4148C14.0133 55.2844 14.2599 54.3998 14.2788 54.1911C14.2884 54.12 14.293 54.0512 14.2954 53.9824C14.3428 53.0671 14.0819 52.1375 13.5128 51.3643C13.3919 51.1983 13.2567 51.0418 13.1074 50.8924C12.9579 50.7429 12.8014 50.6078 12.6354 50.4868C11.8623 49.9177 10.9326 49.6568 10.0173 49.7042C9.94855 49.7066 9.87978 49.7114 9.80863 49.7208C9.59994 49.7397 9.39125 49.7778 9.18494 49.8346C9.18017 49.8346 9.17779 49.8346 9.17302 49.837C9.10902 49.8536 8.65136 50.0148 8.58723 50.0433C8.58485 50.0433 8.58485 50.0433 8.58246 50.0457C8.45434 50.1027 8.32395 50.0931 8.21729 50.0409L33.6908 24.5674L39.4322 30.3088Z" fill="url(#paint19_linear_2311_8095)"/>
<path d="M3.7074 60.293C3.02473 59.6104 2.26175 59.0626 1.45472 58.6465L0.0662993 62.5305C-0.24567 63.4033 0.597123 64.2462 1.46991 63.9341L5.35396 62.5457C4.93783 61.7386 4.39007 60.9756 3.7074 60.293Z" fill="url(#paint20_linear_2311_8095)"/>
<path d="M61.969 2.03128L35.6744 28.3259L31.828 24.4795C30.9896 23.6411 30.9896 22.2816 31.828 21.4432L34.1285 19.1427C35.1215 18.1497 35.6793 16.803 35.6793 15.3987V12.5319C35.6793 10.2765 37.108 8.26864 39.239 7.5295L60.7411 0.0711187C61.9315 -0.34187 62.8599 1.1403 61.969 2.03128Z" fill="url(#paint21_linear_2311_8095)"/>
<path d="M61.9689 2.03145L35.6743 28.326L39.5207 32.1724C40.3591 33.0108 41.7186 33.0108 42.557 32.1724L44.8574 29.8719C45.8505 28.8789 47.1972 28.3211 48.6014 28.3211H51.4681C53.7236 28.3211 55.7314 26.8924 56.4706 24.7615L63.929 3.25925C64.3419 2.06897 62.8598 1.14047 61.9689 2.03145Z" fill="url(#paint22_linear_2311_8095)"/>
<path d="M49.5807 15.6546L62.7883 2.44704C63.1171 2.11826 63.1561 1.58304 62.8492 1.23368C62.5129 0.850807 61.9293 0.836752 61.5747 1.19126L48.3769 14.3892C47.5128 15.2533 46.3154 15.7264 45.098 15.6189C43.9719 15.5195 42.8084 15.9458 42.0056 16.8982C40.8681 18.2479 40.8861 20.261 42.0453 21.5922C43.437 23.1904 45.864 23.2531 47.3368 21.7802C48.1082 21.0088 48.4581 19.9759 48.3871 18.9671C48.3002 17.7379 48.7095 16.5259 49.5807 15.6546Z" fill="url(#paint23_linear_2311_8095)"/>
<path d="M35.4562 16.918C35.2067 17.7506 34.7542 18.5171 34.1285 19.1429L31.828 21.4434C30.9896 22.2818 30.9896 23.6412 31.828 24.4796L35.6744 28.326L39.5208 32.1725C40.3592 33.0109 41.7187 33.0109 42.5571 32.1725L44.8576 29.872C45.4834 29.2461 46.2499 28.7936 47.0825 28.5443L35.4562 16.918Z" fill="url(#paint24_linear_2311_8095)"/>
<path d="M38.0645 38.9314L25.0688 25.9356L30.248 20.7565C30.8478 20.1567 31.8202 20.1567 32.4199 20.7565L43.2436 31.5802C43.8435 32.18 43.8435 33.1524 43.2436 33.7522L38.0645 38.9314Z" fill="url(#paint25_linear_2311_8095)"/>
</g>
<defs>
<linearGradient id="paint0_linear_2311_8095" x1="28.7317" y1="0.670229" x2="48.6935" y2="20.632" gradientUnits="userSpaceOnUse">
<stop stop-color="#FFF5D9"/>
<stop offset="1" stop-color="#FFCE47"/>
</linearGradient>
<linearGradient id="paint1_linear_2311_8095" x1="5.65431" y1="20.7509" x2="14.5893" y2="29.6859" gradientUnits="userSpaceOnUse">
<stop stop-color="#6FA953"/>
<stop offset="1" stop-color="#43765A"/>
</linearGradient>
<linearGradient id="paint2_linear_2311_8095" x1="20.2263" y1="5.12864" x2="31.9684" y2="16.8709" gradientUnits="userSpaceOnUse">
<stop stop-color="#E4E08E"/>
<stop offset="1" stop-color="#6FA953"/>
</linearGradient>
<linearGradient id="paint3_linear_2311_8095" x1="41.6416" y1="13.5804" x2="60.6996" y2="32.6384" gradientUnits="userSpaceOnUse">
<stop stop-color="#FFCE47"/>
<stop offset="1" stop-color="#FF9356"/>
</linearGradient>
<linearGradient id="paint4_linear_2311_8095" x1="45.8754" y1="30.7775" x2="56.9237" y2="41.8259" gradientUnits="userSpaceOnUse">
<stop stop-color="#FF9356"/>
<stop offset="1" stop-color="#FF755C"/>
</linearGradient>
<linearGradient id="paint5_linear_2311_8095" x1="4.06234" y1="32.1224" x2="17.0627" y2="45.1228" gradientUnits="userSpaceOnUse">
<stop stop-color="#7ACBFF"/>
<stop offset="1" stop-color="#45A2E0"/>
</linearGradient>
<linearGradient id="paint6_linear_2311_8095" x1="31.9788" y1="47.0752" x2="42.8851" y2="57.9814" gradientUnits="userSpaceOnUse">
<stop stop-color="#FF755C"/>
<stop offset="1" stop-color="#FF4181"/>
</linearGradient>
<linearGradient id="paint7_linear_2311_8095" x1="13.3621" y1="41.4222" x2="39.7345" y2="67.7948" gradientUnits="userSpaceOnUse">
<stop stop-color="#FF4181"/>
<stop offset="1" stop-color="#843561"/>
</linearGradient>
<linearGradient id="paint8_linear_2311_8095" x1="44.0562" y1="21.149" x2="31.7706" y2="8.86341" gradientUnits="userSpaceOnUse">
<stop stop-color="#FFF5D9"/>
<stop offset="1" stop-color="#FFCE47"/>
</linearGradient>
<linearGradient id="paint9_linear_2311_8095" x1="19.7823" y1="31.234" x2="4.55532" y2="16.007" gradientUnits="userSpaceOnUse">
<stop stop-color="#6FA953"/>
<stop offset="1" stop-color="#43765A"/>
</linearGradient>
<linearGradient id="paint10_linear_2311_8095" x1="30.4321" y1="18.9794" x2="16.8809" y2="5.42824" gradientUnits="userSpaceOnUse">
<stop stop-color="#E4E08E"/>
<stop offset="1" stop-color="#6FA953"/>
</linearGradient>
<linearGradient id="paint11_linear_2311_8095" x1="54.7595" y1="31.8525" x2="40.4538" y2="17.5469" gradientUnits="userSpaceOnUse">
<stop stop-color="#FFCE47"/>
<stop offset="1" stop-color="#FF9356"/>
</linearGradient>
<linearGradient id="paint12_linear_2311_8095" x1="53.7732" y1="42.3213" x2="44.2159" y2="32.764" gradientUnits="userSpaceOnUse">
<stop stop-color="#FF9356"/>
<stop offset="1" stop-color="#FF755C"/>
</linearGradient>
<linearGradient id="paint13_linear_2311_8095" x1="23.5373" y1="46.444" x2="5.89166" y2="28.7984" gradientUnits="userSpaceOnUse">
<stop stop-color="#7ACBFF"/>
<stop offset="1" stop-color="#45A2E0"/>
</linearGradient>
<linearGradient id="paint14_linear_2311_8095" x1="42.8319" y1="54.2834" x2="29.9704" y2="41.4219" gradientUnits="userSpaceOnUse">
<stop stop-color="#FF755C"/>
<stop offset="1" stop-color="#FF4181"/>
</linearGradient>
<linearGradient id="paint15_linear_2311_8095" x1="32.2906" y1="55.1966" x2="16.5943" y2="39.5003" gradientUnits="userSpaceOnUse">
<stop stop-color="#FF4181"/>
<stop offset="1" stop-color="#843561"/>
</linearGradient>
<linearGradient id="paint16_linear_2311_8095" x1="44.9633" y1="44.963" x2="35.8413" y2="35.841" gradientUnits="userSpaceOnUse">
<stop stop-color="#843561" stop-opacity="0"/>
<stop offset="1" stop-color="#3A2F4D"/>
</linearGradient>
<linearGradient id="paint17_linear_2311_8095" x1="1.53649" y1="49.4664" x2="14.5284" y2="62.4584" gradientUnits="userSpaceOnUse">
<stop stop-color="#FFE0EA"/>
<stop offset="1" stop-color="#FFC0D5"/>
</linearGradient>
<linearGradient id="paint18_linear_2311_8095" x1="6.51465" y1="39.7334" x2="42.0188" y2="39.7334" gradientUnits="userSpaceOnUse">
<stop stop-color="#FFCE47"/>
<stop offset="1" stop-color="#FF9356"/>
</linearGradient>
<linearGradient id="paint19_linear_2311_8095" x1="29.2162" y1="45.5664" x2="16.0988" y2="32.4491" gradientUnits="userSpaceOnUse">
<stop stop-color="#FFCE47"/>
<stop offset="1" stop-color="#FF9356"/>
</linearGradient>
<linearGradient id="paint20_linear_2311_8095" x1="1.63937" y1="61.5711" x2="4.95437" y2="64.8861" gradientUnits="userSpaceOnUse">
<stop stop-color="#2F73A0"/>
<stop offset="1" stop-color="#174461"/>
</linearGradient>
<linearGradient id="paint21_linear_2311_8095" x1="46.1738" y1="11.2325" x2="47.8846" y2="14.0431" gradientUnits="userSpaceOnUse">
<stop stop-color="#EDF5FF"/>
<stop offset="1" stop-color="#C7E9FF"/>
</linearGradient>
<linearGradient id="paint22_linear_2311_8095" x1="50.5185" y1="16.6408" x2="52.8403" y2="20.7955" gradientUnits="userSpaceOnUse">
<stop stop-color="#EDF5FF"/>
<stop offset="1" stop-color="#C7E9FF"/>
</linearGradient>
<linearGradient id="paint23_linear_2311_8095" x1="54.9057" y1="13.8619" x2="50.9187" y2="9.87491" gradientUnits="userSpaceOnUse">
<stop stop-color="#2F73A0"/>
<stop offset="1" stop-color="#174461"/>
</linearGradient>
<linearGradient id="paint24_linear_2311_8095" x1="39.7994" y1="24.1989" x2="37.6213" y2="26.377" gradientUnits="userSpaceOnUse">
<stop stop-color="#7ACBFF" stop-opacity="0"/>
<stop offset="1" stop-color="#2F73A0"/>
</linearGradient>
<linearGradient id="paint25_linear_2311_8095" x1="35.7172" y1="27.378" x2="32.3265" y2="32.824" gradientUnits="userSpaceOnUse">
<stop stop-color="#2F73A0"/>
<stop offset="1" stop-color="#174461"/>
</linearGradient>
<clipPath id="clip0_2311_8095">
<rect width="64" height="64" fill="white"/>
</clipPath>
</defs>
</svg>
