<?xml version="1.0" encoding="utf-8"?>
<!-- Generator: Adobe Illustrator 25.4.1, SVG Export Plug-In . SVG Version: 6.00 Build 0)  -->
<svg version="1.1" id="Слой_1" xmlns="http://www.w3.org/2000/svg" xmlns:xlink="http://www.w3.org/1999/xlink" x="0px" y="0px"
	 viewBox="0 0 140.6 129" style="enable-background:new 0 0 140.6 129;" xml:space="preserve">
<style type="text/css">
	.st0{fill:none;stroke:#231F20;stroke-width:7;stroke-linecap:round;stroke-linejoin:round;}
	.st1{fill:#231F20;stroke:#231F20;stroke-width:6;stroke-linecap:round;stroke-linejoin:round;stroke-miterlimit:10;}
</style>
<g>
	<path class="st0" d="M91.9,106.9H19.2c-7.1,0-12.8-5.7-12.8-12.8V40.7c0-6.9,5.6-12.5,12.5-12.5h83.6c6.9,0,12.4,5.6,12.4,12.4v54
		c0,6.8-5.5,12.3-12.3,12.3h-3.1H91.9z"/>
	<line class="st0" x1="26.9" y1="52.4" x2="92.9" y2="52.4"/>
	<line class="st0" x1="26.9" y1="67.7" x2="92.9" y2="67.6"/>
	<line class="st0" x1="26.9" y1="82.1" x2="92.9" y2="82.1"/>
	<polygon class="st1" points="105.5,106.9 89.7,121.1 89.7,106.9 	"/>
	<path class="st0" d="M24.5,27.4v-2.7c0-6.9,5.6-12.5,12.5-12.5h83.6c6.8,0,12.3,5.5,12.3,12.3v53.7c0,7-5.6,12.6-12.6,12.6l-5.5,0"
		/>
</g>
</svg>
