<svg width="66" height="66" viewBox="0 0 66 66" fill="none" xmlns="http://www.w3.org/2000/svg">
<g clip-path="url(#clip0_2311_7415)">
<path d="M59.2393 48.0756V51.3753C59.2393 52.4868 58.8382 53.5594 58.1169 54.4052C56.8954 55.8372 55.5534 57.1634 54.1069 58.3683C53.353 58.9962 52.2083 58.4615 52.2083 57.4804C52.2083 53.5107 48.9903 50.2927 45.0206 50.2927H15.0368C7.58201 50.2927 1.27076 44.7768 0.289137 37.3869C0.0983555 35.9516 0 34.4873 0 32.9999C0 14.797 14.7382 0.0362895 32.9326 6.68572e-05C51.0919 -0.0362847 65.9541 14.7558 65.9999 32.915C66.0088 36.4662 65.4568 39.8874 64.4273 43.0946C64.3192 43.4317 64.0072 43.6615 63.6533 43.6615C61.2155 43.6615 59.2393 45.6378 59.2393 48.0756Z" fill="#60C8DD"/>
<path d="M60.6053 32.9997C60.6053 48.2455 48.246 60.6048 33.0002 60.6048C17.7543 60.6048 5.39502 48.2455 5.39502 32.9997C5.39502 17.7538 17.7543 5.39453 33.0002 5.39453C48.246 5.39453 60.6053 17.7538 60.6053 32.9997Z" fill="#7CD2E3"/>
<path d="M54.1406 18.6914V58.3403C52.5739 59.6488 50.8838 60.8147 49.0906 61.8181C48.4658 62.1677 47.6953 61.7101 47.6953 60.9942V18.6914C47.6953 17.9795 48.2724 17.4023 48.9844 17.4023H52.8516C53.5635 17.4023 54.1406 17.9795 54.1406 18.6914Z" fill="#3D4EC6"/>
<path d="M11.6016 51.5625H7.73438C7.02243 51.5625 6.44531 50.9854 6.44531 50.2734V18.0469C6.44531 17.3349 7.02243 16.7578 7.73438 16.7578H11.6016C12.3135 16.7578 12.8906 17.3349 12.8906 18.0469V50.2734C12.8906 50.9854 12.3135 51.5625 11.6016 51.5625ZM64.4531 43.0142V33.5156C64.4531 32.8037 63.876 32.2266 63.1641 32.2266H59.2969C58.5849 32.2266 58.0078 32.8037 58.0078 33.5156V54.5324C60.8752 51.2052 63.0899 47.2996 64.4531 43.0142ZM33.5156 39.9609V7.73438C33.5156 7.02243 32.9385 6.44531 32.2266 6.44531H28.3594C27.6474 6.44531 27.0703 7.02243 27.0703 7.73438V39.9609C27.0703 40.6729 27.6474 41.25 28.3594 41.25H32.2266C32.9385 41.25 33.5156 40.6729 33.5156 39.9609Z" fill="#FFB52D"/>
<path d="M32.2268 19.3359H30.9404C30.2285 19.3359 29.6514 18.7588 29.6514 18.0469V7.73438C29.6514 7.02243 30.2285 6.44531 30.9404 6.44531H32.2268C32.9387 6.44531 33.5159 7.02243 33.5159 7.73438V18.0469C33.5159 18.7588 32.9387 19.3359 32.2268 19.3359ZM64.4534 40.9182V33.5156C64.4534 32.8037 63.8762 32.2266 63.1643 32.2266H61.8779C61.166 32.2266 60.5889 32.8037 60.5889 33.5156V40.9182C60.5889 41.6301 61.166 42.2073 61.8779 42.2073H63.1643C63.8762 42.2073 64.4534 41.63 64.4534 40.9182ZM12.8908 26.5793V18.0469C12.8908 17.3349 12.3137 16.7578 11.6018 16.7578H10.3154C9.60348 16.7578 9.02637 17.3349 9.02637 18.0469V26.5793C9.02637 27.2913 9.60348 27.8684 10.3154 27.8684H11.6018C12.3137 27.8684 12.8908 27.2913 12.8908 26.5793Z" fill="#FFC14F"/>
<path d="M42.5391 51.5625H38.6719C37.9599 51.5625 37.3828 50.9854 37.3828 50.2734V21.1406C37.3828 20.4287 37.9599 19.8516 38.6719 19.8516H42.5391C43.251 19.8516 43.8281 20.4287 43.8281 21.1406V50.2734C43.8281 50.9854 43.251 51.5625 42.5391 51.5625ZM23.2031 45.1172V12.8906C23.2031 12.1787 22.626 11.6016 21.9141 11.6016H18.0469C17.3349 11.6016 16.7578 12.1787 16.7578 12.8906V45.1172C16.7578 45.8291 17.3349 46.4062 18.0469 46.4062H21.9141C22.626 46.4062 23.2031 45.8291 23.2031 45.1172ZM52.8516 54.5324H51.5652C50.8533 54.5324 50.2761 53.9553 50.2761 53.2433V18.6914C50.2761 17.9795 50.8533 17.4023 51.5652 17.4023H52.8516C53.5635 17.4023 54.1406 17.9795 54.1406 18.6914V53.2433C54.1406 53.9553 53.5635 54.5324 52.8516 54.5324Z" fill="#5766CE"/>
<path d="M21.9143 19.8516H20.6279C19.916 19.8516 19.3389 19.2744 19.3389 18.5625V12.8906C19.3389 12.1787 19.916 11.6016 20.6279 11.6016H21.9143C22.6262 11.6016 23.2033 12.1787 23.2033 12.8906V18.5625C23.2033 19.2744 22.6262 19.8516 21.9143 19.8516ZM43.8283 26.8125V21.1406C43.8283 20.4287 43.2512 19.8516 42.5393 19.8516H41.2529C40.541 19.8516 39.9639 20.4287 39.9639 21.1406V26.8125C39.9639 27.5244 40.541 28.1016 41.2529 28.1016H42.5393C43.2512 28.1016 43.8283 27.5244 43.8283 26.8125Z" fill="#717ED6"/>
<path d="M51.3086 8.08607V12.8133C51.3086 13.1692 51.02 13.4578 50.6641 13.4578C50.3081 13.4578 50.0195 13.1692 50.0195 12.8133V9.70384L37.7255 21.9979C37.4737 22.2495 37.0657 22.2495 36.814 21.9979L32.8452 18.0291L17.9452 31.9117C17.8209 32.0277 17.663 32.0851 17.5055 32.0851C17.3332 32.0851 17.1612 32.0163 17.0342 31.8803C16.7914 31.6201 16.8053 31.2122 17.0656 30.9694L32.4207 16.6619C32.6747 16.4248 33.0707 16.4317 33.3164 16.6773L37.2697 20.6306L49.1698 8.73047H45.9367C45.5808 8.73047 45.2921 8.44185 45.2921 8.08594C45.2921 7.73003 45.5808 7.44141 45.9367 7.44141H50.6639C51.02 7.44154 51.3086 7.73003 51.3086 8.08607Z" fill="#FFF5F5"/>
<path d="M37.2656 26.1816C33.8565 24.3251 29.572 23.3027 25.2011 23.3027C20.8303 23.3027 16.5456 24.3252 13.1365 26.1817C12.2797 26.6485 11.7681 27.4583 11.7681 28.348V31.3525C11.7681 33.0691 13.4079 34.4655 15.4235 34.4655H34.9785C36.9941 34.4655 38.6339 33.0691 38.6339 31.3525V28.348C38.6342 27.4582 38.1226 26.6484 37.2656 26.1816ZM37.3451 31.3524C37.3451 32.3581 36.2836 33.1763 34.9788 33.1763H15.4237C14.1188 33.1763 13.0574 32.3581 13.0574 31.3524V28.3479C13.0574 27.9376 13.3176 27.551 13.7532 27.3137C16.9764 25.5583 21.0421 24.5917 25.2013 24.5917C29.3604 24.5917 33.4261 25.5583 36.6493 27.3137C37.0851 27.551 37.3453 27.9376 37.3453 28.3479V31.3524H37.3451Z" fill="#7C3F2C"/>
<path d="M45.3439 35.2074V49.5137C45.3439 58.5322 37.9763 65.8505 28.9589 65.7078C28.6822 65.7034 28.4713 65.6918 28.3381 65.673C15.4179 63.8461 4.90355 54.5369 1.31982 42.2705V35.2074C1.31982 32.5564 3.46895 30.4072 6.12004 30.4072H40.5436C43.1946 30.4072 45.3439 32.5564 45.3439 35.2074Z" fill="#954C35"/>
<path d="M49.0824 35.2074V61.8226C44.3241 64.4832 38.8391 65.9998 33.0001 65.9998C31.4176 65.9998 29.8612 65.8884 28.3382 65.673C24.4119 60.5126 22.0811 54.0726 22.0811 47.088C22.0811 40.9384 23.8879 35.2108 26.9997 30.4072H44.2821C46.9331 30.4072 49.0824 32.5564 49.0824 35.2074Z" fill="#AE583E"/>
<path d="M50.4023 35.414V39.8722C50.4023 41.0464 49.8313 42.1488 48.8687 42.8213C42.4053 47.3374 34.1698 50.0432 25.2012 50.0432C16.2325 50.0432 7.99709 47.3374 1.5336 42.8213C0.571055 42.1488 0 41.0466 0 39.8724V35.4141C0 32.6165 2.26798 30.3486 5.0655 30.3486H45.3367C48.1344 30.3485 50.4023 32.6163 50.4023 35.414Z" fill="#C0694E"/>
<path d="M50.4024 35.4211V39.8793C50.4024 41.0535 49.8313 42.1559 48.8688 42.8284C42.4053 47.3445 34.1699 50.0503 25.2012 50.0503C24.1796 50.0503 23.1676 50.0151 22.1666 49.9461C22.1099 49.1836 22.0811 48.4133 22.0811 47.6363C22.0811 41.2285 24.0429 35.2789 27.3986 30.3555H45.3369C48.1344 30.3556 50.4024 32.6234 50.4024 35.4211Z" fill="#C97E67"/>
<path d="M30.6012 52.0925H19.8007C19.1379 52.0925 18.6006 51.5553 18.6006 50.8924V49.6923C18.6006 49.0295 19.1379 48.4922 19.8007 48.4922H30.6012C31.2641 48.4922 31.8014 49.0295 31.8014 49.6923V50.8924C31.8012 51.5553 31.264 52.0925 30.6012 52.0925Z" fill="#FF9F22"/>
<path d="M30.6014 52.0925H22.081C21.4181 52.0925 20.8809 51.5553 20.8809 50.8924V49.6923C20.8809 49.0295 21.4181 48.4922 22.081 48.4922H30.6014C31.2643 48.4922 31.8015 49.0295 31.8015 49.6923V50.8924C31.8014 51.5553 31.2641 52.0925 30.6014 52.0925Z" fill="#FFC14F"/>
<path d="M30.0013 50.8925H20.4008C20.0694 50.8925 19.8008 50.6239 19.8008 50.2924C19.8008 49.961 20.0694 49.6924 20.4008 49.6924H30.0013C30.3327 49.6924 30.6013 49.961 30.6013 50.2924C30.6013 50.6239 30.3327 50.8925 30.0013 50.8925Z" fill="#FF9100"/>
<path d="M23.8811 50.8925H20.4008C20.0694 50.8925 19.8008 50.6239 19.8008 50.2924C19.8008 49.961 20.0694 49.6924 20.4008 49.6924H23.8811C23.5496 49.6924 23.281 49.961 23.281 50.2924C23.281 50.6239 23.5496 50.8925 23.8811 50.8925Z" fill="#DD7D00"/>
<path d="M24.4661 25.07C24.4661 26.3984 23.3892 27.4753 22.0608 27.4753H15.9812C14.7023 27.4753 13.6655 26.8131 13.6655 25.9962V25.4644C13.6655 25.1215 13.9266 24.7997 14.3666 24.6033C16.4874 23.6568 19.0254 22.9828 21.8052 22.6776C23.226 22.5215 24.4661 23.6406 24.4661 25.07Z" fill="#AE583E"/>
<path d="M36.7069 25.4649V25.9967C36.7069 26.8136 35.6701 27.4758 34.3912 27.4758H22.0721C20.7433 27.4758 19.666 26.3987 19.666 25.0698C19.666 23.847 20.5823 22.8126 21.7977 22.6789C22.8933 22.5584 24.0264 22.4951 25.1863 22.4951C29.2863 22.4951 33.051 23.2852 36.0058 24.6038C36.4459 24.8001 36.7069 25.122 36.7069 25.4649Z" fill="#C0694E"/>
<path d="M42.1817 8.83008C42.1817 9.18599 41.8931 9.47461 41.5372 9.47461H38.2559C37.8999 9.47461 37.6113 9.18599 37.6113 8.83008C37.6113 8.47417 37.8999 8.18555 38.2559 8.18555H41.5372C41.8932 8.18555 42.1817 8.47417 42.1817 8.83008Z" fill="#ECECF1"/>
<path d="M41.8034 11.7949C41.8034 12.1508 41.5148 12.4395 41.1589 12.4395H38.6343C38.2784 12.4395 37.9897 12.1508 37.9897 11.7949C37.9897 11.439 38.2784 11.1504 38.6343 11.1504H41.1589C41.5149 11.1504 41.8034 11.439 41.8034 11.7949ZM38.6344 6.50977H41.159C41.5149 6.50977 41.8036 6.22114 41.8036 5.86523C41.8036 5.50932 41.5149 5.2207 41.159 5.2207H38.6344C38.2785 5.2207 37.9899 5.50932 37.9899 5.86523C37.9899 6.22114 38.2784 6.50977 38.6344 6.50977Z" fill="#C2EAF2"/>
</g>
<defs>
<clipPath id="clip0_2311_7415">
<rect width="66" height="66" fill="white"/>
</clipPath>
</defs>
</svg>
