<?xml version="1.0" encoding="utf-8"?>
<!-- Generator: Adobe Illustrator 25.4.1, SVG Export Plug-In . SVG Version: 6.00 Build 0)  -->
<svg version="1.1" id="Слой_1" xmlns="http://www.w3.org/2000/svg" xmlns:xlink="http://www.w3.org/1999/xlink" x="0px" y="0px"
	 viewBox="0 0 140.6 129" style="enable-background:new 0 0 140.6 129;" xml:space="preserve">
<style type="text/css">
	.st0{fill:none;stroke:#3B3735;stroke-width:7;stroke-linecap:round;stroke-linejoin:round;stroke-miterlimit:10;}
	.st1{fill:none;stroke:#3B3735;stroke-width:6;stroke-linecap:round;stroke-linejoin:round;stroke-miterlimit:10;}
	.st2{fill:#3A3435;}
</style>
<polygon class="st0" points="54.7,108 27.9,81.2 110.3,6.4 129.5,25.6 "/>
<path class="st1" d="M29.8,83.1L24,88.9c0,0-0.2,15.1-6,20.9l4.1,4.1l4.1,4.1c5.8-5.8,20.9-6,20.9-6l5.8-5.8L29.8,83.1z"/>
<path class="st2" d="M21,122.6l-9.1-3c-0.8-0.3-1-1.3-0.4-1.9l5.6-5.6c0.4-0.4,1.2-0.4,1.6,0l6.1,6.1c0.4,0.4,0.4,1.2,0,1.6
	l-2.5,2.5C21.8,122.6,21.4,122.7,21,122.6z"/>
</svg>
