<svg width="66" height="66" viewBox="0 0 66 66" fill="none" xmlns="http://www.w3.org/2000/svg">
<g clip-path="url(#clip0_2311_7539)">
<path d="M31.6718 2.91504C14.2752 2.91504 0.172363 17.0178 0.172363 34.4144C0.172363 36.2727 0.334618 38.0928 0.643185 39.8626L26.6087 65.5068C28.2572 65.7732 29.9479 65.9138 31.6716 65.9138C49.0682 65.9138 63.171 51.8112 63.171 34.4146C63.171 17.018 49.0684 2.91504 31.6718 2.91504Z" fill="#746BF9"/>
<path d="M40.6593 15.3127C44.864 15.3127 48.2726 11.9041 48.2726 7.69931C48.2726 3.49456 44.864 0.0859375 40.6593 0.0859375C36.4545 0.0859375 33.0459 3.49456 33.0459 7.69931C33.0459 11.9041 36.4545 15.3127 40.6593 15.3127Z" fill="#42C3FC"/>
<path d="M43.9913 14.5463C43.9365 14.501 43.8748 14.4623 43.8036 14.4374C41.7995 13.7397 41.9646 12.1625 42.1941 11.3729C42.2699 11.1124 42.1714 10.8365 41.9507 10.6787C41.1653 10.1176 41.4132 9.24131 41.5836 8.84287C41.6451 8.69862 41.6522 8.537 41.5989 8.38953L40.2043 4.53322C40.1467 4.37418 40.0255 4.24805 39.8723 4.17618C38.1455 3.36607 38.4102 1.44717 38.5984 0.674209C38.6231 0.573024 38.6203 0.469397 38.5946 0.37207C35.3934 1.27231 33.0459 4.2109 33.0459 7.69976C33.0459 11.9045 36.4545 15.3131 40.6593 15.3131C41.8543 15.3131 42.9848 15.0371 43.9913 14.5463Z" fill="#1AA9E8"/>
<path d="M40.6595 4.25098C38.3991 4.25098 36.427 5.48473 35.3796 7.31543C35.2433 7.55367 35.2433 7.84578 35.3796 8.08402C36.427 9.91472 38.3993 11.1485 40.6595 11.1485C42.9199 11.1485 44.892 9.91472 45.9396 8.08402C46.0759 7.84578 46.0759 7.55367 45.9396 7.31543C44.892 5.48473 42.9199 4.25098 40.6595 4.25098Z" fill="#E9EFFF"/>
<path d="M41.951 10.6785C41.1656 10.1174 41.4134 9.24108 41.5838 8.84264C41.6454 8.69838 41.6524 8.53677 41.5991 8.3893L40.2045 4.53299C40.1695 4.43617 40.1088 4.35363 40.0339 4.28613C38.0391 4.49043 36.329 5.65591 35.3796 7.31523C35.2433 7.55347 35.2433 7.84558 35.3796 8.08382C36.427 9.91452 38.3991 11.1483 40.6595 11.1483C41.1814 11.1483 41.6869 11.0797 42.1702 10.9561C42.1253 10.8476 42.0517 10.7504 41.951 10.6785Z" fill="#BEC8F7"/>
<path d="M64.8274 20.2008C65.7945 16.1096 63.2619 12.009 59.1707 11.0419C55.0795 10.0748 50.9789 12.6074 50.0118 16.6986C49.0447 20.7899 51.5773 24.8904 55.6686 25.8575C59.7598 26.8246 63.8604 24.292 64.8274 20.2008Z" fill="#FF4155"/>
<path d="M59.9355 21.0249C59.915 20.7719 59.7285 20.567 59.4829 20.5024C59.276 20.448 59.1404 20.32 59.0717 20.2387C59.0427 20.2043 59.0189 20.1665 58.9992 20.126C58.8795 19.8804 58.1901 18.5812 56.6238 17.74C55.4145 17.0906 55.521 16.1818 55.6969 15.6905C55.7755 15.4709 55.7166 15.2272 55.5497 15.0644C54.0619 13.6121 54.7708 12.0537 55.1884 11.3991C55.2429 11.3136 55.2729 11.2179 55.2807 11.1211C52.1128 12.0426 49.7969 14.9652 49.7969 18.4304C49.7969 22.6351 53.2055 26.0438 57.4102 26.0438C59.679 26.0438 61.7146 25.0503 63.1095 23.476C60.4874 23.5881 60.0071 21.9119 59.9355 21.0249Z" fill="#E80054"/>
<path d="M61.4969 16.6765C60.8084 15.4154 59.1922 14.9981 57.9387 15.7005L57.6325 15.8721C57.4943 15.9496 57.3257 15.9496 57.1875 15.8721L56.8257 15.6695C55.5638 14.9624 53.9672 15.4388 53.2991 16.7217H53.2989C52.6685 17.9322 53.0928 19.43 54.2731 20.1153C55.2685 20.6933 56.2121 21.4176 57.0051 22.2827C57.2218 22.5192 57.5982 22.5192 57.8149 22.2826C58.6079 21.4176 59.5513 20.6935 60.5469 20.1153C61.7417 19.4213 62.1619 17.8945 61.4969 16.6765Z" fill="#E9EFFF"/>
<path d="M54.2731 20.1153C55.2685 20.6933 56.212 21.4176 57.0051 22.2827C57.2218 22.5191 57.5982 22.5191 57.8149 22.2826C58.3874 21.658 59.039 21.1081 59.7315 20.6324C59.6611 20.5721 59.5762 20.527 59.4826 20.5023C59.2757 20.4479 59.1401 20.3198 59.0714 20.2386C59.0424 20.2041 59.0186 20.1663 58.9989 20.1258C58.8792 19.8803 58.1898 18.5811 56.6235 17.7398C55.4141 17.0904 55.5207 16.1817 55.6966 15.6903C55.7369 15.5779 55.7406 15.4594 55.7127 15.3484C54.7412 15.2961 53.7798 15.7984 53.2991 16.7216H53.2989C52.6685 17.9322 53.0928 19.43 54.2731 20.1153Z" fill="#BEC8F7"/>
<path d="M63.7588 43.37C66.7316 40.3972 66.7316 35.5774 63.7588 32.6046C60.786 29.6319 55.9662 29.6319 52.9935 32.6047C50.0207 35.5774 50.0207 40.3972 52.9935 43.37C55.9662 46.3427 60.786 46.3427 63.7588 43.37Z" fill="#FFB332"/>
<path d="M59.8839 42.4777L58.0606 34.2453C55.3773 33.2457 56.4582 30.6258 56.4616 30.6172C53.1889 31.4699 50.7729 34.445 50.7729 37.9847C50.7729 42.1895 54.1816 45.5981 58.3863 45.5981C59.3791 45.5981 60.3265 45.406 61.1962 45.0604C59.3062 44.4289 59.8839 42.4777 59.8839 42.4777Z" fill="#FF9100"/>
<path d="M54.9665 34.2461H61.8065C62.4109 34.2461 62.9055 34.7407 62.9055 35.3451V40.2062C62.9055 40.8107 62.4109 41.3052 61.8065 41.3052H60.8282C60.7192 41.3052 60.6173 41.3601 60.5576 41.4514L59.8838 42.4785C59.7202 42.7282 59.3541 42.7282 59.1905 42.4785L58.5168 41.4514C58.457 41.3602 58.3553 41.3052 58.2461 41.3052H54.9662C54.3618 41.3052 53.8672 40.8106 53.8672 40.2062V35.3451C53.8674 34.7406 54.3621 34.2461 54.9665 34.2461Z" fill="#E9EFFF"/>
<path d="M56.9616 40.2061V35.3451C56.9616 34.7406 57.4562 34.2461 58.0606 34.2461H54.9662C54.3618 34.2461 53.8672 34.7407 53.8672 35.3451V40.2062C53.8672 40.8106 54.3618 41.3052 54.9662 41.3052H58.0606C57.4562 41.3052 56.9616 40.8106 56.9616 40.2061Z" fill="#BEC8F7"/>
<path d="M38.7326 4.56289C38.3293 5.01751 38.084 5.61549 38.084 6.27106C38.084 7.69356 39.2371 8.8467 40.6596 8.8467C42.0821 8.8467 43.2352 7.69356 43.2352 6.27106C43.2352 5.61549 42.9899 5.01764 42.5866 4.56302C41.981 4.36078 41.3332 4.25098 40.6596 4.25098C39.986 4.25085 39.3382 4.36065 38.7326 4.56289Z" fill="#47477F"/>
<path d="M19.0362 51.7141C18.3848 52.0902 17.5537 51.9856 17.0151 51.4596L16.8986 51.3457L14.3374 52.8245L19.4234 58.1521C19.5353 58.098 19.6467 58.0411 19.7562 57.9778C22.1557 56.5925 22.9778 53.5243 21.5925 51.1249C21.462 50.8989 21.3164 50.6869 21.158 50.4893L19.0362 51.7141Z" fill="#D3DCFB"/>
<path d="M17.0151 51.4596L16.8986 51.3457L14.3374 52.8245L19.4234 58.1522C19.5355 58.0981 19.6467 58.0411 19.7562 57.9778C20.5707 57.5075 21.2029 56.8431 21.6292 56.0769C18.0713 55.1961 19.0364 51.7142 19.0364 51.7142C18.3848 52.0904 17.5537 51.9856 17.0151 51.4596Z" fill="#BEC8F7"/>
<path d="M14.4778 52.6611L8.71973 55.9856C13.4054 60.9693 19.6951 64.4269 26.7651 65.5327L14.4778 52.6611Z" fill="#E9EFFF"/>
<path d="M19.6236 58.0507L14.4778 52.6602L8.71973 55.9846C10.7272 58.1197 13.0298 59.9736 15.5612 61.4835C15.4232 57.5547 19.6236 58.0507 19.6236 58.0507Z" fill="#D3DCFB"/>
<path d="M5.37124 37.2948L3.61112 34.2462C3.07679 33.3206 1.89343 33.0036 0.967862 33.5379C0.04229 34.0722 -0.274762 35.2556 0.259572 36.1812L2.01969 39.2298L5.37124 37.2948Z" fill="#E9EFFF"/>
<path d="M3.7898 34.5557C3.79661 34.6256 3.80047 34.6964 3.80047 34.7681C3.80047 35.9537 2.83928 36.9149 1.65361 36.9149C1.22085 36.9149 0.818683 36.7857 0.481445 36.5655L2.01965 39.2298L5.3712 37.2948L3.7898 34.5557Z" fill="#D3DCFB"/>
<path d="M8.92172 56.1998L17.2276 51.4044C17.1059 51.2855 16.997 51.1497 16.9078 50.9952L8.2052 35.9221C8.11598 35.7675 8.05272 35.6053 8.01068 35.4404L0.617676 39.7088C1.69123 46.0518 4.65939 51.75 8.92172 56.1998Z" fill="#FF7186"/>
<path d="M12.1383 43.5717L12.1446 42.745L8.20534 35.9221C8.11611 35.7675 8.05285 35.6053 8.01081 35.4404L0.617676 39.7088C1.1362 42.7722 2.0979 45.6846 3.43258 48.3793C3.60717 46.7249 4.71364 46.1863 4.71364 46.1863C4.71364 46.1863 6.96361 44.8684 8.92263 43.7905C10.8815 42.7127 12.1383 43.5717 12.1383 43.5717Z" fill="#FF4155"/>
<path d="M26.7704 46.6142C32.6303 44.2775 38.9151 43.9407 44.7619 45.3682L27.0049 14.6123C25.3177 20.3896 21.8837 25.6639 16.9302 29.5705C17.2949 29.7266 17.6149 29.9956 17.8286 30.3657L26.531 45.4386C26.7445 45.8087 26.8176 46.2202 26.7704 46.6142Z" fill="#D3DCFB"/>
<path d="M33.2156 25.3693L27.0049 14.6123C25.3178 20.3896 21.8837 25.6639 16.9302 29.5705C17.2949 29.7266 17.6149 29.9956 17.8286 30.3657L22.0667 37.7061C27.0273 34.1172 30.8502 29.7946 33.2156 25.3693Z" fill="#BEC8F7"/>
<path d="M26.083 47.8935L19.1436 51.9C18.2337 52.4253 17.0704 52.1136 16.5451 51.2037L7.84259 36.1307C7.31725 35.2208 7.62903 34.0574 8.53892 33.5322L15.4783 29.5257C16.3882 29.0004 17.5516 29.3121 18.0769 30.2219L26.7792 45.2949C27.3045 46.2049 26.9928 47.3682 26.083 47.8935Z" fill="#FF4155"/>
<path d="M18.0768 30.2219C17.5515 29.312 16.3882 29.0004 15.4783 29.5257L8.53886 33.5322C7.62898 34.0575 7.31733 35.221 7.84253 36.1307L12.1383 43.5713C12.6288 41.4032 14.4276 42.3775 14.4276 42.3775L20.1939 39.0483C20.4603 36.964 22.2994 37.5361 22.2994 37.5361L18.0768 30.2219Z" fill="#E80054"/>
<path d="M11.7104 36.7049C11.3772 36.7049 11.053 36.532 10.8745 36.2226C10.6082 35.7615 10.7662 35.1717 11.2274 34.9054L15.3236 32.5405C15.7848 32.2741 16.3745 32.4323 16.6408 32.8935C16.9071 33.3546 16.7491 33.9444 16.2879 34.2107L12.1917 36.5756C12.0398 36.6633 11.874 36.7049 11.7104 36.7049Z" fill="#FF7186"/>
<path d="M13.4868 39.783C13.1535 39.783 12.8294 39.6101 12.6508 39.3008C12.3846 38.8396 12.5426 38.2498 13.0038 37.9836L17.1 35.6187C17.5612 35.3523 18.1509 35.5104 18.4172 35.9716C18.6834 36.4328 18.5254 37.0225 18.0643 37.2888L13.968 39.6537C13.8162 39.7414 13.6503 39.783 13.4868 39.783Z" fill="#FF7186"/>
<path d="M15.2636 42.8602C14.9304 42.8602 14.6063 42.6873 14.4277 42.3779C14.1614 41.9167 14.3194 41.327 14.7806 41.0607L18.8768 38.6958C19.338 38.4294 19.9278 38.5876 20.194 39.0487C20.4603 39.5099 20.3023 40.0997 19.8411 40.3659L15.7449 42.7308C15.593 42.8185 15.4272 42.8602 15.2636 42.8602Z" fill="#FF7186"/>
<path d="M17.0405 45.9373C16.7072 45.9373 16.3831 45.7644 16.2045 45.4551C15.9383 44.9939 16.0963 44.4041 16.5575 44.1379L20.6537 41.773C21.1149 41.5066 21.7046 41.6647 21.9709 42.1259C22.2372 42.5871 22.0791 43.1768 21.618 43.4431L17.5217 45.808C17.3699 45.8957 17.204 45.9373 17.0405 45.9373Z" fill="#FF7186"/>
<path d="M18.8169 49.0145C18.4836 49.0145 18.1595 48.8415 17.9809 48.5322C17.7146 48.071 17.8727 47.4813 18.3338 47.215L22.4301 44.8501C22.8912 44.5837 23.481 44.7418 23.7473 45.203C24.0135 45.6642 23.8555 46.254 23.3943 46.5202L19.2981 48.8851C19.1463 48.9728 18.9804 49.0145 18.8169 49.0145Z" fill="#FF7186"/>
<path d="M47.2469 46.3171C46.3215 46.8514 45.138 46.5344 44.6037 45.6088L26.7171 14.6284C26.1827 13.7028 26.4999 12.5195 27.4254 11.9852C28.3508 11.4508 29.5343 11.7679 30.0686 12.6934L47.9551 43.6738C48.4896 44.5994 48.1725 45.7828 47.2469 46.3171Z" fill="#E9EFFF"/>
<path d="M34.1793 23.529C34.8455 23.1445 35.625 23.1374 36.2731 23.4392L30.0691 12.6934C29.5348 11.7679 28.3513 11.4508 27.4258 11.9852C26.5004 12.5195 26.1832 13.7028 26.7176 14.6284L33.0481 25.5931C33.013 24.7754 33.4214 23.9667 34.1793 23.529Z" fill="#D3DCFB"/>
<path d="M54.4004 56.221C52.4005 53.1528 48.9007 49.6211 44.6836 50.1232C37.471 50.9817 19.5991 51.935 33.1507 65.8775C41.4922 65.4918 48.9861 61.8625 54.4004 56.221Z" fill="#827DF9"/>
<path d="M2.60645 22.2544C4.99964 35.9042 22.2325 14.1214 23.1461 9.29151C23.5558 7.12537 22.4998 5.66945 21.1626 4.71289C12.7782 7.67963 6.02434 14.0944 2.60645 22.2544Z" fill="#827DF9"/>
<path d="M41.4124 6.82772C41.9317 6.82772 42.3526 6.40677 42.3526 5.88749C42.3526 5.36822 41.9317 4.94727 41.4124 4.94727C40.8931 4.94727 40.4722 5.36822 40.4722 5.88749C40.4722 6.40677 40.8931 6.82772 41.4124 6.82772Z" fill="#5F5F9B"/>
</g>
<defs>
<clipPath id="clip0_2311_7539">
<rect width="66" height="66" fill="white"/>
</clipPath>
</defs>
</svg>
