<svg width="66" height="66" viewBox="0 0 66 66" fill="none" xmlns="http://www.w3.org/2000/svg">
<g clip-path="url(#clip0_2311_8226)">
<path d="M61.0034 49.0303C63.2881 44.6608 64.582 39.6911 64.582 34.4187C64.582 16.9765 50.4424 2.83691 33.0002 2.83691C15.558 2.83691 1.41846 16.9766 1.41846 34.4187C1.41846 39.6912 2.71229 44.6608 4.99702 49.0305L61.0034 49.0303Z" fill="#5AAB5F"/>
<path d="M30.6324 0.147632C23.5214 1.11649 22.8455 5.14817 22.8423 6.62749C22.8417 6.93764 22.6698 7.22523 22.3909 7.36084C18.692 9.16024 20.6862 17.8325 20.6862 17.8325C21.0577 17.8573 21.4465 18.0077 21.7364 18.1482C21.8074 17.7063 21.9233 17.2713 22.087 16.8507C22.2118 16.5302 22.3677 16.2065 22.5627 15.9006C22.901 15.3699 23.055 14.7439 23.0091 14.118C22.8762 12.3088 22.9401 8.74375 25.3284 7.66931C27.3516 6.75898 29.8333 7.28608 31.416 7.8124C32.4438 8.15413 33.5571 8.15413 34.585 7.8124C36.1676 7.28608 38.6494 6.75898 40.6726 7.66931C43.0539 8.74078 43.1244 12.2885 42.9929 14.1025C42.9473 14.7331 43.0972 15.3657 43.438 15.9005C43.6393 16.2162 43.799 16.551 43.9257 16.8815C44.0832 17.2924 44.1952 17.717 44.2644 18.1481C44.6299 17.971 45.1523 17.7781 45.5993 17.8413C45.6539 15.945 45.829 13.9008 45.829 13.9008C47.9363 3.57989 38.2889 -0.895606 30.6324 0.147632Z" fill="#665364"/>
<path d="M30.6323 0.148114C23.5213 1.11697 22.8454 5.14865 22.8424 6.62784C22.8417 6.93812 22.6699 7.22558 22.3909 7.36119C18.692 9.1606 20.6863 17.8329 20.6863 17.8329C21.0578 17.8576 21.4466 18.0081 21.7365 18.1486C21.8075 17.7067 21.9234 17.2716 22.0871 16.851C22.2119 16.5306 22.3678 16.2069 22.5628 15.901C22.901 15.3703 23.055 14.7443 23.0092 14.1183C22.8763 12.3091 22.9402 8.7441 25.3283 7.66967C27.2534 6.80342 29.593 7.23873 31.1787 7.73644C31.1645 7.71027 31.1516 7.68346 31.1368 7.65755C28.4887 3.02801 32.9691 0.107122 33.1311 0.00348105C32.2868 -0.0109565 31.4481 0.0369967 30.6323 0.148114Z" fill="#543E5B"/>
<path d="M46.3983 18.0875C45.8444 17.5798 44.7412 17.8371 44.2642 18.1479C44.3688 18.7986 44.3747 19.4644 44.2843 20.1219L43.7214 24.2216C43.7214 24.5521 43.711 24.8763 43.6919 25.195C45.0645 25.609 45.7463 24.3767 45.8613 23.531C45.9106 23.167 45.9915 22.8083 46.1036 22.4582C46.4688 21.3177 47.786 19.3591 46.3983 18.0875Z" fill="#FCAD6D"/>
<path d="M45.2064 21.5387C44.8118 21.5387 44.4447 21.4253 44.132 21.2319L43.7214 24.2215C43.7214 24.552 43.7111 24.8762 43.6919 25.1949C45.0645 25.6089 45.7463 24.3766 45.8613 23.531C45.9106 23.1669 45.9915 22.8082 46.1036 22.4579C46.2464 22.0119 46.5347 21.4404 46.7499 20.834C46.3744 21.265 45.823 21.5387 45.2064 21.5387Z" fill="#FD995B"/>
<path d="M19.602 18.0875C20.1558 17.5798 21.2591 17.8371 21.7361 18.1479C21.6315 18.7986 21.6256 19.4644 21.7159 20.1219L22.2789 24.2216C22.2789 24.5521 22.2893 24.8763 22.3084 25.195C20.9358 25.609 20.254 24.3767 20.139 23.531C20.0897 23.167 20.0088 22.8083 19.8967 22.4582C19.5315 21.3177 18.2143 19.3591 19.602 18.0875Z" fill="#FCAD6D"/>
<path d="M21.8486 21.0859C21.4972 21.3691 21.051 21.5394 20.5647 21.5394C20.1186 21.5394 19.7071 21.3953 19.3706 21.1531C19.5634 21.6396 19.7795 22.0917 19.8971 22.4587C20.0092 22.8088 20.09 23.1676 20.1394 23.5317C20.2543 24.3773 20.936 25.6096 22.3088 25.1956C22.2896 24.8771 22.2791 24.5527 22.2791 24.2222L21.8486 21.0859Z" fill="#FD995B"/>
<path d="M25.9974 40.6111C26.7513 42.4386 28.0889 44.1586 29.9735 45.7232C30.2044 45.9148 30.343 46.1971 30.354 46.4976L30.3605 46.6788H35.6399L35.6465 46.4977C35.6574 46.1971 35.7961 45.9148 36.0269 45.7232C37.9115 44.1586 39.2493 42.4386 40.0031 40.6111C40.524 39.3483 40.6697 38.2659 40.6822 37.485C40.2636 36.2504 40.1187 34.8501 40.0806 33.7402C39.3654 34.5732 38.6148 35.27 37.8977 35.827C36.5005 36.912 34.7761 37.5013 33.0003 37.5013C31.2243 37.5013 29.5001 36.912 28.1029 35.827C27.3856 35.27 26.635 34.5732 25.92 33.7402C25.8818 34.85 25.7368 36.2502 25.3184 37.4848C25.3307 38.2659 25.4767 39.3483 25.9974 40.6111Z" fill="#FCAD6D"/>
<path d="M33.0003 37.5013C31.2245 37.5013 29.5001 36.912 28.1029 35.827C27.3856 35.27 26.635 34.5732 25.92 33.7402C25.8817 34.85 25.7368 36.2502 25.3184 37.4848C25.331 38.2659 25.4768 39.3483 25.9976 40.6111C26.7514 42.4386 28.0891 44.1586 29.9737 45.7232C29.9911 45.7377 30.0068 45.7535 30.0231 45.7689C32.8271 43.1432 33.0003 37.5013 33.0003 37.5013Z" fill="#FD995B"/>
<path d="M35.5462 62.4299C38.2582 57.6349 39.9883 52.888 41.0894 48.7061C40.6716 49.3487 40.2751 49.928 39.9335 50.4128C39.753 50.6692 39.4696 50.8196 39.1558 50.8258C38.8408 50.8291 38.551 50.692 38.3598 50.4418L37.2512 48.9912L36.1157 51.0114C35.8224 51.5981 35.2328 51.9624 34.5768 51.9624H31.4432C30.7874 51.9624 30.1979 51.5979 29.9046 51.0114L28.7611 48.975L27.6401 50.4416C27.4489 50.6919 27.1559 50.829 26.8441 50.8257C26.5304 50.8196 26.2469 50.669 26.0664 50.4126C25.7249 49.9278 25.3284 49.3485 24.9106 48.7061C26.0118 52.8878 27.7421 57.6346 30.4543 62.4298H35.5462V62.4299Z" fill="#BEC8F7"/>
<path d="M34.5772 51.9622H31.4436C31.2926 51.9622 31.1452 51.942 31.0039 51.9051C30.1743 54.1211 29.6282 57.4084 29.2725 60.2243C30.2435 62.1386 31.3653 64.0732 32.6584 65.9952C32.7724 65.9964 32.886 65.9996 33.0002 65.9996C33.1145 65.9996 33.2282 65.9965 33.3423 65.9952C34.6959 63.9834 35.8623 61.9576 36.864 59.9558C36.5055 57.199 35.9633 54.0139 35.1515 51.8643C34.9706 51.9279 34.7771 51.9622 34.5772 51.9622Z" fill="#543E5B"/>
<path d="M34.5772 51.9622H31.4436C31.2926 51.9622 31.1452 51.942 31.0039 51.9051C30.1743 54.1211 29.6282 57.4084 29.2725 60.2243C30.2435 62.1386 31.3653 64.0732 32.6584 65.9952C32.7724 65.9964 32.886 65.9996 33.0002 65.9996C33.1145 65.9996 33.2282 65.9965 33.3423 65.9952C34.6959 63.9834 35.8623 61.9576 36.864 59.9558C36.5055 57.199 35.9633 54.0139 35.1515 51.8643C34.9706 51.9279 34.7771 51.9622 34.5772 51.9622Z" fill="#543E5B"/>
<path d="M33.0116 58.2044C31.6909 58.2044 30.5257 57.5394 29.8317 56.5263C29.607 57.766 29.4225 59.0371 29.2725 60.2247C30.2435 62.139 31.3653 64.0736 32.6584 65.9956C32.7724 65.9968 32.886 66 33.0002 66C33.1146 66 33.2282 65.9969 33.3423 65.9956C34.6959 63.9838 35.8623 61.958 36.864 59.9562C36.7128 58.7937 36.5286 57.5556 36.3057 56.3506C35.6299 57.462 34.4074 58.2044 33.0116 58.2044Z" fill="#422953"/>
<path d="M35.7607 46.4912C34.1015 46.4912 32.0442 46.4912 30.385 46.4912L28.6655 49.2048L29.7365 51.3469C30.0598 51.9934 30.7206 52.4018 31.4435 52.4018H34.577C35.3 52.4018 35.9607 51.9934 36.284 51.3469L37.355 49.2048L35.7607 46.4912Z" fill="#665364"/>
<path d="M33.4581 51.3218C32.7778 49.961 32.8596 48.3432 33.6741 47.0581L34.0333 46.4912C32.7986 46.4912 31.5019 46.4912 30.385 46.4912L28.6655 49.2048L29.7365 51.3469C30.0598 51.9934 30.7206 52.4018 31.4435 52.4018H34.577C34.6829 52.4018 34.7872 52.392 34.8894 52.3751C34.2772 52.2747 33.7412 51.888 33.4581 51.3218Z" fill="#543E5B"/>
<path d="M38.2107 50.5558C38.6882 51.1804 39.6348 51.1636 40.0875 50.521C40.4714 49.9759 40.9439 49.2833 41.4445 48.5007C42.5691 44.0382 42.9483 40.4942 43.0977 38.6975L40.9643 36.8373C40.7733 36.6706 40.4768 36.8143 40.4886 37.0675C40.5571 38.5324 40.1889 42.0232 35.9066 45.5783C35.3944 46.0035 35.3068 46.757 35.7112 47.2859L38.2107 50.5558Z" fill="#E9EFFF"/>
<path d="M24.5566 48.5021C25.0568 49.2842 25.5289 49.9764 25.9127 50.5212C26.3654 51.1638 27.3121 51.1805 27.7894 50.556L30.2888 47.2859C30.6932 46.7569 30.6057 46.0035 30.0934 45.5783C25.8112 42.0232 25.443 38.5324 25.5114 37.0675C25.5233 36.8143 25.2268 36.6706 25.0357 36.8373L22.9023 38.6975C23.052 40.4943 23.4316 44.0391 24.5566 48.5021Z" fill="#E9EFFF"/>
<path d="M28.6658 44.2531C25.7264 41.1828 25.452 38.3495 25.5119 37.0675C25.5238 36.8143 25.2274 36.6706 25.0362 36.8373L22.9028 38.6975C23.0311 40.2399 23.3294 43.0706 24.1227 46.6639C24.6047 46.5742 25.0416 46.2951 25.3288 45.8764C26.9471 43.5169 28.6658 44.2531 28.6658 44.2531Z" fill="#DAE2FE"/>
<path d="M20.5432 58.011C20.382 57.8256 20.3653 57.5537 20.5026 57.3494L22.7318 54.0294C22.8925 53.7902 22.9322 53.496 22.8405 53.2226C22.7488 52.9491 22.5399 52.7383 22.2672 52.6442L18.5409 51.358C18.3397 51.2885 18.1962 51.1058 18.1753 50.8925C17.8071 47.144 18.0524 43.8501 18.2313 42.2202C18.2621 41.9393 18.3603 41.6713 18.5101 41.4355C17.5647 41.8625 16.6339 42.337 15.7086 42.8587C14.6318 43.4658 14.1457 43.8203 13.232 43.8949C9.07289 44.235 6.50598 46.3021 4.9292 48.9006C9.56261 57.8632 18.3616 64.3216 28.765 65.7162C24.6932 62.633 21.5546 59.1737 20.5432 58.011Z" fill="#422953"/>
<path d="M12.6881 58.5988C13.1532 50.4667 17.7969 48.7059 17.7969 48.7059C17.8692 48.6335 17.9416 48.5639 18.0141 48.4963C17.9117 45.7747 18.0917 43.4912 18.2313 42.2202C18.2621 41.9393 18.3603 41.6713 18.5101 41.4355C17.5647 41.8625 16.6339 42.337 15.7086 42.8587C14.6318 43.4658 14.1457 43.8203 13.232 43.8949C9.07302 44.235 6.50598 46.3021 4.9292 48.9006C6.85622 52.6281 9.50434 55.9218 12.6881 58.5988Z" fill="#30144A"/>
<path d="M23.3285 38.4016C23.2943 37.9709 22.7957 37.7507 22.4536 38.0145L18.822 40.8145C18.3849 41.1515 18.104 41.6509 18.0438 42.1996C17.8761 43.7267 17.6126 47.0935 17.9876 50.9108C18.0157 51.1972 18.207 51.4416 18.479 51.5355L22.2054 52.8218C22.6606 52.9789 22.8436 53.5246 22.5751 53.9243L20.3458 57.2443C20.161 57.5197 20.183 57.884 20.4007 58.134C21.4119 59.2964 24.4367 62.6295 28.382 65.6624C29.8527 65.8779 31.356 65.9925 32.8852 65.9981C24.9005 54.1917 23.6095 41.9441 23.3285 38.4016Z" fill="#543E5B"/>
<path d="M23.3287 38.4016C23.2945 37.9709 22.7959 37.7507 22.4538 38.0145L18.8222 40.8145C18.3851 41.1515 18.1042 41.6509 18.044 42.1996C17.9101 43.419 17.7154 45.8121 17.8332 48.6702C19.9745 46.553 22.1836 46.4627 23.4957 46.6725C23.8708 46.7324 24.2449 46.6727 24.5752 46.517C23.7292 42.7693 23.4439 39.8537 23.3287 38.4016Z" fill="#422953"/>
<path d="M37.2612 65.7126C47.6535 64.3109 56.4421 57.8559 61.0716 48.9008C59.4949 46.3023 56.9278 44.2351 52.7688 43.8951C51.8551 43.8204 51.369 43.4658 50.2922 42.8588C49.3669 42.337 48.4361 41.8625 47.4907 41.4355C47.6405 41.6713 47.7387 41.9393 47.7695 42.2202C47.9485 43.8501 48.1938 47.144 47.8256 50.8925C47.8047 51.1056 47.6613 51.2884 47.4602 51.358L43.7336 52.6442C43.461 52.7383 43.252 52.9491 43.1604 53.2226C43.0687 53.4959 43.1083 53.7901 43.269 54.0294L45.4983 57.3494C45.6356 57.5537 45.6187 57.8257 45.4577 58.011C42.6132 61.2807 39.7619 63.8123 37.2612 65.7126Z" fill="#543E5B"/>
<path d="M47.1781 40.8145L43.5465 38.0145C43.2044 37.7507 42.7058 37.9709 42.6716 38.4016C42.3906 41.9439 41.1008 54.1916 33.1162 65.9981C34.6452 65.9925 36.1483 65.8779 37.6188 65.6624C41.5637 62.6295 44.5882 59.2965 45.5994 58.1342C45.817 57.884 45.8391 57.5197 45.6541 57.2445L43.425 53.9245C43.1565 53.5247 43.3395 52.9789 43.7947 52.8219L47.5211 51.5356C47.7931 51.4417 47.9844 51.1972 48.0125 50.9109C48.3875 47.0936 48.124 43.7268 47.9563 42.1997C47.8961 41.6509 47.6152 41.1515 47.1781 40.8145Z" fill="#665364"/>
<path d="M43.9841 16.8586C43.5838 15.8138 42.9631 15.3813 43.0554 14.1065C43.3872 9.52753 41.7208 8.0718 40.6982 7.6116C38.6929 6.70939 36.2563 7.19008 34.5654 7.75224C33.5563 8.08791 32.4446 8.08791 31.4355 7.75224C29.7445 7.19008 27.3083 6.70926 25.3027 7.6116C24.278 8.07257 22.6094 9.53166 22.9467 14.1221C23.0386 15.3711 22.4272 15.8035 22.0288 16.8272C21.6285 17.8562 21.4988 18.9979 21.6541 20.129L22.2165 24.2212C22.2165 30.9809 26.3062 34.8864 28.0646 36.2516C30.9492 38.4919 35.0307 38.5081 37.9361 36.2516C39.6945 34.8862 43.7842 30.9806 43.7836 24.2298L44.3465 20.1301C44.5005 19.0103 44.3751 17.8789 43.9841 16.8586Z" fill="#F9BA8F"/>
<path d="M33.9943 36.2525C32.2358 34.8873 28.1462 30.9818 28.1462 24.2221L27.5837 20.13C27.4284 18.9988 27.5581 17.8571 27.9585 16.8282C28.3568 15.8044 28.9682 15.372 28.8763 14.1231C28.5493 9.67219 30.1079 8.16527 31.137 7.65751C29.4662 7.14047 27.1933 6.762 25.3026 7.61252C24.2779 8.07349 22.6094 9.53258 22.9466 14.1231C23.0385 15.372 22.4271 15.8044 22.0288 16.8282C21.6284 17.8571 21.4989 18.9988 21.6541 20.13L22.2166 24.2221C22.2166 30.9818 26.3063 34.8873 28.0647 36.2525C30.3417 38.021 33.3643 38.4023 35.9659 37.3749C35.27 37.1006 34.6051 36.727 33.9943 36.2525Z" fill="#FCAD6D"/>
<path d="M54.5229 57.5281C54.1226 57.0578 53.7006 56.6371 53.2867 56.2689C52.2268 55.326 50.5483 56.0939 50.5483 57.5124V60.6781C51.9575 59.7345 53.2864 58.6802 54.5229 57.5281Z" fill="#422953"/>
<path d="M64.5818 34.4182C64.5818 24.23 59.7563 15.1704 52.2675 9.39551C53.2075 12.5898 53.6384 17.0573 51.506 22.0268C48.2318 29.6574 46.4015 34.5195 52.5354 36.7658C56.8853 38.3588 61.1968 39.1359 63.7508 41.6406C64.2941 39.3211 64.5818 36.9033 64.5818 34.4182Z" fill="#81C66D"/>
<path d="M1.41846 34.4182C1.41846 24.23 6.24406 15.1704 13.7327 9.39551C12.7928 12.5898 12.3618 17.0573 14.4942 22.0268C17.7684 29.6574 19.5987 34.5195 13.4649 36.7658C9.11493 38.3588 4.80328 39.1359 2.24926 41.6405C1.70618 39.3211 1.41846 36.9033 1.41846 34.4182Z" fill="#81C66D"/>
</g>
<defs>
<clipPath id="clip0_2311_8226">
<rect width="66" height="66" fill="white"/>
</clipPath>
</defs>
</svg>
