<?xml version="1.0" encoding="utf-8"?>
<!-- Generator: Adobe Illustrator 25.4.1, SVG Export Plug-In . SVG Version: 6.00 Build 0)  -->
<svg version="1.1" id="Слой_1" xmlns="http://www.w3.org/2000/svg" xmlns:xlink="http://www.w3.org/1999/xlink" x="0px" y="0px"
	 viewBox="0 0 140.6 129" style="enable-background:new 0 0 140.6 129;" xml:space="preserve">
<style type="text/css">
	.st0{fill:none;stroke:#231F20;stroke-width:7;stroke-linecap:round;stroke-linejoin:round;}
</style>
<g>
	<polygon class="st0" points="16.5,99 10.9,108.6 5.4,99 5.4,39.4 16.4,39.4 	"/>
	<rect x="5.4" y="26.6" class="st0" width="11" height="12.9"/>
	<line class="st0" x1="15.9" y1="93.4" x2="6.5" y2="93.4"/>
	<line class="st0" x1="57" y1="48.1" x2="111" y2="48.1"/>
	<path class="st0" d="M32.8,98c0,5.8,4.3,10.6,9.6,10.6h83.1c5.3,0,9.7-4.8,9.7-10.7V37.4c0-6-4.4-10.8-9.8-10.8H42.6
		c-5.4,0-9.7,4.8-9.7,10.7V98z"/>
	<line class="st0" x1="57" y1="67.1" x2="111" y2="67.1"/>
	<line class="st0" x1="57" y1="86.1" x2="111" y2="86.1"/>
</g>
</svg>
