<svg width="30" height="21" viewBox="0 0 30 21" fill="none" xmlns="http://www.w3.org/2000/svg">
<path d="M10.4871 21C10.2899 21.0003 10.0947 20.9617 9.91261 20.8863C9.73051 20.8108 9.56514 20.7001 9.42605 20.5605L0.420088 11.5604C0.147243 11.2775 -0.00357743 10.8988 6.44539e-05 10.5059C0.00370634 10.1129 0.16152 9.73712 0.439562 9.45926C0.717605 9.1814 1.09366 9.02369 1.48686 9.02005C1.88005 9.01641 2.25897 9.16713 2.54212 9.4398L10.4871 17.3789L27.4373 0.439698C27.5766 0.300362 27.7421 0.189816 27.9241 0.114373C28.1062 0.0389294 28.3014 6.53743e-05 28.4985 8.2406e-08C28.6956 -6.52095e-05 28.8908 0.0386692 29.073 0.113992C29.2551 0.189315 29.4206 0.299751 29.56 0.438995C29.6994 0.578239 29.8101 0.743563 29.8856 0.925529C29.961 1.10749 29.9999 1.30254 30 1.49952C30.0001 1.69651 29.9613 1.89158 29.8859 2.0736C29.8106 2.25561 29.7001 2.42101 29.5607 2.56035L11.5488 20.5605C11.4096 20.7002 11.2441 20.811 11.0619 20.8864C10.8797 20.9618 10.6843 21.0004 10.4871 21V21Z" fill="url(#paint0_linear_1688_3930)"/>
<defs>
<linearGradient id="paint0_linear_1688_3930" x1="15" y1="-10.5" x2="-4.73154" y2="17.6879" gradientUnits="userSpaceOnUse">
<stop stop-color="#10D194"/>
<stop offset="1" stop-color="#00F777"/>
</linearGradient>
</defs>
</svg>
