<svg width="91" height="91" viewBox="0 0 91 91" fill="none" xmlns="http://www.w3.org/2000/svg">
<path d="M45.9996 52.8C48.7058 52.8 50.8996 50.6062 50.8996 47.9C50.8996 45.1938 48.7058 43 45.9996 43C43.2934 43 41.0996 45.1938 41.0996 47.9C41.0996 50.6062 43.2934 52.8 45.9996 52.8Z" stroke="black" stroke-width="7" stroke-miterlimit="10" stroke-linecap="round" stroke-linejoin="round"/>
<path d="M45.3994 42.8V25.9" stroke="black" stroke-width="7" stroke-miterlimit="10" stroke-linecap="round" stroke-linejoin="round"/>
<path d="M49.8994 51L60.6994 59" stroke="black" stroke-width="7" stroke-miterlimit="10" stroke-linecap="round" stroke-linejoin="round"/>
<path d="M45.1996 3.70007C22.1996 3.70007 3.59961 22.2001 3.59961 45.3001C3.59961 68.4001 22.0996 86.9001 45.1996 86.9001C68.2996 86.9001 86.8996 68.3001 86.8996 45.3001C86.8996 28.9001 77.4996 14.7001 63.5996 7.90007V27.1001" stroke="black" stroke-width="7" stroke-miterlimit="10" stroke-linecap="round" stroke-linejoin="round"/>
<path d="M85.7 7.70007H64.5" stroke="black" stroke-width="7" stroke-miterlimit="10" stroke-linecap="round" stroke-linejoin="round"/>
</svg>
