<svg width="101" height="88" viewBox="0 0 101 88" fill="none" xmlns="http://www.w3.org/2000/svg">
<path d="M20.4004 31.6C22.9004 16 39.4004 4 59.0004 4C80.5004 4 96.9004 18.3 96.9004 35.9C96.9004 43.6 94.7004 50.7 87.0004 56.2C85.8004 62.4 87.0004 68.5 88.2004 72.4C88.6004 73.9 87.2004 75.2 85.7004 74.8L64.6004 67.3C62.5004 67.6 60.7004 67.7 58.5004 67.7" stroke="black" stroke-width="7" stroke-miterlimit="10" stroke-linecap="round" stroke-linejoin="round"/>
<path d="M33.3 29C16.7 29 4 40.1 4 53.8C4 59.7 5.9 65.2 11.7 69.5C12.7 73.8 12 78.1 11.1 81.1C10.7 82.6 12.1 84.1 13.6 83.5L28.8 78.2C30.4 78.3 31.8 78.5 33.4 78.5C50 78.5 63.4 67.4 63.4 53.7C63.4 40 49.9 29 33.3 29Z" stroke="black" stroke-width="7" stroke-miterlimit="10" stroke-linecap="round" stroke-linejoin="round"/>
</svg>
