<svg width="21" height="21" viewBox="0 0 21 21" fill="none" xmlns="http://www.w3.org/2000/svg">
<path d="M20.5285 18.2456L12.7777 10.4787L20.4864 2.75432C21.1151 2.12405 21.1151 1.10237 20.4864 0.472442C19.8575 -0.157481 18.8382 -0.157481 18.2092 0.472442L10.5005 8.19685L2.79205 0.472442C2.16306 -0.157481 1.14379 -0.157481 0.514801 0.472442C-0.11419 1.10271 -0.11419 2.12439 0.514801 2.75432L8.2232 10.4787L0.471743 18.2456C-0.157248 18.8759 -0.157248 19.8972 0.471743 20.5275C0.786238 20.8426 1.19822 21 1.61054 21C2.02286 21 2.43484 20.8426 2.74934 20.5275L10.5005 12.7606L18.2512 20.5275C18.5657 20.8426 18.9777 21 19.39 21C19.8023 21 20.2143 20.8426 20.5288 20.5275C21.1571 19.8975 21.1571 18.8759 20.5285 18.2456Z" fill="url(#paint0_linear_1688_3937)"/>
<defs>
<linearGradient id="paint0_linear_1688_3937" x1="10.5" y1="-10.5" x2="-10.5" y2="10.5" gradientUnits="userSpaceOnUse">
<stop stop-color="#FF7272"/>
<stop offset="1" stop-color="#D93030"/>
</linearGradient>
</defs>
</svg>
