<svg width="181" height="102" viewBox="0 0 181 102" fill="none" xmlns="http://www.w3.org/2000/svg">
<path d="M4.40039 51.0002C4.40039 51.0002 80.0004 -54.2998 176.6 51.0002" stroke="#EB3148" stroke-width="7" stroke-linecap="round" stroke-linejoin="round"/>
<path d="M4.40039 51C4.40039 51 80.0004 156.3 176.6 51" stroke="#EB3148" stroke-width="7" stroke-linecap="round" stroke-linejoin="round"/>
<path d="M120.8 50.1002C120.8 68.3002 106 83.0002 87.9 83.0002C69.7 83.0002 55 68.2002 55 50.1002C55 32.0002 69.8 17.2002 87.9 17.2002C106.1 17.2002 120.8 31.9002 120.8 50.1002Z" stroke="#EB3148" stroke-width="7" stroke-linecap="round" stroke-linejoin="round"/>
<path d="M84.4004 53.9002C84.4004 53.0002 84.5004 52.2002 84.8004 51.6002C85.0004 51.0002 85.5004 50.4002 86.0004 49.8002C86.9004 49.0002 87.7004 48.3002 88.4004 47.6002C89.1004 47.0002 89.7004 46.4002 90.3004 45.9002C90.8004 45.4002 91.2004 44.9002 91.5004 44.4002C91.8004 43.9002 91.9004 43.4002 91.9004 42.9002C91.9004 41.9002 91.6004 41.1002 91.0004 40.5002C90.4004 39.9002 89.6004 39.6002 88.6004 39.6002C87.2004 39.6002 86.1004 40.0002 85.3004 40.8002C84.5004 41.6002 84.1004 42.6002 84.0004 43.7002L76.9004 43.2002C77.2004 39.9002 78.4004 37.5002 80.5004 35.8002C82.6004 34.1002 85.2004 33.2002 88.4004 33.2002C89.8004 33.2002 91.1004 33.4002 92.4004 33.8002C93.6004 34.2002 94.7004 34.8002 95.7004 35.5002C96.7004 36.3002 97.4004 37.2002 98.0004 38.4002C98.6004 39.5002 98.8004 40.8002 98.8004 42.3002C98.8004 43.2002 98.7004 44.0002 98.5004 44.7002C98.3004 45.4002 98.0004 46.1002 97.6004 46.8002C97.2004 47.5002 96.6004 48.2002 95.8004 48.9002C95.1004 49.6002 94.2004 50.4002 93.1004 51.3002C92.4004 51.9002 91.9004 52.4002 91.7004 52.9002C91.5004 53.4002 91.3004 53.9002 91.3004 54.5002V55.8002H84.4004C84.4004 55.8002 84.4004 53.9002 84.4004 53.9002ZM83.6004 62.7002C83.6004 62.1002 83.7004 61.6002 83.9004 61.0002C84.1004 60.5002 84.4004 60.0002 84.8004 59.6002C85.2004 59.2002 85.6004 58.9002 86.2004 58.7002C86.7004 58.5002 87.3004 58.4002 87.9004 58.4002C88.5004 58.4002 89.0004 58.5002 89.6004 58.7002C90.1004 58.9002 90.6004 59.2002 91.0004 59.6002C91.4004 60.0002 91.7004 60.4002 91.9004 61.0002C92.1004 61.5002 92.2004 62.1002 92.2004 62.7002C92.2004 63.3002 92.1004 63.8002 91.9004 64.4002C91.7004 64.9002 91.4004 65.4002 91.0004 65.8002C90.6004 66.2002 90.2004 66.5002 89.6004 66.7002C89.0004 66.8002 88.4004 67.0002 87.8004 67.0002C87.2004 67.0002 86.7004 66.9002 86.1004 66.7002C85.6004 66.5002 85.1004 66.2002 84.7004 65.8002C84.3004 65.4002 84.0004 65.0002 83.8004 64.4002C83.7004 63.9002 83.6004 63.3002 83.6004 62.7002Z" fill="#EB3148"/>
</svg>
