<svg width="47" height="47" viewBox="0 0 47 47" fill="none" xmlns="http://www.w3.org/2000/svg">
<path d="M23.4355 0L27.9297 23.499L23.4355 46.998C10.5078 46.9648 0 36.4336 0 23.498C0 10.5625 10.5078 0.0332031 23.4355 0Z" fill="#FFF26C"/>
<path d="M46.998 23.498C46.998 36.4551 36.4551 46.998 23.498 46.998H23.4355V0H23.498C36.4551 0 46.998 10.541 46.998 23.498Z" fill="#FFD944"/>
<path d="M23.4356 11.9863L25.586 22.9146L23.4356 32.5801L20.1036 33.6543C17.6348 34.4492 15.0938 32.6348 15.0411 30.0469L14.9668 26.3652L12.9239 23.4922C11.4415 21.4062 12.3497 18.4863 14.752 17.6094L18.2227 16.3398L20.4375 13.4844C21.1993 12.5 22.3145 12.002 23.4356 11.9863Z" fill="#FFD944"/>
<path d="M34.0684 23.5L32.0215 26.3652L31.957 30.0351C31.9121 32.6172 29.377 34.4531 26.8984 33.6543L23.4941 32.5605L23.4355 32.5801V11.9863C24.3027 11.9074 25.6896 12.357 26.5664 13.4922L28.7637 16.3398L32.2422 17.6074C34.6523 18.4844 35.5586 21.414 34.0684 23.5Z" fill="#FF9E22"/>
</svg>
