<svg width="531" height="387" viewBox="0 0 531 387" fill="none" xmlns="http://www.w3.org/2000/svg">
<path d="M138.244 141.739C99.0225 141.739 67.2285 112.473 67.2285 76.37C67.2285 40.267 99.0225 11 138.244 11C177.464 11 209.258 40.267 209.258 76.37C209.258 112.473 177.464 141.739 138.244 141.739Z" stroke="white" stroke-width="21.78" stroke-linecap="round" stroke-linejoin="round"/>
<path d="M138.243 141.738C208.517 141.739 265.485 195.552 265.485 261.934C265.434 265.712 265.462 266.732 265.114 271.182C264.978 272.915 264.742 274.639 264.556 276.368H11.929C11.245 271.587 11.065 266.758 11 261.934C11 195.552 67.969 141.739 138.243 141.739V141.738Z" stroke="white" stroke-width="21.12" stroke-linecap="round" stroke-linejoin="round"/>
<path d="M392.729 141.739C353.509 141.739 321.715 112.473 321.715 76.37C321.715 40.267 353.509 11 392.729 11C431.949 11 463.744 40.267 463.744 76.37C463.744 112.473 431.949 141.739 392.729 141.739Z" stroke="white" stroke-width="21.78" stroke-linecap="round" stroke-linejoin="round"/>
<path d="M392.728 141.738C463.002 141.739 519.97 195.552 519.97 261.934C519.92 265.712 519.948 266.732 519.599 271.182C519.464 272.915 519.228 274.639 519.042 276.368H266.414C265.731 271.587 265.551 266.758 265.486 261.934C265.486 195.552 322.454 141.739 392.728 141.739V141.738Z" stroke="white" stroke-width="21.12" stroke-linecap="round" stroke-linejoin="round"/>
<path d="M265.006 359.74C220.054 359.47 183.827 323.464 184.091 279.317C184.356 235.17 221.011 199.6 265.964 199.869C310.916 200.139 347.143 236.145 346.879 280.292C346.614 324.439 309.959 360.009 265.006 359.74Z" fill="white"/>
<path d="M266.125 173.297C325.647 173.654 373.806 221.521 373.453 280.452C373.1 339.384 324.371 386.67 264.849 386.314C205.327 385.957 157.167 338.09 157.52 279.159C157.873 220.227 206.603 172.941 266.125 173.297ZM265.965 199.87C221.012 199.601 184.358 235.171 184.093 279.318C183.829 323.465 220.056 359.471 265.008 359.741C309.961 360.01 346.615 324.44 346.88 280.293C347.144 236.146 310.917 200.14 265.965 199.87Z" fill="#2BDEA8"/>
<path d="M220.791 274.98L260.614 322.946" stroke="#2BDEA8" stroke-width="26.573" stroke-linecap="round" stroke-linejoin="round"/>
<path d="M260.613 322.945L310.466 236.904" stroke="#2BDEA8" stroke-width="26.573" stroke-linecap="round" stroke-linejoin="round"/>
</svg>
