<svg width="32" height="32" viewBox="0 0 32 32" fill="none" xmlns="http://www.w3.org/2000/svg">
<path d="M13.9949 27.9956C21.7241 27.9956 27.9899 21.7299 27.9899 14.0007C27.9899 6.2715 21.7242 0.00585938 13.9949 0.00585938C6.26572 0.00585938 1.52588e-05 6.27157 1.52588e-05 14.0008C1.52588e-05 21.73 6.26579 27.9956 13.9949 27.9956ZM13.9949 4.00443C19.5158 4.00443 23.9913 8.47993 23.9913 14.0008C23.9913 19.5216 19.5158 23.9971 13.9949 23.9971C8.47408 23.9971 3.99859 19.5216 3.99859 14.0008C3.99859 8.47993 8.47415 4.00443 13.9949 4.00443Z" fill="url(#paint0_linear_531_3915)"/>
<path d="M29.9891 31.9943C30.5206 31.9974 31.0313 31.7887 31.4086 31.4145C32.1926 30.6369 32.1978 29.3711 31.4202 28.5871C31.4163 28.5832 31.4125 28.5794 31.4086 28.5755L23.8914 21.0583C23.0798 20.2743 21.7864 20.2967 21.0024 21.1082C20.2184 21.9198 20.2408 23.2132 21.0523 23.9972L28.5697 31.4145C28.9469 31.7887 29.4577 31.9974 29.9891 31.9943Z" fill="url(#paint1_linear_531_3915)"/>
<defs>
<linearGradient id="paint0_linear_531_3915" x1="24.3912" y1="3.53702" x2="-3.85649" y2="27.1819" gradientUnits="userSpaceOnUse">
<stop stop-color="#ADB6CE"/>
<stop offset="1" stop-color="#ADB6CE" stop-opacity="0"/>
</linearGradient>
<linearGradient id="paint1_linear_531_3915" x1="30.5123" y1="21.9367" x2="18.8858" y2="31.7207" gradientUnits="userSpaceOnUse">
<stop stop-color="#ADB6CE"/>
<stop offset="1" stop-color="#ADB6CE" stop-opacity="0"/>
</linearGradient>
</defs>
</svg>
