<svg width="24" height="26" viewBox="0 0 24 26" fill="none" xmlns="http://www.w3.org/2000/svg">
<path d="M23.4234 22.3598L15.4894 13.7646C15.018 13.2539 14.368 13.0575 13.758 13.1732C15.9672 9.94048 15.721 5.34441 13.0187 2.41682C10.0442 -0.805563 5.20482 -0.805563 2.23064 2.41656C-0.743546 5.63868 -0.743546 10.8812 2.23064 14.1031C4.93295 17.0309 9.17561 17.2977 12.1591 14.9049C12.0528 15.5657 12.2343 16.2696 12.705 16.7801L20.6395 25.3755C21.408 26.208 22.6547 26.2083 23.4232 25.3757C24.1924 24.5427 24.1921 23.1928 23.4234 22.3598ZM11.1393 12.0678C9.20126 14.1677 6.04803 14.1674 4.11027 12.0678C2.17177 9.968 2.17177 6.55164 4.11027 4.45261C6.04827 2.35278 9.2015 2.35278 11.1393 4.45261C13.0775 6.55138 13.0775 9.968 11.1393 12.0678Z" fill="#63697A"/>
</svg>
