<svg width="20" height="20" viewBox="0 0 20 20" fill="none" xmlns="http://www.w3.org/2000/svg">
<path d="M10 9C10.55 9 11 9.45 11 10C11 10.55 10.55 11 10 11C9.45 11 9 10.55 9 10C9 9.45 9.45 9 10 9ZM10 7C8.34 7 7 8.34 7 10C7 11.66 8.34 13 10 13C11.66 13 13 11.66 13 10C13 8.34 11.66 7 10 7ZM10.0699 20C8.60995 20 7.43005 18.82 7.43005 17.36C7.43005 17.17 7.33995 17.04 7.19995 16.99C6.89995 16.87 6.86001 16.94 6.76001 17.04C5.68001 18.12 3.97999 18.08 2.98999 17.08C2.48999 16.58 2.20996 15.92 2.20996 15.22C2.20996 14.51 2.48998 13.85 2.97998 13.35C3.12998 13.21 3.14998 13.06 3.09998 12.92C3.03998 12.78 2.91002 12.7 2.77002 12.7H2.64001C1.18001 12.7 0 11.52 0 10.06C0 8.61 1.18001 7.43 2.64001 7.43C2.83001 7.43 2.96001 7.34 3.01001 7.2C3.09001 7.01 3.05996 6.86 2.95996 6.76C1.88996 5.69 1.89004 4.01 2.92004 2.99C3.92004 1.99 5.65002 1.99 6.65002 2.98C6.81002 3.15 6.94996 3.15 7.07996 3.1C7.12996 3.07 7.17998 3.05 7.22998 3.04C7.30998 2.98 7.35999 2.88 7.35999 2.77V2.64C7.35999 1.18 8.55 0 10 0C11.45 0 12.64 1.18 12.64 2.64C12.64 2.85 12.72 2.97 12.85 3.03C13.01 3.09 13.14 3.06 13.25 2.96C14.32 1.88 16.02 1.92 17.01 2.92C17.51 3.42 17.79 4.08 17.79 4.78C17.79 5.49 17.51 6.15 17.02 6.65C16.87 6.79 16.85 6.94 16.9 7.08C16.93 7.13 16.95 7.18 16.96 7.23C17.02 7.31 17.12 7.36 17.23 7.36H17.36C18.82 7.36 20 8.55 20 10C20 11.45 18.82 12.64 17.36 12.64C17.15 12.64 17.03 12.72 16.98 12.85C16.91 12.99 16.94 13.14 17.04 13.24C17.58 13.78 17.85 14.44 17.85 15.15C17.85 15.85 17.58 16.52 17.08 17.01C16.09 18.01 14.35 18.01 13.35 17.02C13.19 16.85 13.05 16.85 12.92 16.9C12.78 16.96 12.7 17.09 12.7 17.23V17.36C12.7 18.82 11.5199 20 10.0699 20ZM7 14.94C7.33 14.94 7.64995 15.01 7.94995 15.14C8.79995 15.45 9.41005 16.3 9.43005 17.27C9.43005 17.71 9.70995 18 10.0699 18C10.4199 18 10.7 17.71 10.7 17.36V17.22C10.7 16.28 11.26 15.44 12.13 15.07C12.97 14.7 14.03 14.88 14.71 15.54C15.06 15.9 15.43 15.84 15.66 15.6C15.79 15.48 15.85 15.32 15.85 15.15C15.85 14.98 15.79 14.82 15.67 14.7C14.93 13.95 14.75 12.93 15.14 12.05C15.5 11.2 16.35 10.64 17.29 10.64C17.71 10.64 18 10.35 18 10C18 9.65 17.71 9.36 17.36 9.36H17.22C16.28 9.36 15.4399 8.8 15.0699 7.94C15.0399 7.86 15.01 7.78 15 7.69C14.71 6.86 14.92 5.93 15.55 5.29C15.72 5.11 15.79 4.95 15.79 4.78C15.79 4.61 15.72 4.45 15.6 4.33C15.36 4.09 14.94 4.09 14.7 4.33C13.93 5.08 12.92 5.24 12.05 4.86C11.2 4.49 10.64 3.65 10.64 2.71C10.64 2.28 10.35 2 10 2C9.65 2 9.35999 2.28 9.35999 2.64V2.77C9.35999 3.72 8.79994 4.56 7.93994 4.93C7.85994 4.96 7.77994 4.99 7.68994 5C6.86994 5.28 5.92004 5.07 5.29004 4.46C4.94004 4.1 4.56996 4.16 4.32996 4.4C4.08996 4.65 4.07996 5.05 4.32996 5.3C5.06996 6.05 5.24999 7.06 4.85999 7.95C4.54999 8.8 3.69998 9.4 2.72998 9.43C2.28998 9.43 2 9.71 2 10.06C2 10.42 2.29001 10.7 2.64001 10.7H2.78003C3.72003 10.7 4.56005 11.26 4.93005 12.13C5.32005 13 5.12996 14.02 4.45996 14.71C4.14996 15.01 4.15002 15.42 4.40002 15.67C4.64002 15.91 5.06005 15.91 5.30005 15.67C5.80005 15.18 6.38 14.94 7 14.94Z" fill="white"/>
</svg>
