<svg width="38" height="38" viewBox="0 0 38 38" fill="none" xmlns="http://www.w3.org/2000/svg">
<g clip-path="url(#clip0_221:2068)">
<path d="M37.5725 27.587L30.4475 21.6495C30.0936 21.3526 29.5996 21.2933 29.184 21.4856C28.766 21.6828 28.5 22.1008 28.5 22.5615V26.124H26.5121C24.8639 26.124 23.3581 25.288 22.4841 23.8915L14.7939 11.589C13.0483 8.79365 10.0367 7.12402 6.73787 7.12402H0V11.874H6.73787C8.38612 11.874 9.89187 12.71 10.7659 14.1065L18.4561 26.409C20.2041 29.2044 23.2156 30.874 26.5121 30.874H28.5V34.4365C28.5 34.8973 28.766 35.3153 29.184 35.5124C29.3431 35.586 29.5165 35.624 29.6875 35.624C29.9606 35.624 30.2314 35.5314 30.4475 35.3485L37.5725 29.411C37.8456 29.1854 38 28.8505 38 28.499C38 28.1475 37.8456 27.8126 37.5725 27.587Z" fill="white"/>
<path d="M37.5726 8.58697L30.4476 2.64947C30.0937 2.35497 29.5997 2.29322 29.1841 2.48797C28.7661 2.68034 28.5001 3.10072 28.5001 3.56147V7.12397H26.5122C23.2134 7.12397 20.2019 8.79359 18.4562 11.589L18.0264 12.2777L20.8265 16.7593L22.4842 14.1065C23.3582 12.71 24.864 11.874 26.5122 11.874H28.5001V15.4365C28.5001 15.8972 28.7661 16.3176 29.1841 16.5123C29.3432 16.586 29.5166 16.624 29.6876 16.624C29.9607 16.624 30.2315 16.529 30.4476 16.3485L37.5726 10.411C37.8457 10.1853 38.0001 9.85047 38.0001 9.49897C38.0001 9.14747 37.8457 8.81259 37.5726 8.58697Z" fill="white"/>
<path d="M12.4236 21.2388L10.7682 23.8916C9.89425 25.2881 8.38612 26.1241 6.73787 26.1241H0V30.8741H6.73787C10.0344 30.8741 13.0459 29.2045 14.7939 26.4091L15.2237 25.7204L12.4236 21.2388Z" fill="white"/>
</g>
<defs>
<clipPath id="clip0_221:2068">
<rect width="38" height="38" fill="white"/>
</clipPath>
</defs>
</svg>
