<svg width="13" height="14" viewBox="0 0 13 14" fill="none" xmlns="http://www.w3.org/2000/svg">
<path fill-rule="evenodd" clip-rule="evenodd" d="M1.21875 7C1.21875 5.59932 1.77517 4.25602 2.7656 3.2656C3.75602 2.27517 5.09932 1.71875 6.5 1.71875C7.90068 1.71875 9.24397 2.27517 10.2344 3.2656C11.2248 4.25602 11.7812 5.59932 11.7812 7C11.7812 8.40068 11.2248 9.74397 10.2344 10.7344C9.24397 11.7248 7.90068 12.2812 6.5 12.2812C5.09932 12.2812 3.75602 11.7248 2.7656 10.7344C1.77517 9.74397 1.21875 8.40068 1.21875 7ZM6.5 0.5C4.77609 0.5 3.12279 1.18482 1.90381 2.40381C0.68482 3.62279 0 5.27609 0 7C0 8.72388 0.68482 10.3772 1.90381 11.5962C3.12279 12.8151 4.77609 13.5 6.5 13.5C8.22388 13.5 9.87724 12.8151 11.0962 11.5962C12.3151 10.3772 13 8.72388 13 7C13 5.27609 12.3151 3.62279 11.0962 2.40381C9.87724 1.18482 8.22388 0.5 6.5 0.5ZM4.0625 7C4.27799 7 4.48465 6.91439 4.63703 6.76203C4.78939 6.60965 4.875 6.40299 4.875 6.1875C4.875 5.97201 4.78939 5.76535 4.63703 5.61297C4.48465 5.46061 4.27799 5.375 4.0625 5.375C3.84701 5.375 3.64035 5.46061 3.48797 5.61297C3.33561 5.76535 3.25 5.97201 3.25 6.1875C3.25 6.40299 3.33561 6.60965 3.48797 6.76203C3.64035 6.91439 3.84701 7 4.0625 7ZM9.75 6.1875C9.75 6.40299 9.66436 6.60965 9.51202 6.76203C9.35967 6.91439 9.15298 7 8.9375 7C8.72202 7 8.51533 6.91439 8.36298 6.76203C8.21064 6.60965 8.125 6.40299 8.125 6.1875C8.125 5.97201 8.21064 5.76535 8.36298 5.61297C8.51533 5.46061 8.72202 5.375 8.9375 5.375C9.15298 5.375 9.35967 5.46061 9.51202 5.61297C9.66436 5.76535 9.75 5.97201 9.75 6.1875ZM4.3225 8.32925C4.45359 8.23746 4.61552 8.20092 4.77332 8.22753C4.93113 8.25413 5.07213 8.34175 5.16587 8.47144L5.17156 8.47875C5.25513 8.57458 5.35071 8.65921 5.45594 8.73063C5.67044 8.87525 6.01088 9.03125 6.5 9.03125C6.98912 9.03125 7.32875 8.87525 7.54406 8.72981C7.64929 8.65839 7.74487 8.57377 7.82844 8.47794L7.83413 8.47144C7.92786 8.33977 8.07007 8.25074 8.22941 8.22393C8.38882 8.1971 8.55237 8.2347 8.684 8.32844C8.81563 8.42218 8.90468 8.56438 8.93149 8.72372C8.9583 8.88313 8.92076 9.04669 8.827 9.17831L8.32812 8.82812C8.827 9.1775 8.827 9.17831 8.82619 9.17831V9.17912L8.82538 9.18075L8.82375 9.18319L8.81969 9.18888L8.80831 9.20431C8.76265 9.26549 8.71268 9.32326 8.65881 9.37737C8.52824 9.51258 8.38394 9.63372 8.22819 9.73894C7.71649 10.0789 7.11431 10.257 6.5 10.25C5.73138 10.25 5.15775 9.99975 4.77262 9.73812C4.56884 9.60024 4.38487 9.43514 4.22581 9.24737C4.21419 9.23324 4.20282 9.21886 4.19169 9.20431L4.18031 9.18806L4.17625 9.18319L4.17462 9.18075V9.17912H4.17381L4.67188 8.82812L4.173 9.1775C4.08034 9.04523 4.04396 8.88167 4.07184 8.72258C4.09972 8.56357 4.18957 8.42209 4.32169 8.32925H4.3225Z" fill="white"/>
</svg>
