<svg width="23" height="21" viewBox="0 0 23 21" fill="none" xmlns="http://www.w3.org/2000/svg">
<path d="M20.5 0H2.5C1.8372 0.000780725 1.20177 0.264424 0.733095 0.733095C0.264423 1.20177 0.000780725 1.8372 0 2.5V13.5C0.000780725 14.1628 0.264423 14.7982 0.733095 15.2669C1.20177 15.7356 1.8372 15.9992 2.5 16H3.5V19.9776C3.49814 20.1814 3.55764 20.381 3.67076 20.5506C3.78388 20.7201 3.94539 20.8517 4.1343 20.9282C4.31717 21.002 4.51803 21.019 4.71068 20.9769C4.90333 20.9349 5.07884 20.8357 5.2143 20.6924L9.7134 16H20.5C21.1628 15.9992 21.7982 15.7356 22.2669 15.2669C22.7356 14.7982 22.9992 14.1628 23 13.5V2.5C22.9992 1.8372 22.7356 1.20177 22.2669 0.733095C21.7982 0.264424 21.1628 0.000780725 20.5 0ZM22 13.5C21.9996 13.8977 21.8414 14.279 21.5602 14.5602C21.279 14.8414 20.8977 14.9996 20.5 15H9.5C9.4326 15 9.36589 15.0136 9.30388 15.0401C9.24187 15.0665 9.18584 15.1052 9.13915 15.1538L4.5 19.9776V15.5C4.50004 15.4343 4.48713 15.3693 4.46202 15.3086C4.43691 15.2479 4.40008 15.1928 4.35364 15.1464C4.3072 15.0999 4.25207 15.0631 4.19139 15.038C4.13071 15.0129 4.06567 15 4 15H2.5C2.10231 14.9996 1.72103 14.8414 1.43982 14.5602C1.15861 14.279 1.00044 13.8977 1 13.5V2.5C1.00044 2.10231 1.15861 1.72103 1.43982 1.43982C1.72103 1.15861 2.10231 1.00044 2.5 1H20.5C20.8977 1.00044 21.279 1.15861 21.5602 1.43982C21.8414 1.72103 21.9996 2.10231 22 2.5V13.5ZM5 5C4.99996 4.93433 5.01287 4.86929 5.03798 4.80861C5.06309 4.74793 5.09992 4.6928 5.14636 4.64636C5.1928 4.59992 5.24793 4.56309 5.30861 4.53798C5.36929 4.51287 5.43433 4.49996 5.5 4.5H10.5C10.6326 4.5 10.7598 4.55268 10.8536 4.64645C10.9473 4.74021 11 4.86739 11 5C11 5.13261 10.9473 5.25979 10.8536 5.35355C10.7598 5.44732 10.6326 5.5 10.5 5.5H5.5C5.43433 5.50004 5.36929 5.48713 5.30861 5.46202C5.24793 5.43691 5.1928 5.40008 5.14636 5.35364C5.09992 5.3072 5.06309 5.25207 5.03798 5.19139C5.01287 5.13071 4.99996 5.06567 5 5ZM16 11C16 11.0657 15.9871 11.1307 15.962 11.1914C15.9369 11.2521 15.9001 11.3072 15.8536 11.3536C15.8072 11.4001 15.7521 11.4369 15.6914 11.462C15.6307 11.4871 15.5657 11.5 15.5 11.5H5.5C5.36739 11.5 5.24022 11.4473 5.14645 11.3536C5.05268 11.2598 5 11.1326 5 11C5 10.8674 5.05268 10.7402 5.14645 10.6464C5.24022 10.5527 5.36739 10.5 5.5 10.5H15.5C15.5657 10.5 15.6307 10.5129 15.6914 10.538C15.7521 10.5631 15.8072 10.5999 15.8536 10.6464C15.9001 10.6928 15.9369 10.7479 15.962 10.8086C15.9871 10.8693 16 10.9343 16 11ZM18 8C18 8.06567 17.9871 8.13071 17.962 8.19139C17.9369 8.25207 17.9001 8.3072 17.8536 8.35364C17.8072 8.40008 17.7521 8.43691 17.6914 8.46202C17.6307 8.48713 17.5657 8.50004 17.5 8.5H5.5C5.36739 8.5 5.24022 8.44732 5.14645 8.35355C5.05268 8.25979 5 8.13261 5 8C5 7.86739 5.05268 7.74021 5.14645 7.64645C5.24022 7.55268 5.36739 7.5 5.5 7.5H17.5C17.5657 7.49996 17.6307 7.51287 17.6914 7.53798C17.7521 7.56309 17.8072 7.59992 17.8536 7.64636C17.9001 7.6928 17.9369 7.74793 17.962 7.80861C17.9871 7.86929 18 7.93433 18 8Z" fill="white"/>
</svg>
