<?xml version="1.0" encoding="utf-8"?>
<!-- Generator: Adobe Illustrator 26.0.3, SVG Export Plug-In . SVG Version: 6.00 Build 0)  -->
<svg version="1.1" id="Слой_1" xmlns="http://www.w3.org/2000/svg" xmlns:xlink="http://www.w3.org/1999/xlink" x="0px" y="0px"
	 viewBox="0 0 140.6 129" style="enable-background:new 0 0 140.6 129;" xml:space="preserve">
<style type="text/css">
	.st0{fill:none;stroke:#000000;stroke-width:7;stroke-linecap:round;stroke-linejoin:round;stroke-miterlimit:10;}
	.st1{fill:#FFFFFF;stroke:#000000;stroke-width:7;stroke-linecap:round;stroke-linejoin:round;stroke-miterlimit:10;}
</style>
<path class="st0" d="M61.3,91.8c8.6,9.1,3.6,24.2-1.2,30.2c-1,1.3-0.1,2.8,1.8,1.7c25.8-15.3,20-44.1,20-44.1s-1.3,1.1-8.7,6
	C65.9,90.6,61.3,91.8,61.3,91.8z"/>
<path class="st0" d="M41.3,75.4c-10.1-7.3-24.5-0.3-29.8,5.3c-1.1,1.2-2.8,0.5-1.9-1.5c11.7-27.6,41-25.8,41-25.8s-0.9,1.5-4.8,9.4
	C41.9,70.7,41.3,75.4,41.3,75.4z"/>
<path class="st0" d="M119.4,5.5c3.8,3.4-3.5,29.2-3.5,29.2L91.6,13.4C91.6,13.4,115.6,2.1,119.4,5.5z"/>
<polygon class="st0" points="37.8,85.5 51.8,97.8 59.5,92.2 42.2,77.1 "/>
<path class="st0" d="M91.6,13.4L103.8,24l12.2,10.6c-9.9,22-22.1,40.9-56.4,57.5L42.2,77.1C54,40.8,71.1,26.2,91.6,13.4z"/>
<path class="st1" d="M81.9,34.6c3.5-4,9.5-4.4,13.5-0.9c4,3.5,4.4,9.5,0.9,13.5c-3.5,4-9.5,4.4-13.5,0.9
	C78.8,44.6,78.4,38.6,81.9,34.6z"/>
<path class="st0" d="M50.6,96.7L39,86.6c-20.3,10.9-17.7,30.6-17.7,30.6C44.2,118,50.6,96.7,50.6,96.7z"/>
</svg>
