<svg width="12" height="10" viewBox="0 0 12 10" fill="none" xmlns="http://www.w3.org/2000/svg">
<path d="M11.5442 4.55474L7.40758 0.418006C7.28949 0.299923 7.13211 0.235107 6.9643 0.235107C6.7963 0.235107 6.63901 0.300016 6.52093 0.418006L6.14535 0.793675C6.02736 0.911572 5.96236 1.06905 5.96236 1.23695C5.96236 1.40477 6.02736 1.56755 6.14535 1.68545L8.55861 4.10401H0.891585C0.545903 4.10401 0.272766 4.37463 0.272766 4.72041V5.2515C0.272766 5.59728 0.545903 5.89519 0.891585 5.89519H8.58599L6.14545 8.32726C6.02746 8.44534 5.96245 8.59853 5.96245 8.76644C5.96245 8.93416 6.02746 9.08958 6.14545 9.20757L6.52102 9.58203C6.6391 9.70012 6.79639 9.76447 6.96439 9.76447C7.1322 9.76447 7.28959 9.69928 7.40767 9.58119L11.5443 5.44455C11.6627 5.3261 11.7278 5.16797 11.7273 4.99988C11.7277 4.83123 11.6627 4.67301 11.5442 4.55474Z" fill="url(#paint0_linear_543_2288)"/>
<defs>
<linearGradient id="paint0_linear_543_2288" x1="0.272766" y1="9.76446" x2="12.5581" y2="0.016377" gradientUnits="userSpaceOnUse">
<stop stop-color="#2973FF"/>
<stop offset="0.48974" stop-color="#8846D3"/>
<stop offset="1" stop-color="#FF22AC"/>
</linearGradient>
</defs>
</svg>
