<svg width="12" height="10" viewBox="0 0 12 10" fill="none" xmlns="http://www.w3.org/2000/svg">
<path d="M0.455791 5.44526L4.59242 9.58199C4.71051 9.70008 4.86789 9.76489 5.0357 9.76489C5.2037 9.76489 5.36099 9.69998 5.47907 9.58199L5.85465 9.20632C5.97264 9.08843 6.03764 8.93095 6.03764 8.76305C6.03764 8.59523 5.97264 8.43245 5.85465 8.31455L3.44139 5.89599L11.1084 5.89599C11.4541 5.89599 11.7272 5.62537 11.7272 5.27959L11.7272 4.7485C11.7272 4.40272 11.4541 4.10481 11.1084 4.10481L3.41402 4.10481L5.85456 1.67274C5.97255 1.55466 6.03755 1.40147 6.03755 1.23356C6.03755 1.06584 5.97255 0.910415 5.85456 0.792425L5.47898 0.417967C5.3609 0.299884 5.20361 0.235534 5.03561 0.235534C4.8678 0.235534 4.71042 0.300722 4.59233 0.418804L0.455698 4.55545C0.337335 4.6739 0.272241 4.83203 0.272706 5.00012C0.272335 5.16877 0.337335 5.32699 0.455791 5.44526Z" fill="url(#paint0_linear_543_2294)"/>
<defs>
<linearGradient id="paint0_linear_543_2294" x1="11.7272" y1="0.235535" x2="-0.558137" y2="9.98362" gradientUnits="userSpaceOnUse">
<stop stop-color="#2973FF"/>
<stop offset="0.48974" stop-color="#8846D3"/>
<stop offset="1" stop-color="#FF22AC"/>
</linearGradient>
</defs>
</svg>
