<svg width="34" height="32" viewBox="0 0 34 32" fill="none" xmlns="http://www.w3.org/2000/svg">
<path d="M33.1278 15.8202C33.1278 17.4591 30.1919 18.6137 29.7116 20.0923C29.2138 21.6252 30.8932 24.2819 29.9648 25.5577C29.0271 26.8462 25.9752 26.065 24.6868 27.0027C23.4109 27.9311 23.2162 31.0808 21.6837 31.5772C20.2047 32.0574 18.2032 29.6404 16.5639 29.6404C14.9246 29.6404 12.9231 32.0574 11.4441 31.5772C9.91155 31.0797 9.71645 27.9311 8.44101 27.0027C7.15253 26.065 4.10062 26.8459 3.163 25.5574C2.23453 24.2819 3.91394 21.6252 3.41613 20.0923C2.93589 18.6137 0 17.4591 0 15.8202C0 14.1812 2.93589 13.0266 3.41613 11.548C3.91394 10.0152 2.23453 7.35841 3.163 6.08259C4.10062 4.79411 7.15253 5.57528 8.44101 4.63767C9.71685 3.70919 9.91155 0.559543 11.4441 0.0631357C12.9231 -0.417098 14.9246 1.99989 16.5639 1.99989C18.2032 1.99989 20.2047 -0.417098 21.6837 0.0631357C23.2162 0.560593 23.4113 3.70919 24.6868 4.63767C25.9752 5.57528 29.0271 4.79446 29.9648 6.08294C30.8932 7.35841 29.2138 10.0152 29.7116 11.548C30.1919 13.0266 33.1278 14.1812 33.1278 15.8202Z" fill="url(#paint0_linear_237_24)"/>
<path d="M12.008 19.088C12 19.224 11.98 19.368 11.948 19.52C11.924 19.672 11.848 19.796 11.72 19.892C11.624 19.972 11.516 20.02 11.396 20.036C11.276 20.052 11.156 20.044 11.036 20.012C10.924 19.988 10.816 19.948 10.712 19.892C10.608 19.828 10.524 19.752 10.46 19.664C10.188 19.328 9.936 18.984 9.704 18.632C9.48 18.272 9.252 17.912 9.02 17.552L8.012 16.028C7.876 15.812 7.732 15.572 7.58 15.308C7.428 15.036 7.272 14.784 7.112 14.552L7.076 19.136V19.244C7.076 19.372 7.052 19.5 7.004 19.628C6.964 19.748 6.892 19.852 6.788 19.94C6.708 20.004 6.604 20.048 6.476 20.072C6.276 20.112 6.108 20.1 5.972 20.036C5.844 19.972 5.74 19.884 5.66 19.772C5.588 19.66 5.536 19.532 5.504 19.388C5.48 19.236 5.476 19.088 5.492 18.944V18.74L5.516 17.804L5.528 16.064C5.536 15.808 5.54 15.548 5.54 15.284C5.54 15.012 5.54 14.736 5.54 14.456C5.532 14.112 5.532 13.748 5.54 13.364C5.556 12.98 5.572 12.62 5.588 12.284C5.604 12.1 5.648 11.944 5.72 11.816C5.752 11.704 5.836 11.608 5.972 11.528C6.06 11.472 6.172 11.436 6.308 11.42C6.452 11.404 6.576 11.408 6.68 11.432C6.72 11.448 6.76 11.468 6.8 11.492C6.84 11.508 6.88 11.528 6.92 11.552C6.96 11.584 6.996 11.616 7.028 11.648C7.068 11.68 7.104 11.716 7.136 11.756C7.176 11.796 7.212 11.84 7.244 11.888C7.276 11.928 7.308 11.968 7.34 12.008C7.364 12.056 7.388 12.1 7.412 12.14C7.436 12.18 7.464 12.22 7.496 12.26L7.628 12.452L10.4 16.82V16.028C10.4 15.772 10.396 15.512 10.388 15.248C10.388 14.976 10.384 14.696 10.376 14.408C10.376 14.072 10.376 13.712 10.376 13.328C10.384 12.944 10.396 12.584 10.412 12.248C10.412 12.112 10.452 11.956 10.532 11.78C10.572 11.676 10.64 11.592 10.736 11.528C10.832 11.464 10.94 11.42 11.06 11.396C11.18 11.372 11.3 11.372 11.42 11.396C11.54 11.42 11.644 11.468 11.732 11.54C11.756 11.564 11.78 11.592 11.804 11.624C11.828 11.656 11.848 11.692 11.864 11.732C11.904 11.836 11.928 11.928 11.936 12.008C11.96 12.12 11.972 12.22 11.972 12.308C11.972 13.308 11.972 14.328 11.972 15.368C11.98 16.408 11.988 17.428 11.996 18.428C11.996 18.54 12 18.652 12.008 18.764C12.016 18.868 12.016 18.976 12.008 19.088ZM14.8584 12.944L14.8344 14.828H15.3144C15.6424 14.82 15.9344 14.816 16.1904 14.816C16.4464 14.816 16.7304 14.82 17.0424 14.828H17.1024C17.1984 14.828 17.2904 14.832 17.3784 14.84C17.4744 14.84 17.5664 14.84 17.6544 14.84C17.7504 14.848 17.8424 14.864 17.9304 14.888C18.0184 14.904 18.1064 14.924 18.1944 14.948C18.3304 14.996 18.4424 15.068 18.5304 15.164C18.6104 15.268 18.6504 15.384 18.6504 15.512C18.6504 15.552 18.6504 15.6 18.6504 15.656C18.6504 15.704 18.6424 15.748 18.6264 15.788C18.6104 15.876 18.5584 15.956 18.4704 16.028C18.4304 16.084 18.3544 16.124 18.2424 16.148C18.1384 16.18 18.0344 16.2 17.9304 16.208C17.8184 16.232 17.7064 16.244 17.5944 16.244H17.0304L14.8104 16.256L14.7864 18.608L17.1744 18.632H17.7384C17.8024 18.632 17.8624 18.632 17.9184 18.632C17.9744 18.632 18.0264 18.636 18.0744 18.644C18.1384 18.66 18.1944 18.672 18.2424 18.68C18.2984 18.68 18.3504 18.688 18.3984 18.704C18.4944 18.736 18.5744 18.78 18.6384 18.836C18.7184 18.916 18.7704 19 18.7944 19.088C18.8024 19.128 18.8064 19.172 18.8064 19.22C18.8144 19.26 18.8144 19.304 18.8064 19.352C18.8064 19.48 18.7664 19.596 18.6864 19.7C18.5904 19.812 18.4784 19.884 18.3504 19.916C18.1824 19.988 17.9984 20.024 17.7984 20.024C17.7104 20.032 17.6184 20.036 17.5224 20.036C17.4264 20.036 17.3344 20.04 17.2464 20.048H17.1744C16.5504 20.064 15.9024 20.064 15.2304 20.048C15.0704 20.048 14.9424 20.044 14.8464 20.036C14.7504 20.036 14.6624 20.036 14.5824 20.036C14.5104 20.036 14.4344 20.036 14.3544 20.036C14.2744 20.036 14.1704 20.036 14.0424 20.036C13.8584 20.052 13.7064 20.02 13.5864 19.94C13.4984 19.884 13.4304 19.808 13.3824 19.712C13.3584 19.688 13.3464 19.664 13.3464 19.64C13.3384 19.624 13.3304 19.612 13.3224 19.604C13.3144 19.596 13.3064 19.584 13.2984 19.568C13.2824 19.528 13.2704 19.488 13.2624 19.448C13.2544 19.4 13.2504 19.356 13.2504 19.316C13.2424 19.276 13.2344 19.236 13.2264 19.196C13.2264 19.156 13.2224 19.116 13.2144 19.076V18.884C13.2144 18.852 13.2144 18.82 13.2144 18.788C13.2224 18.756 13.2264 18.724 13.2264 18.692V17.756L13.2504 16.028V14.432C13.2504 14.144 13.2504 13.888 13.2504 13.664C13.2584 13.44 13.2664 13.196 13.2744 12.932V12.872C13.2824 12.784 13.2864 12.704 13.2864 12.632C13.2944 12.552 13.2984 12.472 13.2984 12.392C13.3064 12.232 13.3504 12.076 13.4304 11.924C13.4624 11.86 13.4944 11.804 13.5264 11.756C13.5664 11.708 13.6184 11.668 13.6824 11.636C13.8024 11.564 13.9264 11.528 14.0544 11.528C14.1184 11.528 14.1664 11.532 14.1984 11.54V11.528C14.3424 11.528 14.4584 11.528 14.5464 11.528C14.6344 11.528 14.7184 11.528 14.7984 11.528C14.8864 11.528 14.9784 11.528 15.0744 11.528C15.1704 11.52 15.3024 11.516 15.4704 11.516C15.7904 11.508 16.0944 11.504 16.3824 11.504C16.6704 11.504 16.9664 11.508 17.2704 11.516H17.3184C17.4064 11.524 17.4984 11.528 17.5944 11.528C17.6904 11.528 17.7824 11.532 17.8704 11.54C17.9584 11.54 18.0464 11.552 18.1344 11.576C18.2224 11.592 18.3104 11.616 18.3984 11.648C18.5344 11.688 18.6464 11.756 18.7344 11.852C18.8064 11.964 18.8424 12.076 18.8424 12.188C18.8424 12.236 18.8424 12.284 18.8424 12.332C18.8424 12.372 18.8344 12.412 18.8184 12.452C18.8104 12.532 18.7624 12.616 18.6744 12.704C18.6424 12.72 18.6064 12.74 18.5664 12.764C18.5344 12.788 18.4944 12.808 18.4464 12.824C18.3984 12.84 18.3464 12.852 18.2904 12.86C18.2424 12.86 18.1944 12.864 18.1464 12.872C18.0824 12.888 18.0224 12.896 17.9664 12.896C17.9184 12.896 17.8624 12.896 17.7984 12.896H17.2584L14.8584 12.908V12.944ZM28.3683 11.984C28.4003 12.136 28.4003 12.296 28.3683 12.464C28.3523 12.544 28.3363 12.624 28.3203 12.704C28.3123 12.776 28.3003 12.852 28.2843 12.932L28.2723 12.98C28.1603 13.476 28.0323 14 27.8883 14.552C27.7523 15.096 27.6283 15.612 27.5163 16.1C27.4203 16.5 27.3203 16.94 27.2163 17.42C27.1123 17.9 27.0043 18.34 26.8923 18.74C26.8523 18.876 26.8083 19.012 26.7603 19.148C26.7203 19.284 26.6683 19.42 26.6043 19.556C26.5483 19.676 26.4803 19.784 26.4003 19.88C26.3283 19.968 26.2443 20.032 26.1483 20.072C26.0523 20.12 25.9483 20.136 25.8363 20.12C25.7323 20.112 25.6163 20.064 25.4883 19.976C25.2963 19.84 25.1523 19.652 25.0563 19.412C24.9683 19.172 24.8763 18.952 24.7803 18.752C24.7483 18.696 24.7003 18.572 24.6363 18.38C24.5723 18.188 24.5043 17.98 24.4323 17.756C24.3603 17.524 24.2883 17.304 24.2163 17.096C24.1523 16.88 24.0963 16.72 24.0483 16.616C23.9763 16.792 23.9043 16.992 23.8323 17.216C23.7603 17.44 23.6923 17.66 23.6283 17.876C23.5643 18.092 23.5043 18.288 23.4483 18.464C23.4003 18.632 23.3643 18.756 23.3403 18.836C23.2763 18.996 23.2043 19.172 23.1243 19.364C23.0523 19.556 22.9603 19.72 22.8483 19.856C22.7443 19.992 22.6163 20.08 22.4643 20.12C22.3123 20.168 22.1323 20.124 21.9243 19.988C21.7643 19.892 21.6523 19.756 21.5883 19.58C21.5483 19.468 21.5083 19.36 21.4683 19.256C21.4283 19.152 21.3963 19.044 21.3723 18.932L21.1323 18.032L20.6403 16.1C20.5763 15.852 20.5123 15.6 20.4483 15.344C20.3923 15.08 20.3243 14.808 20.2443 14.528C20.2043 14.392 20.1683 14.26 20.1363 14.132C20.1123 13.996 20.0843 13.852 20.0523 13.7C20.0283 13.54 19.9963 13.36 19.9563 13.16C19.9243 12.96 19.8843 12.728 19.8363 12.464C19.8203 12.376 19.8083 12.296 19.8003 12.224C19.8003 12.144 19.8083 12.064 19.8243 11.984C19.8403 11.864 19.8963 11.76 19.9923 11.672C20.0323 11.632 20.0803 11.6 20.1363 11.576C20.1923 11.552 20.2523 11.532 20.3163 11.516C20.4123 11.484 20.5123 11.468 20.6163 11.468C20.7123 11.468 20.8123 11.5 20.9163 11.564C20.9883 11.604 21.0443 11.656 21.0843 11.72L21.2283 11.972C21.2443 12.028 21.2603 12.08 21.2763 12.128C21.2923 12.168 21.3083 12.212 21.3243 12.26C21.3403 12.316 21.3523 12.368 21.3603 12.416C21.3683 12.456 21.3763 12.496 21.3843 12.536C21.4563 12.952 21.5443 13.356 21.6483 13.748C21.7523 14.14 21.8483 14.516 21.9363 14.876C21.9683 15.02 22.0083 15.2 22.0563 15.416C22.1043 15.624 22.1523 15.844 22.2003 16.076C22.2483 16.3 22.2963 16.516 22.3443 16.724C22.3923 16.932 22.4403 17.096 22.4883 17.216C22.5923 16.856 22.6963 16.496 22.8003 16.136C22.9123 15.776 23.0323 15.412 23.1603 15.044C23.2243 14.852 23.2883 14.68 23.3523 14.528C23.4243 14.368 23.5043 14.236 23.5923 14.132C23.6803 14.028 23.7803 13.96 23.8923 13.928C24.0043 13.896 24.1363 13.908 24.2883 13.964C24.4243 14.02 24.5443 14.14 24.6483 14.324C24.7523 14.508 24.8443 14.696 24.9243 14.888C24.9963 15.064 25.0643 15.252 25.1283 15.452C25.2003 15.644 25.2683 15.836 25.3323 16.028C25.4043 16.212 25.4723 16.388 25.5363 16.556C25.6003 16.724 25.6643 16.868 25.7283 16.988C25.7523 16.9 25.7803 16.788 25.8123 16.652C25.8443 16.516 25.8763 16.372 25.9083 16.22C25.9483 16.06 25.9843 15.904 26.0163 15.752C26.0483 15.6 26.0803 15.46 26.1123 15.332C26.2163 14.9 26.3243 14.468 26.4363 14.036C26.5483 13.596 26.6563 13.164 26.7603 12.74L26.8203 12.536C26.8363 12.496 26.8443 12.456 26.8443 12.416C26.8523 12.368 26.8643 12.316 26.8803 12.26C26.8963 12.212 26.9123 12.168 26.9283 12.128C26.9443 12.08 26.9603 12.028 26.9763 11.972C26.9923 11.932 27.0083 11.892 27.0243 11.852C27.0483 11.804 27.0763 11.76 27.1083 11.72C27.1323 11.68 27.1603 11.648 27.1923 11.624C27.2243 11.6 27.2563 11.58 27.2883 11.564C27.4003 11.5 27.4963 11.468 27.5763 11.468C27.6803 11.468 27.7803 11.484 27.8763 11.516C28.0043 11.54 28.1203 11.592 28.2243 11.672C28.3043 11.752 28.3523 11.856 28.3683 11.984Z" fill="white"/>
<defs>
<linearGradient id="paint0_linear_237_24" x1="16.5639" y1="-15.8202" x2="-15.0431" y2="17.2726" gradientUnits="userSpaceOnUse">
<stop stop-color="#FF9C3E"/>
<stop offset="0.811086" stop-color="#FFCE6D"/>
</linearGradient>
</defs>
</svg>
