<svg width="870" height="962" viewBox="0 0 870 962" fill="none" xmlns="http://www.w3.org/2000/svg">
<path d="M435.316 0.557129C461.784 0.561129 487.066 8.36713 510.216 20.8251L794.904 185.985C841.186 212.832 869.673 262.292 869.673 315.798V646.899C869.673 700.456 841.13 749.955 794.776 776.787L510.086 941.568C463.58 968.485 406.232 968.485 359.726 941.567L75.0342 776.787C28.6812 749.956 0.13916 700.456 0.13916 646.898V315.798C0.13916 262.29 28.6252 212.831 74.9062 185.985L359.597 20.8251C382.528 7.56013 403.841 2.34513 430.029 0.642132L435.316 0.557129ZM438.223 48.6161C419.007 47.9551 400.397 53.0181 383.683 62.3441L98.9932 227.504C67.5132 245.765 48.1392 279.405 48.1392 315.798V646.898C48.1392 683.327 67.5532 716.995 99.0812 735.244L383.771 900.024C415.403 918.333 454.409 918.333 486.041 900.024L770.731 735.244C802.259 716.995 821.673 683.327 821.673 646.898V315.798C821.673 279.405 802.297 245.765 770.819 227.504L486.129 62.3441C471.114 53.4661 455.459 49.7371 438.223 48.6161Z" fill="white"/>
<path d="M377.061 340.217L222.336 317.057C250.901 214.127 327.866 162.662 453.233 162.662C518.297 162.662 570.07 179.021 608.553 211.738C647.036 244.455 666.277 287.649 666.277 341.32C666.277 379.551 655.169 413.187 632.952 442.228C610.735 471.269 567.888 508.949 504.411 555.268C459.184 588.353 431.809 612.982 422.288 629.157H679.369V749.365H212.814C212.814 700.841 228.485 654.155 259.827 609.306C291.168 564.458 330.841 524.389 378.846 489.098C426.851 453.808 459.779 425.502 477.632 404.181C495.485 382.86 504.411 361.171 504.411 339.114C504.411 322.204 498.658 308.602 487.153 298.309C475.648 288.016 461.168 282.87 443.711 282.87C408.799 282.87 386.582 301.986 377.061 340.217Z" fill="white"/>
</svg>
