<svg width="774" height="866" viewBox="0 0 774 866" fill="none" xmlns="http://www.w3.org/2000/svg">
<path d="M773.534 598.335C773.534 634.764 754.12 668.432 722.592 686.681L437.902 851.461C406.27 869.77 367.264 869.77 335.632 851.461L50.942 686.681C19.414 668.432 0 634.764 0 598.335V267.235C0 230.842 19.374 197.202 50.854 178.941L335.544 13.7812C367.22 -4.59375 406.314 -4.59375 437.99 13.7812L722.68 178.941C754.158 197.202 773.534 230.842 773.534 267.235V598.335Z" fill="white"/>
<path d="M328.922 291.655L174.197 268.495C202.761 165.565 279.727 114.1 405.094 114.1C470.158 114.1 521.931 130.458 560.414 163.176C598.896 195.892 618.138 239.086 618.138 292.758C618.138 330.988 607.03 364.624 584.813 393.666C562.596 422.707 519.749 460.387 456.272 506.706C411.044 539.79 383.67 564.42 374.149 580.595H631.23V700.803H164.675C164.675 652.279 180.346 605.592 211.688 560.744C243.029 515.896 282.702 475.826 330.707 440.536C378.711 405.246 411.64 376.94 429.493 355.619C447.345 334.297 456.272 312.608 456.272 290.552C456.272 273.642 450.519 260.04 439.014 249.747C427.509 239.454 413.028 234.308 395.572 234.308C360.66 234.308 338.443 253.423 328.922 291.655Z" fill="#1C2029"/>
</svg>
