<svg width="24" height="16" viewBox="0 0 24 16" fill="none" xmlns="http://www.w3.org/2000/svg">
<g clip-path="url(#clip0_569_2264)">
<path d="M24 -0.000244141H0V15.9999H24V-0.000244141Z" fill="#F0F0F0"/>
<path d="M24 1.99976H0V3.99958H24V1.99976Z" fill="#D80027"/>
<path d="M24 6H0V7.99983H24V6Z" fill="#D80027"/>
<path d="M24 9.99951H0V11.9993H24V9.99951Z" fill="#D80027"/>
<path d="M24 13.9998H0V15.9996H24V13.9998Z" fill="#D80027"/>
<path d="M12 -0.000244141H0V8.61524H12V-0.000244141Z" fill="#2E52B2"/>
<path d="M4.67923 3.5293L4.48596 4.12386H3.86084L4.36667 4.49113L4.1734 5.08564L4.67923 4.71837L5.18473 5.08564L4.99151 4.49113L5.49734 4.12386H4.87217L4.67923 3.5293Z" fill="#F0F0F0"/>
<path d="M4.87217 6.2692L4.67923 5.67468L4.48596 6.2692H3.86084L4.36667 6.63651L4.1734 7.23103L4.67923 6.86371L5.18473 7.23103L4.99151 6.63651L5.49734 6.2692H4.87217Z" fill="#F0F0F0"/>
<path d="M2.23025 6.2692L2.03726 5.67468L1.844 6.2692H1.21887L1.7247 6.63651L1.53143 7.23103L2.03726 6.86371L2.54281 7.23103L2.34959 6.63651L2.85533 6.2692H2.23025Z" fill="#F0F0F0"/>
<path d="M2.03726 3.5293L1.844 4.12386H1.21887L1.7247 4.49113L1.53143 5.08564L2.03726 4.71837L2.54281 5.08564L2.34959 4.49113L2.85533 4.12386H2.23025L2.03726 3.5293Z" fill="#F0F0F0"/>
<path d="M4.67923 1.38354L4.48596 1.97815H3.86084L4.36667 2.34546L4.1734 2.93998L4.67923 2.57266L5.18473 2.93998L4.99151 2.34546L5.49734 1.97815H4.87217L4.67923 1.38354Z" fill="#F0F0F0"/>
<path d="M2.03726 1.38354L1.844 1.97815H1.21887L1.7247 2.34546L1.53143 2.93998L2.03726 2.57266L2.54281 2.93998L2.34959 2.34546L2.85533 1.97815H2.23025L2.03726 1.38354Z" fill="#F0F0F0"/>
<path d="M7.32103 3.5293L7.12781 4.12386H6.50269L7.00847 4.49113L6.81529 5.08564L7.32103 4.71837L7.82662 5.08564L7.63336 4.49113L8.13918 4.12386H7.51406L7.32103 3.5293Z" fill="#F0F0F0"/>
<path d="M7.51406 6.2692L7.32103 5.67468L7.12781 6.2692H6.50269L7.00847 6.63651L6.81529 7.23103L7.32103 6.86371L7.82662 7.23103L7.63336 6.63651L8.13918 6.2692H7.51406Z" fill="#F0F0F0"/>
<path d="M10.1561 6.2692L9.96312 5.67468L9.76985 6.2692H9.14478L9.65051 6.63651L9.45729 7.23103L9.96312 6.86371L10.4687 7.23103L10.2754 6.63651L10.7812 6.2692H10.1561Z" fill="#F0F0F0"/>
<path d="M9.96312 3.5293L9.76985 4.12386H9.14478L9.65051 4.49113L9.45729 5.08564L9.96312 4.71837L10.4687 5.08564L10.2754 4.49113L10.7812 4.12386H10.1561L9.96312 3.5293Z" fill="#F0F0F0"/>
<path d="M7.32103 1.38354L7.12781 1.97815H6.50269L7.00847 2.34546L6.81529 2.93998L7.32103 2.57266L7.82662 2.93998L7.63336 2.34546L8.13918 1.97815H7.51406L7.32103 1.38354Z" fill="#F0F0F0"/>
<path d="M9.96312 1.38354L9.76985 1.97815H9.14478L9.65051 2.34546L9.45729 2.93998L9.96312 2.57266L10.4687 2.93998L10.2754 2.34546L10.7812 1.97815H10.1561L9.96312 1.38354Z" fill="#F0F0F0"/>
</g>
<defs>
<clipPath id="clip0_569_2264">
<rect width="24" height="16" rx="2" fill="white"/>
</clipPath>
</defs>
</svg>
