<?xml version="1.0" encoding="utf-8"?>
<!-- Generator: Adobe Illustrator 25.4.1, SVG Export Plug-In . SVG Version: 6.00 Build 0)  -->
<svg version="1.1" id="Слой_1" xmlns="http://www.w3.org/2000/svg" xmlns:xlink="http://www.w3.org/1999/xlink" x="0px" y="0px"
	 viewBox="0 0 140.6 129" style="enable-background:new 0 0 140.6 129;" xml:space="preserve">
<style type="text/css">
	.st0{fill:#232021;}
	.st1{fill:none;stroke:#231F20;stroke-width:7;stroke-linecap:round;stroke-linejoin:round;}
	.st2{fill:#231F20;stroke:#231F20;stroke-width:6;stroke-linecap:round;stroke-linejoin:round;stroke-miterlimit:10;}
</style>
<g>
	<path class="st0" d="M52.2,76.1c0-1.5,0.2-2.7,0.6-3.8c0.4-1,1.1-2,2-2.9c1.4-1.3,2.6-2.5,3.8-3.5c1.2-1,2.2-1.9,3-2.8
		c0.9-0.9,1.5-1.7,1.9-2.5s0.7-1.5,0.7-2.4c0-1.6-0.5-2.9-1.5-3.8c-1-0.9-2.3-1.4-3.8-1.4c-2.3,0-4.1,0.6-5.3,1.9
		c-1.2,1.3-1.9,2.9-2,4.6L40.2,59c0.5-5.3,2.5-9.2,5.8-12c3.3-2.7,7.6-4.1,12.8-4.1c2.2,0,4.4,0.3,6.4,0.9c2,0.6,3.8,1.5,5.3,2.8
		c1.5,1.2,2.7,2.8,3.6,4.6c0.9,1.9,1.3,3.9,1.3,6.3c0,1.5-0.2,2.7-0.5,3.9c-0.3,1.2-0.8,2.3-1.5,3.4c-0.7,1.2-1.6,2.3-2.8,3.5
		c-1.2,1.2-2.6,2.4-4.4,3.8c-1.2,0.9-1.9,1.8-2.3,2.6c-0.4,0.9-0.6,1.7-0.6,2.6v2.2H52.2V76.1z M50.8,90.3c0-0.9,0.2-1.9,0.5-2.6
		c0.3-0.9,0.9-1.5,1.5-2.2c0.6-0.6,1.3-1.1,2.2-1.5c0.9-0.3,1.7-0.5,2.6-0.5c0.9,0,1.9,0.2,2.6,0.5c0.9,0.3,1.5,0.9,2.2,1.5
		c0.6,0.6,1.1,1.3,1.5,2.2c0.3,0.9,0.5,1.7,0.5,2.6s-0.2,1.9-0.5,2.6c-0.3,0.9-0.9,1.5-1.5,2.2s-1.3,1.1-2.2,1.5
		c-0.9,0.3-1.7,0.5-2.6,0.5c-0.9,0-1.9-0.2-2.6-0.5c-0.9-0.3-1.5-0.9-2.2-1.5c-0.6-0.6-1.1-1.3-1.5-2.2
		C51.1,92.2,50.8,91.3,50.8,90.3"/>
	<path class="st1" d="M92.6,109.4H19.9c-7.1,0-12.8-5.7-12.8-12.8V43.2c0-6.9,5.6-12.5,12.5-12.5h83.6c6.9,0,12.4,5.6,12.4,12.4v54
		c0,6.8-5.5,12.3-12.3,12.3h-3.1H92.6z"/>
	<polygon class="st2" points="106.2,109.4 90.4,123.6 90.4,109.4 	"/>
	<path class="st1" d="M25.2,29.9v-2.7c0-6.9,5.6-12.5,12.5-12.5h83.6c6.8,0,12.3,5.5,12.3,12.3v53.7c0,7-5.6,12.6-12.6,12.6h-5.5"/>
</g>
</svg>
