<svg width="27" height="27" viewBox="0 0 27 27" fill="none" xmlns="http://www.w3.org/2000/svg">
<g filter="url(#filter0_d_109_5)">
<path d="M22.9406 11.0824L21.3915 10.8087C21.2301 10.2659 21.0227 9.74239 20.7691 9.24288L21.682 7.91246C22.0692 7.34571 22.0093 6.57243 21.5344 6.08253L20.1605 4.65124C19.9023 4.38227 19.5612 4.23338 19.1969 4.23338C18.9111 4.23338 18.6391 4.32464 18.4086 4.49755L17.1269 5.44853C16.6289 5.17476 16.1079 4.94902 15.5685 4.78092L15.3103 3.18633C15.1997 2.49951 14.6326 2 13.9641 2H12.0231C11.3546 2 10.7875 2.49951 10.6768 3.18633L10.4094 4.81934C9.89307 4.98745 9.39054 5.20839 8.91105 5.47735L7.64318 4.52636C7.41266 4.35346 7.13603 4.2622 6.85018 4.2622C6.48596 4.2622 6.14018 4.41109 5.8866 4.68006L4.50808 6.11134C4.03781 6.60125 3.97327 7.37453 4.36055 7.94128L5.28263 9.29091C5.02906 9.79522 4.8262 10.3187 4.66945 10.8615L3.13878 11.1304C2.47949 11.2457 2 11.8365 2 12.5329V14.555C2 15.2514 2.47949 15.8422 3.13878 15.9574L4.70633 16.236C4.86769 16.7739 5.07977 17.2975 5.33796 17.797L4.4297 19.113C4.04243 19.6797 4.10236 20.453 4.57724 20.9429L5.95115 22.3742C6.20933 22.6432 6.55051 22.7921 6.91473 22.7921C7.20058 22.7921 7.47259 22.7008 7.70312 22.5279L8.99865 21.5673C9.4643 21.8219 9.95301 22.0284 10.4555 22.1917L10.7137 23.8055C10.8244 24.4923 11.3915 24.9918 12.06 24.9918H14.0056C14.6741 24.9918 15.2412 24.4923 15.3518 23.8055L15.6146 22.1917C16.1356 22.0236 16.6381 21.8075 17.1176 21.5433L18.3947 22.4943C18.6253 22.6672 18.9019 22.7584 19.1877 22.7584C19.5519 22.7584 19.8931 22.6096 20.1513 22.3406L21.5252 20.9093C21.9955 20.4194 22.06 19.6461 21.6728 19.0794L20.7599 17.7441C21.0135 17.2398 21.2255 16.7163 21.3823 16.1784L22.9314 15.9094C23.5907 15.7941 24.0702 15.2034 24.0702 14.5069V12.4849C24.0794 11.7885 23.5999 11.1977 22.9406 11.0824ZM22.8346 14.5069C22.8346 14.5694 22.7931 14.6222 22.7332 14.6318L20.7968 14.968C20.5524 15.0113 20.3588 15.1986 20.2988 15.4435C20.1236 16.1496 19.8562 16.8268 19.4966 17.456C19.3721 17.6769 19.3814 17.9507 19.5243 18.162L20.6631 19.8334C20.6953 19.8815 20.6907 19.9535 20.6492 19.9967L19.2753 21.428C19.243 21.4616 19.2108 21.4664 19.1877 21.4664C19.1601 21.4664 19.137 21.4568 19.1186 21.4424L17.5187 20.2561C17.3205 20.1072 17.0531 20.0976 16.841 20.2273C16.237 20.6019 15.587 20.8805 14.9092 21.063C14.6695 21.1254 14.4897 21.332 14.4528 21.5817L14.1255 23.599C14.1162 23.6614 14.0655 23.7046 14.0056 23.7046H12.0646C12.0047 23.7046 11.9539 23.6614 11.9447 23.599L11.622 21.5817C11.5805 21.3272 11.4007 21.1254 11.1656 21.063C10.5063 20.8853 9.87002 20.6115 9.27528 20.2561C9.17846 20.1985 9.06781 20.1696 8.96177 20.1696C8.83728 20.1696 8.70819 20.2081 8.60215 20.2897L6.9885 21.4857C6.96544 21.5001 6.94239 21.5097 6.91934 21.5097C6.9009 21.5097 6.86402 21.5049 6.83174 21.4712L5.45783 20.04C5.41634 19.9967 5.41173 19.9295 5.444 19.8767L6.57817 18.2196C6.72109 18.0083 6.73031 17.7297 6.60583 17.5088C6.24622 16.8844 5.96959 16.2072 5.79439 15.5012C5.72985 15.2562 5.53621 15.0689 5.29647 15.0257L3.34625 14.6798C3.28631 14.6702 3.24482 14.6174 3.24482 14.555V12.5329C3.24482 12.4705 3.28631 12.4176 3.34625 12.408L5.2688 12.0718C5.51316 12.0286 5.71141 11.8413 5.77134 11.5915C5.94193 10.8855 6.20472 10.2035 6.55973 9.57429C6.68421 9.35335 6.67038 9.07958 6.52745 8.87305L5.37945 7.19201C5.34718 7.14398 5.35179 7.07194 5.39328 7.02871L6.7672 5.59743C6.79947 5.56381 6.83174 5.559 6.85479 5.559C6.88246 5.559 6.90551 5.56861 6.92395 5.58302L8.51455 6.76455C8.71741 6.91344 8.98482 6.92305 9.1969 6.79337C9.79626 6.41873 10.4463 6.13056 11.1241 5.94804C11.3592 5.8808 11.539 5.67908 11.5805 5.42932L11.9124 3.39766C11.9217 3.33523 11.9724 3.292 12.0323 3.292H13.9733C14.0333 3.292 14.084 3.33523 14.0932 3.39766L14.4159 5.4005C14.4574 5.65506 14.6372 5.86159 14.877 5.92403C15.5731 6.10654 16.237 6.38992 16.8548 6.76935C17.0669 6.89903 17.3297 6.88943 17.5326 6.74053L19.1232 5.5494C19.1462 5.53499 19.1693 5.52538 19.1923 5.52538C19.2108 5.52538 19.2477 5.53018 19.2799 5.56381L20.6538 6.99509C20.6953 7.03832 20.6999 7.10556 20.6677 7.15839L19.5289 8.82502C19.386 9.03155 19.3768 9.31012 19.5012 9.53106C19.8608 10.1602 20.1283 10.8375 20.3035 11.5435C20.3634 11.7933 20.5616 11.9806 20.8014 12.019L22.7378 12.36C22.7977 12.3696 22.8392 12.4224 22.8392 12.4849V14.5069H22.8346V14.5069Z" fill="white"/>
<path d="M13.0546 8.63281C10.3097 8.63281 8.08008 10.8624 8.08008 13.6074C8.08008 16.3523 10.3097 18.5819 13.0546 18.5819C15.7995 18.5819 18.0292 16.3523 18.0292 13.6074C18.0292 10.8624 15.7995 8.63281 13.0546 8.63281ZM13.0546 17.2817C11.0272 17.2817 9.3803 15.6347 9.3803 13.6074C9.3803 11.58 11.0272 9.93303 13.0546 9.93303C15.082 9.93303 16.7289 11.58 16.7289 13.6074C16.7289 15.6347 15.082 17.2817 13.0546 17.2817Z" fill="white"/>
</g>
<defs>
<filter id="filter0_d_109_5" x="0" y="0" width="26.0703" height="26.9922" filterUnits="userSpaceOnUse" color-interpolation-filters="sRGB">
<feFlood flood-opacity="0" result="BackgroundImageFix"/>
<feColorMatrix in="SourceAlpha" type="matrix" values="0 0 0 0 0 0 0 0 0 0 0 0 0 0 0 0 0 0 127 0" result="hardAlpha"/>
<feOffset/>
<feGaussianBlur stdDeviation="1"/>
<feComposite in2="hardAlpha" operator="out"/>
<feColorMatrix type="matrix" values="0 0 0 0 0 0 0 0 0 0 0 0 0 0 0 0 0 0 0.5 0"/>
<feBlend mode="normal" in2="BackgroundImageFix" result="effect1_dropShadow_109_5"/>
<feBlend mode="normal" in="SourceGraphic" in2="effect1_dropShadow_109_5" result="shape"/>
</filter>
</defs>
</svg>
