<svg width="21" height="20" viewBox="0 0 21 20" fill="none" xmlns="http://www.w3.org/2000/svg">
<path opacity="0.6" d="M8 2C11.31 2 14 4.69 14 8C14 11.31 11.31 14 8 14C4.69 14 2 11.31 2 8C2 4.69 4.69 2 8 2ZM8 0C3.58 0 0 3.58 0 8C0 12.42 3.58 16 8 16C12.42 16 16 12.42 16 8C16 3.58 12.42 0 8 0ZM19.17 15.17L16.04 12.03C15.73 12.65 15.36 13.22 14.92 13.75L17.76 16.58C18.08 16.91 18.08 17.43 17.76 17.76C17.54 17.97 17.3 18 17.17 18C17.04 18 16.79 17.97 16.58 17.76L13.75 14.92C13.22 15.36 12.65 15.73 12.03 16.04L15.17 19.17C15.72 19.72 16.45 20 17.17 20C17.89 20 18.62 19.72 19.17 19.17C20.28 18.06 20.28 16.27 19.17 15.17Z" fill="#7D8294"/>
</svg>
