<svg width="176" height="162" viewBox="0 0 176 162" fill="none" xmlns="http://www.w3.org/2000/svg">
<path d="M22.221 0H152.943C165.215 0 175.163 9.859 175.163 22.021V139.435C175.163 151.596 165.215 161.455 152.943 161.455H22.221C9.949 161.455 0 151.596 0 139.435V22.021C0 9.859 9.949 0 22.221 0Z" fill="url(#paint0_linear_227_200)"/>
<path d="M120.432 39.9907C129.235 39.9907 136.332 47.1277 136.332 55.8907V109.891C136.332 118.624 129.265 125.691 120.532 125.691H37.132C28.099 125.691 20.832 118.424 20.832 109.391V55.9907C20.832 47.1577 27.999 39.9907 36.832 39.9907H120.432ZM120.432 46.9907H36.832C31.865 46.9907 27.832 51.0237 27.832 55.9907V109.391C27.832 114.558 31.965 118.691 37.132 118.691H120.532C125.399 118.691 129.332 114.758 129.332 109.891V55.8907C129.332 50.9847 125.36 46.9907 120.432 46.9907Z" fill="url(#paint1_linear_227_200)"/>
<path d="M123.433 119.191C126.183 119.191 127.484 122.584 125.438 124.423L109.638 138.623C107.707 140.358 104.633 138.988 104.633 136.391V122.191C104.633 120.535 105.976 119.191 107.633 119.191H123.433Z" fill="url(#paint2_linear_227_200)"/>
<path d="M138.534 23.9907C147.267 23.9907 154.334 31.0577 154.334 39.7907V93.4907C154.334 102.424 147.167 109.591 138.234 109.591H135.694C133.761 109.591 132.194 108.024 132.194 106.091C132.194 104.158 133.761 102.591 135.694 102.591H138.234C143.301 102.591 147.334 98.5577 147.334 93.4907V39.7907C147.334 34.9237 143.401 30.9907 138.534 30.9907H54.9336C49.9666 30.9907 45.9336 35.0237 45.9336 39.9907V42.6907C45.9336 44.6237 44.3666 46.1907 42.4336 46.1907C40.5006 46.1907 38.9336 44.6237 38.9336 42.6907V39.9907C38.9336 31.1577 46.1006 23.9907 54.9336 23.9907H138.534Z" fill="url(#paint3_linear_227_200)"/>
<path d="M69.6646 87.8095C69.6646 86.3805 69.8966 85.1095 70.2066 84.0765C70.5946 83.0445 71.2146 82.0905 72.1436 81.2175C73.5386 79.8665 74.7006 78.6755 75.7856 77.7225C76.9476 76.7695 77.8776 75.8165 78.7296 74.9425C79.5816 74.0685 80.1246 73.2745 80.6666 72.4805C81.1316 71.6855 81.3636 70.9705 81.3636 70.0975C81.3636 68.5085 80.8986 67.2375 79.8916 66.2845C78.9616 65.4105 77.6446 64.8545 76.1726 64.8545C73.9256 64.8545 72.2216 65.4905 70.9816 66.8405C70.0516 67.8735 69.3546 69.2235 69.0446 70.7325C68.9676 71.1295 68.5796 71.5265 68.1146 71.5265C66.1786 71.3675 61.3746 71.0505 59.0506 70.8915C58.3526 70.8115 57.8876 70.1765 57.9656 69.4615C58.6626 64.8545 60.5226 61.2805 63.4666 58.8185C66.6426 56.1175 70.8266 54.6875 75.8626 54.6875C78.0326 54.6875 80.1246 55.0055 82.1386 55.5615C84.0756 56.1965 85.7806 57.0705 87.3296 58.3415C88.8796 59.6125 89.9636 61.1215 90.8936 62.9485C91.7456 64.7755 92.2105 66.8405 92.2105 69.2235C92.2105 70.6535 92.0556 71.9235 91.8236 73.1155C91.5136 74.3065 91.0486 75.4185 90.3516 76.5305C89.6536 77.6425 88.7246 78.8345 87.6396 79.9465C86.4776 81.1375 85.0826 82.4085 83.3786 83.7595C82.2936 84.6325 81.5186 85.5065 81.1316 86.3805C80.7436 87.2535 80.5886 88.0485 80.5886 88.9215V89.7955C80.5886 90.5105 80.0466 90.9875 79.4266 90.9875H70.9046C70.2066 90.9875 69.6646 90.4315 69.6646 89.7165V87.8095ZM68.4246 101.949C68.4246 101.075 68.5796 100.122 68.8896 99.3275C69.1996 98.4535 69.7426 97.8185 70.2846 97.1825C70.8266 96.5475 71.6016 96.0705 72.4536 95.7525C73.1516 95.4355 73.8486 95.3555 74.4686 95.3555C75.4756 95.2765 76.5606 95.4355 77.5676 95.8325C78.4196 96.1505 79.0396 96.7065 79.6596 97.2625C80.2796 97.8185 80.7436 98.6125 81.0536 99.4865C81.3636 100.201 81.4416 100.916 81.4416 101.552C81.5186 102.584 81.3636 103.696 80.9766 104.729C80.6666 105.603 80.1246 106.237 79.5816 106.873C79.0396 107.508 78.2646 107.985 77.4126 108.302C76.7156 108.62 76.0176 108.7 75.3976 108.7C74.3906 108.78 73.3066 108.621 72.2986 108.224C71.4466 107.906 70.8266 107.35 70.2066 106.794C69.5876 106.238 69.1226 105.443 68.8126 104.649C68.6576 103.775 68.4246 102.823 68.4246 101.949Z" fill="url(#paint4_linear_227_200)"/>
<defs>
<linearGradient id="paint0_linear_227_200" x1="86.949" y1="4.183" x2="86.526" y2="156.018" gradientUnits="userSpaceOnUse">
<stop stop-color="#31394B"/>
<stop offset="1" stop-color="#262C3B"/>
</linearGradient>
<linearGradient id="paint1_linear_227_200" x1="20.832" y1="82.8407" x2="136.332" y2="82.8407" gradientUnits="userSpaceOnUse">
<stop stop-color="#6756E2"/>
<stop offset="1" stop-color="#BF37C3"/>
</linearGradient>
<linearGradient id="paint2_linear_227_200" x1="105.079" y1="123.948" x2="126.311" y2="123.038" gradientUnits="userSpaceOnUse">
<stop stop-color="#A540CC"/>
<stop offset="1" stop-color="#B839C5"/>
</linearGradient>
<linearGradient id="paint3_linear_227_200" x1="47.2486" y1="31.4377" x2="140.163" y2="30.8317" gradientUnits="userSpaceOnUse">
<stop stop-color="#7A50DC"/>
<stop offset="1" stop-color="#BF37C3"/>
</linearGradient>
<linearGradient id="paint4_linear_227_200" x1="28.7496" y1="82.2565" x2="101.361" y2="81.8605" gradientUnits="userSpaceOnUse">
<stop stop-color="#6756E2"/>
<stop offset="1" stop-color="#BF37C3"/>
</linearGradient>
</defs>
</svg>
