<svg width="700" height="350" viewBox="0 0 700 350" fill="none" xmlns="http://www.w3.org/2000/svg">
<g clip-path="url(#clip0_257_2)">
<path d="M769.545 350.403L769.484 350.757C745.058 350.878 725.765 347.655 710.806 341.208C696.974 335.248 686.818 326.54 679.516 314.922C673.092 304.703 668.874 292.334 665.963 276.547C664.753 269.981 663.765 262.864 662.818 254.253C662.437 250.792 662.068 247.162 661.627 242.58C661.434 240.574 660.68 232.617 660.491 230.65C658.341 208.314 656.472 194.615 653.16 180.315C648.284 159.268 640.849 141.456 629.629 125.773C616.743 107.761 598.979 92.8512 575.255 80.9682C545.592 66.1112 514.087 61.4362 477.041 64.8762C461.288 66.3392 444.525 69.2402 424.946 73.6962C416.732 75.5652 408.053 77.6982 397.911 80.3132C390.671 82.1802 390.884 82.1242 370.136 87.6332C346.168 93.9972 332.376 97.5012 316.913 100.999C296.877 105.532 278.548 108.896 260.57 111.189C213.166 117.233 168.826 115.636 123.783 104.675C71.7821 92.0212 19.6911 66.9192 -33.9639 27.1582L-33.3199 26.9492C20.2781 66.6672 72.2901 91.7322 124.173 104.357C169.056 115.279 213.209 116.869 260.437 110.847C278.363 108.562 296.647 105.205 316.64 100.682C334.207 96.7192 351.3 92.2412 368.329 87.7232C373.486 86.3542 378.639 84.9822 383.8 83.6162C389.031 82.2332 393.42 81.0842 397.599 80.0062C407.752 77.3882 416.444 75.2522 424.672 73.3802C444.309 68.9112 461.134 65.9992 476.962 64.5292C514.255 61.0662 546.001 65.7772 575.823 80.7132C599.617 92.6312 617.427 107.581 630.342 125.633C641.581 141.341 649.025 159.175 653.906 180.245C657.22 194.554 659.09 208.259 661.241 230.602C661.43 232.569 662.183 240.526 662.376 242.531C662.818 247.113 663.186 250.743 663.567 254.203C664.514 262.81 665.501 269.923 666.711 276.484C669.618 292.25 673.829 304.6 680.237 314.794C687.507 326.361 697.607 335.02 711.338 340.937C726.169 347.328 745.293 350.523 769.545 350.403Z" fill="url(#paint0_linear_257_2)"/>
<path d="M755.156 360.774L755.039 361.128C730.291 360.352 711.03 356.429 696.425 349.452C682.927 343.003 673.375 333.95 666.942 322.097C661.291 311.686 658.037 299.22 656.362 283.366C655.667 276.798 655.239 269.697 654.96 261.056C654.849 257.621 654.763 254.04 654.674 249.396C654.65 248.161 654.502 239.916 654.453 237.487C653.936 211.803 652.764 196.037 649.429 179.671C645.566 160.719 639.018 144.275 628.887 129.624C617.432 113.057 601.466 98.9605 580.134 87.2595C551.556 71.5845 520.353 65.7815 483.055 67.7175C467.16 68.5425 450.146 70.7445 430.266 74.3625C415.348 77.0785 404.958 79.2755 374.391 85.9945C352.753 90.7505 340.974 93.2505 327.483 95.8545C309.904 99.2475 293.961 101.844 278.438 103.746C253.897 106.753 230.721 107.965 207.916 107.191C182.504 106.329 157.715 102.991 133.104 96.8775C78.1538 83.2275 24.3278 55.7815 -30.0342 11.8025L-29.3772 11.6035C24.9278 55.5375 78.6738 82.9415 133.499 96.5605C158.027 102.654 182.724 105.979 208.037 106.838C230.757 107.609 253.85 106.401 278.313 103.404C293.798 101.507 309.707 98.9155 327.255 95.5285C340.731 92.9275 352.5 90.4295 374.127 85.6765C404.712 78.9535 415.111 76.7535 430.053 74.0335C449.993 70.4045 467.07 68.1945 483.041 67.3655C520.576 65.4175 552 71.2615 580.722 87.0145C602.114 98.7485 618.122 112.882 629.603 129.487C639.751 144.164 646.309 160.631 650.176 179.606C653.513 195.984 654.686 211.758 655.203 237.451C655.252 239.88 655.401 248.126 655.424 249.36C655.514 254.003 655.599 257.584 655.71 261.018C655.989 269.656 656.417 276.753 657.111 283.317C658.785 299.149 662.033 311.595 667.67 321.98C674.075 333.782 683.576 342.786 696.982 349.191C711.47 356.113 730.575 360.004 755.156 360.774Z" fill="url(#paint1_linear_257_2)"/>
<path d="M635.104 144.203C640.404 154.318 643.62 164.721 645.949 175.193C648.187 185.8 649.323 197.084 649.582 209.666C649.79 219.715 649.474 229.693 648.651 244.042C648.496 246.74 647.922 256.313 647.947 255.895C647.668 260.598 647.476 264.108 647.317 267.504C646.912 276.144 646.778 283.202 646.949 289.747C647.364 305.593 649.629 318.092 654.469 328.635C659.977 340.633 668.842 349.952 681.876 356.825C695.972 364.258 714.998 368.837 739.84 370.504L739.669 370.855C714.67 369.177 695.499 364.564 681.297 357.075C668.178 350.156 659.266 340.788 653.735 328.74C648.883 318.171 646.615 305.651 646.199 289.783C646.027 283.234 646.162 276.172 646.567 267.528C646.726 264.132 646.918 260.621 647.197 255.917C647.172 256.336 647.746 246.763 647.901 244.065C648.723 229.72 649.039 219.745 648.832 209.701C648.572 197.13 647.438 185.856 645.202 175.26C638.026 141.252 619.394 114.535 584.567 93.6602C557.148 77.2262 526.351 70.3282 488.939 70.7762C472.961 70.9682 455.759 72.4722 435.653 75.2582C420.401 77.3712 408.512 79.3622 378.918 84.5832C358.539 88.1782 348.5 89.8982 336.415 91.8012C320.51 94.3042 306.196 96.2372 292.324 97.6892C266.106 100.433 241.83 101.399 218.129 100.364C191.397 99.1972 165.635 95.4722 140.311 88.8372C83.3191 73.9042 28.8291 44.2732 -24.8789 -3.23778L-24.2089 -3.42578C29.4431 44.0362 83.8531 73.6242 140.719 88.5242C165.961 95.1372 191.63 98.8482 218.265 100.011C241.884 101.043 266.082 100.08 292.227 97.3442C306.07 95.8952 320.357 93.9652 336.238 91.4662C348.311 89.5652 358.343 87.8462 378.713 84.2532C408.327 79.0292 420.226 77.0352 435.504 74.9182C455.67 72.1252 472.936 70.6152 488.989 70.4222C526.626 69.9722 557.625 76.9152 585.172 93.4262C603.482 104.4 617.386 117.091 627.474 131.556C629.504 134.55 630.176 135.472 632.266 139.044C633.267 140.754 634.158 142.483 635.104 144.203Z" fill="url(#paint2_linear_257_2)"/>
<path d="M633.749 148.032C636.371 153.29 638.323 158.639 640.018 164.016C643.993 177.129 645.658 191.24 645.454 207.106C645.295 221.468 643.56 235.879 641.605 250.285C640.567 257.825 639.396 265.914 638.404 273.638C637.303 282.255 636.603 289.251 636.248 295.754C635.384 311.563 636.648 324.075 640.668 334.74C645.25 346.893 653.443 356.497 666.062 363.819C679.716 371.741 698.606 376.998 723.638 379.565L723.416 379.911C698.237 377.33 679.213 372.035 665.463 364.057C652.765 356.689 644.529 347.036 639.929 334.832C635.899 324.141 634.633 311.607 635.498 295.778C635.854 289.269 636.554 282.27 637.655 273.649C638.7 265.92 639.76 257.846 640.856 250.292C642.881 235.891 644.444 221.494 644.703 207.137C644.908 191.286 643.244 177.192 639.275 164.097C631.642 138.913 615.491 117.779 588.54 100.15C562.352 83.0194 532.065 75.0624 494.681 74.0464C478.677 73.6114 461.352 74.4214 441.099 76.3814C425.57 77.8844 412.455 79.5294 383.713 83.4074C363.618 86.1194 355.414 87.1984 344.393 88.5344C329.668 90.3184 316.52 91.6844 303.816 92.7034C276.116 94.9234 250.947 95.4294 226.541 93.9554C198.724 92.2744 172.227 88.0114 146.44 80.7584C88.0353 64.3304 33.6133 32.6244 -18.5127 -17.9226L-17.8327 -18.0996C34.2423 32.3964 88.5853 64.0574 146.866 80.4494C172.573 87.6804 198.98 91.9294 226.702 93.6034C251.031 95.0734 276.127 94.5684 303.757 92.3544C316.437 91.3374 329.565 89.9734 344.27 88.1914C355.281 86.8574 363.482 85.7784 383.569 83.0674C412.33 79.1864 425.458 77.5404 441.014 76.0354C461.327 74.0694 478.715 73.2554 494.792 73.6924C532.388 74.7154 562.859 82.7204 589.162 99.9264C605.449 110.556 617.704 122.558 626.315 135.232C629.174 139.441 631.511 143.719 633.749 148.032Z" fill="url(#paint3_linear_257_2)"/>
<path d="M630.567 148.488L631.421 150.173C638.875 165.286 641.514 181.008 641.859 196.789C642.11 213.928 639.667 230.632 634.051 256.372C633.934 256.906 630.035 274.459 628.992 279.405C627.185 287.973 625.919 294.882 625.034 301.324C622.875 317.043 623.125 329.526 626.304 340.279C629.932 352.547 637.421 362.405 649.582 370.154C662.747 378.543 681.443 384.467 706.595 387.934L706.325 388.275C681.036 384.788 662.218 378.826 648.964 370.381C636.731 362.586 629.203 352.678 625.561 340.358C622.373 329.579 622.123 317.074 624.285 301.334C625.171 294.887 626.437 287.974 628.245 279.402C629.288 274.455 633.188 256.901 633.304 256.368C638.918 230.64 641.359 213.947 641.108 196.824C640.788 174.967 635.518 155.913 624.032 138.728C616.279 127.128 605.718 116.471 592.044 106.713C567.154 88.952 537.481 79.976 500.268 77.524C484.299 76.472 466.918 76.596 446.597 77.74C430.851 78.627 416.733 79.825 388.778 82.482C367.591 84.495 361.967 85.018 351.8 85.882C337.914 87.062 325.623 87.939 313.774 88.555C284.757 90.066 258.86 89.969 233.894 87.933C205.178 85.591 178.126 80.68 152.064 72.743C92.7259 54.672 38.9119 20.982 -10.9531 -32.21L-10.2621 -32.377C39.5549 20.764 93.2939 54.407 152.511 72.441C178.496 80.354 205.462 85.25 234.087 87.584C258.979 89.614 284.808 89.711 313.76 88.204C325.59 87.588 337.863 86.713 351.734 85.534C361.893 84.671 367.515 84.148 388.696 82.135C416.67 79.476 430.802 78.277 446.575 77.389C466.956 76.241 484.399 76.116 500.438 77.173C537.848 79.639 567.688 88.665 592.681 106.5C606.391 116.283 616.978 126.967 624.75 138.594C626.56 141.303 628.205 144.042 629.693 146.806L630.567 148.488Z" fill="url(#paint4_linear_257_2)"/>
<path d="M628.506 151.366C634.278 162.583 636.86 174.218 638.14 185.91C639.184 197.799 638.31 210.36 635.732 224.252C633.66 235.412 630.727 246.564 626.033 262.076C625.459 263.974 620.48 280.149 619.102 284.789C616.58 293.282 614.75 300.082 613.334 306.441C609.868 322.02 609.092 334.433 611.412 345.237C614.064 357.581 620.819 367.662 632.48 375.815C645.112 384.646 663.557 391.223 688.756 395.588L688.442 395.922C663.114 391.535 644.557 384.917 631.846 376.031C620.117 367.831 613.328 357.699 610.666 345.304C608.34 334.473 609.117 322.037 612.588 306.437C614.004 300.073 615.836 293.268 618.359 284.772C619.738 280.131 624.716 263.955 625.29 262.057C629.983 246.552 632.914 235.406 634.984 224.253C637.56 210.375 638.433 197.829 637.391 185.957C634.938 158.021 621.8 134.151 595.066 113.333C571.538 95.0112 542.583 85.0612 505.689 81.2082C489.816 79.5502 472.447 78.9962 452.141 79.3392C436.241 79.6082 421.313 80.2872 394.113 81.8212C392.292 81.9242 386.072 82.2772 385.398 82.3152C381.929 82.5112 379.238 82.6622 376.616 82.8072C369.962 83.1752 364.305 83.4742 358.864 83.7412C345.564 84.3952 333.916 84.8372 322.701 85.0842C292.511 85.7482 266.026 84.9482 240.622 82.2652C211.164 79.1542 183.706 73.5192 157.523 64.8542C97.6403 45.0362 44.8603 9.4512 -2.22168 -46.0608L-1.52168 -46.2168C45.5163 9.2422 98.2253 44.7792 157.99 64.5582C184.101 73.1992 211.477 78.8172 240.849 81.9192C266.184 84.5952 292.605 85.3932 322.735 84.7302C333.934 84.4842 345.568 84.0422 358.854 83.3892C364.292 83.1222 369.946 82.8232 376.597 82.4552C379.217 82.3102 381.908 82.1592 385.377 81.9632C386.051 81.9252 392.27 81.5732 394.092 81.4702C421.312 79.9342 436.255 79.2552 452.182 78.9852C472.547 78.6412 489.976 79.1972 505.914 80.8622C542.991 84.7342 572.097 94.7362 595.718 113.13C606.559 121.563 615.278 130.645 621.825 140.143C624.521 144.056 625.03 145.137 627.324 149.127L628.506 151.366Z" fill="url(#paint5_linear_257_2)"/>
<path d="M626.288 154.305C632.638 166.82 634.889 179.847 635.391 192.926C635.564 204.668 633.759 217.001 630.145 230.563C627.228 241.504 623.415 252.466 617.564 267.446C616.484 270.211 610.419 285.486 608.762 289.771C605.517 298.163 603.126 304.831 601.181 311.087C596.398 326.474 594.59 338.777 596.036 349.598C597.691 361.977 603.683 372.249 614.805 380.782C626.859 390.03 644.996 397.245 670.172 402.503L669.818 402.829C644.522 397.546 626.282 390.289 614.156 380.987C602.971 372.406 596.949 362.083 595.287 349.652C593.838 338.803 595.649 326.477 600.439 311.068C602.385 304.807 604.778 298.134 608.025 289.738C609.682 285.453 615.746 270.177 616.826 267.413C622.675 252.439 626.486 241.483 629.4 230.551C633.011 217.003 634.813 204.686 634.64 192.961C634.234 165.411 622.827 141.449 597.602 119.987C575.493 101.177 547.36 90.3031 510.936 85.0911C495.223 82.8431 477.937 81.6231 457.729 81.1821C441.741 80.8331 426.175 80.9431 399.725 81.4391C397.679 81.4781 386.174 81.6991 382.847 81.7611C376.287 81.8821 370.918 81.9721 365.731 82.0431C352.817 82.2201 341.654 82.2691 330.912 82.1711C299.681 81.8831 272.734 80.3121 247 76.9211C216.938 72.9601 189.204 66.5461 163.029 57.1241C102.935 35.4931 51.5392 -1.89794 7.66016 -59.4399L8.36816 -59.5859C52.2072 -2.09694 103.536 35.2441 163.517 56.8351C189.625 66.2331 217.282 72.6291 247.261 76.5791C272.932 79.9621 299.821 81.5301 330.995 81.8171C341.724 81.9151 352.875 81.8661 365.778 81.6891C370.962 81.6181 376.329 81.5291 382.886 81.4071C386.212 81.3451 397.717 81.1241 399.764 81.0861C426.234 80.5891 441.816 80.4791 457.832 80.8281C478.096 81.2711 495.438 82.4941 511.213 84.7511C547.806 89.9871 576.075 100.914 598.266 119.795C606.874 127.114 613.998 134.861 619.545 142.911C622.223 146.796 622.713 147.849 624.983 151.809L626.288 154.305Z" fill="url(#paint6_linear_257_2)"/>
<path d="M623.885 157.196C630.792 170.97 632.59 185.353 632.102 199.772C631.412 211.339 628.692 223.415 624.064 236.618C620.315 247.311 615.629 258.044 608.663 272.473C607.05 275.814 599.859 290.472 597.998 294.34C594.023 302.607 591.078 309.121 588.606 315.254C582.502 330.4 579.657 342.552 580.216 353.354C580.856 365.728 586.059 376.159 596.603 385.046C608.039 394.684 625.812 402.519 650.893 408.663L650.501 408.981C625.309 402.809 607.441 394.933 595.94 385.24C585.337 376.303 580.108 365.821 579.466 353.395C578.905 342.564 581.756 330.388 587.869 315.219C590.343 309.081 593.29 302.563 597.267 294.293C599.128 290.423 606.32 275.765 607.932 272.425C614.895 258.002 619.578 247.276 623.324 236.591C627.947 223.404 630.663 211.344 631.352 199.795C632.968 172.695 623.303 148.703 599.643 126.662C579.008 107.441 551.801 95.6976 516.001 89.1756C500.512 86.3536 483.383 84.4846 463.36 83.2806C447.353 82.3176 431.306 81.8236 405.62 81.3576C402.025 81.2926 389.451 81.0746 389.173 81.0696C382.549 80.9526 377.471 80.8566 372.5 80.7496C359.798 80.4786 349.001 80.1636 338.607 79.7366C306.461 78.4166 279.167 76.0256 253.199 71.8846C222.663 67.0136 194.77 59.7836 168.718 49.5886C108.708 26.1036 58.9931 -12.9984 18.6631 -72.3084L19.3791 -72.4434C59.6741 -13.1874 109.324 25.8656 169.228 49.3086C195.216 59.4786 223.037 66.6896 253.496 71.5476C279.405 75.6796 306.646 78.0666 338.739 79.3846C349.122 79.8106 359.909 80.1256 372.602 80.3966C377.571 80.5026 382.647 80.5986 389.269 80.7156C389.547 80.7206 402.121 80.9386 405.717 81.0036C431.423 81.4706 447.487 81.9646 463.521 82.9296C483.597 84.1366 500.779 86.0116 516.325 88.8436C552.28 95.3936 579.611 107.19 600.319 126.48C606.904 132.613 612.513 139.009 617.06 145.61C619.727 149.48 620.203 150.508 622.459 154.45L623.885 157.196Z" fill="url(#paint7_linear_257_2)"/>
<path d="M621.285 160.014C628.732 175.011 629.97 190.713 628.282 206.425C626.74 217.79 623.121 229.581 617.505 242.395C612.938 252.813 607.393 263.281 599.355 277.138C597.102 281.023 589.15 294.512 587.652 297.083C583.193 304.736 579.894 310.644 577.001 316.253C569.782 330.249 565.623 341.542 564.364 351.763C561.359 376.169 575.456 394.208 612.201 407.965C617.904 410.101 624.155 412.128 630.973 414.049L630.546 414.357C623.704 412.429 617.429 410.394 611.703 408.25C574.774 394.425 560.598 376.283 563.615 351.775C564.877 341.529 569.044 330.216 576.272 316.2C579.167 310.587 582.469 304.676 586.93 297.019C588.428 294.447 596.379 280.958 598.633 277.074C606.666 263.224 612.208 252.763 616.771 242.354C622.38 229.556 625.994 217.782 627.533 206.435C631.141 179.849 623.228 155.888 601.182 133.335C582.072 113.785 555.894 101.234 520.877 93.4591C505.68 90.0851 488.784 87.5851 469.038 85.6431C453.083 84.0741 436.706 82.9561 411.812 81.5971C409.881 81.4921 386.282 80.2331 379.241 79.8371C366.588 79.1271 356.068 78.4661 345.922 77.7221C312.982 75.3051 285.448 72.0611 259.34 67.1401C228.448 61.3181 200.504 53.2461 174.681 42.2711C115.021 16.9151 67.2488 -23.8019 30.7568 -84.6309L31.4798 -84.7559C67.9398 -23.9799 115.653 16.6861 175.211 41.9991C200.975 52.9491 228.852 61.0011 259.671 66.8101C285.726 71.7211 313.211 74.9581 346.102 77.3721C356.239 78.1161 366.751 78.7761 379.396 79.4861C386.435 79.8811 410.031 81.1401 411.965 81.2451C436.878 82.6061 453.274 83.7251 469.254 85.2961C489.05 87.2431 505.996 89.7511 521.245 93.1361C556.405 100.942 582.693 113.546 601.869 133.163C607.984 139.417 613.13 145.914 617.21 152.598C618.105 154.065 618.897 155.549 619.741 157.024L621.285 160.014Z" fill="url(#paint8_linear_257_2)"/>
<path d="M617.677 161.126C626.383 177.782 627.143 195.353 623.941 212.873C621.56 224.008 617.062 235.487 610.486 247.884C605.119 258.001 598.73 268.169 589.665 281.433C587.279 284.925 576.24 300.812 573.351 305.063C567.305 313.957 562.844 320.971 559.137 327.573C550.003 343.839 545.987 356.933 547.374 368.677C549.805 389.268 569.274 405.492 610.465 418.649L610.007 418.948C568.644 405.736 549.068 389.422 546.624 368.729C545.232 356.942 549.26 343.812 558.412 327.513C562.124 320.903 566.589 313.884 572.638 304.984C575.529 300.731 586.567 284.844 588.953 281.353C598.012 268.097 604.397 257.935 609.758 247.828C616.326 235.448 620.817 223.986 623.195 212.869C628.758 186.857 622.6 162.99 602.217 139.993C584.673 120.2 559.631 106.91 525.561 97.9477C510.725 94.0457 494.143 90.9387 474.767 88.2887C458.943 86.1247 442.38 84.3737 418.32 82.1887C412.964 81.7017 391.41 79.7877 386.007 79.2977C373.235 78.1377 362.93 77.1437 352.948 76.0847C319.333 72.5197 291.662 68.4047 265.499 62.6847C234.367 55.8787 206.474 46.9507 180.978 35.1977C121.915 7.97066 76.3162 -34.2583 43.9102 -96.3733L44.6392 -96.4863C77.0182 -34.4263 122.561 7.75067 181.527 34.9337C206.968 46.6617 234.8 55.5697 265.865 62.3607C291.978 68.0697 319.605 72.1787 353.175 75.7387C363.149 76.7967 373.447 77.7907 386.213 78.9497C391.614 79.4397 413.168 81.3537 418.526 81.8407C442.605 84.0277 459.187 85.7807 475.036 87.9477C494.458 90.6037 511.087 93.7197 525.97 97.6347C560.17 106.631 585.312 119.974 602.913 139.832C607.311 144.792 611.127 149.888 614.3 155.097C615.193 156.561 615.983 158.043 616.824 159.516L617.677 161.126Z" fill="url(#paint9_linear_257_2)"/>
<path d="M614.62 163.627C623.841 181.463 624.161 200.354 619.093 219.09C615.887 229.97 610.531 241.111 603.026 253.063C596.88 262.854 589.666 272.691 579.622 285.341C577.633 287.847 575.584 290.4 572.89 293.739C572.903 293.724 567.687 300.181 566.219 302.005C560.861 308.661 557.081 313.462 553.561 318.131C544.552 330.083 538.43 339.739 534.51 348.705C527.931 363.75 527.862 376.53 535.254 388.09C543.468 400.937 560.998 412.262 589.427 422.446L588.94 422.735C560.404 412.513 542.791 401.134 534.534 388.22C527.104 376.6 527.173 363.764 533.775 348.664C537.704 339.679 543.836 330.007 552.857 318.04C556.379 313.368 560.161 308.565 565.52 301.906C566.988 300.082 572.204 293.625 572.192 293.64C574.885 290.302 576.933 287.749 578.922 285.244C588.96 272.601 596.168 262.772 602.308 252.992C609.802 241.056 615.15 229.934 618.35 219.073C625.828 193.695 621.423 169.983 602.744 146.611C586.805 126.669 563.003 112.715 530.052 102.643C515.652 98.2406 499.468 94.5536 480.562 91.2316C464.952 88.4886 448.346 86.1076 425.174 83.1616C418.267 82.2836 394.134 79.2846 392.845 79.1236C379.755 77.4826 369.638 76.1636 359.748 74.7876C325.575 70.0346 297.865 65.0376 271.732 58.5076C240.47 50.6966 212.725 40.9066 187.647 28.3816C129.412 -0.700378 86.195 -44.3334 58.085 -107.506L58.82 -107.609C86.906 -44.4904 130.071 -0.910383 188.214 28.1266C213.241 40.6256 240.929 50.3966 272.129 58.1916C298.217 64.7096 325.886 69.6996 360.019 74.4476C369.902 75.8226 380.014 77.1406 393.099 78.7806C394.386 78.9416 418.52 81.9406 425.429 82.8186C448.621 85.7676 465.245 88.1506 480.879 90.8976C499.828 94.2276 516.056 97.9246 530.5 102.34C563.569 112.449 587.46 126.455 603.449 146.461C606.333 150.07 608.922 153.743 611.187 157.472C612.077 158.938 612.867 160.422 613.707 161.897L614.62 163.627Z" fill="url(#paint10_linear_257_2)"/>
<path d="M611.363 166.008C621.158 185.007 620.764 205.16 613.751 225.064C609.738 235.664 603.549 246.44 595.149 257.924C588.245 267.363 580.229 276.838 569.255 288.856C566.098 292.312 550.293 309.308 546.082 313.957C537.571 323.356 531.343 330.798 526.281 337.823C513.368 355.74 508.795 370.288 513.356 383.696C518.57 399.026 535.969 412.703 567.915 425.433L567.401 425.712C535.339 412.935 517.856 399.193 512.615 383.782C508.032 370.31 512.623 355.706 525.573 337.737C530.643 330.702 536.878 323.251 545.396 313.844C549.609 309.192 565.414 292.196 568.569 288.742C579.537 276.732 587.545 267.265 594.442 257.836C602.829 246.371 609.007 235.612 613.012 225.033C622.358 200.347 619.699 176.852 602.761 153.176C588.458 133.185 566.007 118.653 534.355 107.558C520.468 102.69 504.773 98.4561 486.442 94.5031C471.135 91.2031 454.633 88.2051 432.413 84.5651C427.629 83.7811 422.654 82.9791 416.234 81.9531C414.437 81.6651 403.113 79.8591 399.798 79.3291C386.13 77.1401 376.226 75.5121 366.366 73.8101C331.749 67.8371 304.096 61.9551 278.075 54.6121C246.789 45.7841 219.285 35.1311 194.711 21.8491C137.523 -9.06089 96.8762 -53.9869 73.2432 -117.997L73.9822 -118.088C97.5952 -54.1329 138.194 -9.2609 195.296 21.6031C219.823 34.8591 247.274 45.4921 278.502 54.3041C304.482 61.6351 332.099 67.5091 366.679 73.4771C376.533 75.1771 386.432 76.8041 400.096 78.9921C403.41 79.5231 414.734 81.3291 416.532 81.6161C422.953 82.6431 427.929 83.4461 432.715 84.2291C454.954 87.8721 471.475 90.8731 486.804 94.1791C505.175 98.1401 520.91 102.385 534.837 107.267C566.596 118.399 589.128 132.984 603.474 153.036C605.318 155.683 605.988 156.584 607.874 159.707C608.764 161.18 609.553 162.67 610.393 164.152L611.363 166.008Z" fill="url(#paint11_linear_257_2)"/>
<path d="M607.912 168.242C618.241 188.467 617.161 209.684 607.931 230.778C603.132 241.073 596.136 251.462 586.879 262.451C579.241 271.517 570.451 280.601 558.595 291.968C554.147 296.233 539.113 310.374 537.32 312.078C529.157 319.834 523.202 325.737 517.937 331.392C499.72 350.959 491.544 366.157 493.46 380.562C495.697 397.395 512.228 412.727 545.991 427.599L545.453 427.869C511.57 412.945 494.96 397.538 492.711 380.616C490.787 366.143 498.991 350.892 517.254 331.275C522.525 325.613 528.486 319.706 536.654 311.945C538.448 310.24 553.481 296.099 557.928 291.836C569.774 280.478 578.556 271.402 586.185 262.347C595.427 251.376 602.409 241.006 607.199 230.733C618.36 206.794 617.435 183.577 602.269 159.669C589.627 139.739 568.638 124.725 538.478 112.711C525.188 107.416 510.079 102.676 492.439 98.1415C477.535 94.3105 461.287 90.7195 440.096 86.4565C435.145 85.4605 429.93 84.4285 423.647 83.1975C421.201 82.7175 418.702 82.2295 415.311 81.5685C414.348 81.3805 410.687 80.6665 411.119 80.7505C409.424 80.4205 408.156 80.1725 406.912 79.9295C392.261 77.0695 382.714 75.1715 372.831 73.1305C337.884 65.9125 310.381 59.1505 284.55 50.9965C253.345 41.1455 226.172 29.6345 202.186 15.6125C146.251 -17.0855 108.345 -63.1895 89.3428 -127.817L90.0868 -127.896C109.072 -63.3245 146.934 -17.2745 202.787 15.3755C226.73 29.3725 253.854 40.8625 285.005 50.6965C310.799 58.8395 338.27 65.5925 373.183 72.8035C383.061 74.8445 392.604 76.7415 407.251 79.6005C408.495 79.8435 409.764 80.0915 411.458 80.4215C411.026 80.3375 414.687 81.0515 415.651 81.2395C419.042 81.9005 421.54 82.3885 423.988 82.8685C430.272 84.0995 435.488 85.1325 440.443 86.1295C461.651 90.3955 477.917 93.9905 492.842 97.8265C510.52 102.371 525.665 107.122 538.992 112.432C569.248 124.485 590.31 139.55 602.99 159.539C605.285 163.265 603.949 161.03 606.891 166.263L607.912 168.242Z" fill="url(#paint12_linear_257_2)"/>
<path d="M603.211 168.211C614.977 190.675 614.322 212.842 601.653 236.217C596.089 246.183 588.317 256.161 578.24 266.634C569.897 275.305 560.36 283.972 547.678 294.671C544.693 297.189 541.606 299.762 537.628 303.054C536.796 303.742 529.731 309.578 527.682 311.277C519.649 317.936 514.072 322.674 508.867 327.318C498.038 336.981 490.179 345.125 484.531 352.857C478.058 361.719 474.621 369.932 474.357 377.872C473.767 395.601 489.1 412.171 523.713 428.943L523.153 429.202C488.421 412.372 473.014 395.722 473.607 377.899C473.873 369.918 477.325 361.667 483.823 352.77C489.487 345.016 497.363 336.855 508.211 327.175C513.42 322.527 519.001 317.786 527.038 311.124C529.087 309.425 536.153 303.588 536.984 302.9C540.961 299.609 544.047 297.037 547.031 294.521C559.703 283.83 569.229 275.172 577.562 266.513C587.621 256.059 595.377 246.101 600.928 236.157C613.845 213.019 614.637 190.139 601.269 166.071C590.303 146.326 570.894 130.943 542.437 118.13C529.834 112.456 515.42 107.258 498.596 102.201C484.206 97.8751 468.373 93.7282 448.305 88.9182C439.172 86.7292 433.008 85.2931 414.243 80.9601C397.838 77.1721 389.11 75.1322 379.162 72.7332C343.999 64.2532 316.735 56.6231 291.172 47.6631C260.15 36.7901 233.394 24.4331 210.075 9.69414C155.59 -24.7429 120.581 -71.9059 106.342 -136.938L107.089 -137.006C121.316 -72.0299 156.284 -24.9219 210.691 9.46614C233.971 24.1811 260.682 36.5171 291.654 47.3721C317.183 56.3201 344.418 63.9421 379.55 72.4151C389.494 74.8131 398.219 76.8521 414.621 80.6391C433.389 84.9731 439.555 86.4092 448.692 88.5992C468.777 93.4142 484.628 97.5652 499.039 101.897C515.897 106.965 530.344 112.174 542.98 117.864C571.525 130.716 590.998 146.15 601.996 165.952L603.211 168.211Z" fill="url(#paint13_linear_257_2)"/>
<path d="M522.14 307.523C520.564 308.67 518.987 309.817 517.411 310.964C509.228 316.923 504.143 320.678 499.083 324.538C486.251 334.328 477.031 342.292 470.047 349.934C461.904 358.844 457.069 367.12 455.615 375.216C452.345 393.428 466.305 410.951 501.142 429.456L500.561 429.704C465.608 411.137 451.58 393.53 454.868 375.219C456.329 367.081 461.187 358.766 469.362 349.82C476.364 342.157 485.602 334.178 498.455 324.372C503.519 320.509 508.606 316.752 516.793 310.791C517.87 310.007 521.852 307.11 521.542 307.336C523.461 305.939 524.907 304.886 526.323 303.851C529.953 301.201 533.003 298.956 535.914 296.789C549.357 286.782 559.595 278.566 568.601 270.322C579.434 260.406 587.932 250.881 594.219 241.289C608.827 219.003 611.312 196.52 599.764 172.365C590.48 152.946 572.778 137.326 546.253 123.86C524.13 112.629 497.116 103.248 457.156 92.0575C447.428 89.3335 438.576 86.9365 421.863 82.4665C401.67 77.0665 395.403 75.3785 385.37 72.6035C350.103 62.8505 323.166 54.3665 297.946 44.6135C267.207 32.7245 240.953 19.5375 218.375 4.10547C165.529 -32.0135 133.559 -80.1115 124.191 -145.339L124.94 -145.395C134.3 -80.2245 166.232 -32.1815 219.006 3.88747C241.547 19.2935 267.76 32.4605 298.453 44.3315C323.642 54.0735 350.553 62.5485 385.792 72.2945C395.821 75.0675 402.086 76.7555 422.277 82.1545C438.993 86.6255 447.848 89.0235 457.581 91.7495C497.591 102.953 524.65 112.35 546.824 123.607C567.405 133.968 583.23 146.355 593.17 160.006C595.663 163.43 597.676 166.918 599.599 170.443L600.497 172.257C612.073 196.473 609.581 219.019 594.935 241.365C588.632 250.98 580.116 260.526 569.262 270.461C560.243 278.717 549.992 286.942 536.537 296.959C533.625 299.126 530.573 301.372 526.942 304.024C525.526 305.058 524.08 306.112 522.16 307.509L522.14 307.523Z" fill="url(#paint14_linear_257_2)"/>
<path d="M431.828 84.6799C443.739 88.3039 455.577 91.9769 467.279 95.7399C504.245 107.686 529.984 117.942 550.562 129.732C567.811 139.56 581.332 150.86 590.088 163.157C592.432 166.449 594.326 169.799 596.13 173.183C598.028 177.253 597.266 175.498 598.494 178.437C608.234 202.667 604.072 224.761 587.798 246.209C580.785 255.452 571.559 264.545 559.973 273.923C550.311 281.745 539.382 289.506 525.212 298.827C519.403 302.648 494.815 318.415 488.693 322.462C473.957 332.203 463.594 339.829 455.428 347.252C445.757 356.043 439.638 364.241 437.066 372.368C431.245 390.764 443.724 409.032 478.34 429.138L477.741 429.376C443.011 409.204 430.471 390.846 436.324 372.347C438.91 364.176 445.059 355.939 454.768 347.112C462.956 339.669 473.338 332.03 488.095 322.275C494.222 318.225 518.811 302.457 524.616 298.638C538.771 289.327 549.686 281.576 559.334 273.767C570.895 264.408 580.099 255.336 587.094 246.117C603.322 224.731 607.471 202.701 597.757 178.533C590.15 159.608 574.292 143.91 549.965 129.972C529.433 118.208 503.737 107.969 466.818 96.0379C456.454 92.6889 446.095 89.4709 429.878 84.5239C430.793 84.8029 415.152 80.0369 410.793 78.7029C403.473 76.4629 397.347 74.5719 391.463 72.7309C356.203 61.6969 329.678 52.3809 304.876 41.8489C274.516 28.9559 248.846 14.9579 227.082 -1.13712C202.636 -19.2141 183.351 -39.8101 169.329 -63.6211C154.09 -89.4981 145.135 -119.091 142.843 -152.993L143.593 -153.037C145.883 -119.161 154.83 -89.5951 170.053 -63.7451C184.057 -39.9631 203.316 -19.3961 227.725 -1.34612C249.456 14.7239 275.088 28.7009 305.406 41.5759C330.18 52.0969 356.681 61.4039 391.916 72.4309C397.798 74.2709 403.922 76.1619 411.24 78.4009C417.612 80.3459 423.985 82.2909 430.363 84.2329L431.828 84.6799Z" fill="url(#paint15_linear_257_2)"/>
</g>
<defs>
<linearGradient id="paint0_linear_257_2" x1="478.643" y1="16.8758" x2="322.618" y2="258.686" gradientUnits="userSpaceOnUse">
<stop stop-color="#EE28B1" stop-opacity="0.211"/>
<stop offset="0.682" stop-color="#6F3BCD"/>
<stop offset="0.934" stop-color="#31CCFC"/>
</linearGradient>
<linearGradient id="paint1_linear_257_2" x1="485.241" y1="16.2515" x2="310.502" y2="258.496" gradientUnits="userSpaceOnUse">
<stop stop-color="#EE28B1" stop-opacity="0.211"/>
<stop offset="0.682" stop-color="#6F3BCD"/>
<stop offset="0.934" stop-color="#31CCFC"/>
</linearGradient>
<linearGradient id="paint2_linear_257_2" x1="492.059" y1="16.4977" x2="298.105" y2="257.471" gradientUnits="userSpaceOnUse">
<stop stop-color="#EE28B1" stop-opacity="0.211"/>
<stop offset="0.682" stop-color="#6F3BCD"/>
<stop offset="0.934" stop-color="#31CCFC"/>
</linearGradient>
<linearGradient id="paint3_linear_257_2" x1="499.18" y1="17.1162" x2="285.989" y2="255.238" gradientUnits="userSpaceOnUse">
<stop stop-color="#EE28B1" stop-opacity="0.211"/>
<stop offset="0.682" stop-color="#6F3BCD"/>
<stop offset="0.934" stop-color="#31CCFC"/>
</linearGradient>
<linearGradient id="paint4_linear_257_2" x1="506.523" y1="18.2516" x2="274.271" y2="251.822" gradientUnits="userSpaceOnUse">
<stop stop-color="#EE28B1" stop-opacity="0.211"/>
<stop offset="0.682" stop-color="#6F3BCD"/>
<stop offset="0.934" stop-color="#31CCFC"/>
</linearGradient>
<linearGradient id="paint5_linear_257_2" x1="514" y1="20.0594" x2="263.077" y2="247.278" gradientUnits="userSpaceOnUse">
<stop stop-color="#EE28B1" stop-opacity="0.211"/>
<stop offset="0.682" stop-color="#6F3BCD"/>
<stop offset="0.934" stop-color="#31CCFC"/>
</linearGradient>
<linearGradient id="paint6_linear_257_2" x1="521.868" y1="22.2886" x2="252.883" y2="241.641" gradientUnits="userSpaceOnUse">
<stop stop-color="#EE28B1" stop-opacity="0.211"/>
<stop offset="0.682" stop-color="#6F3BCD"/>
<stop offset="0.934" stop-color="#31CCFC"/>
</linearGradient>
<linearGradient id="paint7_linear_257_2" x1="529.335" y1="25.8302" x2="243.101" y2="235.097" gradientUnits="userSpaceOnUse">
<stop stop-color="#EE28B1" stop-opacity="0.211"/>
<stop offset="0.682" stop-color="#6F3BCD"/>
<stop offset="0.934" stop-color="#31CCFC"/>
</linearGradient>
<linearGradient id="paint8_linear_257_2" x1="537.001" y1="29.9998" x2="234.526" y2="227.674" gradientUnits="userSpaceOnUse">
<stop stop-color="#EE28B1" stop-opacity="0.211"/>
<stop offset="0.682" stop-color="#6F3BCD"/>
<stop offset="0.934" stop-color="#31CCFC"/>
</linearGradient>
<linearGradient id="paint9_linear_257_2" x1="544.744" y1="34.8452" x2="227.222" y2="219.485" gradientUnits="userSpaceOnUse">
<stop stop-color="#EE28B1" stop-opacity="0.211"/>
<stop offset="0.682" stop-color="#6F3BCD"/>
<stop offset="0.934" stop-color="#31CCFC"/>
</linearGradient>
<linearGradient id="paint10_linear_257_2" x1="551.726" y1="40.5608" x2="220.844" y2="210.463" gradientUnits="userSpaceOnUse">
<stop stop-color="#EE28B1" stop-opacity="0.211"/>
<stop offset="0.682" stop-color="#6F3BCD"/>
<stop offset="0.934" stop-color="#31CCFC"/>
</linearGradient>
<linearGradient id="paint11_linear_257_2" x1="558.093" y1="46.7989" x2="215.704" y2="200.724" gradientUnits="userSpaceOnUse">
<stop stop-color="#EE28B1" stop-opacity="0.211"/>
<stop offset="0.682" stop-color="#6F3BCD"/>
<stop offset="0.934" stop-color="#31CCFC"/>
</linearGradient>
<linearGradient id="paint12_linear_257_2" x1="563.923" y1="54.3966" x2="211.651" y2="190.845" gradientUnits="userSpaceOnUse">
<stop stop-color="#EE28B1" stop-opacity="0.211"/>
<stop offset="0.682" stop-color="#6F3BCD"/>
<stop offset="0.934" stop-color="#31CCFC"/>
</linearGradient>
<linearGradient id="paint13_linear_257_2" x1="569.626" y1="62.3722" x2="209.218" y2="180.738" gradientUnits="userSpaceOnUse">
<stop stop-color="#EE28B1" stop-opacity="0.211"/>
<stop offset="0.682" stop-color="#6F3BCD"/>
<stop offset="0.934" stop-color="#31CCFC"/>
</linearGradient>
<linearGradient id="paint14_linear_257_2" x1="574.436" y1="70.9435" x2="207.968" y2="170.441" gradientUnits="userSpaceOnUse">
<stop stop-color="#EE28B1" stop-opacity="0.211"/>
<stop offset="0.682" stop-color="#6F3BCD"/>
<stop offset="0.934" stop-color="#31CCFC"/>
</linearGradient>
<linearGradient id="paint15_linear_257_2" x1="578.765" y1="80.3701" x2="208.023" y2="160.356" gradientUnits="userSpaceOnUse">
<stop stop-color="#EE28B1" stop-opacity="0.211"/>
<stop offset="0.682" stop-color="#6F3BCD"/>
<stop offset="0.934" stop-color="#31CCFC"/>
</linearGradient>
<clipPath id="clip0_257_2">
<rect width="700" height="350" fill="white"/>
</clipPath>
</defs>
</svg>
