<svg width="66" height="22" viewBox="0 0 66 22" fill="none" xmlns="http://www.w3.org/2000/svg">
<path fill-rule="evenodd" clip-rule="evenodd" d="M16.5007 21.8287H10.7888L6.50559 4.76171C6.30229 3.97663 5.87063 3.28258 5.23566 2.95546C3.65104 2.1334 1.90489 1.47917 0 1.1492V0.492126H9.2014C10.4713 0.492126 11.4238 1.47917 11.5825 2.6255L13.8049 14.9365L19.514 0.492126H25.0671L16.5007 21.8287ZM28.242 21.8287H22.8476L27.2895 0.492126H32.6839L28.242 21.8287ZM39.6629 6.40296C39.8217 5.25378 40.7741 4.5967 41.8853 4.5967C43.6315 4.43172 45.5336 4.76169 47.121 5.5809L48.0734 0.98704C46.486 0.329961 44.7399 0 43.1552 0C37.9196 0 34.1098 2.95543 34.1098 7.05719C34.1098 10.1776 36.8084 11.816 38.7133 12.8031C40.7741 13.7873 41.5678 14.4443 41.4091 15.4285C41.4091 16.9048 39.8217 17.5619 38.237 17.5619C36.3322 17.5619 34.4273 17.0698 32.6839 16.2478L31.7315 20.8445C33.6364 21.6637 35.6972 21.9936 37.6021 21.9936C43.4727 22.1558 47.121 19.2032 47.121 14.7715C47.121 9.19057 39.6629 8.86345 39.6629 6.40296ZM66 21.8287L61.7168 0.492126H57.1161C56.1636 0.492126 55.2112 1.1492 54.8937 2.1334L46.9622 21.8287H52.5154L53.6238 18.7111H60.4469L61.0818 21.8287H66ZM57.9098 6.23806L59.4944 14.2795H55.0525L57.9098 6.23806Z" fill="white"/>
</svg>
