<svg width="22" height="22" viewBox="0 0 22 22" fill="none" xmlns="http://www.w3.org/2000/svg">
<path d="M11.0006 0C4.93435 0.00109995 0 4.93545 0 11.0006C0.00109995 17.0656 4.93545 22 10.9995 22C17.0656 22 22 17.0656 22 11.0006C22 4.93545 17.0656 0.00109995 11.0006 0V0ZM10.9995 19.8001C6.14869 19.8001 2.20099 15.8524 2.19989 11.0006C2.19989 6.14869 6.14759 2.20099 11.0006 2.19989C15.8524 2.20099 19.8001 6.14869 19.8001 11.0006C19.8001 15.8524 15.8524 19.8001 10.9995 19.8001V19.8001Z" fill="url(#paint0_linear_276_153)"/>
<path d="M11.0005 5L7 11.0083H10.0016V17H11.9994V11.0083H15L11.0005 5Z" fill="url(#paint1_linear_276_153)"/>
<defs>
<linearGradient id="paint0_linear_276_153" x1="24" y1="-0.499999" x2="-5" y2="23.5" gradientUnits="userSpaceOnUse">
<stop stop-color="#FF00F5"/>
<stop offset="1" stop-color="#0066FF"/>
</linearGradient>
<linearGradient id="paint1_linear_276_153" x1="15.7273" y1="4.72727" x2="2.10566" y2="12.2426" gradientUnits="userSpaceOnUse">
<stop stop-color="#FF00F5"/>
<stop offset="1" stop-color="#0066FF"/>
</linearGradient>
</defs>
</svg>
