<svg width="20" height="20" viewBox="0 0 20 20" fill="none" xmlns="http://www.w3.org/2000/svg">
<path d="M13.1213 6.52308C12.5099 3.68331 11.2059 1.88672 9.99985 1.88672C8.79382 1.88672 7.48984 3.68331 6.87842 6.52308H13.1213Z" fill="#A8B0CE"/>
<path d="M6.52246 9.99982C6.52232 10.7751 6.57401 11.5496 6.6772 12.318H13.3223C13.4255 11.5496 13.4771 10.7751 13.477 9.99982C13.4771 9.22451 13.4255 8.45006 13.3223 7.68164H6.6772C6.57401 8.45006 6.52232 9.22451 6.52246 9.99982Z" fill="#A8B0CE"/>
<path d="M6.87842 13.4775C7.48984 16.3173 8.79382 18.1139 9.99985 18.1139C11.2059 18.1139 12.5099 16.3173 13.1213 13.4775H6.87842Z" fill="#A8B0CE"/>
<path d="M14.3083 6.5226H17.9595C17.4109 5.27412 16.5773 4.17158 15.5257 3.30342C14.4741 2.43525 13.2336 1.82563 11.9038 1.52344C13.0032 2.4907 13.8656 4.27918 14.3083 6.5226Z" fill="#A8B0CE"/>
<path d="M18.3757 7.68164H14.4928C14.5884 8.45066 14.6362 9.22488 14.6359 9.99982C14.636 10.7748 14.588 11.549 14.4922 12.318H18.3751C18.7978 10.8014 18.7978 9.1982 18.3751 7.68164H18.3757Z" fill="#A8B0CE"/>
<path d="M11.9038 18.4767C13.2338 18.1747 14.4745 17.5651 15.5264 16.6969C16.5782 15.8288 17.4119 14.7262 17.9606 13.4775H14.3095C13.8656 15.721 13.0032 17.5094 11.9038 18.4767Z" fill="#A8B0CE"/>
<path d="M5.69167 13.4775H2.04053C2.58924 14.7262 3.42296 15.8288 4.47481 16.6969C5.52667 17.5651 6.76736 18.1747 8.09736 18.4767C6.9968 17.5094 6.13444 15.721 5.69167 13.4775Z" fill="#A8B0CE"/>
<path d="M8.09589 1.52344C6.76589 1.82546 5.5252 2.43502 4.47335 3.30319C3.4215 4.17136 2.58777 5.27399 2.03906 6.5226H5.6902C6.13413 4.27918 6.99649 2.4907 8.09589 1.52344Z" fill="#A8B0CE"/>
<path d="M5.36334 9.99982C5.36326 9.22487 5.41126 8.45065 5.50706 7.68164H1.62411C1.20147 9.1982 1.20147 10.8014 1.62411 12.318H5.50706C5.41126 11.549 5.36326 10.7748 5.36334 9.99982Z" fill="#A8B0CE"/>
</svg>
