<svg width="114" height="114" viewBox="0 0 114 114" fill="none" xmlns="http://www.w3.org/2000/svg">
<path d="M56.8 109.6C85.9606 109.6 109.6 85.9606 109.6 56.8C109.6 27.6394 85.9606 4 56.8 4C27.6394 4 4 27.6394 4 56.8C4 85.9606 27.6394 109.6 56.8 109.6Z" stroke="#66EACC" stroke-width="7" stroke-linecap="round" stroke-linejoin="round"/>
<path d="M62.1895 75.7148H51.3008L48.3223 22.9805H65.2168L62.1895 75.7148ZM65.1191 88.0195C65.1191 89.1914 64.8913 90.2982 64.4355 91.3398C64.0124 92.349 63.4264 93.2279 62.6777 93.9766C61.929 94.7253 61.0501 95.3112 60.041 95.7344C59.0319 96.1901 57.9577 96.418 56.8184 96.418C55.6465 96.418 54.556 96.1901 53.5469 95.7344C52.5378 95.3112 51.6426 94.7253 50.8613 93.9766C50.1126 93.2279 49.5104 92.349 49.0547 91.3398C48.6315 90.2982 48.4199 89.1914 48.4199 88.0195C48.4199 86.8802 48.6315 85.806 49.0547 84.7969C49.5104 83.7878 50.1126 82.9089 50.8613 82.1602C51.6426 81.4115 52.5378 80.8255 53.5469 80.4023C54.556 79.9466 55.6465 79.7188 56.8184 79.7188C57.9577 79.7188 59.0319 79.9466 60.041 80.4023C61.0501 80.8255 61.929 81.4115 62.6777 82.1602C63.4264 82.9089 64.0124 83.7878 64.4355 84.7969C64.8913 85.806 65.1191 86.8802 65.1191 88.0195Z" fill="#66EACC"/>
</svg>
