<svg width="570" height="1525" viewBox="0 0 570 1525" fill="none" xmlns="http://www.w3.org/2000/svg">
<path d="M571.439 1524.07C540.387 1401.25 581.434 1265.17 629.325 1136.37C677.215 1007.56 733.122 876.659 732.489 747.209C731.933 638.096 689.448 534.64 613.109 456.698C534.494 376.406 424.13 325.044 323.389 265.482C222.648 205.921 126.188 132.104 92.5728 27.5002M577.244 1522.73C544.033 1401.73 582.199 1266.46 628.308 1138.16C674.418 1009.87 729.251 879.335 729.189 750.338C729.285 647.233 693.408 549.003 626.881 471.819C622.629 466.919 618.339 462.111 613.853 457.385C574.994 416.287 527.787 382.401 476.826 352.214C426.726 322.436 373.607 296.283 322.889 267.604C220.239 209.905 122.638 135.183 89.6018 29.5735M583.076 1521.46C547.641 1402.3 583.057 1267.79 627.293 1139.96C671.528 1012.14 725.316 882.037 725.89 753.466C726.65 649.932 692.473 550.998 627.326 472.706C623.205 467.752 618.953 462.852 614.505 458.033C576.334 416.192 529.444 381.408 477.884 351.623C427.407 322.231 373.725 297.306 322.39 269.725C218.038 213.65 119.062 138.196 86.5661 31.6736M588.881 1520.13C551.221 1402.81 583.821 1269.08 626.184 1141.72C668.546 1014.37 721.288 884.702 722.563 756.529C723.988 652.567 691.511 552.928 627.808 473.502C623.726 468.455 619.578 463.436 615.261 458.563C577.776 415.977 531.166 380.388 479.018 350.847C428.164 321.84 373.881 298.237 321.966 271.661C215.81 217.33 115.588 141.09 83.6062 33.5892M594.686 1518.8C554.894 1403.35 584.651 1270.35 625.167 1143.52C665.684 1016.7 717.037 887.382 719.263 759.657C721.103 655.217 690.576 554.923 628.253 474.39C624.301 469.289 620.191 464.177 616.005 459.25C579.235 415.985 532.942 379.499 480.232 350.267C429.002 321.646 374.118 299.364 321.624 273.794C213.662 221.206 112.196 144.181 80.8201 35.739M600.491 1517.46C558.474 1403.86 585.416 1271.64 624.124 1145.26C662.833 1018.88 713.047 889.954 715.975 762.628C718.388 657.721 689.626 556.695 628.709 475.119C624.86 469.899 620.816 464.76 616.668 459.741C580.586 415.732 534.533 378.533 481.301 349.517C429.657 321.375 374.17 300.414 321.07 275.784C211.303 224.94 108.592 147.129 77.7303 37.7085M606.323 1516.2C562.147 1404.41 586.273 1272.97 623.108 1147.06C659.943 1021.15 709.046 892.684 712.675 765.756C715.661 660.382 688.69 558.691 629.153 476.008C625.37 470.76 621.429 465.502 617.385 460.362C581.99 415.609 536.282 377.579 482.396 348.834C430.375 321.077 374.288 301.437 320.609 277.813C209.063 228.778 105.081 150.115 74.7322 39.7166M612.129 1514.86C565.728 1404.91 587.038 1274.26 622.027 1148.88C657.015 1023.51 705.046 895.414 709.31 768.912C712.895 663.136 687.69 560.714 629.598 476.895C625.918 471.528 622.043 466.243 618.064 461.077C583.356 415.579 537.928 376.744 483.481 348.308C431.11 321.003 374.394 302.619 320.163 280.066C206.747 232.801 101.65 153.298 71.8157 41.9208M617.933 1513.53C569.308 1405.42 587.895 1275.59 620.983 1150.62C654.071 1025.65 701.056 897.986 706.049 771.948C710.272 665.678 686.793 562.617 630.08 477.691C626.466 472.297 622.695 466.892 618.819 461.606C584.799 415.364 539.688 375.632 484.614 347.532C431.868 320.612 374.484 303.577 319.74 282.002C204.453 236.508 98.1497 156.127 68.8558 43.8361M623.739 1512.2C572.954 1405.9 588.66 1276.88 619.94 1152.35C651.22 1027.83 697.028 900.65 702.722 775.011C707.518 668.274 685.831 564.546 630.498 478.513C626.987 473 623.281 467.567 619.444 462.189C586.138 415.269 541.345 374.639 485.645 346.876C432.521 320.341 374.564 304.692 319.148 284.085C202.018 240.427 94.5076 159.167 65.8198 45.9364M629.544 1510.86C576.535 1406.41 589.49 1278.14 618.832 1154.11C648.173 1030.08 693 903.315 699.369 778.008C704.829 670.843 684.843 566.411 630.954 479.243C627.509 473.702 623.906 468.151 620.2 462.718C587.516 415.081 543.068 373.619 486.779 346.099C433.279 319.951 374.655 305.65 318.725 286.021C199.751 244.199 91.0347 162.061 62.8606 47.8517M635.376 1509.59C580.207 1406.95 590.282 1279.5 617.842 1155.98C645.403 1032.46 689.091 906.083 696.096 781.202C702.129 673.57 683.869 568.499 631.425 480.196C628.084 474.536 624.546 468.957 620.879 463.433C588.882 415.05 544.778 372.757 487.863 345.574C433.987 319.81 374.723 306.924 318.252 288.208C197.407 248.156 87.5116 165.205 59.8512 50.0174M641.181 1508.26C583.815 1407.53 591.112 1280.76 616.799 1157.71C642.486 1034.66 685.129 908.72 692.769 784.265C699.44 676.139 682.907 570.429 631.842 481.019C628.566 475.332 625.198 469.606 621.568 463.989C590.259 414.863 546.435 371.764 488.958 344.89C434.706 319.513 374.775 307.974 317.79 290.237C195.037 252.048 83.9998 168.192 56.9185 51.9983M646.986 1506.93C587.395 1408.03 591.877 1282.05 615.69 1159.47C639.504 1036.89 681.074 911.319 689.443 787.328C696.713 678.8 681.945 572.359 632.325 481.814C629.153 476.007 625.85 470.255 622.351 464.583C591.729 414.713 548.25 370.783 490.119 344.179C435.49 319.187 374.92 309.063 317.329 292.266C192.732 255.913 80.4884 171.178 53.9208 54.0061M652.791 1505.59C591.041 1408.51 592.707 1283.32 614.674 1161.27C636.642 1039.23 677.138 914.022 686.143 790.456C694.051 681.434 680.983 574.289 632.77 482.702C629.728 476.841 626.464 470.996 623.003 465.232C593.096 414.683 549.934 369.855 491.176 343.588C436.171 318.982 374.999 310.178 316.83 294.387C190.351 259.963 76.9116 174.192 50.8848 56.1065M658.596 1504.26C594.622 1409.02 593.472 1284.61 613.631 1163.01C633.791 1041.4 673.176 916.659 682.855 793.427C691.428 683.976 680.06 576.127 633.225 483.432C630.222 477.479 627.089 471.579 623.732 465.696C594.512 414.402 551.602 368.705 492.283 342.747C436.902 318.526 375.09 311.136 316.379 296.258C188.057 263.67 73.4115 177.021 47.9907 57.9948M664.428 1502.99C598.294 1409.57 594.264 1285.97 612.615 1164.81C630.966 1043.65 669.305 919.335 679.555 796.555C688.766 686.611 679.124 578.122 633.67 484.32C630.797 478.312 627.702 472.321 624.41 466.41C595.878 414.372 553.312 367.843 493.367 342.221C437.609 318.386 375.158 312.41 315.906 298.445C185.675 267.719 69.8883 180.165 44.9813 60.1606M670.233 1501.66C601.875 1410.07 595.094 1287.23 611.533 1166.63C627.973 1046.04 665.304 922.065 676.19 799.711C686.066 689.337 678.124 580.145 634.114 485.208C631.28 479.108 628.315 473.062 625.127 467.032C597.282 414.25 555.061 366.888 494.463 341.537C438.328 318.088 375.237 313.525 315.379 300.501C183.266 271.704 66.3113 183.178 41.9179 62.1957M676.039 1500.33C605.456 1410.58 595.886 1288.59 610.49 1168.37C625.095 1048.15 661.342 924.702 672.929 802.746C683.443 691.879 677.228 582.047 634.597 486.003C631.894 479.849 628.968 473.711 625.845 467.654C598.687 414.127 556.811 365.934 495.586 340.919C439.14 317.828 375.278 314.733 314.946 302.595C180.95 275.726 62.8272 186.23 39.0129 64.2417M681.909 1498.97C609.167 1411.03 596.781 1289.82 609.512 1170.07C622.243 1050.32 657.51 927.285 669.668 805.782C680.781 694.514 676.331 583.951 635.08 486.799C632.415 480.552 629.619 474.36 626.6 468.183C600.157 413.978 558.506 364.849 496.746 340.208C439.925 317.504 375.423 315.822 314.549 304.598C178.672 279.657 59.4462 189.163 36.0802 66.2227M687.714 1497.63C612.747 1411.54 597.546 1291.11 608.404 1171.83C619.262 1052.55 653.482 929.949 666.314 808.78C678.131 696.99 675.342 585.815 635.536 487.529C633.001 481.228 630.244 474.943 627.329 468.647C601.573 413.697 560.267 363.736 497.918 339.339C440.721 317.02 375.579 316.753 314.165 306.441C176.406 283.429 55.9844 191.899 33.1592 68.0455M693.546 1496.36C616.447 1412.15 598.403 1292.44 607.415 1173.7C616.426 1054.95 649.639 932.691 663.042 811.974C675.523 699.755 674.434 587.876 636.007 488.482C633.576 482.061 630.884 475.75 628.035 469.426C602.966 413.733 562.004 362.939 499.03 338.879C441.428 316.88 375.674 318.092 313.653 308.721C174.013 287.636 52.423 195.135 30.204 70.342M699.351 1495.03C620.028 1412.66 599.168 1293.73 606.372 1175.43C613.575 1057.13 645.677 935.328 659.715 815.037C672.861 702.389 673.472 589.806 636.425 489.304C634.059 482.857 631.444 476.36 628.725 469.983C604.344 413.544 563.699 361.854 500.098 338.13C442.12 316.517 375.726 319.142 313.165 310.684C171.577 291.555 48.8846 198.056 27.1792 72.2844M705.156 1493.7C623.608 1413.17 599.998 1295 605.328 1177.17C610.658 1059.34 641.806 938.004 656.454 818.073C670.238 704.931 672.548 591.644 636.945 490.007C634.684 483.44 632.134 476.917 629.453 470.447C605.759 413.264 565.46 360.742 501.232 337.354C442.943 316.1 375.843 320.166 312.742 312.621C169.299 295.486 45.4111 200.951 24.2194 74.2003M710.962 1492.36C627.254 1413.65 600.763 1296.29 604.247 1178.99C607.73 1061.7 637.871 940.706 653.089 821.228C667.603 707.631 671.548 593.666 637.325 490.922C635.129 484.328 632.748 477.657 630.132 471.16C607.087 413.326 567.078 359.841 502.289 336.763C443.624 315.894 375.885 321.373 312.242 314.742C166.917 299.535 41.8615 204.029 21.2489 76.273M716.767 1491.03C630.834 1414.15 601.593 1297.55 603.203 1180.73C604.814 1063.9 633.908 943.344 649.8 824.199C664.98 710.173 670.624 595.504 637.78 491.652C635.688 484.939 633.372 478.241 630.795 471.652C608.438 413.073 568.877 358.637 503.357 336.014C444.327 315.373 375.899 322.516 311.688 316.733C164.443 303.547 38.2574 206.978 18.1585 78.2429M722.599 1489.76C634.508 1414.7 602.385 1298.91 602.187 1182.53C601.99 1066.14 630.038 946.019 646.501 827.327C662.345 712.872 669.69 597.499 638.29 492.513C636.263 485.772 634.051 478.955 631.578 472.246C609.908 412.923 570.599 357.617 504.518 335.303C445.177 315.021 376.043 323.605 311.292 318.734C162.193 307.542 34.7843 209.872 15.2261 80.2235M728.404 1488.43C638.088 1415.21 603.215 1300.17 601.106 1184.35C598.997 1068.53 626.13 948.787 643.136 830.482C659.711 715.572 668.689 599.521 638.669 493.428C636.746 486.568 634.599 479.723 632.257 472.96C611.274 412.893 572.31 356.755 505.603 334.777C445.885 314.88 376.139 324.944 310.82 320.921C159.865 311.723 31.2617 213.016 12.3097 82.4275M734.209 1487.1C641.668 1415.71 604.007 1301.53 600.062 1186.09C596.118 1070.64 622.417 951.474 639.874 833.518C657.337 718.164 667.792 601.425 639.152 494.223C637.294 487.336 635.251 480.372 632.946 473.517C612.651 412.706 574.032 355.735 506.698 334.094C446.604 314.583 376.218 326.06 310.358 322.95C157.483 315.772 27.7496 216.003 9.31123 84.4357M740.014 1485.76C645.314 1416.19 604.837 1302.79 599.019 1187.82C593.201 1072.85 618.52 954.084 636.548 836.581C654.611 720.825 666.831 603.354 639.57 495.046C637.815 488.039 635.838 481.048 633.637 474.073C614.056 412.583 575.689 354.742 507.767 333.345C447.296 314.219 376.259 327.268 309.831 325.006C155.106 320.203 24.1731 219.016 6.31384 86.4433M745.846 1484.49C648.949 1416.83 605.629 1304.15 597.938 1189.65C590.246 1075.14 614.519 956.814 633.221 839.644C651.921 723.394 665.803 605.312 640.052 495.841C638.428 488.78 636.489 481.697 634.354 474.695C615.46 412.46 577.411 353.722 508.889 332.726C448.042 313.987 376.365 328.449 309.397 327.1C152.828 324.133 20.7536 222.041 3.3427 88.5167M751.651 1483.16C652.595 1417.31 606.459 1305.41 596.922 1191.45C587.384 1077.48 610.557 959.451 629.922 842.772C649.287 726.093 664.868 607.307 640.497 496.729C624.946 426.295 586.955 355.128 509.985 332.043C448.761 313.689 376.445 329.564 308.935 329.129C150.485 328.09 17.2423 225.027 0.345066 90.5246M755.281 1483.42C659.007 1417.26 612.035 1306.86 600.783 1195.59C589.59 1084.83 613.402 970.754 628.178 857.048C631.647 830.113 633.887 802.614 636.988 774.606C641.519 734.519 646.73 694.227 649.458 654.965C652.456 610.995 652.247 567.972 646.435 525.663C645.754 520.508 644.916 515.342 644.012 510.204C635.84 461.828 616.816 412.588 581.334 377.978C564.843 361.84 544.671 348.835 520.406 340.742C495.864 332.533 469.248 329.856 441.587 329.832C400.535 329.843 357.502 335.423 316.184 335.161C281.333 334.977 247.71 329.995 216.542 320.398C180.597 309.258 148.378 292.133 120.76 270.957C90.7841 248.155 65.9399 220.546 47.0577 189.395C28.1102 158.271 15.0323 123.567 8.89133 87.6724M758.846 1483.7C665.391 1417.14 617.573 1308.39 604.606 1199.82C591.794 1092.19 616.154 982.018 626.395 871.417C628.845 844.98 628.891 817.548 631.449 789.152C635.186 748.629 641.793 707.453 646.148 668.051C651.013 624.151 652.898 581.562 649.084 539.267C648.627 534.096 648.039 528.98 647.423 523.798C641.521 475.171 624.682 425.102 590.602 389.069C574.64 372.176 554.878 358.312 530.735 349.402C506.288 340.313 479.346 336.851 451.18 336.347C409.476 335.71 365.485 341.38 323.405 341.128C287.791 340.953 253.434 336.046 221.968 325.73C185.568 313.86 154.064 295.136 127.353 272.819C98.5171 248.702 75.014 220.079 56.6726 188.015C38.3966 155.923 25.0591 120.408 17.3174 84.7171M762.475 1483.96C671.869 1417.06 623.203 1309.96 608.467 1203.97C593.989 1099.7 618.825 993.086 624.677 885.758C626.081 859.755 624.027 832.428 626.014 803.579C628.995 762.527 636.959 720.558 642.969 681.084C649.608 637.214 653.681 595.097 651.929 552.789C651.695 547.603 651.396 542.444 651.031 537.311C647.557 488.443 632.771 437.601 600.093 400.145C584.753 382.534 565.243 367.799 541.222 358.074C516.83 348.196 489.668 343.83 460.958 342.939C418.695 341.691 373.718 347.387 330.746 347.198C294.37 347.033 259.316 342.109 227.448 331.193C190.631 318.5 159.74 298.298 133.973 274.747C106.239 249.408 84.0502 219.704 66.342 186.765C48.6992 153.798 35.1405 117.379 25.8635 81.865M766.105 1484.22C678.346 1416.98 628.806 1311.47 612.328 1208.11C596.194 1107.06 621.415 1003.96 622.933 900.034C623.302 874.306 618.977 847.231 620.513 818.033C622.674 776.479 632.087 733.757 639.725 694.144C648.231 650.342 654.306 608.621 654.644 566.366C654.66 561.229 654.584 556.054 654.508 550.879C653.37 501.732 640.768 450.061 609.453 411.274C594.643 392.908 575.544 377.315 551.578 366.8C527.216 356.068 499.793 350.891 470.513 349.547C427.598 347.65 381.728 353.409 337.836 353.219C300.698 353.063 264.948 348.121 232.744 336.58C195.444 323.091 165.231 301.382 140.408 276.598C113.842 250.01 92.9284 219.318 75.8264 185.438C58.7897 151.532 45.0367 114.274 34.1591 78.9637M769.735 1484.47C684.823 1416.9 634.436 1313.04 616.217 1212.32C598.546 1114.58 623.885 1014.73 621.215 914.376C620.485 888.95 614.047 862.138 615.013 832.487C616.38 790.496 627.15 746.982 636.453 707.138C646.734 663.367 654.996 622.118 657.397 579.851C657.702 574.671 657.849 569.479 657.931 564.315C659.193 514.863 648.645 462.418 618.76 422.273C604.545 403.124 585.79 386.699 561.945 375.369C537.612 363.782 509.996 357.766 480.172 356.035C436.698 353.527 389.777 359.339 345.123 359.159C307.223 359.012 270.738 354.145 238.236 341.885C200.545 327.639 170.918 304.386 147.105 278.341C121.641 250.53 102.041 218.758 85.6379 183.976C69.2345 149.195 55.2603 111.033 42.7819 75.9271M773.366 1484.73C691.301 1416.82 640.094 1314.68 620.078 1216.46C600.779 1122.01 626.209 1025.33 619.471 928.651C617.679 903.436 609.091 876.979 609.513 846.941C610.124 804.42 622.251 760.114 633.275 720.17C645.292 676.523 655.779 635.652 660.178 593.4C660.733 588.269 661.103 583.062 661.473 577.855C665.072 528.124 656.735 474.916 628.186 433.375C614.5 413.471 596.09 396.213 572.367 384.067C548.063 371.626 520.187 364.799 489.858 362.588C445.732 359.432 397.919 365.307 352.372 365.19C313.71 365.054 276.528 360.169 243.69 347.282C205.516 332.241 176.595 307.547 153.698 280.203C129.336 251.17 111.051 218.317 95.2536 182.595C79.4563 146.873 65.2878 107.873 51.2088 72.971M776.996 1484.99C697.779 1416.74 645.79 1316.22 623.967 1220.67C603.131 1129.53 628.283 1035.88 617.754 942.993C614.9 917.988 604.226 891.859 604.077 861.368C603.868 818.345 617.379 773.313 630.096 733.203C643.915 689.651 656.535 649.122 663.024 606.923C663.802 601.776 664.488 596.591 665.081 591.368C671.08 541.332 664.836 487.256 637.677 444.45C624.614 423.829 606.521 405.674 582.854 392.739C558.644 379.416 530.509 371.778 499.636 369.18C454.885 365.44 406.18 371.379 359.751 371.168C320.327 371.041 282.475 366.204 249.274 352.625C210.683 336.762 182.374 310.589 160.449 282.077C137.189 251.821 120.245 217.953 105.054 181.291C89.8625 144.629 75.5 104.791 59.8856 70.065M780.625 1485.24C704.229 1416.59 651.474 1317.93 627.828 1224.81C605.455 1136.99 613.481 1047.29 616.009 957.269C607.519 933.451 599.269 906.7 598.577 875.822C597.639 832.335 612.415 786.472 626.825 746.197C642.417 702.676 657.225 662.619 665.711 620.434C666.713 615.272 667.622 610.071 668.531 604.871C676.958 554.593 672.806 499.651 647.011 455.514C634.542 434.111 616.794 415.124 593.249 401.373C569.095 387.261 540.672 378.746 509.321 375.734C463.946 371.41 414.321 377.348 366.999 377.201C326.748 377.11 288.199 372.255 254.689 358.115C215.643 341.522 187.984 313.777 167.004 284.032C144.846 252.554 129.215 217.605 114.658 180.068C100.165 142.504 85.5157 101.789 68.3007 67.2673M784.19 1485.53C710.641 1416.54 657.132 1319.56 631.651 1229.05C607.835 1144.58 613.839 1058.32 614.189 971.729C604.048 948.365 594.236 921.726 592.973 890.396C591.214 846.407 607.347 799.752 623.477 759.376C640.779 715.913 657.839 676.301 668.388 634.103C669.705 628.963 670.772 623.774 671.904 618.557C682.798 567.947 680.765 512.204 656.268 466.763C644.329 444.604 626.925 424.786 603.501 410.218C579.376 395.252 550.76 385.899 518.838 382.433C472.877 377.434 422.228 383.49 374.079 383.379C333.066 383.298 293.848 378.491 259.974 363.659C220.51 346.243 193.492 317.085 173.428 286.041C152.399 253.406 138.056 217.311 124.169 178.807C110.283 140.302 95.4396 98.749 76.6239 64.431M787.82 1485.79C717.118 1416.46 662.909 1321.31 635.513 1233.19C610.252 1152.08 614.17 1069.29 612.444 986.005C600.681 963.161 589.279 936.568 587.538 904.823C585.051 860.37 602.475 812.95 620.299 772.409C639.402 729.041 658.556 689.863 671.142 647.588C672.682 642.432 674.037 637.199 675.393 631.967C688.688 581.051 688.773 524.506 665.705 477.708C654.361 454.766 637.302 434.115 614 418.732C589.969 402.885 561.028 392.747 528.563 388.894C481.976 383.312 430.407 389.366 381.404 389.226C339.628 389.154 299.714 384.33 265.504 368.872C225.557 350.66 199.152 320.023 180.163 287.691C160.236 253.834 147.234 216.724 133.954 177.279C120.701 137.9 105.636 95.4428 85.2196 61.3287M791.45 1486.04C723.596 1416.38 668.751 1323.02 639.374 1237.33C612.735 1159.55 614.566 1080.23 610.7 1000.28C597.286 977.891 584.321 951.409 582.01 919.211C578.702 874.256 597.483 826.044 617 785.338C637.812 742.028 659.192 703.229 673.868 661.007C675.631 655.835 677.302 650.625 678.881 645.376C694.669 594.193 696.846 536.781 675.077 488.679C664.327 464.955 647.613 443.473 624.367 427.3C600.365 410.599 571.164 399.65 538.194 395.317C490.983 389.152 438.494 395.204 388.598 395.128C346.06 395.065 305.384 390.25 270.903 374.138C230.539 355.105 204.773 323.054 186.729 289.488C167.839 254.436 156.216 216.218 143.569 175.899C130.922 135.579 115.663 92.2836 93.7384 58.4116M795.08 1486.3C730.073 1416.3 663.373 1328.16 643.262 1241.54C625.288 1164.15 614.924 1091.26 608.983 1014.62C593.984 992.659 579.457 966.289 576.537 933.731C572.501 888.312 592.481 839.297 613.783 798.463C636.304 755.21 659.937 716.857 676.61 674.649C678.624 669.526 680.491 664.235 682.385 659.009C700.574 607.52 703.275 549.892 684.465 499.874C675.095 475.042 657.848 453.015 634.75 436.092C610.778 418.536 581.383 406.749 547.869 402.029C500.099 395.252 446.624 401.33 395.901 401.29C352.601 401.237 311.255 396.47 276.411 379.667C235.591 359.903 210.411 326.308 193.377 291.482C175.588 255.207 165.28 215.909 153.266 174.714C141.225 133.454 125.772 89.3202 102.246 55.6521M798.737 1486.62C736.512 1416.31 668.697 1330.47 647.085 1245.78C628.136 1171.39 615.282 1102.29 607.2 1028.99C590.551 1007.48 574.462 981.222 571.036 948.185C566.272 902.302 587.517 852.457 610.512 811.457C634.742 768.262 660.627 730.354 679.363 688.133C681.665 682.968 683.783 677.726 685.9 672.484C706.583 620.727 712.944 561.582 693.863 510.911C684.304 485.622 668.186 462.437 645.21 444.698C621.332 426.261 591.612 413.69 557.593 408.49C509.171 401.064 454.738 407.233 403.187 407.23C359.126 407.186 317.083 402.401 281.903 384.972C240.666 364.385 216.125 329.376 200.008 293.251C183.349 255.819 174.354 215.441 162.919 173.241C151.512 131.106 135.837 86.0683 110.711 52.604M802.367 1486.88C742.989 1416.23 674.086 1332.75 650.974 1249.99C631.022 1178.54 615.64 1113.32 605.482 1043.33C587.183 1022.28 569.532 996.129 565.563 962.704C559.977 916.319 582.579 865.682 607.36 824.555C633.299 781.418 661.436 743.954 682.17 701.748C684.723 696.632 687.063 691.374 689.377 686.051C712.461 633.989 721.006 574.015 703.224 522.04C694.259 495.969 678.486 471.952 655.566 453.424C631.717 434.132 601.803 420.723 567.24 415.136C518.193 407.127 462.868 413.359 410.37 413.289C365.547 413.255 322.769 408.545 287.225 390.423C245.506 369.042 222.428 332.202 206.47 295.168C189.998 256.893 183.232 215.055 172.496 171.953C161.695 128.878 145.891 82.9742 119.099 49.7408M805.997 1487.14C749.44 1416.08 679.661 1335.12 654.835 1254.13C633.816 1185.65 616.037 1124.26 603.738 1057.61C583.789 1037.01 564.641 1010.94 560.036 977.093C553.722 930.244 577.523 878.803 604.089 837.549C631.803 794.442 662.1 757.385 684.924 715.232C687.699 710.1 690.329 704.8 692.892 699.526C718.47 647.196 729.107 586.355 712.623 533.077C704.319 506.196 688.76 481.402 665.961 462.058C642.206 441.884 611.994 427.756 576.899 421.624C527.228 413.032 470.983 419.262 417.657 419.228C372.072 419.204 328.597 414.476 292.718 395.728C250.607 373.589 227.293 335.622 213.102 296.938C198.581 257.088 192.28 214.522 182.177 170.545C172.074 126.567 155.984 79.7876 127.657 46.7309M809.561 1487.42C755.852 1416.03 698.386 1331.87 658.658 1258.36C625.8 1197.55 616.329 1135.32 601.982 1072.04C580.448 1051.87 559.672 1025.94 554.524 991.705C547.454 944.326 572.547 892.121 600.806 850.702C630.229 807.652 662.713 771.067 687.6 728.902C690.664 723.727 693.478 718.503 696.331 713.186C724.402 660.589 737.104 598.816 721.945 544.299C714.235 516.635 699.021 491.009 676.344 470.849C652.618 449.822 622.147 434.882 586.508 428.362C536.212 419.187 478.981 425.442 424.829 425.445C378.481 425.43 334.31 420.685 298.094 401.31C255.567 378.349 232.799 338.93 219.71 299.023C206.226 257.979 201.332 214.37 191.808 169.387C182.311 124.47 166.027 76.8514 136.099 43.9986M813.191 1487.68C762.329 1415.95 704.478 1333.64 662.519 1262.51C628.598 1205.04 616.725 1146.26 600.238 1086.32C577.054 1066.6 554.715 1040.78 549.061 1006.07C541.263 958.224 567.555 905.216 597.6 863.669C628.732 820.677 663.469 784.537 690.418 742.359C693.733 737.234 696.809 731.901 699.911 726.634C730.476 673.769 745.335 611.102 731.409 555.309C724.294 526.863 709.398 500.339 686.804 479.456C663.172 457.547 632.441 441.796 596.232 434.823C545.376 425.037 487.161 431.318 432.154 431.293C385.044 431.287 340.138 426.616 303.624 406.523C260.614 382.766 238.486 341.934 226.38 300.701C213.96 258.526 210.417 213.745 201.527 167.887C192.636 122.029 176.158 73.5726 144.629 40.9236M816.821 1487.93C768.807 1415.87 710.729 1335.41 666.408 1266.72C631.49 1212.58 617.083 1157.29 598.521 1100.66C573.713 1081.46 549.785 1055.69 543.588 1020.59C534.969 972.241 562.591 918.375 594.384 876.794C627.197 833.794 664.213 798.165 693.161 756.001C696.698 750.86 700.024 745.576 703.35 740.293C736.408 687.161 753.36 623.627 740.731 566.531C734.277 537.275 719.66 509.947 697.122 488.274C673.519 465.511 642.529 448.949 605.842 441.562C554.361 431.192 495.226 437.471 439.325 437.509C391.388 437.54 345.851 432.825 309.028 412.171C265.628 387.657 244.02 345.307 232.924 302.814C221.606 259.417 219.377 213.555 211.12 166.822C202.862 120.089 186.163 70.7287 153.033 38.2835M820.452 1488.19C775.284 1415.79 716.952 1337.12 670.269 1270.86C634.511 1220.05 617.479 1168.23 596.776 1114.94C570.319 1096.19 544.894 1070.51 538.061 1034.97C528.713 986.166 557.6 931.47 591.085 889.723C625.542 846.808 664.85 811.531 695.887 769.42C699.648 764.263 703.289 759.002 706.811 753.637C742.362 700.238 761.472 635.81 750.076 577.437C744.217 547.399 729.944 519.238 707.528 496.75C684.019 473.105 652.704 455.759 615.539 447.957C563.406 436.939 503.378 443.282 446.65 443.356C397.951 443.397 351.744 438.729 314.493 417.41C270.61 392.101 249.615 348.272 239.528 304.518C229.247 259.926 228.425 213.022 220.839 165.322C213.187 117.648 196.294 67.4496 161.629 35.1811M824.082 1488.45C781.762 1415.71 723.306 1338.78 674.131 1275C637.506 1227.46 617.81 1179.19 595.032 1129.21C566.99 1110.89 539.937 1085.35 532.626 1049.4C522.523 1000.06 552.609 944.564 587.907 902.755C624.073 859.898 665.633 825.066 698.667 782.97C702.744 777.835 706.582 772.493 710.354 767.178C748.399 713.511 769.6 648.216 759.502 588.539C754.303 557.691 740.31 528.726 717.95 505.448C694.47 480.95 662.988 462.83 625.225 454.511C572.468 442.909 511.454 449.277 453.872 449.323C404.411 449.373 357.442 444.715 319.92 422.742C275.619 396.611 255.199 351.395 246.094 306.315C236.85 260.528 237.407 212.516 230.427 163.875C223.382 115.262 206.294 64.2248 170.029 32.1601M827.711 1488.71C788.239 1415.63 729.725 1340.4 678.019 1279.21C640.566 1234.85 618.233 1190.2 593.315 1143.55C563.622 1125.69 535.072 1100.23 527.125 1063.86C516.294 1014.05 547.644 957.724 584.728 915.788C622.576 872.923 666.35 838.628 701.513 796.492C705.813 791.342 709.901 786.049 713.961 780.691C754.434 726.784 777.858 660.568 768.993 599.615C764.416 568.05 750.648 538.149 728.436 514.12C705.051 488.74 673.244 469.837 635.003 461.102C581.621 448.918 519.688 455.284 461.213 455.393C410.99 455.453 363.351 450.843 325.466 428.178C280.709 401.316 260.874 354.557 252.872 308.254C244.664 261.271 246.601 212.152 240.254 162.637C233.908 113.121 216.533 61.2075 178.667 29.3466M831.342 1488.96C794.689 1415.48 736.249 1341.91 681.881 1283.35C643.691 1242.21 618.565 1201.16 591.571 1157.83C560.228 1140.42 530.115 1115.07 521.625 1078.31C510.038 1027.98 542.587 970.846 581.457 928.782C620.987 885.909 667.04 852.125 704.201 810.004C708.724 804.837 713.127 799.567 717.346 794.22C760.312 740.045 785.828 672.963 778.262 610.706C774.345 578.331 760.856 547.625 738.765 522.781C715.41 496.547 683.342 476.831 644.531 467.645C590.524 454.876 527.698 461.306 468.369 461.387C417.384 461.456 369.048 456.828 330.827 433.537C285.653 405.853 266.393 357.707 259.373 310.078C252.201 261.9 255.545 211.739 249.804 161.283C244.064 110.827 226.495 58.0749 187.056 26.4832M834.906 1489.25C801.101 1415.43 742.744 1343.36 685.703 1287.59C646.816 1249.56 618.922 1212.19 589.815 1172.26C556.822 1155.3 525.147 1130.07 516.086 1092.86C503.706 1042.09 537.584 984.098 578.174 941.934C619.413 899.119 667.692 865.714 706.943 823.646C711.716 818.529 716.316 813.177 720.823 807.787C766.31 753.41 793.956 685.369 787.622 621.835C784.3 588.678 771.156 557.14 749.121 531.507C725.86 504.391 693.495 483.957 654.178 474.291C599.574 461.004 535.736 467.394 475.552 467.446C423.804 467.525 374.707 462.906 336.215 438.962C290.558 410.482 271.91 360.857 265.9 311.968C259.766 262.594 264.488 211.325 259.381 159.995C254.274 108.664 236.484 55.008 195.509 23.593M838.536 1489.5C807.579 1415.35 749.41 1344.65 689.565 1291.73C650.018 1256.74 619.254 1223.16 588.071 1186.54C553.493 1170.01 520.321 1144.85 510.651 1107.28C497.673 1056 532.593 997.193 574.969 954.902C617.89 912.078 668.448 879.184 709.696 837.13C714.758 831.97 719.608 826.668 724.339 821.262C772.319 766.617 802.149 697.747 797.021 632.872C794.36 598.905 781.495 566.563 759.582 540.113C736.349 512.143 703.725 490.898 663.903 480.752C608.674 466.882 543.916 473.27 482.904 473.359C430.395 473.446 380.628 468.876 341.772 444.24C295.725 415.003 277.598 363.86 272.597 313.711C267.526 263.207 273.667 210.738 269.166 158.467C264.665 106.196 246.681 51.7018 204.105 20.4907M842.166 1489.76C813.99 1415.29 756.112 1345.86 693.453 1295.94C653.22 1263.91 619.676 1234.16 586.287 1200.91C550.086 1184.9 515.325 1159.79 505.085 1121.76C491.286 1069.98 527.536 1010.31 571.659 967.989C616.261 925.157 669.099 892.773 712.41 850.707C717.723 845.596 722.796 840.278 727.815 834.829C778.289 779.918 810.276 710.154 806.381 644.002C804.342 609.318 791.794 576.078 769.937 548.84C746.799 519.988 713.915 497.932 673.55 487.398C617.696 472.944 552.018 479.331 490.114 479.483C436.842 479.581 386.379 474.992 347.122 449.757C300.592 419.725 283.077 367.103 279.113 315.758C275.052 263.994 282.626 210.548 278.731 157.337C274.836 104.126 256.658 48.793 212.481 17.7857M845.796 1490.02C820.468 1415.21 762.893 1346.88 697.315 1300.08C656.433 1270.92 624.26 1239.31 584.544 1215.18C549.54 1193.93 510.369 1174.63 499.585 1136.22C485.057 1083.97 522.48 1023.44 568.415 981.048C614.727 938.274 669.79 906.27 715.126 864.284C720.661 859.157 726.023 853.796 731.227 848.424C784.221 793.31 818.339 722.586 815.677 655.158C814.298 619.664 802.068 585.527 780.229 557.592C757.185 527.859 724.003 505.084 683.105 494.005C626.627 478.968 560.029 485.353 497.232 485.569C443.198 485.676 392 481.162 352.445 455.208C305.498 424.354 288.53 370.28 285.576 317.674C282.617 264.688 291.505 210.162 288.243 156.076C284.982 101.989 266.582 45.7527 220.805 14.9493M849.426 1490.27C826.946 1415.13 769.592 1347.7 701.176 1304.22C659.684 1277.85 623.446 1251.21 582.799 1229.46C545.512 1209.53 505.477 1189.44 494.123 1150.58C478.84 1097.8 517.554 1036.5 565.182 993.95C613.176 951.169 670.453 919.701 717.917 877.676C723.676 872.533 729.288 867.221 734.78 861.806C790.268 806.425 826.478 734.834 825.114 666.103C824.395 629.799 812.379 594.884 790.727 566.106C767.778 535.492 734.27 511.933 692.895 500.439C635.792 484.819 568.208 491.229 504.622 491.389C449.827 491.505 397.931 486.974 358.068 460.459C310.665 428.874 294.31 373.322 292.403 319.363C290.481 265.182 300.748 209.548 298.093 154.521C295.437 99.4947 276.843 42.4197 229.531 11.793M853.056 1490.53C833.396 1414.99 776.394 1348.4 705.065 1308.43C662.87 1284.8 622.778 1263.28 581.082 1243.8C541.5 1225.36 500.547 1204.35 488.649 1165.1C472.638 1111.85 512.524 1049.69 561.965 1007.07C611.641 964.286 671.198 933.329 720.659 891.318C726.734 886.197 732.569 880.87 738.258 875.373C796.201 819.817 834.633 747.306 834.54 677.205C834.443 640.184 822.745 604.372 801.149 574.805C778.228 543.337 744.527 518.939 702.542 507.085C644.853 490.789 576.311 497.29 511.832 497.514C456.275 497.639 403.683 493.091 363.483 465.949C315.663 433.542 299.855 376.537 298.958 321.318C298.072 265.941 309.746 209.265 307.697 153.298C305.648 97.3312 286.859 39.4178 237.946 8.99489M856.713 1490.85C839.9 1414.97 783.169 1349.04 708.953 1312.64C666.068 1291.59 622.323 1275.49 579.365 1258.14C537.608 1241.29 495.618 1219.26 483.149 1179.55C466.317 1125.81 507.413 1062.68 558.786 1020.11C610.09 977.18 671.981 946.864 723.505 904.84C729.803 899.704 735.953 894.399 741.865 888.886C802.421 833.166 842.891 759.657 844.031 688.28C844.595 650.45 833.176 613.833 811.635 583.477C788.81 551.127 754.783 525.945 712.293 513.611C653.979 496.732 584.545 503.297 519.212 503.491C462.854 503.719 409.565 499.153 369.067 471.292C320.764 438.09 305.477 379.568 305.682 323.126C305.768 266.581 318.886 208.77 317.536 151.902C316.185 95.0326 297.175 36.2155 246.596 6.02347M860.278 1491.14C846.312 1414.92 789.77 1349.45 712.776 1316.88C669.134 1298.43 621.987 1287.8 577.582 1272.51C533.639 1257.41 490.622 1234.19 477.61 1194.1C460.049 1139.89 502.41 1075.93 555.477 1033.19C608.489 990.324 672.605 960.388 726.155 918.444C732.675 913.292 739.049 907.971 745.277 902.481C808.261 846.52 851.046 772.129 853.326 699.437C854.577 660.862 843.41 623.375 821.991 592.203C799.195 558.999 764.909 533.005 721.941 520.258C663.002 502.795 592.648 509.358 526.394 509.551C469.275 509.788 415.289 505.204 374.39 476.744C325.696 442.784 310.957 382.811 312.171 325.108C313.294 267.368 327.792 208.45 327.074 150.706C326.329 92.8966 307.126 33.2411 254.946 3.25293M863.908 1491.4C852.79 1414.84 796.449 1349.67 716.637 1321.02C672.119 1305.08 621.874 1300.1 575.864 1286.85C529.855 1273.6 485.758 1249.07 472.202 1208.59C453.886 1153.85 497.538 1089.13 552.325 1046.29C607.112 1003.45 673.415 973.989 729.027 932.032C805.121 874.621 858.908 791.843 862.752 710.539C866.596 629.235 816.066 552.391 731.627 526.811C620.702 493.139 468.864 545.028 379.909 482.114C330.733 447.359 316.671 385.879 318.83 326.944C321.054 267.981 336.893 208.047 336.755 149.298C336.616 90.5485 317.218 30.0547 263.503 0.243213" stroke="url(#paint0_linear_1556_3868)" stroke-width="0.5" stroke-miterlimit="10"/>
<defs>
<linearGradient id="paint0_linear_1556_3868" x1="587.149" y1="1308.13" x2="45.1812" y2="15.3232" gradientUnits="userSpaceOnUse">
<stop stop-color="#2973FF"/>
<stop offset="0.48974" stop-color="#8846D3" stop-opacity="0.12"/>
<stop offset="1" stop-color="#FF22AC" stop-opacity="0.11"/>
</linearGradient>
</defs>
</svg>
