<svg width="486" height="927" viewBox="0 0 486 927" fill="none" xmlns="http://www.w3.org/2000/svg">
<path d="M-376.613 753.351C-308.871 700.023 -212.913 687.839 -119.58 681.924C-26.2463 676.009 70.6113 674.496 150.903 638.239C218.575 607.665 271.113 552.595 298.414 483.549C326.544 412.437 327.896 329.604 337.01 250.482C346.125 171.36 365.286 90.9497 420.996 41.0745M-374.176 756.59C-308.16 702.422 -213.504 688.672 -120.98 681.791C-28.4557 674.909 67.8759 672.831 148.044 637.055C212.161 608.55 263.282 559.035 292.83 496.298C294.698 492.298 296.498 488.3 298.193 484.202C312.974 448.661 320.959 409.928 325.606 369.888C330.236 330.496 331.777 290.231 335.553 250.759C342.981 170.966 362.389 89.5959 418.884 39.8021M-371.772 759.864C-307.516 704.824 -214.093 689.574 -122.38 681.658C-30.6666 673.742 65.1058 671.134 145.186 635.871C209.753 607.661 261.783 559.007 292.401 496.821C294.339 492.887 296.207 488.886 297.97 484.787C313.404 449.467 322.035 410.683 326.266 370.382C330.552 330.862 331.173 290.588 334.096 251.036C340.043 170.636 359.525 88.2075 416.737 38.4969M-369.335 763.103C-306.84 707.19 -214.684 690.407 -123.782 681.457C-32.8797 672.506 62.3335 669.368 142.36 634.651C207.378 606.736 260.317 558.944 292.04 497.341C294.046 493.405 296.017 489.436 297.85 485.403C313.937 450.304 323.146 411.471 327.063 370.871C331.005 331.224 330.638 290.943 332.775 251.309C337.138 170.27 356.764 86.8502 414.727 37.1877M-366.898 766.342C-306.161 709.624 -215.239 691.273 -125.182 681.323C-35.1241 671.374 59.4895 667.468 139.501 633.467C204.931 605.677 258.817 558.915 291.612 497.863C293.687 493.994 295.727 490.023 297.629 486.056C314.336 451.213 324.191 412.329 327.76 371.466C331.358 331.692 330.003 291.402 331.355 251.688C334.134 170.009 353.903 85.5976 412.619 36.0515M-364.461 769.581C-305.485 711.99 -215.83 692.106 -126.548 681.155C-37.267 670.205 56.7856 665.701 136.744 632.246C202.623 604.682 257.453 558.815 291.284 498.349C293.463 494.511 295.537 490.573 297.508 486.604C314.868 451.983 325.232 413.051 328.521 371.923C331.707 332.023 329.365 291.726 329.964 251.895C331.159 169.577 351.072 84.1744 410.538 34.6764M-362.057 772.855C-304.806 714.424 -216.419 693.007 -127.949 681.022C-39.4783 669.037 53.9802 663.97 133.885 631.062C200.213 603.724 255.953 558.787 290.855 498.871C293.069 495.066 295.246 491.16 297.32 487.222C315.333 452.822 326.31 413.874 329.25 372.414C332.092 332.388 328.761 292.082 328.575 252.17C328.153 169.248 348.243 82.8188 408.459 33.3691M-359.62 776.094C-304.13 716.79 -217.01 693.84 -129.384 680.856C-41.7574 667.871 51.175 662.239 130.991 629.844C197.735 602.768 254.419 558.725 290.427 499.394C292.743 495.62 294.955 491.746 297.064 487.842C315.73 453.663 327.285 414.665 329.877 372.943C332.342 332.824 328.056 292.476 327.051 252.517C325.011 168.923 345.314 81.5684 406.281 32.1669M-357.183 779.333C-303.453 719.156 -217.599 694.741 -130.751 680.688C-43.9025 666.634 48.4707 660.472 128.2 628.658C195.428 601.842 252.987 558.695 290.066 499.914C292.418 496.173 294.733 492.331 296.945 488.458C316.264 454.5 328.464 415.451 330.673 373.432C332.794 333.186 327.486 292.797 325.73 252.79C322.071 168.524 342.586 80.1759 404.271 30.8576M-354.746 782.572C-302.742 721.556 -218.189 695.574 -132.117 680.52C-46.0454 665.465 45.6987 658.706 125.375 627.439C193.052 600.849 251.521 558.632 289.67 500.401C292.125 496.692 294.475 492.883 296.755 489.008C316.694 455.306 329.54 416.206 331.367 373.891C333.144 333.518 326.815 293.156 324.272 253C318.96 168.095 339.687 78.7543 402.124 29.5522M-352.309 785.811C-302.065 723.922 -218.745 696.441 -133.519 680.319C-48.2931 664.196 42.9267 656.941 122.583 626.185C190.71 599.889 250.088 558.534 289.343 500.887C291.833 497.211 294.286 493.433 296.636 489.624C317.193 456.11 330.652 416.994 332.164 374.381C333.596 333.881 326.244 293.477 322.951 253.273C315.987 167.732 336.926 77.3973 400.114 28.2434M-349.905 789.085C-301.386 726.356 -219.369 697.309 -134.952 680.22C-50.5358 663.132 40.1231 655.278 119.691 625.035C188.267 598.966 248.521 558.507 288.881 501.444C291.474 497.799 293.962 494.055 296.38 490.244C317.59 456.951 331.661 417.819 332.791 374.909C333.879 334.282 325.471 293.872 321.46 253.585C312.878 167.371 333.995 76.0784 397.934 26.9727M-347.468 792.324C-300.743 728.757 -219.925 698.175 -136.319 680.052C-52.7138 661.929 37.3858 653.545 116.865 623.816C185.925 598.007 247.054 558.444 288.485 501.931C291.113 498.319 293.739 494.639 296.225 490.827C318.088 457.755 332.737 418.573 333.519 375.4C334.264 334.646 324.833 294.196 320.071 253.86C309.802 166.976 331.166 74.7229 395.89 25.6985M-345.031 795.563C-300.066 731.124 -220.515 699.008 -137.721 679.851C-54.9267 660.694 34.6469 651.745 114.039 622.596C183.515 597.049 245.588 558.381 288.125 502.452C290.855 498.871 293.516 495.224 296.072 491.478C318.589 458.627 333.85 419.43 334.283 375.925C334.683 335.044 324.196 294.587 318.682 254.136C306.761 166.614 328.337 73.3675 393.811 24.3914M-342.594 798.803C-299.355 733.523 -221.071 699.874 -139.121 679.718C-57.171 659.561 31.8766 650.047 111.181 621.412C181.14 596.124 244.122 558.317 287.696 502.974C290.497 499.46 293.225 495.811 295.85 492.063C318.986 459.468 334.893 420.219 334.943 376.418C335 335.41 323.525 294.946 317.225 254.413C303.584 166.255 325.472 71.979 391.665 23.086M-340.157 802.042C-298.678 735.889 -221.661 700.707 -140.488 679.55C-59.314 658.392 29.1395 648.315 108.423 620.191C178.833 595.198 242.724 558.252 287.368 503.46C290.237 499.944 293.036 496.361 295.763 492.645C319.552 460.271 336.071 420.938 335.773 376.873C335.485 335.738 322.955 295.268 315.937 254.651C300.644 165.857 322.744 70.587 389.689 21.8103M-337.753 805.316C-298 738.323 -222.285 701.575 -141.888 679.416C-61.4903 657.257 26.404 646.65 105.564 619.007C176.458 594.273 241.224 558.224 286.94 503.982C289.878 500.532 292.745 496.948 295.507 493.264C319.95 461.112 337.08 421.762 336.4 377.401C335.768 336.139 322.182 295.663 314.447 254.963C297.467 165.498 319.814 69.2681 387.509 20.5396M-335.316 808.555C-297.323 740.689 -222.841 702.441 -143.323 679.25C-63.8046 656.059 23.5986 644.919 102.671 617.789C174.015 593.35 239.69 558.162 286.511 504.504C289.517 501.052 292.454 497.534 295.319 493.882C320.415 461.951 338.158 422.585 337.128 377.893C336.153 336.503 321.51 296.021 313.023 255.205C294.323 165.105 316.95 67.8794 385.395 19.1992M-332.878 811.794C-296.646 743.056 -223.465 703.31 -144.69 679.082C-65.9143 654.855 20.8617 643.187 99.8802 616.603C171.709 592.424 238.259 558.132 286.15 505.025C289.227 501.639 292.232 498.12 295.132 494.501C320.88 462.79 339.236 423.408 337.824 378.42C336.539 336.936 320.771 296.381 311.601 255.516C291.181 164.779 314.087 66.5592 383.319 17.9602M-330.407 815.066C-295.9 745.488 -223.986 704.209 -146.022 678.947C-68.0575 653.685 18.1942 641.521 97.0894 615.417C169.334 591.499 236.827 558.102 285.789 505.545C288.934 502.158 292.009 498.704 295.012 495.117C321.38 463.662 340.38 424.161 338.587 378.944C336.958 337.334 320.134 296.773 310.247 255.824C288.107 164.452 311.328 65.2699 381.275 16.6861M-327.969 818.305C-295.223 747.854 -224.576 705.042 -147.423 678.746C-70.2703 652.45 15.4222 639.755 94.2971 614.163C167.06 590.537 235.395 558.004 285.462 506.031C288.677 502.71 291.819 499.255 294.926 495.698C321.947 464.465 341.56 424.947 339.452 379.432C337.479 337.694 319.599 297.128 308.994 256.096C285.134 164.088 308.668 63.876 379.333 15.3753M-325.566 821.579C-294.578 750.324 -225.165 705.943 -148.857 678.648C-72.5478 651.352 12.6536 638.125 91.4051 613.013C164.619 589.682 233.862 558.01 285 506.588C288.318 503.298 291.495 499.876 294.636 496.353C322.311 465.34 342.536 425.807 340.046 379.995C337.762 338.096 318.793 297.558 307.436 256.409C281.856 163.766 305.669 62.559 377.086 14.1746M-323.128 824.818C-293.901 752.69 -225.756 706.776 -150.223 678.48C-74.6908 650.183 9.91649 636.393 88.5796 611.794C162.244 588.758 232.396 557.947 284.605 507.075C287.957 503.819 291.271 500.393 294.482 496.936C322.81 466.145 343.681 426.56 340.807 380.452C338.18 338.425 318.154 297.881 306.08 256.65C278.745 163.338 302.873 61.1687 375.041 12.8325M-320.691 828.057C-293.225 755.056 -226.312 707.642 -151.59 678.311C-76.8691 648.98 7.18086 634.728 85.7887 610.608C159.937 587.831 230.997 557.882 284.312 507.593C287.767 504.368 291.116 500.976 294.395 497.517C323.376 466.947 344.859 427.346 341.604 380.942C338.667 338.821 317.551 298.238 304.759 256.923C275.67 163.011 300.112 59.8114 373.03 11.5234M-318.254 831.296C-292.513 757.455 -226.902 708.476 -153.025 678.145C-79.148 647.815 4.41081 633.031 82.8953 609.39C157.529 586.941 229.463 557.821 283.848 508.083C287.339 504.891 290.826 501.563 294.14 498.137C323.705 467.79 345.868 428.103 342.264 381.435C338.984 339.187 316.811 298.598 303.302 257.2C272.494 162.652 297.215 58.4578 370.919 10.2512M-315.817 834.535C-291.837 759.821 -227.458 709.342 -154.392 677.977C-81.3261 646.612 1.67351 631.298 80.1377 608.169C155.222 586.015 228.065 557.755 283.521 508.568C287.114 505.408 290.636 502.113 294.018 498.685C324.237 468.559 347.115 428.887 343.026 381.892C339.503 339.48 316.105 298.923 301.911 257.407C269.314 162.226 294.384 57.0343 368.838 8.87586M-313.413 837.81C-291.158 762.256 -228.082 710.21 -155.792 677.844C-83.5021 645.478 -1.06173 629.634 77.2791 606.985C152.814 585.125 226.566 557.727 283.127 509.124C286.755 505.996 290.38 502.733 293.865 499.337C324.737 469.431 348.226 429.675 343.789 382.417C339.957 339.911 315.468 299.315 300.557 257.716C266.207 161.934 291.623 55.6771 366.794 7.6018M-310.976 841.049C-290.481 764.622 -228.638 711.076 -157.227 677.678C-85.8163 644.279 -3.86513 627.971 74.3855 605.767C150.406 584.235 225.031 557.666 282.663 509.613C286.395 506.517 290.054 503.286 293.609 499.956C325.134 470.272 349.236 430.5 344.417 382.945C340.24 340.312 314.662 299.745 299.067 258.028C262.964 161.645 288.692 54.3585 364.616 6.39951M-308.539 844.287C-289.805 766.988 -229.262 711.944 -158.594 677.509C-87.9265 643.075 -6.56402 626.408 71.5946 604.581C148.138 583.478 223.6 557.635 282.302 510.133C286.069 507.07 289.832 503.871 293.454 500.539C325.632 471.076 350.347 431.287 345.145 383.436C340.625 340.676 313.99 300.103 297.677 258.303C259.787 161.286 285.863 53.0028 362.537 5.09202M-306.102 847.527C-289.093 769.387 -229.817 712.81 -159.961 677.341C-90.1043 641.873 -9.26604 624.709 68.7692 603.362C145.728 582.52 222.134 557.572 281.907 510.621C285.776 507.589 289.574 504.423 293.3 501.123C326.098 471.916 351.423 432.042 345.907 383.893C341.042 341.006 313.251 300.464 296.254 258.545C256.374 161.036 282.999 51.6145 360.459 3.78502M-303.698 850.801C-288.483 771.823 -230.441 713.678 -161.396 677.175C-92.3506 640.672 -12.0715 622.978 65.9434 602.142C143.386 581.56 220.633 557.476 281.546 511.141C285.485 508.176 289.351 505.008 293.112 501.74C326.563 472.755 352.534 432.83 346.602 384.42C341.393 341.405 312.546 300.857 294.831 258.855C253.3 160.709 280.171 50.3269 358.347 2.51255M-301.261 854.04C-287.771 774.223 -230.997 714.544 -162.796 677.042C-94.5947 639.539 -14.8086 621.245 63.0848 600.958C140.978 580.671 219.133 557.447 281.118 511.663C320.592 482.484 354.305 439.152 347.33 384.911C341.778 341.77 311.875 301.215 293.442 259.131C250.191 160.349 277.342 48.9716 356.269 1.20546M-300.415 856.367C-285.962 778.194 -230.348 718.41 -164.301 680.59C-98.5561 642.948 -21.046 626.145 53.7276 603.829C71.4321 598.523 89.146 592.297 107.415 586.465C133.589 578.176 160.078 570.253 185.24 561.071C213.402 550.754 240.087 538.704 264.777 523.37C267.793 521.519 270.772 519.567 273.715 517.582C301.522 499.099 326.859 473.633 338.543 441.989C344.006 427.266 346.502 411.125 344.81 393.799C343.113 376.27 337.404 358.983 329.756 341.782C318.376 316.267 302.985 291.063 291.701 265.307C282.16 243.592 275.942 221.313 273.273 199.279C270.24 173.85 271.959 149.077 277.471 126.043C283.34 101.093 293.619 78.001 307.751 57.6336C321.849 37.2331 339.798 19.4892 360.409 5.72771M-299.604 858.662C-284.119 782.13 -229.767 722.277 -165.875 684.14C-102.518 646.357 -27.2855 630.976 44.302 606.701C61.4142 600.9 78.4789 593.329 96.8385 587.052C123.063 578.149 150.489 570.848 176.188 562.639C204.825 553.501 231.821 542.874 257.055 528.786C260.142 527.069 263.159 525.286 266.21 523.468C294.802 506.328 321.26 481.989 334.216 450.822C340.296 436.22 343.439 420.095 342.288 402.619C341.165 384.904 335.853 367.198 328.363 349.55C317.206 323.45 301.494 297.676 289.993 271.449C280.235 249.263 273.767 226.547 271.462 204.129C268.756 178.214 271.667 153.444 278.139 130.658C285.142 106.052 296.423 83.512 311.273 63.2278C326.158 42.9767 344.54 24.8467 364.581 10.1467M-298.758 860.989C-282.275 786.134 -229.185 726.212 -167.38 687.688C-106.58 649.802 -33.4255 635.703 34.9116 609.607C51.4646 603.276 67.8819 594.428 86.3649 587.671C112.709 578.151 141.004 571.474 167.206 564.274C196.315 556.247 223.624 547.111 249.437 534.301C252.596 532.719 255.72 531.103 258.81 529.454C288.224 513.757 315.732 490.48 329.961 459.79C336.659 445.376 340.413 429.167 339.803 411.54C339.186 393.642 334.375 375.548 326.975 357.454C316.042 330.838 300.041 304.458 288.253 277.694C278.278 255.037 271.628 231.883 269.584 209.049C267.274 182.647 271.274 157.848 278.775 135.307C286.843 111.047 299.16 89.025 314.729 68.892C330.333 48.7921 349.216 30.2742 368.721 14.6689M-297.913 863.317C-280.43 790.138 -228.569 730.113 -168.886 691.235C-110.542 653.211 -39.4661 640.325 25.5542 612.477C41.6492 605.579 57.2812 595.39 75.8562 588.256C102.285 578.087 131.45 572.102 158.189 565.875C187.773 559.028 215.39 551.246 241.75 539.75C244.948 538.337 248.143 536.856 251.339 535.374C281.574 521.051 310.202 498.903 325.637 468.692C332.95 454.398 337.352 438.205 337.248 420.395C337.17 402.278 332.791 383.798 325.514 365.225C314.804 338.023 298.516 311.106 286.475 283.769C276.283 260.641 269.451 237.049 267.703 213.833C265.754 186.911 270.878 162.116 279.407 139.82C288.575 115.94 301.859 94.4368 318.181 74.4201C334.538 54.4365 353.887 35.5656 372.823 19.0216M-297.067 865.645C-278.586 794.142 -227.987 734.048 -170.425 694.818C-114.568 656.758 -45.4754 644.844 16.1638 615.383C31.7659 607.885 46.6493 596.455 65.3477 588.841C91.8286 578.057 121.861 572.697 149.206 567.442C179.262 561.706 207.192 555.414 234.131 545.197C237.435 543.951 240.703 542.605 243.935 541.225C275.025 528.309 304.703 507.223 321.378 477.524C329.343 463.383 334.357 447.174 334.794 429.213C335.255 410.878 331.343 392.045 324.157 373.026C313.672 345.308 297.06 317.752 284.801 289.944C274.393 266.345 267.31 242.317 265.927 218.717C264.34 191.342 270.587 166.483 280.179 144.465C290.412 120.932 304.732 99.9464 321.808 80.114C338.884 60.2817 358.734 41.0228 377.099 23.5404M-296.221 867.972C-276.741 798.146 -227.437 738.019 -171.93 698.367C-118.562 660.202 -51.42 649.225 6.80676 618.254C21.984 610.154 36.0508 597.486 54.8393 589.426C81.4399 578.027 112.341 573.29 140.224 569.077C170.685 564.454 198.995 559.65 226.479 550.679C229.822 549.603 233.161 548.39 236.5 547.178C268.41 535.637 299.176 515.714 317.088 486.459C325.669 472.438 331.296 456.213 332.274 438.102C333.275 419.547 329.795 400.328 322.767 380.862C312.504 352.559 295.606 324.466 283.06 296.121C272.434 272.051 265.17 247.585 264.083 223.602C262.857 195.707 270.194 170.887 280.848 149.08C292.146 125.893 307.502 105.425 325.33 85.7086C343.159 65.9925 363.476 46.3806 381.271 27.9596M-295.375 870.3C-274.896 802.15 -226.82 741.987 -173.469 701.95C-122.588 663.748 -57.4036 653.437 -2.58375 621.16C12.1686 612.458 25.4537 598.584 44.3656 590.045C71.0509 577.995 102.787 573.918 131.242 570.711C162.143 567.235 190.832 563.852 218.861 556.194C222.276 555.252 225.689 554.242 229.1 553.164C261.865 543.031 293.749 524.168 312.833 495.427C322.032 481.594 328.305 465.318 329.789 447.023C331.363 428.283 328.316 408.678 321.378 388.767C311.305 359.914 294.12 331.283 281.389 302.364C270.546 277.823 263.066 252.954 262.309 228.554C261.478 200.171 269.905 175.323 281.554 153.795C293.917 130.954 310.275 111.039 328.856 91.4391C347.437 71.8393 368.222 51.8745 385.482 32.5481M-294.529 872.627C-273.019 806.119 -226.304 745.992 -174.974 705.497C-126.581 667.26 -68.601 647.399 -11.9411 624.03C0.51211 612.154 14.8548 599.615 33.857 590.63C60.6288 577.999 93.231 574.478 122.258 572.278C153.632 569.913 182.633 568.02 211.207 561.608C214.693 560.801 218.178 559.925 221.662 559.049C255.25 550.359 288.252 532.556 308.541 504.294C318.392 490.614 325.277 474.321 327.302 455.876C329.382 436.952 326.801 416.926 319.988 396.603C310.105 367.2 292.665 337.997 279.647 308.541C268.552 283.495 260.891 258.189 260.396 233.441C259.893 204.572 269.477 179.694 282.154 158.411C295.583 135.917 312.977 116.519 332.277 97.0701C351.612 77.6546 372.862 57.2688 389.552 37.0039M-293.718 874.922C-271.209 810.09 -225.754 749.963 -176.548 709.047C-130.64 670.842 -75.3587 650.677 -21.4344 626.905C-9.72055 614.128 4.12009 600.649 23.2456 591.184C50.1022 577.904 83.5727 575.007 113.139 573.848C144.95 572.562 174.299 572.192 203.452 567.059C207.012 566.454 210.533 565.679 214.089 564.938C248.567 557.689 282.654 540.981 304.114 513.165C314.58 499.604 322.078 483.296 324.644 464.7C327.263 445.557 325.149 425.178 318.46 404.375C308.834 374.42 291.038 344.614 277.768 314.653C266.456 289.137 258.579 263.427 258.414 238.262C258.307 208.906 268.947 184.033 282.685 162.961C297.146 140.848 315.609 121.933 335.696 102.633C355.784 83.3342 377.501 62.5954 393.621 41.3919M-292.872 877.25C-269.364 814.094 -225.236 754.036 -178.053 712.595C-134.631 674.422 -82.0834 653.921 -30.7916 629.775C-19.8504 616.134 -6.47862 601.679 12.772 591.802C39.7152 577.941 74.0189 575.635 104.157 575.483C136.407 575.343 166.067 576.395 195.833 572.506C199.464 572.035 203.092 571.428 206.72 570.821C242.053 564.98 277.226 549.367 299.925 522.063C311.043 508.656 319.153 492.331 322.26 473.584C325.454 454.256 323.737 433.458 317.138 412.21C307.702 381.705 289.652 351.326 276.163 320.827C264.634 294.839 256.575 268.691 256.706 243.144C256.96 213.267 268.688 188.366 283.525 167.605C299.051 145.838 318.516 127.475 339.356 108.292C360.163 89.1442 382.381 68.0175 397.931 45.8756M-292.026 879.577C-267.52 818.098 -224.683 758.142 -179.559 716.143C-138.587 678.035 -88.7733 657.198 -40.1491 632.646C-29.9472 618.105 -17.0776 602.709 2.29639 592.353C29.3243 577.842 64.4963 576.16 95.2065 577.014C127.894 577.952 157.935 580.493 188.246 577.918C191.95 577.582 195.651 577.177 199.351 576.704C235.541 572.339 271.832 557.787 295.701 530.928C307.47 517.674 316.193 501.333 319.806 482.402C323.539 462.856 322.254 441.671 315.813 419.976C306.567 388.921 288.263 357.97 274.487 326.933C262.741 300.475 254.465 273.856 254.928 247.959C255.577 217.595 268.362 192.7 284.227 172.184C300.783 150.731 321.319 132.918 342.878 113.887C364.437 94.8549 387.123 73.3752 402.104 50.3628M-291.18 881.905C-265.675 822.102 -229.367 756.223 -181.097 719.726C-137.969 687.112 -95.531 660.476 -49.5394 635.552C-40.042 620.144 -27.6744 603.808 -8.24519 592.973C18.8693 577.881 54.8727 576.722 86.1568 578.651C119.282 580.667 149.67 584.732 180.526 583.402C184.268 583.235 188.075 582.93 191.848 582.659C228.893 579.702 265.463 565.415 291.343 539.865C304.183 527.161 313.097 510.338 317.218 491.292C321.489 471.527 320.673 449.989 314.322 427.849C305.3 396.278 286.708 364.721 272.68 333.18C260.717 306.25 252.226 279.229 253.017 252.914C253.994 222.065 267.901 197.106 284.83 176.868C302.451 155.761 324.022 138.466 346.301 119.586C368.613 100.671 391.766 78.8379 406.176 54.8869M-290.368 884.268C-263.899 826.108 -229.329 760.173 -182.671 723.276C-141.682 690.889 -102.289 663.755 -58.9647 638.424C-50.2068 622.116 -38.3413 604.84 -18.7538 593.558C8.44727 577.885 45.3171 577.282 77.1732 580.217C110.736 583.312 141.472 588.9 172.907 588.85C176.756 588.85 180.601 588.714 184.446 588.578C222.348 587.096 260.875 574.664 287.087 548.765C300.158 535.817 310.105 519.375 314.766 500.179C319.612 480.228 319.192 458.271 313 435.684C304.2 403.527 285.286 371.401 271.006 339.355C258.827 311.954 250.153 284.494 251.241 257.798C252.614 226.461 267.577 201.508 285.567 181.481C304.22 160.755 326.827 143.978 349.891 125.178C372.922 106.414 396.575 84.1937 410.416 59.3042M-289.522 886.595C-262.054 830.112 -229.256 764.156 -184.209 726.859C-145.327 694.664 -109.047 667.034 -68.3552 641.33C-60.3367 624.122 -48.9733 605.905 -29.2956 594.178C-2.00977 577.856 35.7283 577.876 68.1582 581.887C102.159 586.06 133.242 593.171 165.221 594.366C169.109 594.536 173.025 594.534 176.975 594.498C215.733 594.423 255.38 583.12 282.762 557.667C296.484 544.872 307.044 528.414 312.211 509.033C317.595 488.864 317.643 466.554 311.541 443.522C302.932 410.815 283.73 378.151 269.23 345.499C256.833 317.627 247.91 289.731 249.327 262.616C251.06 230.76 267.567 206.208 286.166 186.029C305.394 165.186 329.527 149.389 353.345 130.775C377.128 112.127 401.284 89.5862 414.52 63.7251M-288.676 888.923C-260.177 834.082 -229.179 768.275 -185.715 730.407C-148.974 698.371 -115.736 670.31 -77.7123 644.201C-70.4332 626.093 -59.5369 606.969 -39.7708 594.729C-12.3984 577.825 26.1711 578.368 59.1748 583.453C93.6483 588.738 125.077 597.305 157.602 599.814C161.561 600.117 165.585 600.283 169.573 600.416C209.188 601.817 249.954 591.575 278.505 566.567C292.914 553.958 304.016 537.418 309.724 517.887C315.683 497.532 316.095 474.838 310.184 451.324C301.764 418.067 282.309 384.831 267.557 351.674C254.943 323.331 245.837 294.997 247.551 267.5C249.647 235.191 266.788 210.18 286.903 190.641C307.651 170.575 332.365 154.866 356.902 136.402C381.44 117.939 406.061 94.9773 418.762 68.2108M-287.865 891.217C-258.367 838.052 -221.977 779.017 -187.288 733.957C-158.59 696.684 -122.529 673.556 -87.171 647.108C-80.5963 628.133 -70.2371 608.036 -50.3808 595.35C-22.8887 577.83 16.5141 578.965 50.0898 585.057C85.001 591.419 116.742 601.476 149.847 605.264C153.913 605.736 157.94 606.037 162.035 606.338C202.506 609.215 244.424 599.997 274.112 575.471C289.172 563.015 300.887 546.458 307.136 526.776C313.633 506.203 314.478 483.123 308.658 459.163C300.427 425.357 280.683 391.515 265.679 357.854C252.848 329.04 243.561 300.268 245.571 272.389C248.062 239.592 266.257 214.519 287.437 195.327C309.216 175.574 334.967 160.45 360.29 142.068C385.58 123.721 410.669 100.406 422.799 72.7014M-287.019 893.545C-256.523 842.056 -221.385 783.293 -188.794 737.505C-162.472 700.5 -129.219 676.832 -96.5284 649.978C-90.6931 630.104 -80.836 609.066 -60.8213 595.934C-33.2427 577.832 6.99157 579.49 41.141 586.656C76.4899 594.097 108.578 605.678 142.263 610.745C146.367 611.385 150.534 611.819 154.667 612.289C195.996 616.642 239.067 608.518 269.89 584.404C285.601 572.101 297.962 555.493 304.684 535.663C311.755 514.903 313.032 491.437 307.335 466.998C299.329 432.674 279.297 398.227 264.074 364.027C251.026 334.742 241.488 305.534 243.862 277.27C246.714 243.953 265.966 218.886 288.242 199.938C311.018 180.533 337.873 165.925 363.915 147.694C389.957 129.463 415.513 105.795 427.073 77.1519M-286.173 895.872C-254.678 846.061 -220.757 787.67 -190.333 741.088C-166.353 704.383 -135.977 680.111 -105.919 652.884C-100.856 632.144 -91.4678 610.132 -71.3629 596.554C-43.6996 577.803 -2.56388 580.05 32.0913 588.293C67.911 596.777 100.314 609.916 134.542 616.228C138.718 617.003 142.924 617.607 147.129 618.211C189.315 624.04 233.504 616.976 265.497 593.308C281.895 581.191 294.833 564.533 302.061 544.519C309.671 523.542 311.381 499.689 305.809 474.838C297.992 439.964 277.706 404.945 262.196 370.208C248.896 340.418 239.212 310.806 241.849 282.194C245.063 248.425 265.402 223.261 288.742 204.591C312.582 185.532 340.473 171.442 367.235 153.362C393.997 135.282 420.053 111.227 431.043 81.6447M-285.327 898.2C-252.833 850.065 -220.095 792.012 -191.838 744.636C-170.164 708.333 -142.667 683.388 -115.276 655.755C-110.953 634.115 -102.032 611.195 -81.8383 597.104C-54.0884 577.772 -12.0863 580.575 23.1409 589.824C59.3633 599.354 92.1813 614.014 126.956 621.641C131.204 622.55 135.483 623.356 139.793 624.059C182.836 631.364 228.179 625.393 261.307 602.138C278.356 590.174 291.906 573.5 299.675 553.336C307.86 532.172 309.967 507.901 304.52 482.637C296.926 447.179 276.353 411.622 260.591 376.381C247.074 346.12 237.174 316.105 240.106 287.043C243.681 252.753 265.109 227.56 289.512 209.168C314.383 190.423 343.311 176.918 370.86 158.988C398.374 141.024 424.898 116.616 435.353 86.1283M-284.481 900.528C-250.989 854.069 -219.363 796.42 -193.343 748.184C-173.941 712.248 -149.391 686.632 -124.633 658.626C-121.014 636.119 -112.63 612.226 -92.3118 597.723C-64.4422 577.774 -21.6087 581.1 14.1592 591.459C50.8193 602.067 83.9848 618.251 119.304 627.123C123.625 628.234 128.009 629.14 132.358 630.012C176.258 638.793 222.719 633.883 257.017 611.073C274.752 599.295 288.88 582.572 297.155 562.224C305.879 540.842 308.42 516.252 303.13 490.474C295.725 454.466 274.864 418.304 258.883 382.523C245.149 351.791 235.032 321.304 238.295 291.893C242.266 257.116 264.714 231.896 290.214 213.748C316.115 195.316 346.114 182.361 374.415 164.547C402.682 146.7 429.673 121.939 439.558 90.5126M-283.636 902.855C-249.144 858.073 -218.597 800.861 -194.882 751.766C-177.684 716.196 -156.114 689.943 -134.024 661.531C-131.144 638.125 -123.227 613.324 -102.821 598.308C-74.8644 577.778 -31.1644 581.66 5.17724 593.094C42.3081 604.745 75.753 622.454 111.686 632.638C116.079 633.884 120.502 634.959 124.958 635.998C169.679 646.222 217.329 642.438 252.762 620.041C271.115 608.451 285.887 591.609 294.67 571.145C303.968 549.578 306.906 524.569 301.741 498.378C294.526 461.82 273.411 425.086 257.143 388.767C243.192 357.565 232.86 326.675 236.453 296.846C240.751 261.584 264.322 236.3 290.887 218.498C317.818 200.38 348.887 187.976 377.908 170.313C406.929 152.65 434.385 127.467 443.7 95.1028M-282.79 905.183C-247.267 862.042 -217.728 805.334 -196.388 755.315C-181.392 720.177 -162.839 693.187 -143.381 664.402C-141.241 640.095 -133.826 614.355 -113.329 598.893C-85.2531 577.747 -40.7216 582.152 -3.80618 594.66C33.7955 607.355 67.5546 626.622 104.032 638.052C108.497 639.432 112.993 640.709 117.486 641.85C163.064 653.55 211.832 650.826 248.435 628.875C267.475 617.471 282.824 600.58 292.148 579.965C301.985 558.179 305.356 532.784 300.314 506.113C293.289 469.005 271.887 431.734 255.4 394.876C241.232 363.203 230.718 331.875 234.607 301.664C239.3 265.914 263.892 240.603 291.554 223.044C319.515 205.239 351.622 193.421 381.395 175.874C411.168 158.327 439.092 132.792 447.804 99.5239M-281.979 907.477C-245.457 866.013 -216.825 809.772 -197.961 758.864C-185.099 724.158 -169.597 696.465 -152.839 667.309C-151.439 642.103 -144.526 615.422 -123.906 599.48C-95.7783 577.72 -50.3455 582.714 -12.8912 596.263C25.1482 610.036 59.2879 630.792 96.3119 643.536C100.815 645.085 105.416 646.462 110.015 647.77C156.418 660.981 206.372 659.315 244.11 637.777C263.801 626.526 279.763 609.618 289.593 588.82C300.004 566.848 303.739 541.069 298.856 513.951C291.987 476.328 270.329 438.416 253.623 401.02C239.238 368.875 228.507 337.076 232.727 306.516C237.782 270.245 263.463 244.905 292.188 227.625C321.179 210.133 354.356 198.865 384.849 181.47C415.342 164.075 443.766 138.151 451.942 103.978M-281.133 909.805C-243.612 870.017 -215.784 814.274 -199.467 762.412C-188.671 728.135 -176.321 699.709 -162.197 670.18C-161.5 644.107 -155.055 616.518 -134.379 600.099C-106.095 577.823 -59.8677 583.239 -21.8396 597.863C16.6705 612.679 51.1246 634.994 88.693 648.983C93.303 650.7 97.9425 652.246 102.613 653.689C149.873 668.375 200.947 667.838 239.854 646.677C260.23 635.613 276.771 618.655 287.141 597.707C298.091 575.516 302.259 549.351 297.534 521.786C290.854 483.613 268.943 445.129 251.985 407.228C237.383 374.612 226.437 342.411 230.986 311.433C236.403 274.71 263.172 249.273 292.96 232.271C322.948 215.127 357.264 204.408 388.509 187.129C419.754 169.85 448.646 143.574 456.252 108.462M-280.287 912.133C-241.803 873.988 -214.676 818.774 -201.005 765.995C-192.243 732.112 -183.045 703.021 -171.622 673.052C-171.699 646.114 -165.722 617.55 -144.923 600.65C-116.554 577.726 -69.4255 583.73 -30.8916 599.431C8.08927 615.291 42.8577 639.163 81.0053 654.432C85.654 656.318 90.3652 657.998 95.1426 659.608C143.26 675.77 195.487 676.327 235.528 655.579C256.523 644.702 273.709 627.694 284.585 606.561C296.11 584.185 300.71 557.634 296.075 529.624C289.585 490.901 267.42 451.844 250.175 413.406C235.356 380.32 224.228 347.68 229.039 316.286C234.816 279.043 262.674 253.577 293.492 236.889C324.544 220.023 359.864 209.925 391.862 192.762C423.859 175.599 453.218 148.97 460.254 112.919M-279.441 914.46C-239.958 877.992 -213.431 823.271 -202.511 769.543C-195.713 736.053 -184.973 707.295 -180.979 675.923C-177.464 648.277 -176.321 618.581 -155.431 601.236C-126.976 577.73 -78.9826 584.223 -39.908 601.033C-0.489451 617.971 34.6595 643.332 73.3183 659.881C78.0387 661.902 82.8566 663.749 87.6378 665.496C136.579 683.168 189.993 684.783 231.169 664.448C252.85 653.757 270.682 636.698 281.996 615.383C294.094 592.822 299.058 565.886 294.615 537.394C288.315 498.121 265.896 458.492 248.364 419.517C233.328 385.959 221.95 352.883 227.125 321.105C233.298 283.375 262.21 257.847 294.091 241.437C326.208 224.918 362.564 215.337 395.281 198.325C427.998 181.314 457.858 154.296 464.323 117.307M-278.595 916.788C-238.114 881.996 -212.087 827.663 -204.016 773.091C-199.115 739.992 -192.596 710.086 -190.337 678.794C-188.28 650.096 -186.884 619.645 -165.872 601.819C-137.297 577.697 -88.4701 584.781 -48.8236 602.598C-8.93422 620.579 26.4941 647.465 65.7672 665.326C70.5593 667.481 75.4158 669.498 80.3036 671.412C130.101 690.561 184.634 693.236 226.98 673.346C249.347 662.842 267.722 645.7 279.612 624.268C292.284 601.521 297.646 574.166 293.328 545.262C287.217 505.439 264.509 465.205 246.794 425.724C231.541 391.695 219.98 358.181 225.419 326.055C231.919 287.839 261.92 262.283 294.933 246.149C328.08 229.943 365.507 220.913 398.976 204.017C432.445 187.122 462.772 159.752 468.703 121.857M-277.749 919.116C-236.236 885.965 -210.64 832.087 -205.555 776.674C-202.552 743.898 -200.282 713.015 -199.727 681.7C-199.231 651.987 -197.516 620.71 -176.413 602.44C-147.752 577.736 -98.0606 585.307 -57.8734 604.234C-17.5132 623.259 18.2295 651.703 58.0469 670.81C62.9125 673.167 67.8407 675.319 72.8334 677.332C123.42 697.958 179.141 701.76 222.69 682.281C245.676 671.965 264.696 654.771 277.092 633.156C290.303 610.19 296.132 582.482 291.869 553.1C286.017 512.725 262.987 471.921 244.984 431.902C229.515 397.402 217.772 363.45 223.506 330.942C230.403 292.239 261.458 266.62 295.534 250.765C329.711 234.872 368.176 226.427 402.397 209.648C436.619 192.869 467.413 165.146 472.773 126.313M-276.937 921.478C-234.424 890.004 -209.16 836.475 -207.093 780.257C-205.888 747.767 -207.999 716.114 -209.117 684.605C-210.212 653.982 -208.148 621.775 -186.922 603.025C-158.176 577.672 -107.552 585.73 -66.8551 605.869C-25.958 625.867 10.0328 655.94 50.4295 676.325C55.3669 678.817 60.3686 681.171 65.433 683.318C116.846 705.523 173.751 710.315 218.435 691.249C242.107 681.119 261.705 663.876 274.607 642.077C288.392 618.926 294.619 590.799 290.514 560.97C284.851 520.045 261.534 478.703 243.313 438.145C227.558 403.176 215.633 368.786 221.732 335.894C228.989 296.67 261.131 270.954 296.273 255.445C331.445 239.833 371.015 231.972 405.991 215.377C440.967 198.782 472.262 170.671 477.017 130.867M-276.126 923.773C-232.615 893.975 -207.582 840.69 -208.667 783.807C-209.294 751.57 -215.746 719.317 -218.543 687.478C-221.33 655.979 -218.815 622.807 -197.499 603.612C-168.666 577.678 -117.176 586.291 -75.907 607.437C-34.5722 628.513 1.79921 660.075 42.7071 681.741C47.7163 684.367 52.7898 686.855 57.9277 689.205C110.162 712.853 168.258 718.839 214.075 700.118C238.4 690.209 258.609 672.882 272.052 650.932C286.376 627.562 293.035 599.049 289.055 568.808C283.582 527.333 260.011 485.419 241.536 444.289C225.564 408.848 213.458 374.021 219.818 340.713C227.437 301.036 260.634 275.259 296.838 260.028C333.041 244.729 373.682 237.419 409.377 220.975C445.105 204.497 476.867 176.033 481.052 135.289M-275.28 926.1C-230.77 897.979 -205.868 844.902 -210.173 787.355C-212.601 755.268 -223.422 722.654 -227.933 690.383C-232.444 658.113 -229.412 623.906 -208.005 604.265C-179.053 577.715 -126.729 586.919 -84.9218 609.107C-43.1144 631.294 -6.43053 664.346 35.0567 687.291C91.825 718.687 158.182 729.188 209.786 709.053C261.389 688.918 295.157 636.219 287.665 576.644C277.865 498.364 203.545 418.356 218.009 345.631C225.989 305.434 260.309 279.661 297.542 264.676C334.81 249.723 376.453 242.965 412.934 226.603C449.415 210.24 481.644 181.423 485.294 139.775" stroke="url(#paint0_linear_1367_3747)" stroke-width="0.5" stroke-miterlimit="10"/>
<defs>
<linearGradient id="paint0_linear_1367_3747" x1="-61.4999" y1="426.5" x2="278.935" y2="219.716" gradientUnits="userSpaceOnUse">
<stop stop-color="#FF22AC" stop-opacity="0.45"/>
<stop offset="0.48974" stop-color="#8846D3" stop-opacity="0.39"/>
<stop offset="1" stop-color="#2973FF" stop-opacity="0"/>
</linearGradient>
</defs>
</svg>
