<svg width="25" height="20" viewBox="0 0 25 20" fill="none" xmlns="http://www.w3.org/2000/svg">
<path d="M24.6154 2.29998C23.6923 2.75998 22.7692 2.92 21.6821 3.06C22.7692 2.46 23.5282 1.53998 23.8359 0.299988C22.9128 0.91998 21.8462 1.21998 20.6154 1.53998C19.6923 0.599978 18.2974 0 16.9231 0C14.2974 0 12 2.3 12 5.06C12 5.54 12 5.84002 12.1435 6.14002C7.99996 6.00002 4.14361 3.99998 1.68207 0.91998C1.23078 1.67998 1.06671 2.45998 1.06671 3.53998C1.06671 5.21998 1.98979 6.76 3.38466 7.68C2.60517 7.68 1.84619 7.38 1.06671 7.06C1.06671 9.54 2.76917 11.54 5.06661 12C4.61532 12.14 4.14357 12.14 3.69229 12.14C3.3846 12.14 3.07688 12.14 2.76919 12C3.38457 14 5.23073 15.54 7.52816 15.54C5.84611 16.92 3.69227 17.68 1.23072 17.68C0.758925 17.68 0.451282 17.68 0 17.68C2.29744 19.06 4.92308 20 7.69231 20C16.9231 20 21.9897 12.3 21.9897 5.68C21.9897 5.54 21.9897 5.22 21.9897 5.06C23.0769 4.3 24 3.37998 24.6154 2.29998Z" fill="white"/>
</svg>
