<svg width="774" height="866" viewBox="0 0 774 866" fill="none" xmlns="http://www.w3.org/2000/svg">
<path d="M773.534 598.335C773.534 634.764 754.12 668.432 722.592 686.681L437.902 851.461C406.27 869.77 367.264 869.77 335.632 851.461L50.942 686.681C19.414 668.432 0 634.764 0 598.335V267.235C0 230.842 19.374 197.202 50.854 178.941L335.544 13.7812C367.22 -4.59375 406.314 -4.59375 437.99 13.7812L722.68 178.941C754.158 197.202 773.534 230.842 773.534 267.235V598.335Z" fill="white"/>
<path d="M328.923 291.655L174.198 268.495C202.762 165.565 279.728 114.1 405.095 114.1C470.159 114.1 521.932 130.458 560.415 163.176C598.897 195.892 618.139 239.086 618.139 292.758C618.139 330.988 607.03 364.624 584.814 393.666C562.597 422.707 519.75 460.387 456.273 506.706C411.045 539.79 383.671 564.42 374.15 580.595H631.231V700.803H164.676C164.676 652.279 180.347 605.592 211.689 560.744C243.03 515.896 282.703 475.826 330.708 440.536C378.712 405.246 411.641 376.94 429.494 355.619C447.346 334.297 456.273 312.608 456.273 290.552C456.273 273.642 450.52 260.04 439.015 249.747C427.51 239.454 413.029 234.308 395.573 234.308C360.661 234.308 338.444 253.423 328.923 291.655Z" fill="url(#paint0_linear_1767_3466)"/>
<defs>
<linearGradient id="paint0_linear_1767_3466" x1="158.448" y1="430.467" x2="655.354" y2="430.467" gradientUnits="userSpaceOnUse">
<stop offset="0.005" stop-color="#1A315E"/>
<stop offset="0.394" stop-color="#A3ABC0"/>
<stop offset="1" stop-color="#213766"/>
</linearGradient>
</defs>
</svg>
