<svg width="774" height="866" viewBox="0 0 774 866" fill="none" xmlns="http://www.w3.org/2000/svg">
<path d="M390.083 0C407.031 0.489 423.249 5.503 437.99 13.728L722.68 178.888C754.158 197.148 773.534 230.788 773.534 267.182V598.282C773.534 634.71 754.12 668.378 722.592 686.628L437.902 851.408C406.27 869.716 367.264 869.716 335.632 851.408L50.942 686.628C19.414 668.378 0 634.71 0 598.282V267.182C0 230.788 19.374 197.148 50.854 178.888L335.544 13.728C353.051 3.599 370.049 0 390.083 0ZM393.811 108.506C270.138 108.506 194.213 160.399 166.034 264.185L318.668 287.537C328.061 248.988 349.978 229.713 384.418 229.713C401.639 229.713 415.924 234.902 427.273 245.281C438.623 255.66 444.298 269.374 444.298 286.425C444.298 308.664 435.492 330.533 417.881 352.032C400.269 373.531 367.785 402.072 320.43 437.655C273.074 473.239 233.937 513.641 203.019 558.862C172.101 604.083 156.642 651.158 156.642 700.085H616.892V578.878H363.285C372.678 562.569 399.682 537.734 444.298 504.375C506.917 457.671 549.185 419.678 571.102 390.396C593.019 361.113 603.977 327.198 603.977 288.649C603.977 234.532 584.995 190.979 547.032 157.99C509.069 125.001 457.996 108.506 393.811 108.506Z" fill="white"/>
</svg>
