<svg width="36" height="36" viewBox="0 0 36 36" fill="none" xmlns="http://www.w3.org/2000/svg">
<path d="M35.9492 6.79852C35.9492 4.59197 34.4429 2.68137 32.3292 2.15016C31.696 0.834961 30.3797 0 28.901 0H14.2577C12.8438 0 11.5641 0.776109 10.9054 2.00355H4.84665C2.20269 2.00355 0.0517578 4.15455 0.0517578 6.79852V31.2054C0.0517578 33.8491 2.20262 36 4.8463 36H9.92427C10.2156 36 10.4516 35.7639 10.4516 35.4727C10.4516 35.1814 10.2156 34.9453 9.92427 34.9453H4.84637C2.78417 34.9453 1.10652 33.2676 1.10652 31.2054V13.488C1.10652 11.4259 2.78417 9.74812 4.84637 9.74812H13.2178C14.4816 9.74812 15.6503 10.3788 16.3439 11.4354L18.2571 14.3484C19.1462 15.7028 20.6445 16.5115 22.2649 16.5115H31.1545C33.2167 16.5115 34.8943 18.1892 34.8943 20.2514V31.2054C34.8943 33.2676 33.2167 34.9453 31.1545 34.9453H12.0337C11.7424 34.9453 11.5064 35.1814 11.5064 35.4727C11.5064 35.7639 11.7424 36 12.0337 36H31.1545C33.7982 36 35.949 33.8491 35.949 31.2054L35.9492 6.79852ZM1.10638 10.4929V6.79852C1.10638 4.73611 2.78424 3.05824 4.84658 3.05824H10.5251C10.4764 3.30258 10.4516 3.55233 10.4516 3.80602V5.00435H9.02237C6.96319 5.00435 5.28188 6.64875 5.2193 8.69344H4.84637C3.33514 8.69344 1.98584 9.39698 1.10638 10.4929ZM19.1386 13.7695L17.2255 10.8565C16.3363 9.5021 14.8381 8.69344 13.2178 8.69344H6.27399C6.33594 7.2303 7.54475 6.05904 9.02237 6.05904H23.6655C25.1826 6.05904 26.4169 7.29366 26.4169 8.81121V15.4568H22.2649C21.001 15.4568 19.8323 14.8261 19.1386 13.7695V13.7695ZM32.707 15.7163V7.32094C32.707 7.0297 32.471 6.79359 32.1796 6.79359C31.8883 6.79359 31.6523 7.0297 31.6523 7.32094V15.4827C31.4886 15.4657 31.3226 15.4568 31.1545 15.4568H27.4716V8.81121C27.4716 6.7121 25.7642 5.00435 23.6655 5.00435H11.5064V3.80602C11.5064 3.43434 11.5789 3.0747 11.7222 2.73635C12.1534 1.71478 13.1487 1.05469 14.2577 1.05469H28.901C30.0395 1.05469 31.0451 1.73939 31.4622 2.79787C31.5883 3.1204 31.6523 3.45959 31.6523 3.80595V5.26071C31.6523 5.55195 31.8883 5.78805 32.1796 5.78805C32.471 5.78805 32.707 5.55195 32.707 5.26071V3.80602C32.707 3.66434 32.6983 3.52371 32.6828 3.38414C34.0026 3.97427 34.8944 5.29868 34.8944 6.79859V17.2563C34.3312 16.5543 33.5751 16.0142 32.707 15.7163V15.7163Z" fill="white"/>
<path d="M24.7348 8.75492C24.4776 8.61817 24.1584 8.71597 24.0216 8.9731L22.0903 12.6069L20.7549 10.9449C20.5726 10.718 20.2406 10.6817 20.0135 10.8642C19.7864 11.0466 19.7503 11.3785 19.9327 11.6055L21.7693 13.8913C21.87 14.0165 22.0214 14.0883 22.1803 14.0883C22.1968 14.0883 22.2134 14.0875 22.23 14.0859C22.4065 14.0693 22.5628 13.965 22.6461 13.8084L24.953 9.4681C25.0897 9.2109 24.9921 8.89161 24.7348 8.75492V8.75492Z" fill="white"/>
<path d="M4.64551 19.7683H13.6404C13.9317 19.7683 14.1677 19.5322 14.1677 19.241C14.1677 18.9497 13.9317 18.7136 13.6404 18.7136H4.64551C4.3542 18.7136 4.11816 18.9497 4.11816 19.241C4.11816 19.5322 4.35427 19.7683 4.64551 19.7683Z" fill="white"/>
<path d="M4.64551 21.7197H13.6404C13.9317 21.7197 14.1677 21.4836 14.1677 21.1924C14.1677 20.9011 13.9317 20.665 13.6404 20.665H4.64551C4.3542 20.665 4.11816 20.9011 4.11816 21.1924C4.11816 21.4836 4.35427 21.7197 4.64551 21.7197Z" fill="white"/>
</svg>
