<svg width="51" height="51" viewBox="0 0 51 51" fill="none" xmlns="http://www.w3.org/2000/svg">
<g clip-path="url(#clip0_2326_8826)">
<path d="M43.3334 17.043C43.3329 17.043 43.3323 17.043 43.3317 17.043H0.730191C0.327393 17.0425 0.000426432 17.3687 4.16914e-07 17.7715C4.16914e-07 17.772 4.16914e-07 17.7726 4.16914e-07 17.7732V38.2219C-0.000425598 38.6247 0.325689 38.9517 0.728487 38.9521C0.729019 38.9521 0.729658 38.9521 0.730191 38.9521H29.6992C30.1025 38.9521 30.4294 38.6251 30.4294 38.2219C30.4294 37.8187 30.1025 37.4917 29.6992 37.4917H1.46038V18.5034H42.6015V20.3293C42.6011 20.732 42.9272 21.059 43.33 21.0594C43.3306 21.0594 43.3312 21.0594 43.3317 21.0594C43.7345 21.0599 44.0615 20.7338 44.0619 20.331C44.0619 20.3304 44.0619 20.3298 44.0619 20.3293V17.7732C44.0623 17.3704 43.7362 17.0435 43.3334 17.043Z" fill="url(#paint0_linear_2326_8826)"/>
<path d="M38.3793 13.6518L4.29808 5.98349C4.10893 5.94121 3.91072 5.9755 3.74681 6.07892C3.58312 6.18318 3.46735 6.34795 3.42475 6.53731L1.72068 14.2056C1.63314 14.5994 1.8815 14.9897 2.27536 15.0772C2.66921 15.1648 3.05944 14.9164 3.14698 14.5225L4.69172 7.56912L38.0589 15.0764C38.1118 15.0886 38.1658 15.0947 38.22 15.0942C38.6232 15.0935 38.9495 14.766 38.9489 14.3628C38.9482 14.0219 38.7118 13.7268 38.3793 13.6518Z" fill="url(#paint1_linear_2326_8826)"/>
<path d="M34.2409 9.42646L13.7921 0.906156C13.4367 0.758009 13.0272 0.910203 12.8549 1.25464L11.1508 4.66276C10.9584 5.0187 11.0909 5.46335 11.4469 5.6558C11.8028 5.84825 12.2475 5.71576 12.4399 5.35972C12.4475 5.34577 12.4546 5.3315 12.4612 5.31701V5.31872L13.8594 2.52065L33.6768 10.7777C34.05 10.9334 34.4788 10.7572 34.6345 10.384C34.7902 10.0111 34.614 9.58228 34.2409 9.42646Z" fill="url(#paint2_linear_2326_8826)"/>
<path d="M34.7584 20.4512H27.9958C27.5926 20.4512 27.2656 20.7781 27.2656 21.1814C27.2656 21.5846 27.5926 21.9116 27.9958 21.9116H34.7584C35.1616 21.9116 35.4886 21.5846 35.4886 21.1814C35.4886 20.7781 35.1616 20.4512 34.7584 20.4512Z" fill="url(#paint3_linear_2326_8826)"/>
<path d="M21.1795 20.499C17.0385 20.499 13.6816 23.8559 13.6816 27.9969C13.6859 32.1361 17.0403 35.4905 21.1795 35.4948C25.3205 35.4948 28.6774 32.1379 28.6774 27.9969C28.6774 23.8559 25.3205 20.499 21.1795 20.499ZM21.1795 34.1315C17.7914 34.1315 15.0449 31.385 15.0449 27.9969C15.0486 24.6104 17.793 21.866 21.1795 21.8623C24.5676 21.8623 27.3141 24.6088 27.3141 27.9969C27.3141 31.385 24.5676 34.1315 21.1795 34.1315Z" fill="url(#paint4_linear_2326_8826)"/>
<path d="M41.6282 22.8848C37.1124 22.8848 32.2559 23.9515 32.2559 26.2929V46.7416C32.2559 49.083 37.1124 50.1497 41.6282 50.1497C46.144 50.1497 51.0005 49.083 51.0005 46.7416V26.2929C51.0005 23.9515 46.144 22.8848 41.6282 22.8848ZM49.2965 46.7288C49.1678 47.2017 46.6126 48.4457 41.6282 48.4457C36.6438 48.4457 34.0886 47.2017 33.9599 46.7416V45.4022C35.773 46.3156 38.7679 46.7416 41.6282 46.7416C44.4885 46.7416 47.4842 46.3113 49.2965 45.4014V46.7288ZM49.2965 43.3207C49.1678 43.7936 46.6126 45.0376 41.6282 45.0376C36.6438 45.0376 34.0886 43.7936 33.9599 43.3335V41.9941C35.773 42.9075 38.7679 43.3335 41.6282 43.3335C44.4885 43.3335 47.4842 42.9032 49.2965 41.9932V43.3207ZM49.2965 39.9126C49.1678 40.3855 46.6126 41.6294 41.6282 41.6294C36.6438 41.6294 34.0886 40.3855 33.9599 39.9254V38.586C35.773 39.4994 38.7679 39.9254 41.6282 39.9254C44.4885 39.9254 47.4842 39.4951 49.2965 38.5851V39.9126ZM49.2965 36.5045C49.1678 36.9773 46.6126 38.2213 41.6282 38.2213C36.6438 38.2213 34.0886 36.9773 33.9599 36.5172V35.1779C35.773 36.0912 38.7679 36.5172 41.6282 36.5172C44.4885 36.5172 47.4842 36.087 49.2965 35.177V36.5045ZM49.2965 33.0963C49.1678 33.5692 46.6126 34.8132 41.6282 34.8132C36.6438 34.8132 34.0886 33.5692 33.9599 33.1091V31.7697C35.773 32.6789 38.7679 33.1091 41.6282 33.1091C44.4885 33.1091 47.4842 32.6789 49.2965 31.7689V33.0963ZM49.2965 29.6882C49.1678 30.1611 46.6126 31.4051 41.6282 31.4051C36.6438 31.4051 34.0886 30.1611 33.9599 29.701V28.3616C35.773 29.2707 38.7679 29.701 41.6282 29.701C44.4885 29.701 47.4842 29.2707 49.2965 28.3608V29.6882ZM41.6282 27.9969C36.6515 27.9969 34.0971 26.7564 33.9599 26.3082V26.3031C34.0971 25.8285 36.6515 24.5888 41.6282 24.5888C46.57 24.5888 49.1261 25.8106 49.2965 26.2929C49.1261 26.7751 46.57 27.9969 41.6282 27.9969Z" fill="url(#paint5_linear_2326_8826)"/>
<path d="M14.3617 34.0828H7.92116L4.86748 30.7429V25.2047L8.23982 21.9116H14.3617C14.7649 21.9116 15.0919 21.5846 15.0919 21.1814C15.0919 20.7781 14.7649 20.4512 14.3617 20.4512H7.94332C7.75246 20.4507 7.56895 20.5251 7.4321 20.6582L3.62607 24.3705C3.48389 24.5367 3.40593 24.7483 3.40625 24.9669V31.0266C3.40625 31.2088 3.47431 31.3844 3.59711 31.5191L7.05891 35.3055C7.19726 35.4569 7.39301 35.5433 7.59824 35.5432H14.3617C14.7649 35.5432 15.0919 35.2162 15.0919 34.813C15.0919 34.4098 14.765 34.0828 14.3617 34.0828Z" fill="url(#paint6_linear_2326_8826)"/>
<path d="M21.6052 27.1452H20.7531C20.4881 27.1452 20.3271 26.9969 20.3271 26.9322C20.3271 26.8674 20.4881 26.7192 20.7531 26.7192H22.8832C23.3537 26.7192 23.7352 26.3377 23.7352 25.8671C23.7352 25.3966 23.3537 25.0151 22.8832 25.0151H22.0312C22.0312 24.5446 21.6497 24.1631 21.1791 24.1631C20.7086 24.1631 20.3271 24.5446 20.3271 25.0151V25.0535C19.3821 25.1869 18.6662 25.9745 18.623 26.9279C18.6841 28.045 19.6356 28.9033 20.7531 28.8492H21.6052C21.8701 28.8492 22.0312 28.9975 22.0312 29.0623C22.0312 29.127 21.8701 29.2753 21.6052 29.2753H19.4751C19.0045 29.2753 18.623 29.6568 18.623 30.1273C18.623 30.5978 19.0045 30.9793 19.4751 30.9793H20.3271C20.3271 31.4498 20.7086 31.8313 21.1791 31.8313C21.6497 31.8313 22.0312 31.4498 22.0312 30.9793V30.941C22.9762 30.8075 23.6921 30.0199 23.7352 29.0665C23.6742 27.9494 22.7227 27.0911 21.6052 27.1452Z" fill="url(#paint7_linear_2326_8826)"/>
</g>
<defs>
<linearGradient id="paint0_linear_2326_8826" x1="1.70429e-07" y1="31.8966" x2="43.47" y2="30.4172" gradientUnits="userSpaceOnUse">
<stop stop-color="#679FEF"/>
<stop offset="1" stop-color="#A87FFF"/>
</linearGradient>
<linearGradient id="paint1_linear_2326_8826" x1="1.70313" y1="12.1549" x2="38.3166" y2="9.627" gradientUnits="userSpaceOnUse">
<stop stop-color="#679FEF"/>
<stop offset="1" stop-color="#A87FFF"/>
</linearGradient>
<linearGradient id="paint2_linear_2326_8826" x1="11.0625" y1="7.61893" x2="34.3634" y2="6.68579" gradientUnits="userSpaceOnUse">
<stop stop-color="#679FEF"/>
<stop offset="1" stop-color="#A87FFF"/>
</linearGradient>
<linearGradient id="paint3_linear_2326_8826" x1="27.2656" y1="21.4413" x2="35.3144" y2="20.6743" gradientUnits="userSpaceOnUse">
<stop stop-color="#679FEF"/>
<stop offset="1" stop-color="#A87FFF"/>
</linearGradient>
<linearGradient id="paint4_linear_2326_8826" x1="13.6816" y1="30.6656" x2="28.4888" y2="30.4151" gradientUnits="userSpaceOnUse">
<stop stop-color="#679FEF"/>
<stop offset="1" stop-color="#A87FFF"/>
</linearGradient>
<linearGradient id="paint5_linear_2326_8826" x1="32.2559" y1="41.3695" x2="50.7676" y2="41.1541" gradientUnits="userSpaceOnUse">
<stop stop-color="#679FEF"/>
<stop offset="1" stop-color="#A87FFF"/>
</linearGradient>
<linearGradient id="paint6_linear_2326_8826" x1="3.40625" y1="30.6831" x2="14.9462" y2="30.5319" gradientUnits="userSpaceOnUse">
<stop stop-color="#679FEF"/>
<stop offset="1" stop-color="#A87FFF"/>
</linearGradient>
<linearGradient id="paint7_linear_2326_8826" x1="18.623" y1="29.3619" x2="23.6718" y2="29.3049" gradientUnits="userSpaceOnUse">
<stop stop-color="#679FEF"/>
<stop offset="1" stop-color="#A87FFF"/>
</linearGradient>
<clipPath id="clip0_2326_8826">
<rect width="51" height="51" fill="white"/>
</clipPath>
</defs>
</svg>
