<svg width="54" height="54" viewBox="0 0 54 54" fill="none" xmlns="http://www.w3.org/2000/svg">
<g clip-path="url(#clip0_2326_8791)">
<path d="M50.5441 15.0076H48.8935C44.5006 6.99825 36.1529 2.04199 27 2.04199C17.8522 2.04199 9.49956 6.99991 5.10682 15.0076H3.45594C2.65312 15.0076 2 15.6607 2 16.4635V37.5376C2 38.3404 2.65322 38.9935 3.45594 38.9935H5.10682C9.49956 47.0009 17.8531 51.9591 27 51.9591C36.1529 51.9591 44.5007 47.0029 48.8936 38.9935H50.5442C51.347 38.9935 52.0001 38.3404 52.0001 37.5376V16.4635C52 15.6607 51.3469 15.0076 50.5441 15.0076ZM3.46571 16.4733H33.755L32.2893 17.939H9.20592C8.8011 17.939 8.47307 18.2671 8.47307 18.6719C8.47307 20.2206 7.21305 21.4806 5.66428 21.4806C5.25945 21.4806 4.93142 21.8088 4.93142 22.2135V31.7876C4.93142 32.1924 5.25945 32.5205 5.66428 32.5205C7.21314 32.5205 8.47307 33.7805 8.47307 35.3293C8.47307 35.734 8.8011 36.0621 9.20592 36.0621H14.1662L12.7005 37.5278H3.46571V16.4733ZM35.2207 15.0076H11.541C15.225 10.2709 20.8648 7.45574 26.8705 7.41666C31.1619 7.38881 35.246 8.72905 38.6835 11.2926C38.7295 11.3269 38.7421 11.3726 38.7443 11.4049C38.7464 11.4324 38.7428 11.4855 38.6975 11.5309L35.2207 15.0076ZM15.6319 34.5964H9.87595C9.56874 32.8254 8.1682 31.4248 6.39713 31.1177V22.8834C8.1682 22.5763 9.56874 21.1757 9.87595 19.4046H22.0646C19.5827 21.0228 17.9384 23.823 17.9384 27.0005C17.9384 28.485 18.3008 29.9383 18.9895 31.2387L15.6319 34.5964ZM50.5343 37.5278H48.4463C48.4462 37.5278 48.4461 37.5278 48.446 37.5278H26.3632C25.9584 37.5278 25.6304 37.856 25.6304 38.2607C25.6304 38.6654 25.9584 38.9935 26.3632 38.9935H42.4589C41.3651 40.3992 40.0872 41.65 38.6453 42.7221C38.3206 42.9637 38.253 43.4227 38.4945 43.7475C38.6384 43.941 38.8593 44.0431 39.0832 44.0431C39.2352 44.0431 39.3885 43.996 39.52 43.8983C41.3696 42.5229 42.969 40.874 44.2793 38.9935H47.206C42.9766 46.1177 35.3437 50.4934 27 50.4934C18.6617 50.4934 11.024 46.116 6.79444 38.9935H9.71062C9.84341 39.1844 9.97855 39.3743 10.1172 39.5603C10.3981 39.937 10.8287 40.1727 11.2985 40.2067C11.3379 40.2095 11.3772 40.2109 11.4164 40.2109C11.8465 40.2109 12.2606 40.0407 12.5669 39.7343L23.5565 28.7448C23.8427 28.4586 23.8427 27.9946 23.5565 27.7085C23.2703 27.4223 22.8064 27.4221 22.5201 27.7085L20.0844 30.1441C19.6382 29.1624 19.4042 28.0918 19.4042 27.0006C19.4042 22.8122 22.8117 19.4047 27 19.4047C28.0911 19.4047 29.1617 19.6386 30.1434 20.0849L24.7284 25.4999C24.4422 25.7861 24.4422 26.2502 24.7284 26.5363C24.8715 26.6793 25.0592 26.751 25.2467 26.751C25.4342 26.751 25.6218 26.6794 25.7649 26.5363L39.7339 12.5674C40.0681 12.2331 40.2403 11.7707 40.2061 11.299C40.172 10.8292 39.9364 10.3987 39.5596 10.1177C35.9019 7.38979 31.5631 5.95056 27.0018 5.95056C26.9551 5.95056 26.9076 5.95065 26.8609 5.95095C20.033 5.99531 13.6473 9.3768 9.72293 15.0076H6.79434C11.0239 7.88481 18.661 3.5077 27 3.5077C35.3438 3.5077 42.9767 7.88344 47.2061 15.0076H44.2895C44.1564 14.8164 44.0213 14.6263 43.883 14.4408C43.6021 14.0641 43.1715 13.8285 42.7017 13.7945C42.2284 13.7605 41.7676 13.9324 41.4333 14.2668L14.2661 41.4338C13.9319 41.768 13.7597 42.2304 13.7939 42.7021C13.8279 43.1718 14.0635 43.6024 14.4403 43.8835C18.0981 46.6113 22.4369 48.0508 26.9982 48.0506C27.0449 48.0506 27.0924 48.0505 27.1391 48.0502C30.4833 48.0284 33.8142 47.192 36.7719 45.6312C37.13 45.4423 37.267 44.999 37.0781 44.641C36.8893 44.2831 36.4462 44.1461 36.0879 44.3349C33.3374 45.7863 30.2396 46.5642 27.1295 46.5845C22.8386 46.6146 18.7539 45.2721 15.3165 42.7085C15.2705 42.6742 15.2579 42.6285 15.2557 42.5963C15.2536 42.5686 15.2572 42.5156 15.3025 42.4701L18.7791 38.9935H23.24C23.6448 38.9935 23.9729 38.6654 23.9729 38.2607C23.9729 37.856 23.6448 37.5278 23.24 37.5278H20.2448L21.7105 36.0621H44.794C45.1988 36.0621 45.5268 35.734 45.5268 35.3293C45.5268 33.7805 46.7869 32.5205 48.3356 32.5205C48.7405 32.5205 49.0685 32.1924 49.0685 31.7876V22.2135C49.0685 21.8088 48.7405 21.4806 48.3356 21.4806C46.7868 21.4806 45.5268 20.2206 45.5268 18.6719C45.5268 18.2671 45.1988 17.939 44.794 17.939H39.8339L41.2996 16.4733H50.5343V37.5278ZM23.8566 33.9162L33.9157 23.8572C34.362 24.839 34.5959 25.9095 34.5959 27.0006C34.5959 31.189 31.1885 34.5965 27 34.5965C25.909 34.5964 24.8383 34.3626 23.8566 33.9162ZM36.0617 27.0006C36.0617 25.5163 35.6993 24.063 35.0105 22.7624L38.3682 19.4047H44.1241C44.4314 21.1758 45.8319 22.5763 47.603 22.8835V31.1178C45.8319 31.4249 44.4314 32.8255 44.1241 34.5966H31.9355C34.4174 32.9783 36.0617 30.178 36.0617 27.0006Z" fill="url(#paint0_linear_2326_8791)"/>
</g>
<defs>
<linearGradient id="paint0_linear_2326_8791" x1="2" y1="35.8841" x2="51.3714" y2="35.0473" gradientUnits="userSpaceOnUse">
<stop stop-color="#679FEF"/>
<stop offset="1" stop-color="#A87FFF"/>
</linearGradient>
<clipPath id="clip0_2326_8791">
<rect width="50" height="50" fill="white" transform="translate(2 2)"/>
</clipPath>
</defs>
</svg>
