<svg width="54" height="54" viewBox="0 0 54 54" fill="none" xmlns="http://www.w3.org/2000/svg">
<path d="M28.5113 6.64442C27.7425 6.50794 26.9506 6.61846 26.2485 6.9602C25.3426 6.39566 24.1704 6.50864 23.389 7.23598L20.8772 9.58782V9.38291C20.8772 7.2665 19.1614 5.55078 17.0447 5.55078C15.7749 5.55078 14.7455 6.58022 14.7455 7.84999V15.3571L12.8691 17.3921C12.3361 17.9675 12.0459 18.7264 12.0582 19.5106C12.0431 22.1824 12.2403 24.8518 12.6484 27.4924C12.6649 27.5527 12.6891 27.6106 12.7203 27.665L11.4695 31.1838C10.9937 32.4936 11.4726 33.9592 12.6298 34.7356L13.0676 35.0332C12.6206 36.3359 13.0957 37.7769 14.2294 38.559L26.6394 47.0667C26.8485 47.2099 26.9731 47.4467 26.9731 47.6997C26.9731 48.9698 28.0025 49.9992 29.2723 49.9992H40.4115C41.1108 50.001 41.7725 49.6821 42.2065 49.134C42.6493 48.5768 42.81 47.8463 42.642 47.1548L41.5231 43.016C41.1294 41.2073 41.0136 39.3491 41.1796 37.5057C41.8111 29.4955 36.4411 23.709 35.0791 22.7035C32.5736 20.8565 30.7049 18.931 29.9505 17.4201C28.82 15.1532 29.5821 13.6024 30.3186 12.1032C30.9364 10.8453 31.5757 9.54536 30.6687 8.18191C30.1894 7.39668 29.4102 6.84126 28.5113 6.64442ZM17.0447 7.0837C18.3148 7.0837 19.3442 8.11314 19.3442 9.38291V11.0232L16.2784 13.8929V7.84999C16.2784 7.64684 16.3591 7.45176 16.503 7.30826C16.6465 7.1644 16.8415 7.0837 17.0447 7.0837ZM13.5911 19.4899C13.5848 19.098 13.7301 18.7187 13.9964 18.4313L16.0191 16.2339C16.0377 16.2181 16.0549 16.2016 16.0714 16.1841L20.5723 11.9723C20.6158 11.9393 20.6554 11.9018 20.6909 11.8604L24.456 8.33453C24.756 8.04262 25.2342 8.04262 25.5342 8.33453L25.5865 8.28226C25.6051 8.30401 25.6251 8.32401 25.6461 8.34295L25.5977 8.40506C26.4303 9.30713 26.4071 10.7039 25.5458 11.5783L22.5311 14.4725L18.2864 18.2956C18.0106 18.5892 17.8657 18.9818 17.884 19.3839C16.4577 19.5695 15.2553 20.5383 14.7707 21.8926L13.8087 24.5985C13.6546 22.7143 13.6055 20.5811 13.5911 19.4899ZM19.4102 19.3471L21.6252 17.3542C21.5961 18.0194 21.6203 18.6861 21.6982 19.3471H19.4102ZM12.9112 31.7066L16.2163 22.4063C16.5472 21.487 17.4212 20.8755 18.3983 20.88H24.9756C25.1346 20.8811 25.2896 20.9309 25.4191 21.0228L29.3867 23.8343C29.5418 23.9417 29.6358 24.1174 29.6386 24.3062C29.64 24.4139 29.6119 24.5199 29.5575 24.6129C29.5305 24.6574 29.4954 24.7016 29.4632 24.7455L28.2183 23.855C27.5706 23.3897 26.7931 23.1399 25.9956 23.1406H19.9635C18.3408 23.1431 16.8956 24.1676 16.3556 25.6981L13.5964 33.5392L13.4968 33.4718C12.9171 33.0894 12.675 32.3596 12.9112 31.7066ZM28.946 11.4372C28.1716 13.0115 27.1124 15.1683 28.5825 18.1149C29.7575 20.4702 32.589 22.7803 34.1725 23.9459C35.1903 24.695 40.2336 30.0449 39.6544 37.3945C39.4754 39.4028 39.6045 41.4269 40.0375 43.396L41.1564 47.5351C41.2087 47.7621 41.1546 48.0007 41.0097 48.1835C40.8648 48.366 40.6445 48.4726 40.4115 48.4733H29.2684C28.8453 48.4733 28.5021 48.1298 28.5021 47.7067C28.5032 46.9485 28.1302 46.2387 27.5057 45.8089L15.0963 37.3011C14.5244 36.9075 14.2872 36.1794 14.5178 35.5244L17.8004 26.204C18.1246 25.2876 18.9899 24.6739 19.9621 24.6711H25.9942C26.4724 24.6707 26.9387 24.8206 27.3271 25.0995L30.8659 27.6327C31.1147 27.8138 31.1841 28.1541 31.027 28.4183C30.7056 28.9573 30.1772 29.34 29.5656 29.4783C28.9537 29.6162 28.312 29.4969 27.7906 29.1481L26.2577 28.125C25.8808 27.8713 25.4366 27.7362 24.9823 27.7369H22.6217C21.6238 27.731 20.7379 28.3748 20.4358 29.326C20.3905 29.4692 20.326 29.647 20.2533 29.847C19.7014 31.3722 18.4138 34.9412 21.3354 36.1131C21.5919 36.2271 21.8901 36.1917 22.1129 36.0212C22.3357 35.8507 22.4473 35.5721 22.4041 35.2949C22.361 35.0174 22.1698 34.7861 21.9059 34.6911C20.6203 34.1753 20.8916 32.5894 21.695 30.3691C21.7761 30.1453 21.8484 29.9484 21.8975 29.7888C21.9996 29.4762 22.2929 29.266 22.6217 29.2699H24.9816C25.1321 29.2699 25.2791 29.3148 25.404 29.3986L26.9369 30.4228C27.8078 31.0042 28.879 31.2031 29.9003 30.973C30.9217 30.7428 31.8041 30.1035 32.3413 29.205C32.9034 28.2548 32.6494 27.0328 31.755 26.3858L30.7073 25.6321C30.7631 25.5556 30.8238 25.4791 30.8712 25.4023C31.4403 24.4529 31.1799 23.2255 30.2751 22.5887L26.3085 19.7727C25.9187 19.4969 25.4531 19.3481 24.9756 19.3471H23.2423C23.0831 18.1601 23.1216 16.9546 23.356 15.7799L26.6219 12.6744C27.8025 11.4881 28.0769 9.67273 27.2994 8.19033C28.112 7.93455 28.9912 8.29173 29.3958 9.04117C29.7758 9.61308 29.5628 10.1818 28.946 11.4372Z" fill="url(#paint0_linear_2326_8815)"/>
<path d="M25.6883 36.2103C25.4283 36.1236 25.1416 36.1822 24.9364 36.364C24.7311 36.5457 24.6385 36.8232 24.6932 37.092C24.7483 37.3608 24.9423 37.5797 25.2023 37.6667C26.9714 38.2597 31.5642 40.387 31.5642 43.0711C31.5642 43.4942 31.9073 43.8374 32.3305 43.8374C32.754 43.8374 33.0971 43.4942 33.0971 43.0711C33.0946 38.7319 25.9911 36.3092 25.6883 36.2103Z" fill="url(#paint1_linear_2326_8815)"/>
<path d="M30.8651 33.4052C30.6992 33.187 30.4297 33.074 30.1581 33.1087C29.8862 33.1435 29.6536 33.3203 29.548 33.5729C29.442 33.8255 29.4788 34.1154 29.6448 34.3332C30.8142 35.8662 32.7598 37.7012 35.3863 37.7012C35.8098 37.7012 36.153 37.358 36.153 36.9345C36.153 36.5114 35.8098 36.1683 35.3863 36.1683C33.3875 36.1683 31.8268 34.6652 30.8651 33.4052Z" fill="url(#paint2_linear_2326_8815)"/>
<path d="M31.3894 4.25675L30.6589 5.02339C30.4593 5.21952 30.3825 5.50898 30.4586 5.77809C30.5347 6.04756 30.7519 6.25422 31.0245 6.31667C31.2975 6.37947 31.5828 6.2886 31.7687 6.07948L32.4992 5.31285C32.6989 5.11671 32.7757 4.82725 32.6996 4.55779C32.6234 4.28868 32.4062 4.08202 32.1336 4.01956C31.8606 3.95676 31.5754 4.04763 31.3894 4.25675Z" fill="url(#paint3_linear_2326_8815)"/>
<path d="M35.0176 7.69747C34.9629 7.50169 34.8323 7.33573 34.6548 7.23609C34.4776 7.13644 34.2678 7.11118 34.072 7.16626L33.0756 7.44696C32.7037 7.548 32.4644 7.90939 32.517 8.29148C32.5696 8.67322 32.8977 8.95637 33.2833 8.95321C33.3538 8.95321 33.424 8.94339 33.4917 8.92409L34.4882 8.6441C34.6839 8.58902 34.8499 8.45815 34.9492 8.28061C35.0485 8.10307 35.073 7.89325 35.0176 7.69747Z" fill="url(#paint4_linear_2326_8815)"/>
<path d="M32.8823 10.8148C32.4746 10.7005 32.0514 10.938 31.937 11.3457C31.8223 11.7534 32.0602 12.1766 32.4675 12.2909L33.464 12.5716C33.5321 12.5906 33.6022 12.6004 33.6728 12.6C34.0556 12.5997 34.3798 12.3169 34.4317 11.9376C34.4836 11.558 34.2475 11.1987 33.8787 11.0952L32.8823 10.8148Z" fill="url(#paint5_linear_2326_8815)"/>
<defs>
<linearGradient id="paint0_linear_2326_8815" x1="11.2871" y1="35.6854" x2="42.3166" y2="35.3142" gradientUnits="userSpaceOnUse">
<stop stop-color="#679FEF"/>
<stop offset="1" stop-color="#A87FFF"/>
</linearGradient>
<linearGradient id="paint1_linear_2326_8815" x1="24.6777" y1="41.3685" x2="32.9907" y2="41.214" gradientUnits="userSpaceOnUse">
<stop stop-color="#679FEF"/>
<stop offset="1" stop-color="#A87FFF"/>
</linearGradient>
<linearGradient id="paint2_linear_2326_8815" x1="29.4883" y1="36.2203" x2="36.0671" y2="36.0589" gradientUnits="userSpaceOnUse">
<stop stop-color="#679FEF"/>
<stop offset="1" stop-color="#A87FFF"/>
</linearGradient>
<linearGradient id="paint3_linear_2326_8815" x1="30.4297" y1="5.58389" x2="32.6996" y2="5.54609" gradientUnits="userSpaceOnUse">
<stop stop-color="#679FEF"/>
<stop offset="1" stop-color="#A87FFF"/>
</linearGradient>
<linearGradient id="paint4_linear_2326_8815" x1="32.5098" y1="8.36857" x2="35.0141" y2="8.30936" gradientUnits="userSpaceOnUse">
<stop stop-color="#679FEF"/>
<stop offset="1" stop-color="#A87FFF"/>
</linearGradient>
<linearGradient id="paint5_linear_2326_8815" x1="31.9082" y1="12.0159" x2="34.4063" y2="11.9569" gradientUnits="userSpaceOnUse">
<stop stop-color="#679FEF"/>
<stop offset="1" stop-color="#A87FFF"/>
</linearGradient>
</defs>
</svg>
