<svg width="21" height="21" viewBox="0 0 21 21" fill="none" xmlns="http://www.w3.org/2000/svg">
<path d="M19.875 9.71875H14.4062C12.6922 9.71875 11.2812 11.1297 11.2812 12.8438C11.2812 14.5578 12.6922 15.9688 14.4062 15.9688H17.5312V18.3125C17.5312 18.7414 17.1789 19.0938 16.75 19.0938H4.25C2.96406 19.0938 1.90625 18.0359 1.90625 16.75V5.03125C1.90625 3.74531 2.96406 2.6875 4.25 2.6875H5.8125C6.24141 2.6875 6.59375 2.33516 6.59375 1.90625C6.59375 1.47734 6.24141 1.125 5.8125 1.125H4.25C2.10703 1.125 0.34375 2.88828 0.34375 5.03125V16.75C0.34375 18.893 2.10703 20.6562 4.25 20.6562H16.75C18.0359 20.6562 19.0938 19.5984 19.0938 18.3125V15.9688H19.875C20.3039 15.9688 20.6562 15.6164 20.6562 15.1875V10.5C20.6562 10.0711 20.3039 9.71875 19.875 9.71875ZM19.0938 14.4062H14.4062C13.5492 14.4062 12.8438 13.7008 12.8438 12.8438C12.8438 11.9867 13.5492 11.2812 14.4062 11.2812H19.0938V14.4062Z" fill="#8B93AB"/>
<path d="M3.96876 4.30434C3.09689 4.68481 3.38517 5.81216 4.25001 5.81216H16.75C17.1789 5.81216 17.5313 6.1645 17.5313 6.59341V7.37466C17.5313 7.80356 17.8836 8.15591 18.3125 8.15591C18.7414 8.15591 19.0938 7.80356 19.0938 7.37466V6.59341C19.093 5.97231 18.8461 5.37622 18.4063 4.93716C17.9672 4.49731 17.3711 4.25044 16.75 4.24966H16.5L15.1328 0.835594C14.9742 0.441062 14.5211 0.244187 14.125 0.398094L3.96876 4.30434ZM14.8125 4.24966H8.46095L13.9688 2.13247L14.8125 4.24966Z" fill="#8B93AB"/>
</svg>
