<svg width="94" height="126" viewBox="0 0 94 126" fill="none" xmlns="http://www.w3.org/2000/svg">
<path d="M49 88V49C49 45.4 46.1 42.5 42.5 42.5H10.5C6.9 42.5 4 45.4 4 49V115.9C4 119.5 6.9 122.4 10.5 122.4H42.4C46 122.4 48.9 119.5 48.9 115.9V94.2V88H49Z" stroke="black" stroke-width="7" stroke-miterlimit="10" stroke-linecap="round" stroke-linejoin="round"/>
<path d="M4 111.6H49" stroke="black" stroke-width="6" stroke-miterlimit="10" stroke-linecap="round" stroke-linejoin="round"/>
<path d="M33.4 52H19.6" stroke="black" stroke-width="5" stroke-miterlimit="10" stroke-linecap="round" stroke-linejoin="round"/>
<path d="M72.7 53.4C76.2 46.7 76.5 38.5 72.9 31.3C69.3 24.1 62.5 19.4 55.1 18.3" stroke="black" stroke-width="7" stroke-miterlimit="10" stroke-linecap="round" stroke-linejoin="round"/>
<path d="M59.7 46.9C61.2 44.2 61.4 40.8 59.9 37.9C58.4 35 55.6 33.1 52.5 32.7" stroke="black" stroke-width="7" stroke-miterlimit="10" stroke-linecap="round" stroke-linejoin="round"/>
<path d="M85.7999 59.8C91.1999 49.2 91.6999 36.2 85.8999 24.8C80.1999 13.4 69.5 6 57.7 4" stroke="black" stroke-width="7" stroke-miterlimit="10" stroke-linecap="round" stroke-linejoin="round"/>
</svg>
