<?xml version="1.0" encoding="utf-8"?>

<!-- Uploaded to: SVG Repo, www.svgrepo.com, Generator: SVG Repo Mixer Tools -->
<svg version="1.1" id="Icons" xmlns="http://www.w3.org/2000/svg" xmlns:xlink="http://www.w3.org/1999/xlink" 
	 viewBox="0 0 32 32" xml:space="preserve">
<style type="text/css">
	.st0{fill:none;stroke:#000000;stroke-width:2;stroke-linecap:round;stroke-linejoin:round;stroke-miterlimit:10;}
</style>
<path d="M27,8h-3.4l-1.2-2.3c-0.5-1-1.5-1.7-2.7-1.7h-7.5c-1.1,0-2.2,0.6-2.7,1.7L8.4,8H5c-1.7,0-3,1.3-3,3v14c0,1.7,1.3,3,3,3h22
	c1.7,0,3-1.3,3-3V11C30,9.3,28.7,8,27,8z M8,13H6c-0.6,0-1-0.4-1-1s0.4-1,1-1h2c0.6,0,1,0.4,1,1S8.6,13,8,13z M16,24
	c-3.9,0-7-3.1-7-7s3.1-7,7-7s7,3.1,7,7S19.9,24,16,24z"/>
</svg>