<svg width="20" height="18" viewBox="0 0 20 18" fill="none" xmlns="http://www.w3.org/2000/svg">
<path d="M19.4141 3.70703H14.1162V2.54266C14.1162 1.23809 13.0548 0.176758 11.7503 0.176758H8.24973C6.9452 0.176758 5.88383 1.23809 5.88383 2.54266V3.70703H0.585938C0.262344 3.70703 0 3.96937 0 4.29297V14.9375C0 16.5287 1.29457 17.8232 2.88574 17.8232H17.1143C18.7054 17.8232 20 16.5287 20 14.9375V4.29297C20 3.96937 19.7377 3.70703 19.4141 3.70703ZM11.3295 11.3535C11.3295 12.0866 10.733 12.683 10 12.683C9.26695 12.683 8.67051 12.0866 8.67051 11.3535V10.024H11.3295V11.3535ZM11.9154 8.85215H8.08457C7.76098 8.85215 7.49863 9.11449 7.49863 9.43809V10.5024C4.09129 9.76289 1.53703 7.55281 1.2084 4.87891H18.7916C18.4629 7.55281 15.9087 9.76289 12.5014 10.5025V9.43813C12.5014 9.11449 12.239 8.85215 11.9154 8.85215ZM7.05566 2.54266C7.05566 1.88426 7.59133 1.34863 8.24969 1.34863H11.7503C12.4086 1.34863 12.9443 1.88426 12.9443 2.54266V3.70703H7.05562V2.54266H7.05566ZM18.8281 14.9375C18.8281 15.8825 18.0593 16.6514 17.1143 16.6514H2.88574C1.94074 16.6514 1.17188 15.8825 1.17188 14.9375V7.90055C1.64492 8.57699 2.25484 9.20164 2.99168 9.75426C4.26852 10.7119 5.8273 11.3767 7.52379 11.7047C7.69512 12.9182 8.73996 13.8548 10 13.8548C11.26 13.8548 12.3049 12.9182 12.4762 11.7047C14.1727 11.3767 15.7314 10.7119 17.0083 9.75426C17.7452 9.20164 18.3551 8.57695 18.8281 7.90055V14.9375Z" fill="#8B93AB"/>
</svg>
