<svg width="11" height="7" viewBox="0 0 11 7" fill="none" xmlns="http://www.w3.org/2000/svg">
<path d="M5.82346 4.30348H5.25336V3.99317C5.25336 3.86328 5.26779 3.76706 5.29666 3.70451C5.33033 3.63716 5.4025 3.54816 5.51315 3.4375L5.88119 3.06946C5.95817 2.98768 5.99666 2.88183 5.99666 2.75194C5.99666 2.62685 5.95576 2.52341 5.87398 2.44163C5.797 2.35984 5.69356 2.31895 5.56367 2.31895C5.43377 2.31895 5.32552 2.35984 5.23893 2.44163C5.15233 2.5186 5.10422 2.62204 5.0946 2.75194H4.48119C4.51487 2.45366 4.63033 2.22032 4.82759 2.05194C5.02965 1.87874 5.28222 1.79214 5.58532 1.79214C5.88841 1.79214 6.13377 1.87634 6.3214 2.04472C6.50903 2.20829 6.60284 2.43441 6.60284 2.72307C6.60284 2.92032 6.54511 3.08871 6.42965 3.22823C6.35748 3.32445 6.26607 3.42307 6.15542 3.5241C6.03996 3.62994 5.96058 3.70933 5.91728 3.76225C5.85473 3.84884 5.82346 3.95469 5.82346 4.07977V4.30348ZM5.15954 5.054C5.15954 4.95297 5.19803 4.86637 5.27501 4.79421C5.35198 4.71723 5.44339 4.67874 5.54923 4.67874C5.65508 4.67874 5.74649 4.71482 5.82346 4.78699C5.90044 4.85915 5.93893 4.94575 5.93893 5.04678C5.93893 5.15262 5.90044 5.24403 5.82346 5.32101C5.7513 5.39317 5.66229 5.42926 5.55645 5.42926C5.45061 5.42926 5.3568 5.39317 5.27501 5.32101C5.19803 5.24403 5.15954 5.15503 5.15954 5.054Z" fill="#9198B3"/>
<rect x="0.25" y="0.25" width="10.5" height="6.5" stroke="#9198B3" stroke-width="0.5"/>
</svg>
