<svg width="176" height="162" viewBox="0 0 176 162" fill="none" xmlns="http://www.w3.org/2000/svg">
<path d="M22.221 0H152.943C165.215 0 175.164 9.859 175.164 22.021V139.435C175.164 151.597 165.215 161.456 152.943 161.456H22.221C9.949 161.456 0 151.597 0 139.435V22.021C0 9.859 9.949 0 22.221 0Z" fill="url(#paint0_linear_231_242)"/>
<path d="M129.432 33.936C138.235 33.936 145.332 41.073 145.332 49.836V103.836C145.332 112.569 138.265 119.636 129.532 119.636H46.132C37.099 119.636 29.832 112.369 29.832 103.336V49.936C29.832 41.103 36.999 33.936 45.832 33.936H129.432ZM129.432 40.936H45.832C40.865 40.936 36.832 44.969 36.832 49.936V103.336C36.832 108.503 40.965 112.636 46.132 112.636H129.532C134.399 112.636 138.332 108.703 138.332 103.836V49.836C138.332 44.93 134.36 40.936 129.432 40.936Z" fill="url(#paint1_linear_231_242)"/>
<path d="M132.433 113.136C135.183 113.136 136.484 116.529 134.438 118.367L118.638 132.567C116.707 134.303 113.633 132.932 113.633 130.336V116.136C113.633 114.479 114.976 113.136 116.633 113.136H132.433Z" fill="url(#paint2_linear_231_242)"/>
<path d="M84.0618 58.0688C85.8568 58.0688 87.3128 59.5238 87.3118 61.3188C87.3128 63.1138 85.8568 64.5688 84.0618 64.5688H55.8848C54.0898 64.5688 52.6348 63.1138 52.6348 61.3188C52.6348 59.5238 54.0898 58.0688 55.8848 58.0688H84.0618Z" fill="url(#paint3_linear_231_242)"/>
<path d="M55.8848 79.9512C54.0898 79.9512 52.6348 78.4962 52.6348 76.7012C52.6348 74.9062 54.0898 73.4512 55.8848 73.4512H100.016C101.811 73.4512 103.266 74.9062 103.266 76.7012C103.266 78.4962 101.811 79.9512 100.016 79.9512H55.8848Z" fill="url(#paint4_linear_231_242)"/>
<path d="M55.8848 95.5029C54.0898 95.5029 52.6348 94.0479 52.6348 92.2529C52.6348 90.4579 54.0898 89.0029 55.8848 89.0029H115.409C117.204 89.0029 118.659 90.4579 118.659 92.2529C118.659 94.0479 117.204 95.5029 115.409 95.5029H55.8848Z" fill="url(#paint5_linear_231_242)"/>
<defs>
<linearGradient id="paint0_linear_231_242" x1="86.949" y1="4.183" x2="86.527" y2="156.018" gradientUnits="userSpaceOnUse">
<stop stop-color="#31394B"/>
<stop offset="1" stop-color="#262C3B"/>
</linearGradient>
<linearGradient id="paint1_linear_231_242" x1="29.832" y1="76.786" x2="145.332" y2="76.786" gradientUnits="userSpaceOnUse">
<stop stop-color="#6756E2"/>
<stop offset="1" stop-color="#BF37C3"/>
</linearGradient>
<linearGradient id="paint2_linear_231_242" x1="114.079" y1="117.892" x2="135.311" y2="116.983" gradientUnits="userSpaceOnUse">
<stop stop-color="#A540CC"/>
<stop offset="1" stop-color="#B839C5"/>
</linearGradient>
<linearGradient id="paint3_linear_231_242" x1="41.3308" y1="61.3948" x2="146.514" y2="62.2438" gradientUnits="userSpaceOnUse">
<stop stop-color="#6E53DF"/>
<stop offset="1" stop-color="#C833BF"/>
</linearGradient>
<linearGradient id="paint4_linear_231_242" x1="41.3308" y1="76.7772" x2="146.514" y2="77.6262" gradientUnits="userSpaceOnUse">
<stop stop-color="#6E53DF"/>
<stop offset="1" stop-color="#C833BF"/>
</linearGradient>
<linearGradient id="paint5_linear_231_242" x1="41.3308" y1="92.3289" x2="146.514" y2="93.1779" gradientUnits="userSpaceOnUse">
<stop stop-color="#6E53DF"/>
<stop offset="1" stop-color="#C833BF"/>
</linearGradient>
</defs>
</svg>
