<svg width="176" height="162" viewBox="0 0 176 162" fill="none" xmlns="http://www.w3.org/2000/svg">
<path d="M22.221 0H152.943C165.215 0 175.163 9.859 175.163 22.021V139.435C175.163 151.596 165.215 161.455 152.943 161.455H22.221C9.949 161.455 0 151.596 0 139.435V22.021C0 9.859 9.949 0 22.221 0Z" fill="url(#paint0_linear_309_169)"/>
<path d="M117.765 29.875C119.639 29.875 121.18 31.351 121.262 33.223C121.27 33.409 121.281 33.746 121.292 34.223C121.369 37.487 121.315 41.591 121.032 46.226C120.619 53.014 119.781 59.703 118.414 65.992C113.774 87.333 103.952 100.622 87.2767 100.622C70.6027 100.622 60.7807 87.333 56.1407 65.992C54.7737 59.703 53.9357 53.014 53.5227 46.226C53.2397 41.591 53.1857 37.487 53.2617 34.223C53.2737 33.746 53.2847 33.409 53.2927 33.223C53.3747 31.351 54.9157 29.875 56.7897 29.875H117.765ZM114.323 36.875H60.2317C60.3687 43.657 60.2507 40.683 60.5097 45.801C60.9027 52.255 61.6977 58.599 62.9817 64.505C67.0037 83.007 74.8497 93.622 87.2767 93.622C99.7047 93.622 107.551 83.007 111.573 64.505C112.857 58.599 113.652 52.255 114.045 45.801C114.304 40.683 114.186 43.657 114.323 36.875Z" fill="#AEAFBF"/>
<path d="M129.562 41.7559C131.409 41.7559 132.938 43.1909 133.055 45.0339C133.066 45.2109 133.082 45.5179 133.097 45.9439C133.261 50.6179 132.995 56.0569 131.939 61.3179C131.446 63.7719 130.798 66.0459 129.971 68.1069C128.374 72.0889 125.472 75.4909 121.678 78.3899C119.695 79.9059 117.587 81.1909 115.48 82.2589C114.203 82.9049 113.19 83.3439 112.564 83.5809C110.756 84.2639 108.736 83.3519 108.053 81.5439C107.37 79.7359 108.282 77.7159 110.09 77.0329C110.168 77.0029 110.358 76.9259 110.643 76.8029C111.143 76.5869 111.706 76.3239 112.316 76.0139C114.064 75.1289 115.813 74.0629 117.428 72.8279C120.301 70.6319 122.406 68.1649 123.475 65.5009C124.13 63.8669 124.663 61.9979 125.076 59.9399C125.783 56.2579 126.164 52.5089 126.127 48.7559H118.476C116.543 48.7559 114.976 47.1889 114.976 45.2559C114.976 43.3229 116.543 41.7559 118.476 41.7559H129.562Z" fill="#AEAFBF"/>
<path d="M56.9765 41.7388C58.9095 41.7388 60.4765 43.3058 60.4765 45.2388C60.4765 47.1718 58.9095 48.7388 56.9765 48.7388H49.0725C48.6215 54.4708 49.8905 60.0988 51.9445 65.4048C53.2525 68.4488 55.1775 70.9228 57.5735 72.9048C59.2265 74.2728 61.0055 75.3268 62.7785 76.0998C63.3915 76.3668 63.9545 76.5778 64.4495 76.7388C64.7205 76.8268 64.8905 76.8738 64.9425 76.8868C66.8215 77.3378 67.9795 79.2268 67.5285 81.1068C67.0765 82.9868 65.1875 84.1438 63.3075 83.6928C62.5695 83.5158 61.4165 83.1418 59.9815 82.5168C57.6385 81.4948 55.3015 80.1098 53.1115 78.2988C49.8915 75.6338 47.2785 72.2758 45.5135 68.1678C42.2995 60.6878 41.5705 53.0158 42.2255 46.3398C42.3025 45.5558 42.3825 44.9788 42.4425 44.6348C42.7355 42.9608 44.1895 41.7388 45.8895 41.7388H56.9765Z" fill="#AEAFBF"/>
<path d="M78.158 91.7959L78.862 91.8739C80.753 92.2759 81.96 94.1339 81.558 96.0249L76.725 118.755C76.323 120.646 74.464 121.853 72.573 121.451C70.683 121.049 69.476 119.19 69.878 117.3L74.711 94.5689C75.307 92.5499 76.247 92.1609 78.158 91.7959Z" fill="#AEAFBF"/>
<path d="M96.3972 91.7959C98.1852 91.9309 99.3072 92.8929 99.8442 94.5689L103.442 110.456C103.844 112.347 102.638 114.206 100.747 114.607C98.8562 115.01 96.9972 113.803 96.5952 111.912L92.9972 96.0249C92.5952 94.1339 93.8022 92.2759 95.6922 91.8739L96.3972 91.7959Z" fill="#AEAFBF"/>
<path d="M97.8826 116.234C99.8156 116.234 101.383 117.801 101.383 119.734C101.383 121.667 99.8156 123.234 97.8826 123.234H64.1406C62.2076 123.234 60.6406 121.667 60.6406 119.734C60.6406 117.801 62.2076 116.234 64.1406 116.234H97.8826Z" fill="#AEAFBF"/>
<path d="M109.344 128.402C111.277 128.402 112.844 129.969 112.844 131.902C112.844 133.835 111.277 135.402 109.344 135.402H64.1406C62.2076 135.402 60.6406 133.835 60.6406 131.902C60.6406 129.969 62.2076 128.402 64.1406 128.402H109.344Z" fill="#AEAFBF"/>
<path d="M89.5581 50.354C90.3101 50.82 90.0931 50.522 90.3631 51.111L91.7571 57.033L97.9831 55.572C98.5211 55.445 99.0601 55.78 99.1861 56.318L100.892 63.618C101.018 64.156 100.685 64.694 100.147 64.82L93.9191 66.281L95.2991 72.204C95.4241 72.742 95.0901 73.279 94.5531 73.405L86.9141 75.196C86.3761 75.323 85.8371 74.988 85.7121 74.449L84.3331 68.528L78.1071 69.975C77.5701 70.1 77.0331 69.766 76.9071 69.228L75.2001 61.927C75.0751 61.39 75.4081 60.852 75.9461 60.726L82.1701 59.265L80.7781 53.361C80.6511 52.823 80.9851 52.284 81.5231 52.158L89.1621 50.366L89.5581 50.354Z" fill="#AEAFBF"/>
<path d="M64.147 116.234C66.08 116.237 67.645 117.806 67.642 119.739L67.625 131.907C67.623 133.84 66.054 135.405 64.121 135.402C62.188 135.4 60.623 133.831 60.625 131.897L60.642 119.729C60.645 117.797 62.214 116.232 64.147 116.234Z" fill="#AEAFBF"/>
<path d="M111.381 96.397C113.091 96.397 114.779 96.619 116.409 97.051C118.214 97.53 119.288 99.381 118.81 101.185C118.331 102.989 116.48 104.064 114.676 103.585C113.609 103.302 112.504 103.157 111.381 103.157C104.342 103.157 98.6389 108.86 98.6389 115.9C98.6389 122.939 104.342 128.642 111.381 128.642C118.421 128.642 124.124 122.939 124.124 115.9C124.124 114.033 125.637 112.52 127.504 112.52C129.371 112.52 130.884 114.033 130.884 115.9C130.884 126.673 122.154 135.402 111.381 135.402C100.608 135.402 91.8789 126.673 91.8789 115.9C91.8789 105.127 100.608 96.397 111.381 96.397Z" fill="#AEAFBF"/>
<path d="M111.382 92.897C113.388 92.897 115.378 93.157 117.307 93.668C120.979 94.643 123.167 98.41 122.193 102.082C121.218 105.755 117.451 107.943 113.779 106.968C113.001 106.762 112.197 106.657 111.381 106.657C106.275 106.657 102.139 110.793 102.139 115.9C102.139 121.006 106.275 125.142 111.381 125.142C116.488 125.142 120.624 121.006 120.624 115.9C120.624 112.1 123.704 109.02 127.504 109.02C131.304 109.02 134.384 112.1 134.384 115.9C134.384 128.606 124.087 138.902 111.381 138.902C98.6749 138.902 88.3789 128.606 88.3789 115.9C88.3789 103.194 98.6749 92.897 111.381 92.897H111.382ZM111.381 96.397C100.608 96.397 91.8789 105.127 91.8789 115.9C91.8789 126.673 100.608 135.402 111.381 135.402C122.154 135.402 130.884 126.673 130.884 115.9C130.884 114.033 129.371 112.52 127.504 112.52C125.637 112.52 124.124 114.033 124.124 115.9C124.124 122.939 118.421 128.642 111.381 128.642C104.342 128.642 98.6389 122.939 98.6389 115.9C98.6389 108.86 104.342 103.157 111.381 103.157C112.504 103.157 113.609 103.302 114.676 103.585C116.48 104.064 118.331 102.989 118.81 101.185C119.288 99.381 118.214 97.53 116.409 97.051C114.779 96.619 113.091 96.397 111.381 96.397Z" fill="url(#paint1_linear_309_169)"/>
<path d="M128.797 96.458C130.255 96.952 129.684 96.624 130.594 97.279C131.992 98.517 132.121 100.653 130.884 102.05L114.664 122.095C113.37 123.556 111.111 123.621 109.735 122.237L103.004 115.389C101.688 114.064 101.695 111.924 103.019 110.609C104.344 109.293 106.484 109.3 107.799 110.624L111.992 114.916L125.823 97.569C126.778 96.538 127.491 96.538 128.797 96.458Z" fill="#AEAFBF"/>
<defs>
<linearGradient id="paint0_linear_309_169" x1="86.949" y1="4.183" x2="86.526" y2="156.018" gradientUnits="userSpaceOnUse">
<stop stop-color="#31394B"/>
<stop offset="1" stop-color="#262C3B"/>
</linearGradient>
<linearGradient id="paint1_linear_309_169" x1="113.354" y1="159.15" x2="112.048" y2="2.34498" gradientUnits="userSpaceOnUse">
<stop stop-color="#272C3B"/>
<stop offset="1" stop-color="#31384B"/>
</linearGradient>
</defs>
</svg>
