<svg width="176" height="162" viewBox="0 0 176 162" fill="none" xmlns="http://www.w3.org/2000/svg">
<path d="M22.221 0H152.943C165.215 0 175.164 9.859 175.164 22.021V139.435C175.164 151.597 165.215 161.456 152.943 161.456H22.221C9.949 161.456 0 151.597 0 139.435V22.021C0 9.859 9.949 0 22.221 0Z" fill="url(#paint0_linear_231_237)"/>
<path d="M56.9006 28.7529C62.6316 28.6279 67.7726 30.5119 72.8126 32.9809C78.1336 35.7459 82.3696 39.8719 86.1466 44.4369C89.5826 39.6079 94.2926 36.0349 99.3456 33.0529C107.523 28.6039 116.354 27.4479 124.839 30.6169C138.107 35.4819 146.629 49.1439 145.511 63.4479C145.363 65.2899 145.037 67.1679 144.542 69.0799C143.892 71.5869 142.952 74.1499 141.736 76.7649C140.921 78.5179 138.84 79.2779 137.087 78.4639C135.334 77.6489 134.573 75.5669 135.388 73.8139C136.432 71.5689 137.227 69.4019 137.766 67.3239C138.162 65.7939 138.419 64.3139 138.533 62.8939C139.409 51.6909 132.715 40.9609 122.409 37.1819C115.964 34.7749 109.201 35.6599 102.691 39.2019C97.3706 42.0959 92.6366 46.6599 90.4496 50.5339C88.4976 53.7879 83.8296 53.7879 81.8636 50.5109C79.5736 46.6269 74.7786 42.0289 69.4596 39.1259C62.9206 35.5559 56.1816 34.6909 49.7006 37.1889C39.4146 40.9609 32.7216 51.6909 33.5956 62.8859C33.9246 66.9669 35.4096 71.4619 37.9806 76.2999C42.5596 84.9129 50.3566 94.2439 60.4536 103.82C66.4886 109.543 72.9676 114.998 79.4456 119.995C81.7136 121.743 83.8176 123.309 85.7026 124.667L86.0646 124.926C86.7076 124.469 86.1816 124.844 87.6346 123.79C90.4496 121.731 93.5206 119.387 96.7406 116.803C98.5176 115.377 100.296 113.913 102.062 112.418C103.537 111.169 105.746 111.352 106.995 112.827C108.244 114.303 108.061 116.511 106.585 117.76C104.771 119.296 102.946 120.799 101.121 122.263C97.8166 124.915 94.6636 127.321 91.7676 129.44C90.7516 130.183 89.8386 130.838 89.0426 131.399C88.7626 131.597 88.5166 131.769 88.3056 131.915C88.1776 132.004 88.0876 132.066 88.0376 132.1C86.8476 132.912 85.2816 132.912 84.0916 132.1C83.9706 132.017 83.7466 131.863 83.4276 131.639C82.9016 131.271 82.2936 130.839 81.6106 130.347C79.6656 128.945 77.5006 127.334 75.1716 125.538C68.5156 120.405 61.8606 114.801 55.6366 108.899C45.0386 98.8479 36.7946 88.9829 31.7996 79.5849C28.8106 73.9619 27.0316 68.5749 26.6176 63.4399C25.5006 49.1439 34.0236 35.4819 47.2366 30.6369C52.5106 28.9499 49.3306 29.7599 56.9006 28.7529Z" fill="url(#paint1_linear_231_237)"/>
<path d="M119.765 64.0669C136.076 64.0669 149.314 77.1539 149.314 93.3189C149.314 109.483 136.076 122.57 119.765 122.57C103.455 122.57 90.2168 109.483 90.2168 93.3189C90.2168 77.1539 103.455 64.0669 119.765 64.0669ZM119.765 71.0669C107.303 71.0669 97.2168 81.0379 97.2168 93.3189C97.2168 105.599 107.303 115.57 119.765 115.57C132.228 115.57 142.314 105.599 142.314 93.3189C142.314 81.0379 132.228 71.0669 119.765 71.0669Z" fill="url(#paint2_linear_231_237)"/>
<path d="M122.432 112.24C120.456 112.625 121.462 112.475 119.41 112.683C108.763 112.476 100.308 103.584 100.518 92.8278C100.803 89.9858 100.529 91.0488 100.969 89.5688L122.432 112.24Z" fill="url(#paint3_linear_231_237)"/>
<path d="M137.947 99.1928C137.223 101.248 137.653 100.236 136.647 102.225L111.504 75.6658C113.259 74.9568 112.287 75.3498 114.421 74.4868C114.459 74.4798 114.498 74.4728 114.537 74.4658L137.947 99.1928Z" fill="url(#paint4_linear_231_237)"/>
<path d="M139.062 93.5781L138.939 95.3501L118.514 73.7751L120.169 73.7231C130.816 73.9301 139.271 82.8221 139.062 93.5781Z" fill="url(#paint5_linear_231_237)"/>
<defs>
<linearGradient id="paint0_linear_231_237" x1="86.949" y1="4.183" x2="86.527" y2="156.018" gradientUnits="userSpaceOnUse">
<stop stop-color="#31394B"/>
<stop offset="1" stop-color="#262C3B"/>
</linearGradient>
<linearGradient id="paint1_linear_231_237" x1="26.5196" y1="80.7279" x2="145.609" y2="80.7279" gradientUnits="userSpaceOnUse">
<stop stop-color="#6657E3"/>
<stop offset="1" stop-color="#C236C2"/>
</linearGradient>
<linearGradient id="paint2_linear_231_237" x1="36.4688" y1="93.6119" x2="149.541" y2="93.4259" gradientUnits="userSpaceOnUse">
<stop stop-color="#6856E2"/>
<stop offset="1" stop-color="#BF37C3"/>
</linearGradient>
<linearGradient id="paint3_linear_231_237" x1="29.0315" y1="77.9124" x2="145.473" y2="79.1784" gradientUnits="userSpaceOnUse">
<stop stop-color="#6856E2"/>
<stop offset="1" stop-color="#BE37C3"/>
</linearGradient>
<linearGradient id="paint4_linear_231_237" x1="31.2307" y1="80.5481" x2="147.892" y2="81.3751" gradientUnits="userSpaceOnUse">
<stop stop-color="#6756E2"/>
<stop offset="1" stop-color="#C137C3"/>
</linearGradient>
<linearGradient id="paint5_linear_231_237" x1="31.2344" y1="90.8742" x2="149.873" y2="91.2607" gradientUnits="userSpaceOnUse">
<stop stop-color="#6856E2"/>
<stop offset="1" stop-color="#BC38C4"/>
</linearGradient>
</defs>
</svg>
