<svg width="176" height="162" viewBox="0 0 176 162" fill="none" xmlns="http://www.w3.org/2000/svg">
<path d="M22.221 0H152.943C165.215 0 175.163 9.859 175.163 22.021V139.435C175.163 151.596 165.215 161.455 152.943 161.455H22.221C9.949 161.455 0 151.596 0 139.435V22.021C0 9.859 9.949 0 22.221 0Z" fill="url(#paint0_linear_309_172)"/>
<path d="M107.298 92.897C109.007 92.897 110.696 93.119 112.326 93.551C114.13 94.03 115.205 95.881 114.726 97.685C114.248 99.489 112.397 100.564 110.593 100.085C109.526 99.802 108.42 99.657 107.298 99.657C100.258 99.657 94.5549 105.36 94.5549 112.4C94.5549 119.439 100.258 125.143 107.298 125.142C114.337 125.143 120.041 119.439 120.041 112.4C120.041 110.533 121.554 109.02 123.421 109.02C125.287 109.02 126.801 110.533 126.801 112.4C126.801 123.173 118.071 131.902 107.298 131.902C96.5249 131.902 87.7949 123.173 87.7949 112.4C87.7949 101.627 96.5249 92.897 107.298 92.897Z" fill="#AEAFBF"/>
<path d="M125.216 94.314C126.674 94.808 126.103 94.479 127.013 95.135C128.411 96.372 128.541 98.508 127.303 99.906L110.162 119.216C108.868 120.677 106.609 120.742 105.234 119.357L98.5019 112.51C97.1859 111.185 97.1929 109.045 98.5179 107.73C99.8419 106.414 101.982 106.421 103.298 107.745L107.49 112.037L122.242 95.424C123.197 94.394 123.91 94.393 125.216 94.314Z" fill="#AEAFBF"/>
<path d="M111.607 73.1919C120.678 73.1919 128.152 80.0439 128.153 88.6379C128.152 90.5049 126.639 92.0179 124.773 92.0179C122.906 92.0179 121.393 90.5049 121.393 88.6379C121.393 83.9149 117.069 79.9519 111.607 79.9519H62.6482C57.1482 79.9519 52.7952 83.9359 52.7952 88.6889V126.647C52.7952 128.513 51.2822 130.027 49.4152 130.027C47.5492 130.027 46.0352 128.513 46.0352 126.647V88.6889C46.0352 80.0619 53.5412 73.1919 62.6482 73.1919H111.607Z" fill="#AEAFBF"/>
<path d="M87.4903 22.458C100.889 22.458 111.826 32.795 111.826 45.645C111.826 58.494 100.889 68.832 87.4903 68.832C74.0913 68.832 63.1543 58.494 63.1543 45.645C63.1543 32.795 74.0913 22.458 87.4903 22.458ZM87.4903 29.218C77.7423 29.218 69.9143 36.617 69.9143 45.645C69.9143 54.673 77.7423 62.072 87.4903 62.072C97.2383 62.072 105.066 54.673 105.066 45.645C105.066 36.617 97.2383 29.218 87.4903 29.218Z" fill="#AEAFBF"/>
<defs>
<linearGradient id="paint0_linear_309_172" x1="86.949" y1="4.183" x2="86.526" y2="156.018" gradientUnits="userSpaceOnUse">
<stop stop-color="#31394B"/>
<stop offset="1" stop-color="#262C3B"/>
</linearGradient>
</defs>
</svg>
