<svg width="176" height="162" viewBox="0 0 176 162" fill="none" xmlns="http://www.w3.org/2000/svg">
<path d="M22.221 0H152.943C165.215 0 175.163 9.859 175.163 22.021V139.435C175.163 151.596 165.215 161.455 152.943 161.455H22.221C9.949 161.455 0 151.596 0 139.435V22.021C0 9.859 9.949 0 22.221 0Z" fill="url(#paint0_linear_309_173)"/>
<path d="M68.134 72.1198C68.677 72.1098 69.122 72.4438 69.584 72.6868L113.504 104.967C115.061 106.112 115.396 108.303 114.251 109.86C113.106 111.418 110.916 111.753 109.358 110.608L67.47 79.821L26.404 108.815C24.825 109.93 22.641 109.554 21.526 107.975C20.411 106.396 20.787 104.212 22.367 103.097L65.492 72.648L66.48 72.163C67.554 72.156 67.002 72.1688 68.134 72.1198Z" fill="#AEAFBF"/>
<path d="M120.453 75.8396C120.996 75.8296 121.441 76.1636 121.903 76.4066L152.85 99.1386C154.408 100.283 154.743 102.474 153.599 104.032C152.455 105.59 150.264 105.925 148.706 104.78L119.791 83.5406L97.731 99.1256C96.152 100.242 93.968 99.8656 92.853 98.2866C91.737 96.7076 92.113 94.5236 93.692 93.4086L117.812 76.3686L118.799 75.8826C119.873 75.8756 119.321 75.8886 120.453 75.8396Z" fill="#AEAFBF"/>
<path d="M94.67 48.1006C102.634 48.1006 109.09 54.5566 109.09 62.5206C109.09 70.4846 102.634 76.9406 94.67 76.9406C86.706 76.9406 80.25 70.4846 80.25 62.5206C80.25 54.5566 86.706 48.1006 94.67 48.1006ZM94.67 55.1006C90.572 55.1006 87.25 58.4226 87.25 62.5206C87.25 66.6186 90.572 69.9406 94.67 69.9406C98.768 69.9406 102.09 66.6186 102.09 62.5206C102.09 58.4226 98.768 55.1006 94.67 55.1006Z" fill="#AEAFBF"/>
<path d="M137.802 30.0078C147.978 30.0078 156.182 38.2568 156.182 48.3878V113.188C156.182 123.281 148.015 131.448 137.922 131.448H125.202C124.454 131.372 124.714 131.468 124.38 131.328H37.9624C27.4564 131.328 18.9824 122.989 18.9824 112.468V48.5078C18.9824 38.2948 27.2694 30.0078 37.4824 30.0078H137.802ZM137.802 37.0078H37.4824C31.1354 37.0078 25.9824 42.1608 25.9824 48.5078V112.468C25.9824 119.098 31.2974 124.328 37.9624 124.328H125.202C125.949 124.403 125.689 124.307 126.023 124.448H137.922C144.149 124.448 149.182 119.415 149.182 113.188V48.3878C149.182 42.1148 144.103 37.0078 137.802 37.0078Z" fill="#AEAFBF"/>
<defs>
<linearGradient id="paint0_linear_309_173" x1="86.949" y1="4.183" x2="86.526" y2="156.018" gradientUnits="userSpaceOnUse">
<stop stop-color="#31394B"/>
<stop offset="1" stop-color="#262C3B"/>
</linearGradient>
</defs>
</svg>
