<svg width="199" height="185" viewBox="0 0 199 185" fill="none" xmlns="http://www.w3.org/2000/svg">
<g filter="url(#filter0_f_309_177)">
<path d="M164.943 12C177.215 12 187.163 21.859 187.163 34.021V151.435C187.163 163.596 177.215 173.455 164.943 173.455H34.221C21.949 173.455 12 163.596 12 151.435V34.021C12 21.859 21.949 12 34.221 12H164.943Z" fill="black" fill-opacity="0.498"/>
</g>
<path d="M34.221 12H164.943C177.215 12 187.163 21.859 187.163 34.021V151.435C187.163 163.596 177.215 173.455 164.943 173.455H34.221C21.949 173.455 12 163.596 12 151.435V34.021C12 21.859 21.949 12 34.221 12Z" fill="url(#paint0_linear_309_177)"/>
<path d="M141.534 32.4862C148.056 32.1932 153.038 36.6732 153.417 43.1822L153.917 116.982C153.848 117.72 153.941 117.469 153.814 117.777C153.516 126.651 144.999 132.112 137.3 134.205C126.51 136.697 115.883 132.127 113.845 123.302C111.807 114.477 119.355 105.711 130.145 103.219L130.272 103.192C130.66 103.118 131.562 102.941 131.694 102.916C132.096 102.84 132.362 102.798 132.683 102.767C132.864 102.749 134.52 102.644 135.681 102.553C135.8 102.543 135.92 102.54 136.039 102.543C139.804 102.655 143.608 103.412 146.838 105.421L146.534 60.4322L74.0171 77.1522L75.5161 134.915C75.4601 135.667 75.5491 135.402 75.4141 135.748C75.1571 144.689 66.6671 150.195 58.8961 152.306C48.1061 154.798 37.4781 150.229 35.4401 141.403C33.4031 132.578 40.9511 123.812 51.7411 121.32C55.0661 120.686 53.0771 120.985 57.7381 120.645C61.3891 120.787 65.0691 121.535 68.2161 123.449L66.5181 58.0032C66.3741 52.7812 69.9581 48.2892 75.0621 47.0882L140.274 32.6862L141.534 32.4862ZM57.3641 127.642C54.2271 127.914 55.5701 127.703 53.3161 128.141C45.9171 129.85 41.2181 135.308 42.2621 139.828C43.3061 144.349 49.9221 147.194 57.3211 145.485C64.7201 143.777 69.4191 138.319 68.3751 133.798C66.9761 128.962 61.7291 127.892 57.3641 127.642ZM135.987 109.549C135.116 109.617 134.245 109.674 133.373 109.732C133.289 109.741 133.213 109.753 132.998 109.793C132.562 109.878 132.126 109.963 131.69 110.048C126.421 111.35 119.713 115.404 120.666 121.727C121.71 126.248 128.326 129.093 135.725 127.384C140.878 126.107 147.743 122.091 146.799 115.826C145.163 111.123 140.466 109.872 135.987 109.549ZM142.657 39.4352L141.772 39.5232L76.6191 53.9132C74.7461 54.3542 73.4641 55.9592 73.5161 57.8152L73.8321 70.0112L146.485 53.2592L146.417 43.2062C146.126 40.5232 145.025 40.0092 142.657 39.4352Z" fill="#AEAFBF"/>
<defs>
<filter id="filter0_f_309_177" x="0.5" y="0.5" width="198.162" height="184.455" filterUnits="userSpaceOnUse" color-interpolation-filters="sRGB">
<feFlood flood-opacity="0" result="BackgroundImageFix"/>
<feBlend mode="normal" in="SourceGraphic" in2="BackgroundImageFix" result="shape"/>
<feGaussianBlur stdDeviation="5.75" result="effect1_foregroundBlur_309_177"/>
</filter>
<linearGradient id="paint0_linear_309_177" x1="98.949" y1="16.183" x2="98.526" y2="168.018" gradientUnits="userSpaceOnUse">
<stop stop-color="#31394B"/>
<stop offset="1" stop-color="#262C3B"/>
</linearGradient>
</defs>
</svg>
