<svg width="199" height="185" viewBox="0 0 199 185" fill="none" xmlns="http://www.w3.org/2000/svg">
<g filter="url(#filter0_f_205_146)">
<path d="M164.943 12C177.215 12 187.163 21.859 187.163 34.021V151.435C187.163 163.596 177.215 173.455 164.943 173.455H34.221C21.949 173.455 12 163.596 12 151.435V34.021C12 21.859 21.949 12 34.221 12H164.943Z" fill="black" fill-opacity="0.498"/>
</g>
<path d="M34.221 12H164.943C177.215 12 187.163 21.859 187.163 34.021V151.435C187.163 163.596 177.215 173.455 164.943 173.455H34.221C21.949 173.455 12 163.596 12 151.435V34.021C12 21.859 21.949 12 34.221 12Z" fill="url(#paint0_linear_205_146)"/>
<path d="M125.282 37.8779C128.304 37.9899 131.006 39.8349 131.705 42.8799L136.798 57.9579L136.889 58.2779H153.382C160.815 58.2779 166.882 64.3449 166.882 71.7779V133.978C166.882 141.511 160.815 147.578 153.282 147.578H45.8822C38.3492 147.578 32.2822 141.511 32.2822 133.978V71.7779C32.2822 64.2449 38.3492 58.1779 45.8822 58.1779H62.7032L62.7662 57.9579L67.8662 42.8579L67.8752 42.8609C68.6462 39.7799 71.2892 38.1449 74.2822 37.8779H125.282ZM125.003 44.8779H74.5642C74.5642 44.8789 74.5632 44.8809 74.5632 44.8829C74.5412 44.9539 74.5192 45.0259 74.4982 45.0969L69.4052 60.1749C68.7662 63.3409 65.9502 64.9139 62.9822 65.1779H45.8822C42.2152 65.1779 39.2822 68.1109 39.2822 71.7779V133.978C39.2822 137.645 42.2152 140.578 45.8822 140.578H153.282C156.949 140.578 159.882 137.645 159.882 133.978V71.7779C159.882 68.2109 156.949 65.2779 153.382 65.2779H136.582L136.363 65.2709C133.425 64.9859 130.83 63.1379 130.154 60.1609L125.066 45.0969L125.003 44.8779Z" fill="url(#paint1_linear_205_146)"/>
<path d="M99.5824 73.1782C115.377 73.1782 128.182 85.9822 128.182 101.778C128.182 117.573 115.377 130.378 99.5824 130.378C83.7864 130.378 70.9824 117.573 70.9824 101.778C70.9824 85.9822 83.7864 73.1782 99.5824 73.1782ZM99.5824 80.1782C87.6524 80.1782 77.9824 89.8482 77.9824 101.778C77.9824 113.707 87.6524 123.378 99.5824 123.378C111.511 123.378 121.182 113.707 121.182 101.778C121.182 89.8482 111.511 80.1782 99.5824 80.1782Z" fill="url(#paint2_linear_205_146)"/>
<defs>
<filter id="filter0_f_205_146" x="0.5" y="0.5" width="198.163" height="184.455" filterUnits="userSpaceOnUse" color-interpolation-filters="sRGB">
<feFlood flood-opacity="0" result="BackgroundImageFix"/>
<feBlend mode="normal" in="SourceGraphic" in2="BackgroundImageFix" result="shape"/>
<feGaussianBlur stdDeviation="5.75" result="effect1_foregroundBlur_205_146"/>
</filter>
<linearGradient id="paint0_linear_205_146" x1="98.949" y1="16.183" x2="98.526" y2="168.018" gradientUnits="userSpaceOnUse">
<stop stop-color="#31394B"/>
<stop offset="1" stop-color="#262C3B"/>
</linearGradient>
<linearGradient id="paint1_linear_205_146" x1="32.2822" y1="92.7279" x2="166.882" y2="92.7279" gradientUnits="userSpaceOnUse">
<stop stop-color="#6457E3"/>
<stop offset="1" stop-color="#EB28B3"/>
</linearGradient>
<linearGradient id="paint2_linear_205_146" x1="43.8124" y1="141.809" x2="130.074" y2="49.1312" gradientUnits="userSpaceOnUse">
<stop stop-color="#6457E3"/>
<stop offset="1" stop-color="#EB28B3"/>
</linearGradient>
</defs>
</svg>
