<svg width="199" height="185" viewBox="0 0 199 185" fill="none" xmlns="http://www.w3.org/2000/svg">
<g filter="url(#filter0_f_205_147)">
<path d="M164.943 12C177.215 12 187.163 21.859 187.163 34.021V151.435C187.163 163.596 177.215 173.455 164.943 173.455H34.221C21.949 173.455 12 163.596 12 151.435V34.021C12 21.859 21.949 12 34.221 12H164.943Z" fill="black" fill-opacity="0.498"/>
</g>
<path d="M34.221 12H164.943C177.215 12 187.163 21.859 187.163 34.021V151.435C187.163 163.596 177.215 173.455 164.943 173.455H34.221C21.949 173.455 12 163.596 12 151.435V34.021C12 21.859 21.949 12 34.221 12Z" fill="url(#paint0_linear_205_147)"/>
<path d="M141.533 32.4862C148.055 32.1932 153.037 36.6732 153.416 43.1822L153.916 116.982C153.847 117.72 153.94 117.469 153.813 117.777C153.515 126.651 144.998 132.112 137.299 134.205C126.509 136.697 115.882 132.127 113.844 123.302C111.806 114.477 119.354 105.711 130.144 103.219L130.271 103.192C130.659 103.118 131.561 102.941 131.693 102.916C132.095 102.84 132.361 102.798 132.682 102.767C132.863 102.749 134.519 102.644 135.68 102.553C135.799 102.543 135.919 102.54 136.038 102.543C139.803 102.655 143.607 103.412 146.837 105.421L146.533 60.4322L74.0162 77.1522L75.5152 134.915C75.4592 135.667 75.5482 135.402 75.4132 135.748C75.1562 144.689 66.6662 150.195 58.8952 152.306C48.1052 154.798 37.4772 150.229 35.4392 141.403C33.4022 132.578 40.9502 123.812 51.7402 121.32C55.0652 120.686 53.0762 120.985 57.7372 120.645C61.3882 120.787 65.0682 121.535 68.2152 123.449L66.5172 58.0032C66.3732 52.7812 69.9572 48.2892 75.0612 47.0882L140.273 32.6862L141.533 32.4862ZM57.3632 127.642C54.2262 127.914 55.5692 127.703 53.3152 128.141C45.9162 129.85 41.2172 135.308 42.2612 139.828C43.3052 144.349 49.9212 147.194 57.3202 145.485C64.7192 143.777 69.4182 138.319 68.3742 133.798C66.9752 128.962 61.7282 127.892 57.3632 127.642ZM135.986 109.549C135.115 109.617 134.244 109.674 133.372 109.732C133.288 109.741 133.212 109.753 132.997 109.793C132.561 109.878 132.125 109.963 131.689 110.048C126.42 111.35 119.712 115.404 120.665 121.727C121.709 126.248 128.325 129.093 135.724 127.384C140.877 126.107 147.742 122.091 146.798 115.826C145.162 111.123 140.465 109.872 135.986 109.549ZM142.656 39.4352L141.771 39.5232L76.6182 53.9132C74.7452 54.3542 73.4632 55.9592 73.5152 57.8152L73.8312 70.0112L146.484 53.2592L146.416 43.2062C146.125 40.5232 145.024 40.0092 142.656 39.4352Z" fill="url(#paint1_linear_205_147)"/>
<defs>
<filter id="filter0_f_205_147" x="0.5" y="0.5" width="198.163" height="184.455" filterUnits="userSpaceOnUse" color-interpolation-filters="sRGB">
<feFlood flood-opacity="0" result="BackgroundImageFix"/>
<feBlend mode="normal" in="SourceGraphic" in2="BackgroundImageFix" result="shape"/>
<feGaussianBlur stdDeviation="5.75" result="effect1_foregroundBlur_205_147"/>
</filter>
<linearGradient id="paint0_linear_205_147" x1="98.949" y1="16.183" x2="98.526" y2="168.018" gradientUnits="userSpaceOnUse">
<stop stop-color="#31394B"/>
<stop offset="1" stop-color="#262C3B"/>
</linearGradient>
<linearGradient id="paint1_linear_205_147" x1="39.0982" y1="146.967" x2="166.604" y2="26.1092" gradientUnits="userSpaceOnUse">
<stop stop-color="#6258E4"/>
<stop offset="1" stop-color="#FE21AC"/>
</linearGradient>
</defs>
</svg>
