<svg width="199" height="185" viewBox="0 0 199 185" fill="none" xmlns="http://www.w3.org/2000/svg">
<g filter="url(#filter0_f_205_150)">
<path d="M164.943 12C177.215 12 187.163 21.859 187.163 34.021V151.435C187.163 163.596 177.215 173.455 164.943 173.455H34.221C21.949 173.455 12 163.596 12 151.435V34.021C12 21.859 21.949 12 34.221 12H164.943Z" fill="black" fill-opacity="0.498"/>
</g>
<path d="M34.221 12H164.943C177.215 12 187.163 21.859 187.163 34.021V151.435C187.163 163.596 177.215 173.455 164.943 173.455H34.221C21.949 173.455 12 163.596 12 151.435V34.021C12 21.859 21.949 12 34.221 12Z" fill="url(#paint0_linear_205_150)"/>
<path d="M94.321 37.8779C94.935 37.8779 95.482 38.2809 95.687 38.8849L131.874 145.56C132.208 146.545 131.508 147.578 130.508 147.578H107.354C106.721 147.578 106.161 147.148 105.972 146.518L99.704 125.649H64.166L57.427 146.548C57.229 147.163 56.676 147.578 56.054 147.578H33.732C32.73 147.578 32.031 146.542 32.367 145.557L68.832 38.8819C69.038 38.2799 69.584 37.8779 70.196 37.8779H94.321ZM82.029 68.7079L70.878 104.242H92.827L82.029 68.7079Z" fill="url(#paint1_linear_205_150)"/>
<path d="M105.073 37.9629L162.536 37.9649C164.936 37.9659 166.882 39.9969 166.882 42.5029C166.882 45.0089 164.936 47.0399 162.535 47.0399L105.073 47.0379C102.673 47.0379 100.727 45.0059 100.727 42.4999C100.727 39.9939 102.673 37.9629 105.074 37.9629H105.073Z" fill="url(#paint2_linear_205_150)"/>
<path d="M162.447 61.8159C164.896 61.8149 166.881 63.8659 166.882 66.3979C166.883 68.9299 164.899 70.9829 162.45 70.9839L118.555 70.9999C116.107 71.0009 114.121 68.9489 114.12 66.4179C114.12 63.8859 116.103 61.8329 118.552 61.8319L162.447 61.8159Z" fill="url(#paint3_linear_205_150)"/>
<path d="M131.432 85.1519L162.536 85.1529C164.936 85.1529 166.882 87.1839 166.882 89.6899C166.882 92.1959 164.936 94.2269 162.536 94.2269H131.432C129.032 94.2269 127.086 92.1949 127.086 89.6889C127.086 87.1839 129.032 85.1519 131.432 85.1519Z" fill="url(#paint4_linear_205_150)"/>
<defs>
<filter id="filter0_f_205_150" x="0.5" y="0.5" width="198.163" height="184.455" filterUnits="userSpaceOnUse" color-interpolation-filters="sRGB">
<feFlood flood-opacity="0" result="BackgroundImageFix"/>
<feBlend mode="normal" in="SourceGraphic" in2="BackgroundImageFix" result="shape"/>
<feGaussianBlur stdDeviation="5.75" result="effect1_foregroundBlur_205_150"/>
</filter>
<linearGradient id="paint0_linear_205_150" x1="98.949" y1="16.183" x2="98.526" y2="168.018" gradientUnits="userSpaceOnUse">
<stop stop-color="#31394B"/>
<stop offset="1" stop-color="#262C3B"/>
</linearGradient>
<linearGradient id="paint1_linear_205_150" x1="46.254" y1="138.521" x2="145.087" y2="39.0959" gradientUnits="userSpaceOnUse">
<stop stop-color="#6956E2"/>
<stop offset="1" stop-color="#E52BB6"/>
</linearGradient>
<linearGradient id="paint2_linear_205_150" x1="70.385" y1="101.27" x2="164.597" y2="39.0959" gradientUnits="userSpaceOnUse">
<stop stop-color="#6956E2"/>
<stop offset="1" stop-color="#E52BB6"/>
</linearGradient>
<linearGradient id="paint3_linear_205_150" x1="79.7201" y1="120.359" x2="164.028" y2="60.7929" gradientUnits="userSpaceOnUse">
<stop stop-color="#6956E2"/>
<stop offset="1" stop-color="#E52BB6"/>
</linearGradient>
<linearGradient id="paint4_linear_205_150" x1="110.945" y1="126.997" x2="164.854" y2="84.6549" gradientUnits="userSpaceOnUse">
<stop stop-color="#6956E2"/>
<stop offset="1" stop-color="#E52BB6"/>
</linearGradient>
</defs>
</svg>
