<svg width="199" height="185" viewBox="0 0 199 185" fill="none" xmlns="http://www.w3.org/2000/svg">
<g filter="url(#filter0_f_309_178)">
<path d="M164.943 12C177.215 12 187.163 21.859 187.163 34.021V151.435C187.163 163.596 177.215 173.455 164.943 173.455H34.221C21.949 173.455 12 163.596 12 151.435V34.021C12 21.859 21.949 12 34.221 12H164.943Z" fill="black" fill-opacity="0.498"/>
</g>
<path d="M34.221 12H164.943C177.215 12 187.163 21.859 187.163 34.021V151.435C187.163 163.596 177.215 173.455 164.943 173.455H34.221C21.949 173.455 12 163.596 12 151.435V34.021C12 21.859 21.949 12 34.221 12Z" fill="url(#paint0_linear_309_178)"/>
<path d="M125.281 37.8779C128.303 37.9899 131.005 39.8349 131.704 42.8799L136.797 57.9579L136.888 58.2779H153.381C160.814 58.2779 166.881 64.3449 166.881 71.7779V133.978C166.881 141.511 160.814 147.578 153.281 147.578H45.8812C38.3482 147.578 32.2812 141.511 32.2812 133.978V71.7779C32.2812 64.2449 38.3482 58.1779 45.8812 58.1779H62.7023L62.7653 57.9579L67.8653 42.8579L67.8742 42.8609C68.6452 39.7799 71.2883 38.1449 74.2813 37.8779H125.281ZM125.002 44.8779H74.5633C74.5633 44.8789 74.5623 44.8809 74.5623 44.8829C74.5403 44.9539 74.5182 45.0259 74.4972 45.0969L69.4042 60.1749C68.7652 63.3409 65.9493 64.9139 62.9813 65.1779H45.8812C42.2142 65.1779 39.2812 68.1109 39.2812 71.7779V133.978C39.2812 137.645 42.2142 140.578 45.8812 140.578H153.281C156.948 140.578 159.881 137.645 159.881 133.978V71.7779C159.881 68.2109 156.948 65.2779 153.381 65.2779H136.581L136.362 65.2709C133.424 64.9859 130.829 63.1379 130.153 60.1609L125.065 45.0969L125.002 44.8779Z" fill="#AEAFBF"/>
<path d="M99.5824 73.1782C115.377 73.1782 128.182 85.9822 128.182 101.778C128.182 117.573 115.377 130.378 99.5824 130.378C83.7864 130.378 70.9824 117.573 70.9824 101.778C70.9824 85.9822 83.7864 73.1782 99.5824 73.1782ZM99.5824 80.1782C87.6524 80.1782 77.9824 89.8482 77.9824 101.778C77.9824 113.707 87.6524 123.378 99.5824 123.378C111.511 123.378 121.182 113.707 121.182 101.778C121.182 89.8482 111.511 80.1782 99.5824 80.1782Z" fill="#AEAFBF"/>
<defs>
<filter id="filter0_f_309_178" x="0.5" y="0.5" width="198.162" height="184.455" filterUnits="userSpaceOnUse" color-interpolation-filters="sRGB">
<feFlood flood-opacity="0" result="BackgroundImageFix"/>
<feBlend mode="normal" in="SourceGraphic" in2="BackgroundImageFix" result="shape"/>
<feGaussianBlur stdDeviation="5.75" result="effect1_foregroundBlur_309_178"/>
</filter>
<linearGradient id="paint0_linear_309_178" x1="98.949" y1="16.183" x2="98.526" y2="168.018" gradientUnits="userSpaceOnUse">
<stop stop-color="#31394B"/>
<stop offset="1" stop-color="#262C3B"/>
</linearGradient>
</defs>
</svg>
