<svg width="176" height="163" viewBox="0 0 176 163" fill="none" xmlns="http://www.w3.org/2000/svg">
<path d="M22.2718 0.623016H152.994C165.266 0.623016 175.214 10.482 175.214 22.644V140.058C175.214 152.219 165.266 162.078 152.994 162.078H22.2718C9.99978 162.078 0.0507812 152.219 0.0507812 140.058V22.644C0.0507812 10.482 9.99978 0.623016 22.2718 0.623016Z" fill="url(#paint0_linear_274_121)"/>
<path d="M109.234 73.802L95.1589 80.575H62.6989C57.1989 80.575 52.8459 84.559 52.8459 89.312V127.27C52.8459 129.136 51.3329 130.65 49.4659 130.65C47.5999 130.65 46.0859 129.136 46.0859 127.27V89.312C46.0859 80.685 53.5919 73.815 62.6989 73.815L109.234 73.802Z" fill="url(#paint1_linear_274_121)"/>
<path d="M87.5411 23.081C100.94 23.081 111.877 33.418 111.877 46.268C111.877 59.117 100.94 69.455 87.5411 69.455C74.1421 69.455 63.2051 59.117 63.2051 46.268C63.2051 33.418 74.1421 23.081 87.5411 23.081ZM87.5411 29.841C77.7931 29.841 69.9651 37.24 69.9651 46.268C69.9651 55.296 77.7931 62.695 87.5411 62.695C97.2891 62.695 105.117 55.296 105.117 46.268C105.117 37.24 97.2891 29.841 87.5411 29.841Z" fill="url(#paint2_linear_274_121)"/>
<path d="M109.18 73.802L109.683 75.949L112.846 89.468L126.797 86.203L128.944 85.7L129.446 87.847L133.334 104.459L133.836 106.606L131.69 107.109L117.739 110.373L120.902 123.892L121.405 126.039L119.258 126.542L102.188 130.536L100.041 131.039L99.5388 128.892L96.3748 115.373L82.4238 118.638L80.2768 119.14L79.7748 116.993L75.8868 100.381L75.3848 98.234L77.5318 97.732L91.4828 94.467L88.3188 80.948L87.8168 78.801L89.9628 78.299L107.033 74.304L109.18 73.802ZM105.891 79.1L93.1148 82.09L96.2788 95.609L96.7808 97.756L94.6338 98.259L80.6828 101.523L83.5658 113.842L97.5168 110.577L99.6638 110.074L100.166 112.221L103.33 125.74L116.106 122.75L112.943 109.231L112.44 107.085L114.587 106.582L128.538 103.317L125.655 90.999L111.704 94.264L109.558 94.766L109.055 92.619L105.891 79.1Z" fill="url(#paint3_linear_274_121)"/>
<defs>
<linearGradient id="paint0_linear_274_121" x1="86.9998" y1="4.80602" x2="86.5768" y2="156.641" gradientUnits="userSpaceOnUse">
<stop stop-color="#31394B"/>
<stop offset="1" stop-color="#262C3B"/>
</linearGradient>
<linearGradient id="paint1_linear_274_121" x1="46.0869" y1="102.226" x2="131.042" y2="102.748" gradientUnits="userSpaceOnUse">
<stop stop-color="#6557E3"/>
<stop offset="1" stop-color="#C734C0"/>
</linearGradient>
<linearGradient id="paint2_linear_274_121" x1="67.0301" y1="49.081" x2="123.064" y2="48.733" gradientUnits="userSpaceOnUse">
<stop stop-color="#6557E3"/>
<stop offset="1" stop-color="#C734C0"/>
</linearGradient>
<linearGradient id="paint3_linear_274_121" x1="47.0888" y1="98.7245" x2="130.197" y2="98.6217" gradientUnits="userSpaceOnUse">
<stop stop-color="#6657E3"/>
<stop offset="1" stop-color="#C434C0"/>
</linearGradient>
</defs>
</svg>
