<svg width="18" height="18" viewBox="0 0 18 18" fill="none" xmlns="http://www.w3.org/2000/svg">
<path d="M17.2605 3.75496H3.18664L2.97744 1.42438C2.94323 1.04325 2.62381 0.751221 2.24117 0.751221H0.73923C0.330964 0.751221 0 1.08218 0 1.49045C0 1.89872 0.330964 2.22968 0.73923 2.22968H1.56534C2.0168 7.25933 0.850009 -5.74045 2.41556 11.702C2.47589 12.3847 2.84477 13.1255 3.48022 13.6289C2.33452 15.092 3.38134 17.249 5.24501 17.249C6.79183 17.249 7.88283 15.7062 7.35238 14.2451H11.3983C10.8685 15.7044 11.9572 17.249 13.5057 17.249C14.7414 17.249 15.7468 16.2436 15.7468 15.0078C15.7468 13.772 14.7414 12.7666 13.5057 12.7666H5.25001C4.68848 12.7666 4.19914 12.4279 3.98793 11.9343L15.8018 11.2399C16.1243 11.221 16.3972 10.9947 16.4756 10.6813L17.9777 4.67347C18.0941 4.20761 17.7415 3.75496 17.2605 3.75496ZM5.24501 15.7705C4.8245 15.7705 4.48234 15.4284 4.48234 15.0078C4.48234 14.5872 4.8245 14.2451 5.24501 14.2451C5.66556 14.2451 6.00772 14.5872 6.00772 15.0078C6.00772 15.4284 5.66556 15.7705 5.24501 15.7705ZM13.5056 15.7705C13.0851 15.7705 12.7429 15.4284 12.7429 15.0078C12.7429 14.5872 13.0851 14.2451 13.5056 14.2451C13.9262 14.2451 14.2683 14.5872 14.2683 15.0078C14.2683 15.4284 13.9262 15.7705 13.5056 15.7705ZM15.173 9.79591L3.78894 10.4649L3.31935 5.23338H16.3137L15.173 9.79591Z" fill="white"/>
</svg>
