<svg width="15" height="15" viewBox="0 0 15 15" fill="none" xmlns="http://www.w3.org/2000/svg">
<path d="M2.14286 0C1.57454 0 1.02949 0.225765 0.627628 0.627628C0.225765 1.02949 0 1.57454 0 2.14286V12.8571C0 13.4255 0.225765 13.9705 0.627628 14.3724C1.02949 14.7742 1.57454 15 2.14286 15H12.8571C13.4255 15 13.9705 14.7742 14.3724 14.3724C14.7742 13.9705 15 13.4255 15 12.8571V2.14286C15 1.57454 14.7742 1.02949 14.3724 0.627628C13.9705 0.225765 13.4255 0 12.8571 0H2.14286ZM6.42857 11.1579L3.52821 8.2575L5.04321 6.7425L6.42857 8.12786L10.4925 4.06393L12.0075 5.57893L6.42857 11.1579Z" fill="url(#paint0_linear_3672_21721)"/>
<defs>
<linearGradient id="paint0_linear_3672_21721" x1="5.80192e-08" y1="10.1695" x2="14.8114" y2="9.91885" gradientUnits="userSpaceOnUse">
<stop stop-color="#679FEF"/>
<stop offset="1" stop-color="#A87FFF"/>
</linearGradient>
</defs>
</svg>
