<svg width="100px" height="100px" viewBox="0 0 100 100" style="enable-background:new 0 0 100 100;" version="1.1" xml:space="preserve" xmlns="http://www.w3.org/2000/svg" xmlns:xlink="http://www.w3.org/1999/xlink">
                <path class="st86" fill="#fff" d="M96.421,21.122c-3.417,1.518-7.088,2.539-10.941,3c3.935-2.357,6.952-6.088,8.373-10.537    c-3.678,2.182-7.755,3.767-12.098,4.624c-3.474-3.703-8.423-6.017-13.901-6.017C55.746,12.03,46.437,23.859,49.302,35.577    C33.473,34.784,19.44,27.2,10.042,15.673c-5.129,8.364-2.217,20.325,5.896,25.431c-3.121-0.1-6.06-0.957-8.627-2.382    c-0.119,9.305,6.482,17.161,15.279,18.914c-2.703,0.754-5.817,0.872-8.602,0.328c2.425,7.566,9.459,13.076,17.793,13.229    c-7.535,6.021-18.084,9.16-28.201,7.888c40.682,25.037,85.655-7.765,83.333-48.101C90.636,28.292,93.868,24.939,96.421,21.122z"></path>
            </svg>