<?xml version="1.0" encoding="UTF-8"?> <!-- Generator: Adobe Illustrator 26.0.1, SVG Export Plug-In . SVG Version: 6.00 Build 0) --> 
<svg xmlns="http://www.w3.org/2000/svg" xmlns:xlink="http://www.w3.org/1999/xlink" id="Layer_1" x="0px" y="0px" viewBox="0 0 1200 800" style="enable-background:new 0 0 1200 800;" xml:space="preserve"> 
<!-- <style type="text/css"> .st0{fill:#00FF22;} </style>  -->
<path class="st0" fill="#fff" d="M962.7,216.6c-8.7-32.8-34.4-58.6-66.9-67.4c-59-15.9-295.7-15.9-295.7-15.9s-236.7,0-295.7,15.9 c-32.6,8.8-58.2,34.6-66.9,67.4C221.5,276,221.5,400,221.5,400s0,124,15.8,183.4c8.7,32.8,34.4,58.6,66.9,67.4 c59,15.9,295.7,15.9,295.7,15.9s236.7,0,295.7-15.9c32.6-8.8,58.2-34.6,66.9-67.4C978.5,524,978.5,400,978.5,400 S978.5,276,962.7,216.6"></path> 
<path d="M522.6,512.6L720.4,400L522.6,287.4V512.6z"></path> 
</svg> 