<svg width="1190" height="1380" viewBox="0 0 1190 1380" fill="none" xmlns="http://www.w3.org/2000/svg">
<path d="M-236.035 1C-132.211 108.397 -94.3485 271.66 -67.7523 431.501C-41.1561 591.341 -21.529 758.03 55.0748 890.058C119.667 1001.33 223.824 1082.22 347.637 1117.14C475.155 1153.14 618.173 1140.91 756.158 1142.72C894.143 1144.53 1036.11 1163.43 1131.87 1250.69M-241.19 5.7697C-136.221 110.045 -95.8881 270.788 -67.7686 429.064C-39.649 587.34 -19.1404 753.022 56.6142 884.922C117.014 990.433 211.347 1069.85 324.679 1109.76C331.902 1112.28 339.111 1114.68 346.472 1116.88C410.331 1136.11 478.498 1143.07 548.332 1144.04C617.047 1145.1 686.722 1140.68 755.424 1140.26C894.269 1139.04 1037.94 1158.19 1133.7 1246.83M-246.411 10.4892C-140.247 111.577 -97.5452 269.932 -67.7854 426.628C-38.0255 583.324 -16.7014 747.949 58.1531 879.787C118.125 986.127 211.132 1067.26 323.703 1109.11C330.824 1111.76 338.048 1114.28 345.425 1116.6C409.018 1136.99 477.386 1145.06 547.598 1145.27C616.471 1145.71 686.001 1139.71 754.691 1137.79C894.322 1133.92 1039.83 1153.01 1135.57 1242.9M-251.566 15.2589C-144.207 113.158 -99.0848 269.06 -67.6846 424.176C-36.2845 579.292 -14.1448 742.86 59.7585 874.702C119.302 981.87 210.984 1064.72 322.742 1108.58C329.879 1111.35 337.067 1114.05 344.342 1116.5C407.668 1138.06 476.223 1147.11 546.894 1146.73C615.926 1146.55 685.296 1138.84 753.987 1135.56C894.443 1128.85 1041.68 1148.02 1137.47 1239.2M-256.721 20.0286C-148.283 114.755 -100.675 268.254 -67.7009 421.739C-34.7264 575.224 -11.3692 737.624 61.2979 869.566C120.697 977.466 210.769 1062.13 321.767 1107.93C328.802 1110.83 336.005 1113.65 343.178 1116.23C406.172 1138.91 474.928 1149.06 545.991 1148.03C615.182 1147.25 684.392 1137.83 753.086 1133.18C894.365 1123.62 1043.34 1142.87 1139.06 1235.37M-261.876 24.799C-152.243 116.338 -102.215 267.382 -67.6516 419.354C-33.0878 571.325 -8.79819 732.653 62.9178 864.599C122.006 973.313 210.701 1059.76 320.872 1107.45C327.871 1110.54 335.023 1113.42 342.211 1116.12C404.939 1139.96 473.867 1150.98 545.338 1149.43C614.672 1147.91 683.722 1136.79 752.484 1130.82C894.586 1118.42 1045.29 1137.74 1141.06 1231.54M-267.097 29.5177C-156.32 117.935 -103.872 266.526 -67.668 416.917C-31.4639 567.308 -6.30767 727.513 64.4572 859.463C123.234 968.99 210.487 1057.17 319.897 1106.81C326.845 1109.95 333.961 1113.02 341.113 1115.9C403.574 1140.91 472.638 1152.99 544.619 1150.77C614.112 1148.63 683.002 1135.81 751.766 1128.48C894.625 1113.18 1047.13 1132.62 1142.95 1227.73M-272.252 34.2878C-160.28 119.517 -105.412 265.654 -67.6335 414.414C-29.8551 563.175 -3.81746 722.374 66.0472 854.261C124.446 964.551 210.323 1054.52 318.921 1106.16C325.833 1109.49 332.898 1112.62 339.999 1115.57C402.194 1141.74 471.445 1154.81 543.818 1151.94C613.404 1149.14 682.2 1134.66 750.9 1125.91C894.634 1107.7 1048.78 1127.35 1144.64 1223.76M-277.407 39.0575C-164.239 121.099 -107.069 264.797 -67.5838 412.028C-28.099 559.26 -1.24577 717.402 67.6017 849.242C125.638 960.412 210.124 1052.05 317.961 1105.63C324.822 1109.03 331.851 1112.34 338.916 1115.47C400.845 1142.81 470.297 1156.98 543.114 1153.4C612.858 1149.98 681.545 1133.74 750.197 1123.68C894.805 1102.57 1050.7 1122.41 1146.55 1220.07M-282.562 43.8276C-168.25 122.747 -108.608 263.925 -67.5343 409.643C-26.4601 555.361 1.31049 712.313 69.2068 844.158C126.931 956.141 209.975 1049.51 317.051 1105.03C323.877 1108.61 330.855 1111.99 337.935 1115.24C399.531 1143.69 469.185 1158.96 542.446 1154.68C612.349 1150.65 680.809 1132.64 749.58 1121.2C894.997 1097.13 1052.64 1117.16 1148.42 1216.14M-287.718 48.5979C-172.21 124.329 -110.199 263.12 -67.4341 407.192C-24.6686 551.263 3.86651 707.225 70.8777 839.124C128.174 951.936 209.892 1047.02 316.157 1104.55C322.931 1108.2 329.873 1111.76 336.851 1115.15C398.232 1144.69 468.022 1161.02 541.741 1156.14C611.803 1151.49 680.154 1131.72 748.876 1118.98C895.101 1091.94 1054.49 1112.16 1150.32 1212.44M-292.938 53.3166C-176.286 125.926 -111.805 262.197 -67.5163 404.704C-23.2275 547.211 6.2402 702.1 72.3512 833.937C129.336 947.562 209.663 1044.31 315.115 1103.86C321.854 1107.68 328.745 1111.32 335.738 1114.81C396.853 1145.52 466.778 1162.9 540.941 1157.31C611.161 1152.05 679.338 1130.45 748.077 1116.46C895.176 1086.52 1056.25 1106.88 1152.13 1208.46M-298.093 58.0865C-180.312 127.457 -113.396 261.391 -67.4666 402.318C-21.5375 543.245 8.74574 697.077 73.9565 828.852C130.579 943.357 209.515 1041.77 314.206 1103.26C320.893 1107.15 327.698 1111.03 334.706 1114.65C395.554 1146.52 465.666 1164.89 540.222 1158.65C610.601 1152.77 678.668 1129.41 747.359 1114.12C895.317 1081.15 1058.09 1101.76 1153.97 1204.71M-303.248 62.8566C-184.272 129.039 -114.936 260.519 -67.3661 399.866C-19.7967 539.213 11.3681 692.04 75.5617 823.768C131.806 939.035 209.366 1039.24 313.245 1102.73C319.897 1106.81 326.65 1110.75 333.557 1114.5C394.139 1147.54 464.386 1166.96 539.451 1160.06C609.989 1153.57 677.881 1128.38 746.64 1111.77C895.407 1075.84 1059.93 1096.65 1155.85 1200.9M-308.403 67.6265C-188.283 130.687 -116.526 259.714 -67.3828 397.43C-18.2391 535.146 13.8072 686.966 77.1006 818.632C132.983 934.779 209.217 1036.7 312.27 1102.08C318.819 1106.29 325.588 1110.35 332.509 1114.22C392.759 1148.37 463.208 1168.9 538.717 1161.28C609.413 1154.18 677.145 1127.29 745.906 1109.31C895.467 1070.3 1061.82 1091.47 1157.73 1196.97M-313.559 72.3967C-192.243 132.27 -118.066 258.842 -67.3333 395.044C-16.6003 531.247 16.3125 681.944 78.7208 813.665C134.174 930.64 209.084 1034.28 311.375 1101.6C317.94 1105.93 324.606 1110.12 331.492 1114.17C391.475 1149.49 462.177 1171.05 538.078 1162.8C608.934 1155.07 676.491 1126.36 745.269 1107.13C895.637 1065.17 1063.74 1086.52 1159.58 1193.34M-318.779 77.1154C-196.319 133.867 -119.672 257.919 -67.3495 392.607C-15.0271 527.296 18.7012 676.936 80.2603 808.529C135.351 926.383 208.869 1031.69 310.4 1100.96C316.862 1105.41 323.544 1109.73 330.379 1113.84C390.096 1150.32 460.933 1172.94 537.278 1163.97C608.292 1155.63 675.674 1125.1 744.469 1104.61C895.697 1059.63 1065.5 1081.24 1161.39 1189.36M-323.934 81.8852C-200.279 135.448 -121.263 257.113 -67.3148 390.105C-13.3672 523.096 21.1917 671.797 81.8506 803.327C136.513 922.01 208.706 1029.03 309.424 1100.31C315.902 1104.88 322.482 1109.33 329.281 1113.62C388.731 1151.27 459.704 1174.94 536.559 1165.31C607.731 1156.36 674.938 1124 743.802 1102.2C895.823 1054.14 1067.39 1076.06 1163.32 1185.48M-329.09 86.6556C-204.239 137.031 -122.869 256.191 -67.2657 387.719C-11.6626 519.248 23.6967 666.775 83.4044 798.308C137.704 917.871 208.506 1026.56 308.463 1099.78C314.839 1104.49 321.434 1109.05 328.182 1113.41C387.366 1152.22 458.475 1176.94 535.773 1166.6C607.053 1157.1 674.187 1122.79 743.017 1099.81C895.832 1048.66 1069.16 1070.89 1165.09 1181.68M-334.295 91.4914C-208.3 138.745 -124.51 255.451 -67.2668 385.4C-10.0235 515.348 26.1003 661.884 84.9589 793.289C138.881 913.615 208.307 1024.09 307.503 1099.25C313.894 1104.07 320.387 1108.77 327.099 1113.31C385.951 1153.24 457.378 1179.05 535.003 1168.01C606.442 1157.89 673.4 1121.76 742.247 1097.53C895.855 1043.31 1070.9 1065.91 1166.93 1177.94M-339.451 96.2617C-212.26 140.327 -126.05 254.579 -67.1665 382.948C-8.28277 511.317 28.6566 656.795 86.63 788.256C140.139 909.527 208.224 1021.6 306.609 1098.77C312.898 1103.73 319.405 1108.54 326.081 1113.27C384.667 1154.35 456.23 1181.22 534.314 1169.59C605.911 1158.85 672.695 1120.9 741.559 1095.41C895.96 1038.12 1072.83 1061.08 1168.85 1174.36M-344.671 100.98C-216.403 141.873 -127.707 253.722 -67.2488 380.46C-6.79085 507.198 30.979 651.737 88.1032 783.069C141.183 905.169 207.943 1018.96 305.567 1098.07C311.82 1103.21 318.277 1108.09 324.902 1112.88C383.221 1155.14 454.92 1183.05 533.448 1170.71C605.27 1159.41 671.812 1119.59 740.744 1092.78C895.939 1032.41 1074.58 1055.68 1170.53 1170.28M-349.827 105.75C-220.362 143.455 -129.247 252.851 -67.1994 378.075C-5.15205 503.299 33.4844 646.714 89.7084 777.984C142.36 900.913 207.795 1016.42 304.657 1097.47C310.86 1102.68 317.347 1107.79 323.87 1112.72C381.922 1156.14 453.823 1185.16 532.794 1172.1C604.775 1160.19 671.142 1118.55 740.092 1090.49C896.131 1026.97 1076.48 1050.61 1172.48 1166.52M-354.981 110.52C-224.322 145.037 -130.837 252.045 -67.1496 375.689C-3.4619 499.333 35.873 641.706 91.2628 772.965C143.552 896.773 207.662 1014 303.712 1097.06C309.879 1102.45 316.315 1107.63 322.853 1112.67C380.639 1157.25 452.675 1187.33 532.09 1173.56C604.179 1161.1 670.422 1117.57 739.388 1088.26C896.155 1021.62 1078.34 1045.61 1174.38 1162.82M-360.137 115.29C-228.333 146.686 -132.377 251.173 -67.1153 373.187C-1.85336 495.2 38.3121 636.633 92.8527 767.764C144.662 892.467 207.498 1011.34 302.788 1096.35C308.903 1101.8 315.252 1107.23 321.739 1112.34C379.244 1157.97 451.548 1189.2 531.356 1174.79C603.603 1161.71 669.671 1116.36 738.655 1085.8C896.214 1016.08 1080.16 1040.38 1176.2 1158.96M-365.291 120.06C-232.292 148.268 -133.968 250.367 -67.0656 370.801C-0.163353 491.234 40.8176 631.611 94.4731 762.796C145.854 888.327 207.364 1008.92 301.893 1095.87C307.973 1101.51 314.271 1107 320.773 1112.23C378.012 1159.02 450.415 1191.49 530.702 1176.18C603.189 1162.65 668.986 1115.2 738.053 1083.44C896.391 1010.52 1082.12 1035.25 1178.21 1155.13M-370.513 124.78C-236.369 149.865 -135.574 249.445 -67.0822 368.365C1.4094 487.284 43.2058 626.604 96.0121 757.661C146.964 884.02 207.15 1006.33 300.866 1095.29C306.895 1100.99 313.157 1106.67 319.624 1112.08C376.596 1160.04 449.252 1193.54 529.932 1177.59C602.527 1163.51 668.199 1114.17 737.284 1081.16C896.348 1005.12 1083.97 1030.25 1180.05 1151.38M-375.668 129.55C-240.329 151.447 -137.165 248.639 -67.0478 365.862C3.06911 483.085 45.5791 621.479 97.6022 752.459C148.075 879.713 206.986 1003.68 299.942 1094.57C305.934 1100.46 312.146 1106.2 318.51 1111.74C375.216 1160.87 448.008 1195.42 529.131 1178.76C601.885 1164.07 667.316 1112.85 736.484 1078.64C896.276 999.475 1085.73 1024.97 1181.74 1147.42M-380.822 134.319C-244.288 153.029 -138.77 247.716 -66.9978 363.476C4.77449 479.236 47.8 616.552 99.1569 747.44C148.982 875.67 206.787 1001.2 298.982 1094.04C304.923 1100 311.099 1105.92 317.478 1111.58C373.918 1161.87 446.845 1197.48 528.412 1180.1C601.324 1164.8 666.58 1111.76 735.766 1076.3C896.336 993.935 1087.57 1019.86 1183.62 1143.6M-385.978 139.089C-248.299 154.677 -140.361 246.911 -66.9486 361.091C6.46404 475.27 50.254 611.596 100.762 742.355C150.209 871.348 206.638 998.666 298.072 1093.45C303.978 1099.58 310.102 1105.57 316.446 1111.42C372.553 1162.82 445.733 1199.47 527.759 1181.5C600.829 1165.58 665.829 1110.55 735.098 1073.88C896.167 988.01 1089.46 1014.68 1185.51 1139.79M-391.198 143.808C-252.391 156.157 -141.967 245.988 -66.9138 358.587C8.13909 471.187 52.7446 606.456 102.367 737.27C151.452 867.143 206.541 996.061 297.112 1092.92C302.915 1099.19 309.055 1105.29 315.348 1111.2C371.188 1163.77 444.57 1201.52 526.974 1182.79C600.203 1166.25 665.028 1109.4 734.314 1071.49C896.191 982.653 1091.18 1009.58 1187.33 1135.93M-396.354 148.578C-256.402 157.805 -143.558 245.182 -66.9305 356.151C9.69672 467.12 55.2498 601.434 103.906 732.135C152.563 862.836 206.326 993.472 296.136 1092.27C353.369 1155.18 433.984 1205.68 526.254 1184.13C599.642 1166.98 664.292 1108.31 733.595 1069.14C896.266 977.231 1093.02 1004.46 1189.22 1132.11M-400.217 150.445C-262.929 161.623 -150.107 246.98 -73.3109 354.18C3.12479 460.891 45.7081 591.543 97.3136 716.51C109.57 746.095 123.414 775.535 136.677 806.001C155.564 849.66 173.876 893.928 194.124 935.686C216.857 982.417 242.315 1026.3 273.085 1066.16C276.806 1071.03 280.694 1075.82 284.634 1080.55C321.378 1125.23 369.727 1164.43 426.326 1179.01C452.662 1185.84 480.925 1187.31 510.491 1181.35C540.408 1175.34 569.202 1162.46 597.508 1146.26C639.489 1122.16 680.229 1091.2 722.642 1067.22C758.396 1046.96 795.707 1032.33 833.217 1023.86C876.518 1014.16 919.52 1012.77 960.192 1018.23C1004.23 1023.96 1045.84 1037.62 1083.43 1058.4C1121.07 1079.11 1154.81 1106.94 1182.15 1140.05M-404.029 152.246C-269.389 165.49 -156.671 248.66 -79.7058 352.091C-3.44664 454.661 36.284 581.637 90.7064 700.768C103.713 729.245 119.761 757.329 133.807 787.873C153.762 831.512 171.166 877.504 189.831 920.359C210.614 968.114 233.675 1012.78 262.393 1053.8C265.895 1058.82 269.499 1063.71 273.168 1068.65C307.738 1114.92 354.339 1156.25 410.339 1173.11C436.577 1181.02 464.924 1183.6 494.845 1178.55C525.183 1173.5 554.769 1161.23 583.874 1145.22C626.902 1121.4 668.569 1089.79 711.755 1065.36C748.283 1044.64 786.302 1029.5 824.539 1021.59C868.734 1012.37 911.941 1013.04 952.356 1020.19C996 1027.94 1036.83 1043.42 1074.41 1065.45C1111.93 1087.55 1146.41 1116.05 1175.27 1148.01M-407.893 154.113C-275.967 169.373 -163.352 250.355 -86.086 350.119C-10.0996 448.264 27.0577 571.884 84.048 685.092C97.8697 712.512 116.006 739.256 130.901 769.928C151.939 813.666 168.42 861.263 185.435 905.164C204.385 953.929 224.933 999.396 251.549 1041.64C254.831 1046.81 258.165 1051.91 261.549 1056.94C293.776 1104.89 338.732 1148.21 394.133 1167.35C420.155 1176.36 448.755 1179.98 479.031 1175.83C509.774 1171.63 540.118 1160.15 570.005 1144.22C613.963 1120.7 656.623 1088.48 700.685 1063.46C737.987 1042.28 776.729 1026.75 815.728 1019.22C860.832 1010.6 904.281 1013.13 944.454 1022.1C987.688 1031.74 1027.81 1049.11 1065.25 1072.41C1102.64 1095.77 1137.88 1125.06 1168.2 1155.94M-411.756 155.98C-282.545 173.256 -169.967 252.102 -92.4661 348.147C-16.6713 442.034 18.0295 562.284 77.4556 669.467C92.174 695.998 112.484 721.153 128.045 751.917C150.218 795.687 165.658 844.906 181.09 889.903C198.091 939.693 216.358 985.93 240.805 1029.35C243.803 1034.61 246.918 1039.86 250.032 1045.11C280.034 1094.71 323.242 1140.16 378.028 1161.46C403.953 1171.55 432.637 1176.29 463.318 1172.99C494.534 1169.67 525.618 1158.87 556.355 1143.07C601.361 1119.83 644.896 1087.02 689.9 1061.46C727.976 1039.83 767.441 1023.91 807.151 1016.81C853.216 1008.72 896.855 1013.2 936.786 1023.98C979.559 1035.59 1018.96 1054.71 1056.33 1079.33C1093.65 1104.01 1129.58 1134.05 1161.42 1163.78M-415.62 157.847C-289.122 177.139 -176.648 253.797 -98.9125 346.125C-23.4923 435.718 9.18432 552.72 70.7971 653.791C86.463 679.367 108.78 703.014 125.19 733.906C148.431 777.657 162.948 828.482 176.811 874.693C191.979 925.494 207.733 972.531 230.077 1017.17C232.805 1022.65 235.701 1028.04 238.647 1033.37C266.373 1084.69 307.934 1132.14 362.056 1155.67C387.831 1166.91 416.651 1172.71 447.687 1170.3C479.374 1167.88 511.149 1157.83 542.669 1142.1C588.605 1119.15 633.184 1085.68 678.962 1059.66C717.812 1037.57 757.984 1021.14 798.421 1014.61C845.329 1007.07 889.276 1013.46 928.914 1026.13C971.277 1039.63 1009.97 1060.63 1047.15 1086.58C1084.34 1112.53 1121.02 1143.36 1154.38 1171.94M-419.484 159.714C-295.7 181.022 -183.395 255.442 -105.293 344.154C-30.1304 429.438 0.587891 543.243 64.2043 638.167C80.8329 662.905 105.141 684.926 122.335 715.896C146.659 759.744 160.253 812.176 172.415 859.499C185.735 911.192 198.99 959.147 219.283 1004.94C221.726 1010.52 224.402 1016.06 227.079 1021.6C252.579 1074.58 292.326 1124.11 345.901 1149.84C371.577 1162.17 400.533 1169.02 431.924 1167.52C464.082 1165.99 496.599 1156.61 528.917 1141.08C575.9 1118.41 621.355 1084.35 668.009 1057.74C707.632 1035.2 748.528 1018.38 789.676 1012.29C837.545 1005.28 881.615 1013.56 921.078 1028.09C963.031 1043.49 1001.01 1066.37 1038.13 1093.63C1075.24 1120.9 1112.62 1152.48 1147.5 1179.91M-423.347 161.581C-302.278 184.905 -190.127 257.204 -111.739 342.131C-36.9513 423.121 -7.72318 533.669 57.5459 622.491C75.1371 646.391 101.386 666.853 119.428 697.951C144.887 741.831 157.491 795.818 168.019 844.304C179.441 896.956 190.314 945.814 208.438 992.783C210.662 998.503 213.003 1004.21 215.46 1009.9C238.684 1064.6 276.8 1116.24 329.695 1144.09C355.156 1157.51 384.314 1165.46 416.11 1164.81C448.689 1164.23 481.947 1155.53 515.048 1140.07C563.013 1117.64 609.344 1082.99 656.954 1055.96C697.351 1032.96 738.904 1015.7 780.829 1010.1C829.608 1003.68 873.919 1013.84 913.073 1030.14C954.617 1047.44 991.82 1072.13 1028.87 1100.72C1065.92 1129.3 1103.98 1161.62 1140.33 1187.98M-427.211 163.448C-308.79 188.839 -196.94 258.797 -118.119 340.159C-43.7059 416.856 0.717258 513.307 50.9537 606.866C73.6131 626.245 97.7475 648.764 116.573 679.94C143.049 723.867 154.847 779.445 163.741 829.094C173.329 882.756 181.688 932.414 197.761 980.54C199.766 986.408 201.888 992.26 204.01 998.113C224.891 1054.48 261.376 1108.24 313.657 1138.25C338.969 1152.82 368.262 1161.83 400.412 1162.08C433.397 1162.34 467.463 1154.37 501.296 1139.05C550.242 1116.85 597.515 1081.66 646.001 1054.04C687.223 1030.52 729.499 1012.87 772.07 1007.66C821.742 1001.73 866.31 1013.87 905.222 1031.99C946.356 1051.18 982.849 1077.75 1019.76 1107.6C1056.63 1137.52 1095.5 1170.57 1133.36 1195.78M-431.023 165.249C-315.317 192.657 -203.688 260.442 -124.515 338.071C-50.5931 410.489 -6.12177 502.235 44.3308 591.007C68.4116 608.954 94.0787 630.442 113.754 661.746C141.364 705.706 152.239 762.89 159.431 813.65C167.238 868.257 173.033 918.781 187.003 968.13C188.671 974.16 190.625 980.094 192.528 986.094C211.082 1044.25 245.87 1100.07 297.588 1132.17C322.802 1147.83 352.231 1157.89 384.736 1159.04C418.192 1160.2 452.948 1152.97 487.631 1137.79C537.573 1115.93 585.824 1080.02 635.135 1051.88C677.131 1027.9 720.063 1009.8 763.411 1005.1C813.994 999.752 858.736 1013.72 897.473 1033.7C938.13 1054.74 973.979 1083.24 1010.78 1114.48C1047.57 1145.71 1087.13 1179.5 1126.52 1203.56M-434.887 167.117C-321.894 196.54 -210.618 262.051 -130.895 336.099C-57.4651 404.239 -12.8946 491.213 37.7383 575.383C63.1744 591.845 90.4402 612.354 110.847 643.801C139.475 687.808 149.477 746.532 155.035 798.455C160.944 854.021 164.341 905.331 176.274 955.954C177.724 962.131 179.408 968.278 181.092 974.425C197.37 1034.3 230.461 1092.19 281.514 1126.52C306.578 1143.32 336.143 1154.44 369.003 1156.5C402.88 1158.6 438.428 1151.99 473.894 1136.88C524.818 1115.26 574.01 1078.81 624.212 1050.2C666.982 1025.76 710.637 1007.27 754.697 1003.01C806.239 998.196 851.223 1014.04 889.616 1035.96C929.863 1058.9 964.936 1089.23 1001.66 1121.78C1038.33 1154.28 1078.65 1188.86 1119.54 1211.78M-438.75 168.983C-328.472 200.422 -217.599 263.726 -137.275 334.127C-64.3878 398.054 -19.7181 480.257 31.146 559.757C58.0035 574.787 86.802 594.266 108.058 625.841C137.82 669.88 146.899 730.21 150.823 783.296C154.949 839.805 155.848 892.033 165.612 943.829C166.843 950.153 168.191 956.462 169.656 962.757C183.541 1024.37 215.001 1084.37 265.491 1120.79C290.406 1138.75 320.106 1150.92 353.372 1153.82C387.72 1156.82 424.011 1150.88 460.275 1135.96C512.179 1114.57 562.314 1077.58 613.392 1048.38C656.935 1023.49 701.364 1004.54 746.084 1000.79C798.536 996.574 843.695 1014.24 881.846 1037.98C921.735 1062.75 956.047 1095.01 992.64 1128.83C1029.23 1162.65 1070.24 1197.98 1112.54 1219.76M-442.614 170.851C-335.05 204.306 -215.114 255.316 -143.722 332.105C-79.9259 400.715 -26.5571 469.185 24.4873 544.082C52.7152 557.745 83.0463 576.193 105.137 607.779C135.915 651.865 144.24 713.721 146.412 767.984C148.757 825.438 147.09 878.532 154.803 931.485C155.749 937.906 156.944 944.413 158.073 950.87C169.681 1014.2 200.734 1074.73 249.321 1114.85C273.475 1134.75 304.039 1147.16 337.593 1150.92C372.413 1154.81 409.394 1149.61 446.441 1134.78C499.276 1113.68 550.403 1076.09 602.306 1046.36C646.623 1021.01 691.709 1001.63 737.207 998.368C790.554 994.63 836.02 1014.22 873.877 1039.84C913.356 1066.51 946.958 1100.65 983.417 1135.73C1019.94 1170.87 1061.64 1206.94 1105.46 1227.57M-446.544 172.667C-341.643 208.072 -221.915 256.075 -150.117 330.016C-87.0885 394.978 -33.3958 458.113 17.8798 528.34C47.5291 540.571 79.3928 557.988 102.282 589.768C134.077 633.901 141.596 697.348 142.133 752.775C142.696 811.172 138.465 865.132 144.075 919.309C144.751 925.943 145.661 932.546 146.571 939.15C155.786 1004.22 183.984 1068.45 233.232 1109.08C257.848 1129.33 287.936 1143.59 321.845 1148.25C357.086 1153.1 394.859 1148.52 432.705 1133.88C486.587 1113.06 538.641 1074.81 591.368 1044.56C636.459 1018.75 682.268 998.98 728.477 996.164C782.733 993.023 828.375 1014.43 866.057 1041.92C905.059 1070.43 937.951 1106.45 974.408 1142.91C1010.8 1179.31 1053.26 1216.17 1098.59 1235.66M-450.407 174.533C-348.22 211.954 -228.768 256.9 -156.563 327.994C-94.2359 389.359 -40.2344 447.04 11.2214 512.664C42.2921 523.462 75.6884 539.848 99.3605 571.706C132.29 615.871 138.885 680.924 137.671 737.529C136.453 796.87 129.656 851.697 133.215 907.03C133.606 913.761 134.297 920.512 135.055 927.314C141.993 994.107 168.443 1060.46 217.128 1103.19C241.594 1124.59 271.819 1139.9 306.133 1145.4C341.845 1151.14 380.309 1147.3 418.938 1132.74C473.802 1112.15 526.731 1073.31 580.467 1042.58C626.332 1016.32 672.848 996.032 719.834 993.711C775.051 991.101 820.271 1015.24 858.323 1043.75C897.629 1073.24 929.097 1112.06 965.369 1149.84C1001.69 1187.56 1044.79 1225.24 1091.69 1243.51M-454.271 176.401C-354.732 215.889 -235.855 257.757 -162.944 326.022C-101.267 383.724 -47.0583 436.085 4.62878 497.04C37.1208 506.405 71.9988 521.827 96.571 553.747C130.518 597.959 136.358 664.537 133.392 722.319C130.341 782.67 121.097 838.349 122.487 894.855C122.659 901.732 123.08 908.697 123.552 915.595C128.097 984.125 152.916 1052.59 201.038 1097.41C225.305 1120.04 255.767 1136.27 290.435 1142.67C326.568 1149.37 365.759 1146.09 405.252 1131.77C461.097 1111.41 514.968 1072.04 569.529 1040.78C616.167 1014.06 663.407 993.386 711.104 991.508C767.165 989.443 813.288 1014.59 850.501 1045.83C888.735 1078.07 920.156 1117.91 956.293 1156.96C992.431 1196.01 1036.34 1234.42 1084.71 1251.61M-458.083 178.201C-361.259 219.705 -253.105 272.059 -169.339 323.933C-100.049 366.852 -53.8458 424.946 -2.04449 481.246C31.8179 489.245 68.2796 503.57 93.6349 535.568C128.665 579.877 133.633 647.996 129.033 706.941C124.2 768.236 112.441 824.715 111.729 882.444C111.631 889.535 111.818 896.53 112.021 903.641C114.172 973.908 137.426 1044.54 184.919 1091.41C209.037 1115.18 239.634 1132.46 274.657 1139.77C311.262 1147.36 351.194 1144.76 391.47 1130.52C448.296 1110.39 503.161 1070.41 558.546 1038.63C605.958 1011.45 653.921 990.387 702.33 988.953C759.3 987.484 805.715 1014.44 842.518 1047.58C880.393 1081.65 910.987 1123.38 947.122 1163.8C983.192 1204.17 1027.79 1243.31 1077.67 1259.36M-461.946 180.068C-367.837 223.588 -260.371 273.83 -175.719 321.962C-107.308 360.83 -60.6694 413.99 -8.63681 465.621C26.647 472.187 64.6412 485.482 90.7949 517.674C126.842 562.03 131.055 631.674 124.703 691.797C118.088 754.036 103.765 811.381 100.95 870.334C100.567 877.521 100.55 884.78 100.468 891.988C100.226 963.991 121.798 1036.81 168.779 1085.7C192.747 1110.62 223.546 1129.01 258.909 1137.11C295.934 1145.65 336.608 1143.73 377.733 1129.61C435.49 1109.78 491.347 1069.2 547.623 1036.95C595.809 1009.31 644.48 987.74 693.615 986.867C751.545 985.928 798.136 1014.71 834.712 1049.78C872.162 1085.62 902.061 1129.35 938.062 1171.03C974.063 1212.72 1019.35 1252.61 1070.75 1267.51M-465.81 181.936C-374.414 227.472 -267.805 275.682 -182.165 319.939C-114.684 354.824 -67.5083 402.918 -15.2954 449.946C21.3437 455.028 60.9366 467.343 87.8734 499.612C125.055 544.001 128.411 615.302 120.292 676.485C111.961 739.719 95.0074 797.88 90.1406 857.99C89.5389 865.324 89.2373 872.679 88.9356 880.035C86.3004 953.774 106.242 1028.7 152.66 1079.69C176.427 1105.83 207.413 1125.2 243.182 1134.14C280.678 1143.58 322.093 1142.33 363.951 1128.36C422.689 1108.76 479.488 1067.64 536.64 1034.8C585.651 1006.64 634.993 984.743 684.774 984.261C743.548 983.868 790.497 1014.5 826.78 1051.46C863.82 1089.2 893.009 1134.8 928.876 1177.75C964.742 1220.71 1010.79 1261.39 1063.71 1275.14M-469.674 183.803C-380.992 231.355 -275.173 277.586 -188.545 317.968C-122.162 348.949 -74.3321 391.963 -21.888 434.321C16.1725 437.971 57.2472 449.321 85.0842 481.652C123.283 526.088 125.832 598.98 116.079 661.327C106.018 725.438 86.514 784.583 79.4785 845.865C78.6579 853.346 78.0203 860.864 77.5657 868.417C72.5371 943.894 90.7964 1021 136.703 1074.02C160.321 1101.3 191.443 1121.73 227.565 1131.58C265.483 1141.97 307.691 1141.34 350.28 1127.51C410.066 1108.19 467.74 1066.48 525.717 1033.12C575.502 1004.5 625.501 982.162 676.11 982.109C735.844 982.246 783.035 1014.75 819.025 1053.59C855.706 1093.16 884.068 1140.65 919.815 1184.99C955.614 1229.26 1002.35 1270.69 1056.74 1283.35M-473.537 185.67C-387.57 235.238 -282.643 279.621 -194.926 315.996C-129.574 343.126 -81.105 380.941 -28.4807 418.696C10.9503 420.98 53.6085 431.233 82.1777 463.708C121.46 508.241 123.254 582.658 111.683 646.132C99.8399 711.187 77.7712 771.199 68.6841 833.638C67.5275 841.282 66.737 848.998 65.9975 856.647C58.5755 933.86 75.2037 1013.08 120.547 1068.19C143.965 1096.7 175.273 1118.11 211.802 1128.8C250.191 1140.08 293.023 1140.14 336.528 1126.49C397.295 1107.4 455.962 1065.09 514.83 1031.25C565.389 1002.18 616.161 979.383 667.431 979.84C728.075 980.573 775.491 1014.84 811.255 1055.6C847.576 1097.01 875.178 1146.44 910.857 1192.1C946.587 1237.68 994.011 1279.86 1049.92 1291.37M-477.401 187.537C-394.148 239.121 -290.164 281.722 -201.372 313.973C-137.036 337.368 -87.9945 369.935 -35.1389 403.02C5.71345 403.871 49.8533 413.159 79.3227 445.696C119.622 490.277 120.61 566.285 107.287 630.937C93.7287 696.987 69.08 757.748 57.8393 821.477C56.4637 829.268 55.3882 837.08 54.3787 844.943C44.6144 923.826 59.5097 1005.3 104.341 1062.44C127.544 1092.04 159.171 1114.54 195.988 1126.08C234.798 1138.32 278.422 1138.99 322.66 1125.48C384.408 1106.62 444.017 1063.77 503.76 1029.35C555.093 999.82 606.522 976.583 658.57 977.534C720.108 978.746 767.831 1014.93 803.185 1057.6C839.148 1100.83 865.988 1152.21 901.533 1199.13C937.078 1246.05 985.31 1288.95 1042.73 1299.32M-481.264 189.404C-400.66 243.055 -297.721 284.007 -207.752 312.002C-144.55 331.677 -94.7674 358.914 -41.7315 387.396C0.542141 386.814 46.2146 395.071 76.4672 427.686C117.85 472.365 118.082 549.898 103.008 615.727C87.734 682.772 60.4544 744.349 47.162 809.235C45.5675 817.173 44.1561 825.147 42.9786 833.091C30.8209 913.712 44.0852 997.295 88.3541 1056.53C111.356 1087.35 143.17 1110.84 180.341 1123.28C219.623 1136.41 263.989 1137.76 309.075 1124.38C371.805 1105.75 432.29 1062.31 492.924 1027.42C545.031 997.432 597.183 973.804 649.942 975.199C712.389 977.007 760.339 1014.95 795.465 1059.54C831.069 1104.61 857.083 1157.88 892.559 1206.12C928.036 1254.35 976.958 1298 1035.83 1307.17M-485.077 191.205C-407.186 246.872 -305.212 286.342 -214.147 309.913C-152.063 325.985 -101.606 347.841 -48.4049 371.603C-4.70982 369.588 42.4953 376.815 73.5971 409.558C116.048 454.218 115.423 533.408 98.6486 600.349C81.5925 668.338 51.814 730.832 36.353 796.89C34.4735 804.925 32.9091 813.097 31.4618 821.255C16.8447 903.561 28.493 989.375 72.25 1050.64C95.103 1082.6 127.052 1107.15 164.629 1120.44C204.331 1134.52 249.424 1136.43 295.309 1123.25C358.953 1104.8 420.497 1060.8 482.022 1025.44C534.903 994.993 587.829 970.908 641.248 972.812C704.656 975.151 752.847 1014.97 787.681 1061.44C822.926 1108.34 848.178 1163.55 883.52 1213.05C918.863 1262.56 968.542 1307 1028.88 1315.09M-488.941 193.072C-413.764 250.755 -312.79 288.928 -220.528 307.942C-159.547 320.528 -108.379 336.82 -54.9977 355.978C-9.93227 352.597 38.7546 358.859 70.6906 391.613C114.057 436.452 112.845 517.087 94.3185 585.206C75.5467 654.19 43.1372 717.499 25.6245 784.714C23.4751 792.963 21.6258 801.231 19.9595 809.536C2.949 893.579 12.8494 981.522 56.1605 1044.87C78.8132 1078.05 110.949 1103.58 148.881 1117.77C189.054 1132.75 234.888 1135.33 281.571 1122.34C346.197 1104.12 408.683 1059.59 471.033 1023.7C524.687 992.803 578.27 968.276 632.467 970.675C696.718 973.559 745.267 1015.23 779.808 1063.59C814.628 1112.27 839.134 1169.54 874.409 1220.36C909.683 1271.18 960.053 1316.36 1021.91 1323.3M-492.803 194.938C-420.291 254.571 -320.352 291.628 -226.974 305.919C-167.03 315.07 -115.268 325.813 -61.6047 340.236C-15.1839 335.371 35.1016 340.654 67.8867 373.536C112.387 418.407 110.318 500.698 90.0251 569.878C69.5376 639.857 34.4972 703.982 14.882 772.421C12.4476 780.765 10.3792 789.181 8.44299 797.699C-10.9608 883.478 -2.74241 973.601 40.0569 1038.98C62.4942 1073.25 94.8315 1099.89 133.169 1114.92C173.763 1130.85 220.339 1134.12 267.805 1121.21C333.412 1103.22 396.84 1058.15 460.065 1021.67C514.494 990.312 568.8 965.395 623.759 968.171C688.97 971.585 737.761 1015.13 771.942 1065.32C806.469 1115.88 830.083 1174.99 865.289 1227.13C900.495 1279.26 951.555 1325.19 1014.93 1330.98M-496.667 196.806C-426.869 258.455 -327.885 294.565 -233.354 303.948C-174.433 309.781 -122.976 323.24 -68.1976 324.611C-19.9249 325.812 31.4628 322.566 65.0311 355.525C110.549 400.443 107.79 484.311 85.6799 554.618C63.4107 625.541 25.8714 690.583 4.13843 760.128C1.48507 768.62 -0.853137 777.249 -3.02338 785.797C-24.8866 873.262 -18.2842 965.616 24.0032 1033.02C46.2401 1068.51 78.7793 1096.25 117.507 1112.01C158.522 1128.9 205.824 1132.72 254.155 1120.06C320.743 1102.3 385.113 1056.69 449.214 1019.62C504.416 987.807 559.43 962.382 615.115 965.719C681.237 969.729 730.319 1015.08 764.208 1067.15C798.325 1119.61 821.228 1180.59 856.3 1234C891.372 1287.4 943.189 1334.12 1008.08 1338.77M-500.531 198.673C-433.447 262.338 -335.219 297.653 -239.735 301.976C-181.821 304.608 -129.125 310.591 -74.7901 308.987C-24.9617 307.488 27.7733 304.544 62.1909 337.631C108.792 382.648 105.161 468.055 81.4161 539.525C57.4312 611.442 17.3119 677.235 -6.57462 748.069C-9.44692 756.708 -12.0701 765.433 -14.5103 774.195C-38.7668 863.396 -33.7954 957.865 7.92914 1027.36C29.9658 1064.07 62.7424 1092.73 101.774 1109.46C143.21 1127.31 191.304 1131.74 240.367 1119.22C307.937 1101.69 373.299 1055.48 438.24 1018C494.216 985.734 549.953 959.918 606.283 963.647C673.299 968.137 722.623 1015.36 756.234 1069.43C789.992 1123.72 812.134 1186.64 847.138 1241.37C882.142 1296.09 934.649 1343.55 1001.01 1347.12M-504.395 200.54C-439.958 266.272 -342.589 300.925 -246.181 299.954C-189.157 299.37 -135.524 297.856 -81.4485 293.311C-30.1456 288.945 24.0689 286.405 59.2696 319.57C106.888 364.633 102.568 451.617 77.0052 524.214C51.3046 597.126 8.55439 663.734 -17.3838 735.725C-20.592 744.526 -23.4342 753.399 -26.0273 762.358C-52.6923 853.18 -49.4538 949.894 -8.22601 1021.54C13.5953 1059.35 46.5736 1089.11 86.0107 1106.68C127.918 1125.42 176.703 1130.59 226.6 1118.08C295.166 1100.9 361.455 1054.03 427.272 1015.97C484.022 983.244 540.482 957.037 597.524 961.21C665.449 966.296 715.065 1015.32 748.383 1071.28C781.782 1127.4 803.097 1192.21 838.033 1248.25C872.968 1304.29 926.166 1352.5 994.045 1354.92M-508.324 202.356C-446.602 270.104 -349.894 304.248 -252.627 297.931C-196.412 294.299 -142.223 285.1 -88.1071 277.635C-35.5127 270.367 20.3643 268.266 56.4142 301.559C105.166 346.654 100.173 435.331 72.6093 509.019C45.3251 583.028 -0.188126 650.35 -28.2289 723.564C-31.6561 732.512 -34.8342 741.547 -37.6462 750.654C-66.8877 843.176 -65.1481 942.107 -24.4322 1015.78C-2.81118 1054.8 30.3537 1085.55 70.1964 1103.96C112.524 1123.66 162.102 1129.45 212.797 1117.13C282.344 1100.18 349.509 1052.72 416.217 1014.19C473.726 980.886 530.908 954.288 588.677 959.021C657.563 964.638 707.536 1015.52 740.445 1073.37C773.536 1131.26 794.039 1198.08 828.789 1255.45C863.539 1312.83 917.494 1361.83 986.941 1363.03M-512.136 204.157C-453.129 273.921 -356.883 307.708 -259.022 295.842C-203.565 289.096 -149.104 272.308 -94.7144 261.893C-40.9097 251.554 16.711 250.06 53.5441 283.43C103.313 328.573 97.5136 418.841 68.3156 493.692C39.2496 568.644 -8.76245 636.884 -38.9209 711.204C-42.5671 720.3 -45.9642 729.482 -49.1122 738.752C-80.696 832.944 -80.8063 934.136 -40.4853 1009.82C-19.1307 1050.01 14.287 1081.8 54.4843 1101.11C97.2837 1121.7 147.603 1128.17 199.03 1115.99C269.559 1099.27 337.665 1051.28 405.315 1012.2C463.598 978.446 521.503 951.458 580.034 956.568C649.763 962.73 700.029 1015.42 732.644 1075.15C765.377 1134.87 785.119 1203.64 819.735 1262.27C854.417 1320.96 909.062 1370.71 980.027 1370.77M-516 206.024C-459.707 277.804 -363.842 311.402 -265.403 293.871C-210.52 284.047 -156.205 259.663 -101.373 246.217C-46.5409 232.771 12.9555 231.987 50.5718 265.435C101.424 310.675 94.7523 402.483 63.8537 478.446C32.9551 554.409 -17.571 623.449 -49.8321 698.992C-93.9735 802.361 -100.415 918.586 -56.6405 1004C-12.866 1089.41 83.9054 1138.36 185.278 1114.97C318.488 1084.33 443.341 942.162 571.238 954.314C641.928 961.006 692.384 1015.64 724.757 1077.18C757.079 1138.79 776.046 1209.39 810.66 1269.39C845.273 1329.4 900.609 1379.89 973.04 1378.86" stroke="url(#paint0_linear_1556_3432)" stroke-width="0.5" stroke-miterlimit="10"/>
<defs>
<linearGradient id="paint0_linear_1556_3432" x1="-125.399" y1="231.077" x2="1187.49" y2="1235.34" gradientUnits="userSpaceOnUse">
<stop stop-color="#2973FF"/>
<stop offset="0.48974" stop-color="#8846D3" stop-opacity="0.12"/>
<stop offset="1" stop-color="#FF22AC" stop-opacity="0.11"/>
</linearGradient>
</defs>
</svg>
