<svg width="42" height="42" viewBox="0 0 42 42" fill="none" xmlns="http://www.w3.org/2000/svg">
<g clip-path="url(#clip0_2309_7419)">
<path d="M0.0615234 20.7025V7.53716C0.0615234 4.70455 2.35779 2.4082 5.19047 2.4082H36.8095C39.6421 2.4082 41.9385 4.70447 41.9385 7.53716V28.8312C41.9385 31.6638 39.6422 33.9602 36.8095 33.9602H26.7483C25.0208 33.9602 23.4093 33.0905 22.4611 31.6464L20.1621 28.1451C19.2138 26.7011 17.6024 25.8314 15.8748 25.8314H5.19047C2.35787 25.8315 0.0615234 23.5351 0.0615234 20.7025Z" fill="#DF8621"/>
<path d="M34.1009 0H16.5017C14.3253 0 12.561 1.76435 12.561 3.9407V27.2978C12.561 29.4743 14.3254 31.2385 16.5017 31.2385H34.1009C36.2773 31.2385 38.0416 29.4743 38.0416 27.2978V3.9407C38.0416 1.76435 36.2773 0 34.1009 0V0Z" fill="#DDDAEC"/>
<path d="M27.8084 6.01465H10.2093C8.03283 6.01465 6.26855 7.779 6.26855 9.95535V33.3125C6.26855 35.4889 8.03291 37.2532 10.2093 37.2532H27.8084C29.9848 37.2532 31.7491 35.4889 31.7491 33.3125V9.95535C31.7491 7.77892 29.9848 6.01465 27.8084 6.01465Z" fill="#F1F4F6"/>
<path d="M41.9385 23.7059V36.8713C41.9385 39.7039 39.6422 42.0002 36.8095 42.0002H5.19047C2.35787 42.0002 0.0615234 39.704 0.0615234 36.8713V15.5772C0.0615234 12.7446 2.35779 10.4482 5.19047 10.4482H15.2517C16.9792 10.4482 18.5907 11.3179 19.5389 12.762L21.8379 16.2633C22.7862 17.7073 24.3976 18.577 26.1252 18.577H36.8094C39.6422 18.577 41.9385 20.8733 41.9385 23.7059Z" fill="#E7A52E"/>
<path d="M9.366 42.0002H5.19072C2.3582 42.0002 0.0615234 39.7035 0.0615234 36.871V15.5774C0.0615234 12.7449 2.3582 10.4482 5.19072 10.4482H9.366C6.53347 10.4482 4.2368 12.7449 4.2368 15.5774V36.871C4.2368 39.7035 6.53347 42.0002 9.366 42.0002Z" fill="#E49824"/>
<path d="M26.0233 16.2978C25.8323 16.2978 25.6502 16.2115 25.5292 16.061L23.3219 13.3138C23.1026 13.041 23.1461 12.642 23.4191 12.4227C23.692 12.2034 24.091 12.2471 24.3101 12.5198L25.9151 14.5174L28.2363 10.15C28.4007 9.84098 28.7843 9.72336 29.0934 9.8878C29.4026 10.0521 29.5199 10.4358 29.3557 10.7449L26.583 15.9615C26.4744 16.1675 26.2561 16.2986 26.0233 16.2978Z" fill="#B3E59F"/>
<path d="M15.7595 23.1251H4.94878C4.59872 23.1251 4.31494 22.8413 4.31494 22.4913C4.31494 22.1412 4.59864 21.8574 4.94878 21.8574H15.7595C16.1096 21.8574 16.3934 22.1412 16.3934 22.4913C16.3933 22.8414 16.1096 23.1251 15.7595 23.1251Z" fill="#FFE07D"/>
<path d="M15.7595 25.4708H4.94878C4.59872 25.4708 4.31494 25.187 4.31494 24.837C4.31494 24.4869 4.59864 24.2031 4.94878 24.2031H15.7595C16.1096 24.2031 16.3934 24.4869 16.3934 24.837C16.3933 25.187 16.1096 25.4708 15.7595 25.4708Z" fill="#FFE07D"/>
</g>
<defs>
<clipPath id="clip0_2309_7419">
<rect width="42" height="42" fill="white"/>
</clipPath>
</defs>
</svg>
