<svg width="44" height="44" viewBox="0 0 44 44" fill="none" xmlns="http://www.w3.org/2000/svg">
<g clip-path="url(#clip0_2310_7371)">
<path d="M23.3306 19.9795H7.479V37.0688C7.479 37.4292 7.69101 37.7549 8.0205 37.9005L21.6317 43.9222C21.8665 44.0259 22.134 44.0259 22.3679 43.9222L23.3307 43.4963V19.9795H23.3306Z" fill="#FCB44D"/>
<path d="M36.5214 19.9795V30.7441L27.9836 34.5207C27.6342 34.6754 27.262 34.7546 26.8797 34.7546C25.9697 34.7546 25.1225 34.3033 24.6147 33.5489L22.0002 29.664L19.3857 33.5489C19.1319 33.9265 18.7933 34.2278 18.4038 34.4343C18.0152 34.6417 17.5757 34.7546 17.1207 34.7546C16.7376 34.7546 16.3662 34.6754 16.0159 34.5206L7.479 30.744V19.9795H11.9772L22.0002 24.414L32.0232 19.9795H36.5214Z" fill="#FCA62F"/>
<path d="M36.5212 19.9795V37.0688C36.5212 37.4292 36.3083 37.7549 35.9789 37.9005L22.3676 43.9222C22.2512 43.9741 22.1256 44.0005 22 44.0005V19.9795H36.5212Z" fill="#FB8627"/>
<path d="M32.023 19.9795L22 24.414V29.664L24.6145 33.5489C25.1223 34.3033 25.9695 34.7546 26.8795 34.7546C27.2618 34.7546 27.634 34.6755 27.9834 34.5207L32.6856 32.4408C33.3799 32.1336 34.1606 32.642 34.1606 33.4011V38.7049L35.9789 37.9006C36.3083 37.755 36.5212 37.4292 36.5212 37.0688V19.9795H32.023Z" fill="#FB7722"/>
<path d="M22.0002 13.5557L7.479 19.9798L22.0002 26.4039L36.5214 19.9798L22.0002 13.5557Z" fill="#5B5555"/>
<path d="M36.5213 19.9798L22.0001 26.4041L19.7134 25.3924L31.0274 20.3868C31.3806 20.2305 31.3806 19.7293 31.0274 19.5731L19.7134 14.5674L22.0001 13.5557L36.5213 19.9798Z" fill="#433F43"/>
<path d="M26.575 18.0723L25.5553 24.9209L22.0006 26.4931L18.446 24.9209L17.4263 18.0723H26.575Z" fill="#F3EAE6"/>
<path d="M26.5741 18.0713L26.1818 20.7077L25.5535 24.9217L23.0132 26.0446L23.701 21.4311C23.1467 21.52 22.5799 21.5672 22.0006 21.5672C20.5174 21.5672 19.1035 21.2611 17.8195 20.7068L17.4263 18.0713H26.5741Z" fill="#E0D3CE"/>
<path d="M22.0004 19.5135C26.7695 19.5135 30.6356 15.6474 30.6356 10.8783C30.6356 6.10926 26.7695 2.24316 22.0004 2.24316C17.2313 2.24316 13.3652 6.10926 13.3652 10.8783C13.3652 15.6474 17.2313 19.5135 22.0004 19.5135Z" fill="#FCC16D"/>
<path d="M30.635 10.8787C30.635 15.6469 26.7697 19.5132 22.0005 19.5132C21.5329 19.5132 21.073 19.4759 20.626 19.4041C24.7408 18.7448 27.8849 15.1782 27.8849 10.8787C27.8849 6.57811 24.7408 3.01153 20.626 2.35222C21.073 2.28046 21.5329 2.24316 22.0005 2.24316C26.7697 2.24316 30.635 6.10949 30.635 10.8787Z" fill="#FCB44D"/>
<path d="M26.064 9.6748C25.6957 9.6748 25.3967 9.97378 25.3967 10.3421V10.7959C25.3967 11.0077 25.225 11.1795 25.0132 11.1795H18.9876C18.7758 11.1795 18.6041 11.0078 18.6041 10.7959V10.3421C18.6041 9.9737 18.3052 9.6748 17.9368 9.6748C17.5676 9.6748 17.2695 9.97378 17.2695 10.3421V10.7959C17.2695 11.7436 18.04 12.5141 18.9877 12.5141H19.3979V19.1136C19.8294 19.2497 20.2752 19.3529 20.7326 19.4197V15.381H23.2684V19.4197C23.7258 19.3529 24.1715 19.2497 24.6031 19.1136V12.5141H25.0133C25.9609 12.5141 26.7314 11.7435 26.7314 10.7959V10.3421C26.7313 9.97378 26.4333 9.6748 26.064 9.6748ZM23.2683 14.0463H20.7325V12.5141H23.2683V14.0463Z" fill="#FB8627"/>
<path d="M20.6255 19.4036C20.6611 19.4089 20.6966 19.4151 20.7322 19.4196V19.3849C20.6967 19.392 20.6612 19.3982 20.6255 19.4036ZM23.2682 18.5218V19.4196C23.7255 19.3528 24.1713 19.2496 24.6028 19.1135V17.6533C24.1873 17.9817 23.7406 18.2735 23.2682 18.5218Z" fill="#FB7722"/>
<path d="M25.8777 21.9775H18.1224C17.7538 21.9775 17.4551 22.2763 17.4551 22.6448C17.4551 23.0134 17.7539 23.3122 18.1224 23.3122H25.8777C26.2463 23.3122 26.545 23.0134 26.545 22.6448C26.545 22.2763 26.2463 21.9775 25.8777 21.9775Z" fill="#CDBFBB"/>
<path d="M26.5457 22.6453C26.5457 23.0139 26.2466 23.3121 25.8779 23.3121H24.2451C24.6129 23.3121 24.912 23.0139 24.912 22.6453C24.912 22.2766 24.6129 21.9775 24.2451 21.9775H25.8779C26.2466 21.9775 26.5457 22.2766 26.5457 22.6453Z" fill="#B9ACAC"/>
<path d="M14.5162 2.00843C14.255 1.74872 13.8324 1.74993 13.5725 2.01126C13.3127 2.2726 13.3139 2.69515 13.5753 2.95503L14.3138 3.68919C14.444 3.81861 14.6141 3.88324 14.7843 3.88324C14.9557 3.88324 15.1272 3.81758 15.2576 3.68636C15.5174 3.42502 15.5162 3.00247 15.2548 2.74259L14.5162 2.00843Z" fill="#FEE7C9"/>
<path d="M17.33 0.50537C17.2403 0.147869 16.8775 -0.0698963 16.5203 0.020424C16.1628 0.110057 15.9457 0.472541 16.0353 0.830042L16.2915 1.85141C16.3676 2.15443 16.6395 2.35664 16.9383 2.35664C16.992 2.35664 17.0466 2.3501 17.1011 2.33635C17.4586 2.24672 17.6757 1.88424 17.5861 1.52674L17.33 0.50537Z" fill="#FEE7C9"/>
<path d="M13.4282 4.72951L12.4051 4.47925C12.0466 4.3916 11.6859 4.61091 11.5984 4.96893C11.5108 5.32694 11.73 5.68814 12.088 5.77571L13.1111 6.02596C13.1644 6.03902 13.2178 6.04521 13.2702 6.04521C13.5705 6.04521 13.8433 5.84102 13.9179 5.53629C14.0054 5.17827 13.7862 4.81708 13.4282 4.72951Z" fill="#FEE7C9"/>
<path d="M30.4281 2.01133C30.1683 1.74999 29.7457 1.74862 29.4843 2.00849L28.7457 2.74266C28.4843 3.00245 28.483 3.425 28.7429 3.68642C28.8734 3.81765 29.0447 3.88331 29.2162 3.88331C29.3863 3.88331 29.5566 3.81868 29.6867 3.68926L30.4252 2.95509C30.6866 2.6953 30.6879 2.27275 30.4281 2.01133Z" fill="#FEE7C9"/>
<path d="M27.4806 0.0203109C27.1232 -0.0696657 26.7606 0.147756 26.6709 0.505256L26.4147 1.52662C26.3251 1.88412 26.5422 2.24652 26.8997 2.33624C26.9542 2.34999 27.0087 2.35652 27.0625 2.35652C27.3613 2.35652 27.6333 2.15431 27.7093 1.8513L27.9655 0.829928C28.0552 0.472428 27.8381 0.11003 27.4806 0.0203109Z" fill="#FEE7C9"/>
<path d="M32.4023 4.96892C32.3147 4.61099 31.9538 4.39159 31.5955 4.47925L30.5724 4.7295C30.2144 4.81707 29.9952 5.17827 30.0827 5.53628C30.1573 5.84102 30.4301 6.0452 30.7305 6.0452C30.783 6.0452 30.8363 6.03893 30.8895 6.02595L31.9126 5.7757C32.2706 5.68813 32.4899 5.32685 32.4023 4.96892Z" fill="#FEE7C9"/>
<path d="M36.5212 19.9795L40.465 25.8395C40.7811 26.3093 40.596 26.9507 40.0782 27.1798L27.2474 32.8561C26.844 33.0346 26.3706 32.898 26.1243 32.532L22 26.4037L36.5212 19.9795Z" fill="#FCA863"/>
<path d="M40.078 27.1805L37.8311 28.1742C38.2024 27.8821 38.3034 27.3379 38.0258 26.9248L34.0781 21.0606L36.5215 19.9795L40.4647 25.84C40.7814 26.3096 40.5967 26.9512 40.078 27.1805Z" fill="#FC9744"/>
<path d="M7.47896 19.9795L3.5352 25.8395C3.21903 26.3093 3.40414 26.9507 3.922 27.1798L16.7526 32.856C17.1561 33.0345 17.6295 32.8979 17.8758 32.5319L22.0001 26.4036L7.47896 19.9795Z" fill="#FCC16D"/>
</g>
<defs>
<clipPath id="clip0_2310_7371">
<rect width="44" height="44" fill="white"/>
</clipPath>
</defs>
</svg>
