<svg width="67" height="58" viewBox="0 0 67 58" fill="none" xmlns="http://www.w3.org/2000/svg">
<path d="M13 20.6C14.7 10.1 25.8 2 39 2C53.5 2 64.5 11.6 64.5 23.5C64.5 28.7 63 33.5 57.8 37.2C57 41.4 57.8 45.5 58.6 48.1C58.9 49.1 57.9 50 56.9 49.7L42.8 44.7C41.4 44.9 40.2 45 38.7 45" stroke="#3B3735" stroke-width="4" stroke-miterlimit="10" stroke-linecap="round" stroke-linejoin="round"/>
<path d="M21.7 18.8999C10.5 18.8999 2 26.3999 2 35.5999C2 39.5999 3.3 43.2999 7.2 46.1999C7.9 49.0999 7.4 51.9999 6.8 53.9999C6.5 54.9999 7.5 55.9999 8.5 55.5999L18.7 51.9999C19.8 52.0999 20.7 52.1999 21.8 52.1999C33 52.1999 42 44.6999 42 35.4999C42 26.2999 32.9 18.8999 21.7 18.8999Z" stroke="#3B3735" stroke-width="4" stroke-miterlimit="10" stroke-linecap="round" stroke-linejoin="round"/>
<path d="M11.4 30H32.2" stroke="#3B3735" stroke-width="3" stroke-miterlimit="10" stroke-linecap="round" stroke-linejoin="round"/>
<path d="M11.4 35.2H32.2" stroke="#3B3735" stroke-width="3" stroke-miterlimit="10" stroke-linecap="round" stroke-linejoin="round"/>
<path d="M11.4 40.3999H32.2" stroke="#3B3735" stroke-width="3" stroke-miterlimit="10" stroke-linecap="round" stroke-linejoin="round"/>
</svg>
