<svg width="89" height="100" viewBox="0 0 89 100" fill="none" xmlns="http://www.w3.org/2000/svg">
<path d="M44.1174 47.0703L48.4794 69.54L44.1174 92.0098H28.2717C27.4085 92.0098 26.5881 91.6289 26.0315 90.9688C25.4749 90.3086 25.2385 89.4355 25.385 88.584L27.0608 78.832L30.6096 58.1914L32.1038 49.5039C32.344 48.0977 33.5628 47.0703 34.9905 47.0703H44.1174Z" fill="#FFD944"/>
<path d="M62.1934 90.9805C61.6367 91.6328 60.8203 92.0098 59.9629 92.0098H44.1172V47.0703H53.6309C55.0684 47.0703 56.293 48.1133 56.5234 49.5313L57.9004 58.0293L61.2695 78.832L62.8535 88.6113C62.9922 89.4609 62.75 90.3262 62.1934 90.9805Z" fill="#FF9E22"/>
<path d="M30.843 57.9369C30.6713 57.9369 30.4973 57.9217 30.3223 57.8904L19.9064 56.0221C8.37188 53.9527 0 43.9453 0 32.2266C0 29.5342 2.19043 27.3438 4.88281 27.3438H19.9811C21.599 27.3438 22.9107 28.6555 22.9107 30.2734C22.9107 31.8914 21.599 33.2031 19.9811 33.2031H5.88496C6.33027 41.6561 12.5242 48.7447 20.941 50.2547L31.3568 52.123C32.9494 52.4086 34.009 53.9312 33.7232 55.524C33.4689 56.9416 32.2344 57.9369 30.843 57.9369Z" fill="#FFD944"/>
<path d="M57.3912 57.9369C55.9996 57.9369 54.7652 56.9418 54.5109 55.524C54.2252 53.9314 55.2845 52.4088 56.8773 52.123L67.2931 50.2547C75.7099 48.7449 81.9039 41.6562 82.3492 33.2031H68.2533C66.6353 33.2031 65.3236 31.8914 65.3236 30.2734C65.3236 28.6555 66.6353 27.3438 68.2533 27.3438H83.3515C86.0439 27.3438 88.2343 29.5342 88.2343 32.2266C88.2343 43.9453 79.8625 53.9527 68.3279 56.0219L57.9121 57.8902C57.7369 57.9217 57.5629 57.9369 57.3912 57.9369ZM83.3513 33.2031H83.3533H83.3513Z" fill="#FF9E22"/>
<path d="M44.1172 13.3556L52.3853 37.5954L44.1172 61.8361C39.1973 61.8361 34.582 60.5079 30.6094 58.1915C22.6094 53.5255 17.2227 44.8517 17.2227 34.9415V16.2853C17.2227 14.6681 18.5352 13.3556 20.1523 13.3556H44.1172Z" fill="#F7F9FA"/>
<path d="M71.0117 16.2853V34.9415C71.0117 44.7365 65.748 53.3263 57.9004 58.0294C53.8672 60.4454 49.1504 61.8361 44.1172 61.8361V13.3556H68.082C69.6992 13.3556 71.0117 14.6681 71.0117 16.2853Z" fill="#D1CFF1"/>
<path d="M44.1174 0L48.4793 9.60742L44.1174 19.2148H16.7424C13.7092 19.2148 11.2424 16.748 11.2424 13.7148V5.5C11.2424 2.4668 13.7092 0 16.7424 0L44.1174 0Z" fill="#FFF26C"/>
<path d="M44.1174 78.8319L50.693 89.4159L44.1174 99.9999H16.7424C13.7092 99.9999 11.2424 97.5331 11.2424 94.4999V84.3319C11.2424 81.2987 13.7092 78.8319 16.7424 78.8319H44.1174Z" fill="#FFF26C"/>
<path d="M76.9922 84.3319V94.4999C76.9922 97.5331 74.5254 99.9999 71.4922 99.9999H44.1172V78.8319H71.4922C74.5254 78.8319 76.9922 81.2987 76.9922 84.3319Z" fill="#FFD944"/>
<path d="M44.1174 26.668L48.4793 37.5953L44.1174 47.2461L44.1115 47.2441L40.7209 48.3379C39.1897 48.8311 37.4928 48.3139 36.5119 47.0703C35.9846 46.4121 35.678 45.5879 35.6604 44.7305L35.5842 41.0488L33.5412 38.1758C32.0621 36.0904 32.9651 33.1711 35.3694 32.293L38.842 31.0234L41.0569 28.168C41.7951 27.2148 42.9104 26.668 44.1174 26.668Z" fill="#FFD944"/>
<path d="M54.6875 38.1836L52.6387 41.0488L52.5742 44.7188C52.5266 47.3428 49.9525 49.1297 47.5156 48.3379L44.1172 47.2461V26.668H44.123C44.7266 26.668 45.3086 26.8066 45.8301 27.0645C46.3516 27.3203 46.8164 27.6973 47.1836 28.1758L49.3809 31.0234L52.8613 32.291C55.2682 33.1686 56.1764 36.0959 54.6875 38.1836Z" fill="#FF9E22"/>
<path d="M76.9922 5.5V13.7148C76.9922 16.748 74.5254 19.2148 71.4922 19.2148H44.1172V0H71.4922C74.5254 0 76.9922 2.4668 76.9922 5.5Z" fill="#FFD944"/>
</svg>
