<svg width="19" height="16" viewBox="0 0 19 16" fill="none" xmlns="http://www.w3.org/2000/svg">
<g clip-path="url(#clip0_1_2)">
<path d="M16.9302 13.6449H8.48863C7.98256 13.6465 7.49084 13.4768 7.09354 13.1634C6.69625 12.8499 6.4168 12.4111 6.30071 11.9186L6.07774 10.9849C6.0784 10.9791 6.0784 10.9732 6.07774 10.9674L4.23822 3.26968H18.2907V9.14534C18.2898 9.71933 18.0614 10.2695 17.6555 10.6754C17.2496 11.0813 16.6994 11.3097 16.1254 11.3106H7.0515L7.14209 11.7165C7.21297 12.0182 7.384 12.287 7.62728 12.479C7.87056 12.6711 8.17173 12.775 8.48166 12.7739H16.9302C17.0457 12.7739 17.1565 12.8197 17.2382 12.9014C17.3198 12.9831 17.3657 13.0939 17.3657 13.2094C17.3657 13.3249 17.3198 13.4356 17.2382 13.5173C17.1565 13.599 17.0457 13.6449 16.9302 13.6449V13.6449ZM6.84421 10.4396H16.1254C16.2954 10.4396 16.4637 10.4061 16.6207 10.3411C16.7778 10.2761 16.9204 10.1807 17.0406 10.0605C17.1608 9.94035 17.2561 9.79767 17.3212 9.64064C17.3862 9.48361 17.4197 9.31531 17.4197 9.14534V4.14066H5.34263L6.84421 10.4396Z" fill="white"/>
<path d="M4.79042 4.14067C4.69716 4.14064 4.60637 4.11066 4.53142 4.05515C4.45647 3.99964 4.40132 3.92154 4.37409 3.83235L3.75917 1.81689C3.67711 1.54243 3.50836 1.30193 3.27818 1.13142C3.04799 0.960898 2.76877 0.869531 2.48231 0.870995H0.435493C0.319993 0.870995 0.209224 0.825113 0.127553 0.743442C0.0458821 0.661772 0 0.551002 0 0.435503C0 0.320003 0.0458821 0.209233 0.127553 0.127563C0.209224 0.045892 0.319993 9.85702e-06 0.435493 9.85702e-06H2.48231C2.95626 -0.00140954 3.41795 0.1505 3.79847 0.433059C4.17898 0.715618 4.4579 1.11367 4.59358 1.56778L5.20675 3.58324C5.24043 3.69366 5.22889 3.81293 5.17466 3.91485C5.12044 4.01676 5.02797 4.09297 4.91758 4.12674C4.87621 4.13813 4.83328 4.14284 4.79042 4.14067V4.14067Z" fill="white"/>
<path d="M9.14536 16C8.92348 16 8.70659 15.9342 8.5221 15.8109C8.33762 15.6877 8.19383 15.5125 8.10892 15.3075C8.02402 15.1025 8.0018 14.8769 8.04509 14.6593C8.08837 14.4417 8.19521 14.2418 8.35211 14.0849C8.509 13.928 8.70889 13.8212 8.9265 13.7779C9.14411 13.7346 9.36968 13.7568 9.57466 13.8417C9.77965 13.9266 9.95486 14.0704 10.0781 14.2549C10.2014 14.4394 10.2672 14.6563 10.2672 14.8782C10.2667 15.1756 10.1484 15.4606 9.9381 15.6709C9.72782 15.8812 9.44274 15.9995 9.14536 16V16ZM9.14536 14.6273C9.09575 14.6273 9.04725 14.642 9.006 14.6696C8.96475 14.6972 8.93259 14.7363 8.91361 14.7822C8.89462 14.828 8.88966 14.8784 8.89933 14.9271C8.90901 14.9758 8.9329 15.0205 8.96799 15.0555C9.00307 15.0906 9.04776 15.1145 9.09642 15.1242C9.14508 15.1339 9.19552 15.1289 9.24135 15.1099C9.28719 15.0909 9.32636 15.0588 9.35393 15.0175C9.38149 14.9763 9.3962 14.9278 9.3962 14.8782C9.39483 14.8126 9.3678 14.7501 9.32091 14.7042C9.27401 14.6582 9.21099 14.6325 9.14536 14.6326V14.6273Z" fill="white"/>
<path d="M15.3171 16C15.0953 16 14.8784 15.9342 14.6939 15.8109C14.5094 15.6877 14.3656 15.5125 14.2807 15.3075C14.1958 15.1025 14.1736 14.8769 14.2169 14.6593C14.2602 14.4417 14.367 14.2418 14.5239 14.0849C14.6808 13.928 14.8807 13.8212 15.0983 13.7779C15.3159 13.7346 15.5415 13.7568 15.7464 13.8417C15.9514 13.9266 16.1266 14.0704 16.2499 14.2549C16.3732 14.4394 16.439 14.6563 16.439 14.8782C16.4385 15.1756 16.3202 15.4606 16.1099 15.6709C15.8996 15.8812 15.6145 15.9995 15.3171 16V16ZM15.3171 14.6273C15.2675 14.6273 15.219 14.642 15.1778 14.6696C15.1365 14.6972 15.1044 14.7363 15.0854 14.7822C15.0664 14.828 15.0614 14.8784 15.0711 14.9271C15.0808 14.9758 15.1047 15.0205 15.1398 15.0555C15.1749 15.0906 15.2195 15.1145 15.2682 15.1242C15.3169 15.1339 15.3673 15.1289 15.4131 15.1099C15.459 15.0909 15.4981 15.0588 15.5257 15.0175C15.5533 14.9763 15.568 14.9278 15.568 14.8782C15.5666 14.8126 15.5396 14.7501 15.4927 14.7042C15.4458 14.6582 15.3828 14.6325 15.3171 14.6326V14.6273Z" fill="white"/>
</g>
<defs>
<clipPath id="clip0_1_2">
<rect width="18.2907" height="16" fill="white"/>
</clipPath>
</defs>
</svg>
