<svg width="48" height="48" xmlns="http://www.w3.org/2000/svg">

 <g>
  <title>background</title>
  <rect fill="none" id="canvas_background" height="402" width="582" y="-1" x="-1"/>
 </g>
 <g>
  <title>Layer 1</title>
  <path d="m19.128693,10.296559c-0.183823,0 -0.367647,0 -0.919117,0c-0.183823,0 -0.534861,0.056627 -0.919115,0.735292c-0.373426,0.659544 -0.588066,1.8501 -0.735292,2.757347c-0.186228,1.147588 -0.547329,2.40072 -0.367647,3.860286c0.092606,0.752243 0.222757,1.032242 0.367647,0.919115c0.597399,-0.466434 0.183823,-2.022055 0.183823,-4.044108c0,-1.470585 0,-2.757347 0,-3.124993c0,-0.367646 0,0.183823 0,0.735292c0,1.286762 0,2.389701 0,2.941171c0,0.551469 0,0.919115 0,1.654408c0,1.654408 -0.216221,3.035608 0.183825,2.94117c0.715622,-0.168938 0,-1.286762 0,-2.022055c0,-0.919115 0.070345,-1.456593 0,-1.286762c-0.198969,0.480354 -0.367647,1.286762 -0.367647,2.022055c0,1.10294 0,2.022055 0,1.838232c0,-0.367647 0,-0.735292 0,-1.286762c0,-0.735292 0.183823,-1.286762 0,-1.286762c-0.183823,0 0,0.367647 0,1.286762c0,0.55147 -0.013992,0.98946 -0.183823,0.919115c-0.480353,-0.198969 -0.367647,-1.286762 -0.367647,-2.205877c0,-0.735292 -0.237663,-1.232922 -0.367646,-1.10294c-0.259966,0.259966 0,0.735294 0,2.022055c0,0.919117 0,1.470587 0,1.654409c0,0.183823 1.55808,-2.184021 2.205878,-4.963225c0.638321,-2.738544 0.55147,-3.860286 0.55147,-4.411756c0,-0.183823 0,-0.367646 0,-0.735292c0,-0.183823 0,-0.367646 0,-0.735292c0,-0.183824 -0.041979,-0.578685 -0.55147,-0.367646c-1.441059,0.596906 -1.745119,1.815907 -1.838232,2.389701c-0.088335,0.544348 0,1.102939 0,1.470585c0,0.183824 0,0.55147 0,0.735292c0,0.55147 0.367647,1.10294 0.367647,1.470586c0,0.183823 0.482681,0.477227 2.205877,-0.367646c1.419832,-0.696136 2.022055,-2.205878 2.022055,-2.941171c0,-0.183824 -0.225801,-0.211038 -0.735292,0c-0.480354,0.198969 -0.789133,0.972957 -0.919115,1.102939c-0.259966,0.259966 -0.291504,0.291505 -0.55147,0.55147c-0.129984,0.129984 -0.611216,-0.113973 0,-1.10294c0.546688,-0.884558 1.102938,-1.286761 1.102938,-1.470585c0,-0.183823 -0.184717,-0.201936 -0.367645,-0.183823c-0.932756,0.09236 -1.838232,0.367645 -2.389702,0.919115c-0.367645,0.367646 -0.43799,0.565462 -0.367645,0.735292c0.099483,0.240176 1.113039,-0.534805 2.94117,-1.654408c1.478878,-0.90571 2.12154,-1.23041 2.022055,-1.470586c-0.070347,-0.16983 -0.381639,-0.070346 -0.55147,0c-0.960707,0.397938 -1.357878,1.45544 -1.83823,1.654408c-0.169832,0.070347 0,0 0.551468,-0.367646c1.10294,-0.735293 1.559971,-1.070539 1.654409,-1.470585c0.042234,-0.178906 -0.1996,-0.290361 -0.55147,-0.183824c-0.634346,0.192064 -0.67894,0.635808 -0.919115,0.735292c-0.169832,0.070347 -0.367647,0 -0.55147,0c-0.183823,0 -0.402346,-0.107483 -0.55147,0c-0.471575,0.339892 -0.127306,1.320954 -0.367647,1.654408c-0.152004,0.210895 -0.386654,0.534251 -0.551468,0.735292c-0.420198,0.512559 -0.642687,1.085989 -0.735292,1.838232c-0.08984,0.729783 0.043394,1.654408 -0.367647,1.654408c-0.411041,0 -0.511646,-1.211654 0,-2.205878c0.118956,-0.231152 0.183823,-0.551469 0.183823,-0.367646c0,0.55147 0.205688,2.061649 0.55147,3.124993c0.127111,0.390893 0.672955,0.913434 1.838232,0.367646c1.300158,-0.608962 1.745117,-2.367376 1.83823,-2.94117c0.058889,-0.362899 -0.029446,-0.92149 0,-1.10294c0.093115,-0.573793 0.183825,-0.735292 0.183825,-0.919115c0,-0.183824 -0.186932,-0.385406 -1.286762,-0.183824c-0.921959,0.168981 -1.10294,0.367646 -1.10294,0.55147c0,0.183823 -0.156368,0.454827 0,0.551469c0.699305,0.432194 1.334938,-0.289111 2.573524,-1.102939c0.768139,-0.504714 0.862129,-0.857076 0.367647,-0.551469c-0.88456,0.546688 -1.717487,1.631623 -2.022055,2.573524c-0.233191,0.721158 -0.183825,1.102939 -0.367647,1.286762c-0.183823,0.183824 -0.240339,-0.034192 0,-0.367646c1.368038,-1.898053 2.489058,-2.767182 2.573524,-3.124993c0.094439,-0.400045 -0.027985,-0.508339 -0.367647,-0.367646c-0.960707,0.397938 -1.206522,1.599721 -1.654408,2.573524c-0.4858,1.056236 -0.25494,2.0372 -0.735292,1.838232c-0.509491,-0.211038 0.292385,-0.968691 0.919115,-1.838232c0.990948,-1.374866 2.022055,-2.573524 2.022055,-3.124993c0,-0.183823 0,-0.367646 -0.183823,-0.367646c-0.367647,0 -1.046423,-0.218016 -1.286762,-0.55147c-0.152004,-0.210895 -0.367647,-0.367646 -0.55147,-0.367646c-0.367645,0 -0.497627,0.237664 -0.367645,0.367646c0.129982,0.129982 0.561302,-0.084469 0.919115,0c0.400045,0.094439 0.735292,0.367646 1.10294,0.367646c0.919115,0 1.416742,0.053841 1.28676,0.183824c-0.129982,0.129982 -0.919115,0.367646 -2.022055,0.919116c-0.735292,0.367646 -0.919115,0.735292 -0.919115,0.919115c0,0.367646 0.569792,0.467735 1.838232,0.183824c2.439894,-0.546114 4.49679,-1.240833 4.963224,-1.838231c0.113127,-0.144891 -0.531565,0.219808 -1.838232,0.919115c-0.72481,0.387906 -1.504776,0.862599 -1.83823,1.102939c-0.210896,0.152005 -0.495115,0.451985 -0.735292,0.55147c-0.169832,0.070347 -0.183825,-0.183824 -0.183825,-0.55147c0,-0.367646 0.183825,-0.551469 0.183825,-0.735292c0,-0.183823 0,-0.367646 -0.55147,-0.367646c-0.183823,0 -0.504417,-0.042243 -1.838232,0.919116c-0.632685,0.456013 -0.919115,0.919116 -0.919115,1.102939c0,0.183824 2.315197,-0.282931 3.860285,-2.389701c0.585432,-0.798253 0.367647,-1.286762 0.367647,-1.470585c0,-0.183824 0,-0.367646 -0.183823,-0.367646c-0.183825,0 -0.437992,0.013992 -0.367647,0.183823c0.099483,0.240176 0.495115,0.451985 0.735292,0.55147c0.16983,0.070346 0.440432,0.142181 0.183823,0.183823c-0.405733,0.06584 -0.819632,-0.12747 -0.919115,-0.367646c-0.070345,-0.16983 0.183823,-0.183823 0.367647,-0.183823c0.919115,0 1.654408,0 2.3897,0c0.183825,0 0,0 -0.367645,0c-0.183825,0 -0.565887,0.145193 -1.10294,0.367646c-0.379753,0.157298 0.186134,0.248978 1.10294,0.183823c1.296556,-0.092143 1.484577,-0.437992 1.654408,-0.367646c0.240177,0.099484 0.071115,0.536325 0.55147,0.735293c0.16983,0.070346 0.367645,0 0.55147,0c0.183823,0 0.354425,0.112324 0.735292,0.551469c0.269314,0.310522 0.947102,0.226954 1.286762,0.367646c0.240177,0.099484 0.381638,0.2973 0.551468,0.367646c0.240177,0.099484 0.183825,0.367646 0.183825,0.55147c0,0.183823 0.183823,0.367646 0.367645,0.735292c0.183825,0.367646 0.458357,0.345322 0.55147,0.919116c0.029446,0.181449 0,0.367646 0,0.551469c0,0.55147 0.084339,0.67894 0.183823,0.919116c0.070347,0.169831 0,0.367646 0,0.55147c0,0.183823 0,0.551469 0,0.735292c0,0.183823 0,0.367645 0,0.55147c0,0.183823 0.183825,0.367645 0.183825,0.55147c0,0.183823 0,0.551468 0,0.367645c0,-0.183823 0,-0.735292 0,-1.286762c0,-0.919115 0.126703,-1.117691 0,-1.654408c-0.094439,-0.400046 -0.183825,-0.55147 -0.183825,-0.919116c0,-0.183824 0,-0.55147 0,-0.735292c0,-0.55147 -0.168676,-0.80641 -0.367645,-1.286762c-0.140692,-0.339661 -0.183823,-0.55147 -0.367647,-0.55147c-0.183823,0 -0.55147,0 -0.735292,0c-0.367645,0 -0.509235,-0.18874 -0.55147,-0.367646c-0.094439,-0.400045 -0.254938,-0.720146 -0.735292,-0.919115c-0.16983,-0.070346 -0.211277,-0.087182 -0.367645,-0.183824c-0.349651,-0.216097 -0.367647,-0.367646 -0.735292,-0.367646c-0.919117,0 -1.654409,0 -1.838232,0c-0.183823,0 -0.55147,0 -0.735292,0c-0.183823,0 -0.178905,-0.325413 0,-0.367646c0.400045,-0.094439 0.556387,-0.325413 0.735292,-0.367646c0.400045,-0.094438 0.367647,0.551469 0.735292,0.551469c0.183823,0 0.271006,0.211277 0.367647,0.367646c0.216097,0.349652 0.735292,0.183824 0.919115,0.183824c0.367647,0 0.919115,0 1.10294,0c0.183823,0 0.2973,0.197816 0.367645,0.367646c0.099483,0.240176 0.183823,0.367646 0.183823,0.55147c0,0.367646 0.183825,0.367646 0,0.367646c-0.551468,0 -0.943563,0.079134 -1.654408,-0.183824c-0.385509,-0.142609 -0.608456,-0.245861 -1.10294,-0.551469c-0.442278,-0.273343 -0.682352,-0.548092 -1.654408,-0.735293c-0.902531,-0.173812 -1.286762,0 -1.470585,0c-0.183825,0 -0.593449,-0.211039 -1.10294,0c-0.480352,0.198969 -0.778992,1.090251 -0.919115,1.654408c-0.269533,1.08518 -0.275286,2.192238 -0.367647,3.124993c-0.05434,0.548786 0.958027,-0.131272 1.470585,-0.551469c1.809378,-1.483336 2.389702,-2.389701 2.389702,-2.757347c0,-0.367646 0,-0.55147 -0.183823,-0.55147c-0.367647,0 -0.55147,0 -0.919117,0c-0.735292,0 -1.112772,0.084468 -1.470585,0c-0.400043,-0.094438 -0.819632,-0.311293 -0.919115,-0.551469c-0.070347,-0.169831 0,-0.919116 0,-1.470586c0,-0.183823 0,-0.367646 -0.183823,-0.367646c-0.183825,0 -0.421488,-0.129982 -0.55147,0c-0.129982,0.129983 0,0.367646 0,0.55147c0,0.367646 0.260216,0.616722 0,1.102939c-0.31274,0.58436 -0.919117,0.919116 -1.10294,1.470585c-0.183823,0.55147 -0.183823,1.286762 -0.183823,2.022055c0,0.55147 -0.12747,1.202424 -0.367647,1.102939c-0.16983,-0.070346 0,-0.367646 0,-0.735292c0,-0.183823 -0.237663,-0.421487 -0.367645,-0.551469c-0.129982,-0.129983 -0.186195,-0.213269 -0.367647,-0.183824c-0.573793,0.093114 -1.921041,0.818104 -2.3897,1.286762c-0.468659,0.468659 -0.367647,0.919116 -0.367647,1.470585c0,0.183824 0.252768,0.265407 0.919117,-0.367646c1.040869,-0.988857 1.7236,-1.485348 2.022055,-2.205877c0.070347,-0.169831 -0.227325,-0.541122 -0.55147,-0.367646c-0.58436,0.312739 -0.735292,1.654408 -0.735292,2.573524c0,0.55147 -0.183825,1.470586 0,1.470586c0.55147,0 0.354614,-0.919579 0.367645,-1.10294c0.092144,-1.296556 0.313805,-2.259718 0.183823,-2.389701c-0.129982,-0.129982 -0.468554,0.333458 -0.735292,1.286762c-0.301292,1.076795 -0.183823,2.205878 -0.183823,2.757348c0,0.367645 0.015438,-0.176502 0.183823,-0.55147c0.405527,-0.903043 1.010714,-2.194474 1.10294,-3.308817c0.030323,-0.366393 0.02276,-0.175708 -0.183823,0.367646c-0.497517,1.308569 -1.031675,2.952363 -1.470585,5.514695c-0.316502,1.847723 -1.10294,3.49264 -0.55147,3.49264c0.919117,0 0.855995,-3.219622 1.470585,-5.882341c0.374367,-1.621945 0.183823,-2.573524 0.183823,-3.124993c0,-0.55147 0,-0.735292 -0.183823,-0.735292c-0.183823,0 -0.367647,0 -0.367647,0.551469c0,1.470586 0,3.124994 0,4.411757c0,1.102938 -0.182446,1.448124 0,1.470585c0.752243,0.092606 0.367647,-2.205877 0.367647,-3.308817c0,-0.919116 0,-1.102939 0,-0.367646c0,0.367646 0,1.654408 0,3.124993c0,1.286762 0,2.022055 0,2.3897c0,0.183825 0.761541,0.114136 1.286762,-1.102938c0.971743,-2.25178 1.286762,-6.249988 1.286762,-8.639688c0,-0.919115 -0.027985,-1.427454 -0.367647,-1.286761c-0.960707,0.397938 -1.469955,2.18307 -1.654408,4.411756c-0.212265,2.564756 -0.327824,5.071938 0.183823,6.066164c0.118956,0.231152 0.222755,0.480774 0.367647,0.367645c0.597399,-0.466434 0.2066,-1.284389 0.367645,-2.94117c0.214153,-2.20314 0.703753,-4.075649 0.183823,-4.595579c-0.259964,-0.259964 -1.046774,0.015192 -1.470585,1.470586c-0.650097,2.232471 -1.102938,4.779401 -1.102938,9.92645c0,2.022055 0.107679,3.232674 0.367645,3.49264c0.129982,0.129982 0.441185,-0.024158 0.735292,-1.10294c0.67345,-2.470203 2.347397,-4.954832 3.308817,-8.272041c0.412556,-1.42345 0.507967,-2.400047 0.183823,-2.573524c-0.58436,-0.31274 -2.004131,1.922829 -2.573523,4.595579c-0.49939,2.344158 -0.386391,8.303732 0,10.110273c0.243162,1.136885 0.329159,-0.932966 1.470585,-4.044109c1.422827,-3.878143 2.481516,-7.346674 2.573523,-9.374981c0.033319,-0.734537 0.259964,-1.394444 0,-1.654408c-0.389946,-0.389947 -1.958366,0.939003 -2.94117,3.124994c-1.097515,2.441133 -1.102938,6.801455 -1.102938,8.823509c0,0.735294 0.183823,0.919117 0.183823,0.55147c0,-1.654408 0.980066,-5.272448 1.654408,-8.639687c0.291021,-1.453176 0.353653,-2.50318 0.183823,-2.573524c-0.480352,-0.198969 -1.108215,1.22238 -1.83823,3.676462c-0.750425,2.522699 -0.096653,6.150887 0.367645,9.374981c0.026201,0.181946 0.418713,-0.215439 0.919117,-2.022055c0.729458,-2.63357 2.369696,-7.504774 2.757347,-9.926451c0.32093,-2.004869 0.363642,-2.903009 0.183823,-2.94117c-1.771009,-0.375834 -1.880203,4.005913 -2.205877,6.617634c-0.614565,4.928457 -0.551472,7.352926 -0.183825,7.352926c0.55147,0 0.783388,-2.006601 1.470587,-4.227934c1.186537,-3.835413 1.28676,-6.433809 1.28676,-7.720572c0,-0.735292 -0.591221,0.359312 -0.919115,2.022055c-1.046606,5.307314 -1.286762,8.823511 -1.286762,11.580858c0,0.735292 0.03326,1.024576 0.183825,0.919115c1.7623,-1.234364 2.050591,-5.270781 2.94117,-8.823511c0.727612,-2.902617 0.55147,-4.963224 0.55147,-6.433809c0,-0.367647 -0.441578,-0.736572 -1.10294,0c-3.188379,3.550964 -1.814835,8.091555 -1.654408,11.948505c0.091991,2.211611 0.876076,3.10791 1.28676,3.124992c0.989063,0.041142 1.854767,-2.753263 2.573524,-5.698517c0.940788,-3.855062 1.286762,-6.985279 1.286762,-9.191158c0,-1.286761 -0.117113,-1.768837 -0.367645,-1.838231c-0.730421,-0.202315 -0.919117,3.124993 -0.919117,6.98528c0,3.49264 -1.043875,6.232895 0,6.985279c0.471575,0.339891 1.905823,-1.900883 3.49264,-5.514694c1.098684,-2.502138 1.286762,-5.147049 1.286762,-6.433809c0,-0.55147 -0.404261,-0.702763 -1.102938,0.551468c-1.414433,2.539118 -0.919117,6.617634 -0.919117,10.661743c0,3.124994 0,5.147047 0,5.698519c0,0.183823 0.172695,-0.188492 1.10294,-2.389702c1.089928,-2.579062 1.654408,-8.088219 1.654408,-10.845566c0,-1.286762 -0.01399,-1.767885 -0.183823,-1.838232c-0.240177,-0.099483 -0.475367,1.080132 -0.735292,2.573524c-0.316778,1.820038 -0.183823,3.860287 -0.183823,5.882341c0,1.102938 0,1.470585 0,1.286762c0,-1.10294 0.109884,-3.679203 0,-5.882341c-0.092026,-1.845106 -0.640854,-2.541126 -0.735292,-2.94117c-0.042234,-0.178907 0,0.919115 0,2.757347c0,2.205877 -0.15827,5.195944 0.367645,6.617632c0.142609,0.385509 0.620665,0.536707 0.919117,-0.183823c0.35173,-0.849152 0.749088,-3.12274 1.10294,-5.330872c0.382572,-2.387356 0.367645,-3.676462 0.367645,-4.044109c0,-0.183823 0,1.286762 0,2.573524c0,1.838232 0,3.676462 0,4.779402c0,0.183823 -0.053841,0.497629 -0.183823,0.367647c-0.259964,-0.259966 0,-0.735292 0,-2.389702c0,-1.10294 -0.333103,-4.195896 -0.735294,-6.433809c-0.294437,-1.638344 -0.345322,-3.401931 -0.919115,-3.308817c-0.3629,0.05889 -0.09177,0.911482 -0.183823,2.573524c-0.050827,0.917709 0,2.022055 0,2.94117c0,0.735292 0,1.286762 0,1.838232c0,0.183823 0,0 0,-0.55147c0,-0.55147 0.181137,-2.031 0,-3.860287c-0.092361,-0.932756 -0.225489,-1.403303 -0.367647,-1.286762c-0.724869,0.59425 -0.560305,2.238245 -0.183823,4.411757c0.4664,2.692631 1.363758,3.753458 1.654408,4.044109c0.290649,0.290649 0.800774,0.038427 1.10294,-0.55147c0.716034,-1.397867 1.376213,-3.437332 1.654408,-5.514694c0.170795,-1.275377 0.056515,-2.423893 -0.183823,-2.757347c-0.152004,-0.210896 -0.255344,0.190708 -0.367645,1.102938c-0.092606,0.752243 -0.28334,1.41593 -0.551472,2.022055c-0.306622,0.69313 -0.127468,1.187279 -0.367645,1.286762c-0.16983,0.070345 -0.367645,0 -0.367645,-0.183823c0,-0.55147 -0.183823,-1.10294 -0.183823,-1.470585c0,-0.183823 -0.183823,-0.367647 -0.183823,-0.55147c0,-0.183823 -0.183826,-0.183823 -0.183826,0c0,0.183823 0,0 0,-0.735292c0,-0.919115 0,-1.470585 0,-1.286762c0,0.367647 0,0.55147 0,0.735292c0,0.183823 0.09071,0.345322 0.183826,0.919115c0.088337,0.544348 0.129982,0.789135 0,0.919117c-0.129986,0.129986 -0.106567,-0.396484 -0.551472,-1.470585c-0.471895,-1.139257 -1.355953,-1.852995 -1.654408,-2.573524c-0.070347,-0.169831 0,-0.55147 0,-1.286762c0,-0.735292 0,-1.286762 0,-1.654408c0,-0.183824 0,-0.367646 0,-0.55147c0,-0.183823 0,-0.367646 0,-0.551469c0,-0.183824 0.089384,-0.335247 0.183823,-0.735292c0.042234,-0.178906 0.367645,-0.55147 0.183823,-0.55147c-0.183823,0 0,0.367646 0,0.919116c0,0.735292 0,2.022055 0,3.308816c0,1.470586 0,2.941172 0,3.676464c0,0.551468 -0.183823,0.919115 0,0.919115c0.183823,0 0,-0.55147 0,-2.389702c0,-1.654408 0,-2.022054 0,-1.654408c0,0.367646 0,1.102939 0,2.022055c0,0.55147 -0.183823,1.470585 0,1.470585c0.367645,0 0.090971,-0.73905 0,-1.838232c-0.092226,-1.114342 -0.226954,-1.866216 -0.367645,-2.205877c-0.099483,-0.240176 -0.55147,0 -0.55147,0.367647c0,1.102939 0,2.022055 0,2.757347c0,0.367645 0.183823,0.55147 0.367647,0.55147c0.551468,0 1.202019,-0.940254 1.654408,-2.573524c0.310337,-1.120416 0.367647,-2.022055 0.367647,-2.389701c0,-0.183824 0.070345,-0.353654 0,-0.183824c-0.099485,0.240177 -0.183825,0.919116 -0.183825,2.022055c0,1.470585 -0.183823,2.205877 0,2.205877c0.183823,0 0,-0.735292 0,-1.470585c0,-1.838231 0,-2.389701 0,-2.573524c0,-0.183824 -0.367645,-0.183824 -0.367645,0c0,0.551469 0,1.102939 0,1.838231c0,0.55147 0.18145,1.257317 0,1.286762c-0.573793,0.093113 -0.151424,-2.116492 -0.55147,-2.022055c-0.178905,0.042233 0,2.205877 0,3.676462c0,1.10294 0.091597,2.378298 0.183823,3.49264c0.075809,0.915985 0,1.286762 0,1.654409c0,0.367645 -0.367645,0.55147 -0.55147,0.55147c-0.551468,0 -1.243366,0.270613 -1.654408,-0.55147c-0.739874,-1.47975 0,-4.411757 0,-6.98528c0,-1.470585 -0.097563,-2.813318 0.183823,-3.49264c0.099485,-0.240177 0.183825,0.183824 0.183825,3.860286c0,2.757347 0.642687,5.313921 0.735292,6.066164c0.067381,0.547338 0,0.367647 0,-0.183823c0,-0.735292 0.034039,-3.128378 -0.183825,-5.147049c-0.159023,-1.473473 -0.169542,-3.175261 -0.735292,-3.308816c-0.25301,-0.059728 -0.183823,0.919116 -0.183823,1.838231c0,0.735292 0.432446,2.394753 -0.367645,2.205877c-0.536716,-0.126701 0,-1.286762 0,-3.49264c0,-1.470585 0,-3.124993 0,-3.49264c0,-0.551469 -0.297245,-0.597961 -0.55147,0.183824c-0.345781,1.063344 -0.275503,2.196083 -0.367647,3.49264c-0.026062,0.366721 -0.053841,0.865274 -0.183823,0.735292c-0.389948,-0.389947 0.147596,-1.104728 0.183823,-1.470585c0.092361,-0.932756 0.367645,-1.286762 0.183823,-1.286762c-0.183823,0 -0.088337,0.374767 0,0.919116c0.093115,0.573793 0.311293,1.187278 0.55147,1.286762c0.339661,0.140693 0.569014,-0.363482 0.735292,-1.10294c0.205637,-0.914482 0.183825,-1.654408 0.183825,-2.389701c0,-0.367646 -0.406559,-0.420197 -0.919117,0c-0.402082,0.32963 -0.864973,0.982753 -1.286762,1.286762c-0.333452,0.240339 -0.707838,0.454828 -0.551468,0.55147c0.349651,0.216096 0.577993,-0.723186 0.735292,-1.10294c0.222454,-0.53705 0.183823,-0.735292 -0.183825,-0.735292c-0.551468,0 -1.28676,0 -2.022055,0c-0.735292,0 -1.6684,0.2973 -1.83823,0.367646c-0.240177,0.099484 -0.183825,0.55147 -0.183825,0.735292c0,0.183824 0.013992,0.437994 0.183825,0.367647c0.240177,-0.099484 0.68145,-0.789134 0.551468,-0.919116c-0.129982,-0.129982 -0.367645,0.183823 -0.735292,0.551469c-0.919115,0.919115 -1.646166,1.387711 -1.83823,2.022055c-0.053268,0.175936 1.1119,-0.54384 2.205877,-1.838231c0.926752,-1.09653 1.443132,-1.557767 1.286762,-1.654408c-0.349653,-0.216098 -1.513861,1.238194 -2.757347,2.389701c-0.762968,0.706532 -1.286762,1.286762 -1.286762,1.470586c0,0.183823 -0.263372,0.131754 0,-0.183824c0.588921,-0.705653 1.621519,-1.525492 2.205877,-1.838231c0.162071,-0.086739 0.373426,0.259571 0,0.919115c-0.128084,0.226222 -1.179935,0.782458 -1.470585,1.654408c-0.05813,0.174391 -0.164415,0.449854 0,0.367646c0.822083,-0.411041 0.826002,-1.632084 0.919115,-2.205877c0.029446,-0.18145 -0.402761,-0.414923 -1.654408,0.551469c-1.136398,0.87741 -1.788866,1.668543 -2.022055,2.389701c-0.304567,0.941902 -0.237665,1.340603 -0.367647,1.470585c-0.129982,0.129982 0.331921,-0.082428 1.10294,-0.367645c0.710844,-0.262959 1.82999,-0.836241 2.022055,-1.470586c0.106539,-0.351871 0.129982,-0.789133 0,-0.919115c-0.129982,-0.129982 -0.367647,0.183823 -0.55147,0.367646c-0.367645,0.367646 -0.938124,0.901896 -1.102938,1.102938c-0.420198,0.51256 -0.379021,0.353201 0.551468,-0.367645c1.45318,-1.125774 2.587578,-2.563191 3.124994,-3.308817c0.339891,-0.471576 0.335247,-0.824677 0.735292,-0.919116c0.536718,-0.126701 1.470585,0 1.838232,0c0.183823,0 0.367645,0 0.735292,0c0.367645,0 0.919115,-0.183823 1.286762,-0.183823c0.183823,0 0.088203,0.427144 -0.183825,0.735292c-0.877264,0.993747 -1.969112,1.283384 -2.94117,1.470585c-0.180506,0.034762 -0.55147,0 -0.55147,-0.919115c0,-0.919116 0.113478,-1.668401 0.183825,-1.838232c0.099483,-0.240176 0.475327,-0.811435 0.735292,-0.551469c0.129982,0.129982 0.084339,0.311293 0.183823,0.551469c0.070347,0.169831 0,0.367646 0.183823,0.367646c0.183825,0 0.367647,0 0.55147,-0.551469c0.183823,-0.55147 0.735292,-1.102939 0.55147,-1.102939c-0.183823,0 -0.113476,0.381639 -0.183823,0.551469c-0.099485,0.240177 -0.311131,0.585663 -0.55147,0.919116c-0.304008,0.42179 -0.860193,1.024097 -1.286762,1.838231c-0.539572,1.029806 -0.536324,1.725526 -0.735292,2.205878c-0.140692,0.339661 -0.183825,0.367646 -0.183825,0c0,-0.919116 0.199554,-1.463958 0.735294,-2.757347c0.378824,-0.914565 0.88751,-1.551353 0.735292,-1.654408c-0.819719,-0.554977 -2.497019,1.237547 -3.308817,3.49264c-0.501974,1.394429 -0.367647,2.022054 -0.367647,2.389701c0,0.183823 -0.183823,0.183823 -0.183823,0c0,-0.367647 -0.07235,-0.836214 0.919115,-1.470585c1.038704,-0.664597 1.443514,-1.071122 1.654409,-0.919116c0.333454,0.240341 -1.274019,0.773497 -1.654409,2.205878c-0.094362,0.35533 -0.213903,0.527916 0.367647,-0.183825c1.400558,-1.714094 3.271229,-3.415247 4.227932,-4.963224c0.305607,-0.494483 0.367647,-0.551469 0.367647,-0.367646c0,0.367646 -0.266634,1.001926 -0.735292,1.470586c-0.937317,0.937319 -1.654409,1.286761 -2.389702,2.022055c-0.183823,0.183823 -0.367647,0.183823 -0.367647,-1.10294c0,-1.286762 0.183197,-2.558362 0,-2.573524c-1.114342,-0.092226 -0.179703,1.55227 -0.735292,2.573524c-0.562492,1.03394 -1.59742,2.084094 -1.102938,2.389701c0.22114,0.136672 0.510765,-0.594063 1.470585,-1.470585c1.060158,-0.968151 2.128881,-1.363758 1.838232,-1.654408c-0.290649,-0.290651 -1.87002,1.185596 -2.389702,2.573524c-0.328674,0.877802 -0.911993,2.301365 -0.367645,2.3897c0.573792,0.093113 0.775833,-0.8881 1.470585,-1.838231c1.173628,-1.605034 2.337149,-3.899197 2.757347,-4.411756c0.164814,-0.201041 0.211258,0.383188 -0.735292,2.022055c-1.072161,1.856352 -1.749926,3.322571 -2.022055,4.779402c-0.13917,0.745035 -0.154564,0.930553 0.55147,-0.919115c0.767284,-2.010133 1.467207,-3.4397 1.654408,-4.411756c0.069525,-0.361012 0.106539,0.015775 0,0.367646c-0.192064,0.634344 -1.010849,1.829651 -1.10294,3.308817c-0.045689,0.733871 -0.113478,1.272768 -0.183823,1.102938c-0.298452,-0.72053 1.239462,-1.377478 2.205877,-2.94117c0.648291,-1.048957 1.049099,-1.524426 0.919117,-1.654408c-0.129984,-0.129984 -1.161827,1.231427 -2.022055,2.205878c-1.387075,1.571255 -2.336252,3.0588 -2.941172,4.411755c-0.237268,0.530672 -0.02335,0.284502 0.735292,-1.102938c1.424761,-2.605667 1.264462,-4.205631 1.654409,-4.595579c0.129982,-0.129982 0.55147,0 0.55147,0.55147c0,0.735292 -0.275286,1.824589 -0.367647,2.757347c-0.018114,0.182928 0.206562,0.403883 1.10294,-0.183823c2.644829,-1.734072 4.162683,-3.696923 4.595579,-4.963226c0.320217,-0.936695 0.360975,-1.33583 0.183823,-1.286761c-1.032972,0.286117 -2.158125,1.882359 -3.860287,3.676463c-2.683908,2.82888 -4.722855,4.303469 -5.330872,5.147047c-0.480679,0.666908 -0.335247,1.376148 -0.735292,1.470585c-0.178905,0.042234 0.382208,-1.459362 1.654409,-3.124992c1.115795,-1.460854 1.730551,-2.129736 1.470585,-2.389701c-0.259966,-0.259966 -1.243343,1.129697 -2.389702,2.941171c-1.417692,2.240236 -3.263529,4.506004 -4.411755,6.433809c-0.420677,0.706293 -0.367647,1.654409 -0.367647,1.286762c0,-0.919115 -0.098764,-2.391598 0,-4.963224c0.09198,-2.394997 0.183825,-3.676464 0.183825,-4.044109c0,-0.183823 -0.335373,-0.301907 -0.735292,0.367645c-0.984125,1.647638 -1.010934,4.037857 -1.10294,6.066164c-0.041649,0.918173 0.053841,1.416744 0.183823,1.286762c0.259964,-0.259964 0.36495,-0.648556 0.735292,-1.654408c0.386335,-1.049292 0.367647,-2.205879 0.367647,-3.124994c0,-0.735292 0,-0.919115 0,-0.367645c0,0.367645 -0.183823,1.83823 -0.183823,3.49264c0,1.102938 -0.183825,2.022055 0,2.022055c0.183825,0 0,-0.735292 0,-1.470587c0,-1.28676 0,-2.573523 0,-3.308815c0,-0.183825 -0.227325,-0.3573 -0.55147,-0.183825c-0.58436,0.31274 -0.528113,1.663191 -0.367647,3.124994c0.184927,1.684645 0.707211,3.316412 0.919117,4.044109c0.162525,0.558117 0.608454,0.673252 1.102938,0.367645c0.44228,-0.273344 1.65876,-3.017918 4.779402,-6.985279c2.653118,-3.372986 4.963224,-6.249987 4.963224,-6.801456c0,-0.183823 0.042234,-0.362729 0,-0.183823c-0.377752,1.600181 -1.28676,2.573524 -2.205877,4.044109c-0.919115,1.470585 -1.102938,1.470585 -1.102938,0.735292c0,-1.470585 -0.104248,-3.312516 0,-4.779402c0.092144,-1.296556 0.183823,-1.838232 0.183823,-1.654408c0,0.367646 0,0.735292 0,1.286762c0,0.367646 0,1.102939 0,1.286762c0,0.367646 0,0.551469 0.367645,0.551469c0.367647,0 0.826756,-0.537828 0.919117,-1.470585c0.05434,-0.548786 0,-0.919116 0,-0.735292c0,0.183823 0,0.367646 0,1.102939c0,0.55147 0.053841,1.049098 0.183823,0.919116c0.129982,-0.129983 0,-1.10294 0,-1.654408c0,-0.183824 -0.183823,0.367646 -0.183823,0.735292c0,0.183824 -0.097084,0.529717 -0.183823,0.367646c-0.31274,-0.584359 0.707947,-1.862819 0.919115,-2.757347c0.188875,-0.80009 0.367645,-0.919116 0.183823,-0.919116c-0.367645,0 -1.164427,1.26721 -1.838232,3.49264c-0.607361,2.005976 -0.551468,3.676462 -0.551468,4.963224c0,1.10294 0,2.205877 0,2.573524c0,0.367645 0.215641,0.394716 0.367645,0.183823c0.240339,-0.333452 0.751844,-1.285007 0.919117,-2.94117c0.204033,-2.020115 0.357946,-3.478491 -0.183825,-3.860287c-1.239075,-0.873199 -2.738247,-0.947495 -3.676462,-0.367646c-0.349651,0.216097 -0.338202,0.365273 -0.367647,0.183824c-0.093113,-0.573794 -0.735292,-1.286762 -0.919115,-2.022055c-0.183823,-0.735292 -0.197815,-1.032593 -0.367647,-1.10294c-0.240175,-0.099484 -0.237663,-0.237663 -0.367645,-0.367646c-0.129982,-0.129982 -0.421488,-0.237664 -0.55147,-0.367646c-0.129982,-0.129982 -0.183823,-0.183823 -0.367645,-0.183823c-0.183825,0 -0.367647,0.183823 -0.367647,0.367646c0,0.367646 -0.113476,0.565462 -0.183823,0.735292c-0.099485,0.240177 -0.237665,0.237664 -0.367647,0.367646c-0.129982,0.129983 -0.55147,0 -0.55147,-0.183823c0,-0.183824 -0.1852,-0.206284 -0.367645,-0.183824c-0.752243,0.092606 -1.10294,0.55147 -1.10294,1.102939c0,0.55147 0,1.286762 0,1.654408c0,0.367646 0,0.55147 0,0.919116c0,0.183823 0,0.367645 0,0.919115c0,0.55147 0.183823,0.919117 0.183823,1.470585c0,0.367647 0,0.735294 0,1.10294c0,0.55147 0,0.735292 0,1.286762c0,0.367645 0,0.735292 0,1.286762c0,0.183823 -0.183823,0.55147 -0.183823,0.919115c0,0.183823 0.058889,0.556217 0,0.919115c-0.093114,0.573793 -0.431284,0.68115 -0.735292,1.10294c-0.24034,0.333454 -0.367646,0.919115 -0.551469,1.286762c-0.183824,0.367647 -0.325413,0.74021 -0.367646,0.919115c-0.094439,0.400045 -0.367647,0.367647 -0.55147,0.55147c-0.183824,0.183823 -0.237664,0.421488 -0.367646,0.55147c-0.129983,0.129982 -0.017994,0.335373 -0.367646,0.55147c-0.156369,0.096642 -0.268162,0.12747 -0.367646,0.367645c-0.070347,0.169832 -0.268162,0.311295 -0.367646,0.55147c-0.070346,0.16983 -0.183824,0.183823 -0.183824,0.367647c0,0.183823 -0.458356,0.345322 -0.55147,0.919115c-0.029445,0.18145 -0.111773,0.290869 2.389701,-1.470585c2.465088,-1.735832 3.998331,-3.121258 4.963226,-5.147049c0.575472,-1.208202 0.431744,-1.785469 -0.183825,-1.102938c-0.717869,0.795961 -1.753155,2.247385 -2.573524,4.227932c-0.290044,0.700228 -0.311129,1.137133 -0.551469,1.470585c-0.152004,0.210894 -0.276184,0.013641 -0.183823,-0.919115c0.126795,-1.2805 0.364268,-2.336761 0.551469,-3.308817c0.034761,-0.180506 -0.090614,0.043016 -0.551469,0.919115c-0.308558,0.586578 -0.731915,1.417645 -0.919116,2.389702c-0.104287,0.541519 -0.093208,1.059921 0.367646,0.183823c0.308558,-0.586578 0.678776,-0.953308 0.919116,-1.286762c0.304008,-0.421789 0.55147,-0.55147 0.55147,-0.919115c0,-0.183825 -0.034977,-0.389427 -0.367647,0.183823c-0.412625,0.711027 -0.919115,1.838232 -0.919115,3.124994c0,0.735292 0,1.102938 0,1.28676c0,0.183825 -0.32278,-1.132973 1.838232,-4.044107c1.93845,-2.611319 5.96162,-6.639462 6.433809,-8.639688c0.211168,-0.894527 0.183823,-1.470585 0.183823,-1.838232c0,-0.183823 -1.698063,-0.432214 -3.124992,1.10294c-1.804937,1.941832 -2.389528,4.767437 -2.573524,9.007334c-0.079697,1.836504 0.381926,2.807613 -0.183823,2.94117c-0.253012,0.059729 0.235781,-1.326168 0.735292,-2.757347c0.731928,-2.097084 3.00083,-4.381926 1.83823,-4.963224c-0.232519,-0.116261 -0.787924,1.45809 -1.28676,3.676462c-0.616909,2.743448 -0.963703,5.180279 -0.55147,7.720573c0.093113,0.573792 0.41971,0.785378 0.919115,0.551468c1.300159,-0.608963 2.09985,-3.274349 3.860287,-7.352924c1.731562,-4.011681 2.205877,-5.882341 2.205877,-6.433811c0,-0.551468 -0.046984,-0.993914 -0.735292,-0.735292c-1.829206,0.687298 -2.421474,2.620787 -3.124994,5.330872c-1.346609,5.187384 1.109816,10.018476 -0.735292,9.926451c-1.46876,-0.073254 0.844078,-3.807877 2.573524,-7.536749c1.767086,-3.810024 3.165081,-7.174051 2.94117,-8.823511c-0.13316,-0.980923 -1.597584,-1.844173 -2.757347,-1.286762c-3.182615,1.529644 -2.757347,5.147047 -2.757347,7.720572c0,2.94117 0.640856,4.011711 0.735292,4.411757c0.042234,0.178905 0.359316,0.178772 0.919117,-0.735294c0.90571,-1.478878 2.97727,-3.419409 3.676462,-4.963224c0.536255,-1.184052 0.161863,-1.779564 -0.183823,-1.654408c-1.349953,0.48875 -3.081884,2.471598 -4.779402,4.963224c-1.810501,2.657465 -2.294182,4.896252 -2.573524,6.617634c-0.088335,0.544346 0.365194,-1.37381 2.757347,-6.249987c1.195391,-2.436693 2.828705,-4.554605 3.860287,-6.433811c0.395594,-0.720642 0.367645,-1.286762 0.183823,-1.286762c-1.10294,0 -2.537685,0.798582 -3.860287,2.573524c-1.81811,2.439919 -2.480423,5.292459 -2.757347,8.272041c-0.051033,0.549103 -0.053841,0.865274 -0.183823,0.735292c-0.259964,-0.259964 -0.598291,-1.413967 0,-2.757347c1.006147,-2.259165 4.003759,-3.088232 5.514694,-4.227932c0.415087,-0.313101 -0.183823,-0.183823 -0.735292,0.367645c-0.55147,0.55147 -1.706938,1.697796 -2.94117,4.044109c-1.382565,2.628298 -2.195772,4.465984 -2.573524,6.066166c-0.084467,0.357811 0.3442,-0.382236 1.838232,-2.757349c1.629002,-2.589678 4.611731,-5.685652 7.536749,-9.374979c2.033323,-2.564631 2.94117,-4.044109 2.94117,-4.595579c0,-0.367647 -0.047674,-0.593636 -0.367647,-0.183823c-1.319275,1.689697 -3.949553,7.09511 -4.411755,11.397034c-0.294556,2.74157 0.056353,3.592123 -0.183823,3.49264c-0.509489,-0.211037 -0.540243,-2.296301 0.183823,-4.963224c1.076982,-3.96681 3.38826,-7.162621 4.044109,-10.477919c0.178368,-0.901643 0.006556,-1.467937 -0.367647,-0.55147c-0.903337,2.212385 -1.470585,4.779402 -1.470585,10.110273c0,2.3897 -0.182928,3.474525 0,3.49264c0.932755,0.092361 0.820372,-2.323023 1.286762,-4.779402c0.447083,-2.354694 0.924353,-4.650791 0.55147,-5.882341c-0.192064,-0.634346 -0.834513,-0.668337 -1.286762,-0.183823c-1.011259,1.083405 -0.91902,3.851402 -1.10294,9.558804c-0.065126,2.021006 0.458864,4.027155 0.55147,4.779402c0.04492,0.364891 0.026524,0.19593 0.183823,-0.183823c0.444908,-1.074104 1.459873,-3.624681 2.205879,-6.433811c1.202898,-4.529585 1.624636,-7.024618 1.286762,-8.455864c-0.094439,-0.400047 -0.676373,-0.446489 -1.10294,0.367645c-1.079142,2.059614 -1.192312,6.260691 -0.919115,9.742628c0.276581,3.525074 1.080612,6.159277 1.654408,6.066164c0.7258,-0.117779 0,-3.124994 0,-5.698519c0,-2.3897 0.062574,-5.58012 -0.735292,-8.088219c-0.424391,-1.334078 -0.579453,-2.065186 -0.919115,-2.205877c-0.480354,-0.198969 -0.914307,1.381289 -1.286762,3.676464c-0.588903,3.62899 -0.365351,7.340059 0.55147,8.823509c0.273342,0.44228 0.185211,-0.333744 0,-1.83823c-0.17968,-1.459566 -0.427248,-2.736355 -0.919117,-4.227932c-0.419107,-1.270931 -0.73024,-1.719208 -0.919115,-0.919117c-0.253403,1.073435 0,3.860287 0,6.801456c0,2.94117 0.00551,5.7925 0.735292,5.882339c1.504486,0.185211 0.734829,-3.105404 0.919115,-5.698517c0.182434,-2.567049 -0.272127,-6.918306 -0.55147,-8.639687c-0.176672,-1.088697 -0.335245,-2.48414 -0.735292,-2.389702c-0.357813,0.084469 -0.073408,2.023277 0,4.227932c0.091963,2.76194 0.367647,5.147049 0.367647,6.617634c0,0.55147 0.068594,0.943045 0.55147,-0.55147c0.644384,-1.99439 1.527971,-4.65484 0.735292,-9.926449c-0.371778,-2.472471 -1.059544,-3.676464 -1.470585,-3.676464c-0.411043,0 -0.547071,1.613842 -0.919117,3.676464c-0.360416,1.998148 -0.643286,4.773149 -0.735292,6.801456c-0.02499,0.550903 -0.05434,0.181139 0,-0.367647c0.092361,-0.932756 0.192486,-2.048101 0.55147,-3.860285c0.372931,-1.882587 1.267094,-4.058998 0.55147,-4.227934c-0.400045,-0.094437 -0.462667,2.220137 -0.919115,4.779402c-0.462118,2.591061 -0.55147,7.720573 -0.55147,9.926451c0,1.286762 -0.079626,1.645679 0,1.286762c0.659023,-2.970591 2.040836,-4.958967 2.573523,-7.352926c0.571661,-2.569115 0.55147,-4.044109 0.55147,-4.595579c0,-0.183823 -0.153419,-0.165966 -0.919115,1.10294c-1.238295,2.052094 -2.664669,4.380922 -2.94117,8.088219c-0.20508,2.74971 0.149061,3.121677 0.183823,2.94117c0.187201,-0.972057 0.458551,-2.193653 0.735292,-4.595579c0.274332,-2.381008 0.55147,-3.860285 0.55147,-4.779402c0,-0.367645 -0.418476,-0.720148 -1.286762,0.735292c-1.311762,2.198803 -1.10294,6.433809 -1.10294,9.374983c0,2.389698 0.112707,3.875427 -0.367645,3.67646c-0.16983,-0.070347 -0.084099,-0.370857 0,-1.470585c0.184359,-2.410778 2.44945,-5.359959 4.595577,-9.007334c1.250702,-2.125586 1.415678,-3.299356 1.10294,-3.49264c-0.349651,-0.216097 -0.867208,0.470755 -1.838232,2.205877c-1.285328,2.296753 -1.489845,4.852118 -2.205877,6.249987c-0.302164,0.589897 -0.367645,0.919117 -0.367645,0.551472c0,-0.183823 -0.03863,-0.565891 0.183823,-1.10294c0.314596,-0.759506 0.532063,-1.001328 0.367645,-0.919117c-0.822083,0.411041 -2.098787,1.844398 -2.573523,3.676464c-0.230553,0.889732 0.259964,1.762089 0,2.022053c-0.129984,0.129982 -0.452114,-0.009834 -0.367647,-0.367645c0.283314,-1.200138 2.097326,-1.963455 2.94117,-3.124992c0.581831,-0.800884 0.621815,-1.300755 0.55147,-1.470585c-0.099483,-0.240177 -1.322712,0.33305 -2.205877,1.286762c-1.151508,1.243488 -2.008434,3.516003 -2.94117,4.044109c-0.159964,0.090569 -0.397093,-0.002373 -0.367647,-0.183826c0.093113,-0.573792 0.936687,-1.82431 2.389702,-3.67646c1.860905,-2.372089 2.565283,-3.225941 2.757347,-3.860287c0.053268,-0.175936 -0.374662,-0.602627 -1.10294,0.183823c-0.837845,0.90477 -1.716295,2.574272 -2.757347,4.227932c-0.745844,1.184734 -1.006298,2.178429 -1.10294,2.022057c-0.432196,-0.699306 0.570774,-2.223774 2.389702,-4.963226c0.937454,-1.411882 2.688303,-2.29105 2.3897,-2.573524c-1.076628,-1.018473 -2.842499,2.474623 -4.595577,4.411755c-1.569944,1.734768 -2.388807,2.555412 -2.205879,2.573524c0.932755,0.092361 0.54092,-2.307903 1.286762,-3.492638c1.041052,-1.65366 4.327423,-1.37339 4.044109,-2.573524c-0.042234,-0.178905 -1.61668,1.133547 -3.860285,3.860287c-1.988985,2.41729 -3.124994,4.227932 -3.492641,4.595577c0,0 1.196804,-1.519115 2.022055,-2.94117c1.330677,-2.292995 3.24317,-4.157715 3.860287,-5.330872c0.460855,-0.876099 0.55147,-1.286762 0.367647,-1.286762c-0.919115,0 -0.569088,2.018238 -0.919117,3.676464c-0.387178,1.834217 -0.354305,2.671661 0,2.573524c1.032972,-0.286118 3.032724,-1.515751 5.882341,-4.227934c2.267529,-2.158167 3.306412,-4.55093 3.49264,-5.698517c0.058891,-0.3629 -0.577026,-0.208248 -1.10294,0.367645c-0.968151,1.060158 -2.274158,3.273043 -3.308815,5.330872c-1.182287,2.351454 -0.866175,4.782778 -1.838232,4.595579c-0.180506,-0.034763 0,-1.10294 0,-2.757347c0,-1.654409 0,-3.308817 0,-4.227932c0,-0.735294 -0.084339,-1.159292 -0.183823,-0.919117c-0.140692,0.339663 -0.183825,1.10294 -0.183825,2.022055c0,1.10294 0,1.838232 0,2.3897c0,0 -0.091734,-1.094357 -0.183823,-2.573523c-0.045689,-0.733871 0,-1.470585 0,-2.205877c0,-0.183825 -0.652376,-0.218012 -0.919115,0.735292c-0.301292,1.076794 -0.183825,3.49264 -0.183825,4.411757c0,0.183823 0.042599,-0.354351 0.367647,-1.470587c0.635719,-2.183088 1.375067,-4.160959 1.654408,-5.882341c0.17667,-1.088696 0.863146,-2.475964 0.183825,-2.757347c-0.240179,-0.099485 -0.459381,1.278181 -0.55147,2.757347c-0.091379,1.467745 -0.367647,2.941172 -0.367647,3.492641c0,0.367645 -0.367645,0 -0.367645,-0.735294c0,-1.654408 -0.458864,-2.924219 -0.55147,-3.676462c-0.067381,-0.547338 0,-0.735292 -0.183823,-0.735292c-0.183825,0 -0.459108,0.354006 -0.55147,1.286762c-0.126795,1.2805 0,2.757347 0,3.860287c0,0.551468 0,0.367645 0,0.183823c0,-0.367647 0.131304,-1.256306 0.367645,-2.573524c0.423279,-2.359089 0.735294,-3.860287 0.183825,-3.860287c-0.183825,0 -0.27564,0.912865 -0.367647,2.941172c-0.108288,2.387245 -0.939495,5.291616 0,8.272039c0.674589,2.140045 2.022055,2.022057 2.757347,2.022057c0.735292,0 1.696478,-0.50177 2.573524,-1.286762c0.581121,-0.520126 1.09647,-1.656361 1.654408,-3.49264c0.726873,-2.392277 1.280865,-4.346159 0.919117,-4.411757c-1.545383,-0.280231 -1.960165,3.20505 -2.573524,5.514694c-0.380388,1.432381 -0.55147,2.757347 -0.367647,2.757347c0.367645,0 0,-1.10294 0,-2.94117c0,-1.654408 0,-3.49264 0,-4.779402c0,-0.55147 0,-0.735292 0,0.367647c0,1.102938 -0.149233,2.83213 0.55147,4.044109c0.920067,1.591404 1.286762,1.654408 1.654409,1.654408c0.735292,0 0.940872,-0.357162 1.286762,-1.10294c0.589027,-1.270008 1.140289,-2.653563 0.551468,-4.779402c-0.286116,-1.03297 -1.291679,-1.145172 -1.470585,-1.102938c-0.400043,0.094439 -0.367647,1.83823 0.183823,3.49264c0.367645,1.102938 0.64933,2.426268 0.919117,2.941172c0.426567,0.814133 0.706924,1.144146 1.286762,1.102936c0.410007,-0.02914 0.551468,-1.102936 0.551468,-2.3897c0,-1.470585 0.113033,-3.009554 -0.367645,-3.676462c-0.152004,-0.210894 -0.367645,0.183823 -0.367645,1.10294c0,1.102938 -0.256054,2.464643 0.183823,3.492638c0.361576,0.845005 0.735291,0.919117 0.735291,0.551472c0,-1.286762 -0.510761,-3.351412 -1.470583,-4.227934c-1.060156,-0.968151 -1.892073,-1.416744 -2.022055,-1.286762c-0.129984,0.129984 -0.088957,1.932253 1.654408,3.49264c1.754093,1.569988 3.793312,3.029476 5.514694,3.308819c0.7258,0.117783 1.047562,-0.768684 -0.183823,-2.205879c-1.363678,-1.591604 -2.609512,-3.005716 -3.308815,-2.573524c-0.31274,0.193283 -0.072235,0.951418 0.367645,1.838232c0.476295,0.960226 1.178593,2.280146 1.83823,3.124994c0.159985,0.204906 0.198967,0.48035 0,0c-0.21104,-0.509495 -0.433964,-1.510128 -0.919113,-2.757347c-0.298027,-0.766163 -0.735294,-1.286762 -0.735294,-1.10294c0,0.919115 -0.116283,2.516006 1.470585,3.860287c1.20657,1.022114 2.333347,1.371101 2.573524,1.470585c0.16983,0.070347 0.35276,-0.203491 0.183823,-0.919117c-0.188877,-0.800087 -0.99868,-2.141739 -2.022053,-3.49264c-0.400219,-0.528309 -0.551472,-0.735292 -0.551472,-0.55147c0,0.367647 -0.126793,1.293026 0,2.573524c0.092361,0.932758 0.421486,1.416748 0.551472,1.286762c0.259964,-0.259964 0.276665,-1.138203 0,-2.205879c-0.474735,-1.832066 -1.909351,-3.875429 -2.389702,-3.67646c-0.509491,0.211037 0.502621,1.337873 1.654408,2.3897c1.060158,0.968149 1.546238,1.361029 2.205879,2.205877c0.159985,0.204906 0.271004,0.3951 0.367645,0.551472c0.216095,0.349651 0.551468,0.183823 0.551468,-0.551472c0,-0.367645 -0.183823,-1.10294 -0.735291,-1.10294c-0.367645,0 -0.642181,-0.022324 -0.735294,0.551472c-0.117779,0.725796 0,1.470585 0.551472,2.573524c0.367645,0.735291 0.988308,0.933876 1.286762,1.654408c0.070347,0.16983 0,0 0,-1.10294c0,-1.654408 -0.551468,-2.573528 -1.470585,-3.492641c-0.183826,-0.183823 -0.290367,0.015774 -0.183826,0.367649c0.192066,0.634346 0.919117,1.10294 1.10294,1.286762c0.367645,0.367645 0.519073,0.457031 0.919117,0.551468c0.178905,0.042233 0.834774,0.424 0.735291,0.183823c-0.070347,-0.16983 -0.183823,0.183823 -0.183823,0.367645c0,0.183826 0,0.919117 0,1.286762c0,0.367649 -0.126701,0.750046 0,1.286762c0.188877,0.800095 0.367649,-0.735291 0.367649,-1.286762c0,-0.551468 0,-0.367645 0,-0.183823c0,0.367649 -0.183826,1.286762 -0.183826,1.654408c0,0.367649 0.089386,0.216225 0.183826,-0.183823c0.084469,-0.357811 0.183823,-0.735291 0.183823,-0.919113c0,-0.183823 -0.183823,0 -0.183823,0.551468c0,0.551468 -0.053841,0.86528 -0.183826,0.735294c-0.129986,-0.129986 0.218021,-1.230244 0.551472,-1.470585c0.210896,-0.152008 -0.789135,-0.313808 -0.919117,-0.183826c-0.129986,0.129986 -0.197815,0.254173 -0.367645,0.183826c-0.240177,-0.099487 -0.367645,-0.367649 -0.367645,-0.735294c0,-0.551468 0.789131,-0.68145 0.919113,-0.551468c0.129982,0.129982 0,0.367645 0,1.102936c0,0.551472 0.127472,1.202427 0.367649,1.10294c0.339661,-0.140694 -0.225803,-0.578682 -0.735294,-0.367645c-0.240177,0.099483 -0.183823,0.367645 -0.183823,0.735291c0,0.183826 0.183823,0 0.367645,-0.551468c0.183823,-0.551468 0.524017,-0.822475 0.367645,-0.919117c-0.349655,-0.216095 -0.958023,0.315098 -1.470585,0.735294c-0.402084,0.329628 -0.474472,0.474472 -0.183823,0.183823c0.290649,-0.290649 0.67894,-1.202423 0.919117,-1.10294c0.16983,0.070347 0,0.919117 0,1.654408c0,0.367649 -0.159805,-0.023663 0,-0.551468c0.192062,-0.634342 0.497631,-0.789131 0.367645,-0.919117c-0.259964,-0.259964 -0.735291,0.367649 -0.735291,0.919117c0,0.183823 -0.444042,0.302391 -0.183826,-0.183823c0.31274,-0.584362 0.537479,-0.621815 0.367649,-0.551468c-0.480354,0.198967 -0.664948,1.300751 -0.735294,1.470585c-0.099483,0.240177 -0.367645,0.183823 -0.367645,0c0,-0.183826 0.325413,-0.730377 0.367645,-0.551472c0.094437,0.400043 -0.349125,0.683392 0.551472,-0.919113c0.484985,-0.862976 0.744751,-1.231853 0.551468,-0.919117c-0.216095,0.349651 -0.735294,1.10294 -1.10294,1.470585c-0.183823,0.183823 -0.367645,0.183823 -0.367645,0c0,-0.183823 -0.18874,-0.409878 -0.367645,-0.367645c-0.400047,0.094437 -1.172134,0.566231 -1.470585,1.286762c-0.070347,0.16983 -0.237667,0.313805 -0.367649,0.183823c-0.129982,-0.129982 0,-0.367649 0,-0.551472c0,-0.183823 0.183823,-0.367645 0.183823,0c0,0.183823 -0.519932,1.13448 0,1.654411c0.129986,0.129986 1.301971,-0.62598 1.838234,-1.838234c0.306618,-0.69313 0.367645,-0.919113 0.367645,-0.551468c0,0.367645 0.112709,1.301907 -0.367645,1.10294c-0.169834,-0.070347 0,-0.551472 0,-0.735294c0,-0.367645 -0.001377,-0.757751 -0.183823,-0.735291c-0.752247,0.092606 -0.990234,0.720146 -1.470585,0.919113c-0.169834,0.070347 -0.473751,-0.266186 -0.183826,-0.735291c0.216099,-0.349655 0.497631,-0.42149 0.367649,-0.551472c-0.259968,-0.259968 -1.281708,0.854321 -1.470585,1.654408c-0.042236,0.178909 -0.092606,0.200779 0,-0.551468c0.08984,-0.729782 -0.022305,-1.815929 0.367645,-2.205879c0.129982,-0.129982 0.536579,0.203495 0.367645,0.919117c-0.094437,0.400043 -1.068745,1.046425 -0.735291,1.286762c0.421787,0.304008 0.436642,-0.72427 1.470585,-1.286762c0.510624,-0.277794 1.10294,0.183826 1.10294,-0.183823c0,-0.183826 -1.237061,0.593536 -2.022057,1.470585c-0.520126,0.58112 -1.286762,1.286762 -0.919117,1.286762c0.183823,0 0.14159,-0.556385 0.183826,-0.735294c0.188877,-0.800087 0.495113,-1.003452 0.735291,-1.102936c0.339661,-0.14069 0.367645,0.183823 0.367645,0.367645c0,0.367645 -0.886841,0.937111 -1.102936,1.286762c-0.096642,0.156368 -0.183826,-0.367645 0.183823,-0.919117c0.367645,-0.551468 0.297657,-1.006943 -0.183823,-0.551468c-0.667694,0.63163 -1.281712,1.589607 -1.470589,2.389702c-0.084469,0.357811 0.031818,0.578541 0.183826,0.367645c0.240341,-0.33345 0.551464,-1.286762 0.919113,-2.205879c0.367645,-0.919113 0.367649,-1.10294 0.551472,-1.10294c0.183823,0 0.457031,0.032398 0.551468,-0.367645c0.042233,-0.178905 0.056355,-0.451984 -0.183823,-0.551468c-0.339661,-0.14069 -0.560902,-0.058132 -0.735294,0c-0.871948,0.290649 -0.860222,1.107685 -0.919113,1.470585c-0.093113,0.573792 -0.542522,0.314499 -0.183823,-0.551472c0.253635,-0.612331 0.868378,-1.511528 1.470585,-2.205875c0.17033,-0.196392 -0.539974,-0.138996 -1.10294,0.735291c-0.850292,1.320507 -0.16687,3.585247 -0.919117,3.492641c-0.182446,-0.022461 0.058971,-1.273262 0.367645,-2.757347c0.227692,-1.094727 0.183826,-2.022057 0.183826,-3.124992c0,-0.367649 -0.112705,-1.301908 0.367645,-1.10294c0.339661,0.140692 -0.104286,0.745239 0,1.286762c0.187199,0.972054 0.367645,1.83823 0.919117,2.94117c0.367645,0.735291 0.659149,0.995255 0.919113,0.735291c0.259964,-0.259964 0.084465,-0.745125 0,-1.102936c-0.094437,-0.400047 -0.421486,-0.681454 -0.551468,-0.551472c-0.129982,0.129982 -0.450829,1.042358 1.470585,1.838234c0.16983,0.070347 0.183823,-0.183826 0.183823,-0.919117c0,-0.735294 -0.325352,-1.571434 -1.10294,-1.83823c-0.886581,-0.304195 -1.654408,-0.183826 -2.022053,-0.183826c-0.183823,0 -0.367649,0.183826 -0.367649,0.367649c0,0.367645 -0.44162,1.162968 0,2.757347c0.286118,1.03297 1.387714,1.82999 2.022057,2.022053c0.351871,0.106537 0.367645,-0.183823 0.367645,-0.551468c0,-0.919117 0.183823,-1.838234 0.183823,-2.389702c0,-0.367645 0.129986,-0.605309 0,-0.735294c-0.259964,-0.259964 -1.33923,-0.285667 -1.83823,0.367649c-0.568943,0.744892 -0.183823,2.022053 -0.183823,3.124992c0,0.551468 0,0.735294 0,0.367645c0,-0.367645 0,-1.10294 0,-2.022053c0,-0.735294 0.080765,-1.43898 0.183823,-1.286762c1.109951,1.639439 -0.913338,2.833096 -1.286762,3.492638c-0.128086,0.226223 -0.367645,-0.183823 -0.367645,-0.367645c0,-0.735291 0,-1.654408 0,-2.757347c0,-0.735291 0.214146,-1.101688 0.183823,-0.735291c-0.092224,1.114338 -0.367645,2.389698 -0.367645,3.124992c0,0.183823 -0.183826,0.367645 -0.183826,0.183823c0,-0.735294 0,-1.470585 0.551472,-2.573524c0.735291,-1.470585 0.919117,-2.022053 0.919117,-2.205875c0,-0.183826 -0.265255,-0.066414 -0.551472,0.367645c-0.544941,0.826424 -0.410778,1.314747 -0.551468,1.654408c-0.099483,0.240177 -0.183823,-0.183823 -0.183823,-0.367645c0,-0.367649 -0.604412,-2.209255 0.367645,-2.022057c0.541523,0.104286 -0.091461,0.721653 -0.183823,1.654408c-0.090569,0.914642 -0.457035,1.43819 -0.55147,1.838234c-0.084467,0.357811 -0.211279,0.648109 -0.367647,0.551468c-0.349651,-0.216095 -0.183823,-2.022053 -0.183823,-3.308815c0,-1.286762 0.181454,-1.808788 0,-1.838234c-0.573795,-0.093113 -0.458864,1.26981 -0.55147,2.022057c-0.08984,0.729782 0,1.470585 0,1.654408c0,0.183823 0,0.551472 0,1.654408c0,0.735294 -0.129982,1.15678 0,1.286762c0.259966,0.259964 0.60531,0.129982 0.735292,0c0.389946,-0.389946 0.824741,-2.15057 1.10294,-4.227932c0.195194,-1.457573 0.551468,-3.308815 0,-3.308815c-0.367645,0 0,0.551468 0,1.10294c0,0.367645 0,0.919113 0,1.470585c0,0.183823 -0.367645,0.919113 0,0.919113c0.183823,0 -0.18203,-0.512913 -0.367645,-1.83823c-0.050991,-0.36409 0.056355,-0.635807 -0.183826,-0.735294c-0.169827,-0.070347 -0.183821,0.183826 -0.183821,0.551472c0,0.919117 0,1.83823 0,2.757347c0,0.183823 0,-0.551472 0,-1.286762c0,-1.286762 0.367647,-2.205879 0.367647,-3.124994c0,-0.183823 0.21104,-0.325666 0,0.183825c-0.198971,0.480354 -0.456194,0.897049 -0.735294,2.205875c-0.271088,1.271244 -0.27504,2.556572 -0.367645,3.308819c-0.04492,0.364891 -0.183825,0.551468 -0.183825,0.367645c0,-2.389702 0,-3.492638 0,-4.963226c0,-0.735291 -0.168676,-1.03182 -0.367645,-0.551468c-0.211037,0.509491 -0.735292,3.124992 -0.735292,4.595577c0,1.286762 0,1.470585 0,1.10294c0,-0.367645 0,-1.83823 0,-2.757347c0,-0.551468 -0.268164,-0.607822 -0.367647,-0.367645c-0.070345,0.16983 -0.365852,1.43203 -0.55147,2.757347c-0.178476,1.274326 -0.547337,2.873791 0,2.94117c0.752241,0.092606 0.748129,-2.019989 0.919117,-3.124992c0.198771,-1.284538 0.735291,-2.389702 0.367645,-2.389702c-0.551468,0 0,0.919117 0,1.83823c0,0.735294 0.38995,1.632107 0,2.022057c-0.129982,0.129982 -0.399466,0.15675 -0.55147,0.367645c-0.480682,0.666908 -0.551468,1.286762 -0.551468,2.022057c0,0.367645 0,0 0,-0.367649c0,-0.367645 -0.183825,-0.735291 -0.183825,-0.919113c0,-0.183823 0,-0.367649 0,-0.735294c0,-0.367645 0,-0.735291 0,-1.10294c0,-0.367645 0.129982,-0.605309 0,-0.735291c-0.389946,-0.389946 -0.763277,-0.14069 -1.102938,0c-0.240177,0.099483 -0.497629,0.605309 -0.367647,0.735291c0.389948,0.38995 1.439569,0.425732 3.49264,-0.551468c0.829903,-0.395008 1.286764,-1.10294 1.286764,-1.470585c0,-0.367645 -0.314198,-0.250015 -0.919117,1.10294c-0.711805,1.592014 -0.378075,3.082214 -1.10294,3.67646c-0.284315,0.233082 -0.420694,-0.527256 -0.735292,-1.286762c-0.444906,-1.0741 -0.367645,-1.286762 -0.367645,-1.470585c0,-0.183823 -0.268164,-0.240177 -0.367647,0c-0.070345,0.16983 -0.238731,0.174366 -0.55147,0.367649c-0.349651,0.216095 -1.018599,0.678936 -0.919115,0.919113c0.140692,0.339661 1.670473,-0.073208 3.308817,-0.367645c0.745972,-0.134064 0.55147,-0.183823 0.183823,-0.183823c-0.367647,0 -1.470585,0 -2.573524,0c-1.102938,0 -1.866215,0.140694 -2.205877,0c-0.240175,-0.099483 -0.183823,-0.367645 0.367647,-0.367645c1.102938,0 3.334925,0.323902 5.33087,0c0.573795,-0.093117 0.865276,-0.237667 0.735294,-0.367649c-0.129982,-0.129982 -0.735294,0 -2.573524,0c-2.205879,0 -4.227932,0 -5.514694,0c-0.55147,0 -0.735294,0 -1.10294,0c-0.183823,0 0.374531,0.112301 1.286762,0c1.504486,-0.185211 2.497381,-0.291504 2.757347,-0.551468c0.129982,-0.129982 -0.113476,0.013992 -0.183823,0.183823c-0.198969,0.480354 -0.919117,0.735294 -1.286762,0.735294c-0.367647,0 -0.55147,0 -0.735292,0c-0.183825,0 0,0 0.367645,0c0.919117,0 1.340603,-0.053844 1.470585,-0.183826c0.129982,-0.129982 -0.183823,-0.183823 -0.551468,-0.183823c-1.10294,0 -1.838232,-0.183823 -1.838232,0c0,0.367645 0.75988,0.21117 1.654408,0c0.400045,-0.094437 0.635809,-0.424 0.735292,-0.183823c0.070345,0.16983 -0.183823,0.367645 -0.735292,0.367645c-0.919115,0 -2.022055,-0.183826 -2.022055,0c0,0.367649 0.919117,0 1.838232,0c1.10294,0 1.833315,0.325417 1.654408,0.367649c-0.800091,0.188877 -1.83823,0.551468 -2.3897,0.551468c-0.183823,0 -0.183823,0.183823 0,0.183823c1.10294,0 1.688601,0.056519 2.022055,-0.183823c0.210894,-0.152004 -0.203493,-0.352757 -0.919115,-0.183823c-0.800091,0.188877 -1.470587,0.551468 -2.389702,0.551468c-1.10294,0 -1.470585,-0.183823 -1.470585,0c0,0.367645 0.735292,0 2.573524,0c2.205877,0 3.120861,-0.067383 2.573523,0c-0.752245,0.092606 -1.670481,0.697414 -2.573523,1.10294c-0.749937,0.336773 -2.220633,0.49435 -2.757347,0.367649c-0.400047,-0.09444 -0.297302,-0.381641 -0.367647,-0.551472c-0.099483,-0.240177 -0.166063,-0.465755 0.919115,-0.735291c1.128319,-0.280247 1.70825,-0.789135 1.838232,-0.919117c0.129982,-0.129982 0.183823,-0.183823 -0.367645,-0.183823c-0.183825,0 -0.735294,0 -1.654409,0c-0.735292,0 -0.181147,-0.113739 0.735292,-0.183823c2.410778,-0.184361 5.532467,-0.332928 7.352926,-1.286762c0.23027,-0.120651 0.183823,-0.367649 -1.10294,-0.367649c-2.3897,0 -5.112947,0.856979 -7.536749,1.470585c-0.908653,0.230034 -1.286762,0.551472 -1.470585,0.551472c-0.183823,0 0.560822,-0.304062 2.022055,-0.551472c2.595013,-0.439377 5.113146,-1.285374 6.617634,-1.470585c0.364891,-0.044922 -1.0151,0.336727 -2.205877,0.919117c-1.044382,0.510788 -1.999731,1.009827 -2.573524,1.10294c-0.3629,0.058891 -0.735292,0 -1.10294,0c-0.183823,0 -0.593899,-0.077866 -0.367645,-0.367645c0.466434,-0.597401 3.3568,-0.819473 4.963224,-1.654411c0.951073,-0.49432 0.919115,-0.919113 0.919115,-1.286762c0,-0.183823 -1.100094,-0.168983 -2.022055,0c-1.099831,0.201584 -2.990067,0.577026 -4.411755,1.10294c-0.385509,0.142609 -0.73292,0.213268 -0.55147,0.183823c0.573793,-0.093113 1.222382,-0.372921 3.676464,-1.102936c2.522697,-0.750423 3.308815,-0.735294 3.308815,-0.919117c0,-0.183823 -1.309502,-0.03624 -2.205877,0.551468c-1.322414,0.867035 -3.676462,2.757347 -4.779402,3.860287c-0.367645,0.367645 -0.60531,0.865276 -0.735292,0.735294c-0.129982,-0.129982 0.131273,-0.590382 0.55147,-1.10294c0.494446,-0.603127 1.566568,-1.807312 2.757347,-2.389702c1.044382,-0.510792 2.419146,-0.732918 2.3897,-0.551468c-0.093113,0.573792 -0.362593,0.854317 -0.551468,1.654408c-0.084467,0.357811 -0.171509,0.462009 0.183823,0.367645c1.432381,-0.38039 1.488579,-1.438313 1.838232,-1.654408c0.156368,-0.096642 -0.392235,-0.394993 -1.286762,-0.183823c-1.200136,0.283314 -2.557043,1.12101 -2.941172,2.389702c-0.106537,0.351871 -0.428492,1.092575 -0.367645,0.919113c0.389608,-1.110687 3.024488,-2.412231 5.882339,-3.67646c2.499121,-1.105537 3.240915,-1.589409 2.205879,-0.919117c-2.192932,1.420147 -3.391167,3.023056 -4.595579,4.411755c-0.851648,0.98196 -1.470585,1.10294 -2.205877,1.10294c-0.367647,0 -0.919117,-0.367645 -0.919117,-0.919117c0,-0.919113 0,-2.022053 0.919117,-3.308815c0.919115,-1.286762 2.205877,-2.205879 2.022055,-2.022057c-0.183825,0.183826 -0.740076,0.402206 -1.286762,1.286762c-0.305609,0.494484 -0.367647,0.919117 -0.367647,1.10294c0,0.183823 0,0 0,-0.551468c0,-0.735294 0.313807,-0.972958 0.183825,-1.10294c-0.259966,-0.259964 -0.672667,0.637447 -1.654409,1.286762c-2.263777,1.497242 -5.114649,3.030556 -5.514694,3.124992c-0.178905,0.042233 0.367645,-0.551468 0.919115,-1.10294c0.735291,-0.735291 1.286762,-0.919113 1.654409,-0.919113c0.367645,0 0.790199,-0.193283 1.102938,0c0.349653,0.216095 0.56093,0.422554 0.367647,0.735291c-0.432194,0.699303 -1.286762,0.367645 -2.022055,0.367645c-0.367647,0 -0.55147,0.183826 -0.55147,0.551472c0,0.183823 0.183823,0.735291 0.55147,0.735291c0.735292,0 1.049097,-0.053841 0.919115,-0.183823c-0.51993,-0.519932 -1.470585,0 -1.654408,0c-0.183823,0 -0.55147,-0.183823 -0.55147,0c0,0.367645 1.654408,0 2.757347,0c0.735292,0 0.919115,-0.367645 0.919115,-0.551468c0,-0.367645 -0.001322,-0.609783 -1.28676,-0.551472c-2.028307,0.092007 -3.475691,0.826511 -4.227934,0.919117c-0.364891,0.044922 -0.735292,-0.183823 -0.735292,0c0,0.735291 3.133762,0.212265 5.698519,0c1.114342,-0.092224 1.28676,-0.367645 0.735292,-0.367645c-0.367647,0 -0.65069,0.453808 -2.022055,0.735291c-0.36014,0.073921 -0.735292,0 -1.10294,0c-0.367645,0 -1.102938,-0.367645 -1.102938,0c0,0.551468 1.469204,-0.006268 3.124992,-0.367645c2.571417,-0.561211 7.858461,-1.123596 9.191158,-2.389702c1.040867,-0.988857 1.179077,-1.762089 0.919113,-2.022053c-0.779894,-0.779896 -2.673573,-0.736031 -5.33087,0c-2.065943,0.572235 -2.828465,2.221024 -3.308817,2.022053c-0.16983,-0.070347 0.55147,-0.735291 0.919117,-1.102936c1.286764,-1.286762 2.155146,-2.062996 2.757347,-2.757347c0.17033,-0.196392 0.313805,-0.42149 0.183823,-0.551472c-0.129982,-0.129982 -0.642086,0.594486 -1.10294,1.470585c-0.308558,0.586578 -0.524397,0.950935 -0.735292,1.10294c-0.333454,0.240337 -0.735292,0.367645 -0.55147,0.367645c0.367645,0 0.088207,-1.162434 -0.183823,-1.470585c-0.438631,-0.496876 -2.205877,-0.367645 -3.860287,-0.367645c-2.205877,0 -3.676462,0.551468 -4.227932,1.10294c-0.183823,0.183823 -0.12747,0.650951 -0.367645,0.551468c-0.339661,-0.14069 1.243374,-1.0527 2.757347,-1.470585c1.981123,-0.546825 3.408173,-0.909279 3.49264,-0.551468c0.094437,0.400047 -1.017057,0.44529 -2.022055,1.470585c-0.823931,0.840572 -1.923611,2.291256 -2.573524,2.94117c-0.649912,0.649914 -0.919115,0.919117 -0.919115,0.735291c0,-0.551468 0.793995,-1.452244 2.205877,-2.389698c1.369726,-0.909466 2.400867,-1.476704 1.286762,-0.735294c-0.979898,0.6521 -2.366709,1.744064 -3.49264,3.492641c-0.850292,1.320507 -0.919115,1.83823 -0.735292,1.83823c0.367645,0 0.266319,-1.070633 0.735292,-2.389702c0.448301,-1.260929 0.403635,-1.957504 1.102938,-2.389698c0.15637,-0.096642 0.367647,0 0.367647,0.735291c0,0.367645 -0.367647,0.735294 -0.735292,1.286762c-0.367647,0.551468 -0.593203,0.956032 -0.183823,0.919117c0.915403,-0.082542 2.022055,-1.286762 2.205877,-1.286762c0.183823,0 0.183823,0.367645 0.183823,0.551468c0,0.183823 0.165831,0.519196 -0.183823,0.735294c-0.469109,0.289925 -1.526554,0.281384 -2.205877,0c-0.240177,-0.099483 0,-0.183823 0.183823,-0.183823c0.183823,0 0.508337,0.027985 0.367645,0.367645c-0.099483,0.240177 -0.367645,0.183823 -0.735292,0.183823c-0.367645,0 -0.394169,-0.171715 -0.551468,-0.551468c-0.222456,-0.537052 -0.735294,-0.551472 -0.919117,-0.551472c-0.183823,0 -0.183823,0.183823 0.55147,0.183823c1.286762,0 1.446922,-0.159809 0.919115,0c-0.634344,0.192066 -1.314747,0.594604 -1.654408,0.735294c-0.240176,0.099483 0,0.183823 1.10294,0.183823c1.470585,0 2.205877,0 2.3897,-0.367645c0.183823,-0.367649 0.183823,-0.735294 -0.735292,-0.735294c-0.919115,0 -1.654408,0 -2.573524,0c-0.551469,0 -1.102939,0 -1.470585,0c-0.183823,0 0.183824,0 1.470585,0c0.55147,0 0.842974,0.259964 1.10294,0c0.129982,-0.129982 -0.183823,-0.183823 -0.183823,0c0,0.551472 -0.183825,0.735294 -0.735294,0.735294c-0.919115,0 -1.470584,0 -1.654408,0c-0.183823,0 0,-0.183823 0.55147,-0.183823c1.654408,0 3.940193,0.088303 6.249987,-0.551472c1.188379,-0.329163 1.654408,-0.735291 1.654408,-0.919113c0,-0.183826 -0.193268,-0.350235 -1.654408,-0.183826c-2.436754,0.277519 -6.212283,2.900692 -6.801456,2.389702c-0.694347,-0.602207 0.874139,-1.311028 1.286762,-2.022053c0.332668,-0.57325 0.519072,-0.82468 0.919115,-0.919117c0.536718,-0.126701 0.664505,0.252209 0.183825,0.919117c-0.304008,0.421791 -1.254489,0.569462 -1.470586,0.919113c-0.096642,0.156368 -0.082208,-0.019405 0,-0.183823c0.822082,-1.644165 2.998157,-1.716446 3.49264,-2.022053c0.22114,-0.136673 -0.674427,0.267147 -1.654409,0.919113c-1.917685,1.275803 -3.762497,1.835636 -5.514694,2.757347c-0.586579,0.308559 0.447211,-0.487328 1.470585,-1.83823c0.800436,-1.056614 1.051781,-2.212891 1.838232,-2.94117c0.30159,-0.279282 0.605309,-0.313805 0.735292,-0.183823c0.389946,0.389946 0.02249,1.298897 -0.183824,1.654408c-0.332669,0.573246 -1.115045,1.260239 -0.735292,1.10294c0.537051,-0.222454 2.510926,-1.133102 4.411756,-2.757347c0.197638,-0.16888 0.226221,-0.311905 0,-0.183823c-1.319088,0.746853 -2.432484,1.237724 -3.49264,2.205875c-1.151786,1.051826 -2.022055,1.838234 -2.573524,2.389702c-0.183823,0.183823 -0.276428,0.200775 -0.183823,-0.551468c0.044921,-0.364895 1.794617,-2.129963 4.411755,-3.124996c1.630062,-0.619747 1.995747,-1.08741 1.470587,-0.919113c-1.505871,0.482578 -2.835169,1.733128 -3.860287,2.573524c-1.005209,0.824074 -1.468211,1.624962 -1.286762,1.654408c0.573796,0.093113 0.55147,-1.470585 0.55147,-2.205879c0,-0.367645 -0.070348,-0.749283 0,-0.919117c0.099484,-0.240177 0.27219,-0.081215 -0.183824,0.551472c-1.201698,1.667271 -1.102939,2.94117 -1.102939,3.492638c0,0.367649 0.013992,0.481125 0.183823,0.551472c0.240176,0.099483 0.55147,0.183823 0.919116,0.183823c1.102939,0 2.036046,0.070347 2.205878,0c0.240175,-0.099483 0.313805,-0.421486 0.183823,-0.551468c-0.129982,-0.129982 -0.421488,0.129982 -0.55147,0c-0.259967,-0.259968 0,-1.10294 0,-2.022057c0,-0.919117 0.129982,-1.524426 0,-1.654408c-0.259965,-0.259964 -1.709314,-0.216713 -2.022055,0.367645c-0.260217,0.486217 -0.259964,1.026798 0,1.286762c0.779896,0.779896 1.428424,-0.122795 0.735293,0.183823c-0.606125,0.268131 -1.583424,0.973709 -2.022055,1.470585c-0.27203,0.308151 -0.394717,0.519653 -0.183824,0.367649c0.333454,-0.240341 0.486672,-0.546417 1.286762,-0.735294c0.536717,-0.126701 1.68694,0.120373 2.573524,-0.183823c0.388792,-0.133396 0,-0.183823 -0.55147,-0.183823c-0.183824,0 -0.928951,0.452114 -1.286762,0.367645c-0.400045,-0.094437 -0.55147,-0.183823 -0.919116,-0.183823c-0.183823,0 0.032532,0.120373 0.919116,-0.183823c1.555172,-0.533592 1.781715,-0.953308 2.022055,-1.286762c0.152004,-0.210896 0,-0.183823 -0.367647,-0.183823c-0.367645,0 -0.729944,-0.012436 -0.551469,-1.286762c0.185617,-1.325317 0.720147,-1.909348 0.919116,-2.389702c0.140692,-0.339661 -0.224361,-0.031013 -0.919116,0.919117c-0.39121,0.535011 -0.699007,1.078373 -0.367646,0.919113c1.060871,-0.50988 1.865387,-2.379295 2.205877,-3.308815c0.399885,-1.091665 0.497631,-1.524426 0.367647,-1.654409c-0.129982,-0.129982 -0.597784,0.529505 -1.10294,1.654409c-0.405525,0.903046 -0.107681,1.578266 -0.367645,1.83823c-0.129984,0.129982 0.139956,-1.294975 0.367645,-2.3897c0.154335,-0.742043 0.462143,-1.405416 0.183825,-1.10294c-0.670284,0.728464 -0.94643,1.828278 -1.470586,3.308817c-0.581996,1.643917 -0.905126,1.95171 -0.735292,2.022057c0.480355,0.198967 1.096379,-1.549084 2.022054,-3.308819c0.921709,-1.752197 1.376148,-3.276417 1.470585,-3.676462c0.042234,-0.178905 -0.132256,-0.410055 -0.367645,0.55147c-0.439287,1.794411 -0.407455,3.51791 -0.735292,4.963226c-0.257175,1.133797 -0.357759,1.643963 -0.55147,1.470585c-0.877052,-0.784992 1.925646,-2.131081 2.205877,-3.676464c0.196793,-1.085241 -0.149286,-1.767908 -1.102938,-1.10294c-0.9655,0.673231 -1.67214,1.899693 -2.389702,3.308819c-0.52756,1.036007 -0.51965,1.497654 -0.367646,1.286758c0.480676,-0.666908 1.262845,-1.575394 1.838231,-2.94117c0.519566,-1.233276 0.735292,-2.022053 0.735292,-2.3897c0,-0.183823 -0.6224,-0.307301 -1.654408,0.367647c-1.201548,0.785831 -2.471231,1.908199 -2.757347,2.94117c-0.245342,0.885765 -0.16983,1.400238 0,1.470585c0.240176,0.099483 0.402623,-0.52969 0.735292,-1.10294c0.618937,-1.066544 1.566041,-3.043777 2.022055,-3.676462c0.240339,-0.333452 0.332947,-0.62781 0.183823,-0.735292c-0.471574,-0.339891 -1.286837,0.788887 -2.022055,2.022055c-0.506932,0.850267 -0.919115,2.573523 -0.735292,2.573523c0.367645,0 0.620426,-1.699951 1.470586,-3.676462c0.812073,-1.887962 1.377978,-2.740396 1.470584,-3.49264c0.022461,-0.182446 -0.49249,-0.064186 -0.919115,0.919117c-0.532654,1.22768 -0.735292,2.3897 -0.735292,2.94117c0,0.367645 0.019009,0.201042 0.183824,0c0.840397,-1.025116 1.271616,-1.725525 1.470584,-2.205877c0.070347,-0.169832 0,0.367645 0,0.735292c0,0.919115 -0.459325,2.01226 -0.551469,3.308815c-0.013031,0.183361 0.367646,-0.367645 0.367646,-0.919115c0,-0.735292 0.458357,-1.815907 0.55147,-2.3897c0.029446,-0.18145 -0.398846,0.067562 -0.919116,1.286762c-0.665176,1.558771 -0.919115,2.94117 -0.919115,4.595577c0,0.551472 -0.013975,0.72797 0.183823,0.367645c0.515788,-0.939602 0.891474,-1.213722 2.205878,-4.22793c0.627792,-1.439659 0.645908,-2.238276 0.55147,-1.838232c-0.21117,0.894527 -0.15387,1.47464 -0.367647,2.94117c-0.161289,1.106461 -0.021751,1.935318 -0.183823,2.022057c-0.584362,0.31274 -1.311028,-0.32267 -2.022055,-0.735294c-0.573249,-0.332668 -0.769988,-0.81163 -0.919116,-0.919117c-0.471577,-0.339893 -1.272772,1.400242 -1.102939,1.470589c0.480355,0.198967 0.572082,-0.904099 1.102939,-1.654411c0.765611,-1.082113 1.232921,-1.524426 1.102939,-1.654408c-0.129982,-0.129982 -0.567244,-0.106539 -0.919115,0c-0.634346,0.192064 -1.248881,1.670483 -1.654408,2.573524c-0.168386,0.374966 -0.390106,0.366268 -0.367646,0.183823c0.092606,-0.752243 1.131493,-2.182695 2.022055,-3.308817c0.570123,-0.720924 0.788561,-0.911228 0.735292,-0.735292c-0.384129,1.26869 -1.102941,1.838232 -2.022055,2.757347c-0.735293,0.735294 -1.032593,1.300755 -1.102939,1.470585c-0.099484,0.240177 -0.48068,-0.068386 0,-0.735291c0.760022,-1.054474 1.597892,-2.171686 1.838231,-1.838232c0.152004,0.210896 -0.919115,1.102938 -1.286762,1.838232c-0.367645,0.735291 -0.735292,1.10294 -0.919116,1.10294c-0.183823,0 -0.120669,-0.493328 0.55147,-1.286762c1.022119,-1.20657 1.82999,-2.306826 2.022055,-2.941172c0.106538,-0.351871 -0.017424,-0.060669 -0.735292,0.735292c-0.615567,0.682533 -1.872424,1.230246 -2.205878,1.470585c-0.210895,0.152004 -0.183823,0.367645 -0.367646,0.367645c-0.183823,0 -0.183823,-0.367645 0.183824,-0.551468c0.735292,-0.367647 1.362904,-1.179083 1.102939,-0.919117c-0.129984,0.129984 -0.481124,0.933109 -0.55147,1.10294c-0.198969,0.48035 -0.80564,0.721302 -0.735292,0.551468c0.198969,-0.48035 0.80641,-0.720144 1.286762,-0.919113c0.169831,-0.070347 -0.55147,0.735291 -1.470585,1.654408c-0.735292,0.735294 -0.972957,1.340603 -1.102939,1.470585c-0.129983,0.129982 -0.254169,-0.197815 -0.183824,-0.367645c0.298453,-0.720531 2.313559,-1.210621 2.573524,-1.470585c0.129982,-0.129982 0.012569,-0.354156 -0.183824,-0.183823c-0.694346,0.602207 -1.654408,1.102936 -2.205877,1.654408c-0.551469,0.551468 -1.0186,0.678936 -0.919116,0.919113c0.070346,0.16983 0.551469,-0.367645 1.286762,-0.735291c0.367646,-0.183823 0.34824,-0.449852 0.183823,-0.367645c-0.822081,0.411041 -1.192324,1.070538 -1.286761,1.470585c-0.042233,0.178905 -0.367647,0.367645 -0.367647,0.183823c0,-0.919117 0.367646,-1.654408 0.919116,-2.022057c0.551469,-0.367645 0.735293,-0.735291 -0.919116,0.367649c-1.102938,0.735291 -2.006908,1.35788 -2.205877,1.83823c-0.070346,0.16983 -0.015146,0.296528 0.183823,-0.183823c0.21104,-0.509495 0.034193,-0.678776 0.367646,-0.919117c0.421789,-0.304008 0.749285,-0.437992 0.919116,-0.367645c0.240176,0.099483 0.242901,0.574818 0,1.10294c-0.447885,0.973801 -0.684556,1.511528 -1.286762,2.205875c-0.17033,0.196392 -0.367646,0.183823 -0.367646,-0.367645c0,-0.551468 0.170601,-1.399086 0.551469,-1.83823c0.269315,-0.310524 0.421487,-0.497631 0.551469,-0.367649c0.389949,0.38995 -0.183823,1.470589 -0.183823,1.838234c0,0.367645 -0.149631,0.424164 0.183823,0.183823c0.210895,-0.152004 1.109104,-0.812027 2.94117,-1.286762c0.177946,-0.046112 0.091117,-0.44228 -0.735292,0c-0.687613,0.368 -1.880301,1.237057 -2.757347,2.022053c-0.581123,0.52013 -0.391293,0.165482 0.183823,-0.551468c1.060461,-1.321987 2.984826,-2.141312 4.411755,-3.676464c0.451234,-0.485458 0.62304,-0.52219 0.367646,0c-0.291196,0.59539 -0.293011,1.379467 -0.735292,2.205879c-0.122666,0.229202 -0.421487,0.421486 -0.551469,0.551468c-0.129985,0.129986 -0.394863,0.14185 -0.183824,-0.367645c0.099484,-0.240177 0.284744,-0.295296 0.919116,-1.286762c0.443063,-0.692467 0.464288,-0.891659 0.367646,-0.735291c-0.216097,0.349651 -1.102939,0.735291 -2.022055,1.654408c-1.102939,1.10294 -1.676709,1.632107 -1.286762,2.022053c0.259965,0.259964 1.654408,-1.102936 2.389701,-1.83823c0.919116,-0.919117 1.748846,-1.254364 1.654408,-1.654408c-0.042233,-0.178905 -0.465606,0.775585 -1.102939,2.022053c-0.487968,0.95435 -0.716864,1.178429 -0.735292,0.919117c-0.065156,-0.916805 1.108712,-1.646793 1.838231,-2.205879c0.785715,-0.602154 1.319325,-0.701218 0.55147,0c-1.060158,0.968151 -1.907425,1.669174 -2.205878,2.389702c-0.140692,0.339661 0.982454,-0.136551 1.654408,-1.10294c0.611907,-0.880032 1.386247,-1.965698 1.286762,-2.205875c-0.070346,-0.16983 -0.715033,0.745773 -1.102939,1.470585c-0.699307,1.306667 -1.200025,1.816479 -1.286762,1.654408c-0.312738,-0.584358 1.661823,-2.69252 2.205877,-3.308815c0.438633,-0.496876 0.919115,-0.735294 0.735292,-0.735294c-0.183823,0 0.238018,0.424938 -0.183823,1.654408c-0.480972,1.401814 -1.028303,2.48241 -1.470585,3.308819c-0.122666,0.229206 -0.027363,-0.089214 0.367646,-0.919117c0.325734,-0.684357 0.824677,-1.070541 0.919115,-1.470585c0.042233,-0.178905 -0.020725,-0.489338 -0.367646,-0.367645c-1.110689,0.389606 -2.300917,1.935959 -3.124993,2.94117c-0.420197,0.512558 -0.40988,0.730373 -0.367646,0.551468c0.188876,-0.800087 0.99477,-1.728676 1.654408,-2.573524c0.959914,-1.229435 1.299331,-1.27327 1.102939,-1.10294c-0.69435,0.602207 -1.419847,1.327705 -2.022055,2.022057c-0.170329,0.196392 0,0 0.367646,0c0.367646,0 0.735292,0 0.919116,0c0.183824,0 0.017992,0.703018 0.367646,0.919117c0.156369,0.096642 0.24034,-0.218018 0,-0.551472c-0.152004,-0.210896 -0.579455,-0.043129 -0.919116,-0.183823c-0.240176,-0.099483 -0.367646,-0.183823 -1.102939,-0.183823c-0.367646,0 -0.735292,-0.183823 -0.735292,0c0,0.551472 1.102939,0 1.470585,0c0.183824,0 0.311294,0.268162 0.55147,0.367645c0.16983,0.070347 0.534519,0.091217 1.286762,0.183823c0.182446,0.022461 -0.208411,-0.027351 -1.10294,0.183823c-0.400046,0.09444 -0.367646,0.367649 -0.551469,0.367649c-0.183824,0 0,0 2.573524,0c0.367646,0 0.735293,0.183823 0.735293,0c0,-2.022057 -2.757348,0 -3.49264,0c-0.183823,0 -0.367646,0 -0.551469,0c-0.183824,0 -0.367647,-0.367645 -0.55147,-0.183823c-0.183823,0.183823 0.325413,0.178905 0.367646,0c0.094439,-0.400047 0.183824,-0.735294 -0.551469,-0.735294c-0.919116,0 -1.10294,0 -0.919116,0c0.367646,0 0.421487,0.053841 0.551469,0.183823c0.129983,0.129982 0.55147,0 1.286762,0c0.367646,0 0.515481,-0.064548 -0.183823,0.367645c-0.781847,0.483208 -1.414232,1.187279 -1.654408,1.286762c-0.169831,0.070347 -0.032274,-0.017994 0.183824,-0.367645c0.386566,-0.625477 0.51907,-1.192326 0.919115,-1.286762c0.178906,-0.042233 0.421487,0.129982 0.55147,0c0.129982,-0.129982 0,-0.367645 0,-0.551468c0,-0.183823 0.093114,-0.389969 0,0.183823c-0.029445,0.18145 0,0.551468 0.183823,0.551468c0.735292,0 2.450167,-0.536053 3.308817,-1.83823c0.544941,-0.826424 0.82973,-1.254364 0.735292,-1.654408c-0.042233,-0.178905 -0.56612,-0.027946 -1.286762,0.367645c-0.939602,0.515789 -1.286761,0.919117 -1.470585,0.919117c-0.183824,0 -0.183825,-0.183823 0.183824,-0.551472c0.735291,-0.735291 1.931345,-1.080612 1.838231,-1.654408c-0.05889,-0.3629 -0.827984,0.374176 -1.654408,0.919117c-0.434059,0.286217 -1.156779,0.865273 -1.286762,0.735291c-0.259964,-0.259964 0.018603,-1.012711 1.10294,-1.470585c1.3653,-0.576511 3.991168,-0.548092 4.963225,-0.735291c0.361012,-0.069523 0.605307,-0.237663 0.735292,-0.367649c0.129982,-0.129982 0.367645,0 0.551468,0c0.735294,0 1.819223,-0.350426 1.654409,-0.551468c-0.420197,-0.512558 -2.205877,1.286762 -3.49264,2.022057c-1.286761,0.735291 -1.646521,1.049667 -1.470586,1.102936c0.634344,0.192062 2.401155,-0.982433 4.963225,-1.286762c2.220694,-0.263779 4.227932,-0.367645 5.147047,-0.367645c0.919117,0 2.20117,0.019375 3.676464,0.367645c1.649429,0.389378 3.308817,0.551472 3.860287,0.551472c0.183823,0 0.082874,0.175583 -0.55147,0.367645c-0.527807,0.159805 -1.021725,0.646927 -1.654409,1.10294c-0.333452,0.240341 -0.735292,0.919117 -0.735292,1.286762c0,0.367645 0.039545,0.668968 1.286762,0.183823c2.298479,-0.89407 3.503054,-2.006897 4.044111,-2.389702c0.750309,-0.530853 0.919113,-0.551468 1.83823,-0.551468c0.551468,0 1.654408,0.183823 1.83823,0.367645c0.183823,0.183823 0.183823,0.551468 0.183823,0.735294c0,0.183823 0.197815,0.254169 0.367649,0.183823c0.240177,-0.099483 0.381638,-0.254169 0.551468,-0.183823c0.240177,0.099483 0.151424,0.457031 0.551468,0.551468c0.178909,0.042236 0.367649,0 0.551472,0c0.183823,0 0.533474,0.335373 0.183823,0.551468c-0.156368,0.096642 -0.113476,0.197819 -0.183823,0.367649c-0.099483,0.240177 -0.551468,0.551468 -0.367645,0.551468c0.919117,0 0,-1.286762 0,-1.10294c0,0.183823 -0.165829,0.703022 0.183823,0.919117c0.312737,0.193283 0.735291,0 0.919113,0c0.183823,0 0.183823,-0.183823 0,0.183823c-0.183823,0.367645 -0.367645,0.735294 -0.551468,0.735294c-0.367645,0 -0.56546,0.070347 -0.735294,0c-0.240177,-0.099487 -0.311291,-0.268166 -0.551468,-0.367649c-0.16983,-0.070347 -0.919117,0 -1.654408,0c-1.10294,0 -2.022057,0 -2.757347,0c-0.183823,0 -0.579769,0.174389 -1.10294,0c-0.871952,-0.290649 -1.817238,-0.794891 -3.308817,-1.286762c-1.270931,-0.419109 -2.649275,-0.545685 -3.308817,-0.919113c-0.452444,-0.256172 -0.635809,-0.67894 -0.735292,-0.919117c-0.140692,-0.339661 0,-1.10294 0,-2.389702c0,-1.102938 0.211039,-2.06403 0,-2.573523c-0.198969,-0.480352 -0.782444,-0.404963 -0.919115,-0.183823c-0.305605,0.494482 -0.054403,0.786808 0.183823,0c0.429468,-1.41844 0.2752,-3.127836 0.183823,-4.595579c-0.092089,-1.479166 -0.468592,-2.197638 -1.102938,-2.389702c-0.351871,-0.106539 -0.757813,-0.201395 -1.470587,0.735292c-0.847761,1.11408 -0.551468,2.573524 -0.551468,3.676464c0,0.735292 -0.129982,0.972956 0,1.102938c0.259964,0.259964 0.960058,-0.316908 1.654408,-0.919115c0.785566,-0.681318 1.708839,-3.025126 1.286762,-4.044109c-0.198969,-0.480352 -0.742413,-0.45598 -1.286762,-0.367645c-1.72138,0.279341 -2.40736,1.458946 -3.49264,3.124992c-1.308197,2.008253 -2.659687,3.775684 -2.94117,5.147049c-0.147842,0.720276 0.12154,0.688444 1.102938,-0.55147c1.212744,-1.532198 2.113789,-2.932589 2.205879,-4.411757c0.068535,-1.100807 -0.367647,-1.83823 -1.10294,-1.83823c-0.919115,0 -3.067226,0.558985 -5.698518,2.573524c-1.551551,1.187881 -1.838231,3.860285 -1.838231,5.147047c0,1.470585 0.703371,2.134785 2.757347,2.205879c3.327187,0.115162 4.562101,-1.939835 5.514694,-3.860287c1.319649,-2.660444 2.466633,-7.183372 2.205877,-9.558804c-0.184927,-1.684647 -1.049997,-2.937794 -2.022055,-3.124994c-0.361012,-0.069525 -0.552847,-0.022461 -0.735292,0c-0.752243,0.092606 -1.201969,1.267828 -1.470585,2.94117c-0.292809,1.824047 -0.779148,4.254004 0,5.514694c0.348446,0.563799 0.628466,0.290649 0.919115,0c0.290649,-0.290649 1.234449,-0.510382 2.205879,-2.205877c0.577965,-1.008757 0.812983,-2.761732 0.919115,-4.044109c0.092226,-1.114342 0.147621,-1.292189 0,-0.183823c-0.243896,1.83123 -0.183823,3.860287 -0.183823,6.066164c0,2.022055 0.367645,3.308815 0.735292,3.676462c0.367647,0.367647 0.735292,0.735292 0.919115,0.735292c0.919117,0 1.864279,-0.175159 3.676464,0.183825c1.882586,0.372931 3.803738,1.178474 4.411755,2.022053c0.240341,0.333454 0.367645,0.735294 0.367645,1.10294c0,0.367645 0,0.735294 -0.367645,0.735294c-0.735294,0 -1.286762,0 -2.022055,0c-0.55147,0 -0.735292,0 -0.919115,0c-0.367647,0 -0.592184,0.033207 -0.735292,-0.183823c-0.544941,-0.826424 -0.40658,-0.989811 -0.55147,-1.10294c-0.597399,-0.466434 -0.479897,-1.499866 -0.735292,-2.022057c-0.291195,-0.595388 -0.55147,-0.735292 -0.919117,-0.735292c-0.183823,0 -0.622585,0.168678 -1.102938,0.367647c-0.339661,0.140694 -0.579454,0.324514 -0.919117,0.183823c-0.240175,-0.099483 -0.183823,-0.367645 -0.183823,-0.55147c0,-0.183823 0,-0.367645 0,-0.551468c0,-0.183825 0,-0.55147 0,-0.735292c0,-0.367647 0,-1.10294 0,-1.470587c0,-0.367645 0,-0.551468 0,-0.919115c0,-0.183823 0,-0.55147 0,-0.919115c0,-0.367647 0,-0.735292 0,-0.919117c0,-0.367645 0,-0.55147 -0.183823,-0.55147l0,-0.183823" id="svg_16" fill-opacity="null" stroke-width="null" stroke="#ffffff" fill="none"/>
  <path stroke="#000000" id="svg_1" fill-rule="evenodd" d="m27.981,41.947c0.001,0.019 0.006,0.036 0.006,0.056c0,2.207 -1.785,3.997 -3.987,3.997s-3.987,-1.79 -3.987,-3.997c0,-0.019 0.005,-0.036 0.005,-0.056c-12.751,-0.35 -16.018,-2.427 -16.018,-4.944c0,-0.788 0.344,-1.53 1.181,-2.194c6.028,-6.715 7.819,-4.856 7.819,-14.803c0,-6.632 0.271,-12.712 8.258,-13.807c-0.158,-0.366 -0.248,-0.768 -0.248,-1.191c0,-1.656 1.339,-2.998 2.99,-2.998s2.99,1.342 2.99,2.998c0,0.423 -0.09,0.825 -0.248,1.191c7.987,1.095 8.258,7.175 8.258,13.807c0,9.977 1.8,8.073 7.872,14.86c0.794,0.65 1.128,1.371 1.128,2.137c0,2.515 -3.353,4.592 -16.019,4.944zm-3.981,2.056c1.102,0 1.994,-0.895 1.994,-1.998c0,-0.006 -0.002,-0.012 -0.002,-0.018c-0.651,0.009 -1.296,0.019 -1.992,0.019s-1.34,-0.01 -1.992,-0.019c0,0.006 -0.002,0.012 -0.002,0.018c0,1.103 0.892,1.998 1.994,1.998zm0,-39.996c-0.551,0 -0.996,0.447 -0.996,0.999s0.445,1 0.996,1s0.997,-0.448 0.997,-1s-0.446,-0.999 -0.997,-0.999zm17.605,32.407c0,0 -1.522,-1.714 -4.018,-3.984c-3.408,-3.105 -4.587,-4.577 -4.587,-12.424c0,-7.664 -0.418,-12 -9,-12s-9,4.336 -9,12c0,7.848 -1.18,9.321 -4.59,12.427c-2.447,2.229 -3.986,3.942 -3.986,3.942c-0.424,0.337 -0.424,0.533 -0.424,0.628c0,0.123 0.205,3.003 18,3.003s18,-2.88 18,-3.003c0,-0.08 0,-0.267 -0.395,-0.589z" clip-rule="evenodd"/>
 </g>
</svg>