<?xml version="1.0" encoding="utf-8"?>
<!-- Svg Vector Icons : http://www.onlinewebfonts.com/icon -->
<!DOCTYPE svg PUBLIC "-//W3C//DTD SVG 1.1//EN" "http://www.w3.org/Graphics/SVG/1.1/DTD/svg11.dtd">
<svg version="1.1" xmlns="http://www.w3.org/2000/svg" xmlns:xlink="http://www.w3.org/1999/xlink" x="0px" y="0px" viewBox="0 0 1000 1000" enable-background="new 0 0 1000 1000" xml:space="preserve">
<metadata> Svg Vector Icons : http://www.onlinewebfonts.com/icon </metadata>
<g><path d="M502.9,987.8c-70.5,0-131.5-64.3-150.8-157.4H30.2c-8.1,0-15.4-4.8-18.6-12.3c-3.2-7.4-1.6-16,4-21.9c20.8-21.7,40.5-38.6,58-53.4c42.9-36.6,68.8-58.6,68.8-115.7V438.5c0.8-162.3,108.9-306.6,258.8-348.6c7.3-33,33.6-77.6,98.8-77.6c64.5,0,91.2,46.1,98.7,79.8c150.8,42.2,259.3,185.6,260.1,346.4v194.8c0,55.3,22.9,74,64.4,107.9c18.3,14.9,39,31.9,61.2,55c5.6,5.9,7.2,14.5,4,21.9c-3.2,7.4-10.5,12.3-18.6,12.3H653.7C634.4,923.5,573.4,987.8,502.9,987.8z M395.4,837.6c18.1,64.8,61,109.8,107.5,109.8c46.5,0,89.4-44.9,107.5-109.8H395.4z M80.7,789.9h838c-7.3-6.2-14.4-12-21.1-17.5c-44.3-36.2-79.3-64.7-79.3-139.2V438.5c-0.7-146.9-102.6-277.6-242.3-310.6c-8.6-2-14.9-9.5-15.5-18.3c-0.4-5.7-6.1-56.9-60.5-56.9c-56.1,0-60.3,48.9-60.5,54.5c-0.5,9-6.8,16.5-15.6,18.6c-138.9,32.8-240.3,164.4-241,312.9v188.5c0,75.7-38.5,108.4-83,146.4C93.7,778.6,87.3,784.1,80.7,789.9z"/><path d="M607.7,136c-1.9,0-3.9-0.3-5.9-0.9c-107.2-32.6-195.6-5.3-196.5-5c-10.7,3.4-22-2.5-25.4-13.1c-3.4-10.6,2.4-22,13-25.4c4.1-1.3,100.7-31.7,220.6,4.8c10.7,3.2,16.7,14.5,13.5,25.2C624.3,130.4,616.3,136,607.7,136z"/></g>
</svg>