<svg width="118" height="109" viewBox="0 0 118 109" fill="none" xmlns="http://www.w3.org/2000/svg">
<path d="M75.2 32.9716C68.2 30.3716 61.5 36.0716 59.7 39.3716C59.4 39.7716 58.9 39.7716 58.6 39.3716C56.6 36.0716 50 30.2716 43 32.9716C37.9 34.8716 34.7 40.0716 35.1 45.5716C36.1 58.2716 59.1 73.9716 59.1 73.9716C59.1 73.9716 82.1 58.2716 83.1 45.5716C83.5 40.0716 80.2 34.8716 75.2 32.9716Z" stroke="#EB3148" stroke-width="7" stroke-miterlimit="10" stroke-linecap="round" stroke-linejoin="round"/>
<path d="M58.3 4.07166C27.4 4.07166 4 24.6717 4 50.0717C4 61.0717 7.6 71.2717 18.3 79.2717C20.3 87.2717 18.8 95.2717 17.2 100.772C16.4 103.472 19.2 106.272 21.9 105.172L50 95.2717C53.1 95.5717 55.5 95.7717 58.6 95.7717C89.5 95.7717 114.3 75.1717 114.3 49.7717C114.3 24.3717 89 4.07166 58.3 4.07166Z" stroke="#EB3148" stroke-width="7" stroke-miterlimit="10" stroke-linecap="round" stroke-linejoin="round"/>
</svg>
