<svg width="24" height="24" viewBox="0 0 24 24" fill="none" xmlns="http://www.w3.org/2000/svg">
<path fill-rule="evenodd" clip-rule="evenodd" d="M0.0234375 19.9714V2.06628C0.0234375 1.64232 0.191859 1.23573 0.491648 0.935984C0.791391 0.636194 1.19799 0.467773 1.62194 0.467773H20.481C20.905 0.467773 21.3116 0.636194 21.6113 0.935984C21.9111 1.23573 22.0795 1.64232 22.0795 2.06628V7.99994H22.3782C23.261 7.99994 23.9767 8.71559 23.9767 9.59844V19.9714C23.9767 20.9157 23.6015 21.8214 22.9338 22.4892C22.266 23.1569 21.3603 23.5321 20.4159 23.5321H3.58423C2.63986 23.5321 1.73413 23.1569 1.06638 22.4892C0.398595 21.8214 0.0234375 20.9157 0.0234375 19.9714ZM21.6584 17.8245C21.5468 17.8245 21.4397 17.7801 21.3607 17.7012C21.2818 17.6223 21.2374 17.5152 21.2374 17.4035V2.06628C21.2374 1.86567 21.1578 1.67329 21.0159 1.5314C20.874 1.38955 20.6816 1.30988 20.481 1.30988H1.62194C1.42133 1.30988 1.22896 1.38955 1.08711 1.5314C0.945262 1.67329 0.865543 1.86567 0.865543 2.06628V19.9714C0.865543 20.6924 1.152 21.3839 1.66185 21.8937C2.17169 22.4036 2.8632 22.69 3.58423 22.69H20.4159C21.1369 22.69 21.8284 22.4036 22.3383 21.8937C22.8481 21.3839 23.1345 20.6924 23.1345 19.9714V9.59844C23.1345 9.18071 22.7959 8.84204 22.3782 8.84204H22.0795V17.4035C22.0795 17.636 21.891 17.8245 21.6586 17.8245H21.6584ZM2.58367 17.8245H19.5193C19.7517 17.8245 19.9404 17.6358 19.9404 17.4034C19.9404 17.1711 19.7517 16.9824 19.5193 16.9824H2.58367C2.35125 16.9824 2.16262 17.1711 2.16262 17.4034C2.16262 17.6358 2.35125 17.8245 2.58367 17.8245ZM2.58367 14.9005H19.5193C19.7517 14.9005 19.9404 14.7118 19.9404 14.4795C19.9404 14.2471 19.7517 14.0584 19.5193 14.0584H2.58367C2.35125 14.0584 2.16262 14.2471 2.16262 14.4795C2.16262 14.7118 2.35125 14.9005 2.58367 14.9005ZM2.58367 11.9765H19.5193C19.7517 11.9765 19.9404 11.7879 19.9404 11.5555C19.9404 11.3231 19.7517 11.1344 19.5193 11.1344H2.58367C2.35125 11.1344 2.16262 11.3231 2.16262 11.5555C2.16262 11.7879 2.35125 11.9765 2.58367 11.9765ZM19.5193 3.54773C19.5193 2.89313 18.9887 2.36251 18.3341 2.36251H3.76884C3.11429 2.36251 2.58367 2.89313 2.58367 3.54773V7.4463C2.58367 8.1009 3.11429 8.63152 3.76884 8.63152H18.3341C18.9887 8.63152 19.5193 8.1009 19.5193 7.4463V3.54773ZM18.6772 3.54773C18.6772 3.35821 18.5236 3.20462 18.3341 3.20462H3.76884C3.57937 3.20462 3.42578 3.35821 3.42578 3.54773V7.4463C3.42578 7.63582 3.57937 7.78941 3.76884 7.78941H18.3341C18.5236 7.78941 18.6772 7.63582 18.6772 7.4463V3.54773Z" fill="white"/>
</svg>
