<svg width="17" height="11" viewBox="0 0 17 11" fill="none" xmlns="http://www.w3.org/2000/svg">
<path d="M16.6458 1.71875C16.4475 1.045 15.8807 0.508737 15.1441 0.329987C13.8124 -1.34204e-05 8.5 0 8.5 0C8.5 0 3.18758 -1.34204e-05 1.85592 0.329987C1.13342 0.508737 0.5525 1.045 0.354167 1.71875C0 2.9425 0 5.5 0 5.5C0 5.5 0 8.0575 0.354167 9.28125C0.5525 9.955 1.13342 10.4913 1.85592 10.67C3.18758 11 8.5 11 8.5 11C8.5 11 13.8124 11 15.1441 10.67C15.8807 10.4913 16.4475 9.955 16.6458 9.28125C17 8.0575 17 5.5 17 5.5C17 5.5 17 2.9425 16.6458 1.71875ZM7.08333 8.25V2.75L11.3333 5.5L7.08333 8.25Z" fill="white"/>
</svg>
