<?xml version="1.0" encoding="utf-8"?>
<!-- Generator: Adobe Illustrator 26.0.3, SVG Export Plug-In . SVG Version: 6.00 Build 0)  -->
<svg version="1.1" id="Слой_1" xmlns="http://www.w3.org/2000/svg" xmlns:xlink="http://www.w3.org/1999/xlink" x="0px" y="0px"
	 viewBox="0 0 140.6 129" style="enable-background:new 0 0 140.6 129;" xml:space="preserve">
<style type="text/css">
	.st0{fill:#ffffff;}
	.st1{fill:url(#SVGID_00000147201385058363991480000011405339407999640999_);}
</style>
<linearGradient id="SVGID_1_" gradientUnits="userSpaceOnUse" x1="37.3" y1="60.85" x2="116.5" y2="60.85">
	<stop  offset="0" style="stop-color:#F49EAE"/>
	<stop  offset="9.244496e-02" style="stop-color:#F090B1"/>
	<stop  offset="0.5171" style="stop-color:#B65AC6"/>
	<stop  offset="0.8319" style="stop-color:#9336D3"/>
	<stop  offset="1" style="stop-color:#8529D8"/>
</linearGradient>
<path class="st0" d="M71,26.5v1.8l-9.2,2.2l-1.4,0.3l0.3,1.4l4.5,19.2L45,56.2l-1.4,0.3l0.3,1.4L49,79.8l0.3,1.4l1.4-0.3L71,76.2
	v0.1v18.9H37.3V26.5H71z M85,26.5l4.8,20.7l21.6-5.1l5.1,21.9L95,69.1l4.8,20.7l-22.9,5.4l-4.8-20.7l-21.6,5.1l-5.1-21.9L67,52.6
	l-4.8-20.7L85,26.5z"/>
<g>
	
		<linearGradient id="SVGID_00000146485059238440450230000018128112306866072219_" gradientUnits="userSpaceOnUse" x1="3.1001" y1="64.4626" x2="137.4004" y2="64.4626">
		<stop  offset="0" style="stop-color:#F49EAE"/>
		<stop  offset="9.244496e-02" style="stop-color:#F090B1"/>
		<stop  offset="0.5171" style="stop-color:#B65AC6"/>
		<stop  offset="0.8319" style="stop-color:#9336D3"/>
		<stop  offset="1" style="stop-color:#8529D8"/>
	</linearGradient>
	<path style="fill:#ffffff;" d="M25.9,126.3c-2,0-3.9-0.8-5.3-2.2
		c-2.1-2-2.8-5-2-7.7c1.6-5.4,3.1-13.5,1.4-21.7C8.7,85.8,3.1,74.1,3.1,59c0-31.6,29.1-56.4,66.2-56.4c37.6,0,68.1,25.3,68.1,56.4
		c0,31.1-30.4,56.4-67.7,56.4c-3.2,0-6-0.2-9.6-0.7l-31.6,11.2C27.6,126.2,26.8,126.3,25.9,126.3z M69.3,9.6
		C36.1,9.6,10.1,31.3,10.1,59c0,13.4,4.8,23.2,15.2,30.9c0.7,0.5,1.1,1.2,1.3,2c2.5,10.2,0.7,20.1-1.2,26.7c0,0.1-0.1,0.4,0.2,0.6
		c0.2,0.2,0.4,0.2,0.7,0.1l32.4-11.5c0.5-0.2,1.1-0.2,1.7-0.2c3.7,0.5,6.4,0.8,9.5,0.8c33.5,0,60.7-22.2,60.7-49.4S103,9.6,69.3,9.6
		z"/>
</g>
</svg>
