<svg width="125" height="125" viewBox="0 0 125 125" fill="none" xmlns="http://www.w3.org/2000/svg">
<path d="M119 32.1H6C4.1 32.1 2.5 30.2 2.5 27.8C2.5 25.4 4.1 23.5 6 23.5H119C120.9 23.5 122.5 25.4 122.5 27.8C122.5 30.2 120.9 32.1 119 32.1Z" fill="black"/>
<path d="M119 96.9984H6C4.1 96.9984 2.5 95.0984 2.5 92.6984C2.5 90.3984 4.1 88.3984 6 88.3984H119C120.9 88.3984 122.5 90.2984 122.5 92.6984C122.5 95.0984 120.9 96.9984 119 96.9984Z" fill="black"/>
<path d="M22.1 65.5H6C4.1 65.5 2.5 63.6 2.5 61.2C2.5 58.8 4.1 57 6 57H22.1C24 57 25.6 58.9 25.6 61.3C25.6 63.7 24 65.5 22.1 65.5Z" fill="black"/>
<path d="M119.002 65.4984H47.1016C45.2016 65.4984 43.6016 63.5984 43.6016 61.1984C43.6016 58.7984 45.2016 56.8984 47.1016 56.8984H119.002C120.902 56.8984 122.502 58.7984 122.502 61.1984C122.502 63.5984 120.902 65.4984 119.002 65.4984Z" fill="black"/>
</svg>
