<svg width="141" height="129" viewBox="0 0 141 129" fill="none" xmlns="http://www.w3.org/2000/svg">
<path d="M70.2969 127.598C66.2969 127.598 62.1969 126.598 58.5969 124.498L23.9969 104.498C16.7969 100.298 12.2969 92.5984 12.2969 84.2984V44.2984C12.2969 35.9984 16.7969 28.1984 23.9969 24.0984L58.5969 4.09844C65.7969 -0.0015626 74.7969 -0.0015626 81.9969 4.09844L116.597 24.0984C123.797 28.2984 128.297 35.9984 128.297 44.2984V84.2984C128.297 92.5984 123.797 100.398 116.597 104.498L81.9969 124.498C78.3969 126.598 74.2969 127.598 70.2969 127.598ZM70.2969 9.69844C67.7969 9.69844 65.1969 10.3984 62.9969 11.6984L28.3969 31.6984C23.8969 34.2984 21.0969 39.1984 21.0969 44.3984V84.3984C21.0969 89.5984 23.8969 94.4984 28.3969 97.0984L62.9969 116.998C67.4969 119.598 73.1969 119.598 77.6969 116.998L112.297 96.9984C116.797 94.3984 119.597 89.4984 119.597 84.2984V44.2984C119.597 39.0984 116.797 34.1984 112.297 31.5984L77.6969 11.5984C75.3969 10.2984 72.7969 9.69844 70.2969 9.69844Z" fill="black"/>
<path d="M94.3 60.8992H74.6V41.9992C74.6 39.5992 72.7 37.6992 70.3 37.6992C67.9 37.6992 66 39.5992 66 41.9992V60.8992H46.3C43.9 60.8992 42 62.7992 42 65.1992C42 67.5992 43.9 69.4992 46.3 69.4992H66V89.9992C66 92.3992 67.9 94.2992 70.3 94.2992C72.7 94.2992 74.6 92.3992 74.6 89.9992V69.5992H94.3C96.7 69.5992 98.6 67.6992 98.6 65.2992C98.6 62.7992 96.7 60.8992 94.3 60.8992Z" fill="black"/>
</svg>
