<svg width="141" height="129" viewBox="0 0 141 129" fill="none" xmlns="http://www.w3.org/2000/svg">
<path d="M103.2 111.302H19.8C10.8 111.302 3.5 104.002 3.5 95.0016V41.6016C3.5 32.8016 10.7 25.6016 19.5 25.6016H103.1C111.9 25.6016 119 32.7016 119 41.5016V95.5016C119.1 104.202 112 111.302 103.2 111.302ZM19.6 32.6016C14.6 32.6016 10.6 36.6016 10.6 41.6016V95.0016C10.6 100.102 14.8 104.302 19.9 104.302H103.3C108.2 104.302 112.1 100.402 112.1 95.5016V41.5016C112.1 36.6016 108.1 32.6016 103.2 32.6016H19.6Z" fill="black"/>
<path d="M106.097 107.801L90.2969 122.001V107.801H106.097Z" fill="black"/>
<path d="M90.2969 125.001C89.8969 125.001 89.4969 124.901 89.0969 124.701C87.9969 124.201 87.2969 123.101 87.2969 122.001V107.801C87.2969 106.101 88.5969 104.801 90.2969 104.801H106.097C107.297 104.801 108.497 105.601 108.897 106.701C109.297 107.801 108.997 109.201 108.097 110.001L92.2969 124.201C91.7969 124.701 91.0969 125.001 90.2969 125.001ZM93.2969 110.801V115.301L98.2969 110.801H93.2969Z" fill="black"/>
<path d="M120.903 95.2016H115.403C113.503 95.2016 111.903 93.6016 111.903 91.7016C111.903 89.8016 113.503 88.2016 115.403 88.2016H120.903C126.003 88.2016 130.003 84.2016 130.003 79.1016V25.4016C130.003 20.5016 126.103 16.6016 121.203 16.6016H37.7031C32.7031 16.6016 28.7031 20.6016 28.7031 25.6016V28.3016C28.7031 30.2016 27.1031 31.8016 25.2031 31.8016C23.3031 31.8016 21.7031 30.2016 21.7031 28.3016V25.6016C21.7031 16.8016 28.9031 9.60156 37.7031 9.60156H121.303C130.003 9.60156 137.103 16.7016 137.103 25.4016V79.1016C137.103 88.0016 129.803 95.2016 120.903 95.2016Z" fill="black"/>
<path d="M38.7969 72.6016C41.006 72.6016 42.7969 70.8107 42.7969 68.6016C42.7969 66.3924 41.006 64.6016 38.7969 64.6016C36.5877 64.6016 34.7969 66.3924 34.7969 68.6016C34.7969 70.8107 36.5877 72.6016 38.7969 72.6016Z" fill="black"/>
<path d="M38.7969 75.1016C35.1969 75.1016 32.2969 72.2016 32.2969 68.6016C32.2969 65.0016 35.1969 62.1016 38.7969 62.1016C42.3969 62.1016 45.2969 65.0016 45.2969 68.6016C45.2969 72.2016 42.3969 75.1016 38.7969 75.1016ZM38.7969 67.1016C37.9969 67.1016 37.2969 67.8016 37.2969 68.6016C37.2969 69.4016 37.9969 70.1016 38.7969 70.1016C39.5969 70.1016 40.2969 69.4016 40.2969 68.6016C40.2969 67.8016 39.6969 67.1016 38.7969 67.1016Z" fill="black"/>
<path d="M61.2969 72.6016C63.506 72.6016 65.2969 70.8107 65.2969 68.6016C65.2969 66.3924 63.506 64.6016 61.2969 64.6016C59.0877 64.6016 57.2969 66.3924 57.2969 68.6016C57.2969 70.8107 59.0877 72.6016 61.2969 72.6016Z" fill="black"/>
<path d="M61.2969 75.1016C57.6969 75.1016 54.7969 72.2016 54.7969 68.6016C54.7969 65.0016 57.6969 62.1016 61.2969 62.1016C64.8969 62.1016 67.7969 65.0016 67.7969 68.6016C67.7969 72.2016 64.8969 75.1016 61.2969 75.1016ZM61.2969 67.1016C60.4969 67.1016 59.7969 67.8016 59.7969 68.6016C59.7969 69.4016 60.4969 70.1016 61.2969 70.1016C62.0969 70.1016 62.7969 69.4016 62.7969 68.6016C62.7969 67.8016 62.1969 67.1016 61.2969 67.1016Z" fill="black"/>
<path d="M83.2969 72.6016C85.506 72.6016 87.2969 70.8107 87.2969 68.6016C87.2969 66.3924 85.506 64.6016 83.2969 64.6016C81.0877 64.6016 79.2969 66.3924 79.2969 68.6016C79.2969 70.8107 81.0877 72.6016 83.2969 72.6016Z" fill="black"/>
<path d="M83.2969 75.1016C79.6969 75.1016 76.7969 72.2016 76.7969 68.6016C76.7969 65.0016 79.6969 62.1016 83.2969 62.1016C86.8969 62.1016 89.7969 65.0016 89.7969 68.6016C89.7969 72.2016 86.8969 75.1016 83.2969 75.1016ZM83.2969 67.1016C82.4969 67.1016 81.7969 67.8016 81.7969 68.6016C81.7969 69.4016 82.4969 70.1016 83.2969 70.1016C84.0969 70.1016 84.7969 69.4016 84.7969 68.6016C84.7969 67.8016 84.1969 67.1016 83.2969 67.1016Z" fill="black"/>
</svg>
