<?xml version="1.0" encoding="utf-8"?>
<!-- Generator: Adobe Illustrator 26.0.3, SVG Export Plug-In . SVG Version: 6.00 Build 0)  -->
<svg version="1.1" id="Слой_1" xmlns="http://www.w3.org/2000/svg" xmlns:xlink="http://www.w3.org/1999/xlink" x="0px" y="0px"
	 viewBox="0 0 125 125" style="enable-background:new 0 0 125 125;" xml:space="preserve">
<style type="text/css">
	.st0{display:none;stroke:#000000;stroke-miterlimit:10;}
	.st1{fill:url(#SVGID_1_);}
</style>
<rect class="st0" width="125" height="125"/>
<linearGradient id="SVGID_1_" gradientUnits="userSpaceOnUse" x1="2.5" y1="60.25" x2="122.5" y2="60.25">
	<stop  offset="0" style="stop-color:#FFA0AF"/>
	<stop  offset="9.244496e-02" style="stop-color:#F293B4"/>
	<stop  offset="0.5171" style="stop-color:#B85AC8"/>
	<stop  offset="0.8319" style="stop-color:#9536D5"/>
	<stop  offset="1" style="stop-color:#8729DA"/>
</linearGradient>
<path class="st1" d="M6,27.8h113 M119,32.1H6c-1.9,0-3.5-1.9-3.5-4.3s1.6-4.3,3.5-4.3h113c1.9,0,3.5,1.9,3.5,4.3
	S120.9,32.1,119,32.1z M6,92.8h113 M119,97H6c-1.9,0-3.5-1.9-3.5-4.3c0-2.3,1.6-4.3,3.5-4.3h113c1.9,0,3.5,1.9,3.5,4.3
	S120.9,97,119,97z M6,61.2h16.1 M22.1,65.5H6c-1.9,0-3.5-1.9-3.5-4.3S4.1,57,6,57h16.1c1.9,0,3.5,1.9,3.5,4.3S24,65.5,22.1,65.5z
	 M47.1,61.2H119 M119,65.5H47.1c-1.9,0-3.5-1.9-3.5-4.3s1.6-4.3,3.5-4.3H119c1.9,0,3.5,1.9,3.5,4.3S120.9,65.5,119,65.5z"/>
</svg>
