<svg width="20" height="20" viewBox="0 0 20 20" fill="none" xmlns="http://www.w3.org/2000/svg">
<g clip-path="url(#clip0_1503_3362)">
<path d="M16.6689 19.9999H3.33145C2.44845 19.9982 1.60209 19.6467 0.977721 19.0224C0.353348 18.398 0.00184738 17.5516 0.000195375 16.6686V8.66866C-0.00881052 8.57583 0.00170078 8.48214 0.031054 8.39361C0.0604073 8.30508 0.107953 8.22368 0.170638 8.15462C0.233323 8.08556 0.30976 8.03037 0.395039 7.99261C0.480318 7.95484 0.572554 7.93533 0.66582 7.93533C0.759087 7.93533 0.851323 7.95484 0.936602 7.99261C1.02188 8.03037 1.09832 8.08556 1.161 8.15462C1.22369 8.22368 1.27123 8.30508 1.30059 8.39361C1.32994 8.48214 1.34045 8.57583 1.33145 8.66866V16.6686C1.33145 17.1991 1.54216 17.7078 1.91723 18.0828C2.2923 18.4579 2.80101 18.6686 3.33145 18.6686H16.6689C17.1994 18.6686 17.7081 18.4579 18.0832 18.0828C18.4582 17.7078 18.6689 17.1991 18.6689 16.6686V8.66866C18.6599 8.57583 18.6705 8.48214 18.6998 8.39361C18.7292 8.30508 18.7767 8.22368 18.8394 8.15462C18.9021 8.08556 18.9785 8.03037 19.0638 7.99261C19.1491 7.95484 19.2413 7.93533 19.3346 7.93533C19.4278 7.93533 19.5201 7.95484 19.6054 7.99261C19.6906 8.03037 19.7671 8.08556 19.8298 8.15462C19.8924 8.22368 19.94 8.30508 19.9693 8.39361C19.9987 8.48214 20.0092 8.57583 20.0002 8.66866V16.6686C19.9985 17.5516 19.647 18.398 19.0227 19.0224C18.3983 19.6467 17.5519 19.9982 16.6689 19.9999Z" fill="#8B93AB"/>
<path d="M10.0003 10C9.86803 10 9.73874 9.96078 9.62876 9.88729C9.51878 9.81381 9.43307 9.70936 9.38245 9.58716C9.33183 9.46496 9.31859 9.3305 9.34439 9.20077C9.3702 9.07105 9.43389 8.95189 9.52742 8.85836C9.62095 8.76483 9.74011 8.70114 9.86983 8.67533C9.99956 8.64953 10.134 8.66277 10.2562 8.71339C10.3784 8.76401 10.4829 8.84972 10.5564 8.9597C10.6298 9.06968 10.6691 9.19897 10.6691 9.33124C10.6691 9.50861 10.5986 9.67871 10.4732 9.80412C10.3478 9.92954 10.1777 10 10.0003 10Z" fill="#8B93AB"/>
<path d="M14.6688 9.99998C14.5365 9.99998 14.4072 9.96076 14.2972 9.88728C14.1872 9.8138 14.1015 9.70935 14.0509 9.58715C14.0003 9.46495 13.987 9.33049 14.0129 9.20077C14.0387 9.07104 14.1023 8.95188 14.1959 8.85836C14.2894 8.76483 14.4086 8.70114 14.5383 8.67533C14.668 8.64953 14.8025 8.66277 14.9247 8.71339C15.0469 8.76401 15.1513 8.84972 15.2248 8.9597C15.2983 9.06967 15.3375 9.19897 15.3375 9.33123C15.3375 9.41958 15.32 9.50706 15.286 9.5886C15.252 9.67015 15.2022 9.74415 15.1394 9.80633C15.0767 9.86852 15.0022 9.91764 14.9203 9.95088C14.8385 9.98412 14.7509 10.0008 14.6625 9.99998H14.6688Z" fill="#8B93AB"/>
<path d="M5.33134 9.99998C5.19908 9.99998 5.06978 9.96076 4.95981 9.88728C4.84983 9.8138 4.76412 9.70935 4.7135 9.58715C4.66289 9.46495 4.64964 9.33049 4.67545 9.20077C4.70125 9.07104 4.76494 8.95188 4.85847 8.85836C4.95199 8.76483 5.07115 8.70114 5.20088 8.67533C5.3306 8.64953 5.46506 8.66277 5.58726 8.71339C5.70946 8.76401 5.8139 8.84972 5.88739 8.9597C5.96087 9.06967 6.00009 9.19897 6.00009 9.33123C6.00009 9.41958 5.98259 9.50706 5.94859 9.5886C5.9146 9.67015 5.86478 9.74415 5.80201 9.80633C5.73925 9.86852 5.66479 9.91764 5.58293 9.95088C5.50107 9.98412 5.41344 10.0008 5.32509 9.99998H5.33134Z" fill="#8B93AB"/>
<path d="M16.6688 1.33125H15.3313V0.66875C15.3313 0.492464 15.2617 0.323305 15.1376 0.198068C15.0135 0.0728316 14.845 0.00164753 14.6687 0V0C14.4914 0 14.3213 0.0704574 14.1959 0.195872C14.0705 0.321287 14 0.491387 14 0.66875V3.33125C14 3.50754 14.0696 3.67669 14.1937 3.80193C14.3177 3.92717 14.4862 3.99835 14.6625 4C14.7503 4 14.8373 3.9827 14.9184 3.94909C14.9996 3.91549 15.0733 3.86623 15.1354 3.80413C15.1975 3.74203 15.2467 3.66831 15.2803 3.58717C15.314 3.50603 15.3313 3.41907 15.3313 3.33125V2.66875H16.6688C17.1992 2.66875 17.7079 2.87946 18.083 3.25454C18.458 3.62961 18.6688 4.13832 18.6688 4.66875V5.33125H1.33125V4.66875C1.33226 4.53428 1.34692 4.40026 1.375 4.26875C1.46924 3.8187 1.71474 3.4145 2.07066 3.12339C2.42658 2.83229 2.87145 2.67184 3.33125 2.66875C3.49666 2.6527 3.65017 2.57565 3.76186 2.45259C3.87355 2.32954 3.93543 2.16931 3.93543 2.00312C3.93543 1.83694 3.87355 1.67671 3.76186 1.55366C3.65017 1.4306 3.49666 1.35355 3.33125 1.3375C2.44876 1.34079 1.60336 1.69282 0.979338 2.31684C0.35532 2.94086 0.0032929 3.78626 0 4.66875L0 6C0 6.17736 0.0704574 6.34746 0.195872 6.47288C0.321287 6.59829 0.491387 6.66875 0.66875 6.66875H19.3312C19.5086 6.66875 19.6787 6.59829 19.8041 6.47288C19.9295 6.34746 20 6.17736 20 6V4.66875C20 3.78467 19.6492 2.93671 19.0247 2.31099C18.4001 1.68526 17.5528 1.33291 16.6688 1.33125Z" fill="#8B93AB"/>
<path d="M10.0003 4C10.0881 4 10.1751 3.9827 10.2562 3.94909C10.3373 3.91549 10.4111 3.86623 10.4732 3.80413C10.5353 3.74203 10.5845 3.66831 10.6181 3.58717C10.6517 3.50603 10.669 3.41907 10.669 3.33125V2.66875H12.669C12.8345 2.6527 12.988 2.57565 13.0996 2.45259C13.2113 2.32954 13.2732 2.16931 13.2732 2.00312C13.2732 1.83694 13.2113 1.67671 13.0996 1.55366C12.988 1.4306 12.8345 1.35355 12.669 1.3375H10.669V0.66875C10.669 0.491387 10.5986 0.321287 10.4732 0.195872C10.3478 0.0704574 10.1777 0 10.0003 0C9.82293 0 9.65283 0.0704574 9.52742 0.195872C9.402 0.321287 9.33154 0.491387 9.33154 0.66875V3.33125C9.33154 3.41907 9.34884 3.50603 9.38245 3.58717C9.41606 3.66831 9.46532 3.74203 9.52742 3.80413C9.58951 3.86623 9.66324 3.91549 9.74437 3.94909C9.82551 3.9827 9.91247 4 10.0003 4Z" fill="#8B93AB"/>
<path d="M5.3251 4C5.50138 4.00001 5.67054 3.93041 5.79578 3.80634C5.92102 3.68228 5.9922 3.51378 5.99385 3.3375V2.66875H8.0001C8.09293 2.67776 8.18662 2.66724 8.27514 2.63789C8.36367 2.60854 8.44508 2.56099 8.51414 2.49831C8.5832 2.43562 8.63839 2.35919 8.67615 2.27391C8.71391 2.18863 8.73342 2.09639 8.73342 2.00312C8.73342 1.90986 8.71391 1.81762 8.67615 1.73234C8.63839 1.64706 8.5832 1.57063 8.51414 1.50794C8.44508 1.44526 8.36367 1.39771 8.27514 1.36836C8.18662 1.33901 8.09293 1.32849 8.0001 1.3375H6.0001V0.66875C6.0001 0.491387 5.92964 0.321287 5.80422 0.195872C5.67881 0.0704574 5.50871 6.38664e-10 5.33135 6.38664e-10C5.15506 -7.69828e-06 4.9859 0.0695911 4.86067 0.193657C4.73543 0.317724 4.66425 0.486222 4.6626 0.6625V3.33125C4.66259 3.50754 4.73219 3.67669 4.85626 3.80193C4.98032 3.92717 5.14882 3.99835 5.3251 4Z" fill="#8B93AB"/>
<path d="M10.0003 13.3312C9.86803 13.3312 9.73874 13.292 9.62876 13.2185C9.51878 13.145 9.43307 13.0405 9.38245 12.9184C9.33183 12.7962 9.31859 12.6617 9.34439 12.532C9.3702 12.4022 9.43389 12.2831 9.52742 12.1896C9.62095 12.096 9.74011 12.0323 9.86983 12.0065C9.99956 11.9807 10.134 11.994 10.2562 12.0446C10.3784 12.0952 10.4829 12.1809 10.5564 12.2909C10.6298 12.4009 10.6691 12.5302 10.6691 12.6624C10.6691 12.8398 10.5986 13.0099 10.4732 13.1353C10.3478 13.2607 10.1777 13.3312 10.0003 13.3312Z" fill="#8B93AB"/>
<path d="M14.6688 13.3312C14.5365 13.3312 14.4072 13.292 14.2972 13.2185C14.1872 13.145 14.1015 13.0406 14.0509 12.9184C14.0003 12.7962 13.987 12.6617 14.0129 12.532C14.0387 12.4023 14.1023 12.2831 14.1959 12.1896C14.2894 12.096 14.4086 12.0323 14.5383 12.0065C14.668 11.9807 14.8025 11.994 14.9247 12.0446C15.0469 12.0952 15.1513 12.1809 15.2248 12.2909C15.2983 12.4009 15.3375 12.5302 15.3375 12.6624C15.3375 12.7508 15.32 12.8383 15.286 12.9198C15.252 13.0014 15.2022 13.0754 15.1394 13.1375C15.0767 13.1997 15.0022 13.2489 14.9203 13.2821C14.8385 13.3153 14.7509 13.332 14.6625 13.3312H14.6688Z" fill="#8B93AB"/>
<path d="M5.33134 13.3312C5.19908 13.3312 5.06978 13.292 4.95981 13.2185C4.84983 13.145 4.76412 13.0406 4.7135 12.9184C4.66289 12.7962 4.64964 12.6617 4.67545 12.532C4.70125 12.4023 4.76494 12.2831 4.85847 12.1896C4.95199 12.096 5.07115 12.0323 5.20088 12.0065C5.3306 11.9807 5.46506 11.994 5.58726 12.0446C5.70946 12.0952 5.8139 12.1809 5.88739 12.2909C5.96087 12.4009 6.00009 12.5302 6.00009 12.6624C6.00009 12.7508 5.98259 12.8383 5.94859 12.9198C5.9146 13.0014 5.86478 13.0754 5.80201 13.1375C5.73925 13.1997 5.66479 13.2489 5.58293 13.2821C5.50107 13.3153 5.41344 13.332 5.32509 13.3312H5.33134Z" fill="#8B93AB"/>
<path d="M10.0003 16.6687C9.86803 16.6687 9.73874 16.6295 9.62876 16.556C9.51878 16.4826 9.43307 16.3781 9.38245 16.2559C9.33183 16.1337 9.31859 15.9993 9.34439 15.8695C9.3702 15.7398 9.43389 15.6206 9.52742 15.5271C9.62095 15.4336 9.74011 15.3699 9.86983 15.3441C9.99956 15.3183 10.134 15.3315 10.2562 15.3822C10.3784 15.4328 10.4829 15.5185 10.5564 15.6285C10.6298 15.7384 10.6691 15.8677 10.6691 16C10.6691 16.1774 10.5986 16.3475 10.4732 16.4729C10.3478 16.5983 10.1777 16.6687 10.0003 16.6687Z" fill="#8B93AB"/>
<path d="M14.6688 16.6688C14.5365 16.6688 14.4072 16.6295 14.2972 16.5561C14.1872 16.4826 14.1015 16.3781 14.0509 16.2559C14.0003 16.1337 13.987 15.9993 14.0129 15.8695C14.0387 15.7398 14.1023 15.6207 14.1959 15.5271C14.2894 15.4336 14.4086 15.3699 14.5383 15.3441C14.668 15.3183 14.8025 15.3315 14.9247 15.3822C15.0469 15.4328 15.1513 15.5185 15.2248 15.6285C15.2983 15.7384 15.3375 15.8677 15.3375 16C15.3375 16.0884 15.32 16.1758 15.286 16.2574C15.252 16.3389 15.2022 16.4129 15.1394 16.4751C15.0767 16.5373 15.0022 16.5864 14.9203 16.6197C14.8385 16.6529 14.7509 16.6696 14.6625 16.6688H14.6688Z" fill="#8B93AB"/>
<path d="M5.33125 16.6685C5.19873 16.6698 5.06882 16.6316 4.95803 16.5589C4.84723 16.4862 4.76054 16.3821 4.70897 16.2601C4.65739 16.138 4.64325 16.0033 4.66835 15.8732C4.69344 15.7431 4.75664 15.6233 4.84991 15.5292C4.94318 15.435 5.06233 15.3707 5.19222 15.3444C5.32211 15.3181 5.45689 15.3309 5.57946 15.3814C5.70202 15.4318 5.80684 15.5175 5.8806 15.6276C5.95436 15.7377 5.99375 15.8673 5.99375 15.9998C5.99375 16.1772 5.9233 16.3472 5.79788 16.4727C5.67247 16.5981 5.50237 16.6685 5.325 16.6685H5.33125Z" fill="#8B93AB"/>
</g>
<defs>
<clipPath id="clip0_1503_3362">
<rect width="20" height="20" fill="white"/>
</clipPath>
</defs>
</svg>
