<!-- icon666.com - MILLIONS vector ICONS FREE --><svg id="Capa_1" enable-background="new 0 0 512 512" viewBox="0 0 512 512" xmlns="http://www.w3.org/2000/svg"><g><g id="layer7" transform="translate(-.529 -17.464)"><g id="LINE-6" transform="translate(0 -290.65)"><path id="path338" d="m102.989 308.139c-14.14-.055-25.647 11.362-25.703 25.502v25.703c-42.116 0-76.757 34.59-76.757 76.708v307.33c0 42.116 34.641 76.707 76.757 76.707h358.535c42.116 0 76.708-34.591 76.708-76.707v-307.33c0-42.117-34.591-76.708-76.708-76.708v-25.703c-.055-14.14-11.562-25.558-25.702-25.503-.017 0-.034 0-.051 0-14.062.055-25.448 11.441-25.502 25.502v25.703h-51.205v-25.703c-.055-14.062-11.441-25.448-25.503-25.502-14.14-.055-25.647 11.362-25.702 25.502v25.703h-51.255v-25.703c-.055-14.062-11.441-25.448-25.503-25.502-14.14-.055-25.647 11.362-25.702 25.502v25.703h-51.205v-25.703c-.054-14.061-11.44-25.446-25.502-25.501zm-25.702 102.21v25.703c.028 14.14 11.512 25.58 25.652 25.553h.05c14.081-.055 25.475-11.471 25.502-25.552v-25.703h51.205v25.703c.028 14.14 11.512 25.58 25.652 25.553h.05c14.081-.055 25.475-11.471 25.503-25.552v-25.703h51.255v25.703c.027 14.14 11.512 25.58 25.652 25.553h.05c14.081-.055 25.475-11.471 25.503-25.552v-25.703h51.205v25.703c.027 14.081 11.421 25.497 25.502 25.552 14.14.083 25.669-11.312 25.752-25.452 0-.033 0-.067 0-.1v-25.703c14.443 0 25.503 11.259 25.503 25.703v76.757h-409.539v-76.757c0-14.447 11.06-25.706 25.503-25.706zm-25.503 153.665h409.54v179.368c0 14.443-11.059 25.503-25.503 25.503h-358.534c-14.443 0-25.503-11.059-25.502-25.503v-179.368z" fill="#000000" style="fill: rgb(203, 211, 235);"></path></g></g></g></svg>