<svg width="20" height="20" viewBox="0 0 20 20" fill="none" xmlns="http://www.w3.org/2000/svg">
<g clip-path="url(#clip0_2249_7513)">
<path d="M19.4141 4.70703H14.1162V3.54266C14.1162 2.23809 13.0548 1.17676 11.7503 1.17676H8.24973C6.9452 1.17676 5.88383 2.23809 5.88383 3.54266V4.70703H0.585938C0.262344 4.70703 0 4.96937 0 5.29297V15.9375C0 17.5287 1.29457 18.8232 2.88574 18.8232H17.1143C18.7054 18.8232 20 17.5287 20 15.9375V5.29297C20 4.96937 19.7377 4.70703 19.4141 4.70703ZM11.3295 12.3535C11.3295 13.0866 10.733 13.683 10 13.683C9.26695 13.683 8.67051 13.0866 8.67051 12.3535V11.024H11.3295V12.3535ZM11.9154 9.85215H8.08457C7.76098 9.85215 7.49863 10.1145 7.49863 10.4381V11.5024C4.09129 10.7629 1.53703 8.55281 1.2084 5.87891H18.7916C18.4629 8.55281 15.9087 10.7629 12.5014 11.5025V10.4381C12.5014 10.1145 12.239 9.85215 11.9154 9.85215ZM7.05566 3.54266C7.05566 2.88426 7.59133 2.34863 8.24969 2.34863H11.7503C12.4086 2.34863 12.9443 2.88426 12.9443 3.54266V4.70703H7.05562V3.54266H7.05566ZM18.8281 15.9375C18.8281 16.8825 18.0593 17.6514 17.1143 17.6514H2.88574C1.94074 17.6514 1.17188 16.8825 1.17188 15.9375V8.90055C1.64492 9.57699 2.25484 10.2016 2.99168 10.7543C4.26852 11.7119 5.8273 12.3767 7.52379 12.7047C7.69512 13.9182 8.73996 14.8548 10 14.8548C11.26 14.8548 12.3049 13.9182 12.4762 12.7047C14.1727 12.3767 15.7314 11.7119 17.0083 10.7543C17.7452 10.2016 18.3551 9.57695 18.8281 8.90055V15.9375Z" fill="#8B93AB"/>
</g>
<defs>
<clipPath id="clip0_2249_7513">
<rect width="20" height="20" fill="white"/>
</clipPath>
</defs>
</svg>
