<svg width="20" height="20" viewBox="0 0 20 20" fill="none" xmlns="http://www.w3.org/2000/svg">
<path d="M18.247 15.6495C19.3521 14.0412 20 12.0953 20 10.0007C20 4.48625 15.5145 0 10.0007 0C7.98609 0 6.1091 0.599336 4.53758 1.62824C4.50094 1.64766 4.46695 1.67016 4.4357 1.69535C1.76246 3.49238 0 6.54449 0 10.0007C0 15.5145 4.48625 20 10.0007 20C13.3704 20 16.3558 18.3245 18.1683 15.763C18.1985 15.7285 18.2246 15.6903 18.247 15.6495ZM10.0007 18.7201C5.19207 18.7201 1.27992 14.8087 1.27992 10.0007C1.27992 7.20488 2.6027 4.71242 4.65496 3.11539C4.96418 3.49781 5.3402 3.73773 5.74121 3.79672C5.81191 3.80711 5.88336 3.81199 5.95547 3.81199C6.44668 3.81199 6.96219 3.58492 7.50473 3.34605C7.71445 3.25348 7.93355 3.15676 8.15891 3.07078C8.48895 2.94461 8.65465 2.57469 8.52844 2.24469C8.40262 1.9143 8.03269 1.7493 7.70234 1.87516C7.45656 1.9691 7.21734 2.07379 6.98855 2.17469C6.60027 2.34559 6.11566 2.55602 5.92773 2.53035C5.8757 2.52262 5.80547 2.47781 5.72898 2.40023C6.93629 1.71898 8.32094 1.3168 9.79512 1.2825C9.67121 1.75609 9.51305 2.3243 9.35766 2.48906C9.15902 2.69914 8.78184 2.88355 8.44938 3.04652C7.90129 3.31449 7.33484 3.59184 7.20379 4.15934C7.15316 4.37844 7.15457 4.71957 7.45027 5.09879C7.96922 5.76473 8.90211 5.78312 9.80449 5.80113C10.3037 5.81082 10.8691 5.82191 11.1315 5.96512C11.2186 6.01262 11.2986 6.12875 11.3316 6.25391C11.3586 6.35688 11.3409 6.41578 11.3375 6.42273C11.3371 6.42309 11.318 6.43801 11.2865 6.44598C11.2362 6.44043 11.1014 6.37457 11.0123 6.3309C10.8358 6.24492 10.6354 6.14684 10.4025 6.10938C10.0894 6.05875 9.81141 6.1 9.58777 6.13297C9.46262 6.15133 9.36277 6.1659 9.25531 6.1673C9.08094 6.16695 8.88438 6.1323 8.67637 6.09555C8.21254 6.0134 7.63566 5.91148 7.04426 6.17492C6.48266 6.42488 6.00219 6.95875 5.61633 7.38793C5.52516 7.48949 5.43813 7.58621 5.35598 7.67254L5.28039 7.75156C4.41199 8.65949 3.78453 9.31539 4.54129 10.9801C4.97531 11.9345 5.42078 12.6645 6.84977 12.6645C6.85461 12.6645 6.85914 12.6645 6.86363 12.6645C7.24879 12.6631 7.60273 12.5616 7.91508 12.4721C8.02219 12.4413 8.16676 12.3997 8.27352 12.3786C8.28148 12.4323 8.28809 12.5086 8.2891 12.6136C8.29465 13.161 8.6309 13.4688 8.83199 13.6526C8.88227 13.699 8.95852 13.7687 8.96996 13.785C8.96996 13.785 8.97238 13.8065 8.95992 13.8582C8.91555 14.0409 8.85695 14.1303 8.78312 14.2433C8.57688 14.5595 8.41148 14.8975 8.64133 15.5496L8.64062 15.5503L8.65797 15.5964C8.66004 15.6019 8.66211 15.6075 8.66422 15.6134C8.66562 15.6165 8.66664 15.62 8.66805 15.623C8.71727 15.7589 8.76477 15.96 8.81539 16.1729C8.99289 16.9206 9.34512 18.4071 10.634 18.4068C10.7554 18.4068 10.8854 18.394 11.0251 18.3666C12.1396 18.1399 12.6555 16.8749 12.9966 16.0384C13.0229 15.9735 13.0538 15.8987 13.0829 15.829C13.5118 15.77 13.8265 15.613 14.0404 15.3544C14.4232 14.8899 14.3154 14.3075 14.2366 13.8818C14.2124 13.7511 14.1736 13.5437 14.1795 13.4429C14.844 13.1659 16.2043 12.5925 15.9984 11.3864C15.9076 10.8512 15.4372 10.3763 14.842 9.77512C14.3795 9.30781 13.5191 8.43836 13.691 8.11805C13.8585 7.80676 13.7416 7.41883 13.4303 7.25137C13.1197 7.08426 12.7311 7.20074 12.5636 7.51207C11.9434 8.66613 13.0462 9.77996 13.9323 10.6754C14.2321 10.9781 14.6856 11.4357 14.7365 11.601C14.7448 11.6499 14.6929 11.842 13.6747 12.2659C12.7099 12.6684 12.8905 13.645 12.9775 14.1144C13.0004 14.2385 13.0365 14.433 13.0344 14.5349C12.9834 14.5512 12.8766 14.5741 12.6797 14.5758C12.5057 14.5775 12.34 14.6493 12.22 14.7758C12.0599 14.9446 11.9607 15.1873 11.811 15.5551C11.6016 16.0675 11.2126 17.0215 10.7692 17.112C10.4898 17.1706 10.3296 17.0101 10.0613 15.8782C10.0059 15.6432 9.95281 15.4199 9.88418 15.222L9.88488 15.2216L9.86824 15.1776C9.86617 15.172 9.86441 15.1675 9.86234 15.1623C9.86199 15.1609 9.86129 15.1592 9.86094 15.1578C9.83148 15.0798 9.81898 15.032 9.81379 15.006C9.82594 14.9855 9.84012 14.9661 9.85469 14.9443C9.95523 14.7896 10.1078 14.557 10.2038 14.1601C10.3996 13.352 9.92438 12.9173 9.69594 12.7082C9.64809 12.6642 9.57078 12.6004 9.56906 12.6004C9.56488 12.199 9.5084 11.6273 9.06535 11.297C8.59457 10.9454 8.02187 11.1094 7.56219 11.2415C7.31883 11.3112 7.0668 11.3833 6.85949 11.384C6.17691 11.3781 6.0684 11.245 5.70684 10.4497C5.30816 9.57371 5.37613 9.50262 6.20535 8.63598L6.2816 8.55625C6.37207 8.4616 6.46777 8.3552 6.56797 8.24391C6.8727 7.9052 7.2516 7.48332 7.5643 7.3443C7.78719 7.24516 8.04719 7.28398 8.45352 7.35574C8.69481 7.39805 8.96762 7.44656 9.25293 7.44691C9.43977 7.44691 9.62039 7.4216 9.77398 7.39906C9.93863 7.37445 10.0808 7.35297 10.1983 7.37273C10.2441 7.38 10.3679 7.44066 10.4496 7.4809C10.7065 7.60641 11.057 7.7773 11.4668 7.71074C12.08 7.60984 12.5054 7.19906 12.6049 6.61215C12.72 5.9327 12.3501 5.17141 11.7441 4.84137C11.2071 4.54914 10.5072 4.53527 9.83016 4.52176C9.46996 4.51449 8.91875 4.50375 8.62027 4.39625C8.74336 4.32762 8.89449 4.25375 9.01199 4.19621C9.44254 3.98543 9.93066 3.7466 10.2881 3.36766C10.6868 2.94609 10.8743 2.22086 11.0733 1.45301C11.0823 1.4184 11.0913 1.38379 11.1003 1.34914C14.8463 1.82266 17.8585 4.68254 18.5633 8.35297C18.5091 8.32742 18.4441 8.29438 18.3648 8.25223C18.0427 8.08063 17.6021 7.84629 17.0942 8.01512C16.6075 8.17734 16.4245 8.62492 16.3156 8.89289C16.0445 8.70293 15.5068 8.16973 15.1127 7.72914C14.8769 7.46566 14.4723 7.44277 14.2092 7.67852C13.9461 7.91391 13.9229 8.31848 14.1586 8.58195C14.3361 8.78059 15.2492 9.78559 15.798 10.075C16.0306 10.1978 16.2511 10.2591 16.458 10.2591C16.5738 10.2591 16.6855 10.2397 16.7922 10.2012C17.2294 10.0421 17.392 9.64203 17.5005 9.37719C17.5129 9.34598 17.5289 9.3075 17.5445 9.27145C17.6128 9.3023 17.6981 9.34738 17.7625 9.38203C17.9881 9.50246 18.3241 9.68125 18.7145 9.70461C18.7178 9.80301 18.72 9.90168 18.72 10.0009C18.72 11.41 18.3837 12.7418 17.7876 13.921C17.5505 13.7314 17.1868 13.5575 16.6376 13.5289C16.069 13.4956 15.0318 13.7411 14.4695 15.7084C14.3725 16.0478 14.5694 16.4024 14.9091 16.4995C14.9677 16.5165 15.0273 16.5245 15.0855 16.5245C15.3636 16.5245 15.6198 16.3411 15.7002 16.0603C15.9262 15.2712 16.2521 14.7859 16.5704 14.8071C16.8893 14.8241 16.9895 14.9159 17.0127 14.9437C17.0456 14.9832 17.0571 15.0484 17.0592 15.1136C15.4731 17.2972 12.9002 18.7201 10.0007 18.7201Z" fill="#8B93AB"/>
</svg>
