<svg width="141" height="129" viewBox="0 0 141 129" fill="none" xmlns="http://www.w3.org/2000/svg">
<path d="M85.5 10.3L39.2 31.3" stroke="black" stroke-width="7" stroke-miterlimit="10" stroke-linecap="round" stroke-linejoin="round"/>
<path d="M73.7 5.40002L88.9 8.70002L81.2 22" stroke="black" stroke-width="7" stroke-miterlimit="10" stroke-linecap="round" stroke-linejoin="round"/>
<path d="M29.7001 126.2H15.2C12.5 126.2 10.3 124 10.3 121.3V70C10.3 67.3 12.5 65.1 15.2 65.1H29.7001C32.4001 65.1 34.6 67.3 34.6 70V121.3C34.6 124 32.4001 126.2 29.7001 126.2Z" fill="black"/>
<path d="M74.6001 126.2H53.5001C50.8001 126.2 48.6001 124 48.6001 121.3V53.5C48.6001 50.8 50.8001 48.6 53.5001 48.6H74.6001C77.3001 48.6 79.5001 50.8 79.5001 53.5V121.3C79.5001 124 77.3001 126.2 74.6001 126.2Z" fill="black"/>
<path d="M125.4 126.2H98.4C95.7 126.2 93.5 124 93.5 121.3V38.6C93.5 35.9 95.7 33.7 98.4 33.7H125.4C128.1 33.7 130.3 35.9 130.3 38.6V121.3C130.3 124 128.2 126.2 125.4 126.2Z" fill="black"/>
</svg>
