<svg width="30" height="30" viewBox="0 0 30 30" fill="none" xmlns="http://www.w3.org/2000/svg">
<path d="M2.69062 26.7746C2.22643 26.7721 1.78194 26.5866 1.4537 26.2584C1.12546 25.9302 0.939963 25.4857 0.9375 25.0215V10.6027C0.939975 9.64126 1.32302 8.71987 2.00289 8.04C2.68276 7.36013 3.60415 6.97708 4.56562 6.97461H21.675C22.6381 6.97461 23.5619 7.35655 24.2438 8.03669C24.9257 8.71683 25.31 9.63963 25.3125 10.6027V20.2121C25.3125 21.1752 24.9306 22.099 24.2504 22.7809C23.5703 23.4628 22.6475 23.8471 21.6844 23.8496H7.41562C7.25356 23.8509 7.09606 23.9034 6.96562 23.9996L3.75 26.4277C3.44339 26.6543 3.07187 26.776 2.69062 26.7746ZM4.56562 8.84961C4.10143 8.85207 3.65694 9.03757 3.3287 9.36581C3.00046 9.69405 2.81496 10.1385 2.8125 10.6027V24.7871L5.84062 22.4996C6.29625 22.1612 6.84809 21.9773 7.41562 21.9746H21.675C22.1424 21.9746 22.5907 21.7889 22.9213 21.4584C23.2518 21.1278 23.4375 20.6795 23.4375 20.2121V10.6027C23.435 10.1385 23.2495 9.69405 22.9213 9.36581C22.5931 9.03757 22.1486 8.85207 21.6844 8.84961H4.56562Z" fill="url(#paint0_linear_2128_7004)"/>
<path d="M16.8188 16.4336C17.3366 16.4336 17.7563 16.0139 17.7563 15.4961C17.7563 14.9783 17.3366 14.5586 16.8188 14.5586C16.3011 14.5586 15.8813 14.9783 15.8813 15.4961C15.8813 16.0139 16.3011 16.4336 16.8188 16.4336Z" fill="url(#paint1_linear_2128_7004)"/>
<path d="M13.1812 16.4336C13.6989 16.4336 14.1187 16.0139 14.1187 15.4961C14.1187 14.9783 13.6989 14.5586 13.1812 14.5586C12.6634 14.5586 12.2437 14.9783 12.2437 15.4961C12.2437 16.0139 12.6634 16.4336 13.1812 16.4336Z" fill="url(#paint2_linear_2128_7004)"/>
<path d="M9.43115 16.4336C9.94892 16.4336 10.3687 16.0139 10.3687 15.4961C10.3687 14.9783 9.94892 14.5586 9.43115 14.5586C8.91339 14.5586 8.49365 14.9783 8.49365 15.4961C8.49365 16.0139 8.91339 16.4336 9.43115 16.4336Z" fill="url(#paint3_linear_2128_7004)"/>
<path d="M28.125 17.2871C27.8764 17.2871 27.6379 17.1883 27.4621 17.0125C27.2863 16.8367 27.1875 16.5982 27.1875 16.3496V6.85273C27.185 6.38853 26.9995 5.94405 26.6713 5.61581C26.3431 5.28757 25.8986 5.10207 25.4344 5.09961H6.5625C6.31386 5.09961 6.0754 5.00084 5.89959 4.82502C5.72377 4.64921 5.625 4.41075 5.625 4.16211C5.625 3.91347 5.72377 3.67501 5.89959 3.4992C6.0754 3.32338 6.31386 3.22461 6.5625 3.22461H25.4344C26.3959 3.22708 27.3172 3.61013 27.9971 4.29C28.677 4.96986 29.06 5.89126 29.0625 6.85273V16.3496C29.0625 16.5982 28.9637 16.8367 28.7879 17.0125C28.6121 17.1883 28.3736 17.2871 28.125 17.2871Z" fill="url(#paint4_linear_2128_7004)"/>
<defs>
<linearGradient id="paint0_linear_2128_7004" x1="0.9375" y1="20.3983" x2="25.0025" y2="19.897" gradientUnits="userSpaceOnUse">
<stop stop-color="#679FEF"/>
<stop offset="1" stop-color="#A87FFF"/>
</linearGradient>
<linearGradient id="paint1_linear_2128_7004" x1="15.8813" y1="15.8298" x2="17.7328" y2="15.7985" gradientUnits="userSpaceOnUse">
<stop stop-color="#679FEF"/>
<stop offset="1" stop-color="#A87FFF"/>
</linearGradient>
<linearGradient id="paint2_linear_2128_7004" x1="12.2437" y1="15.8298" x2="14.0951" y2="15.7985" gradientUnits="userSpaceOnUse">
<stop stop-color="#679FEF"/>
<stop offset="1" stop-color="#A87FFF"/>
</linearGradient>
<linearGradient id="paint3_linear_2128_7004" x1="8.49365" y1="15.8298" x2="10.3451" y2="15.7985" gradientUnits="userSpaceOnUse">
<stop stop-color="#679FEF"/>
<stop offset="1" stop-color="#A87FFF"/>
</linearGradient>
<linearGradient id="paint4_linear_2128_7004" x1="5.625" y1="12.7585" x2="28.756" y2="12.1061" gradientUnits="userSpaceOnUse">
<stop stop-color="#679FEF"/>
<stop offset="1" stop-color="#A87FFF"/>
</linearGradient>
</defs>
</svg>
