<svg width="25" height="25" viewBox="0 0 25 25" fill="none" xmlns="http://www.w3.org/2000/svg">
<path d="M21.875 11.7188H16.4062C14.6922 11.7188 13.2812 13.1297 13.2812 14.8438C13.2812 16.5578 14.6922 17.9688 16.4062 17.9688H19.5312V20.3125C19.5312 20.7414 19.1789 21.0938 18.75 21.0938H6.25C4.96406 21.0938 3.90625 20.0359 3.90625 18.75V7.03125C3.90625 5.74531 4.96406 4.6875 6.25 4.6875H7.8125C8.24141 4.6875 8.59375 4.33516 8.59375 3.90625C8.59375 3.47734 8.24141 3.125 7.8125 3.125H6.25C4.10703 3.125 2.34375 4.88828 2.34375 7.03125V18.75C2.34375 20.893 4.10703 22.6562 6.25 22.6562H18.75C20.0359 22.6562 21.0938 21.5984 21.0938 20.3125V17.9688H21.875C22.3039 17.9688 22.6562 17.6164 22.6562 17.1875V12.5C22.6562 12.0711 22.3039 11.7188 21.875 11.7188ZM21.0938 16.4062H16.4062C15.5492 16.4062 14.8438 15.7008 14.8438 14.8438C14.8438 13.9867 15.5492 13.2812 16.4062 13.2812H21.0938V16.4062Z" fill="#8B93AB"/>
<path d="M5.96876 6.30434C5.09689 6.68481 5.38517 7.81216 6.25001 7.81216H18.75C19.1789 7.81216 19.5313 8.1645 19.5313 8.59341V9.37466C19.5313 9.80356 19.8836 10.1559 20.3125 10.1559C20.7414 10.1559 21.0938 9.80356 21.0938 9.37466V8.59341C21.093 7.97231 20.8461 7.37622 20.4063 6.93716C19.9672 6.49731 19.3711 6.25044 18.75 6.24966H18.5L17.1328 2.83559C16.9742 2.44106 16.5211 2.24419 16.125 2.39809L5.96876 6.30434ZM16.8125 6.24966H10.461L15.9688 4.13247L16.8125 6.24966Z" fill="#8B93AB"/>
</svg>
