<svg width="25" height="25" viewBox="0 0 25 25" fill="none" xmlns="http://www.w3.org/2000/svg">
<path d="M19.8392 8.16748C23.4323 12.8166 22.8387 19.3062 18.9525 22.6807C15.3903 25.7731 9.61037 25.7731 6.04812 22.6807C2.16085 19.3057 1.56777 12.8139 5.16366 8.16476C5.51593 7.70924 6.26381 7.70126 6.59724 8.33786C6.98413 9.07038 8.09485 8.83923 8.17408 8.01446C8.46117 5.02087 9.28871 2.52957 11.146 0.305562C11.6278 -0.271235 12.5763 0.0168922 12.6381 0.765698C12.6848 1.32296 12.8243 1.90301 13.1167 2.46136C13.6962 3.56612 14.5112 3.82495 15.2948 4.76258C15.8683 5.44899 16.4901 6.51197 16.762 8.20112C16.8852 8.9662 17.8982 9.17023 18.3068 8.51149C18.347 8.44692 18.3855 8.3791 18.4224 8.30747C18.7062 7.75835 19.461 7.67858 19.8392 8.16748Z" fill="#FE4F60"/>
<path d="M16.1399 14.9478C17.0016 16.5436 16.7748 18.567 15.5013 19.8715C13.6846 21.7316 10.6981 21.1428 9.37789 19.6604C8.30677 18.458 8.46467 16.8182 8.53304 16.1058C8.69691 14.402 9.52114 13.0449 10.3926 12.0573C10.8701 11.5163 11.7524 11.9591 11.6113 12.6667C11.3915 13.7687 11.531 14.7118 12.0649 15.2945C12.9187 16.227 14.142 16.0957 14.9299 14.9039C15.2251 14.4567 15.8854 14.4768 16.1399 14.9478Z" fill="#FFE773"/>
<path d="M12.1497 2.52794C11.8665 2.9152 11.6139 3.35027 11.415 3.83797C10.6738 5.65681 11.3298 6.61614 10.6011 8.39591C9.74104 10.4958 8.36877 10.2777 7.0741 12.1942C6.11877 13.6084 5.70151 15.6824 5.9217 17.8718C6.08481 19.4935 3.78603 19.9908 3.28525 18.4397C2.22 15.1401 2.80656 11.2121 5.16351 8.16476C5.51577 7.70924 6.26452 7.70153 6.59709 8.33785C6.98397 9.07038 8.0947 8.83923 8.17392 8.01445C8.46101 5.02081 9.28866 2.52946 11.1458 0.305562C11.6276 -0.271235 12.5761 0.0168923 12.638 0.765697C12.6932 1.43127 12.5056 2.04111 12.1497 2.52794Z" fill="#FF6D7A"/>
<path d="M12.0353 20.9938C10.9873 20.8521 10.0026 20.361 9.37789 19.6596C8.30677 18.4571 8.46467 16.8174 8.53304 16.1049C8.67928 14.5844 9.4016 13.1397 10.4021 12.0459C10.7729 11.6405 11.4256 12.0909 11.1837 12.5843C10.3099 14.3661 10.3934 15.4947 10.7366 16.2363C11.3968 17.6619 13.1047 17.8388 13.5039 19.3292C13.7531 20.2587 12.9652 21.1196 12.0353 20.9938Z" fill="#FFF0A6"/>
</svg>
