<svg width="32" height="32" viewBox="0 0 32 32" fill="none" xmlns="http://www.w3.org/2000/svg">
<path d="M31.7966 15.3772C31.5108 14.9861 24.6993 5.80176 15.9998 5.80176C7.30039 5.80176 0.488626 14.9861 0.203063 15.3768C-0.0676876 15.7478 -0.0676876 16.251 0.203063 16.622C0.488626 17.013 7.30039 26.1974 15.9998 26.1974C24.6993 26.1974 31.5108 17.013 31.7966 16.6223C32.0678 16.2513 32.0678 15.7478 31.7966 15.3772ZM15.9998 24.0875C9.59177 24.0875 4.0417 17.9917 2.39875 15.9988C4.03957 14.0043 9.57802 7.91164 15.9998 7.91164C22.4076 7.91164 27.9573 14.0064 29.6009 16.0003C27.9601 17.9948 22.4217 24.0875 15.9998 24.0875Z" fill="url(#paint0_linear_2128_7011)"/>
<path d="M15.9996 9.66992C12.5095 9.66992 9.66992 12.5095 9.66992 15.9996C9.66992 19.4898 12.5095 22.3293 15.9996 22.3293C19.4898 22.3293 22.3293 19.4898 22.3293 15.9996C22.3293 12.5095 19.4898 9.66992 15.9996 9.66992ZM15.9996 20.2194C13.6727 20.2194 11.7799 18.3264 11.7799 15.9996C11.7799 13.6728 13.6728 11.7799 15.9996 11.7799C18.3264 11.7799 20.2194 13.6728 20.2194 15.9996C20.2194 18.3264 18.3265 20.2194 15.9996 20.2194Z" fill="url(#paint1_linear_2128_7011)"/>
<defs>
<linearGradient id="paint0_linear_2128_7011" x1="1.23774e-07" y1="19.6293" x2="31.5844" y2="18.7907" gradientUnits="userSpaceOnUse">
<stop stop-color="#679FEF"/>
<stop offset="1" stop-color="#A87FFF"/>
</linearGradient>
<linearGradient id="paint1_linear_2128_7011" x1="9.66992" y1="18.2526" x2="22.1701" y2="18.041" gradientUnits="userSpaceOnUse">
<stop stop-color="#679FEF"/>
<stop offset="1" stop-color="#A87FFF"/>
</linearGradient>
</defs>
</svg>
