<?xml version="1.0" encoding="utf-8"?>
<!-- Generator: Adobe Illustrator 26.0.3, SVG Export Plug-In . SVG Version: 6.00 Build 0)  -->
<svg version="1.1" id="Слой_1" xmlns="http://www.w3.org/2000/svg" xmlns:xlink="http://www.w3.org/1999/xlink" x="0px" y="0px"
	 viewBox="0 0 140.6 129" style="enable-background:new 0 0 140.6 129;" xml:space="preserve">
<style type="text/css">
	.st1{fill: #ffffff}
</style>
<line class="st0" x1="26.9" y1="52.4" x2="92.9" y2="52.4"/>
<line class="st0" x1="26.9" y1="67.7" x2="92.9" y2="67.6"/>
<line class="st0" x1="26.9" y1="82.1" x2="92.9" y2="82.1"/>
<path class="st1" d="M121.3,9.6H37.7c-8.8,0-16,7.2-16,16h-2.2c-8.8,0-16,7.2-16,16V95c0,9,7.3,16.3,16.3,16.3h67.5V122
	c0,1.1,0.7,2.2,1.8,2.7c0.4,0.2,0.8,0.3,1.2,0.3c0.8,0,1.5-0.3,2-0.8l15-13.4c6.8-1.8,11.8-8,11.7-15.3v-0.3h1.9
	c8.9,0,16.2-7.2,16.2-16.1V25.4C137.1,16.7,130,9.6,121.3,9.6z M112.1,95.5c0,4.9-3.9,8.8-8.8,8.8H19.9c-5.1,0-9.3-4.2-9.3-9.3V41.6
	c0-5,4-9,9-9h83.6c4.9,0,8.9,4,8.9,8.9V95.5z M130,79.1c0,5.1-4,9.1-9.1,9.1H119V41.5c0-8.8-7.1-15.9-15.9-15.9H28.7c0-5,4-9,9-9
	h83.5c4.9,0,8.8,3.9,8.8,8.8V79.1z M38.8,75.1c-3.6,0-6.5-2.9-6.5-6.5s2.9-6.5,6.5-6.5s6.5,2.9,6.5,6.5S42.4,75.1,38.8,75.1z
	 M61.3,75.1c-3.6,0-6.5-2.9-6.5-6.5s2.9-6.5,6.5-6.5c3.6,0,6.5,2.9,6.5,6.5S64.9,75.1,61.3,75.1z M83.3,75.1c-3.6,0-6.5-2.9-6.5-6.5
	s2.9-6.5,6.5-6.5s6.5,2.9,6.5,6.5S86.9,75.1,83.3,75.1z"/>
</svg>
