<?xml version="1.0" encoding="utf-8"?>
<!-- Generator: Adobe Illustrator 26.0.3, SVG Export Plug-In . SVG Version: 6.00 Build 0)  -->
<svg version="1.1" id="Слой_1" xmlns="http://www.w3.org/2000/svg" xmlns:xlink="http://www.w3.org/1999/xlink" x="0px" y="0px"
	 viewBox="0 0 140.6 129" style="enable-background:new 0 0 140.6 129;" xml:space="preserve">
<style type="text/css">
	.st0{display:none;}
	.st1{display:inline;}
	.st2{fill:none;stroke:#ADADBC;stroke-width:7;stroke-linecap:round;stroke-linejoin:round;stroke-miterlimit:10;}
</style>
<g class="st0">
	<path class="st1" d="M114.2,60c-0.5,0-1-0.3-1.1-0.8c-2.8-9.1-8.7-17.3-16.5-22.9c-0.5-0.4-0.7-1.1-0.3-1.7
		c0.4-0.5,1.1-0.7,1.7-0.3c8.2,5.9,14.4,14.5,17.4,24.1c0.2,0.6-0.2,1.3-0.8,1.5C114.4,60,114.3,60,114.2,60z"/>
	<path class="st1" d="M26.7,60c-0.1,0-0.2,0-0.4-0.1c-0.6-0.2-1-0.9-0.8-1.5c3-9.6,9.2-18.2,17.4-24.2c0.5-0.4,1.3-0.3,1.7,0.3
		c0.4,0.5,0.3,1.3-0.3,1.7C36.5,41.8,30.6,50,27.8,59.1C27.7,59.7,27.3,60,26.7,60z"/>
	<path class="st1" d="M70.5,119.4c-13.8,0-26.8-6-35.7-16.5c-0.4-0.5-0.4-1.3,0.1-1.7c0.5-0.4,1.3-0.4,1.7,0.1
		c8.5,9.9,20.8,15.6,33.9,15.6s25.4-5.7,33.9-15.6c0.4-0.5,1.2-0.6,1.7-0.1c0.5,0.4,0.6,1.2,0.1,1.7
		C97.2,113.4,84.2,119.4,70.5,119.4z"/>
	<g class="st1">
		<path d="M109.1,78.6c0.2,0,0.3,0.1,0.5,0.2l13.7,10.1c0.5,0.4,0.6,1,0.2,1.5s-1,0.6-1.5,0.2L108.9,81l-12.8,9
			c-0.5,0.3-1.2,0.2-1.5-0.3s-0.2-1.2,0.3-1.5l13.4-9.5l0.3-0.2C108.9,78.6,108.7,78.6,109.1,78.6z"/>
		<path d="M125.4,79.8c0.2,0,0.3,0.1,0.5,0.2l9.6,7.1c0.5,0.4,0.6,1,0.2,1.5c-0.4,0.5-1,0.6-1.5,0.2l-9-6.6l-6.9,4.9
			c-0.5,0.3-1.2,0.2-1.5-0.3s-0.2-1.2,0.3-1.5l7.5-5.3l0.3-0.2C125.2,79.8,125,79.8,125.4,79.8z"/>
		<path d="M117.3,71.1c2.5,0,4.5,2,4.5,4.5s-2,4.5-4.5,4.5s-4.5-2-4.5-4.5S114.9,71.1,117.3,71.1z M117.3,73.3c-1.3,0-2.3,1-2.3,2.3
			s1,2.3,2.3,2.3s2.3-1,2.3-2.3S118.6,73.3,117.3,73.3z"/>
		<path d="M130.8,65.5c3.2,0,5.7,2.6,5.7,5.7v20.2c0,3.1-2.5,5.7-5.7,5.7h-4c-0.2,0-0.2,0-0.3,0H99.7c-3.3,0-5.9-2.6-5.9-5.9v-20
			c0-3.2,2.6-5.8,5.8-5.8h31.2V65.5z M130.8,67.7H99.5c-2,0-3.6,1.6-3.6,3.6v19.9c0,2.1,1.7,3.7,3.7,3.7h27.2c0.2,0,0.2,0,0.3,0h3.7
			c1.9,0,3.5-1.6,3.5-3.5V71.2C134.3,69.3,132.7,67.7,130.8,67.7z"/>
	</g>
	<path class="st1" d="M86.3,10.6c3.2,0,5.8,2.6,5.8,5.8v20.5c0,3.2-2.6,5.8-5.8,5.8h-4c-0.2,0-0.2,0-0.3,0H54.8c-3.3,0-6-2.6-6-6
		V16.5c0-3.2,2.6-5.8,5.8-5.8L86.3,10.6L86.3,10.6z M86.3,12.8H54.6c-2,0-3.6,1.6-3.6,3.6v20.2c0,2.1,1.7,3.7,3.8,3.7h27.6
		c0.2,0,0.2,0,0.3,0h3.8c2,0,3.6-1.6,3.6-3.6V16.4C89.9,14.4,88.3,12.8,86.3,12.8z"/>
	<path class="st1" d="M65.7,36.4c-0.5,0-1-0.1-1.4-0.4c-0.9-0.5-1.4-1.5-1.4-2.5V20.9c0-1,0.5-2,1.4-2.5c0.9-0.5,2-0.5,2.9,0
		l10.9,6.3c0.9,0.5,1.4,1.5,1.4,2.5s-0.5,2-1.4,2.5L67.2,36C66.7,36.2,66.2,36.4,65.7,36.4z M65.7,20.2c-0.2,0-0.3,0.1-0.4,0.1
		c0,0-0.3,0.2-0.3,0.6v12.6c0,0.4,0.2,0.5,0.4,0.6c0.1,0.1,0.4,0.2,0.7,0L77,27.8c0.3-0.2,0.4-0.5,0.4-0.6c0-0.1,0-0.4-0.4-0.6
		l-10.9-6.3C66,20.2,65.8,20.2,65.7,20.2z"/>
	<path class="st1" d="M29.1,88.6c-0.6,0-1.1-0.1-1.6-0.3c-0.9-0.4-1.5-1.1-1.7-1.9c-0.4-1.6,0.9-3.3,2.9-3.7l0,0
		c2-0.5,3.9,0.4,4.3,2.1c0.2,0.8-0.1,1.7-0.7,2.4c-0.6,0.6-1.4,1.1-2.3,1.3C29.8,88.6,29.5,88.6,29.1,88.6z M29.3,84.6
		c-1,0.2-1.6,0.9-1.5,1.4c0.1,0.3,0.4,0.4,0.5,0.5c0.4,0.2,0.9,0.2,1.4,0.1s0.9-0.4,1.2-0.7c0.1-0.1,0.3-0.4,0.2-0.7
		C31.1,84.7,30.2,84.4,29.3,84.6L29.3,84.6z"/>
	<rect x="19.5" y="76" transform="matrix(0.9744 -0.2247 0.2247 0.9744 -16.6368 7.7903)" class="st1" width="12.8" height="2"/>
	<path class="st1" d="M18.6,88.3l-0.3-12.4c0-1,0.7-1.9,1.7-2.2l10.5-2.3c0.6-0.1,1.3,0,1.8,0.4c0.5,0.4,0.8,1,0.8,1.7l0.1,11.9h-2
		l-0.1-11.9c0-0.1,0-0.1-0.1-0.2c0,0-0.1-0.1-0.2,0l-10.5,2.3c-0.1,0-0.2,0.1-0.2,0.2l0.3,12.4L18.6,88.3z"/>
	<path class="st1" d="M16.5,91.5c-1.6,0-2.9-0.9-3.2-2.2c-0.2-0.8,0.1-1.7,0.7-2.4c0.6-0.6,1.4-1.1,2.3-1.3l0,0
		c0.9-0.2,1.8-0.1,2.6,0.2c0.9,0.4,1.5,1.1,1.7,1.9c0.4,1.6-0.9,3.3-2.9,3.7C17.2,91.5,16.8,91.5,16.5,91.5z M17.2,87.5
		c-0.2,0-0.4,0-0.6,0.1l0,0c-0.5,0.1-0.9,0.4-1.2,0.7c-0.1,0.1-0.3,0.4-0.2,0.7c0.1,0.5,1,0.8,1.9,0.6c1-0.2,1.6-0.9,1.5-1.4
		c-0.1-0.3-0.4-0.4-0.5-0.5C17.8,87.5,17.5,87.5,17.2,87.5z"/>
	<path class="st1" d="M41.6,65c3.2,0,5.8,2.6,5.8,5.8v20.5c0,3.2-2.6,5.8-5.8,5.8h-4c-0.2,0-0.2,0-0.3,0H10.1c-3.3,0-6-2.6-6-6V70.9
		c0-3.2,2.6-5.8,5.8-5.8L41.6,65L41.6,65z M41.6,67.2H9.9c-2,0-3.6,1.6-3.6,3.6V91c0,2.1,1.7,3.7,3.8,3.7h27.6c0.2,0,0.2,0,0.3,0
		h3.8c2,0,3.6-1.6,3.6-3.6V70.8C45.2,68.9,43.6,67.2,41.6,67.2z"/>
</g>
<g>
	<line class="st2" x1="91.9" y1="5" x2="25.4" y2="64.5"/>
	<line class="st2" x1="91.9" y1="124" x2="25.4" y2="64.5"/>
</g>
</svg>
