<svg width="11" height="8" viewBox="0 0 11 8" fill="none" xmlns="http://www.w3.org/2000/svg">
<path d="M10.2492 1.10434L9.33341 0.188526C9.20784 0.0628579 9.05512 0 8.8756 0C8.69592 0 8.5432 0.0628579 8.41762 0.188526L4.00002 4.6128L2.0202 2.62623C1.89449 2.50052 1.74186 2.43773 1.56234 2.43773C1.38271 2.43773 1.23008 2.50052 1.10436 2.62623L0.18855 3.54207C0.0628343 3.66776 0 3.82044 0 4.00005C0 4.17952 0.0628343 4.33233 0.18855 4.458L2.62623 6.89564L3.54212 7.81145C3.66776 7.93721 3.82044 8 4.00002 8C4.17954 8 4.33222 7.93705 4.45793 7.81145L5.37379 6.89564L10.2492 2.02023C10.3748 1.89451 10.4378 1.74186 10.4378 1.56225C10.4379 1.38273 10.3748 1.23006 10.2492 1.10434Z" fill="#2B3040"/>
</svg>
