<svg width="442" height="329" viewBox="0 0 442 329" fill="none" xmlns="http://www.w3.org/2000/svg">
<path d="M19.5109 199.442L19.5107 199.442C3.12637 183.47 2.79214 157.242 18.7609 140.856C34.7314 124.47 60.96 124.139 77.3452 140.106L77.3461 140.106L154.101 214.925C189.218 166.343 257.792 86.8849 370.796 14.5417L370.796 14.5413C390.071 2.20447 415.689 7.82805 428.023 27.0966L19.5109 199.442ZM19.5109 199.442L132.505 309.584C140.303 317.187 150.705 321.347 161.422 321.347C163.592 321.347 165.778 321.178 167.962 320.827C180.894 318.761 192.086 310.702 198.147 299.095L198.147 299.095M19.5109 199.442L198.147 299.095M198.147 299.095C198.144 299.101 198.385 298.645 198.886 297.749C199.38 296.865 200.12 295.566 201.114 293.885C203.101 290.522 206.103 285.631 210.189 279.46C218.359 267.117 230.861 249.663 248.242 229.094C283.006 187.957 337.279 134.382 415.469 84.3255C434.739 71.9894 440.361 46.3675 428.024 27.0973L198.147 299.095Z" fill="#A5EB78" stroke="black" stroke-width="14" stroke-miterlimit="1" stroke-linecap="round"/>
</svg>
