<svg width="284" height="334" viewBox="0 0 284 334" fill="none" xmlns="http://www.w3.org/2000/svg">
<g opacity="0.1">
<mask id="mask0_221_2457" style="mask-type:alpha" maskUnits="userSpaceOnUse" x="0" y="0" width="284" height="335">
<rect x="283.5" y="0.500366" width="333" height="283" transform="rotate(90 283.5 0.500366)" fill="url(#paint0_linear_221_2457)" stroke="#DDD6FF"/>
</mask>
<g mask="url(#mask0_221_2457)">
<path d="M-68.8146 556.189C-138.147 556.189 -194.354 499.904 -194.354 430.471C-194.354 361.038 -138.147 304.753 -68.8146 304.753C0.518269 304.753 56.7249 361.038 56.7248 430.471C56.7248 499.904 0.518258 556.189 -68.8146 556.189Z" stroke="#DDD6FF"/>
<path d="M-55.5472 561.171C-133.123 561.171 -196.012 498.194 -196.012 420.506C-196.012 342.819 -133.123 279.842 -55.5472 279.842C22.0289 279.842 84.918 342.819 84.918 420.506C84.918 498.194 22.0289 561.171 -55.5472 561.171Z" stroke="#DDD6FF"/>
<path d="M-44.7676 566.154C-129.671 566.154 -198.5 497.228 -198.5 412.203C-198.5 327.178 -129.671 258.252 -44.7676 258.252C40.1358 258.252 108.965 327.178 108.965 412.203C108.965 497.228 40.1358 566.154 -44.7676 566.154Z" stroke="#DDD6FF"/>
<path d="M-29.0123 569.475C-120.327 569.475 -194.354 495.345 -194.354 403.899C-194.354 312.453 -120.327 238.323 -29.0123 238.323C62.3026 238.323 136.329 312.453 136.329 403.899C136.329 495.345 62.3026 569.475 -29.0123 569.475Z" stroke="#DDD6FF"/>
<path d="M-13.6721 572.797C-111.169 572.796 -190.208 493.647 -190.208 396.01C-190.208 298.373 -111.169 219.224 -13.6721 219.224C83.8252 219.224 162.864 298.373 162.864 396.01C162.864 493.647 83.8251 572.797 -13.6721 572.797Z" stroke="#DDD6FF"/>
<path d="M3.74119 576.949C-103.373 576.949 -190.208 489.992 -190.208 382.725C-190.208 275.457 -103.373 188.5 3.74121 188.5C110.856 188.5 197.69 275.457 197.69 382.725C197.69 489.992 110.856 576.949 3.74119 576.949Z" stroke="#DDD6FF"/>
</g>
</g>
<defs>
<linearGradient id="paint0_linear_221_2457" x1="520.886" y1="7.96831" x2="413.042" y2="327.546" gradientUnits="userSpaceOnUse">
<stop stop-color="#747DEF"/>
<stop offset="1" stop-color="#5E3BE1"/>
</linearGradient>
</defs>
</svg>
