<svg width="36" height="38" viewBox="0 0 36 38" fill="none" xmlns="http://www.w3.org/2000/svg">
<path d="M22.7071 7.97349C22.3499 7.97349 22.0271 8.10899 21.7742 8.32547L21.7609 8.31204L10.3663 19.8133C9.07503 21.1209 8.5456 22.3966 8.53881 24.2178C8.53881 25.6421 9.05845 26.9234 10.0017 27.8256C10.9758 28.757 12.3288 29.2494 13.9148 29.2491H13.9481C15.5991 29.2416 17.1439 28.5836 18.2967 27.3981L31.5182 14.0099C34.8669 10.6178 34.9548 5.78353 31.7272 2.51422C30.1264 0.892958 27.995 0 25.7257 0C23.4563 0 21.3256 0.892958 19.7259 2.51434L3.1663 19.2844C-1.05543 23.5604 -1.05543 30.5182 3.1663 34.7943C5.20809 36.8617 7.92696 38 10.822 38C13.7171 38 16.4362 36.8617 18.4788 34.7939L35.6222 17.3689C35.6222 17.3689 36 16.9928 36 16.3583C36 15.5454 35.3492 14.8863 34.5466 14.8863C34.1652 14.8863 33.8206 15.0385 33.5613 15.2821L33.5568 15.2776L16.4132 32.7029C14.9221 34.2124 12.9363 35.0438 10.8217 35.0438C8.70711 35.0438 6.72167 34.2124 5.23108 32.7029C2.14793 29.579 2.14793 24.4978 5.23108 21.376L21.7907 4.60622C22.84 3.54342 24.2375 2.95823 25.7257 2.95823C27.2139 2.95823 28.6122 3.54367 29.6624 4.60622C30.7097 5.66695 31.2361 6.92706 31.1851 8.25085C31.1347 9.55367 30.5361 10.8219 29.4534 11.9184L16.2041 25.3349C15.5985 25.9493 14.7931 26.289 13.9378 26.2911C12.3107 26.2911 11.4595 25.2528 11.4595 24.2285C11.4627 23.363 11.7978 22.5477 12.4035 21.9333L23.8259 10.4039L23.8129 10.3908C24.0266 10.1346 24.1605 9.80774 24.1605 9.4459C24.1606 8.63236 23.5097 7.97349 22.7071 7.97349Z" fill="white"/>
</svg>
