<svg width="10" height="10" viewBox="0 0 10 10" fill="none" xmlns="http://www.w3.org/2000/svg">
<path d="M9.47473 2.09105L6.56598 5.0001L9.47473 7.90901C9.90739 8.34183 9.90739 9.04295 9.47473 9.47578C9.25855 9.69196 8.97513 9.80013 8.69184 9.80013C8.40808 9.80013 8.12463 9.69212 7.90862 9.47578L4.99924 6.56654L2.09008 9.47575C1.87393 9.69193 1.59047 9.8001 1.30694 9.8001C1.02348 9.8001 0.740225 9.6921 0.52388 9.47575C0.0912187 9.04312 0.0912187 8.34197 0.52388 7.90898L3.43254 5.00007L0.523715 2.09105C0.0910534 1.65839 0.0910534 0.957104 0.523715 0.524443C0.956294 0.0921127 1.65717 0.0921127 2.08991 0.524443L4.99921 3.43349L7.90829 0.524443C8.34111 0.0921127 9.04207 0.0921127 9.47456 0.524443C9.90739 0.957104 9.90739 1.65839 9.47473 2.09105Z" fill="white"/>
</svg>
