<svg width="72" height="72" viewBox="0 0 72 72" fill="none" xmlns="http://www.w3.org/2000/svg">
<path d="M36 68C53.6731 68 68 53.6731 68 36C68 18.3269 53.6731 4 36 4C18.3269 4 4 18.3269 4 36C4 53.6731 18.3269 68 36 68Z" stroke="#EB3148" stroke-width="7" stroke-miterlimit="10" stroke-linecap="round" stroke-linejoin="round"/>
<path d="M31.7405 40.6322C31.7405 39.5141 31.9002 38.5557 32.1664 37.757C32.4859 36.9584 32.9651 36.2129 33.7105 35.574C34.7754 34.5624 35.7338 33.6572 36.5857 32.9118C37.4909 32.1664 38.2363 31.4742 38.8752 30.782C39.5142 30.1431 39.9934 29.5041 40.3661 28.9184C40.7388 28.3327 40.8985 27.7471 40.8985 27.1081C40.8985 25.8835 40.5258 24.9251 39.7271 24.1797C38.9817 23.4875 37.9701 23.1148 36.7987 23.1148C35.0416 23.1148 33.7105 23.594 32.7521 24.6056C31.8469 25.564 31.3145 26.7887 31.208 28.173L22.5291 27.5873C22.9551 23.594 24.3927 20.559 26.9484 18.4825C29.4509 16.406 32.6989 15.3411 36.639 15.3411C38.3428 15.3411 39.9934 15.554 41.5375 16.0332C43.0816 16.5124 44.4127 17.2046 45.584 18.163C46.7554 19.1214 47.6606 20.2928 48.3528 21.6772C49.045 23.0615 49.3644 24.6589 49.3644 26.4692C49.3644 27.5341 49.2579 28.5457 49.0449 29.4509C48.832 30.356 48.4593 31.208 47.8736 32.0599C47.3411 32.9118 46.5957 33.8169 45.7438 34.6689C44.8386 35.574 43.7205 36.5324 42.3894 37.5973C41.5375 38.2895 40.9518 38.9284 40.6323 39.5674C40.3128 40.2063 40.2063 40.8452 40.2063 41.4842V43.0815H31.7405V40.6322ZM30.7821 51.4409C30.7821 50.7487 30.8885 50.0565 31.1548 49.4176C31.421 48.7787 31.7937 48.2462 32.2729 47.767C32.7521 47.2878 33.2846 46.9151 33.9235 46.6489C34.5624 46.3827 35.2546 46.2762 35.9468 46.2762C36.639 46.2762 37.3311 46.3827 37.9701 46.6489C38.609 46.9151 39.1415 47.2878 39.6207 47.767C40.0999 48.2462 40.4726 48.7787 40.7388 49.4176C41.005 50.0565 41.1115 50.7487 41.1115 51.4409C41.1115 52.1331 41.005 52.8253 40.7388 53.4642C40.4726 54.1031 40.0999 54.6356 39.6207 55.1148C39.1415 55.594 38.609 55.9667 37.9701 56.2329C37.3311 56.4991 36.639 56.6056 35.9468 56.6056C35.2546 56.6056 34.5624 56.4991 33.9235 56.2329C33.2846 55.9667 32.7521 55.594 32.2729 55.1148C31.7937 54.6356 31.421 54.1031 31.1548 53.4642C30.9418 52.8253 30.7821 52.1331 30.7821 51.4409Z" fill="#EB3148"/>
<path d="M30.0899 44.4125C30.3028 44.1996 30.4093 43.8801 30.4093 43.5606V40.4724C30.4093 40.153 30.4093 39.8335 30.4626 39.5673C30.4626 39.3011 30.1431 39.1413 29.9834 39.3543L12.04 57.8834C11.2945 58.6289 12.0399 59.4275 12.7854 60.1197C13.1581 60.4924 12.8919 61.0781 13.3711 61.0781C13.8503 61.0781 14.3827 60.8651 14.7022 60.4924L30.0899 44.4125Z" fill="#EB3148"/>
<path d="M41.1647 29.1846C40.6855 29.93 40.1531 30.6222 39.5142 31.2611C38.8752 31.9533 38.0766 32.6987 37.1182 33.4974C36.3195 34.2428 35.3078 35.1479 34.243 36.1596H34.1897C33.6573 36.6388 33.2313 37.2245 32.9118 37.9167C32.6456 38.6621 32.5391 39.514 32.5391 40.4724V41.8568H32.7521L48.2463 25.8834C48.2463 24.1796 47.8736 22.742 47.2346 21.5173C47.2346 21.5173 47.2346 21.5173 47.1814 21.5173L41.8569 27.108C41.8037 27.8534 41.5375 28.5456 41.1647 29.1846Z" fill="#EB3148"/>
<path d="M59.2679 11.7736C58.5225 11.0814 57.3511 11.1346 56.6589 11.8268C54.4759 14.0631 50.1631 18.5356 49.0449 19.6538C48.8852 19.8135 48.8852 20.0265 48.9917 20.1862C49.0982 20.3459 49.2047 20.5589 49.3112 20.7186C49.6839 21.4108 49.9501 22.1562 50.1098 22.9549C50.2163 23.3276 50.6423 23.4341 50.9085 23.1679L59.9068 13.9033C60.599 13.2112 60.0666 12.4657 59.2679 11.7736Z" fill="#EB3148"/>
</svg>
