<svg width="32" height="32" viewBox="0 0 32 32" fill="none" xmlns="http://www.w3.org/2000/svg">
<circle cx="16" cy="16" r="16" fill="#3E4454"/>
<circle cx="16" cy="16" r="15.6" fill="url(#paint0_linear_2157_2468)" stroke="#6D748B" stroke-width="0.8"/>
<path d="M17.4658 16.0001L23.6959 9.76972C24.1014 9.36446 24.1014 8.70921 23.6959 8.30395C23.2907 7.89868 22.6354 7.89868 22.2302 8.30395L15.9999 14.5344L9.76983 8.30395C9.36438 7.89868 8.70934 7.89868 8.30408 8.30395C7.89864 8.70921 7.89864 9.36446 8.30408 9.76972L14.5342 16.0001L8.30408 22.2305C7.89864 22.6358 7.89864 23.291 8.30408 23.6963C8.50604 23.8985 8.77159 24 9.03695 24C9.30231 24 9.56768 23.8985 9.76983 23.6963L15.9999 17.4659L22.2302 23.6963C22.4323 23.8985 22.6977 24 22.963 24C23.2284 24 23.4938 23.8985 23.6959 23.6963C24.1014 23.291 24.1014 22.6358 23.6959 22.2305L17.4658 16.0001Z" fill="#888FF7"/>
<defs>
<linearGradient id="paint0_linear_2157_2468" x1="4.11429" y1="4.03708" x2="36.4091" y2="31.0696" gradientUnits="userSpaceOnUse">
<stop stop-color="#ADB6CE" stop-opacity="0.12"/>
<stop offset="1" stop-color="#ADB6CE" stop-opacity="0.02"/>
</linearGradient>
</defs>
</svg>
