<!-- icon666.com - MILLIONS vector ICONS FREE --><svg id="svg5" viewBox="0 0 180.62202 180.62202" xmlns="http://www.w3.org/2000/svg" xmlns:xlink="http://www.w3.org/1999/xlink" xmlns:svg="http://www.w3.org/2000/svg"><linearGradient id="linearGradient21800" gradientUnits="userSpaceOnUse" x1="-1026.202" x2="-886.192" y1="-247.616" y2="-396.022"><stop id="stop21794" offset="0" stop-color="#ff58ae"></stop><stop id="stop21796" offset="1" stop-color="#6a279b"></stop></linearGradient><g id="layer1" transform="translate(1047.834 414.051)"><path id="path1499" d="m-1006.616-383.7396a10.909424 10.909195 0 0 0 -7.7122 3.19645 10.909424 10.909195 0 0 0 0 15.4256l41.37865 41.37917-41.37865 41.37775a10.909424 10.909195 0 0 0 0 15.42699 10.909424 10.909195 0 0 0 15.42594 0l41.3801-41.37917 41.37832 41.37917a10.909424 10.909195 0 0 0 15.426 0 10.909424 10.909195 0 0 0 0-15.42699l-41.37878-41.37775 41.37878-41.37917a10.909424 10.909195 0 0 0 0-15.4256 10.909424 10.909195 0 0 0 -7.71222-3.19645 10.909424 10.909195 0 0 0 -7.71378 3.19645l-41.37832 41.37918-41.3801-41.37918a10.909424 10.909195 0 0 0 -7.71374-3.19645z" fill="url(#linearGradient21800)" font-variation-settings="normal" vector-effect="none" style="fill: rgb(240, 240, 240);"></path></g></svg>