<svg width="12" height="14" viewBox="0 0 12 14" fill="none" xmlns="http://www.w3.org/2000/svg">
<path d="M6.56043 13.7762L11.7697 8.72032C11.9184 8.57599 12 8.38364 12 8.17854C12 7.9732 11.9183 7.78096 11.7697 7.63664L11.2966 7.17759C11.1482 7.03338 10.9498 6.95394 10.7384 6.95394C10.5271 6.95394 10.3221 7.03338 10.1736 7.17759L7.12802 10.1271L7.12802 0.756314C7.12802 0.333789 6.78724 1.26951e-07 6.35181 1.21758e-07L5.68303 1.13783e-07C5.2476 1.08591e-07 4.87245 0.333789 4.87245 0.756313L4.87245 10.1606L1.80983 7.1777C1.66113 7.03349 1.46822 6.95405 1.25678 6.95405C1.04558 6.95405 0.849855 7.03349 0.701274 7.1777L0.229732 7.63675C0.0810339 7.78107 7.18676e-08 7.97331 6.9419e-08 8.17864C6.69731e-08 8.38375 0.0820891 8.5761 0.230786 8.72043L5.43993 13.7763C5.58909 13.921 5.78821 14.0006 5.99988 14C6.21226 14.0005 6.4115 13.921 6.56043 13.7762Z" fill="url(#paint0_linear_434_4)"/>
<defs>
<linearGradient id="paint0_linear_434_4" x1="6.28006e-07" y1="-3.55076e-07" x2="11.8288" y2="15.3594" gradientUnits="userSpaceOnUse">
<stop stop-color="#2973FF"/>
<stop offset="0.48974" stop-color="#8846D3"/>
<stop offset="1" stop-color="#FF22AC"/>
</linearGradient>
</defs>
</svg>
