<svg width="21" height="17" viewBox="0 0 21 17" fill="none" xmlns="http://www.w3.org/2000/svg">
<path d="M19.0312 0.53125H1.96876C0.883121 0.53125 0 1.42488 0 2.52345V14.4766C0 15.5751 0.883121 16.4688 1.96876 16.4688H19.0312C20.1169 16.4688 21 15.5751 21 14.4766V2.52345C21 1.42488 20.1169 0.53125 19.0312 0.53125ZM19.0312 1.85937C19.1204 1.85937 19.2052 1.87809 19.2828 1.91078L10.5 9.61348L1.71719 1.91078C1.79473 1.87813 1.87956 1.85937 1.96872 1.85937H19.0312ZM19.0312 15.1406H1.96876C1.60668 15.1406 1.31249 14.843 1.31249 14.4765V3.31395L10.07 10.9941C10.1937 11.1024 10.3468 11.1563 10.5 11.1563C10.6532 11.1563 10.8063 11.1024 10.93 10.9941L19.6875 3.31395V14.4766C19.6875 14.843 19.3933 15.1406 19.0312 15.1406Z" fill="#939AB3"/>
</svg>
