<?xml version="1.0" encoding="utf-8"?>
<!-- Generator: Adobe Illustrator 26.0.3, SVG Export Plug-In . SVG Version: 6.00 Build 0)  -->
<svg version="1.1" id="Слой_1" xmlns="http://www.w3.org/2000/svg" xmlns:xlink="http://www.w3.org/1999/xlink" x="0px" y="0px"
	 viewBox="0 0 140.6 129" style="enable-background:new 0 0 140.6 129;" xml:space="preserve">
<style type="text/css">
	.st0{fill:#FFFFFF;}
	.st1{fill:none;stroke:#FFFFFF;stroke-width:11;stroke-miterlimit:10;}
</style>
<path class="st0" d="M114.2,59.5c-0.5,0-1-0.3-1.1-0.8c-2.8-9.1-8.7-17.3-16.5-22.9c-0.5-0.4-0.7-1.1-0.3-1.7
	c0.4-0.5,1.1-0.7,1.7-0.3c8.2,5.9,14.4,14.5,17.4,24.1c0.2,0.6-0.2,1.3-0.8,1.5C114.4,59.5,114.3,59.5,114.2,59.5z"/>
<path class="st0" d="M26.7,59.5c-0.1,0-0.2,0-0.4-0.1c-0.6-0.2-1-0.9-0.8-1.5c3-9.6,9.2-18.2,17.4-24.2c0.5-0.4,1.3-0.3,1.7,0.3
	c0.4,0.5,0.3,1.3-0.3,1.7c-7.8,5.6-13.7,13.8-16.5,22.9C27.7,59.2,27.3,59.5,26.7,59.5z"/>
<path class="st0" d="M70.5,118.9c-13.8,0-26.8-6-35.7-16.5c-0.4-0.5-0.4-1.3,0.1-1.7c0.5-0.4,1.3-0.4,1.7,0.1
	c8.5,9.9,20.8,15.6,33.9,15.6c13.1,0,25.4-5.7,33.9-15.6c0.4-0.5,1.2-0.6,1.7-0.1c0.5,0.4,0.6,1.2,0.1,1.7
	C97.2,112.9,84.2,118.9,70.5,118.9z"/>
<g>
	<path class="st0" d="M109.1,78.1c0.2,0,0.3,0.1,0.5,0.2l13.7,10.1c0.5,0.4,0.6,1,0.2,1.5c-0.4,0.5-1,0.6-1.5,0.2l-13.1-9.6l-12.8,9
		c-0.5,0.3-1.2,0.2-1.5-0.3c-0.3-0.5-0.2-1.2,0.3-1.5l13.4-9.5l0.3-0.2C108.9,78.1,108.7,78.1,109.1,78.1z"/>
	<path class="st0" d="M125.4,79.3c0.2,0,0.3,0.1,0.5,0.2l9.6,7.1c0.5,0.4,0.6,1,0.2,1.5c-0.4,0.5-1,0.6-1.5,0.2l-9-6.6l-6.9,4.9
		c-0.5,0.3-1.2,0.2-1.5-0.3c-0.3-0.5-0.2-1.2,0.3-1.5l7.5-5.3l0.3-0.2C125.2,79.3,125,79.3,125.4,79.3z"/>
	<path class="st0" d="M117.3,70.6c2.5,0,4.5,2,4.5,4.5s-2,4.5-4.5,4.5c-2.5,0-4.5-2-4.5-4.5S114.9,70.6,117.3,70.6z M117.3,72.8
		c-1.3,0-2.3,1-2.3,2.3s1,2.3,2.3,2.3c1.3,0,2.3-1,2.3-2.3S118.6,72.8,117.3,72.8z"/>
	<path class="st0" d="M130.8,65c3.2,0,5.7,2.6,5.7,5.7v20.2c0,3.1-2.5,5.7-5.7,5.7h-4c-0.2,0-0.2,0-0.3,0H99.7
		c-3.3,0-5.9-2.6-5.9-5.9V70.7c0-3.2,2.6-5.8,5.8-5.8H130.8z M130.8,67.2H99.5c-2,0-3.6,1.6-3.6,3.6v19.9c0,2.1,1.7,3.7,3.7,3.7
		h27.2c0.2,0,0.2,0,0.3,0h3.7c1.9,0,3.5-1.6,3.5-3.5V70.7C134.3,68.8,132.7,67.2,130.8,67.2z"/>
</g>
<path class="st0" d="M86.3,10.1c3.2,0,5.8,2.6,5.8,5.8v20.5c0,3.2-2.6,5.8-5.8,5.8h-4c-0.2,0-0.2,0-0.3,0H54.8c-3.3,0-6-2.6-6-6V16
	c0-3.2,2.6-5.8,5.8-5.8H86.3z M86.3,12.3H54.6c-2,0-3.6,1.6-3.6,3.6v20.2c0,2.1,1.7,3.7,3.8,3.7h27.6c0.2,0,0.2,0,0.3,0h3.8
	c2,0,3.6-1.6,3.6-3.6V15.9C89.9,13.9,88.3,12.3,86.3,12.3z"/>
<path class="st0" d="M65.7,35.9c-0.5,0-1-0.1-1.4-0.4C63.4,35,62.9,34,62.9,33V20.4c0-1,0.5-2,1.4-2.5c0.9-0.5,2-0.5,2.9,0l10.9,6.3
	c0.9,0.5,1.4,1.5,1.4,2.5c0,1-0.5,2-1.4,2.5l-10.9,6.3C66.7,35.7,66.2,35.9,65.7,35.9z M65.7,19.7c-0.2,0-0.3,0.1-0.4,0.1
	C65.3,19.8,65,20,65,20.4V33c0,0.4,0.2,0.5,0.4,0.6c0.1,0.1,0.4,0.2,0.7,0L77,27.3c0.3-0.2,0.4-0.5,0.4-0.6c0-0.1,0-0.4-0.4-0.6
	l-10.9-6.3C66,19.7,65.8,19.7,65.7,19.7z"/>
<path class="st0" d="M29.1,88.1c-0.6,0-1.1-0.1-1.6-0.3c-0.9-0.4-1.5-1.1-1.7-1.9c-0.4-1.6,0.9-3.3,2.9-3.7h0c2-0.5,3.9,0.4,4.3,2.1
	c0.2,0.8-0.1,1.7-0.7,2.4c-0.6,0.6-1.4,1.1-2.3,1.3C29.8,88.1,29.5,88.1,29.1,88.1z M29.3,84.1c-1,0.2-1.6,0.9-1.5,1.4
	c0.1,0.3,0.4,0.4,0.5,0.5c0.4,0.2,0.9,0.2,1.4,0.1c0.5-0.1,0.9-0.4,1.2-0.7c0.1-0.1,0.3-0.4,0.2-0.7C31.1,84.2,30.2,83.9,29.3,84.1
	L29.3,84.1z"/>
<rect x="19.5" y="75.5" transform="matrix(0.9744 -0.2247 0.2247 0.9744 -16.5192 7.7645)" class="st0" width="12.8" height="2"/>
<path class="st0" d="M18.6,87.8l-0.3-12.4c0-1,0.7-1.9,1.7-2.2l10.5-2.3c0.6-0.1,1.3,0,1.8,0.4c0.5,0.4,0.8,1,0.8,1.7l0.1,11.9l-2,0
	l-0.1-11.9c0-0.1,0-0.1-0.1-0.2c0,0-0.1-0.1-0.2,0l-10.5,2.3c-0.1,0-0.2,0.1-0.2,0.2l0.3,12.4L18.6,87.8z"/>
<path class="st0" d="M16.5,91c-1.6,0-2.9-0.9-3.2-2.2c-0.2-0.8,0.1-1.7,0.7-2.4c0.6-0.6,1.4-1.1,2.3-1.3l0,0
	c0.9-0.2,1.8-0.1,2.6,0.2c0.9,0.4,1.5,1.1,1.7,1.9c0.4,1.6-0.9,3.3-2.9,3.7C17.2,91,16.8,91,16.5,91z M17.2,87c-0.2,0-0.4,0-0.6,0.1
	h0c-0.5,0.1-0.9,0.4-1.2,0.7c-0.1,0.1-0.3,0.4-0.2,0.7c0.1,0.5,1,0.8,1.9,0.6c1-0.2,1.6-0.9,1.5-1.4c-0.1-0.3-0.4-0.4-0.5-0.5
	C17.8,87,17.5,87,17.2,87z"/>
<path class="st0" d="M41.6,64.5c3.2,0,5.8,2.6,5.8,5.8v20.5c0,3.2-2.6,5.8-5.8,5.8h-4c-0.2,0-0.2,0-0.3,0H10.1c-3.3,0-6-2.6-6-6
	V70.4c0-3.2,2.6-5.8,5.8-5.8H41.6z M41.6,66.7H9.9c-2,0-3.6,1.6-3.6,3.6v20.2c0,2.1,1.7,3.7,3.8,3.7h27.6c0.2,0,0.2,0,0.3,0h3.8
	c2,0,3.6-1.6,3.6-3.6V70.3C45.2,68.4,43.6,66.7,41.6,66.7z"/>
</svg>
