<svg width="19" height="19" viewBox="0 0 19 19" fill="none" xmlns="http://www.w3.org/2000/svg">
<path d="M16.2175 2.7825C14.4232 0.988186 12.0375 0 9.5 0C6.96246 0 4.57681 0.988186 2.7825 2.7825C0.988186 4.57681 0 6.96246 0 9.5C0 12.0375 0.988186 14.4232 2.7825 16.2175C4.57681 18.0118 6.96246 19 9.5 19C12.0375 19 14.4232 18.0118 16.2175 16.2175C18.0118 14.4232 19 12.0375 19 9.5C19 6.96246 18.0118 4.57681 16.2175 2.7825ZM16.3449 4.65103C17.2405 5.90948 17.7667 7.38521 17.8681 8.94336H13.8535C13.5893 7.99996 13.1623 7.03482 12.5957 6.1101C12.3246 5.66753 12.3224 5.1962 12.5902 4.90931C12.874 4.60531 13.3888 4.5931 13.9338 4.87743C14.9502 5.40776 15.8363 5.05311 16.3449 4.65103ZM10.0566 1.13191C12.0873 1.26409 13.9782 2.11761 15.4303 3.5697C15.5014 3.6408 15.5705 3.71331 15.6388 3.78649C15.5716 3.83848 15.4846 3.89608 15.3812 3.94254C15.0801 4.07776 14.7751 4.06077 14.4488 3.89047C13.2437 3.26177 12.2782 3.61215 11.7764 4.14968C11.1576 4.81264 11.1066 5.81044 11.6465 6.69171C12.1073 7.44396 12.4568 8.20344 12.692 8.94336H10.0566V1.13191ZM10.0566 12.9064C10.5142 12.5186 10.806 11.9957 10.8628 11.4337C10.9105 10.9613 10.7888 10.4795 10.5272 10.0566H12.962C13.1412 11.15 13.0448 12.1644 12.6565 13.0014C12.2964 13.7778 11.8231 14.7973 10.0566 15.3816V12.9064ZM8.94336 1.13191V3.81462C8.67614 3.27294 8.08962 2.90693 7.47442 2.95832C6.99771 2.99821 6.64347 3.22039 6.33093 3.41644C6.22484 3.48301 6.12461 3.54588 6.023 3.59994C5.68787 3.7784 5.22307 3.77914 4.74785 3.60213C4.48125 3.50283 4.22438 3.35662 3.97427 3.19122C5.36505 1.96962 7.09624 1.25214 8.94336 1.13191ZM5.95539 8.94336C6.42237 8.55289 6.76036 7.87747 6.88334 7.08685C6.94628 6.68225 7.54935 6.37869 7.90968 6.19734C8.01778 6.14294 8.11111 6.09599 8.19019 6.04794C8.53857 5.83645 8.79381 5.5549 8.94332 5.22856V8.79062C8.64686 8.66133 8.31621 8.56484 7.98883 8.56484C7.61837 8.56484 7.24108 8.71974 6.97493 8.94332L5.95539 8.94336ZM3.17426 3.99345C3.532 4.24301 3.92391 4.48322 4.35924 4.64539C5.20103 4.95896 6.15099 4.84348 6.92253 4.35957C7.16701 4.2062 7.36013 4.08507 7.56727 4.06774C7.75638 4.05179 7.95655 4.22294 7.97911 4.41969C8.04962 5.03545 7.31292 5.22604 6.89975 5.47894C6.36582 5.80576 5.88373 6.2703 5.78331 6.91574C5.66285 7.69018 5.33492 8.01269 5.23728 8.09311C4.90393 8.36764 4.46229 8.46843 4.02559 8.36954C3.29576 8.2044 2.60712 8.43908 2.29867 8.94336H1.13191C1.25159 7.10474 1.9629 5.38093 3.17426 3.99345ZM1.69482 12.5795C1.37976 11.7804 1.18887 10.9315 1.13191 10.0566H2.07519C2.10607 10.3413 2.19027 10.6011 2.26579 10.8335C2.34542 11.0785 2.42068 11.31 2.41831 11.5225C2.41396 11.9129 2.32052 12.1986 2.14058 12.3717C2.03062 12.4775 1.88119 12.5467 1.69482 12.5795ZM8.94336 17.8681C8.42565 17.8344 7.91699 17.754 7.42239 17.6285C7.84425 17.2055 8.33536 16.9376 8.94336 16.7935V17.8681ZM8.94336 15.6563C7.82596 15.8632 6.96851 16.3724 6.27497 17.2466C5.2758 16.8306 4.35809 16.2187 3.5697 15.4303C3.01837 14.879 2.5535 14.2643 2.18136 13.6028C2.46302 13.5126 2.70969 13.369 2.91227 13.1742C3.4144 12.6913 3.52621 12.0162 3.53155 11.5349C3.53593 11.1397 3.42367 10.7942 3.32459 10.4894C3.26971 10.3205 3.2261 10.181 3.20068 10.0567H6.43721C6.39101 10.1556 6.32455 10.2438 6.24781 10.3073C6.03621 10.4825 5.7806 10.5956 5.55442 10.7503C5.00821 11.1237 4.66565 11.5818 4.53629 12.1118C4.45754 12.4344 4.4722 12.7841 4.57759 13.0964C4.71237 13.4959 4.98524 13.8175 5.34601 14.002C5.56811 14.1157 5.80929 14.1733 6.06282 14.1733C6.54554 14.1733 6.98569 13.9602 7.43286 13.8069C7.92567 13.638 8.44379 13.6237 8.9434 13.4806L8.94336 15.6563ZM9.75513 11.3217C9.71475 11.721 9.41394 12.0566 9.05925 12.2443C8.7046 12.432 8.2994 12.4964 7.902 12.5519C7.57425 12.5977 7.23848 12.6373 6.92505 12.749C6.61586 12.8591 6.18884 13.1827 5.85304 13.0109C5.63613 12.8999 5.56002 12.6124 5.6178 12.3757C5.69095 12.076 5.92804 11.8433 6.18272 11.6692C6.4374 11.4951 6.72014 11.3615 6.95775 11.1648C7.18486 10.9767 7.36231 10.7308 7.47624 10.4592C7.59083 10.1862 7.5197 9.87069 7.83653 9.71479C8.26296 9.50497 8.97368 10.0321 9.28362 10.2983C9.57993 10.5528 9.79443 10.9331 9.75513 11.3217ZM15.4303 15.4303C13.9782 16.8824 12.0873 17.7359 10.0566 17.8681V16.5457C12.3524 15.9058 13.1258 14.6352 13.6664 13.4699C14.1299 12.4708 14.2722 11.3237 14.0907 10.0566H17.8681C17.7359 12.0873 16.8824 13.9782 15.4303 15.4303Z" fill="#939AB2"/>
</svg>
