<svg width="191" height="53" viewBox="0 0 191 53" fill="none" xmlns="http://www.w3.org/2000/svg">
<path d="M4.34492 44.1445L1 39.6397V52H190V8.72666L187.423 3.54019C186.571 1.82732 184.627 0.956769 182.782 1.46291L179.764 2.291C178.57 2.61854 177.596 3.48024 177.124 4.6247L170.459 20.8019C170.167 21.5126 169.675 22.1239 169.044 22.5626L162.484 27.1224C162.114 27.3797 161.79 27.6977 161.526 28.063L160.63 29.3024C159.046 31.4927 155.791 31.5142 154.179 29.345L154.064 29.1914L149.346 22.4121C147.794 20.1827 144.519 20.115 142.877 22.2783L138.752 27.711C138.336 28.2587 137.786 28.69 137.155 28.9632L131.017 31.6194C130.516 31.8365 129.975 31.9484 129.429 31.9484H124.112C122.823 31.9484 121.614 32.5693 120.862 33.6163L115.029 41.7448C114.561 42.397 113.907 42.8933 113.154 43.1691L107.826 45.1183C106.803 45.4925 105.672 45.4335 104.694 44.9549L99.304 42.3182C98.6878 42.0167 98.1595 41.5618 97.7698 40.9973L94.7973 36.6906C94.2741 35.9326 93.2578 35.701 92.4578 36.1576C91.4613 36.7263 90.1952 36.2139 89.8749 35.1121L84.8593 17.8629C83.9029 14.574 79.5246 13.9299 77.6617 16.8042L76.2861 18.9266C75.2737 20.4887 73.2986 21.139 71.5484 20.5051C70.6007 20.1618 69.8082 19.4701 69.3462 18.5742L66.5023 13.0597C66.1875 12.4492 65.7208 11.9301 65.1472 11.5524L63.289 10.3287C62.5072 9.81383 61.4835 9.85809 60.749 10.4385C59.6545 11.3035 58.0399 10.9263 57.4418 9.66593L54.3568 3.16466C54.2 2.83425 53.9692 2.54441 53.6822 2.31765C52.3159 1.23787 50.2905 1.943 49.8902 3.63788L46.0329 19.9678L43.4406 29.4143C43.0722 30.7565 41.4535 31.2877 40.3615 30.4247C39.2999 29.5857 37.7272 30.0614 37.3085 31.3481L36.2742 34.5267C35.6325 36.4987 33.0744 36.9989 31.7372 35.4138C30.9117 34.4353 29.504 34.1884 28.3948 34.8276L27.275 35.4728C26.9057 35.6856 26.5728 35.9561 26.2889 36.2739L22.6406 40.3583C22.3656 40.6663 22.1399 41.0149 21.9715 41.3919L19.7013 46.4749C19.1716 47.6611 18.0988 48.5161 16.8243 48.7679L15.7196 48.9861C14.9041 49.1473 14.0739 48.7871 13.6344 48.0816L12.3086 45.9534C11.4521 44.5785 9.65798 44.1332 8.25796 44.9479C6.93928 45.7154 5.2545 45.3694 4.34492 44.1445Z" fill="url(#paint0_linear_221_2407)" stroke="url(#paint1_linear_221_2407)"/>
<defs>
<linearGradient id="paint0_linear_221_2407" x1="96.3989" y1="0" x2="96.3989" y2="52" gradientUnits="userSpaceOnUse">
<stop stop-color="#FF4545" stop-opacity="0.72"/>
<stop offset="1" stop-color="#FF4545" stop-opacity="0"/>
</linearGradient>
<linearGradient id="paint1_linear_221_2407" x1="95.5" y1="5" x2="95.5" y2="52" gradientUnits="userSpaceOnUse">
<stop stop-color="#FF4545"/>
<stop offset="1" stop-color="#FF4545" stop-opacity="0"/>
</linearGradient>
</defs>
</svg>
