<svg width="58" height="58" viewBox="0 0 58 58" fill="none" xmlns="http://www.w3.org/2000/svg">
<path d="M29.4 33.8001C31.1673 33.8001 32.6 32.3675 32.6 30.6001C32.6 28.8328 31.1673 27.4001 29.4 27.4001C27.6327 27.4001 26.2 28.8328 26.2 30.6001C26.2 32.3675 27.6327 33.8001 29.4 33.8001Z" stroke="#3B3735" stroke-width="4" stroke-miterlimit="10" stroke-linecap="round" stroke-linejoin="round"/>
<path d="M29 27.3001V16.4001" stroke="#3B3735" stroke-width="4" stroke-miterlimit="10" stroke-linecap="round" stroke-linejoin="round"/>
<path d="M31.9 32.6001L38.9 37.8001" stroke="#3B3735" stroke-width="4" stroke-miterlimit="10" stroke-linecap="round" stroke-linejoin="round"/>
<path d="M28.9 2C14 2 2 14 2 28.9C2 43.8 14 55.8 28.9 55.8C43.8 55.8 55.9 43.8 55.9 28.9C55.9 18.3 49.8 9.1 40.8 4.7V17.1" stroke="#3B3735" stroke-width="4" stroke-miterlimit="10" stroke-linecap="round" stroke-linejoin="round"/>
<path d="M55.1 4.6001H41.4" stroke="#3B3735" stroke-width="4" stroke-miterlimit="10" stroke-linecap="round" stroke-linejoin="round"/>
</svg>
