<svg width="22" height="26" viewBox="0 0 22 26" fill="none" xmlns="http://www.w3.org/2000/svg">
<path d="M21.5 6.875C21.5 5.42753 20.3225 4.25 18.875 4.25H14.5V3.375C14.5 1.92753 13.3225 0.75 11.875 0.75H10.125C8.67753 0.75 7.5 1.92753 7.5 3.375V4.25H3.125C1.67753 4.25 0.5 5.42753 0.5 6.875C0.5 8.02847 1.25272 8.9995 2.28894 9.35081L3.03444 22.7707C3.11209 24.1608 4.26316 25.25 5.6555 25.25H16.3443C17.7366 25.25 18.8877 24.1608 18.9653 22.7707L19.7108 9.35081C20.7475 8.9995 21.5 8.02847 21.5 6.875ZM9.25 3.375C9.25 2.89266 9.64266 2.5 10.125 2.5H11.875C12.3573 2.5 12.75 2.89266 12.75 3.375V4.25H9.25V3.375ZM16.3445 23.5H5.6555C5.19153 23.5 4.80741 23.1369 4.78181 22.6733L4.05009 9.5H17.9499L17.2182 22.6733C17.1926 23.1369 16.8085 23.5 16.3445 23.5ZM18.875 7.75H3.125C2.64266 7.75 2.25 7.35734 2.25 6.875C2.25 6.39266 2.64266 6 3.125 6H18.875C19.3573 6 19.75 6.39266 19.75 6.875C19.75 7.35734 19.3573 7.75 18.875 7.75ZM11.875 13.875V19.125C11.875 19.6082 11.4832 20 11 20C10.5168 20 10.125 19.6082 10.125 19.125V13.875C10.125 13.3918 10.5168 13 11 13C11.4832 13 11.875 13.3918 11.875 13.875ZM15.375 13.875V19.125C15.375 19.6082 14.9832 20 14.5 20C14.0168 20 13.625 19.6082 13.625 19.125V13.875C13.625 13.3918 14.0168 13 14.5 13C14.9832 13 15.375 13.3918 15.375 13.875ZM8.375 13.875V19.125C8.375 19.6082 7.98322 20 7.5 20C7.01678 20 6.625 19.6082 6.625 19.125V13.875C6.625 13.3918 7.01678 13 7.5 13C7.98322 13 8.375 13.3918 8.375 13.875Z" fill="white"/>
</svg>
