<!-- icon666.com - MILLIONS vector ICONS FREE --><svg enable-background="new 0 0 32 32" viewBox="0 0 32 32" xmlns="http://www.w3.org/2000/svg"><g id="Layer_1" fill="rgb(0,0,0)"><path d="m26.67 10h-21.34c-.71 0-1.27.61-1.2 1.32l1.63 17.16c.14 1.43 1.34 2.52 2.77 2.52h14.94c1.4301 0 2.63-1.09 2.77-2.52l1.63-17.16c.07-.71-.49-1.32-1.2-1.32zm-14.67 13c0 .55-.45 1-1 1s-1-.45-1-1v-6c0-.55.45-1 1-1s1 .45 1 1zm5 0c0 .55-.45 1-1 1s-1-.45-1-1v-6c0-.55.45-1 1-1s1 .45 1 1zm5 0c0 .55-.45 1-1 1s-1-.45-1-1v-6c0-.55.45-1 1-1s1 .45 1 1z" fill="rgb(0,0,0)" style="fill: rgb(147, 154, 179);"></path><path d="m22.5477 3.1908-.3454-1.3816c-.1189-.4756-.5462-.8092-1.0364-.8092h-10.3318c-.4902 0-.9175.3336-1.0364.8092l-.3454 1.3816c-.1189.4756-.5462.8092-1.0364.8092h-5.3476c-.59 0-1.0683.4783-1.0683 1.0683v1.8634c0 .59.4783 1.0683 1.0683 1.0683h25.8634c.59 0 1.0683-.4783 1.0683-1.0683v-1.8634c0-.59-.4783-1.0683-1.0683-1.0683h-5.3476c-.4902 0-.9175-.3336-1.0364-.8092z" fill="rgb(0,0,0)" style="fill: rgb(147, 154, 179);"></path></g></svg>