<svg width="11" height="11" viewBox="0 0 11 11" fill="none" xmlns="http://www.w3.org/2000/svg">
<path d="M0.79857 0.810749L0.79857 0.810749L0.79813 0.811189C0.607313 1.00196 0.5 1.26071 0.5 1.53066C0.5 1.8006 0.607313 2.05935 0.798129 2.25012L0.79835 2.25034L4.05284 5.5L0.79835 8.74966L0.792107 8.75589L0.786087 8.76234C0.606085 8.95523 0.507973 9.2105 0.512636 9.4744C0.5173 9.73829 0.624367 9.98993 0.811055 10.1763C0.997721 10.3627 1.2494 10.4694 1.51303 10.474C1.77666 10.4787 2.03194 10.381 2.22506 10.2013L2.23152 10.1953L2.23776 10.189L5.49331 6.93832L8.74365 10.1838C8.83553 10.2803 8.94546 10.3578 9.06721 10.412C9.1921 10.4676 9.32689 10.4974 9.46354 10.4998C9.60018 10.5022 9.73594 10.4772 9.8627 10.426C9.98947 10.3749 10.1047 10.2988 10.2014 10.2022C10.2982 10.1056 10.3745 9.99045 10.4258 9.86366C10.4771 9.73688 10.5023 9.60105 10.4998 9.46429C10.4974 9.32754 10.4674 9.19269 10.4117 9.06779C10.3574 8.94604 10.2797 8.8362 10.1831 8.74447L6.93377 5.5L10.1831 2.25553C10.2797 2.16379 10.3574 2.05396 10.4117 1.93221C10.4674 1.80731 10.4974 1.67246 10.4998 1.53571C10.5023 1.39895 10.4771 1.26312 10.4258 1.13634C10.3745 1.00955 10.2982 0.894434 10.2014 0.797826C10.1047 0.701219 9.98947 0.625102 9.8627 0.573975C9.73594 0.522849 9.60019 0.497751 9.46354 0.500158C9.32689 0.502566 9.1921 0.53243 9.06721 0.587993C8.94546 0.642162 8.83553 0.719683 8.74365 0.816163L5.49331 4.06168L2.23776 0.810969L2.23754 0.810749C2.04651 0.620242 1.78772 0.51337 1.51805 0.51337C1.24839 0.51337 0.989598 0.620242 0.79857 0.810749Z" fill="#FF4545" stroke="#FF4545"/>
</svg>
