<svg width="27" height="26" viewBox="0 0 27 26" fill="none" xmlns="http://www.w3.org/2000/svg">
<path d="M14.8133 11.996L3.54892 0.731826C3.28839 0.471088 2.9406 0.327446 2.56977 0.327446C2.19893 0.327446 1.85114 0.471088 1.59061 0.731826L0.761067 1.56116C0.221276 2.10157 0.221276 2.97989 0.761067 3.51947L10.2201 12.9785L0.750571 22.4479C0.49004 22.7087 0.346191 23.0563 0.346191 23.4269C0.346191 23.7979 0.49004 24.1455 0.750571 24.4065L1.58012 25.2356C1.84085 25.4963 2.18844 25.64 2.55927 25.64C2.93011 25.64 3.27789 25.4963 3.53843 25.2356L14.8133 13.9611C15.0745 13.6996 15.2179 13.3503 15.2171 12.9791C15.2179 12.6064 15.0745 12.2574 14.8133 11.996Z" fill="white"/>
<path d="M25.8145 11.4955L14.7172 0.398381C14.4606 0.141511 14.1179 0 13.7526 0C13.3873 0 13.0446 0.141511 12.788 0.398381L11.9707 1.21542C11.4389 1.74781 11.4389 2.61309 11.9707 3.14467L21.2894 12.4633L11.9604 21.7923C11.7037 22.0492 11.562 22.3916 11.562 22.7568C11.562 23.1223 11.7037 23.4647 11.9604 23.7218L12.7776 24.5386C13.0345 24.7955 13.3769 24.937 13.7423 24.937C14.1076 24.937 14.4502 24.7955 14.7069 24.5386L25.8145 13.4314C26.0718 13.1737 26.2131 12.8297 26.2123 12.4639C26.2131 12.0968 26.0718 11.7529 25.8145 11.4955Z" fill="white"/>
</svg>
