<!-- icon666.com - MILLIONS vector ICONS FREE --><svg id="Layer_1" viewBox="0 0 32 32" xmlns="http://www.w3.org/2000/svg"><path d="m31.381 4.62c-1.383-1.412-2.795-2.812-4.002-4.004-.412-.412-.96-.616-1.51-.616-.549 0-1.099.205-1.51.617-7.089 7.101-14.189 14.195-21.288 21.292-.117.117-.205.259-.258.417-.777 2.331-2.172 6.143-2.771 8.323-.216.779.48 1.505 1.269 1.323 2.594-.599 6.064-2.021 8.362-2.787.155-.051.299-.138.417-.252 7.094-7.102 14.197-14.196 21.291-21.295.822-.824.822-2.195 0-3.018zm-28.629 24.626c.187-.575.389-1.157.59-1.763.265.111.514.27.729.487.207.207.359.44.47.688-.601.2-1.207.405-1.789.588zm6.015-2.006c-.685.232-1.449.493-2.206.75-.217-.556-.537-1.084-.983-1.531-.456-.455-.992-.776-1.563-.992.254-.752.519-1.556.743-2.227l17.173-17.18c1.336 1.335 2.671 2.67 4.007 4.006-5.716 5.723-11.448 11.451-17.171 17.174zm18.678-18.685-4.004-4.002 2.427-2.4 3.978 3.975z" fill="#000000" style="fill: rgb(255, 255, 255);"></path></svg>