<svg width="13" height="13" viewBox="0 0 13 13" fill="none" xmlns="http://www.w3.org/2000/svg">
<path fill-rule="evenodd" clip-rule="evenodd" d="M3.8602 1.92547C3.25949 2.27225 2.73295 2.73394 2.31066 3.2842C1.88838 3.83446 1.57862 4.4625 1.39905 5.13248C1.0364 6.48556 1.22612 7.92727 1.92645 9.14047C2.62678 10.3537 3.78038 11.239 5.13346 11.6016C6.48653 11.9642 7.92825 11.7746 9.14145 11.0742C9.28088 11 9.4437 10.9827 9.59556 11.0262C9.74741 11.0697 9.87644 11.1704 9.95549 11.3072C10.0345 11.444 10.0574 11.6061 10.0192 11.7594C9.98101 11.9126 9.88481 12.0452 9.75082 12.1288C8.52192 12.838 7.09472 13.1256 5.68707 12.9478C4.2794 12.7698 2.96861 12.1362 1.95475 11.1437C0.940895 10.1511 0.279657 8.85407 0.0719724 7.45046C-0.135712 6.04689 0.121562 4.61392 0.804526 3.37025C1.48749 2.12659 2.55863 1.14055 3.85446 0.562641C5.15028 -0.015271 6.59961 -0.153311 7.98122 0.16959C9.36286 0.492492 10.6009 1.2586 11.5063 2.35097C12.4118 3.44335 12.9349 4.802 12.996 6.21953C12.9992 6.24514 13.0008 6.27092 13.0008 6.29672V6.38122C13.0014 6.43268 13.0014 6.48414 13.0008 6.5356V7.51547C13.0012 7.99945 12.8443 8.4704 12.5538 8.85756C12.2634 9.24472 11.8551 9.52714 11.3904 9.66226C10.9256 9.79746 10.4296 9.77804 9.97686 9.60701C9.52414 9.43598 9.13909 9.1226 8.87983 8.71391C8.36413 9.26795 7.67123 9.62464 6.92066 9.72247C6.17008 9.82021 5.40892 9.65292 4.76849 9.24951C4.12807 8.84602 3.64855 8.23169 3.41267 7.51248C3.17679 6.79327 3.19934 6.01427 3.47644 5.30989C3.75353 4.60552 4.26779 4.01996 4.93048 3.65423C5.59318 3.28851 6.36274 3.16555 7.10641 3.30659C7.85006 3.44763 8.52119 3.84381 9.00397 4.42677C9.48668 5.00974 9.75091 5.74293 9.75082 6.49985V7.51547C9.75082 7.78483 9.85783 8.04316 10.0483 8.23364C10.2387 8.42409 10.4971 8.5311 10.7664 8.5311C11.0358 8.5311 11.2942 8.42409 11.4846 8.23364C11.6751 8.04316 11.7821 7.78483 11.7821 7.51547V6.39179C11.7634 5.47394 11.5057 4.57681 11.0346 3.78889C10.5634 3.00098 9.89504 2.34949 9.0953 1.89868C8.29556 1.44789 7.39211 1.21333 6.47408 1.21818C5.55605 1.22301 4.65514 1.46708 3.8602 1.92629V1.92547ZM8.53207 6.49985C8.53207 5.96113 8.31806 5.44448 7.93714 5.06353C7.55621 4.6826 7.03955 4.4686 6.50082 4.4686C5.9621 4.4686 5.44544 4.6826 5.06451 5.06353C4.68358 5.44448 4.46957 5.96113 4.46957 6.49985C4.46957 7.03857 4.68358 7.55523 5.06451 7.93616C5.44544 8.31708 5.9621 8.5311 6.50082 8.5311C7.03955 8.5311 7.55621 8.31708 7.93714 7.93616C8.31806 7.55523 8.53207 7.03857 8.53207 6.49985Z" fill="#F2F2F2"/>
</svg>
