<svg width="379" height="62" viewBox="0 0 379 62" fill="none" xmlns="http://www.w3.org/2000/svg">
<g filter="url(#filter0_d_90_2)">
<path d="M12.72 43.652H32.784V53H0.94V1.776H32.48V11.124H12.72V22.752H30.352V32.024H12.72V43.652ZM53.9838 11.276V25.716H59.5318C64.5985 25.716 67.1318 23.2333 67.1318 18.268C67.1318 16.0893 66.4732 14.392 65.1558 13.176C63.8385 11.9093 62.0398 11.276 59.7598 11.276H53.9838ZM68.6518 53L57.5558 35.216H53.9838V53H42.2798V1.776H59.9878C65.7132 1.776 70.2985 3.296 73.7438 6.336C77.2398 9.376 78.9878 13.328 78.9878 18.192C78.9878 25.488 75.8718 30.5293 69.6398 33.316L82.6358 53H68.6518ZM100.667 11.276V25.716H106.215C111.282 25.716 113.815 23.2333 113.815 18.268C113.815 16.0893 113.157 14.392 111.839 13.176C110.522 11.9093 108.723 11.276 106.443 11.276H100.667ZM115.335 53L104.239 35.216H100.667V53H88.9634V1.776H106.671C112.397 1.776 116.982 3.296 120.427 6.336C123.923 9.376 125.671 13.328 125.671 18.192C125.671 25.488 122.555 30.5293 116.323 33.316L129.319 53H115.335ZM133.747 27.236C133.747 19.3827 136.002 13.0493 140.511 8.236C145.071 3.372 151.126 0.939995 158.675 0.939995C166.275 0.939995 172.33 3.34666 176.839 8.16C181.348 12.9733 183.603 19.332 183.603 27.236C183.603 35.0893 181.323 41.448 176.763 46.312C172.254 51.1253 166.224 53.532 158.675 53.532C151.075 53.532 145.02 51.1253 140.511 46.312C136.002 41.4987 133.747 35.14 133.747 27.236ZM149.631 15.836C147.402 18.6227 146.287 22.4227 146.287 27.236C146.287 32.0493 147.402 35.8747 149.631 38.712C151.86 41.4987 154.875 42.892 158.675 42.892C162.475 42.892 165.49 41.4987 167.719 38.712C169.948 35.8747 171.063 32.0493 171.063 27.236C171.063 22.4227 169.948 18.6227 167.719 15.836C165.49 12.9987 162.475 11.58 158.675 11.58C154.875 11.58 151.86 12.9987 149.631 15.836ZM203.312 11.276V25.716H208.86C213.927 25.716 216.46 23.2333 216.46 18.268C216.46 16.0893 215.801 14.392 214.484 13.176C213.167 11.9093 211.368 11.276 209.088 11.276H203.312ZM217.98 53L206.884 35.216H203.312V53H191.608V1.776H209.316C215.041 1.776 219.627 3.296 223.072 6.336C226.568 9.376 228.316 13.328 228.316 18.192C228.316 25.488 225.2 30.5293 218.968 33.316L231.964 53H217.98ZM267.932 12.568V21.004C269.046 20.852 270.161 20.776 271.276 20.776C276.697 20.776 280.852 22.1693 283.74 24.956C286.628 27.7427 288.072 31.5427 288.072 36.356C288.072 41.524 286.349 45.6787 282.904 48.82C279.509 51.9107 274.67 53.456 268.388 53.456C262.865 53.456 258.406 52.5693 255.012 50.796V40.308C258.457 42.436 262.308 43.5 266.564 43.5C273.353 43.5 276.748 41.068 276.748 36.204C276.748 34.38 276.038 32.936 274.62 31.872C273.252 30.808 271.174 30.276 268.388 30.276C264.486 30.276 260.737 31.112 257.14 32.784V3.144H285.032V12.568H267.932ZM293.012 27.92C293.012 20.016 294.532 13.7587 297.572 9.148C300.612 4.53733 305.121 2.232 311.1 2.232C317.078 2.232 321.588 4.53733 324.628 9.148C327.718 13.7587 329.264 20.016 329.264 27.92C329.264 35.7227 327.718 41.9547 324.628 46.616C321.588 51.2773 317.078 53.608 311.1 53.608C305.121 53.608 300.612 51.3027 297.572 46.692C294.532 42.0307 293.012 35.7733 293.012 27.92ZM311.1 12.112C306.59 12.112 304.336 17.3813 304.336 27.92C304.336 38.4587 306.59 43.728 311.1 43.728C315.66 43.728 317.94 38.4587 317.94 27.92C317.94 17.3813 315.66 12.112 311.1 12.112ZM334.574 27.92C334.574 20.016 336.094 13.7587 339.134 9.148C342.174 4.53733 346.683 2.232 352.662 2.232C358.641 2.232 363.15 4.53733 366.19 9.148C369.281 13.7587 370.826 20.016 370.826 27.92C370.826 35.7227 369.281 41.9547 366.19 46.616C363.15 51.2773 358.641 53.608 352.662 53.608C346.683 53.608 342.174 51.3027 339.134 46.692C336.094 42.0307 334.574 35.7733 334.574 27.92ZM352.662 12.112C348.153 12.112 345.898 17.3813 345.898 27.92C345.898 38.4587 348.153 43.728 352.662 43.728C357.222 43.728 359.502 38.4587 359.502 27.92C359.502 17.3813 357.222 12.112 352.662 12.112Z" fill="white"/>
</g>
<defs>
<filter id="filter0_d_90_2" x="0.94043" y="0.94043" width="377.886" height="60.668" filterUnits="userSpaceOnUse" color-interpolation-filters="sRGB">
<feFlood flood-opacity="0" result="BackgroundImageFix"/>
<feColorMatrix in="SourceAlpha" type="matrix" values="0 0 0 0 0 0 0 0 0 0 0 0 0 0 0 0 0 0 127 0" result="hardAlpha"/>
<feOffset dx="4" dy="4"/>
<feGaussianBlur stdDeviation="2"/>
<feComposite in2="hardAlpha" operator="out"/>
<feColorMatrix type="matrix" values="0 0 0 0 0 0 0 0 0 0 0 0 0 0 0 0 0 0 0.25 0"/>
<feBlend mode="normal" in2="BackgroundImageFix" result="effect1_dropShadow_90_2"/>
<feBlend mode="normal" in="SourceGraphic" in2="effect1_dropShadow_90_2" result="shape"/>
</filter>
</defs>
</svg>
