<svg width="142" height="32" viewBox="0 0 142 32" fill="none" xmlns="http://www.w3.org/2000/svg">
<path d="M41.0185 19.6187C41.0185 19.86 40.8135 20.0564 40.5688 20.0564H31.9051C32.1214 22.1663 33.7323 24.091 35.9978 24.091C37.5462 24.091 38.696 23.5074 39.5612 22.2897C39.6865 22.1214 39.8743 22.0148 40.1134 22.1158C40.2443 22.1719 40.3354 22.2897 40.3582 22.4244C40.3809 22.5647 40.3411 22.6432 40.3012 22.7218C39.4303 24.22 37.6942 24.9551 35.9922 24.9551C33.0777 24.9551 31 22.3851 31 19.6356C31 16.886 33.0777 14.316 35.9922 14.316C38.9066 14.3104 41.0128 16.8748 41.0185 19.6187V19.6187ZM40.0906 19.2035C39.9028 17.0936 38.2634 15.1689 35.9978 15.1689C33.7323 15.1689 32.1214 17.0936 31.9051 19.2035H40.0906ZM51.5322 14.5236C51.7826 14.5236 51.9648 14.7369 51.9648 14.9501C51.9648 15.197 51.7769 15.3766 51.5322 15.3766H49.2097V24.3603C49.2097 24.5735 49.0218 24.7868 48.7771 24.7868C48.5266 24.7868 48.3445 24.5735 48.3445 24.3603V15.3766H46.1131C45.8626 15.3766 45.6805 15.1914 45.6805 14.9501C45.6805 14.7369 45.8683 14.5236 46.1131 14.5236H48.3445V11.2354C48.3445 11.0278 48.4868 10.837 48.6917 10.8033C48.982 10.7584 49.2097 10.9548 49.2097 11.2242V14.5236H51.5322ZM65.7003 18.8668V24.3098C65.7003 24.5567 65.484 24.7363 65.2677 24.7363C65.0172 24.7363 64.8351 24.5511 64.8351 24.3098V18.8668C64.8351 17.0319 63.782 15.197 61.7043 15.197C59.0403 15.197 57.8905 17.492 58.0442 19.8432C58.0442 19.9049 58.0726 20.1799 58.0726 20.2079V24.293C58.0726 24.5006 57.9303 24.6914 57.7254 24.725C57.4351 24.7699 57.2074 24.5735 57.2074 24.3042V6.42646C57.2074 6.21323 57.3952 6 57.64 6C57.8905 6 58.0726 6.21323 58.0726 6.42646V16.5437C58.8183 15.2307 60.1503 14.3441 61.6986 14.3441C64.2431 14.3441 65.7003 16.5437 65.7003 18.8668V18.8668ZM81.2346 19.6187C81.2346 19.86 81.0297 20.0564 80.7849 20.0564H72.1155C72.3318 22.1663 73.9428 24.091 76.2083 24.091C77.7566 24.091 78.9065 23.5074 79.7717 22.2897C79.8969 22.1214 80.0848 22.0148 80.3238 22.1158C80.4548 22.1719 80.5458 22.2897 80.5686 22.4244C80.5914 22.5647 80.5515 22.6432 80.5117 22.7218C79.6408 24.22 77.9046 24.9551 76.2026 24.9551C73.2882 24.9551 71.2105 22.3851 71.2105 19.6356C71.2105 16.886 73.2882 14.316 76.2026 14.316C79.1228 14.3104 81.2289 16.8748 81.2346 19.6187V19.6187ZM80.3011 19.2035C80.1132 17.0936 78.4738 15.1689 76.2083 15.1689C73.9428 15.1689 72.3318 17.0936 72.1155 19.2035H80.3011ZM91.8678 14.922C91.8678 15.197 91.7142 15.3485 91.4637 15.3822C88.9192 15.7469 87.7751 17.795 87.7751 20.1799V24.2649C87.7751 24.4725 87.6328 24.6633 87.4278 24.697C87.1375 24.7419 86.9098 24.5455 86.9098 24.2761V14.9669C86.9098 14.7593 87.0522 14.5685 87.2571 14.5349C87.5474 14.49 87.7751 14.6864 87.7751 14.9557V16.8523C88.4866 15.6627 89.9154 14.5292 91.4011 14.5292C91.6174 14.5236 91.8678 14.6807 91.8678 14.922V14.922ZM106.099 19.6187C106.099 19.86 105.894 20.0564 105.649 20.0564H96.9852C97.2015 22.1663 98.8125 24.091 101.078 24.091C102.626 24.091 103.776 23.5074 104.641 22.2897C104.767 22.1214 104.954 22.0148 105.194 22.1158C105.324 22.1719 105.416 22.2897 105.438 22.4244C105.461 22.5647 105.421 22.6432 105.381 22.7218C104.51 24.22 102.774 24.9551 101.072 24.9551C98.1578 24.9551 96.0801 22.3851 96.0801 19.6356C96.0801 16.886 98.1578 14.316 101.072 14.316C103.987 14.3104 106.093 16.8748 106.099 19.6187V19.6187ZM105.171 19.2035C104.983 17.0936 103.344 15.1689 101.078 15.1689C98.8125 15.1689 97.2015 17.0936 96.9852 19.2035H105.171V19.2035ZM120.085 15.0286V24.3603C120.085 24.6072 119.868 24.7868 119.652 24.7868C119.402 24.7868 119.219 24.6016 119.219 24.3603V22.5871C118.508 23.9956 117.233 25 115.622 25C113.049 25 111.62 22.8003 111.62 20.4773V15.0062C111.62 14.793 111.808 14.5797 112.053 14.5797C112.303 14.5797 112.485 14.793 112.485 15.0062V20.4773C112.485 22.3122 113.538 24.1471 115.616 24.1471C118.531 24.1471 119.214 21.4592 119.214 18.4908V15.0062C119.214 14.7593 119.464 14.5068 119.772 14.5966C119.959 14.6583 120.085 14.8379 120.085 15.0286V15.0286ZM142 18.8331V24.3042C142 24.5511 141.784 24.7307 141.567 24.7307C141.317 24.7307 141.135 24.5455 141.135 24.3042V18.8331C141.135 16.9982 140.082 15.197 138.004 15.197C135.397 15.197 134.406 17.9465 134.406 20.0845V24.3042C134.406 24.5511 134.19 24.7307 133.974 24.7307C133.723 24.7307 133.541 24.5455 133.541 24.3042V18.8331C133.541 16.9982 132.488 15.197 130.41 15.197C127.775 15.197 126.688 17.2451 126.784 19.9666C126.784 20.0283 126.813 20.1518 126.784 20.1799V24.293C126.784 24.5006 126.642 24.6914 126.432 24.725C126.141 24.7699 125.914 24.5735 125.914 24.3042V14.9669C125.914 14.7593 126.056 14.5685 126.261 14.5349C126.551 14.49 126.779 14.6864 126.779 14.9557V16.5156C127.524 15.2026 128.856 14.3441 130.405 14.3441C132.169 14.3441 133.536 15.4439 134.093 17.0656C134.805 15.4776 136.2 14.3441 137.998 14.3441C140.543 14.3441 142 16.51 142 18.8331" fill="white"/>
<path fill-rule="evenodd" clip-rule="evenodd" d="M1 16.6303L10.4198 22.199V1L1 16.6303Z" fill="white"/>
<path fill-rule="evenodd" clip-rule="evenodd" d="M10.4209 1V22.199L19.8407 16.6303L10.4209 1Z" fill="#C1CCF5"/>
<path fill-rule="evenodd" clip-rule="evenodd" d="M10.4208 12.3486L1.00031 16.6298L10.4201 22.1984L19.8406 16.6304L10.4208 12.3486Z" fill="#8299EC"/>
<path fill-rule="evenodd" clip-rule="evenodd" d="M10.4208 12.3486L1.00031 16.6298L10.4201 22.1984L10.4208 12.3486Z" fill="#C1CCF5"/>
<path fill-rule="evenodd" clip-rule="evenodd" d="M1.00031 18.417L10.4201 31.6917V23.9825L1.00031 18.417Z" fill="white"/>
<path fill-rule="evenodd" clip-rule="evenodd" d="M10.4209 23.9825V31.6924L19.8469 18.417L10.4209 23.9825Z" fill="#C1CCF5"/>
</svg>
