<svg width="119" height="70" viewBox="0 0 119 70" fill="none" xmlns="http://www.w3.org/2000/svg">
<path d="M103.8 66.5H15.1998C8.89981 66.5 3.7998 61.4 3.7998 55.1V15.5C3.7998 9.19998 8.89981 4.09998 15.1998 4.09998H103.9C110.2 4.09998 115.3 9.19998 115.3 15.5V55C115.3 61.4 110.2 66.5 103.8 66.5Z" stroke="#000000" stroke-width="7" stroke-linecap="round" stroke-linejoin="round"/>
<path d="M57.5 56.2C56 56.2 54.5 56 52.9 55.7C51.4 55.5 50 55.1 48.7 54.8C47.4 54.4 46.3 53.9 45.5 53.5C44.7 53.1 44 52.5 43.8 52C43.5 51.4 43.3 50.9 43.3 50.3C43.3 49.8 43.4 49.4 43.5 49C43.7 48.6 43.9 48.2 44.1 47.9C44.4 47.6 44.7 47.3 45.1 47.1C45.5 46.9 46 46.8 46.5 46.8C47.1 46.8 47.7 46.9 48.2 47.1C48.7 47.3 49.5 47.5 50.2 47.7C51.4 48.1 52.7 48.3 54.2 48.6C55.7 48.8 57.3 49 59 49C59.9 49 60.7 48.9 61.5 48.8C62.4 48.6 63.2 48.3 63.8 48C64.5 47.6 65.1 47.1 65.5 46.6C65.9 46.1 66.1 45.3 66.1 44.5C66.1 43.8 65.9 43.2 65.6 42.6C65.3 42 64.8 41.6 64.3 41.2C63.7 40.8 63.1 40.5 62.4 40.2C61.7 39.9 60.9 39.6 60 39.3L58.3 38.8C57.9 38.7 57.5 38.6 57.1 38.5C56.7 38.4 56.3 38.3 55.9 38.1L53.5 37.4C52.9 37.2 52.2 37 51.6 36.8C51 36.6 50.6 36.4 50.2 36.3C47.7 35.4 45.8 34.1 44.4 32.4C43.1 30.7 42.5 28.5 42.5 25.9C42.5 24.3 42.8 22.8 43.4 21.4C44 20 45 18.8 46.2 17.7C47.5 16.7 49 15.8 50.8 15.1C52.6 14.5 54.7 14 57 13.8V11.7C57 11 57.2 10.4 57.6 10C58 9.60002 58.4 9.40002 58.9 9.40002C59.4 9.40002 59.8 9.60002 60.2 9.90002C60.6 10.2 60.8 10.7 60.8 11.3V13.5C62.3 13.6 63.8 13.7 65.3 13.9C66.8 14.1 68.2 14.4 69.5 14.8C70.8 15.2 71.8 15.7 72.6 16.5C73.4 17.2 73.8 18.1 73.8 19.1C73.8 20 73.5 20.7 72.9 21.3C72.3 21.9 71.5 22.2 70.5 22.2C70.4 22.2 70.3 22.2 70.2 22.2C70.1 22.2 70 22.2 69.9 22.2C69.3 22.1 68.9 22 68.4 21.9C67.9 21.8 67.4 21.7 66.7 21.6C66.1 21.5 65.4 21.4 64.7 21.3C63.9 21.2 63 21.1 61.9 21C61.4 21 61 20.9 60.6 20.9C60.1 20.9 59.7 20.8 59.3 20.8C58.4 20.8 57.6 20.9 56.8 21C55.9 21.2 55.2 21.4 54.6 21.7C54 22 53.4 22.4 53 23C52.6 23.5 52.4 24.1 52.4 24.8C52.4 25.7 52.6 26.4 53 26.9C53.4 27.5 54 28 54.7 28.4C55.4 28.8 56.2 29.2 57.1 29.5C58 29.8 58.8 30.1 59.8 30.3L62.6 31.1C64.6 31.7 66.3 32.4 68 33C69.7 33.6 71.1 34.4 72.3 35.3C73.5 36.2 74.4 37.3 75.1 38.5C75.7 39.8 76.1 41.3 76.1 43.2C76.1 45.1 75.8 46.8 75.1 48.3C74.4 49.8 73.4 51.1 72 52.2C70.6 53.3 69.1 54.2 67.3 54.9C65.4 55.5 63.4 56 61.1 56.1V58.5C61.1 58.8 61.1 59.1 61 59.4C60.9 59.7 60.8 60 60.7 60.2C60.5 60.4 60.4 60.6 60.1 60.8C59.8 61 59.5 61 59.2 61C58.7 61 58.3 60.8 57.9 60.5C57.5 60.2 57.3 59.7 57.3 59.1V56.1L57.5 56.2C57.5 56.2 57.5 56.1 57.5 56.2Z" fill="black"/>
</svg>
