<svg width="141" height="129" viewBox="0 0 141 129" fill="none" xmlns="http://www.w3.org/2000/svg">
<path d="M81.7001 7.5H26.7001C26.7001 7.5 34.8001 14.3 42.6001 21.8C26.6001 33.8 11.1001 50.4 11.1001 77.5C11.1001 84.7 12.1001 91.5 13.8001 98.3C20.1001 73.1 43.4001 56 66.2001 44.8L81.6001 60.7L81.7001 7.5Z" stroke="black" stroke-width="7" stroke-miterlimit="10" stroke-linecap="round" stroke-linejoin="round"/>
<path d="M65.2999 121.6H113.8C113.8 121.6 105.7 114.8 97.8999 107.3C113.9 95.3 129.4 78.7 129.4 51.6C129.4 44.4 128.4 37.6 126.7 30.8C120.5 56 97.1999 73.2 74.3999 84.3L58.8999 68.4V115.2C58.8999 118.7 61.7999 121.6 65.2999 121.6Z" stroke="black" stroke-width="7" stroke-miterlimit="10" stroke-linecap="round" stroke-linejoin="round"/>
</svg>
