<svg width="38" height="38" viewBox="0 0 38 38" fill="none" xmlns="http://www.w3.org/2000/svg">
<path d="M21.9688 11.875H22.5254V12.9883C22.5254 13.6031 23.0238 14.1016 23.6387 14.1016C24.2535 14.1016 24.752 13.6031 24.752 12.9883V11.875H25.3086C25.9234 11.875 26.4219 11.3765 26.4219 10.7617V4.82422C26.4219 4.20939 25.9234 3.71094 25.3086 3.71094H24.752V2.59766C24.752 1.98283 24.2535 1.48438 23.6387 1.48438C23.0238 1.48438 22.5254 1.98283 22.5254 2.59766V3.71094H21.9688C21.3539 3.71094 20.8555 4.20939 20.8555 4.82422V10.7617C20.8555 11.3765 21.3539 11.875 21.9688 11.875Z" fill="white"/>
<path d="M12.6914 14.8438H16.0312C16.6461 14.8438 17.1445 14.3453 17.1445 13.7305V7.79297C17.1445 7.17814 16.6461 6.67969 16.0312 6.67969H12.6914C12.0766 6.67969 11.5781 7.17814 11.5781 7.79297V13.7305C11.5781 14.3453 12.0766 14.8438 12.6914 14.8438Z" fill="white"/>
<path d="M31.2461 8.16406H34.5859C35.2008 8.16406 35.6992 7.66561 35.6992 7.05078V1.11328C35.6992 0.498453 35.2008 0 34.5859 0H31.2461C30.6313 0 30.1328 0.498453 30.1328 1.11328V7.05078C30.1328 7.66561 30.6313 8.16406 31.2461 8.16406Z" fill="white"/>
<path d="M3.41406 20.0391H3.9707V21.1523C3.9707 21.7672 4.46916 22.2656 5.08398 22.2656C5.69881 22.2656 6.19727 21.7672 6.19727 21.1523V20.0391H6.75391C7.36873 20.0391 7.86719 19.5406 7.86719 18.9258V12.9883C7.86719 12.3735 7.36873 11.875 6.75391 11.875H6.19727V10.7617C6.19727 10.1469 5.69881 9.64844 5.08398 9.64844C4.46916 9.64844 3.9707 10.1469 3.9707 10.7617V11.875H3.41406C2.79923 11.875 2.30078 12.3735 2.30078 12.9883V18.9258C2.30078 19.5406 2.79923 20.0391 3.41406 20.0391Z" fill="white"/>
<path d="M36.8867 35.7734H35.6992V26.4961C35.6992 25.8813 35.2008 25.3828 34.5859 25.3828H31.2461C30.6313 25.3828 30.1328 25.8813 30.1328 26.4961V35.7734H26.4219V24.2695C26.4219 23.6547 25.9234 23.1562 25.3086 23.1562H21.9688C21.3539 23.1562 20.8555 23.6547 20.8555 24.2695V35.7734H17.1445V30.207C17.1445 29.5922 16.6461 29.0938 16.0312 29.0938H12.6914C12.0766 29.0938 11.5781 29.5922 11.5781 30.207V35.7734H7.86719V31.6914C7.86719 31.0766 7.36873 30.5781 6.75391 30.5781H3.41406C2.79923 30.5781 2.30078 31.0766 2.30078 31.6914V35.7734H1.11328C0.498453 35.7734 0 36.2719 0 36.8867C0 37.5015 0.498453 38 1.11328 38H36.8867C37.5015 38 38 37.5015 38 36.8867C38 36.2719 37.5015 35.7734 36.8867 35.7734Z" fill="white"/>
<path d="M1.11328 27.832H8.90625C9.20149 27.832 9.48464 27.7148 9.69341 27.5059L16.7892 20.4102H29.3906C29.6859 20.4102 29.969 20.2929 30.1778 20.084L35.6992 14.5627V16.3281C35.6992 16.943 36.1977 17.4414 36.8125 17.4414C37.4273 17.4414 37.9258 16.943 37.9258 16.3281V11.875C37.9258 11.2602 37.4273 10.7617 36.8125 10.7617H32.3594C31.7445 10.7617 31.2461 11.2602 31.2461 11.875C31.2461 12.4898 31.7445 12.9883 32.3594 12.9883H34.1248L28.9295 18.1836H16.3281C16.0329 18.1836 15.7497 18.3009 15.541 18.5096L8.44513 25.6055H1.11328C0.498453 25.6055 0 26.1039 0 26.7188C0 27.3336 0.498453 27.832 1.11328 27.832Z" fill="white"/>
</svg>
