<svg width="54" height="59" viewBox="0 0 54 59" fill="none" xmlns="http://www.w3.org/2000/svg">
<path opacity="0.122" d="M52.3529 41.1148C52.3529 42.6757 51.2325 44.6143 49.8227 45.4073L29.7444 56.7871C28.3472 57.5927 26.0435 57.5927 24.6462 56.7871L4.55541 45.4073C3.14553 44.6143 2 42.6757 2 41.1148V18.2797C2 16.7062 3.15812 14.7676 4.55541 13.9745L24.6588 2.59479C26.0561 1.80174 28.3597 1.80174 29.7696 2.59479L49.8227 13.9745C51.2325 14.7676 52.3529 16.7062 52.3529 18.2797V41.1148Z" stroke="#4F5A68" stroke-width="3"/>
<path d="M51.084 40.8177C51.084 42.3113 50.016 44.1662 48.672 44.925L29.532 55.8135C28.2 56.5843 26.004 56.5843 24.672 55.8135L5.51999 44.925C4.17599 44.1662 3.08398 42.3113 3.08398 40.8177V18.9685C3.08398 17.4629 4.18799 15.608 5.51999 14.8492L24.684 3.96072C26.016 3.2019 28.212 3.2019 29.556 3.96072L48.672 14.8492C50.016 15.608 51.084 17.4629 51.084 18.9685V40.8177Z" stroke="url(#paint0_linear_3293_17676)" stroke-width="2"/>
<defs>
<linearGradient id="paint0_linear_3293_17676" x1="27.084" y1="-23.1084" x2="-25.6569" y2="24.6569" gradientUnits="userSpaceOnUse">
<stop offset="0.421875" stop-color="#C126CE"/>
<stop offset="1" stop-color="#284CCB"/>
</linearGradient>
</defs>
</svg>
