<?xml version="1.0" encoding="utf-8"?>
<!-- Generator: Adobe Illustrator 26.0.3, SVG Export Plug-In . SVG Version: 6.00 Build 0)  -->
<svg version="1.1" id="Слой_1" xmlns="http://www.w3.org/2000/svg" xmlns:xlink="http://www.w3.org/1999/xlink" x="0px" y="0px"
	 viewBox="0 0 140.6 129" style="enable-background:new 0 0 140.6 129;" xml:space="preserve">
<style type="text/css">
	.st0{fill:none;stroke:#000000;stroke-width:7;stroke-linecap:round;stroke-linejoin:round;stroke-miterlimit:10;}
	.st1{fill:none;stroke:#000000;stroke-width:6;stroke-linecap:round;stroke-linejoin:round;stroke-miterlimit:10;}
</style>
<path class="st0" d="M86.9,120.6L87,109c1-2.2,3.5-3.4,5.8-2.8l7,1.7c5.7,1.4,11.4-2.2,12.5-8l3.9-20.8c0.2-0.9,0.6-1.8,1.3-2.5
	l3.7-4c2.8-3,2.8-7.6-0.1-10.5l-7.5-7.7c-2-2.1-3.1-4.9-3-7.8c0.5-11.3-2.4-41.1-48.1-41.1c-55.1,0-52.1,53.3-27,80.5
	c1,1.1,1.5,2.7,1.2,4.2l0.1,27.5c-0.5,3.1,1.9,5.8,5,5.8h40.4C84.3,123.5,86.1,122.4,86.9,120.6z"/>
<path class="st1" d="M49.3,55.4c0-9.1,7.2-16.4,16.3-16.6c9-0.2,16.6,7,17,15.9c0.1,3.1-0.6,5.9-1.9,8.4c-0.7,1.4-1.4,3-2,4.5
	l-3.4,9.8h-9.2H55.9l-2.6-8.6c-0.6-2-1.3-4-2.2-5.8C49.9,60.7,49.3,58.1,49.3,55.4z"/>
<path class="st1" d="M55.7,87h20.9c0.7,0,1.2-0.5,1.2-1.2l-0.2-8.5H54.3l0.2,8.5C54.5,86.6,55.1,87,55.7,87z"/>
<line class="st1" x1="66.1" y1="22.7" x2="66.1" y2="29.7"/>
<line class="st1" x1="52.4" y1="25.8" x2="56" y2="31.7"/>
<line class="st1" x1="41.9" y1="33.4" x2="47.2" y2="37.8"/>
<line class="st1" x1="80" y1="25.8" x2="76.4" y2="31.7"/>
<line class="st1" x1="90.6" y1="33.4" x2="85.3" y2="37.8"/>
<line class="st1" x1="95.6" y1="46.8" x2="88.6" y2="46.7"/>
<line class="st1" x1="36.2" y1="46.8" x2="43.2" y2="46.7"/>
</svg>
