<svg width="10" height="11" viewBox="0 0 10 11" fill="none" xmlns="http://www.w3.org/2000/svg">
<path d="M4.16659 9.75031C4.16658 9.677 4.15079 9.60459 4.12036 9.53821C4.08992 9.47183 4.04558 9.41311 3.99047 9.3662C3.93537 9.3193 3.87084 9.28535 3.80147 9.26678C3.7321 9.24821 3.65959 9.24547 3.58906 9.25874C2.94899 9.37883 2.14084 9.39689 1.92596 8.77987C1.7386 8.302 1.42825 7.88487 1.0278 7.57269C0.999234 7.5568 0.972003 7.53852 0.946395 7.51802C0.911348 7.42351 0.849099 7.34208 0.76786 7.28447C0.686622 7.22687 0.59021 7.19579 0.491343 7.19535H0.488957C0.359678 7.1953 0.235646 7.24762 0.144008 7.34084C0.0523709 7.43407 0.000592686 7.56061 6.85555e-06 7.69278C-0.00190494 8.10038 0.396546 8.36154 0.558192 8.4499C0.748807 8.64569 0.901999 8.87614 1.0099 9.1294C1.188 9.64098 1.7056 10.4171 3.19346 10.3171C3.19395 10.3347 3.19442 10.3512 3.19466 10.3664L3.1968 10.5001C3.1968 10.6327 3.24832 10.7598 3.34001 10.8536C3.43171 10.9473 3.55608 11 3.68575 11C3.81543 11 3.9398 10.9473 4.03149 10.8536C4.12319 10.7598 4.1747 10.6327 4.1747 10.5001L4.17232 10.341C4.16993 10.2463 4.16659 10.1091 4.16659 9.75031ZM9.38222 2.18934C9.39774 2.12686 9.41302 2.05754 9.42639 1.97944C9.50547 1.42238 9.43653 0.853839 9.2268 0.333384C9.20033 0.265534 9.15967 0.204423 9.10767 0.154334C9.05566 0.104245 8.99357 0.0663918 8.92574 0.0434272C8.75167 -0.0166166 8.10899 -0.13475 6.87993 0.668259C5.85829 0.422472 4.79479 0.422472 3.77314 0.668259C2.54909 -0.122988 1.90973 -0.0156168 1.73735 0.0410079C1.66786 0.0630422 1.60406 0.100695 1.55065 0.151207C1.49723 0.201719 1.45555 0.26381 1.42866 0.332929C1.21464 0.863376 1.14645 1.44352 1.23145 2.0107C1.24339 2.07464 1.25628 2.13371 1.26965 2.18789C0.864593 2.73947 0.648839 3.41225 0.655841 4.10193C0.654521 4.2558 0.661455 4.40964 0.676611 4.56274C0.839921 6.86339 2.30677 7.55412 3.32883 7.79137C3.30758 7.85385 3.28825 7.92072 3.27105 7.99151C3.24042 8.12012 3.26092 8.25591 3.32807 8.36909C3.39521 8.48227 3.50352 8.56362 3.62925 8.59528C3.75497 8.62694 3.88784 8.60635 3.99873 8.538C4.10962 8.46966 4.18948 8.35915 4.22078 8.2307C4.25189 8.06415 4.33164 7.91115 4.4495 7.79185C4.52077 7.72807 4.57237 7.64448 4.59802 7.55127C4.62368 7.45805 4.62228 7.35922 4.594 7.2668C4.56572 7.17438 4.51178 7.09236 4.43874 7.0307C4.3657 6.96905 4.2767 6.93043 4.18259 6.91953C2.4937 6.72232 1.76051 6.0189 1.65021 4.47097C1.638 4.34837 1.6325 4.22517 1.63374 4.10193C1.6259 3.61039 1.78474 3.13123 2.0833 2.74585C2.1133 2.70568 2.14525 2.66706 2.17903 2.63016C2.2389 2.56168 2.27915 2.47766 2.29536 2.38733C2.31158 2.297 2.30313 2.20384 2.27096 2.11809C2.23797 2.02788 2.21257 1.93496 2.19504 1.84033C2.1552 1.57126 2.16827 1.29677 2.23347 1.03293C2.65843 1.15563 3.05838 1.35536 3.41428 1.62261C3.47314 1.66269 3.53973 1.68936 3.60956 1.70081C3.67938 1.71227 3.75079 1.70824 3.81896 1.689C4.80718 1.41483 5.84904 1.415 6.83717 1.6895C6.90571 1.70872 6.9775 1.71252 7.04761 1.70063C7.11772 1.68875 7.18447 1.66147 7.24328 1.62068C7.59751 1.35232 7.99579 1.1508 8.41934 1.02562C8.48425 1.28313 8.49877 1.55121 8.46207 1.81447C8.44437 1.91821 8.4167 2.01991 8.37947 2.1181C8.34729 2.20385 8.33885 2.29701 8.35506 2.38734C8.37128 2.47767 8.41153 2.56169 8.47139 2.63017C8.50911 2.67361 8.54683 2.72048 8.58073 2.76441C8.87718 3.14327 9.03334 3.61692 9.02171 4.10193C9.0226 4.2317 9.01646 4.36142 9.00333 4.49049C8.89566 6.01791 8.1596 6.72183 6.46284 6.91952C6.3687 6.93049 6.27969 6.96918 6.20666 7.03089C6.13363 7.0926 6.07971 7.17468 6.05145 7.26714C6.0232 7.35961 6.02184 7.45847 6.04753 7.55171C6.07322 7.64495 6.12486 7.72855 6.19616 7.79234C6.31773 7.91482 6.39765 8.07394 6.42416 8.24632C6.45721 8.38013 6.47238 8.5179 6.46929 8.65588V9.82256C6.4645 10.1462 6.4645 10.3888 6.4645 10.5001C6.4645 10.6327 6.51602 10.7598 6.60771 10.8536C6.69941 10.9473 6.82377 11 6.95345 11C7.08313 11 7.2075 10.9473 7.29919 10.8536C7.39089 10.7598 7.4424 10.6327 7.4424 10.5001C7.4424 10.3917 7.4424 10.154 7.44718 9.83037V8.65588C7.45112 8.43485 7.42566 8.2143 7.3715 8.00029C7.35601 7.93004 7.33704 7.86063 7.31467 7.79234C8.05849 7.66602 8.73433 7.27396 9.22188 6.68595C9.70944 6.09794 9.97708 5.35214 9.97716 4.58129C9.99327 4.42205 10.0008 4.26202 9.99961 4.10193C10.0105 3.4115 9.79291 2.73756 9.38221 2.18935L9.38222 2.18934Z" fill="white"/>
</svg>
