<svg width="9" height="7" viewBox="0 0 9 7" fill="none" xmlns="http://www.w3.org/2000/svg">
<path d="M4.85118 6.00006L8.85622 1.99495C8.94893 1.90231 9 1.77866 9 1.6468C9 1.51495 8.94893 1.39129 8.85622 1.29866L8.56135 1.00371C8.3692 0.811787 8.05691 0.811787 7.86506 1.00371L4.50187 4.3669L1.13494 0.99998C1.04224 0.907347 0.918654 0.856201 0.786874 0.856201C0.654949 0.856201 0.531364 0.907347 0.438585 0.99998L0.143782 1.29493C0.0510757 1.38764 3.2397e-06 1.51122 3.23394e-06 1.64307C3.22818e-06 1.77493 0.0510757 1.89858 0.143782 1.99122L4.15248 6.00006C4.24548 6.09291 4.36965 6.14391 4.50165 6.14362C4.63416 6.14391 4.75826 6.09291 4.85118 6.00006Z" fill="url(#paint0_linear_1622_3367)"/>
<defs>
<linearGradient id="paint0_linear_1622_3367" x1="3.38992e-06" y1="0.856201" x2="3.11535" y2="8.88938" gradientUnits="userSpaceOnUse">
<stop stop-color="#2973FF"/>
<stop offset="0.48974" stop-color="#8846D3"/>
<stop offset="1" stop-color="#FF22AC"/>
</linearGradient>
</defs>
</svg>
