<svg width="20" height="20" viewBox="0 0 20 20" fill="none" xmlns="http://www.w3.org/2000/svg">
<path d="M10 2C11.65 2 13 3.34 13 5C13 6.65 11.65 8 10 8C8.35 8 7 6.65 7 5C7 3.34 8.35 2 10 2ZM10 0C7.24 0 5 2.24 5 5C5 7.76 7.24 10 10 10C12.76 10 15 7.76 15 5C15 2.24 12.76 0 10 0ZM3 20V18C3 15.79 4.79 14 7 14H13C15.21 14 17 15.79 17 18V20H19V18C19 14.69 16.31 12 13 12H7C3.69 12 1 14.69 1 18V20H3ZM20 8.04999C18.87 8.04999 17.95 7.13 17.95 6C17.95 4.87 18.87 3.95001 20 3.95001V1.95001C17.76 1.95001 15.95 3.76 15.95 6C15.95 8.24 17.76 10.05 20 10.05V8.04999ZM0 8.04999C1 8.04999 2.05 7.13 2.05 6C2.05 4.87 1 3.95001 0 3.95001V1.95001C2 1.95001 4.05 3.76 4.05 6C4.05 8.24 2 10.05 0 10.05V8.04999Z" fill="#AFB0C0"/>
</svg>
