<?xml version="1.0" standalone="no"?>
<!DOCTYPE svg PUBLIC "-//W3C//DTD SVG 20010904//EN"
 "http://www.w3.org/TR/2001/REC-SVG-20010904/DTD/svg10.dtd">
<svg version="1.0" xmlns="http://www.w3.org/2000/svg"
 width="1435.000000pt" height="1424.000000pt" viewBox="0 0 1435.000000 1424.000000"
 preserveAspectRatio="xMidYMid meet">
<metadata>
Created by potrace 1.16, written by Peter Selinger 2001-2019
</metadata>
<g transform="translate(0.000000,1424.000000) scale(0.100000,-0.100000)"
fill="#000000" stroke="none">
<path d="M2126 13960 c-27 -5 -72 -16 -100 -25 -522 -168 -1531 -1204 -1713
-1760 -34 -106 -37 -244 -7 -321 53 -131 523 -688 1164 -1379 681 -735 1892
-1966 2989 -3038 l324 -318 -209 -212 c-981 -991 -3896 -4015 -4197 -4353 -79
-89 -99 -205 -56 -332 109 -324 928 -1254 1483 -1684 340 -263 571 -339 760
-250 146 69 429 305 916 763 650 611 1856 1823 3080 3094 217 226 442 459 500
518 l106 108 445 -473 c2142 -2275 3560 -3667 4024 -3949 214 -130 314 -117
609 78 477 317 1093 865 1395 1243 295 368 376 646 257 877 -72 140 -871 1003
-1946 2102 -393 402 -2270 2278 -2411 2410 l-67 62 888 887 c1543 1543 2417
2475 3065 3267 231 282 543 721 532 748 -7 18 -261 315 -467 547 -278 312
-505 553 -751 795 -328 323 -534 487 -698 557 -66 28 -88 32 -166 33 -110 0
-141 -14 -325 -145 -763 -544 -2232 -1970 -4134 -4013 l-258 -278 -87 83 c-47
45 -295 285 -551 533 -2241 2172 -3630 3459 -4031 3735 -121 84 -238 113 -363
90z m151 -536 c446 -335 1969 -1757 4128 -3854 270 -262 554 -538 631 -613
l141 -137 204 223 c1652 1802 3275 3424 4114 4112 168 138 379 295 396 295 18
0 139 -91 264 -199 213 -184 646 -634 1009 -1046 82 -94 160 -182 173 -196
l24 -26 -102 -134 c-548 -720 -1612 -1871 -3174 -3434 -309 -308 -727 -722
-930 -919 -204 -198 -371 -362 -373 -365 -1 -4 304 -308 679 -676 1045 -1028
2218 -2213 2940 -2970 630 -661 1059 -1138 1059 -1177 0 -23 -45 -115 -92
-189 -98 -154 -356 -436 -598 -655 -259 -234 -610 -513 -808 -642 l-83 -54
-39 26 c-122 80 -424 342 -780 675 -245 229 -1450 1438 -1886 1891 -601 624
-1169 1224 -1719 1815 -154 165 -283 300 -286 300 -4 0 -116 -115 -250 -255
-940 -986 -1925 -1995 -2765 -2831 -928 -924 -1378 -1347 -1673 -1575 -106
-82 -97 -81 -204 -16 -332 202 -971 839 -1340 1337 -120 163 -123 169 -97 202
48 62 1204 1270 2035 2128 624 645 1676 1726 2089 2148 230 235 438 449 461
475 l43 48 -286 274 c-157 151 -672 660 -1145 1130 -1626 1617 -2607 2655
-3154 3338 l-115 143 37 77 c160 337 694 928 1106 1225 87 62 257 157 282 157
5 0 43 -25 84 -56z"/>
</g>
</svg>
