<?xml version="1.0" encoding="utf-8"?>
<!-- Generator: Adobe Illustrator 26.0.3, SVG Export Plug-In . SVG Version: 6.00 Build 0)  -->
<svg version="1.1" id="Слой_1" xmlns="http://www.w3.org/2000/svg" xmlns:xlink="http://www.w3.org/1999/xlink" x="0px" y="0px"
	 viewBox="0 0 140.6 129" style="enable-background:new 0 0 140.6 129;" xml:space="preserve">
<style type="text/css">
    .st0{fill:white;}
	.st1{fill:white;}
</style>
<path class="st0" d="M130.3,13.5H36.5c-3.4,0-6.1,3-6.1,6.6v30.1H6.2c-2.2,0-4,1.8-4,4v43.1c0,9.6,7.8,17.4,17.4,17.4h0.7H21h16.2
	h82.6c9.6,0,17.4-7.8,17.4-17.4V20.1C137.2,16.3,133.6,13.5,130.3,13.5z M20.3,106.6h-0.7c-5.2,0-9.4-4.2-9.4-9.4V58.1h20.2v35.6
	v3.5c0,5.2-4.2,9.4-9.4,9.4H20.3z M129.2,97.2c0,5.2-4.2,9.4-9.4,9.4H37.2h-1.7c1.8-2.7,2.8-6,2.8-9.4v-3.5V54.2V21.4h90.9V97.2z"/>

<path fill="#ffffff" d="M93.1,99.8c-2.2,0-4-1.8-4-4V74.2
	c0-1.6-1.6-3-3.5-3H57.8c-2,0-3.5,1.3-3.5,3v21.7c0,2.2-1.8,4-4,4s-4-1.8-4-4V74.2c0-6.1,5-10.9,11.5-10.9h27.8
	c6.3,0,11.5,4.9,11.5,10.9v21.7C97.1,98,95.3,99.8,93.1,99.8z M87.5,47.2c0-8.4-7.1-15.2-15.9-15.2s-15.9,6.8-15.9,15.2
	c0,8.4,7.1,15.2,15.9,15.2S87.5,55.6,87.5,47.2z M79.6,47.2c0,4-3.6,7.3-8,7.3c-4.4,0-8-3.3-8-7.3c0-4,3.6-7.3,8-7.3
	C76,40,79.6,43.2,79.6,47.2z M120.7,78.9V62.5c0-4.8-4.1-8.6-9.1-8.6H90.5c-1.9,0-3.4,1.5-3.4,3.4s1.5,3.4,3.4,3.4h21.1
	c1.2,0,2.3,0.8,2.3,1.8v16.5c0,1.9,1.5,3.4,3.4,3.4C119.2,82.3,120.7,80.8,120.7,78.9z M114.7,40.8c0,6.6-5.6,11.9-12.5,11.9
	c-6.9,0-12.5-5.4-12.5-11.9s5.6-11.9,12.5-11.9C109.1,28.8,114.7,34.2,114.7,40.8z M107.9,40.8c0-2.8-2.5-5.1-5.7-5.1
	c-3.1,0-5.7,2.3-5.7,5.1s2.5,5.1,5.7,5.1C105.3,45.9,107.9,43.6,107.9,40.8z"/>
</svg>
