<svg width="327" height="1280" viewBox="0 0 327 1280" fill="none" xmlns="http://www.w3.org/2000/svg">
<g clip-path="url(#clip0_314_56)">
<path d="M806.425 -430.951C751.56 -369.065 737.192 -278.081 768.849 -193.138C786.542 -145.784 817.13 -101.301 838.046 -54.5774C858.963 -7.86328 869.343 45.0852 845.631 84.0774C813.554 136.795 730.578 145.783 657.794 130.589C585.01 115.385 515.207 81.551 442.574 65.0748C343.19 42.5249 238.474 55.6899 169.412 108.634C100.351 161.577 72.4412 255.859 109.794 342.475C158.807 456.306 305.93 544.536 315.904 660.594C321.438 724.735 280.921 778.63 231.292 817.521C181.597 856.378 121.717 884.783 73.8254 925.422C25.934 966.061 -10.0973 1023.64 2.60581 1088.07M1034.86 -214.595C955.959 -104.512 816.495 -44.1741 678.251 5.55753C540.007 55.2892 394.521 99.9255 289.222 189.737C200.48 265.459 145.284 371.526 134.279 487.646C122.926 607.246 157.103 732.822 177.946 856.195C198.787 979.566 205.032 1109.28 142.78 1208.89L1034.86 -214.595ZM1029.76 -218.421C953.836 -107.825 817.023 -45.6862 680.422 5.15265C543.823 55.9815 399.376 101.244 294.054 190.271C209.771 261.32 154.284 358.385 137.13 465.967C136.061 472.82 135.093 479.64 134.327 486.564C127.564 546.655 132.45 608.589 142.946 671.037C153.183 732.501 168.463 793.929 180.023 855.14C203.703 978.786 209.996 1110.05 146.522 1209.89L1029.76 -218.421ZM1024.7 -222.305C951.815 -111.16 817.517 -47.3113 682.592 4.73762C547.669 56.7767 404.298 102.589 298.884 190.815C213.792 261.609 156.558 357.772 137.549 464.991C136.345 471.774 135.275 478.627 134.407 485.585C126.561 545.627 130.496 607.92 141.733 670.58C152.545 732.086 169.216 793.127 182.1 854.084C208.28 978 214.924 1110.89 150.332 1210.92L1024.7 -222.305ZM1019.61 -226.132C949.76 -114.438 818.044 -48.8235 684.796 4.42565C551.548 57.6748 409.253 104.046 303.681 191.417C217.781 261.967 158.798 357.226 137.865 464.048C136.559 470.864 135.321 477.715 134.319 484.602C125.391 544.596 128.475 607.218 140.317 670.19C151.705 731.737 169.87 792.357 183.974 853.094C212.824 977.282 219.684 1111.73 153.938 1212.01L1019.61 -226.132ZM1014.52 -229.958C947.672 -117.819 818.504 -50.3713 686.967 4.02064C555.43 58.4026 414.375 105.668 308.513 191.951C221.936 262.495 161.074 356.614 138.284 463.073C136.844 469.819 135.503 476.702 134.367 483.52C124.391 543.399 126.524 606.379 139.005 669.599C150.967 731.186 170.626 791.387 185.952 851.903C217.471 976.363 224.548 1112.37 157.616 1212.81L1014.52 -229.958ZM1009.42 -233.775C945.616 -121.087 819.03 -51.8836 689.102 3.67298C559.174 59.2296 419.228 107.147 313.207 192.595C225.854 262.986 163.176 356.167 138.565 462.197C136.956 468.941 135.549 475.79 134.31 482.64C123.253 542.47 124.636 605.746 137.656 669.242C150.295 730.838 171.448 790.619 187.959 850.982C222.148 975.713 229.442 1113.28 161.356 1213.97L1009.42 -233.775ZM1004.37 -237.669C943.528 -124.468 819.526 -53.5087 691.273 3.25803C563.022 60.0248 424.218 108.537 318.039 193.129C229.909 263.378 165.451 355.555 138.985 461.221C137.308 467.931 135.731 474.777 134.323 481.626C122.185 541.408 122.65 604.976 136.342 668.819C149.555 730.457 172.203 789.818 189.935 849.959C226.828 974.895 234.304 1114.09 165.064 1215.03L1004.37 -237.669ZM999.273 -241.485C941.473 -127.745 820.052 -55.0208 693.511 2.88868C566.97 60.7882 429.208 109.917 322.937 193.699C234.067 263.737 167.794 354.976 139.403 460.246C137.557 466.953 135.913 473.765 134.438 480.579C121.218 540.313 120.834 604.207 135.165 668.295C148.987 729.908 173.094 788.916 192.082 848.77C231.711 974.012 239.27 1114.7 168.877 1215.9L999.273 -241.485ZM994.18 -245.312C939.418 -131.013 820.547 -56.636 695.647 2.5411C570.748 61.7183 434.06 111.406 327.667 194.265C237.953 264.127 169.966 354.396 139.72 459.303C137.807 465.976 135.993 472.785 134.35 479.596C120.046 539.282 118.711 603.537 133.75 667.905C148.146 729.559 173.814 788.181 193.956 847.78C236.322 973.329 243.995 1115.61 172.482 1216.99L994.18 -245.312ZM989.085 -249.128C937.295 -134.327 821.074 -58.1482 697.783 2.19351C574.493 62.5453 439.015 112.854 332.463 194.877C241.973 264.585 172.206 353.85 140.103 458.394C138.021 465.065 136.141 471.84 134.395 478.684C119.045 538.254 116.757 602.868 132.502 667.516C147.474 729.212 174.671 787.347 196.066 846.826C241.203 972.616 248.991 1116.48 176.292 1218.02L989.085 -249.128ZM983.992 -252.955C935.239 -137.595 821.534 -59.706 699.986 1.89152C578.438 63.479 443.97 114.311 337.225 195.546C245.925 265.009 174.411 353.372 140.385 457.519C138.236 464.154 136.186 470.927 134.305 477.701C117.941 537.258 114.736 602.165 131.086 667.126C146.631 728.862 175.391 786.612 197.939 845.836C245.848 971.864 253.751 1117.32 179.898 1219.12L983.992 -252.955ZM978.933 -256.839C933.151 -140.975 822.096 -61.2855 702.191 1.40909C582.288 64.1038 448.927 115.588 342.092 196.013C250.015 265.334 176.788 352.727 140.839 456.476C138.52 463.109 136.403 469.848 134.421 476.654C116.974 536.164 112.851 601.363 129.909 666.604C146.029 728.381 176.384 785.678 200.052 844.714C250.697 971.049 258.749 1118.03 183.744 1220.08L978.933 -256.839ZM973.84 -260.665C931.131 -144.321 822.555 -62.8334 704.328 1.0615C586.1 64.9664 453.815 117.01 346.889 196.615C253.968 265.758 179.028 352.182 141.223 455.568C138.837 462.167 136.484 468.867 134.4 475.707C115.87 535.168 110.898 600.694 128.595 666.179C145.29 727.999 177.206 784.911 202.027 843.691C255.511 970.3 263.611 1118.84 187.384 1221.11L973.84 -260.665ZM968.746 -264.482C929.074 -147.589 823.083 -64.3555 706.531 0.759513C589.979 65.8646 458.735 118.525 351.684 197.227C258.024 266.149 181.269 351.636 141.539 454.625C138.985 461.221 136.564 467.887 134.345 474.657C114.733 534.071 108.844 599.889 127.214 665.722C144.483 727.582 177.996 784.041 204.003 842.668C260.258 969.517 268.472 1119.65 191.092 1222.18L968.746 -264.482ZM963.652 -268.308C926.952 -150.902 823.542 -65.9033 708.701 0.344566C593.861 66.5924 463.657 119.879 356.516 197.761C262.011 266.506 183.509 351.091 141.958 453.649C139.269 460.177 136.746 466.875 134.426 473.678C113.767 532.975 106.925 599.153 126.002 665.266C143.846 727.168 178.852 783.207 206.079 841.613C265.208 968.669 273.401 1120.49 194.902 1223.21L963.652 -268.308ZM958.559 -272.125C924.897 -154.18 824.069 -67.4155 710.838 -0.00301962C597.605 67.4194 468.544 121.301 361.211 198.395C265.897 266.896 185.646 350.578 142.24 452.774C139.449 459.333 136.791 465.962 134.302 472.763C112.56 532.012 104.835 598.584 124.55 664.943C142.97 726.886 179.572 782.472 207.919 840.69C269.818 967.985 278.126 1121.4 198.441 1224.27L958.559 -272.125ZM953.5 -276.019C922.808 -157.551 824.631 -68.995 713.008 -0.407988C601.385 68.179 473.4 122.61 366.042 198.939C269.885 267.253 187.922 349.964 142.659 451.798C139.733 458.288 136.974 464.95 134.417 471.716C111.594 530.917 102.951 597.782 123.373 664.419C142.367 726.405 180.565 781.539 210.031 839.568C274.769 967.137 283.125 1122.11 202.286 1225.23L953.5 -276.019ZM948.407 -279.835C920.754 -160.828 825.091 -70.5528 715.246 -0.787438C605.401 68.978 478.39 124 370.941 199.509C273.975 267.577 190.263 349.387 143.077 450.823C140.049 457.346 137.156 463.937 134.43 470.701C110.525 529.854 100.965 597.012 122.06 663.996C141.628 726.022 181.422 780.704 212.074 838.579C279.685 966.356 288.054 1122.95 206.061 1226.33L948.407 -279.835ZM943.313 -283.662C918.697 -164.096 825.652 -72.1325 717.382 -1.13502C609.111 69.8723 483.277 125.412 375.67 200.075C277.86 267.966 192.436 348.806 143.394 449.88C140.231 456.333 137.236 462.958 134.443 469.686C109.456 528.792 98.9777 596.241 120.779 663.506C140.855 725.539 182.381 779.837 214.084 837.49C284.568 965.472 292.95 1123.69 209.736 1227.29L943.313 -283.662ZM938.153 -287.514C916.507 -167.445 826.045 -73.7158 719.451 -1.50825C612.856 70.6993 488.031 126.762 380.4 200.641C281.848 268.323 194.609 348.226 143.711 448.936C140.447 455.423 137.317 461.977 134.355 468.703C108.32 527.694 96.9226 595.605 119.398 663.048C140.049 725.122 183.17 778.968 215.992 836.433C289.35 964.622 297.677 1124.43 213.377 1228.32L938.153 -287.514ZM933.059 -291.34C914.452 -170.723 826.572 -75.228 721.654 -1.82022C616.736 71.5875 492.985 128.22 385.161 201.32C285.699 268.78 196.814 347.748 143.992 448.06C140.594 454.476 137.362 461.065 134.231 467.788C107.114 526.731 94.7991 594.934 117.88 662.689C139.105 724.805 183.823 778.198 217.764 835.475C293.995 963.872 302.3 1125.37 216.881 1229.45L933.059 -291.34ZM928 -295.224C912.398 -174.161 827.067 -76.853 723.86 -2.30252C620.652 72.248 497.875 129.461 390.028 201.787C289.757 269.002 199.124 347.067 144.446 447.018C140.878 453.432 137.58 459.985 134.38 466.675C106.182 525.569 92.9496 594.065 116.737 662.099C138.503 724.324 184.85 777.197 219.978 834.321C299.082 962.924 307.401 1126.05 220.796 1230.28L928 -295.224ZM922.907 -299.051C910.343 -177.439 827.594 -78.3653 725.995 -2.64013C624.396 73.085 502.763 130.883 394.824 202.389C293.744 269.359 201.364 346.521 144.829 446.11C141.195 452.489 137.692 459.107 134.358 465.727C105.078 524.573 90.8935 593.429 115.389 661.744C137.728 724.01 185.672 776.43 221.919 833.364C303.964 962.21 312.227 1126.92 224.469 1231.41L922.907 -299.051ZM917.814 -302.877C908.288 -180.707 828.054 -79.913 728.131 -2.98772C628.21 73.9376 507.619 132.192 399.554 202.965C297.631 269.748 203.503 346.008 145.045 445.199C141.241 451.576 137.671 458.159 134.235 464.812C103.873 523.61 88.771 592.758 113.973 661.353C136.82 723.626 186.427 775.628 223.793 832.374C308.746 961.359 316.988 1127.76 228.075 1232.51L917.814 -302.877ZM912.72 -306.693C906.165 -184.02 828.58 -81.4253 730.37 -3.36717C632.158 74.7009 512.54 133.546 404.452 203.535C301.653 270.038 205.844 345.431 145.53 444.259C141.659 450.601 137.852 457.147 134.35 463.765C103.007 522.483 86.9188 592.057 112.761 660.897C136.182 723.21 187.386 774.761 225.87 831.319C313.696 960.512 321.951 1128.54 231.817 1233.5L912.72 -306.693ZM907.626 -310.52C904.109 -187.298 829.041 -82.983 732.505 -3.70478C635.97 75.5635 517.427 134.968 409.147 204.169C305.539 270.428 207.982 344.918 145.812 443.383C141.771 449.723 137.898 456.234 134.294 462.884C101.869 521.555 84.6942 591.419 111.412 660.542C135.271 722.996 188.31 773.961 227.878 830.399C318.679 959.765 326.845 1129.45 235.558 1234.67L907.626 -310.52ZM902.567 -314.404C902.021 -190.669 829.602 -84.5626 734.676 -4.11972C639.75 76.3232 522.283 136.277 413.978 204.703C309.561 270.718 210.257 344.305 146.163 442.372C142.055 448.678 138.013 455.187 134.239 461.835C100.732 520.457 82.6727 590.716 110.03 660.083C134.397 722.544 189.099 773.092 229.786 829.341C323.495 958.848 331.605 1130.29 239.199 1235.7L902.567 -314.404ZM897.474 -318.23C899.966 -193.947 830.062 -86.1104 736.914 -4.48907C643.765 77.1222 527.24 137.564 418.876 205.283C313.584 271.007 212.599 343.727 146.649 441.431C142.372 447.735 138.262 454.209 134.355 460.788C99.7651 519.361 80.7887 589.913 108.852 659.56C133.794 722.063 190.127 772.09 231.898 828.219C328.515 957.865 336.603 1131 243.011 1236.56L897.474 -318.23ZM892.38 -322.047C897.911 -197.225 830.624 -87.6899 739.05 -4.83666C647.476 78.0166 531.996 138.744 423.606 205.849C317.338 271.158 214.772 343.147 146.966 440.489C142.622 446.758 138.343 453.229 134.334 459.841C98.6622 518.367 78.7682 589.209 107.539 659.137C133.056 721.681 190.983 771.256 233.875 827.196C333.466 957.017 341.465 1131.81 246.719 1237.62L892.38 -322.047ZM887.287 -325.873C895.788 -200.528 831.084 -89.2477 741.185 -5.18433C651.287 78.8791 536.816 140.12 428.403 206.451C321.392 271.55 217.012 342.601 147.35 439.58C142.837 445.846 138.49 452.284 134.311 458.894C97.5931 517.303 76.814 588.541 106.19 658.781C132.281 721.366 191.942 770.389 235.917 826.208C338.725 955.902 346.394 1132.65 250.427 1238.69L887.287 -325.873ZM882.228 -329.757C893.801 -203.941 831.645 -90.8274 743.424 -5.55372C655.202 79.7099 541.805 141.51 433.199 207.062C325.346 271.974 219.319 342.09 147.666 438.638C143.019 444.835 138.571 451.305 134.325 457.878C96.5239 516.241 74.7935 587.838 104.911 658.291C131.577 720.918 192.833 769.488 237.927 825.119C343.506 955.052 351.223 1133.36 254.17 1239.68L882.228 -329.757ZM877.134 -333.584C891.679 -207.244 832.105 -92.3751 745.594 -5.96866C659.084 80.4377 546.694 142.922 438.03 207.597C329.368 272.263 221.594 341.477 148.085 437.662C101.281 498.95 69.3567 579.073 103.597 657.868C130.838 720.536 193.69 768.653 239.903 824.096C348.355 954.236 356.085 1134.16 257.878 1240.75L877.134 -333.584ZM874.84 -336.721C887.212 -212.445 829.436 -97.9304 746.314 -11.9801C663.57 73.5595 553.963 132.809 450.894 199.174C426.5 214.914 402.494 232.06 377.477 248.845C341.609 272.797 305.103 296.333 271.152 321.19C233.169 349.071 198.172 378.92 167.623 412.853C163.881 416.965 160.24 421.213 156.666 425.496C122.789 465.541 95.6932 515.046 91.899 567.902C90.093 592.504 93.3861 617.952 103.513 643.354C113.737 669.063 129.91 692.65 148.972 715.26C177.299 748.784 211.542 780.085 239.83 814.014C263.72 842.608 282.844 873.507 296.505 905.586C312.201 942.631 320.438 980.762 322.192 1017.93C324.245 1058.14 318.832 1097.48 306.413 1134.39C294.061 1171.34 274.735 1205.96 249.653 1235.73L874.84 -336.721ZM872.614 -339.832C882.711 -217.577 826.87 -103.507 747.137 -18.0232C668.058 66.6814 561.265 122.79 463.86 190.72C440.577 206.952 418.138 225.841 393.18 243.331C357.502 268.236 319.312 291.244 284.124 314.866C244.91 341.175 208.822 369.014 176.907 401.305C172.999 405.245 169.225 409.254 165.417 413.331C129.769 451.696 100.49 499.988 94.5655 552.681C91.7781 577.372 94.085 603.078 103.462 628.943C112.902 655.182 128.659 679.576 147.677 702.93C175.924 737.434 210.901 769.456 239.722 804C264.146 833.21 283.838 864.658 297.118 897.476C312.531 935.396 318.969 974.044 319.166 1011.26C319.358 1051.45 312.191 1090.39 298.653 1127.49C285.048 1164.55 265.238 1199.95 241.426 1230.89L872.614 -339.832ZM870.32 -342.979C878.176 -222.813 824.269 -109.187 747.857 -24.0345C672.681 59.7141 568.462 112.972 476.759 182.23C454.551 199.021 433.647 219.55 408.713 237.825C373.124 263.707 333.351 286.152 296.962 308.472C256.549 333.312 219.338 359.038 185.989 389.653C181.914 393.421 177.906 397.225 173.967 401.063C136.447 437.611 105.118 484.759 97.0645 537.288C93.2617 561.967 94.6847 588.066 103.312 614.396C112.068 641.133 127.239 666.331 146.316 690.396C174.45 725.778 210.128 758.587 239.617 793.816C264.574 823.643 284.732 855.672 297.799 889.231C312.829 928.06 317.636 967.227 316.174 1004.52C314.608 1044.65 305.651 1083.27 290.962 1120.45C276.205 1157.6 255.81 1193.8 233.202 1225.88L870.32 -342.979ZM868.026 -346.115C873.643 -228.049 821.636 -114.81 748.578 -30.0459C677.168 52.8359 575.556 103.357 489.624 173.807C468.354 191.247 449.222 213.456 424.314 232.344C388.881 259.245 347.492 281.027 309.867 302.114C268.222 325.38 229.954 349.198 195.206 378.069C190.999 381.6 186.824 385.232 182.649 388.865C143.292 423.696 109.779 469.633 99.6983 521.966C94.9131 546.732 95.3518 573.09 103.295 599.918C111.334 627.22 126.022 653.19 145.122 678.034C173.176 714.395 209.521 747.889 239.644 783.872C265.134 814.314 285.759 846.924 298.546 881.191C313.259 920.962 316.368 960.614 313.247 997.986C309.855 1038.03 299.212 1076.28 283.336 1113.62C267.393 1150.93 246.447 1187.86 225.109 1221.1L868.026 -346.115ZM865.732 -349.262C869.109 -233.284 819.036 -120.49 749.333 -36.1246C681.693 45.7201 582.648 93.9116 502.522 165.317C482.259 183.451 464.799 207.201 439.914 226.864C404.672 254.717 361.7 275.937 322.738 295.822C279.894 317.617 240.502 339.325 204.321 366.519C199.88 369.843 195.538 373.304 191.264 376.8C150 409.881 114.438 454.674 102.263 506.777C96.4278 531.598 95.9488 558.247 103.142 585.539C110.464 613.408 124.601 640.114 143.76 665.669C171.7 702.908 208.813 737.224 239.469 773.822C265.493 804.881 286.685 838.039 299.091 873.045C313.454 913.657 314.898 953.897 310.051 991.314C304.901 1031.3 292.468 1069.22 275.374 1106.62C258.279 1144.01 236.748 1181.74 216.681 1216.15L865.732 -349.262ZM863.437 -352.399C864.574 -238.52 816.47 -126.237 750.053 -42.136C686.214 38.7844 589.702 84.7044 515.386 156.895C496.027 175.744 480.34 201.013 455.514 221.393C420.361 250.222 375.806 270.879 335.575 289.429C291.634 309.721 251.016 329.348 213.47 354.901C208.896 357.987 204.388 361.277 199.88 364.566C156.777 395.932 119.066 439.445 104.829 491.42C98.0117 516.328 96.6149 543.271 103.058 571.026C109.661 599.46 123.315 626.939 142.43 653.237C170.291 691.456 208.072 726.458 239.395 763.741C265.952 795.415 287.611 829.155 299.737 864.867C313.784 906.423 313.564 947.081 307.024 984.644C300.115 1024.57 285.893 1062.17 267.613 1099.71C249.332 1137.26 227.25 1175.73 208.453 1211.31L863.437 -352.399ZM861.144 -355.546C860.041 -243.756 813.804 -131.963 750.807 -48.2148C690.738 31.6685 596.89 75.7287 528.285 148.405C509.83 167.98 495.85 194.722 471.047 215.877C436.051 245.722 389.947 265.754 348.413 283.035C303.307 301.791 261.498 319.44 222.553 343.249C217.812 346.164 213.104 349.18 208.429 352.297C163.42 381.913 123.559 424.315 107.328 476.027C99.4964 500.923 97.1483 528.224 102.908 556.478C108.726 585.443 121.895 613.693 141.069 640.703C168.885 679.835 207.333 715.521 239.188 753.591C266.279 785.88 288.438 820.134 300.25 856.62C313.913 899.084 312.062 940.261 303.898 977.838C295.23 1017.71 279.254 1054.91 259.787 1092.61C240.321 1130.31 217.688 1169.52 200.094 1206.23L861.144 -355.546ZM858.849 -358.683C855.473 -248.924 811.274 -137.778 751.528 -54.2261C695.227 24.62 616.426 79.94 541.148 139.982C527.551 163.344 511.392 188.535 486.649 210.397C451.775 241.165 404.121 260.731 361.284 276.743C314.979 294.028 272.046 309.565 231.735 331.733C226.828 334.476 221.953 337.321 217.077 340.166C170.197 367.965 128.184 409.256 109.927 460.771C101.046 485.72 97.7798 513.314 102.79 542.032C107.925 571.496 120.576 600.585 139.741 628.271C167.51 668.315 206.592 704.755 239.115 743.508C266.806 776.449 289.432 811.285 300.999 848.409C314.379 891.75 310.797 933.479 300.973 971.135C290.547 1010.95 272.782 1047.82 252.164 1085.61C231.478 1123.36 208.327 1163.41 192.005 1201.28L858.849 -358.683ZM856.623 -361.794C851.006 -254.124 808.708 -143.525 752.351 -60.2793C699.785 17.4466 625.188 72.0459 554.217 131.486C542.128 155.894 527.137 182.283 502.418 204.92C467.7 236.704 418.463 255.71 374.358 270.386C326.921 286.236 282.798 299.626 241.053 320.118C235.946 322.587 230.971 325.296 225.93 327.969C177.076 353.982 132.947 394.096 112.729 445.45C102.865 470.489 98.6827 498.374 102.942 527.556C107.359 557.585 119.46 587.411 138.649 615.875C166.27 656.866 206.155 694.059 239.278 733.464C267.503 767.02 290.629 802.37 301.881 840.269C314.878 884.517 309.699 926.699 298.182 964.501C286.032 1004.19 266.444 1040.8 244.572 1078.71C222.7 1116.61 198.998 1157.4 183.946 1196.44L856.623 -361.794ZM854.328 -364.931C846.471 -259.36 806.145 -149.443 753.071 -66.2906C704.242 10.2951 633.917 64.2092 567.081 123.063C556.536 148.43 542.679 176.096 517.951 199.414C483.357 232.111 432.604 250.588 387.195 263.993C338.594 278.305 293.381 289.685 250.168 308.567C244.894 310.865 239.685 313.367 234.477 315.87C183.718 340.133 137.472 379.068 115.159 430.192C104.245 455.285 99.1459 483.463 102.655 513.108C106.287 543.668 117.97 574.3 137.218 603.476C164.794 645.379 205.311 683.325 239.001 723.448C267.759 757.619 291.352 793.55 302.324 832.156C315.005 877.347 308.195 920.049 294.884 957.863C280.975 997.494 259.633 1033.71 236.575 1071.77C213.552 1109.76 189.265 1151.35 175.483 1191.56L854.328 -364.931ZM852.035 -368.077C841.937 -264.596 803.516 -155.396 753.791 -72.302C708.632 3.11801 642.578 56.337 579.945 114.641C570.91 141.044 558.222 169.898 533.517 194.001C499.079 227.714 446.743 245.631 400.031 257.768C350.298 270.645 303.86 279.945 259.248 297.084C253.807 299.211 248.399 301.44 243.023 303.771C190.326 326.181 141.93 364.007 117.656 414.969C105.693 440.115 99.6764 468.586 102.502 498.73C105.416 529.855 116.616 561.259 135.821 591.179C163.351 633.994 204.502 672.693 238.859 713.5C268.15 748.288 292.277 784.835 302.902 824.113C315.198 870.212 306.793 913.367 291.823 951.26C276.223 990.869 253.024 1026.72 228.815 1064.87C204.605 1103.01 179.767 1145.34 167.223 1186.61L852.035 -368.077ZM849.741 -371.224C837.404 -269.831 811.422 -154.551 754.547 -78.3807C703.729 -10.3047 651.342 48.4329 592.843 106.151C585.25 133.554 573.731 163.607 549.151 188.453C514.838 223.079 461.019 240.574 412.971 251.342C362.106 262.783 314.477 269.937 268.5 285.433C262.927 287.322 257.317 289.447 251.742 291.505C197.137 312.165 148.204 349.712 120.325 399.579C106.505 424.362 100.41 453.644 102.519 484.184C104.717 515.875 115.366 548.016 134.628 578.646C162.047 622.34 203.898 661.826 238.855 703.284C268.68 738.689 293.307 775.748 303.618 815.8C315.632 862.776 305.561 906.517 288.866 944.455C271.507 984.007 246.519 1019.54 221.158 1057.77C195.763 1096.06 170.373 1139.13 159.101 1181.57L849.741 -371.224ZM847.481 -374.428C832.971 -275.099 809.638 -160.496 755.369 -84.4239C707.68 -17.6279 660.105 40.5388 605.809 97.6961C599.724 126.136 589.375 157.388 564.752 182.982C530.561 218.521 475.192 235.549 425.841 245.05C373.845 255.055 325.025 260.062 277.615 273.883C271.808 275.565 266.065 277.452 260.323 279.339C203.78 298.147 151.082 333.75 122.856 384.289C108.794 409.542 100.974 438.699 102.334 469.703C103.746 501.925 113.979 534.873 133.198 566.247C160.535 610.92 203.121 651.126 238.68 693.236C269.038 729.256 294.132 766.897 304.163 807.656C315.793 855.539 304.126 899.733 285.737 937.818C266.654 977.246 239.877 1012.45 213.296 1050.9C186.749 1089.28 160.774 1133.15 150.772 1176.76L847.481 -374.428ZM845.187 -377.575C828.438 -280.335 807.787 -166.476 756.124 -90.5026C711.531 -24.9191 668.868 32.6347 618.709 89.2062C614.132 118.682 604.951 151.133 580.387 177.434C546.353 213.99 489.4 230.466 438.714 238.585C385.586 247.156 335.576 250.019 286.799 262.198C280.86 263.643 274.951 265.357 269.007 267.14C210.558 284.197 155.677 318.588 125.489 368.965C110.378 394.272 101.641 423.723 102.318 455.225C103.012 488.013 112.694 521.697 131.972 553.782C159.264 599.369 202.517 640.26 238.674 683.189C269.566 719.824 295.228 758.015 304.944 799.547C316.258 848.374 302.086 892.636 282.845 931.217C262.944 971.074 233.438 1005.46 205.637 1043.96C177.905 1082.5 151.311 1127.07 142.647 1171.88L845.187 -377.575ZM842.892 -380.712C823.868 -285.503 805.869 -172.652 756.844 -96.514C715.413 -32.1075 677.53 24.7625 631.572 80.7834C628.505 111.295 620.426 144.91 595.952 172.021C562.041 209.499 503.606 225.544 451.584 232.3C397.256 239.399 346.089 240.214 295.914 250.648C289.807 251.92 283.664 253.43 277.588 254.973C217.201 270.179 160.168 303.458 128.021 353.676C111.793 379.002 102.273 408.813 102.199 440.779C102.109 474.098 111.408 508.521 130.609 541.417C157.855 587.916 201.742 629.56 238.499 673.14C269.924 710.391 296.052 749.162 305.488 791.402C316.453 841.07 301.525 886.303 279.716 924.579C257.183 963.928 226.761 998.438 197.809 1037.03C168.857 1075.61 141.746 1121.03 134.286 1166.97L842.892 -380.712ZM840.667 -383.823C819.402 -290.703 790.305 -185.71 757.667 -102.557C730.66 -33.7641 686.361 16.8941 644.573 72.2617C642.948 103.774 636.105 138.623 611.691 166.441C577.868 204.9 517.917 220.42 464.591 225.906C409.132 231.568 356.841 230.275 305.233 239.031C298.892 240.099 292.684 241.404 286.374 242.741C224.048 256.095 164.829 288.331 130.757 338.32C113.479 363.7 103.042 393.805 102.218 426.234C101.409 460.118 110.226 495.313 129.485 528.92C156.684 576.332 201.272 618.763 238.63 662.994C270.589 700.861 297.183 740.214 306.339 783.16C316.92 833.736 300.428 879.524 276.861 917.742C252.636 957.07 220.393 991.149 190.22 1029.96C160.083 1068.7 132.421 1114.85 126.23 1161.96L840.667 -383.823ZM838.372 -386.96C814.869 -295.939 787.543 -191.905 758.386 -108.569C734.85 -41.2283 695.022 9.03177 657.437 63.839C657.323 96.3773 651.647 132.435 627.189 161.003C593.489 200.375 532.056 215.463 477.395 219.585C420.803 223.811 367.323 220.364 314.281 227.447C307.808 228.274 301.331 229.442 294.888 230.542C230.624 242.042 169.188 273.133 133.221 322.995C114.894 348.429 103.505 378.893 102.033 411.753C100.438 446.168 108.772 482.135 128.054 516.521C155.141 564.81 200.429 608.029 238.353 652.977C270.846 691.46 298.007 731.361 306.783 775.047C317.047 826.565 298.959 872.806 273.63 911.138C247.749 950.375 213.615 984.159 182.291 1023.05C150.966 1061.95 122.753 1108.84 117.834 1157.11L838.372 -386.96ZM836.078 -390.107C810.335 -301.174 784.681 -198.239 759.142 -114.647C739.007 -48.7755 703.786 1.12767 670.335 55.349C671.764 88.8559 667.223 126.18 642.823 155.455C609.281 195.843 546.229 210.438 490.334 213.155C432.577 216.012 377.94 210.353 323.532 215.801C316.892 216.453 310.283 217.379 303.673 218.305C237.471 227.958 173.883 257.938 135.957 307.639C116.512 333.092 104.274 363.883 102.118 397.243C99.8064 432.224 107.656 468.962 126.929 504.023C153.972 553.226 199.893 597.197 238.484 642.83C271.577 681.964 299.138 722.413 307.668 766.737C317.583 819.097 297.896 865.959 270.842 904.335C243.202 943.516 207.279 976.972 174.803 1015.95C142.328 1054.93 113.529 1102.62 109.881 1152.07L836.078 -390.107ZM833.783 -393.244C805.8 -306.41 781.784 -204.495 759.862 -120.659C743.03 -56.4038 712.447 -6.74455 683.199 46.9264C686.137 81.4694 682.698 119.957 658.39 150.041C624.97 191.353 560.368 205.48 503.17 206.927C444.347 208.393 388.419 200.613 332.613 204.31C325.805 204.799 318.996 205.458 312.185 206.277C244.045 214.076 178.238 242.909 138.419 292.483C117.925 317.99 104.769 349.073 101.863 382.897C98.7665 418.409 106.199 455.953 125.464 491.691C152.426 541.874 199.015 586.53 238.207 632.814C271.833 672.563 299.895 713.526 308.178 758.659C317.776 811.962 296.459 859.344 267.678 897.765C238.347 936.923 200.603 969.95 166.873 1009.05C133.212 1048.18 103.862 1096.61 101.418 1147.19L833.783 -393.244ZM831.49 -396.39C801.267 -311.646 778.753 -210.832 760.582 -126.67C747.019 -63.9647 721.175 -14.5813 696.063 38.5038C700.444 74.0472 698.239 113.769 673.921 144.535C640.592 186.817 574.506 200.533 516.007 200.539C456.053 200.558 398.934 190.644 341.762 192.695C334.755 192.907 327.745 193.459 320.801 194.047C250.721 199.992 182.764 227.712 140.985 277.126C119.374 302.651 105.368 334.062 101.779 368.383C97.9642 404.46 104.882 442.675 124.135 479.259C151.051 530.354 198.341 575.798 238.099 622.8C272.259 663.165 300.854 704.743 308.789 750.548C318.004 804.759 295.158 852.629 264.617 891.163C233.594 930.298 193.994 962.962 159.078 1002.22C124.23 1041.5 94.3304 1090.67 93.1554 1142.41L831.49 -396.39ZM829.197 -399.537C796.733 -316.881 775.655 -217.195 761.337 -132.749C750.94 -71.5612 729.872 -22.5109 708.962 30.0137C714.851 66.5932 713.749 107.479 689.523 139.055C656.316 182.26 588.68 195.508 528.846 194.142C467.725 192.801 409.517 180.701 350.844 181.045C343.671 181.082 336.528 181.393 329.351 181.771C257.4 185.898 187.157 212.449 143.485 261.733C120.859 287.246 105.933 319.118 101.629 353.836C97.029 390.444 103.53 429.464 122.775 466.725C149.645 518.733 197.568 564.929 237.994 612.616C272.687 653.598 301.783 695.69 309.404 742.268C318.337 797.355 293.825 845.812 261.525 884.289C228.811 923.402 187.354 955.703 151.288 995.044C115.221 1034.38 84.8023 1084.39 84.8987 1137.29L829.197 -399.537ZM826.902 -402.674C792.164 -322.05 772.388 -223.571 762.058 -138.76C754.793 -79.1833 738.6 -30.3476 721.826 21.5912C729.224 59.2067 729.291 101.281 705.123 133.574C672.006 177.759 602.886 190.586 541.716 187.846C479.428 185.136 420.065 170.825 360.027 169.523C352.686 169.396 345.343 169.44 338.066 169.679C264.177 171.953 191.783 197.385 146.15 246.512C122.408 272.044 106.633 304.242 101.578 339.424C96.2605 376.598 102.277 416.39 121.546 454.43C148.371 507.35 196.961 554.231 237.953 602.636C273.179 644.234 302.742 686.907 310.083 734.193C318.632 790.188 292.592 839.132 258.531 877.721C224.125 916.811 180.846 948.683 143.594 988.177C106.341 1027.67 75.3717 1078.41 76.7731 1132.42L826.902 -402.674ZM824.675 -405.785C787.698 -327.25 769.086 -229.87 762.879 -144.803C758.648 -86.8154 747.363 -38.2517 734.827 13.0694C743.735 51.7109 744.97 94.9944 720.826 128.062C687.899 173.196 617.162 185.529 554.723 181.462C491.304 177.305 430.715 160.918 369.278 157.876C361.806 157.508 354.261 157.444 346.749 157.484C270.957 157.837 196.309 182.192 148.784 231.19C123.992 256.775 107.299 289.266 101.561 324.946C95.4591 362.65 101.094 403.182 120.32 441.965C147.134 495.731 196.39 543.467 237.948 592.589C273.707 634.804 303.803 678.092 310.797 726.05C319.029 782.988 291.358 832.452 255.572 871.085C219.475 910.154 174.34 941.662 135.935 981.243C97.5311 1020.82 65.9767 1072.37 68.5811 1127.51L824.675 -405.785ZM822.381 -408.922C783.163 -332.486 765.546 -236.209 763.599 -150.815C762.297 -94.3738 756.092 -46.0883 747.69 4.64673C758.04 44.2888 760.377 88.7356 736.359 122.556C703.42 168.532 631.3 180.571 567.526 175.131C502.94 169.615 441.196 151.007 378.392 146.328C370.686 145.75 363.01 145.446 355.331 145.311C277.599 143.82 200.769 166.954 151.315 215.898C125.407 241.503 107.864 274.321 101.375 310.466C94.5547 348.736 99.7067 390.039 118.889 429.565C145.657 484.244 195.546 532.732 237.705 582.505C273.998 625.335 304.595 669.138 311.275 717.87C319.157 775.649 289.888 825.735 252.375 864.413C214.622 903.393 167.529 934.57 127.939 974.304C88.3482 1014.04 56.2419 1066.32 60.1177 1122.62L822.381 -408.922ZM820.088 -412.069C778.697 -337.686 761.907 -242.515 764.356 -156.893C765.948 -101.942 764.788 -54.0179 760.657 -3.80761C772.55 36.8031 776.021 82.5162 752.027 117.111C719.245 164.103 645.507 175.649 580.499 168.805C514.747 161.919 451.847 141.1 387.611 134.739C379.771 133.929 371.928 133.451 364.015 133.117C284.345 129.762 205.296 151.762 153.95 200.571C127.026 226.168 108.531 259.345 101.36 295.987C93.7544 334.789 98.4221 376.863 117.663 417.101C144.386 472.693 194.908 521.933 237.734 572.392C274.561 615.837 305.624 660.222 312.091 709.695C319.657 768.417 288.757 819.022 249.553 857.678C210.073 896.703 161.194 927.384 120.417 967.271C79.6403 1007.16 46.9835 1060.18 52.1297 1117.65L820.088 -412.069ZM817.792 -415.206C774.163 -342.922 758.062 -248.758 765.075 -162.905C769.461 -109.401 765.83 -61.3175 773.52 -12.2304C780.304 31.024 791.562 76.3286 767.627 111.63C734.968 159.545 659.713 170.727 593.402 162.452C526.518 154.13 462.395 131.224 396.827 123.16C388.82 122.176 380.743 121.497 372.765 120.947C291.191 115.682 209.889 136.605 156.65 185.29C128.609 210.896 109.163 244.435 101.41 281.544C93.0194 320.876 97.3058 363.69 116.468 404.738C143.146 461.242 194.301 511.236 237.795 562.38C275.155 606.441 306.786 651.374 312.872 701.586C320.054 761.216 287.591 812.377 246.66 851.077C205.422 890.045 154.753 920.398 112.825 960.372C70.897 1000.35 37.6548 1054.17 44.0714 1112.81L817.792 -415.206ZM815.499 -418.352C769.629 -348.157 754.113 -254.789 765.795 -168.916C772.872 -116.839 776.111 -68.857 786.384 -20.6528C795.829 23.5507 807.037 70.1053 783.125 106.192C750.556 155.077 673.784 165.744 606.172 156.189C538.121 146.497 472.907 121.426 405.839 111.644C397.666 110.486 389.457 109.566 381.245 108.816C297.732 101.697 214.279 121.502 159.08 170.027C129.922 195.662 109.692 229.558 101.122 267.096C91.9466 306.959 95.8172 350.579 114.971 392.304C141.602 449.721 193.458 500.501 237.451 552.328C275.344 597.006 307.441 642.52 313.282 693.372C320.183 753.878 286.088 805.557 243.33 844.336C200.4 883.281 147.876 913.271 104.761 953.399C61.6465 993.525 27.8538 1048.08 35.4743 1107.86L815.499 -418.352ZM813.205 -421.499C765.06 -353.326 749.996 -260.834 766.551 -174.995C776.351 -124.231 786.428 -76.6344 799.283 -29.1429C811.525 15.9008 822.614 63.8504 798.761 100.644C766.314 150.452 688.024 160.755 619.111 149.769C549.894 138.708 483.525 111.415 415.09 99.9971C406.718 98.5621 398.342 97.4679 389.928 96.6214C304.579 87.6167 218.84 106.242 161.646 154.675C131.474 180.288 110.292 214.55 101.039 252.583C91.1454 293.011 94.4651 337.369 113.744 379.839C140.228 438.201 192.819 489.702 237.479 542.215C275.907 587.508 308.47 633.603 314.031 685.162C320.547 746.576 284.89 798.809 240.405 837.633C195.783 876.556 141.438 906.117 97.1371 946.398C52.8368 986.678 18.4922 1041.97 27.3832 1102.91L813.205 -421.499ZM810.945 -424.703C760.561 -358.629 745.844 -266.811 767.306 -181.084C779.693 -131.523 796.716 -84.6851 812.181 -37.6329C827.224 8.09054 838.19 57.5952 814.36 95.1632C782.071 145.988 702.161 155.968 631.949 143.371C561.496 131.076 494.041 101.437 424.173 88.3366C415.634 86.7374 407.057 85.376 398.477 84.3454C311.192 73.3267 223.232 90.9781 164.145 139.277C132.856 164.919 110.824 199.503 100.888 238.034C90.2101 278.994 93.113 324.159 112.348 367.372C138.787 426.648 192.045 478.834 237.273 532.063C276.334 577.94 309.364 624.616 314.543 676.914C320.743 739.272 283.487 792.127 237.244 830.894C190.998 869.829 134.728 898.993 89.2096 939.324C43.69 979.657 8.76122 1035.76 18.9899 1097.9L810.945 -424.703ZM808.719 -427.814C756.095 -363.829 741.621 -272.483 768.129 -187.127C783.17 -138.755 807.006 -92.9061 825.147 -46.0873C843.126 0.216647 853.834 51.3758 830.063 89.651C797.896 141.398 716.437 150.911 644.922 137.044C573.337 123.322 504.656 91.5968 433.457 76.7927C424.751 75.0195 416.008 73.484 407.228 72.1863C318.072 59.3396 227.795 75.7084 166.846 123.996C134.475 149.58 111.559 184.564 100.872 223.554C89.4762 265.082 91.8947 311.017 111.122 354.908C137.515 415.095 191.407 468.034 237.267 522.017C276.862 568.509 310.358 615.767 315.325 668.806C321.175 732.005 282.356 785.414 234.386 824.226C186.45 863.14 128.323 891.94 81.6527 932.358C34.9477 972.844 -0.532809 1029.68 10.9672 1092.99L808.719 -427.814Z" stroke="url(#paint0_linear_314_56)" stroke-width="0.5" stroke-miterlimit="10"/>
</g>
<defs>
<linearGradient id="paint0_linear_314_56" x1="847.64" y1="-78.4768" x2="-21.7461" y2="1323.63" gradientUnits="userSpaceOnUse">
<stop stop-color="#FF22AC" stop-opacity="0.45"/>
<stop offset="0.48974" stop-color="#8846D3" stop-opacity="0.39"/>
<stop offset="1" stop-color="#2973FF" stop-opacity="0.11"/>
</linearGradient>
<clipPath id="clip0_314_56">
<rect width="225" height="1264" fill="white" transform="translate(224.275 1279.05) rotate(-175.339)"/>
</clipPath>
</defs>
</svg>
