<svg width="1320" height="1380" viewBox="0 0 1320 1380" fill="none" xmlns="http://www.w3.org/2000/svg">
<path d="M-106.035 1C-2.21067 108.397 35.6515 271.66 62.2477 431.501C88.8439 591.341 108.471 758.03 185.075 890.058C249.667 1001.33 353.824 1082.22 477.637 1117.14C605.155 1153.14 748.173 1140.91 886.158 1142.72C1024.14 1144.53 1166.11 1163.43 1261.87 1250.69M-111.19 5.7697C-6.22112 110.045 34.1119 270.788 62.2314 429.064C90.351 587.34 110.86 753.022 186.614 884.922C247.014 990.433 341.347 1069.85 454.679 1109.76C461.902 1112.28 469.111 1114.68 476.472 1116.88C540.331 1136.11 608.498 1143.07 678.332 1144.04C747.047 1145.1 816.722 1140.68 885.424 1140.26C1024.27 1139.04 1167.94 1158.19 1263.7 1246.83M-116.411 10.4892C-10.2472 111.577 32.4548 269.932 62.2146 426.628C91.9745 583.324 113.299 747.949 188.153 879.787C248.125 986.127 341.132 1067.26 453.703 1109.11C460.824 1111.76 468.048 1114.28 475.425 1116.6C539.018 1136.99 607.386 1145.06 677.598 1145.27C746.471 1145.71 816.001 1139.71 884.691 1137.79C1024.32 1133.92 1169.83 1153.01 1265.57 1242.9M-121.566 15.2589C-14.2067 113.158 30.9152 269.06 62.3154 424.176C93.7155 579.292 115.855 742.86 189.758 874.702C249.302 981.87 340.984 1064.72 452.742 1108.58C459.879 1111.35 467.067 1114.05 474.342 1116.5C537.668 1138.06 606.223 1147.11 676.894 1146.73C745.926 1146.55 815.296 1138.84 883.987 1135.56C1024.44 1128.85 1171.68 1148.02 1267.47 1239.2M-126.721 20.0286C-18.2832 114.755 29.3246 268.254 62.2991 421.739C95.2736 575.224 118.631 737.624 191.298 869.566C250.697 977.466 340.769 1062.13 451.767 1107.93C458.802 1110.83 466.005 1113.65 473.178 1116.23C536.172 1138.91 604.928 1149.06 675.991 1148.03C745.182 1147.25 814.392 1137.83 883.086 1133.18C1024.36 1123.62 1173.34 1142.87 1269.06 1235.37M-131.876 24.799C-22.2433 116.338 27.7846 267.382 62.3484 419.354C96.9122 571.325 121.202 732.653 192.918 864.599C252.006 973.313 340.701 1059.76 450.872 1107.45C457.871 1110.54 465.023 1113.42 472.211 1116.12C534.939 1139.96 603.867 1150.98 675.338 1149.43C744.672 1147.91 813.722 1136.79 882.484 1130.82C1024.59 1118.42 1175.29 1137.74 1271.06 1231.54M-137.097 29.5177C-26.3199 117.935 26.1279 266.526 62.332 416.917C98.5361 567.308 123.692 727.513 194.457 859.463C253.234 968.99 340.487 1057.17 449.897 1106.81C456.845 1109.95 463.961 1113.02 471.113 1115.9C533.574 1140.91 602.638 1152.99 674.619 1150.77C744.112 1148.63 813.002 1135.81 881.766 1128.48C1024.63 1113.18 1177.13 1132.62 1272.95 1227.73M-142.252 34.2878C-30.2797 119.517 24.5881 265.654 62.3665 414.414C100.145 563.175 126.183 722.374 196.047 854.261C254.446 964.551 340.323 1054.52 448.921 1106.16C455.833 1109.49 462.898 1112.62 469.999 1115.57C532.194 1141.74 601.445 1154.81 673.818 1151.94C743.404 1149.14 812.2 1134.66 880.9 1125.91C1024.63 1107.7 1178.78 1127.35 1274.64 1223.76M-147.407 39.0575C-34.2391 121.099 22.9314 264.797 62.4162 412.028C101.901 559.26 128.754 717.402 197.602 849.242C255.638 960.412 340.124 1052.05 447.961 1105.63C454.822 1109.03 461.851 1112.34 468.916 1115.47C530.845 1142.81 600.297 1156.98 673.114 1153.4C742.858 1149.98 811.545 1133.74 880.197 1123.68C1024.81 1102.57 1180.7 1122.41 1276.55 1220.07M-152.562 43.8276C-38.25 122.747 21.3916 263.925 62.4657 409.643C103.54 555.361 131.31 712.313 199.207 844.158C256.931 956.141 339.975 1049.51 447.051 1105.03C453.877 1108.61 460.855 1111.99 467.935 1115.24C529.531 1143.69 599.185 1158.96 672.446 1154.68C742.349 1150.65 810.809 1132.64 879.58 1121.2C1025 1097.13 1182.64 1117.16 1278.42 1216.14M-157.718 48.5979C-42.21 124.329 19.8005 263.12 62.5659 407.192C105.331 551.263 133.867 707.225 200.878 839.124C258.174 951.936 339.892 1047.02 446.157 1104.55C452.931 1108.2 459.873 1111.76 466.851 1115.15C528.232 1144.69 598.022 1161.02 671.741 1156.14C741.803 1151.49 810.154 1131.72 878.876 1118.98C1025.1 1091.94 1184.49 1112.16 1280.32 1212.44M-162.938 53.3166C-46.2864 125.926 18.195 262.197 62.4837 404.704C106.772 547.211 136.24 702.1 202.351 833.937C259.336 947.562 339.663 1044.31 445.115 1103.86C451.854 1107.68 458.745 1111.32 465.738 1114.81C526.853 1145.52 596.778 1162.9 670.941 1157.31C741.161 1152.05 809.338 1130.45 878.077 1116.46C1025.18 1086.52 1186.25 1106.88 1282.13 1208.46M-168.093 58.0865C-50.312 127.457 16.6044 261.391 62.5334 402.318C108.463 543.245 138.746 697.077 203.957 828.852C260.579 943.357 339.515 1041.77 444.206 1103.26C450.893 1107.15 457.698 1111.03 464.706 1114.65C525.554 1146.52 595.666 1164.89 670.222 1158.65C740.601 1152.77 808.668 1129.41 877.359 1114.12C1025.32 1081.15 1188.09 1101.76 1283.97 1204.71M-173.248 62.8566C-54.2719 129.039 15.0644 260.519 62.6339 399.866C110.203 539.213 141.368 692.04 205.562 823.768C261.806 939.035 339.366 1039.24 443.245 1102.73C449.897 1106.81 456.65 1110.75 463.557 1114.5C524.139 1147.54 594.386 1166.96 669.451 1160.06C739.989 1153.57 807.881 1128.38 876.64 1111.77C1025.41 1075.84 1189.93 1096.65 1285.85 1200.9M-178.403 67.6265C-58.2827 130.687 13.4736 259.714 62.6172 397.43C111.761 535.146 143.807 686.966 207.101 818.632C262.983 934.779 339.217 1036.7 442.27 1102.08C448.819 1106.29 455.588 1110.35 462.509 1114.22C522.759 1148.37 593.208 1168.9 668.717 1161.28C739.413 1154.18 807.145 1127.29 875.906 1109.31C1025.47 1070.3 1191.82 1091.47 1287.73 1196.97M-183.559 72.3967C-62.2425 132.27 11.9336 258.842 62.6667 395.044C113.4 531.247 146.313 681.944 208.721 813.665C264.174 930.64 339.084 1034.28 441.375 1101.6C447.94 1105.93 454.606 1110.12 461.492 1114.17C521.475 1149.49 592.177 1171.05 668.078 1162.8C738.934 1155.07 806.491 1126.36 875.269 1107.13C1025.64 1065.17 1193.74 1086.52 1289.58 1193.34M-188.779 77.1154C-66.319 133.867 10.3281 257.919 62.6505 392.607C114.973 527.296 148.701 676.936 210.26 808.529C265.351 926.383 338.869 1031.69 440.4 1100.96C446.862 1105.41 453.544 1109.73 460.379 1113.84C520.096 1150.32 590.933 1172.94 667.278 1163.97C738.292 1155.63 805.674 1125.1 874.469 1104.61C1025.7 1059.63 1195.5 1081.24 1291.39 1189.36M-193.934 81.8852C-70.2785 135.448 8.73749 257.113 62.6852 390.105C116.633 523.096 151.192 671.797 211.851 803.327C266.513 922.01 338.706 1029.03 439.424 1100.31C445.902 1104.88 452.482 1109.33 459.281 1113.62C518.731 1151.27 589.704 1174.94 666.559 1165.31C737.731 1156.36 804.938 1124 873.802 1102.2C1025.82 1054.14 1197.39 1076.06 1293.32 1185.48M-199.09 86.6556C-74.2386 137.031 7.1313 256.191 62.7343 387.719C118.337 519.248 153.697 666.775 213.404 798.308C267.704 917.871 338.506 1026.56 438.463 1099.78C444.839 1104.49 451.434 1109.05 458.182 1113.41C517.366 1152.22 588.475 1176.94 665.773 1166.6C737.053 1157.1 804.187 1122.79 873.017 1099.81C1025.83 1048.66 1199.16 1070.89 1295.09 1181.68M-204.295 91.4914C-78.3001 138.745 5.48978 255.451 62.7332 385.4C119.977 515.348 156.1 661.884 214.959 793.289C268.881 913.615 338.307 1024.09 437.503 1099.25C443.894 1104.07 450.387 1108.77 457.099 1113.31C515.951 1153.24 587.378 1179.05 665.003 1168.01C736.442 1157.89 803.4 1121.76 872.247 1097.53C1025.86 1043.31 1200.9 1065.91 1296.93 1177.94M-209.451 96.2617C-82.26 140.327 3.94982 254.579 62.8335 382.948C121.717 511.317 158.657 656.795 216.63 788.256C270.139 909.527 338.224 1021.6 436.609 1098.77C442.898 1103.73 449.405 1108.54 456.081 1113.27C514.667 1154.35 586.23 1181.22 664.314 1169.59C735.911 1158.85 802.695 1120.9 871.559 1095.41C1025.96 1038.12 1202.83 1061.08 1298.85 1174.36M-214.671 100.98C-86.4026 141.873 2.29317 253.722 62.7512 380.46C123.209 507.198 160.979 651.737 218.103 783.069C271.183 905.169 337.943 1018.96 435.567 1098.07C441.82 1103.21 448.277 1108.09 454.902 1112.88C513.221 1155.14 584.92 1183.05 663.448 1170.71C735.27 1159.41 801.812 1119.59 870.744 1092.78C1025.94 1032.41 1204.58 1055.68 1300.53 1170.28M-219.827 105.75C-90.3624 143.455 0.753246 252.851 62.8006 378.075C124.848 503.299 163.484 646.714 219.708 777.984C272.36 900.913 337.795 1016.42 434.657 1097.47C440.86 1102.68 447.347 1107.79 453.87 1112.72C511.922 1156.14 583.823 1185.16 662.794 1172.1C734.775 1160.19 801.142 1118.55 870.092 1090.49C1026.13 1026.97 1206.48 1050.61 1302.48 1166.52M-224.981 110.52C-94.3219 145.037 -0.837234 252.045 62.8504 375.689C126.538 499.333 165.873 641.706 221.263 772.965C273.552 896.773 337.662 1014 433.712 1097.06C439.879 1102.45 446.315 1107.63 452.853 1112.67C510.639 1157.25 582.675 1187.33 662.09 1173.56C734.179 1161.1 800.422 1117.57 869.388 1088.26C1026.15 1021.62 1208.34 1045.61 1304.38 1162.82M-230.137 115.29C-98.3329 146.686 -2.3773 251.173 62.8847 373.187C128.147 495.2 168.312 636.633 222.853 767.764C274.662 892.467 337.498 1011.34 432.788 1096.35C438.903 1101.8 445.252 1107.23 451.739 1112.34C509.244 1157.97 581.548 1189.2 661.356 1174.79C733.603 1161.71 799.671 1116.36 868.655 1085.8C1026.21 1016.08 1210.16 1040.38 1306.2 1158.96M-235.291 120.06C-102.292 148.268 -3.96793 250.367 62.9344 370.801C129.837 491.234 170.818 631.611 224.473 762.796C275.854 888.327 337.364 1008.92 431.893 1095.87C437.973 1101.51 444.271 1107 450.773 1112.23C508.012 1159.02 580.415 1191.49 660.702 1176.18C733.189 1162.65 798.986 1115.2 868.053 1083.44C1026.39 1010.52 1212.12 1035.25 1308.21 1155.13M-240.513 124.78C-106.369 149.865 -5.57389 249.445 62.9178 368.365C131.409 487.284 173.206 626.604 226.012 757.661C276.964 884.02 337.15 1006.33 430.866 1095.29C436.895 1100.99 443.157 1106.67 449.624 1112.08C506.596 1160.04 579.252 1193.54 659.932 1177.59C732.527 1163.51 798.199 1114.17 867.284 1081.16C1026.35 1005.12 1213.97 1030.25 1310.05 1151.38M-245.668 129.55C-110.329 151.447 -7.1647 248.639 62.9522 365.862C133.069 483.085 175.579 621.479 227.602 752.459C278.075 879.713 336.986 1003.68 429.942 1094.57C435.934 1100.46 442.146 1106.2 448.51 1111.74C505.216 1160.87 578.008 1195.42 659.131 1178.76C731.885 1164.07 797.316 1112.85 866.484 1078.64C1026.28 999.475 1215.73 1024.97 1311.74 1147.42M-250.822 134.319C-114.288 153.029 -8.7701 247.716 63.0022 363.476C134.774 479.236 177.8 616.552 229.157 747.44C278.982 875.67 336.787 1001.2 428.982 1094.04C434.923 1100 441.099 1105.92 447.478 1111.58C503.918 1161.87 576.845 1197.48 658.412 1180.1C731.324 1164.8 796.58 1111.76 865.766 1076.3C1026.34 993.935 1217.57 1019.86 1313.62 1143.6M-255.978 139.089C-118.299 154.677 -10.3612 246.911 63.0514 361.091C136.464 475.27 180.254 611.596 230.762 742.355C280.209 871.348 336.638 998.666 428.072 1093.45C433.978 1099.58 440.102 1105.57 446.446 1111.42C502.553 1162.82 575.733 1199.47 657.759 1181.5C730.829 1165.58 795.829 1110.55 865.098 1073.88C1026.17 988.01 1219.46 1014.68 1315.51 1139.79M-261.198 143.808C-122.391 156.157 -11.9668 245.988 63.0862 358.587C138.139 471.187 182.745 606.456 232.367 737.27C281.452 867.143 336.541 996.061 427.112 1092.92C432.915 1099.19 439.055 1105.29 445.348 1111.2C501.188 1163.77 574.57 1201.52 656.974 1182.79C730.203 1166.25 795.028 1109.4 864.314 1071.49C1026.19 982.653 1221.18 1009.58 1317.33 1135.93M-266.354 148.578C-126.402 157.805 -13.5577 245.182 63.0695 356.151C139.697 467.12 185.25 601.434 233.906 732.135C282.563 862.836 336.326 993.472 426.136 1092.27C483.369 1155.18 563.984 1205.68 656.254 1184.13C729.642 1166.98 794.292 1108.31 863.595 1069.14C1026.27 977.231 1223.02 1004.46 1319.22 1132.11M-270.217 150.445C-132.929 161.623 -20.1069 246.98 56.6891 354.18C133.125 460.891 175.708 591.543 227.314 716.51C239.57 746.095 253.414 775.535 266.677 806.001C285.564 849.66 303.876 893.928 324.124 935.686C346.857 982.417 372.315 1026.3 403.085 1066.16C406.806 1071.03 410.694 1075.82 414.634 1080.55C451.378 1125.23 499.727 1164.43 556.326 1179.01C582.662 1185.84 610.925 1187.31 640.491 1181.35C670.408 1175.34 699.202 1162.46 727.508 1146.26C769.489 1122.16 810.229 1091.2 852.642 1067.22C888.396 1046.96 925.707 1032.33 963.217 1023.86C1006.52 1014.16 1049.52 1012.77 1090.19 1018.23C1134.23 1023.96 1175.84 1037.62 1213.43 1058.4C1251.07 1079.11 1284.81 1106.94 1312.15 1140.05M-274.029 152.246C-139.389 165.49 -26.6706 248.66 50.2942 352.091C126.553 454.661 166.284 581.637 220.706 700.768C233.713 729.245 249.761 757.329 263.807 787.873C283.762 831.512 301.166 877.504 319.831 920.359C340.614 968.114 363.675 1012.78 392.393 1053.8C395.895 1058.82 399.499 1063.71 403.168 1068.65C437.738 1114.92 484.339 1156.25 540.339 1173.11C566.577 1181.02 594.924 1183.6 624.845 1178.55C655.183 1173.5 684.769 1161.23 713.874 1145.22C756.902 1121.4 798.569 1089.79 841.755 1065.36C878.283 1044.64 916.302 1029.5 954.539 1021.59C998.734 1012.37 1041.94 1013.04 1082.36 1020.19C1126 1027.94 1166.83 1043.42 1204.41 1065.45C1241.93 1087.55 1276.41 1116.05 1305.27 1148.01M-277.893 154.113C-145.967 169.373 -33.3516 250.355 43.914 350.119C119.9 448.264 157.058 571.884 214.048 685.092C227.87 712.512 246.006 739.256 260.901 769.928C281.939 813.666 298.42 861.263 315.435 905.164C334.385 953.929 354.933 999.396 381.549 1041.64C384.831 1046.81 388.165 1051.91 391.549 1056.94C423.776 1104.89 468.732 1148.21 524.133 1167.35C550.155 1176.36 578.755 1179.98 609.031 1175.83C639.774 1171.63 670.118 1160.15 700.005 1144.22C743.963 1120.7 786.623 1088.48 830.685 1063.46C867.987 1042.28 906.729 1026.75 945.728 1019.22C990.832 1010.6 1034.28 1013.13 1074.45 1022.1C1117.69 1031.74 1157.81 1049.11 1195.25 1072.41C1232.64 1095.77 1267.88 1125.06 1298.2 1155.94M-281.756 155.98C-152.545 173.256 -39.9666 252.102 37.5339 348.147C113.329 442.034 148.03 562.284 207.456 669.467C222.174 695.998 242.484 721.153 258.045 751.917C280.218 795.687 295.658 844.906 311.09 889.903C328.091 939.693 346.358 985.93 370.805 1029.35C373.803 1034.61 376.918 1039.86 380.032 1045.11C410.034 1094.71 453.242 1140.16 508.028 1161.46C533.953 1171.55 562.637 1176.29 593.318 1172.99C624.534 1169.67 655.618 1158.87 686.355 1143.07C731.361 1119.83 774.896 1087.02 819.9 1061.46C857.976 1039.83 897.441 1023.91 937.151 1016.81C983.216 1008.72 1026.85 1013.2 1066.79 1023.98C1109.56 1035.59 1148.96 1054.71 1186.33 1079.33C1223.65 1104.01 1259.58 1134.05 1291.42 1163.78M-285.62 157.847C-159.122 177.139 -46.6477 253.797 31.0875 346.125C106.508 435.718 139.184 552.72 200.797 653.791C216.463 679.367 238.78 703.014 255.19 733.906C278.431 777.657 292.948 828.482 306.811 874.693C321.979 925.494 337.733 972.531 360.077 1017.17C362.805 1022.65 365.701 1028.04 368.647 1033.37C396.373 1084.69 437.934 1132.14 492.056 1155.67C517.831 1166.91 546.651 1172.71 577.687 1170.3C609.374 1167.88 641.149 1157.83 672.669 1142.1C718.605 1119.15 763.184 1085.68 808.962 1059.66C847.812 1037.57 887.984 1021.14 928.421 1014.61C975.329 1007.07 1019.28 1013.46 1058.91 1026.13C1101.28 1039.63 1139.97 1060.63 1177.15 1086.58C1214.34 1112.53 1251.02 1143.36 1284.38 1171.94M-289.484 159.714C-165.7 181.022 -53.3951 255.442 24.707 344.154C99.8696 429.438 130.588 543.243 194.204 638.167C210.833 662.905 235.141 684.926 252.335 715.896C276.659 759.744 290.253 812.176 302.415 859.499C315.735 911.192 328.99 959.147 349.283 1004.94C351.726 1010.52 354.402 1016.06 357.079 1021.6C382.579 1074.58 422.326 1124.11 475.901 1149.84C501.577 1162.17 530.533 1169.02 561.924 1167.52C594.082 1165.99 626.599 1156.61 658.917 1141.08C705.9 1118.41 751.355 1084.35 798.009 1057.74C837.632 1035.2 878.528 1018.38 919.676 1012.29C967.545 1005.28 1011.62 1013.56 1051.08 1028.09C1093.03 1043.49 1131.01 1066.37 1168.13 1093.63C1205.24 1120.9 1242.62 1152.48 1277.5 1179.91M-293.347 161.581C-172.278 184.905 -60.1272 257.204 18.2607 342.131C93.0487 423.121 122.277 533.669 187.546 622.491C205.137 646.391 231.386 666.853 249.428 697.951C274.887 741.831 287.491 795.818 298.019 844.304C309.441 896.956 320.314 945.814 338.438 992.783C340.662 998.503 343.003 1004.21 345.46 1009.9C368.684 1064.6 406.8 1116.24 459.695 1144.09C485.156 1157.51 514.314 1165.46 546.11 1164.81C578.689 1164.23 611.947 1155.53 645.048 1140.07C693.013 1117.64 739.344 1082.99 786.954 1055.96C827.351 1032.96 868.904 1015.7 910.829 1010.1C959.608 1003.68 1003.92 1013.84 1043.07 1030.14C1084.62 1047.44 1121.82 1072.13 1158.87 1100.72C1195.92 1129.3 1233.98 1161.62 1270.33 1187.98M-297.211 163.448C-178.79 188.839 -66.9401 258.797 11.8807 340.159C86.2941 416.856 130.717 513.307 180.954 606.866C203.613 626.245 227.747 648.764 246.573 679.94C273.049 723.867 284.847 779.445 293.741 829.094C303.329 882.756 311.688 932.414 327.761 980.54C329.766 986.408 331.888 992.26 334.01 998.113C354.891 1054.48 391.376 1108.24 443.657 1138.25C468.969 1152.82 498.262 1161.83 530.412 1162.08C563.397 1162.34 597.463 1154.37 631.296 1139.05C680.242 1116.85 727.515 1081.66 776.001 1054.04C817.223 1030.52 859.499 1012.87 902.07 1007.66C951.742 1001.73 996.31 1013.87 1035.22 1031.99C1076.36 1051.18 1112.85 1077.75 1149.76 1107.6C1186.63 1137.52 1225.5 1170.57 1263.36 1195.78M-301.023 165.249C-185.317 192.657 -73.6875 260.442 5.48517 338.071C79.4069 410.489 123.878 502.235 174.331 591.007C198.412 608.954 224.079 630.442 243.754 661.746C271.364 705.706 282.239 762.89 289.431 813.65C297.238 868.257 303.033 918.781 317.003 968.13C318.671 974.16 320.625 980.094 322.528 986.094C341.082 1044.25 375.87 1100.07 427.588 1132.17C452.802 1147.83 482.231 1157.89 514.736 1159.04C548.192 1160.2 582.948 1152.97 617.631 1137.79C667.573 1115.93 715.824 1080.02 765.135 1051.88C807.131 1027.9 850.063 1009.8 893.411 1005.1C943.994 999.752 988.736 1013.72 1027.47 1033.7C1068.13 1054.74 1103.98 1083.24 1140.78 1114.48C1177.57 1145.71 1217.13 1179.5 1256.52 1203.56M-304.887 167.117C-191.894 196.54 -80.6177 262.051 -0.895111 336.099C72.5349 404.239 117.105 491.213 167.738 575.383C193.174 591.845 220.44 612.354 240.847 643.801C269.475 687.808 279.477 746.532 285.035 798.455C290.944 854.021 294.341 905.331 306.274 955.954C307.724 962.131 309.408 968.278 311.092 974.425C327.37 1034.3 360.461 1092.19 411.514 1126.52C436.578 1143.32 466.143 1154.44 499.003 1156.5C532.88 1158.6 568.428 1151.99 603.894 1136.88C654.818 1115.26 704.01 1078.81 754.212 1050.2C796.982 1025.76 840.637 1007.27 884.697 1003.01C936.239 998.196 981.223 1014.04 1019.62 1035.96C1059.86 1058.9 1094.94 1089.23 1131.66 1121.78C1168.33 1154.28 1208.65 1188.86 1249.54 1211.78M-308.75 168.983C-198.472 200.422 -87.5987 263.726 -7.27521 334.127C65.6122 398.054 110.282 480.257 161.146 559.757C188.003 574.787 216.802 594.266 238.058 625.841C267.82 669.88 276.899 730.21 280.823 783.296C284.949 839.805 285.848 892.033 295.612 943.829C296.843 950.153 298.191 956.462 299.656 962.757C313.541 1024.37 345.001 1084.37 395.491 1120.79C420.406 1138.75 450.106 1150.92 483.372 1153.82C517.72 1156.82 554.011 1150.88 590.275 1135.96C642.179 1114.57 692.314 1077.58 743.392 1048.38C786.935 1023.49 831.364 1004.54 876.084 1000.79C928.536 996.574 973.695 1014.24 1011.85 1037.98C1051.73 1062.75 1086.05 1095.01 1122.64 1128.83C1159.23 1162.65 1200.24 1197.98 1242.54 1219.76M-312.614 170.851C-205.05 204.306 -85.1135 255.316 -13.7216 332.105C50.0741 400.715 103.443 469.185 154.487 544.082C182.715 557.745 213.046 576.193 235.137 607.779C265.915 651.865 274.24 713.721 276.412 767.984C278.757 825.438 277.09 878.532 284.803 931.485C285.749 937.906 286.944 944.413 288.073 950.87C299.681 1014.2 330.734 1074.73 379.321 1114.85C403.475 1134.75 434.039 1147.16 467.593 1150.92C502.413 1154.81 539.394 1149.61 576.441 1134.78C629.276 1113.68 680.403 1076.09 732.306 1046.36C776.623 1021.01 821.709 1001.63 867.207 998.368C920.554 994.63 966.02 1014.22 1003.88 1039.84C1043.36 1066.51 1076.96 1100.65 1113.42 1135.73C1149.94 1170.87 1191.64 1206.94 1235.46 1227.57M-316.544 172.667C-211.643 208.072 -91.9152 256.075 -20.1169 330.016C42.9115 394.978 96.6042 458.113 147.88 528.34C177.529 540.571 209.393 557.988 232.282 589.768C264.077 633.901 271.596 697.348 272.133 752.775C272.696 811.172 268.465 865.132 274.075 919.309C274.751 925.943 275.661 932.546 276.571 939.15C285.786 1004.22 313.984 1068.45 363.232 1109.08C387.848 1129.33 417.936 1143.59 451.845 1148.25C487.086 1153.1 524.859 1148.52 562.705 1133.88C616.587 1113.06 668.641 1074.81 721.368 1044.56C766.459 1018.75 812.268 998.98 858.477 996.164C912.733 993.023 958.375 1014.43 996.057 1041.92C1035.06 1070.43 1067.95 1106.45 1104.41 1142.91C1140.8 1179.31 1183.26 1216.17 1228.59 1235.66M-320.407 174.533C-218.22 211.954 -98.7677 256.9 -26.563 327.994C35.7641 389.359 89.7656 447.04 141.221 512.664C172.292 523.462 205.688 539.848 229.36 571.706C262.29 615.871 268.885 680.924 267.671 737.529C266.453 796.87 259.656 851.697 263.215 907.03C263.606 913.761 264.297 920.512 265.055 927.314C271.993 994.107 298.443 1060.46 347.128 1103.19C371.594 1124.59 401.819 1139.9 436.133 1145.4C471.845 1151.14 510.309 1147.3 548.938 1132.74C603.802 1112.15 656.731 1073.31 710.467 1042.58C756.332 1016.32 802.848 996.032 849.834 993.711C905.051 991.101 950.271 1015.24 988.323 1043.75C1027.63 1073.24 1059.1 1112.06 1095.37 1149.84C1131.69 1187.56 1174.79 1225.24 1221.69 1243.51M-324.271 176.401C-224.732 215.889 -105.855 257.757 -32.9435 326.022C28.7333 383.724 82.9417 436.085 134.629 497.04C167.121 506.405 201.999 521.827 226.571 553.747C260.518 597.959 266.358 664.537 263.392 722.319C260.341 782.67 251.097 838.349 252.487 894.855C252.659 901.732 253.08 908.697 253.552 915.595C258.097 984.125 282.916 1052.59 331.038 1097.41C355.305 1120.04 385.767 1136.27 420.435 1142.67C456.568 1149.37 495.759 1146.09 535.252 1131.77C591.097 1111.41 644.968 1072.04 699.529 1040.78C746.167 1014.06 793.407 993.386 841.104 991.508C897.165 989.443 943.288 1014.59 980.501 1045.83C1018.73 1078.07 1050.16 1117.91 1086.29 1156.96C1122.43 1196.01 1166.34 1234.42 1214.71 1251.61M-328.083 178.201C-231.259 219.705 -123.105 272.059 -39.3385 323.933C29.9507 366.852 76.1542 424.946 127.956 481.246C161.818 489.245 198.28 503.57 223.635 535.568C258.665 579.877 263.633 647.996 259.033 706.941C254.2 768.236 242.441 824.715 241.729 882.444C241.631 889.535 241.818 896.53 242.021 903.641C244.172 973.908 267.426 1044.54 314.919 1091.41C339.037 1115.18 369.634 1132.46 404.657 1139.77C441.262 1147.36 481.194 1144.76 521.47 1130.52C578.296 1110.39 633.161 1070.41 688.546 1038.63C735.958 1011.45 783.921 990.387 832.33 988.953C889.3 987.484 935.715 1014.44 972.518 1047.58C1010.39 1081.65 1040.99 1123.38 1077.12 1163.8C1113.19 1204.17 1157.79 1243.31 1207.67 1259.36M-331.946 180.068C-237.837 223.588 -130.371 273.83 -45.7187 321.962C22.6919 360.83 69.3306 413.99 121.363 465.621C156.647 472.187 194.641 485.482 220.795 517.674C256.842 562.03 261.055 631.674 254.703 691.797C248.088 754.036 233.765 811.381 230.95 870.334C230.567 877.521 230.55 884.78 230.468 891.988C230.226 963.991 251.798 1036.81 298.779 1085.7C322.747 1110.62 353.546 1129.01 388.909 1137.11C425.934 1145.65 466.608 1143.73 507.733 1129.61C565.49 1109.78 621.347 1069.2 677.623 1036.95C725.809 1009.31 774.48 987.74 823.615 986.867C881.545 985.928 928.136 1014.71 964.712 1049.78C1002.16 1085.62 1032.06 1129.35 1068.06 1171.03C1104.06 1212.72 1149.35 1252.61 1200.75 1267.51M-335.81 181.936C-244.414 227.472 -137.805 275.682 -52.1651 319.939C15.316 354.824 62.4917 402.918 114.705 449.946C151.344 455.028 190.937 467.343 217.873 499.612C255.055 544.001 258.411 615.302 250.292 676.485C241.961 739.719 225.007 797.88 220.141 857.99C219.539 865.324 219.237 872.679 218.936 880.035C216.3 953.774 236.242 1028.7 282.66 1079.69C306.427 1105.83 337.413 1125.2 373.182 1134.14C410.678 1143.58 452.093 1142.33 493.951 1128.36C552.689 1108.76 609.488 1067.64 666.64 1034.8C715.651 1006.64 764.993 984.743 814.774 984.261C873.548 983.868 920.497 1014.5 956.78 1051.46C993.82 1089.2 1023.01 1134.8 1058.88 1177.75C1094.74 1220.71 1140.79 1261.39 1193.71 1275.14M-339.674 183.803C-250.992 231.355 -145.173 277.586 -58.5454 317.968C7.83819 348.949 55.6679 391.963 108.112 434.321C146.173 437.971 187.247 449.321 215.084 481.652C253.283 526.088 255.832 598.98 246.079 661.327C236.018 725.438 216.514 784.583 209.479 845.865C208.658 853.346 208.02 860.864 207.566 868.417C202.537 943.894 220.796 1021 266.703 1074.02C290.321 1101.3 321.443 1121.73 357.565 1131.58C395.483 1141.97 437.691 1141.34 480.28 1127.51C540.066 1108.19 597.74 1066.48 655.717 1033.12C705.502 1004.5 755.501 982.162 806.11 982.109C865.844 982.246 913.035 1014.75 949.025 1053.59C985.706 1093.16 1014.07 1140.65 1049.82 1184.99C1085.61 1229.26 1132.35 1270.69 1186.74 1283.35M-343.537 185.67C-257.57 235.238 -152.643 279.621 -64.9259 315.996C0.426216 343.126 48.895 380.941 101.519 418.696C140.95 420.98 183.609 431.233 212.178 463.708C251.46 508.241 253.254 582.658 241.683 646.132C229.84 711.187 207.771 771.199 198.684 833.638C197.528 841.282 196.737 848.998 195.997 856.647C188.576 933.86 205.204 1013.08 250.547 1068.19C273.965 1096.7 305.273 1118.11 341.802 1128.8C380.191 1140.08 423.023 1140.14 466.528 1126.49C527.295 1107.4 585.962 1065.09 644.83 1031.25C695.389 1002.18 746.161 979.383 797.431 979.84C858.075 980.573 905.491 1014.84 941.255 1055.6C977.576 1097.01 1005.18 1146.44 1040.86 1192.1C1076.59 1237.68 1124.01 1279.86 1179.92 1291.37M-347.401 187.537C-264.148 239.121 -160.164 281.722 -71.3719 313.973C-7.03617 337.368 42.0055 369.935 94.8611 403.02C135.713 403.871 179.853 413.159 209.323 445.696C249.622 490.277 250.61 566.285 237.287 630.937C223.729 696.987 199.08 757.748 187.839 821.477C186.464 829.268 185.388 837.08 184.379 844.943C174.614 923.826 189.51 1005.3 234.341 1062.44C257.544 1092.04 289.171 1114.54 325.988 1126.08C364.798 1138.32 408.422 1138.99 452.66 1125.48C514.408 1106.62 574.017 1063.77 633.76 1029.35C685.093 999.82 736.522 976.583 788.57 977.534C850.108 978.746 897.831 1014.93 933.185 1057.6C969.148 1100.83 995.988 1152.21 1031.53 1199.13C1067.08 1246.05 1115.31 1288.95 1172.73 1299.32M-351.264 189.404C-270.66 243.055 -167.721 284.007 -77.7523 312.002C-14.55 331.677 35.2326 358.914 88.2685 387.396C130.542 386.814 176.215 395.071 206.467 427.686C247.85 472.365 248.082 549.898 233.008 615.727C217.734 682.772 190.454 744.349 177.162 809.235C175.568 817.173 174.156 825.147 172.979 833.091C160.821 913.712 174.085 997.295 218.354 1056.53C241.356 1087.35 273.17 1110.84 310.341 1123.28C349.623 1136.41 393.989 1137.76 439.075 1124.38C501.805 1105.75 562.29 1062.31 622.924 1027.42C675.031 997.432 727.183 973.804 779.942 975.199C842.389 977.007 890.339 1014.95 925.465 1059.54C961.069 1104.61 987.083 1157.88 1022.56 1206.12C1058.04 1254.35 1106.96 1298 1165.83 1307.17M-355.077 191.205C-277.186 246.872 -175.212 286.342 -84.1474 309.913C-22.0634 325.985 28.394 347.841 81.5951 371.603C125.29 369.588 172.495 376.815 203.597 409.558C246.048 454.218 245.423 533.408 228.649 600.349C211.593 668.338 181.814 730.832 166.353 796.89C164.474 804.925 162.909 813.097 161.462 821.255C146.845 903.561 158.493 989.375 202.25 1050.64C225.103 1082.6 257.052 1107.15 294.629 1120.44C334.331 1134.52 379.424 1136.43 425.309 1123.25C488.953 1104.8 550.497 1060.8 612.022 1025.44C664.903 994.993 717.829 970.908 771.248 972.812C834.656 975.151 882.847 1014.97 917.681 1061.44C952.926 1108.34 978.178 1163.55 1013.52 1213.05C1048.86 1262.56 1098.54 1307 1158.88 1315.09M-358.941 193.072C-283.764 250.755 -182.79 288.928 -90.528 307.942C-29.5474 320.528 21.6209 336.82 75.0023 355.978C120.068 352.597 168.755 358.859 200.691 391.613C244.057 436.452 242.845 517.087 224.318 585.206C205.547 654.19 173.137 717.499 155.625 784.714C153.475 792.963 151.626 801.231 149.959 809.536C132.949 893.579 142.849 981.522 186.161 1044.87C208.813 1078.05 240.949 1103.58 278.881 1117.77C319.054 1132.75 364.888 1135.33 411.571 1122.34C476.197 1104.12 538.683 1059.59 601.033 1023.7C654.687 992.803 708.27 968.276 762.467 970.675C826.718 973.559 875.267 1015.23 909.808 1063.59C944.628 1112.27 969.134 1169.54 1004.41 1220.36C1039.68 1271.18 1090.05 1316.36 1151.91 1323.3M-362.803 194.938C-290.291 254.571 -190.352 291.628 -96.9738 305.919C-37.0303 315.07 14.7317 325.813 68.3953 340.236C114.816 335.371 165.102 340.654 197.887 373.536C242.387 418.407 240.318 500.698 220.025 569.878C199.538 639.857 164.497 703.982 144.882 772.421C142.448 780.765 140.379 789.181 138.443 797.699C119.039 883.478 127.258 973.601 170.057 1038.98C192.494 1073.25 224.832 1099.89 263.169 1114.92C303.763 1130.85 350.339 1134.12 397.805 1121.21C463.412 1103.22 526.84 1058.15 590.065 1021.67C644.494 990.312 698.8 965.395 753.759 968.171C818.97 971.585 867.761 1015.13 901.942 1065.32C936.469 1115.88 960.083 1174.99 995.289 1227.13C1030.49 1279.26 1081.55 1325.19 1144.93 1330.98M-366.667 196.806C-296.869 258.455 -197.885 294.565 -103.354 303.948C-44.4331 309.781 7.02447 323.24 61.8024 324.611C110.075 325.812 161.463 322.566 195.031 355.525C240.549 400.443 237.79 484.311 215.68 554.618C193.411 625.541 155.871 690.583 134.138 760.128C131.485 768.62 129.147 777.249 126.977 785.797C105.113 873.262 111.716 965.616 154.003 1033.02C176.24 1068.51 208.779 1096.25 247.507 1112.01C288.522 1128.9 335.824 1132.72 384.155 1120.06C450.743 1102.3 515.113 1056.69 579.214 1019.62C634.416 987.807 689.43 962.382 745.115 965.719C811.237 969.729 860.319 1015.08 894.208 1067.15C928.325 1119.61 951.228 1180.59 986.3 1234C1021.37 1287.4 1073.19 1334.12 1138.08 1338.77M-370.531 198.673C-303.447 262.338 -205.219 297.653 -109.735 301.976C-51.8205 304.608 0.874828 310.591 55.2099 308.987C105.038 307.488 157.773 304.544 192.191 337.631C238.792 382.648 235.161 468.055 211.416 539.525C187.431 611.442 147.312 677.235 123.425 748.069C120.553 756.708 117.93 765.433 115.49 774.195C91.2332 863.396 96.2046 957.865 137.929 1027.36C159.966 1064.07 192.742 1092.73 231.774 1109.46C273.21 1127.31 321.304 1131.74 370.367 1119.22C437.937 1101.69 503.299 1055.48 568.24 1018C624.216 985.734 679.953 959.918 736.283 963.647C803.299 968.137 852.623 1015.36 886.234 1069.43C919.992 1123.72 942.134 1186.64 977.138 1241.37C1012.14 1296.09 1064.65 1343.55 1131.01 1347.12M-374.395 200.54C-309.958 266.272 -212.589 300.925 -116.181 299.954C-59.1568 299.37 -5.52382 297.856 48.5515 293.311C99.8544 288.945 154.069 286.405 189.27 319.57C236.888 364.633 232.568 451.617 207.005 524.214C181.305 597.126 138.554 663.734 112.616 735.725C109.408 744.526 106.566 753.399 103.973 762.358C77.3077 853.18 80.5462 949.894 121.774 1021.54C143.595 1059.35 176.574 1089.11 216.011 1106.68C257.918 1125.42 306.703 1130.59 356.6 1118.08C425.166 1100.9 491.455 1054.03 557.272 1015.97C614.022 983.244 670.482 957.037 727.524 961.21C795.449 966.296 845.065 1015.32 878.383 1071.28C911.782 1127.4 933.097 1192.21 968.033 1248.25C1002.97 1304.29 1056.17 1352.5 1124.04 1354.92M-378.324 202.356C-316.602 270.104 -219.894 304.248 -122.627 297.931C-66.4121 294.299 -12.2226 285.1 41.8929 277.635C94.4873 270.367 150.364 268.266 186.414 301.559C235.166 346.654 230.173 435.331 202.609 509.019C175.325 583.028 129.812 650.35 101.771 723.564C98.3439 732.512 95.1658 741.547 92.3538 750.654C63.1123 843.176 64.8519 942.107 105.568 1015.78C127.189 1054.8 160.354 1085.55 200.196 1103.96C242.524 1123.66 292.102 1129.45 342.797 1117.13C412.344 1100.18 479.509 1052.72 546.217 1014.19C603.726 980.886 660.908 954.288 718.677 959.021C787.563 964.638 837.536 1015.52 870.445 1073.37C903.536 1131.26 924.039 1198.08 958.789 1255.45C993.539 1312.83 1047.49 1361.83 1116.94 1363.03M-382.136 204.157C-323.129 273.921 -226.883 307.708 -129.022 295.842C-73.5652 289.096 -19.1042 272.308 35.2856 261.893C89.0903 251.554 146.711 250.06 183.544 283.43C233.313 328.573 227.514 418.841 198.316 493.692C169.25 568.644 121.238 636.884 91.0791 711.204C87.4329 720.3 84.0358 729.482 80.8878 738.752C49.304 832.944 49.1937 934.136 89.5147 1009.82C110.869 1050.01 144.287 1081.8 184.484 1101.11C227.284 1121.7 277.603 1128.17 329.03 1115.99C399.559 1099.27 467.665 1051.28 535.315 1012.2C593.598 978.446 651.503 951.458 710.034 956.568C779.763 962.73 830.029 1015.42 862.644 1075.15C895.377 1134.87 915.119 1203.64 949.735 1262.27C984.417 1320.96 1039.06 1370.71 1110.03 1370.77M-386 206.024C-329.707 277.804 -233.842 311.402 -135.403 293.871C-80.5205 284.047 -26.205 259.663 28.627 246.217C83.4591 232.771 142.955 231.987 180.572 265.435C231.424 310.675 224.752 402.483 193.854 478.446C162.955 554.409 112.429 623.449 80.1679 698.992C36.0265 802.361 29.5851 918.586 73.3595 1004C117.134 1089.41 213.905 1138.36 315.278 1114.97C448.488 1084.33 573.341 942.162 701.238 954.314C771.928 961.006 822.384 1015.64 854.757 1077.18C887.079 1138.79 906.046 1209.39 940.66 1269.39C975.273 1329.4 1030.61 1379.89 1103.04 1378.86" stroke="url(#paint0_linear_237_458)" stroke-width="0.5" stroke-miterlimit="10"/>
<defs>
<linearGradient id="paint0_linear_237_458" x1="4.60084" y1="231.077" x2="1317.49" y2="1235.34" gradientUnits="userSpaceOnUse">
<stop stop-color="#2973FF"/>
<stop offset="0.48974" stop-color="#8846D3" stop-opacity="0.12"/>
<stop offset="1" stop-color="#FF22AC" stop-opacity="0.11"/>
</linearGradient>
</defs>
</svg>
