<svg width="305" height="1712" viewBox="0 0 305 1712" fill="none" xmlns="http://www.w3.org/2000/svg">
<path d="M-623.538 1514.57C-553.845 1398.44 -419.745 1326.97 -285.999 1266.17C-152.253 1205.37 -10.8745 1149.06 86.7785 1050.99C169.074 968.307 215.47 858.106 217.003 741.476C218.601 621.349 174.333 498.965 143.535 377.694C112.738 256.424 95.9744 127.651 149.927 23.3081M-618.151 1517.97C-551.46 1401.57 -420.148 1328.52 -288.13 1266.75C-156.112 1204.99 -15.8207 1148.14 81.9193 1050.85C160.151 973.188 207.567 871.935 215.923 763.315C216.432 756.398 216.842 749.522 217.043 742.558C218.901 682.117 208.999 620.784 193.464 559.396C178.266 498.967 158.046 438.983 141.55 378.914C107.902 257.601 90.9639 127.281 146.116 22.619M-612.792 1521.43C-549.174 1404.73 -420.509 1330.18 -290.259 1267.34C-160.01 1204.51 -20.836 1147.2 77.0608 1050.7C156.119 973.226 205.351 872.731 215.585 764.322C216.234 757.463 216.743 750.546 217.043 743.541C219.984 683.06 211.001 621.292 194.71 559.752C178.936 499.328 157.36 439.844 139.566 380.135C103.404 258.756 85.9834 126.842 142.235 21.901M-607.405 1524.83C-546.86 1407.83 -420.911 1331.73 -292.43 1267.83C-163.949 1203.93 -25.8928 1146.15 72.2306 1050.49C152.115 973.194 203.162 873.457 215.346 765.287C216.094 758.388 216.772 751.459 217.211 744.513C221.234 683.992 213.072 621.828 196.153 560.026C179.802 499.608 156.771 440.664 137.779 381.274C98.9337 259.841 81.1708 126.391 138.552 21.1014M-602.018 1528.23C-544.504 1411.03 -421.244 1333.31 -294.561 1268.41C-167.878 1203.52 -31.1299 1144.95 67.3713 1050.35C147.93 973.005 200.944 874.252 215.008 766.293C215.895 759.452 216.672 752.483 217.251 745.595C222.328 685.104 215.085 622.505 197.508 560.509C180.582 500.097 156.096 441.693 135.904 382.622C94.3763 261.135 76.2709 126.149 134.822 20.6102M-596.631 1531.62C-542.189 1414.12 -421.645 1334.86 -296.661 1268.93C-171.677 1203 -36.0869 1143.87 62.6409 1050.09C143.985 972.834 198.885 874.868 214.799 767.189C215.855 760.337 216.701 753.396 217.379 746.468C223.538 685.937 217.018 622.983 198.882 560.755C181.28 500.389 155.339 442.525 133.978 383.703C89.7675 262.162 71.3194 125.64 130.999 19.7527M-591.273 1535.09C-539.834 1417.32 -422.007 1336.52 -298.791 1269.52C-175.576 1202.52 -41.1728 1142.89 57.7816 1049.95C139.912 972.773 196.667 875.663 214.46 768.196C215.586 761.372 216.602 754.42 217.448 747.48C224.689 686.909 219.06 623.589 200.226 561.07C182.048 500.709 154.652 443.385 132.092 384.883C85.1696 263.358 66.4078 125.229 127.217 18.9938M-585.886 1538.48C-537.519 1420.42 -422.409 1338.07 -300.991 1270.07C-179.573 1202.08 -46.2584 1141.92 52.8528 1049.78C135.739 972.753 194.379 876.43 214.122 769.202C215.417 762.367 216.502 755.444 217.419 748.533C225.742 687.922 220.933 624.208 201.442 561.496C182.659 501.21 153.837 444.356 130.049 386.243C80.3739 264.635 61.4091 125.028 123.347 18.4447M-580.499 1541.88C-535.205 1423.51 -422.771 1339.72 -303.092 1270.59C-183.414 1201.46 -51.2162 1140.83 48.0924 1049.6C131.834 972.68 192.261 877.185 213.883 770.167C215.248 763.361 216.502 756.427 217.587 749.505C226.993 688.854 223.103 624.703 202.884 561.77C183.526 501.49 153.179 445.147 128.261 387.382C75.8343 265.69 56.6257 124.507 119.664 17.6449M-575.111 1545.27C-532.82 1426.64 -423.173 1341.27 -305.193 1271.11C-187.214 1200.94 -56.2725 1139.79 43.2628 1049.38C127.79 972.55 190.073 877.911 213.575 771.104C215.108 764.286 216.432 757.381 217.616 750.418C228.075 689.797 225.105 625.211 204.159 562.056C184.224 501.781 152.393 446.048 126.236 388.504C71.0273 266.798 51.575 124.038 115.783 16.9268M-569.724 1548.67C-530.505 1429.73 -423.505 1342.86 -307.364 1271.59C-191.222 1200.33 -61.3286 1138.74 38.4624 1049.1C123.816 972.449 187.914 878.567 213.365 772C214.968 765.212 216.461 758.295 217.785 751.39C229.256 690.7 227.177 625.748 205.602 562.33C185.092 502.061 151.735 446.839 124.449 389.643C66.4591 267.924 46.763 123.587 112.1 16.1275M-564.366 1552.13C-528.15 1432.93 -423.937 1344.48 -309.523 1272.25C-195.11 1200.02 -66.3739 1137.87 33.5739 1049.03C119.713 972.457 185.597 879.403 212.998 773.076C214.77 766.276 216.332 759.388 217.755 752.443C230.309 691.712 229.12 626.394 206.818 562.755C185.731 502.492 150.821 447.851 122.435 390.933C61.6923 269.131 41.7234 123.287 108.189 15.4789M-558.979 1555.53C-525.864 1436.1 -424.269 1346.06 -311.624 1272.77C-198.98 1199.47 -71.3607 1136.85 28.7438 1048.82C115.739 972.356 183.409 880.128 212.689 774.012C214.53 767.241 216.331 760.372 217.853 753.385C231.49 692.615 231.121 626.902 208.162 563.071C186.499 502.812 150.064 448.682 120.549 392.113C56.9549 270.268 36.812 122.877 104.477 14.7492M-553.592 1558.92C-523.549 1439.19 -424.671 1347.62 -313.795 1273.25C-202.919 1198.89 -76.3879 1135.74 23.9142 1048.6C111.665 972.295 181.22 880.854 212.45 774.978C214.46 768.196 216.331 761.355 217.993 754.427C232.712 693.616 233.234 627.537 209.576 563.415C187.337 503.162 149.348 449.613 118.663 393.293C52.2875 271.435 31.9009 122.466 100.695 13.9904M-548.204 1562.32C-521.165 1442.32 -425.003 1349.2 -315.925 1273.84C-206.847 1198.48 -81.4036 1134.79 19.0552 1048.46C107.662 972.263 179.032 881.58 212.112 775.984C214.262 769.26 216.232 762.379 217.992 755.41C233.764 694.63 235.206 628.115 210.821 563.771C188.006 503.523 148.562 450.514 116.679 394.513C47.4221 272.682 26.9199 122.027 96.8137 13.2724M-542.817 1565.71C-518.85 1445.42 -425.405 1350.75 -318.026 1274.36C-210.646 1197.96 -86.39 1133.77 14.3245 1048.21C103.757 972.191 176.943 882.265 211.902 776.88C214.151 770.115 216.261 763.292 218.19 756.312C235.045 695.492 237.336 628.512 212.294 563.975C188.902 503.733 147.904 451.305 114.921 395.583C42.8828 273.738 22.1368 121.506 93.2004 12.5023M-537.459 1569.18C-516.494 1448.61 -425.837 1352.37 -320.156 1274.94C-214.475 1197.51 -91.3364 1132.86 9.46513 1048.06C99.7534 972.159 174.725 883.061 211.564 777.886C213.953 771.18 216.161 764.316 218.16 757.365C236.097 696.505 239.279 629.159 213.51 564.401C189.542 504.164 146.99 452.316 112.907 396.873C38.0172 274.986 17.0971 121.206 89.2898 11.8537M-532.072 1572.57C-514.18 1451.71 -426.169 1353.96 -322.356 1275.5C-218.543 1197.04 -96.4221 1131.88 4.53615 1047.89C95.6506 972.168 172.438 883.827 211.226 778.892C213.714 772.145 216.062 765.34 218.229 758.377C237.249 697.477 241.321 629.765 214.853 564.716C190.31 504.485 146.204 453.218 110.951 398.024C33.1807 276.164 12.1159 120.766 85.4377 11.0657M-526.684 1575.97C-511.865 1454.8 -426.6 1355.58 -324.457 1276.02C-222.313 1196.45 -101.408 1130.87 -0.223379 1047.71C91.7465 972.096 170.32 884.582 210.987 779.858C213.615 773.169 216.062 766.323 218.299 759.39C238.401 698.449 243.364 630.372 216.169 565.101C191.119 504.904 145.319 454.16 109.036 399.273C28.3856 277.441 7.17589 120.426 81.6966 10.4061M-521.228 1579.39C-509.41 1457.96 -426.863 1357.19 -326.488 1276.56C-226.113 1195.93 -106.256 1129.91 -4.9838 1047.53C87.7425 972.064 168.201 885.337 210.748 780.824C213.474 774.094 216.061 767.307 218.467 760.362C239.622 699.451 245.464 630.839 217.583 565.445C191.956 505.254 144.603 455.09 107.22 400.482C23.6886 278.677 2.40397 120.073 77.9839 9.6764M-515.84 1582.79C-507.095 1461.06 -427.265 1358.74 -328.659 1277.05C-230.052 1195.36 -111.312 1128.86 -9.78427 1047.24C83.8672 971.922 166.042 885.993 210.539 781.72C213.404 775.049 216.09 768.22 218.665 761.264C240.903 700.313 247.635 631.335 219.125 565.679C192.923 505.493 144.015 455.91 105.532 401.581C19.1204 279.802 -2.27991 119.512 74.4 8.83625M-510.482 1586.25C-504.769 1464.32 -427.627 1360.4 -330.818 1277.71C-234.009 1195.02 -116.287 1128.02 -14.6727 1047.17C79.8051 972.03 163.795 886.859 210.171 782.796C213.206 776.113 215.961 769.314 218.606 762.386C241.926 701.395 249.549 632.051 220.312 566.174C193.562 505.924 143.072 456.991 103.419 402.911C14.1266 281.16 -7.41852 119.252 70.4311 8.32738M-505.095 1589.65C-502.454 1467.42 -428.029 1361.95 -332.919 1278.22C-237.809 1194.49 -121.274 1127 -19.5024 1046.96C75.8017 971.998 161.607 887.585 209.863 783.732C212.967 777.079 215.92 770.198 218.705 763.329C243.107 702.298 251.65 632.518 221.685 566.419C194.36 506.174 142.315 457.823 101.562 404.022C9.31961 282.269 -12.3004 118.772 66.6783 7.4988M-499.708 1593.05C-500.14 1470.51 -428.362 1363.53 -335.02 1278.74C-241.679 1193.95 -126.22 1126.09 -24.2629 1046.77C71.8965 971.926 159.517 888.27 209.722 784.657C212.995 777.992 216.018 771.141 218.902 764.231C244.386 703.16 253.82 633.014 223.128 566.693C195.296 506.483 141.628 458.683 99.7746 405.161C4.62255 283.505 -17.1133 118.321 62.9946 6.6995M-494.321 1596.44C-497.755 1473.64 -428.763 1365.08 -337.22 1279.3C-245.676 1193.51 -131.235 1125.14 -29.1912 1046.6C67.8643 971.964 157.23 889.036 209.315 785.634C212.658 778.998 215.92 772.164 218.873 765.284C245.341 704.213 255.723 633.562 224.373 567.049C195.966 506.845 140.743 459.625 97.7903 406.381C-0.242351 284.752 -22.1228 117.951 59.1839 6.01029M-488.933 1599.84C-495.44 1476.74 -429.096 1366.67 -339.321 1279.81C-249.546 1192.96 -136.222 1124.12 -33.9223 1046.35C63.9594 971.891 155.141 889.721 209.105 786.53C212.617 779.882 215.948 773.078 219 766.157C246.551 705.046 257.992 634.017 225.746 567.294C196.891 506.985 139.887 460.498 95.8635 407.462C-5.14862 285.901 -27.0751 117.442 55.3607 5.15266M-483.575 1603.3C-493.085 1479.93 -429.527 1368.29 -341.451 1280.4C-253.375 1192.51 -141.168 1123.21 -38.7811 1046.21C59.9269 971.929 152.923 890.517 208.837 787.566C212.419 780.947 215.919 774.131 219.14 767.198C247.773 706.048 260.064 634.554 227.161 567.639C197.799 507.364 139.171 461.428 94.0477 408.671C-9.8741 287.207 -31.8871 116.991 51.6486 4.42294M-478.188 1606.7C-490.77 1483.03 -429.859 1369.87 -343.651 1280.95C-257.442 1192.04 -146.213 1122.33 -43.7098 1046.03C55.8942 971.968 150.636 891.283 208.429 788.543C212.18 781.913 215.75 775.126 219.11 768.251C248.826 707.061 262.007 635.201 228.377 568.064C198.439 507.795 138.228 462.51 92.0337 409.961C-14.7977 288.594 -36.9263 116.691 47.7792 3.87368M-472.801 1610.09C-488.456 1486.13 -430.291 1371.49 -345.752 1281.47C-261.213 1191.45 -151.049 1121.54 -48.4705 1045.85C52.1402 972.122 148.517 892.038 208.19 789.508C212.01 782.907 215.749 776.109 219.208 769.194C250.006 707.963 264.078 635.738 229.72 568.379C199.206 508.115 137.442 463.411 90.1472 411.141C-19.6637 289.842 -41.8383 116.28 43.9963 3.11468M-467.414 1613.49C-486.071 1489.25 -430.623 1373.08 -347.852 1281.99C-265.082 1190.9 -155.965 1120.56 -53.2999 1045.64C48.0673 972.061 146.329 892.764 207.881 790.445C211.87 783.833 215.679 777.063 219.307 770.136C251.158 708.936 266.08 636.245 231.094 568.625C200.004 508.366 136.557 464.353 88.192 412.292C-24.8139 291.38 -46.8188 115.841 40.2147 2.35604M-462.056 1616.95C-483.814 1492.49 -431.054 1374.7 -350.053 1282.54C-269.051 1190.39 -161.051 1119.58 -58.1301 1045.42C44.0924 971.96 144.071 893.461 207.642 791.41C211.771 784.856 215.678 778.046 219.376 771.149C252.31 709.908 268.151 636.782 232.409 569.009C200.742 508.756 135.742 465.324 86.2766 413.541C-29.5109 292.616 -51.6898 115.529 36.403 1.66687M-456.668 1620.35C-481.43 1495.61 -431.387 1376.28 -352.183 1283.13C-272.979 1189.98 -166.038 1118.57 -62.9889 1045.28C40.0599 971.998 141.854 894.256 207.304 792.417C248.974 727.528 274.282 645.076 233.753 569.324C201.51 509.076 134.956 466.225 84.3909 414.721C-34.2771 293.823 -56.6008 115.119 32.621 0.908206M-454.126 1623.29C-476.555 1500.43 -428.275 1381.6 -352.412 1289.18C-276.892 1197.2 -172.461 1129.24 -75.1258 1054.72C-52.0916 1037.05 -29.5574 1018.01 -5.9874 999.248C27.8162 972.461 62.2888 946.036 94.1083 918.503C129.7 887.628 162.156 855.034 189.847 818.731C193.242 814.329 196.526 809.799 199.74 805.24C230.251 762.574 253.235 711.031 252.722 658.042C252.523 633.374 247.173 608.278 235.016 583.783C222.736 558.99 204.7 536.795 183.864 515.808C152.907 484.697 116.234 456.282 85.283 424.763C59.1482 398.205 37.5768 368.962 21.354 338.099C2.70071 302.452 -8.60792 265.117 -13.3759 228.217C-18.6897 188.303 -16.491 148.656 -7.11203 110.858C2.19711 73.03 18.6458 36.9524 41.2261 5.23654M-451.655 1626.21C-471.652 1505.18 -425.264 1386.95 -352.741 1295.27C-280.806 1204.42 -178.925 1139.82 -87.3622 1064.2C-65.4743 1046.13 -44.6445 1025.48 -21.1906 1006.02C12.3457 978.298 48.5407 952.263 81.6923 925.86C118.639 896.452 152.346 865.773 181.532 830.995C185.107 826.751 188.542 822.448 192.006 818.075C224.419 776.941 249.678 726.429 251.301 673.429C252.073 648.593 247.685 623.16 236.237 598.142C224.697 572.757 207.01 549.724 186.157 527.992C155.2 495.898 117.736 466.824 86.2036 434.736C59.4871 407.607 37.305 377.863 21.4025 346.232C2.95912 309.69 -6.59764 271.693 -9.81766 234.619C-13.275 194.578 -9.29573 155.182 1.18318 117.105C11.7319 79.0576 28.5998 42.1716 49.8189 9.39598M-449.113 1629.16C-466.707 1510.03 -422.211 1392.4 -352.97 1301.32C-284.848 1211.74 -185.301 1150.19 -99.5285 1073.71C-78.7577 1055.17 -59.5914 1033.01 -36.2245 1012.77C-2.85662 984.082 34.9617 958.479 69.4164 933.276C107.678 905.235 142.675 876.57 173.426 843.347C177.182 839.26 180.867 835.143 184.482 830.997C218.908 791.522 246.302 741.984 250.061 688.974C251.846 664.068 248.307 638.171 237.569 612.629C226.669 586.692 209.501 562.81 188.532 540.374C157.616 507.395 119.39 477.594 87.1364 444.877C59.8382 417.177 37.144 386.892 21.3932 354.505C3.25864 317.026 -4.71504 278.379 -6.28812 241.091C-7.98804 200.964 -2.19895 161.749 9.42061 123.493C21.11 85.2654 38.4962 47.5305 58.4238 13.7242M-446.572 1632.1C-461.763 1514.88 -419.129 1397.79 -353.2 1307.37C-288.761 1218.96 -191.59 1160.35 -111.666 1083.15C-91.8839 1064.04 -74.62 1040.35 -51.3285 1019.5C-18.1988 989.809 21.2837 964.736 57.0705 940.662C96.6874 914.089 132.894 887.24 165.181 855.641C169.087 851.78 172.953 847.821 176.819 843.861C213.216 805.947 242.886 757.439 248.681 704.46C251.438 679.387 248.859 653.152 238.762 627.058C228.531 600.499 211.782 575.808 190.726 552.599C159.811 518.637 120.864 488.207 87.9175 454.791C60.0376 426.521 36.8318 395.694 21.3024 362.58C3.4068 324.136 -2.91399 284.867 -2.84014 247.365C-2.71279 207.181 4.78706 168.189 17.5764 129.683C30.4355 91.2058 48.3109 52.6914 66.8772 17.8254M-444.03 1635.05C-456.819 1519.73 -416.076 1403.24 -353.459 1313.49C-292.693 1226.42 -197.891 1170.34 -123.832 1092.66C-105.109 1072.94 -89.6367 1047.85 -66.4322 1026.23C-33.5697 995.605 7.53605 970.964 44.7539 947.979C85.6854 922.774 123.183 897.938 157.035 867.894C161.191 864.22 165.237 860.417 169.213 856.586C207.653 820.261 239.458 772.727 247.359 719.807C251.158 694.594 249.47 667.994 240.083 641.377C230.521 614.195 214.261 588.726 193.089 564.812C162.215 529.966 122.436 498.779 88.9085 464.793C60.4469 435.952 36.6301 404.625 21.4211 370.743C3.80522 331.432 -0.903278 291.443 0.887329 253.755C2.77212 213.485 12.0816 174.675 26.0814 136.018C40.0812 97.3618 58.4748 57.9985 75.6799 22.0728M-441.487 1637.99C-451.874 1524.58 -413.052 1408.76 -353.688 1319.54C-296.635 1233.7 -204.174 1180.09 -135.969 1102.1C-118.206 1081.74 -104.624 1055.28 -81.5355 1032.95C-48.8414 1001.36 -6.1122 977.151 32.4785 955.394C74.6256 931.598 113.514 908.736 148.86 880.217C153.168 876.769 157.394 873.124 161.62 869.479C202.032 834.715 236.082 788.281 246.049 735.322C250.82 709.942 250.023 682.975 241.346 655.835C232.454 628.031 216.613 601.753 195.424 577.095C164.55 541.266 124.05 509.45 89.801 474.835C60.7578 445.424 36.4291 413.555 21.4415 378.946C4.06462 338.669 0.979926 298.128 4.4466 260.157C8.08884 219.801 19.2081 181.172 34.3776 142.266C49.5472 103.36 68.43 63.2177 84.2738 26.2322M-438.946 1640.94C-446.93 1529.43 -409.93 1414.25 -353.946 1325.66C-300.566 1241.16 -210.608 1189.62 -148.135 1111.61C-131.332 1090.6 -119.571 1062.81 -96.5696 1039.71C-64.1137 1007.12 -19.7902 983.408 20.2024 962.81C63.635 940.451 103.872 919.463 140.754 892.568C145.242 889.278 149.69 885.889 154.096 882.402C196.55 849.227 232.834 803.726 244.809 750.867C250.592 725.417 250.714 698.015 242.678 670.323C234.525 641.926 219.104 614.84 197.799 589.477C166.896 552.734 125.675 520.29 90.8324 484.935C61.2075 454.954 36.3378 422.613 21.6008 387.208C4.53274 345.994 3.03112 304.803 8.1156 266.687C13.5153 226.245 26.4151 187.867 42.7545 148.712C59.0938 109.557 78.4658 68.635 93.0181 30.6189M-436.404 1643.88C-441.957 1534.21 -406.935 1419.84 -354.176 1331.71C-304.468 1248.55 -230.422 1187.01 -160.272 1121.05C-148.618 1096.66 -134.559 1070.24 -111.674 1046.44C-79.4151 1012.94 -33.509 989.566 7.88561 970.127C52.6328 949.136 94.161 930.162 132.538 904.792C137.206 901.659 141.834 898.428 146.462 895.196C190.928 863.68 229.447 819.112 243.458 766.283C250.283 740.695 251.296 712.927 243.969 684.711C236.457 655.762 221.484 627.797 200.133 601.76C169.202 564.104 127.288 530.961 91.7241 494.978C61.4477 464.396 36.0663 431.514 21.5216 395.452C4.66334 353.342 4.84367 311.46 11.5751 273.13C18.7322 232.602 33.4418 194.405 50.9218 155.07C68.4716 115.765 88.2919 73.9647 101.483 34.8888M-433.932 1646.8C-437.082 1539.03 -403.911 1425.36 -354.504 1337.81C-308.428 1256.07 -238.514 1195.59 -172.607 1130.58C-162.541 1105.27 -149.744 1077.75 -126.946 1053.18C-94.9255 1018.68 -47.3959 995.736 -4.62844 977.525C41.3635 957.873 84.2525 940.942 124.194 917.126C129.084 914.25 133.822 911.146 138.63 908.072C185.208 878.175 225.932 834.608 241.91 781.781C249.707 756.024 251.61 727.891 244.994 699.152C238.151 669.581 223.667 640.837 202.229 614.026C171.368 575.415 128.593 541.586 92.3779 505.002C61.5198 473.851 35.5973 440.497 21.3031 403.637C4.75372 360.592 6.48812 318.128 14.8956 279.515C23.7811 238.97 40.3295 200.885 59.049 161.33C77.7686 121.775 98.0781 79.1957 109.908 39.0601M-431.39 1649.74C-432.137 1543.88 -400.876 1431.05 -354.733 1343.86C-312.289 1263.56 -246.577 1204.11 -184.744 1140.02C-176.295 1113.88 -164.732 1085.18 -141.98 1059.93C-110.157 1024.53 -61.0737 1001.99 -16.9043 984.94C30.373 966.726 74.5125 951.71 116.048 929.379C121.118 926.66 126.106 923.743 131.094 920.825C179.714 892.518 222.643 849.954 240.728 797.186C249.567 771.29 252.36 742.79 246.454 713.529C240.351 683.365 226.217 653.783 204.662 626.268C173.773 586.744 130.306 552.216 93.4678 514.963C62.028 483.241 35.5937 449.346 21.521 411.759C5.21058 367.748 8.52804 324.634 18.7221 285.864C29.365 245.233 47.694 207.4 67.5833 167.596C87.4436 127.861 108.271 84.4325 118.74 43.2372M-428.849 1652.69C-427.193 1548.73 -397.771 1436.77 -354.963 1349.91C-316.081 1271.07 -254.57 1212.66 -196.881 1149.46C-190.021 1122.41 -179.72 1092.62 -157.055 1066.59C-125.47 1030.19 -74.7634 1008.08 -29.192 992.187C19.3301 975.312 64.8595 962.269 107.931 941.562C113.181 939 118.39 936.339 123.559 933.579C174.261 906.961 219.424 865.328 239.476 812.562C249.357 786.527 253.04 757.661 247.775 727.847C242.341 697.061 228.626 666.671 207.054 638.411C176.136 597.974 131.977 562.747 94.4177 524.866C62.3962 492.573 35.3802 458.108 21.5988 419.823C5.59715 374.875 10.4686 331.18 22.3096 292.196C34.6402 251.45 54.8487 213.828 75.8787 173.844C96.9087 133.86 118.226 89.652 127.374 47.4958M-426.307 1655.64C-422.249 1553.58 -405.72 1436.57 -355.222 1356.03C-310.104 1284.05 -262.663 1221.25 -209.047 1158.97C-203.705 1131.04 -194.666 1100.15 -172.187 1073.39C-140.8 1036.09 -88.5807 1014.28 -41.5667 999.643C8.20019 984.107 55.0905 973.107 99.6565 953.926C105.058 951.591 110.476 949.017 115.866 946.513C168.611 921.484 214.332 880.085 238.067 828.118C249.827 802.294 253.523 772.614 248.939 742.346C244.174 710.938 230.948 679.769 209.261 650.805C178.383 609.484 133.462 573.529 95.2516 535.048C62.6485 502.184 35.0914 467.248 21.5605 428.166C5.76875 382.322 12.2524 337.907 25.8102 298.738C39.8982 257.906 61.9164 220.465 84.0871 180.301C106.287 140.068 128.093 95.0809 135.88 51.865M-423.794 1658.65C-417.403 1558.47 -403.459 1442.35 -355.55 1362.12C-313.447 1291.67 -270.755 1229.83 -221.283 1168.45C-217.529 1139.61 -209.753 1107.62 -187.291 1080.11C-156.101 1041.91 -102.299 1020.44 -53.8833 1006.96C-2.87168 992.763 45.3795 983.806 91.5102 966.179C97.1616 964.03 102.732 961.683 108.302 959.336C163.129 935.996 212.76 896.228 236.787 843.563C248.75 817.251 254.175 787.555 250.3 756.764C246.275 724.763 233.399 692.756 211.694 663.047C180.817 620.743 135.105 584.13 96.2426 545.049C63.0577 511.615 34.9888 476.137 21.6793 436.328C6.19638 389.548 14.2341 344.552 29.4679 305.099C45.2843 264.251 69.1121 226.991 92.4817 186.508C115.822 146.095 138.146 100.259 144.572 55.9838M-421.252 1661.6C-412.459 1563.32 -401.128 1448.16 -355.809 1368.24C-316.692 1299.25 -278.847 1238.42 -233.45 1177.96C-231.284 1148.21 -224.77 1115.12 -202.424 1086.91C-171.473 1047.71 -116.047 1026.66 -66.1885 1014.45C-13.9321 1001.59 35.6799 994.673 83.3055 978.571C89.1081 976.649 94.8585 974.46 100.638 972.2C157.507 950.45 209.413 911.714 235.407 859.05C248.412 832.599 254.727 802.536 251.493 771.193C248.137 738.57 235.75 705.784 213.929 675.371C183.023 632.153 136.59 594.911 97.0645 555.062C63.2979 521.058 34.6183 485.079 21.5594 444.473C6.31545 396.727 16.8439 351.46 32.8868 311.443C49.4831 270.101 76.0982 233.431 100.678 192.797C125.188 152.135 148.072 105.548 153.066 60.1838M-418.71 1664.54C-407.485 1568.1 -398.715 1454.16 -356.038 1374.29C-319.977 1306.73 -286.841 1246.97 -245.586 1187.4C-245.009 1156.74 -239.688 1122.58 -217.498 1093.57C-186.744 1053.46 -129.806 1032.72 -78.5047 1021.76C-24.9338 1010.27 25.9984 1005.3 75.1597 990.824C81.1426 989.06 87.1431 987.056 93.0738 985.024C152.025 964.962 206.166 927.158 234.126 874.495C248.243 847.934 255.309 817.448 252.785 785.581C250.168 752.365 238.102 718.812 216.292 687.585C185.358 643.453 138.232 605.513 98.0558 565.064C63.7076 530.489 34.516 493.969 21.6786 452.636C6.71431 404.023 17.9182 357.726 36.5448 317.805C55.8062 276.755 83.3234 239.887 109.044 199.074C134.765 158.261 158.096 110.797 161.799 64.402M-416.239 1667.46C-402.611 1572.92 -382.141 1465.91 -356.367 1380.38C-335.039 1309.62 -295.003 1255.53 -257.852 1196.95C-258.793 1165.41 -254.804 1130.12 -232.731 1100.41C-202.145 1059.33 -143.653 1038.99 -90.9498 1029.19C-36.1341 1019.04 16.0892 1016.08 66.8151 1003.16C73.0482 1001.58 79.13 999.775 85.3109 997.929C146.345 979.555 202.749 942.614 232.647 890.022C247.805 863.322 255.762 832.469 253.948 800.08C252.001 766.242 240.354 731.88 218.428 699.949C187.466 654.904 139.578 616.236 98.7495 575.187C63.8196 540.042 34.1161 502.98 21.5001 460.92C6.84463 411.371 19.5619 364.394 39.9459 324.387C60.895 283.221 90.2625 246.635 117.182 205.503C144.072 164.44 167.893 116.196 170.235 68.7415M-413.697 1670.4C-397.667 1577.77 -378.885 1471.86 -356.596 1386.43C-338.609 1317.4 -302.997 1264.07 -269.989 1206.39C-272.519 1173.95 -269.792 1137.55 -247.736 1107.09C-217.347 1065.11 -157.343 1045.08 -103.197 1036.53C-47.1363 1027.72 6.44781 1026.81 58.7385 1015.44C65.1228 1014.09 71.4839 1012.4 77.8159 1010.78C140.933 994.096 199.64 958.116 231.436 905.497C247.636 878.658 256.512 847.369 255.309 814.498C254.102 780.067 242.874 744.896 220.861 712.191C189.94 666.262 141.29 626.866 99.8392 585.148C64.3276 549.432 34.0133 511.87 21.7177 469.042C7.3012 418.528 21.5724 370.97 43.7023 330.707C66.3099 289.497 97.5861 253.051 125.646 211.739C153.707 170.427 178.017 121.404 178.997 72.8897M-411.155 1673.35C-392.723 1582.62 -375.518 1477.94 -356.855 1392.55C-342.139 1325.26 -311.089 1272.66 -282.155 1215.9C-286.302 1182.62 -284.808 1145.05 -262.868 1113.89C-232.718 1070.91 -171.061 1051.24 -115.571 1043.99C-58.237 1036.45 -3.32123 1037.65 50.4644 1027.8C57.029 1026.61 63.5414 1025.15 70.0537 1023.69C135.253 1008.69 196.195 973.642 229.957 921.024C247.269 894.075 256.965 862.392 256.403 828.967C255.865 793.914 245.056 757.935 222.998 724.556C192.047 677.713 142.705 637.619 100.533 595.272C64.3703 558.956 33.614 520.881 21.5107 477.396C7.37394 426.015 23.1875 377.708 47.0342 337.261C71.3992 295.964 104.485 259.699 133.686 218.208C162.887 176.717 187.715 126.845 187.334 77.2703M-408.613 1676.29C-387.778 1587.47 -372.122 1483.94 -357.084 1398.6C-345.529 1333.19 -319.082 1281.21 -294.292 1225.34C-300.027 1191.15 -299.726 1152.51 -277.943 1120.55C-247.99 1076.66 -184.75 1057.33 -127.859 1051.24C-69.3494 1045 -12.9739 1048.21 42.3473 1039.99C49.0923 1038.95 55.8256 1037.74 62.5474 1036.37C129.829 1023.06 193.075 988.976 228.735 936.33C247.088 909.242 257.675 877.193 257.823 843.245C258.024 807.599 247.565 770.783 225.46 736.728C194.51 688.902 144.447 648.179 101.623 605.233C64.8786 568.347 33.5813 529.8 21.6587 485.489C7.76096 433.142 25.1577 384.185 50.7211 343.552C76.7738 302.14 111.71 266.156 142.151 224.444C172.521 182.704 197.839 132.052 196.166 81.4474M-406.071 1679.24C-382.834 1592.32 -368.586 1490.01 -357.314 1404.65C-348.89 1341.05 -327.145 1289.73 -306.429 1234.78C-313.683 1199.71 -314.713 1159.94 -292.976 1127.3C-263.192 1082.45 -198.439 1063.41 -140.134 1058.65C-80.3803 1053.76 -22.6439 1059 34.1722 1052.31C41.1382 1051.53 48.081 1050.41 54.954 1049.26C124.319 1037.64 189.799 1004.49 227.425 951.845C246.89 924.648 258.298 892.203 259.086 857.704C259.957 821.436 249.957 783.91 227.795 749.011C196.816 700.272 145.99 658.821 102.545 615.205C65.2182 577.749 33.3393 538.632 21.708 493.623C8.11899 440.34 26.9999 390.772 54.3092 349.884C82.0494 308.357 118.865 272.584 150.476 230.623C182.016 188.633 207.822 137.202 204.789 85.5373M-403.53 1682.19C-377.89 1597.17 -364.981 1496.1 -357.572 1410.77C-352.181 1348.94 -335.168 1298.34 -318.595 1244.29C-327.437 1208.31 -329.661 1167.47 -308.081 1134.03C-278.494 1088.27 -212.158 1069.57 -152.411 1066.07C-91.3826 1062.44 -32.3843 1069.77 26.0663 1064.66C33.2126 1064.04 40.3066 1063.15 47.4298 1062.19C118.807 1052.23 186.661 1020.06 226.184 967.39C246.662 940.123 258.949 907.144 260.418 872.191C262.028 835.33 252.378 796.967 230.169 761.393C199.162 711.74 147.644 669.591 103.477 625.346C65.5689 587.319 33.1489 547.73 21.7681 501.925C8.389 447.746 28.8822 397.458 57.949 356.484C87.3769 314.842 126.072 279.279 158.823 237.138C191.574 194.998 217.829 142.689 213.434 89.9645M-400.988 1685.13C-372.916 1601.95 -361.207 1502.19 -357.802 1416.82C-355.402 1356.85 -343.231 1306.86 -330.732 1253.73C-341.162 1216.84 -344.648 1174.91 -323.184 1140.76C-293.766 1094.03 -225.917 1075.63 -164.727 1073.39C-102.425 1071.03 -42.095 1080.47 17.8505 1076.89C25.1772 1076.42 32.4922 1075.78 39.7259 1074.95C113.186 1066.68 183.274 1035.45 224.764 982.777C246.353 955.401 259.46 922.027 261.64 886.551C263.919 849.068 254.689 809.896 232.393 773.548C201.357 722.982 149.118 680.204 104.329 635.29C65.8387 596.692 32.907 556.562 21.7476 510.029C8.67733 454.914 30.6546 404.016 61.4673 362.787C92.5828 321.03 133.129 285.747 167.049 243.357C200.97 200.967 227.714 147.879 221.929 94.1648M-398.516 1688.05C-368.042 1606.77 -357.404 1508.2 -358.13 1422.91C-358.624 1364.77 -351.323 1315.45 -342.998 1263.28C-355.016 1225.49 -359.764 1182.45 -338.387 1147.53C-309.236 1099.87 -239.735 1081.83 -177.172 1080.81C-113.625 1079.8 -51.9052 1091.21 9.57596 1089.25C17.0538 1089.01 24.5784 1088.46 32.0622 1087.81C107.575 1081.3 179.997 1050.96 223.384 998.263C246.015 970.748 260.013 937.008 262.833 900.98C265.851 862.904 256.941 822.964 234.628 785.872C203.534 734.462 150.562 690.886 105.15 645.303C66.0789 606.134 32.5655 565.434 21.6974 518.203C8.8661 462.122 32.4265 410.573 64.9559 369.16C97.759 327.287 140.184 292.216 175.246 249.646C210.307 207.076 237.569 153.139 230.493 98.394M-395.974 1690.99C-363.097 1611.62 -353.361 1514.23 -358.359 1428.96C-361.647 1372.6 -359.386 1323.97 -355.134 1272.72C-368.671 1234.05 -374.612 1189.94 -353.421 1154.28C-324.327 1105.78 -253.424 1087.92 -189.418 1088.16C-124.598 1088.41 -61.5459 1101.94 1.43019 1101.5C9.15818 1101.45 16.8338 1101.13 24.498 1100.64C102.094 1095.81 176.79 1066.51 222.104 1013.71C245.846 986.084 260.664 951.949 264.195 915.397C267.883 876.699 259.392 835.951 237.062 798.114C205.939 745.791 152.275 701.517 106.212 655.334C66.5585 615.595 32.5039 574.423 21.8864 526.395C9.33474 469.447 34.4376 417.149 68.6838 375.551C103.145 333.632 147.549 298.731 183.78 255.912C220.011 213.093 247.763 158.376 239.325 102.571M-393.433 1693.94C-358.223 1616.44 -349.221 1520.22 -358.619 1435.08C-364.671 1380.44 -367.409 1332.58 -367.371 1282.2C-382.525 1242.69 -389.699 1197.41 -368.595 1160.98C-339.74 1111.48 -267.184 1093.98 -201.834 1095.52C-135.74 1097.04 -71.3566 1112.68 -6.81577 1113.8C1.06342 1113.97 8.91946 1113.81 16.8338 1113.5C96.5122 1110.37 173.513 1082.02 220.723 1029.2C245.478 1001.5 261.216 966.93 265.386 929.826C269.814 890.535 261.743 848.979 239.296 810.438C208.145 757.201 153.789 712.229 107.004 665.416C66.769 625.107 32.2027 583.393 21.7368 534.609C9.42415 476.696 36.11 423.748 72.0438 382.034C108.222 339.93 154.447 305.379 191.848 262.311C229.249 219.242 257.49 163.746 247.691 106.882M-390.89 1696.88C-353.278 1621.29 -344.882 1526.13 -358.848 1441.13C-367.566 1388.16 -367.854 1339.94 -379.507 1291.64C-389.784 1249.08 -404.686 1204.84 -383.698 1167.71C-355.04 1117.3 -280.943 1100.04 -214.179 1102.9C-146.84 1105.76 -81.067 1123.38 -15.0604 1126.09C-7.00085 1126.42 1.10536 1126.44 9.10105 1126.34C90.833 1124.96 170.167 1097.5 219.274 1044.65C245.141 1016.85 261.798 981.842 266.51 944.226C271.677 904.342 263.926 862.018 241.492 822.663C210.311 768.513 155.263 722.841 107.757 675.4C66.9403 634.52 31.7631 592.306 21.6176 542.755C9.6138 483.905 37.8129 430.276 75.4635 388.378C113.399 346.188 161.434 311.818 199.976 268.57C238.517 225.322 267.276 168.977 256.116 111.053M-388.349 1699.83C-348.334 1626.14 -340.456 1531.82 -359.077 1447.18C-370.362 1395.85 -377.489 1348.29 -391.645 1301.08C-404.65 1257.79 -419.604 1212.3 -398.703 1174.39C-370.214 1123.02 -294.562 1106.15 -226.397 1110.18C-157.784 1114.31 -90.7488 1134 -23.1077 1138.3C-14.8678 1138.79 -6.61045 1139.04 1.63539 1139.12C85.4499 1139.43 167.018 1112.91 218.092 1060.06C245.07 1032.14 262.479 996.713 267.971 958.603C273.877 918.126 266.475 874.965 243.994 834.934C212.786 779.871 156.975 733.472 108.917 685.391C67.5183 643.94 31.8292 601.184 21.876 550.975C10.082 491.23 39.8643 436.951 79.3305 394.826C118.954 352.522 168.868 318.363 208.58 274.865C248.291 231.368 277.539 174.244 265.087 115.289M-385.807 1702.78C-343.36 1630.92 -335.861 1537.51 -359.336 1453.3C-373.229 1403.5 -387.14 1356.88 -403.811 1310.59C-419.673 1266.69 -434.621 1219.8 -413.836 1181.19C-385.544 1128.91 -308.35 1112.28 -238.772 1117.63C-168.885 1123.03 -100.518 1144.84 -31.3819 1150.66C-22.921 1151.41 -14.4833 1151.82 -6.02802 1151.98C79.7701 1154.02 163.712 1128.49 216.782 1075.57C244.773 1047.59 263.101 1011.72 269.233 973.061C275.809 931.963 268.896 888.021 246.23 847.258C215.091 791.241 158.49 744.183 109.71 695.473C67.7297 653.452 31.5287 610.155 21.797 559.219C10.3118 498.537 41.6074 443.579 82.7905 401.269C124.102 358.849 175.866 324.97 216.747 281.223C257.628 237.477 287.366 179.573 273.553 119.559M-383.294 1705.79C-338.445 1635.84 -331.237 1543.13 -359.594 1459.43C-375.967 1411.04 -396.74 1365.74 -415.977 1320.1C-434.685 1275.75 -449.637 1227.3 -428.939 1187.92C-400.886 1134.64 -322.051 1118.2 -251.048 1125.05C-179.829 1131.58 -110.188 1155.64 -39.4875 1163.02C-30.8462 1163.92 -22.1875 1164.58 -13.5519 1164.91C74.3404 1168.8 160.575 1144.06 215.542 1091.12C244.644 1063.02 263.793 1026.76 270.566 987.549C277.88 945.857 271.317 901.078 248.634 859.57C217.466 802.639 160.144 754.953 110.741 705.574C68.0807 663.023 31.3679 619.185 21.9565 567.481C10.7104 505.833 43.5483 450.125 86.4888 407.729C129.418 365.165 183.132 331.526 225.223 287.629C267.315 243.731 297.57 184.979 282.326 123.875M-380.822 1708.71C-333.571 1640.66 -326.567 1548.44 -359.923 1465.52C-378.845 1418.53 -406.328 1374.77 -428.213 1329.58C-449.895 1284.89 -464.724 1234.77 -444.142 1194.69C-416.286 1140.5 -335.869 1124.4 -263.464 1132.41C-191 1140.27 -119.969 1166.31 -47.8027 1175.28C-38.9812 1176.34 -30.1421 1177.16 -21.2855 1177.74C68.6196 1183.3 157.268 1159.65 214.092 1106.57C244.277 1078.44 264.275 1041.71 271.758 1001.98C279.742 959.664 273.599 914.077 250.869 871.894C219.673 814.05 161.658 765.665 111.563 715.587C68.3208 672.466 31.0961 628.086 21.8363 575.626C10.8699 513.111 45.2213 456.724 89.8785 414.143C134.495 371.463 190.089 338.035 233.321 293.958C276.582 249.811 307.327 190.28 290.721 128.116M-378.281 1711.65C-328.626 1645.51 -321.698 1553.66 -360.152 1471.57C-381.635 1425.81 -415.736 1383.96 -440.379 1339.09C-465.023 1294.23 -479.671 1242.3 -459.205 1201.51C-431.518 1146.36 -349.547 1130.66 -275.769 1139.89C-201.99 1149.13 -129.669 1177.18 -55.9373 1187.7C44.9508 1202.1 148.251 1180.47 212.782 1122.09C277.313 1063.71 297.47 967.472 253.203 884.177C195.103 774.705 41.297 698.721 21.9261 583.858C11.1987 520.378 47.2029 463.369 93.507 420.574C139.881 377.808 197.255 344.631 241.686 300.235C286.117 255.839 317.351 195.528 299.454 132.334" stroke="url(#paint0_linear_237_461)" stroke-width="0.5" stroke-miterlimit="10"/>
<defs>
<linearGradient id="paint0_linear_237_461" x1="-448" y1="1363.69" x2="304.586" y2="-104.418" gradientUnits="userSpaceOnUse">
<stop stop-color="#FF22AC" stop-opacity="0.45"/>
<stop offset="0.48974" stop-color="#8846D3" stop-opacity="0.39"/>
<stop offset="1" stop-color="#2973FF" stop-opacity="0.11"/>
</linearGradient>
</defs>
</svg>
