<svg width="834" height="1432" viewBox="0 0 834 1432" fill="none" xmlns="http://www.w3.org/2000/svg">
<path d="M847.862 1431.4C792.781 1317.32 805.667 1175.77 826.718 1039.98C847.769 904.179 876.252 764.718 849.638 638.032C827.183 531.252 764.79 438.435 674.355 377.409C581.218 314.539 462.788 286.384 352.139 248.265C241.49 210.145 132.172 157.201 78.2371 61.478M853.281 1428.93C796.448 1317.06 806.676 1176.89 826.084 1041.94C845.492 907.002 872.997 768.116 847.033 641.759C826.424 540.735 771.553 451.71 690.882 389.457C685.733 385.51 680.565 381.662 675.221 377.933C628.901 345.476 575.851 321.759 519.867 302.419C464.807 283.309 407.519 268.354 352.075 250.443C239.93 214.532 129.313 160.93 75.7429 64.1057M858.74 1426.52C800.098 1316.9 807.783 1178.02 825.45 1043.91C843.117 909.805 869.685 771.554 844.43 645.486C824.385 543.909 771.038 453.852 691.496 390.237C686.464 386.211 681.315 382.265 675.991 378.437C630.194 345.113 577.275 320.453 520.785 301.628C465.434 282.97 407.84 269.333 352.012 252.621C238.526 218.643 126.414 164.601 73.1907 66.7726M864.159 1424.05C803.707 1316.68 808.791 1179.13 824.717 1045.86C840.644 912.589 866.274 774.973 841.786 649.155C822.306 547.024 770.483 455.936 692.129 390.919C687.116 386.795 682.044 382.711 676.837 378.804C631.565 344.613 578.757 319.109 521.739 300.64C466.097 282.436 408.18 270.213 351.986 254.603C237.082 222.695 123.593 168.133 70.6758 69.2435M869.578 1421.58C807.414 1316.47 809.858 1180.2 824.083 1047.83C838.308 915.451 862.647 778.453 839.181 652.882C820.012 550.2 769.967 458.079 692.742 391.7C687.847 387.497 682.794 383.314 677.704 379.328C632.995 344.328 580.318 317.881 522.813 299.828C466.879 282.077 408.638 271.27 352.079 256.761C235.756 226.924 120.89 171.842 68.3782 71.909M874.997 1419.1C811.024 1316.25 810.867 1181.31 823.409 1049.73C835.952 918.156 859.256 781.773 836.557 656.452C817.855 553.197 769.392 460.005 693.336 392.323C688.517 387.982 683.524 383.76 678.452 379.675C634.267 343.808 581.684 316.615 523.709 298.879C467.466 281.68 408.901 272.288 351.937 258.822C234.196 231.055 117.952 175.453 65.7467 74.4588M880.456 1416.69C814.732 1316.05 811.973 1182.44 822.775 1051.7C833.577 920.96 855.884 785.251 833.952 660.18C815.717 556.352 768.877 462.148 693.949 393.104C689.19 388.723 684.273 384.363 679.279 380.141C635.619 343.406 583.206 315.329 524.645 297.99C468.11 281.244 409.221 273.267 351.892 260.903C232.772 235.265 115.111 179.084 63.2129 77.028M885.875 1414.22C818.341 1315.83 812.982 1183.55 822.082 1053.71C831.183 923.861 852.513 788.729 831.29 663.947C813.561 559.606 768.303 464.33 694.563 393.885C689.881 389.366 685.023 384.966 680.088 380.704C636.951 343.103 584.65 314.181 525.602 297.257C468.815 281.023 409.563 274.403 351.908 263.199C231.311 239.671 112.39 182.891 60.7985 79.7729M891.294 1411.75C821.95 1315.6 814.088 1184.68 821.408 1055.61C828.729 926.547 849.121 792.049 828.704 667.576C811.502 562.623 767.807 466.375 695.195 394.567C690.572 390.008 685.792 385.471 680.934 381.071C638.321 342.602 586.151 312.738 526.556 296.269C469.478 280.489 409.843 275.323 351.882 265.181C229.808 243.763 109.529 186.365 58.2834 82.2436M896.713 1409.27C825.618 1315.34 815.097 1185.79 820.735 1057.52C826.373 929.252 845.71 795.468 826.06 671.244C809.325 565.719 767.252 468.459 695.769 395.289C691.224 390.592 686.502 386.015 681.663 381.517C639.614 342.24 587.575 311.432 527.434 295.419C470.065 280.092 410.145 276.4 351.72 267.34C228.209 248.091 106.571 190.075 55.731 84.9108M902.132 1406.8C829.228 1315.12 816.164 1186.86 820.003 1059.47C823.841 932.076 842.3 798.887 823.377 674.854C807.207 568.775 766.658 470.484 696.363 395.912C691.876 391.176 687.232 386.461 682.51 381.883C640.926 341.779 589.058 310.087 528.389 294.431C470.729 279.557 410.427 277.32 351.694 269.322C226.746 252.241 103.75 193.607 53.2166 87.3813M907.591 1404.39C832.936 1314.92 817.212 1188.03 819.408 1061.5C821.604 934.957 839.026 802.384 820.812 678.64C805.109 571.989 766.123 472.724 697.016 396.751C692.606 391.877 688.021 387.122 683.318 382.447C642.258 341.475 590.56 308.899 529.345 293.698C471.393 279.278 410.749 278.554 351.67 271.559C225.245 256.589 100.93 197.395 50.7034 90.1071M913.01 1401.92C836.584 1314.75 818.279 1189.11 818.734 1063.4C819.189 937.702 835.674 805.763 818.168 682.309C802.991 575.045 765.568 474.808 697.59 397.473C693.239 392.56 688.789 387.627 684.106 382.853C643.57 341.014 591.984 307.594 530.281 292.809C472.038 278.842 411.011 279.572 351.625 273.639C223.704 260.877 98.0898 201.026 48.2283 92.6366M918.429 1399.45C840.194 1314.53 819.287 1190.22 818.002 1065.35C816.716 940.486 832.223 809.123 815.525 685.977C800.854 578.2 765.014 476.892 698.223 398.156C693.949 393.104 689.558 388.132 684.992 383.278C644.98 340.573 593.564 306.268 531.276 291.879C472.741 278.366 411.371 280.61 351.581 275.72C222.222 265.126 95.2496 204.656 45.6948 95.2054M923.848 1396.97C843.862 1314.27 820.355 1191.29 817.368 1067.32C814.381 943.348 828.911 812.561 812.921 689.704C798.776 581.315 764.459 478.976 698.836 398.936C694.68 393.805 690.308 388.735 685.761 383.783C646.312 340.269 595.028 305.021 532.193 291.088C473.367 278.028 411.673 281.687 351.517 277.898C220.702 269.572 92.3508 208.327 43.1423 97.8727M929.268 1394.5C847.472 1314.05 821.363 1192.4 816.694 1069.23C812.025 946.053 825.559 815.941 810.296 693.275C796.716 584.332 763.923 480.962 699.429 399.56C695.292 394.33 691.038 389.181 686.568 384.091C647.643 339.71 596.431 303.559 533.108 290.041C473.991 277.435 411.954 282.607 351.452 279.822C219.199 273.664 89.4899 211.801 40.6864 100.304M934.726 1392.09C851.179 1313.84 822.411 1193.57 816.06 1071.19C809.708 948.817 822.304 819.339 807.691 697.002C794.637 587.447 763.408 483.104 700.043 400.34C696.023 395.032 691.787 389.784 687.376 384.655C648.975 339.406 597.934 302.371 534.064 289.308C474.656 277.155 412.276 283.841 351.428 282.059C217.679 278.109 86.6699 215.588 38.1732 103.03M940.145 1389.62C854.788 1313.62 823.478 1194.64 815.367 1073.2C807.255 951.758 818.933 822.817 805.028 700.769C792.54 590.661 762.834 485.287 700.656 401.121C696.655 395.714 692.537 390.387 688.203 385.12C650.326 339.004 599.455 301.085 535 288.419C475.301 276.719 412.578 284.918 351.325 284.179C216.12 282.496 83.7709 219.259 35.5808 105.638M945.564 1387.14C858.398 1313.4 824.526 1195.81 814.693 1075.11C804.86 954.405 815.581 826.196 802.444 704.397C790.481 593.677 762.338 487.331 701.29 401.803C697.406 396.317 693.306 390.891 689.031 385.585C651.678 338.602 600.978 299.799 535.976 287.587C476.044 276.301 412.861 286.093 351.32 286.317C214.659 286.902 80.9706 222.948 33.1459 108.226M951.042 1384.63C862.124 1313.1 825.652 1196.84 814.078 1076.98C802.504 957.11 812.346 829.496 799.858 708.027C788.402 596.793 761.841 489.375 701.922 402.485C698.057 396.901 694.075 391.396 689.877 385.952C653.088 338.16 602.42 298.395 536.97 286.658C476.747 275.826 413.221 287.131 351.334 288.358C213.216 291.21 78.2473 226.5 30.6707 110.756M956.461 1382.16C865.734 1312.88 826.661 1197.95 813.346 1078.92C800.031 959.894 808.935 832.915 797.175 711.636C786.303 599.751 761.247 491.4 702.515 403.109C698.767 397.445 694.804 391.842 690.684 386.26C654.419 337.601 603.922 296.952 537.944 285.572C477.43 275.193 413.561 288.011 351.327 290.242C211.753 295.36 75.4054 229.875 28.1752 113.128M961.92 1379.75C869.481 1312.73 827.767 1199.09 812.751 1080.95C797.735 962.815 805.721 836.372 794.61 715.422C784.303 602.983 760.771 493.601 703.168 403.948C699.498 398.146 695.593 392.504 691.532 386.882C655.791 337.356 605.464 295.823 538.941 284.898C478.095 274.913 413.923 289.304 351.284 292.577C210.254 299.963 72.5665 233.761 25.7413 115.971M967.339 1377.28C873.091 1312.51 828.776 1200.2 812.077 1082.86C795.379 965.52 802.368 839.751 791.966 719.091C782.225 606.098 760.217 495.685 703.743 404.67C700.131 398.829 696.264 392.989 692.32 387.288C657.102 336.895 606.907 294.419 539.837 283.949C478.7 274.418 414.185 290.322 351.2 294.599C208.655 304.291 69.6866 237.333 23.1682 118.481M972.758 1374.8C876.7 1312.29 829.842 1201.27 811.403 1084.77C792.964 968.265 799.114 843.15 789.381 722.72C780.165 609.115 759.68 497.671 704.394 405.254C700.86 399.275 697.052 393.396 693.126 387.596C658.433 336.337 608.408 292.976 540.791 282.962C479.422 273.845 414.506 291.301 351.174 296.581C207.212 308.599 66.8651 240.866 20.6534 120.952M978.177 1372.33C880.368 1312.03 830.851 1202.38 810.711 1086.77C790.57 971.166 795.802 846.587 786.718 726.487C778.127 612.289 759.107 499.853 704.949 406.074C701.474 400.055 697.802 393.999 693.935 388.159C659.746 336.13 609.813 291.769 541.709 282.17C480.048 273.506 414.789 292.476 351.111 298.759C205.692 313.044 64.006 244.594 18.1595 123.579M983.596 1369.86C883.977 1311.8 831.918 1203.45 810.037 1088.68C788.155 973.911 792.449 849.967 784.093 730.057C776.067 615.306 758.571 501.839 705.542 406.698C702.144 400.541 698.531 394.445 694.683 388.507C661.018 335.611 611.333 290.227 542.605 281.222C480.632 272.854 415.032 293.593 350.968 300.821C204.074 317.47 61.0673 248.207 15.5276 126.13M989.055 1367.45C887.685 1311.6 832.966 1204.62 809.403 1090.65C785.839 976.674 789.195 853.365 781.489 733.784C774.028 618.479 758.056 503.981 706.215 407.438C702.875 401.242 699.34 395.008 695.569 388.932C662.429 335.169 612.815 288.882 543.599 280.292C481.394 272.339 415.392 294.63 350.982 302.861C202.672 321.836 58.246 251.739 13.0527 128.659M994.474 1364.97C891.295 1311.38 834.034 1205.69 808.71 1092.65C783.387 979.615 785.922 856.861 778.827 737.551C771.989 621.653 757.482 506.163 706.77 408.259C703.508 401.924 700.031 395.651 696.378 389.496C663.761 334.866 614.318 287.694 544.556 279.559C482.059 272.059 415.754 295.923 350.958 305.098C201.231 326.399 55.4265 255.526 10.6382 131.404M999.893 1362.5C894.904 1311.16 835.081 1206.86 808.036 1094.56C780.99 982.262 782.825 860.239 776.241 741.18C770.185 624.668 756.985 508.208 707.402 408.941C704.199 402.567 700.799 396.156 697.165 389.902C665.072 334.405 615.8 286.35 545.492 278.67C482.704 271.623 416.056 297 350.913 307.179C199.711 330.845 52.5857 259.158 8.10411 133.973M1005.31 1360.03C898.572 1310.9 836.149 1207.93 807.362 1096.47C778.576 985.007 779.531 863.578 773.597 744.849C768.048 627.823 756.431 510.291 707.976 409.663C704.851 403.151 701.51 396.7 697.953 390.309C666.424 334.003 617.224 285.044 546.388 277.722C483.309 271.128 416.339 298.175 350.81 309.298C198.272 335.662 49.6872 262.828 5.57091 136.542M1010.77 1357.62C902.26 1310.79 837.196 1209.1 806.669 1098.48C776.142 987.85 776.16 867.056 770.953 748.517C765.929 630.88 755.817 512.415 708.609 410.345C705.6 403.754 702.278 397.204 698.78 390.774C667.775 333.601 618.706 283.7 547.363 276.891C483.993 270.751 416.68 299.311 350.805 311.437C196.829 339.97 46.9447 266.478 3.07662 139.169M1016.19 1355.15C905.929 1310.53 838.264 1210.17 806.035 1100.44C773.807 990.712 772.808 870.435 768.349 752.244C763.891 634.053 755.302 514.558 709.223 411.125C679.846 345.248 628.338 283.16 548.3 276.001C484.638 270.314 416.982 300.388 350.76 313.518C195.329 344.317 44.1046 270.108 0.543224 141.738M1019.8 1354.67C912.2 1309.19 844.016 1210.47 810.65 1103.73C777.445 997.475 777.864 880.936 769.507 766.58C767.497 739.496 764.17 712.108 761.583 684.047C757.973 643.867 754.987 603.35 749.775 564.339C743.883 520.663 735.039 478.558 720.85 438.278C719.148 433.365 717.289 428.473 715.372 423.62C697.652 377.87 669.128 333.454 627.42 306.673C608.024 294.175 585.651 285.486 560.256 282.43C534.566 279.317 507.954 282.038 480.851 287.569C440.638 295.823 399.601 309.931 359.073 317.971C324.894 324.789 290.956 326.66 258.495 323.517C221.046 319.821 186.044 309.515 154.737 294.316C120.793 277.997 90.9105 255.94 66.1578 229.215C41.3465 202.53 21.5662 171.158 8.3427 137.228M1023.35 1354.23C918.43 1307.79 849.748 1210.86 815.245 1107.11C781.082 1004.24 782.822 891.418 770.646 781.014C767.737 754.623 762.274 727.741 759.078 699.41C754.602 658.961 752.806 617.297 749.16 577.824C745.111 533.841 738.406 491.74 726.177 451.073C724.69 446.099 723.087 441.205 721.444 436.253C705.897 389.801 679.347 344.134 638.726 315.678C619.697 302.333 597.554 292.72 572.113 288.84C546.338 284.845 519.251 286.863 491.557 292.026C450.575 299.775 408.618 314.164 367.344 322.366C332.421 329.347 297.779 331.439 264.882 327.651C226.839 323.332 192.218 311.315 161.569 294.817C128.478 276.981 99.706 253.66 75.2996 225.932C50.9519 198.164 30.7544 166.05 16.0037 132.641M1026.95 1353.75C924.759 1306.41 855.58 1211.27 819.86 1110.39C784.74 1011.16 787.661 901.725 771.843 795.408C767.997 769.652 760.497 743.294 756.651 714.634C751.328 673.819 750.702 631.106 748.663 591.229C746.358 546.92 741.891 504.843 731.68 463.748C730.409 458.715 729.079 453.721 727.691 448.766C714.475 401.591 689.781 354.753 650.248 324.622C631.684 310.45 609.613 299.933 584.128 295.229C558.25 290.45 530.764 291.628 502.459 296.52C460.807 303.783 417.89 318.395 375.755 326.839C340.087 333.981 304.758 336.196 271.347 331.902C232.731 326.861 198.413 313.272 168.442 295.376C136.184 276.122 108.483 251.478 84.5211 222.766C60.618 194.014 40.0223 161.058 23.8031 128.131M1030.56 1353.28C931.089 1305.03 861.371 1211.62 824.474 1113.67C788.378 1017.92 792.382 911.855 773.001 809.743C768.196 784.465 758.523 758.81 754.164 729.898C747.937 688.756 748.58 645.014 748.108 604.675C747.645 560.057 745.218 517.966 737.065 476.504C736.05 471.468 734.936 466.414 733.822 461.359C722.838 413.442 700.117 365.354 661.652 333.645C643.456 318.627 621.614 307.186 596.025 301.698C570.004 296.076 542.101 296.511 513.146 301.074C470.725 307.833 426.946 322.686 383.91 331.314C347.497 338.618 311.483 340.956 277.617 336.116C238.368 330.392 204.411 315.192 175.117 295.897C143.753 275.185 117.103 249.317 93.5459 219.562C70.0478 189.767 49.0935 156.029 31.3471 123.623M1034.17 1352.8C937.418 1303.65 867.203 1212.03 829.129 1117.02C792.193 1024.82 796.964 921.908 774.198 824.137C768.377 799.377 756.687 774.403 751.678 745.163C744.586 703.752 746.399 658.961 747.512 618.061C748.794 573.117 748.605 531.049 742.47 489.161C741.729 484.025 740.83 478.91 739.873 473.835C731.18 425.136 710.316 375.877 672.978 342.551C655.207 326.647 633.536 314.322 607.902 308.01C581.738 301.545 553.476 301.198 523.911 305.491C480.82 311.764 436.022 326.879 392.241 335.669C355.084 343.136 318.364 345.694 284.062 340.21C244.279 333.823 210.586 316.992 182.028 296.26C151.498 274.129 125.918 246.939 102.864 216.16C79.8106 185.38 58.4581 150.802 39.1846 118.917M1037.78 1352.32C943.748 1302.27 873.074 1212.5 833.744 1120.3C795.87 1031.64 801.369 931.825 775.356 838.473C768.537 814.131 754.811 789.937 749.193 760.426C741.253 718.649 744.237 672.81 747.016 631.466C750.023 586.294 752.09 544.151 747.915 501.876C747.428 496.738 746.745 491.563 746.062 486.387C739.601 436.947 720.75 386.496 684.441 351.534C667.038 334.783 645.537 321.574 619.858 314.439C593.551 307.131 564.872 306.041 534.716 309.966C490.855 315.734 445.196 331.091 400.553 340.122C362.651 347.751 325.246 350.432 290.489 344.402C250.073 337.332 216.781 318.949 188.861 296.76C159.165 273.21 134.655 244.698 112.007 212.876C89.358 181.054 67.6469 145.693 46.8462 114.329M1041.39 1351.85C950.077 1300.89 878.964 1212.87 838.398 1123.64C799.685 1038.54 805.519 941.744 776.554 852.867C768.736 828.944 753.033 805.491 746.765 775.651C737.921 733.546 742.114 686.718 746.518 644.872C751.31 599.432 755.535 557.195 753.418 514.551C753.147 509.354 752.778 504.137 752.31 498.901C748.14 448.679 731.164 396.959 695.963 360.478C679.025 342.9 657.655 328.748 631.873 320.828C605.481 312.638 576.385 310.806 545.619 314.46C501.029 319.782 454.508 335.381 408.982 344.497C370.336 352.288 332.284 355.15 297.032 348.515C256.042 340.724 223.054 320.769 195.85 297.24C166.989 272.271 143.589 242.495 121.345 209.63C99.1017 176.765 77.032 140.622 54.7628 109.739M1044.99 1351.37C956.366 1299.45 884.874 1213.39 843.012 1126.92C803.461 1045.38 793.311 955.9 777.711 867.202C764.611 845.574 751.157 821.025 744.279 790.915C734.628 748.502 739.893 700.607 745.923 658.258C752.459 612.492 758.921 570.278 758.764 527.248C758.708 521.99 758.554 516.713 758.401 511.435C756.561 460.49 741.46 407.501 707.328 369.442C690.815 350.978 669.616 335.942 643.789 327.199C617.294 318.225 587.741 315.591 556.423 318.935C511.104 323.811 463.681 339.593 417.294 348.951C377.845 356.944 339.106 359.929 303.439 352.806C261.856 344.391 229.19 322.766 202.664 297.839C174.636 271.451 152.307 240.353 130.508 206.504C108.768 172.615 86.241 135.671 62.4446 105.309M1048.54 1350.93C962.637 1298.11 890.745 1213.86 847.608 1130.31C807.316 1052.34 795.877 966.634 778.831 881.734C764.206 860.882 749.244 836.756 741.716 806.317C731.16 763.577 737.595 714.633 745.29 671.841C753.512 625.788 762.27 583.558 764.131 540.101C764.389 534.801 764.392 529.503 764.454 524.166C764.963 472.399 751.778 418.199 718.655 378.603C702.51 359.293 681.481 343.373 655.609 333.806C628.971 323.989 599.059 320.572 567.092 323.587C521.063 327.919 472.661 344.022 425.47 353.582C385.276 361.737 345.892 364.903 309.73 357.176C267.573 348.039 235.25 324.9 209.361 298.517C182.207 270.769 160.908 238.29 139.573 203.358C118.237 168.427 95.3524 130.7 70.0288 100.859M1052.15 1350.45C968.967 1296.74 896.754 1214.41 852.223 1133.59C811.189 1059.2 798.403 977.31 779.989 896.069C763.878 876.052 747.368 852.29 739.288 821.541C727.926 778.493 735.473 728.541 744.793 685.246C754.799 638.926 765.696 596.7 769.536 552.758C770.01 547.398 770.287 542 770.564 536.602C773.364 484.053 762.093 428.643 730.098 387.43C714.378 367.233 693.52 350.429 667.603 340.038C640.88 329.339 610.493 325.22 577.915 327.964C531.157 331.85 481.854 348.135 433.82 357.839C392.881 366.157 352.811 369.445 316.194 361.171C273.404 351.352 241.384 326.642 216.29 298.781C189.97 269.615 169.781 235.872 148.851 199.897C127.96 163.981 104.677 125.414 77.8264 96.094M1055.76 1349.98C975.296 1295.36 902.821 1214.91 856.837 1136.87C815.121 1066.02 800.988 987.947 781.147 910.405C763.51 891.164 745.492 867.825 736.762 836.747C724.495 793.372 733.213 742.371 744.158 698.575C755.849 651.967 769.003 609.666 774.901 565.356C775.59 559.936 776.181 554.496 776.673 549.038C781.862 495.727 772.467 439.047 741.482 396.296C726.188 375.214 705.5 357.525 679.48 346.35C652.614 334.808 621.809 329.946 588.64 332.322C541.153 335.762 490.948 352.231 442.053 362.175C400.369 370.656 359.554 374.107 322.541 365.247C279.177 354.706 247.5 328.482 223.083 299.223C197.539 268.678 178.479 233.573 157.993 196.614C137.507 159.655 113.866 120.305 85.586 91.5258M1059.36 1349.5C981.625 1293.98 898.585 1221.03 861.492 1140.21C828.343 1068.01 803.554 998.681 782.344 924.799C763.241 906.295 743.715 883.378 734.316 852.07C721.242 808.386 730.973 756.358 743.642 712.078C757.019 665.184 772.469 622.866 780.327 578.17C781.271 572.748 782.037 567.189 782.844 561.689C790.324 507.597 781.397 450.599 752.927 405.378C738.761 382.933 717.443 364.818 691.417 352.877C664.408 340.493 633.245 334.848 599.466 336.954C551.308 339.908 500.143 356.599 450.444 366.746C408.016 375.389 366.555 379.021 329.046 369.557C285.09 358.392 253.676 330.537 229.996 299.841C205.285 267.877 187.296 231.45 167.255 193.506C147.174 155.505 123.173 115.373 93.3667 87.114M1063.01 1349.08C987.935 1292.69 904.265 1222.22 866.087 1143.59C832.587 1074.53 806.119 1009.42 783.483 939.233C762.854 921.504 741.82 899.011 731.83 867.334C717.949 823.342 728.752 770.246 743.047 725.465C758.11 678.284 775.855 635.95 785.731 590.827C786.95 585.304 787.971 579.744 788.993 574.184C798.862 519.328 793.217 460.11 764.35 414.303C749.907 391.448 729.462 371.972 703.392 359.208C676.298 345.941 644.659 339.594 610.289 341.331C561.362 343.78 509.277 360.753 458.775 371.101C415.603 379.906 373.455 383.661 335.492 373.651C290.961 361.764 259.89 332.396 236.847 300.243C213.011 266.919 196.091 229.169 176.416 190.125C156.78 151.139 132.381 110.166 101.047 82.4283M1066.62 1348.6C994.265 1291.32 910.003 1223.38 870.741 1146.94C836.85 1080.95 808.685 1020.15 784.68 953.627C762.526 936.675 739.984 914.604 729.384 882.657C714.598 838.338 726.571 784.194 742.589 738.929C759.338 691.461 779.379 649.111 791.215 603.601C792.689 598.077 793.926 592.456 795.123 586.777C807.283 531.14 803.612 470.671 775.755 423.326C761.737 399.585 741.463 379.225 715.29 365.677C688.052 351.567 656.055 344.438 621.074 345.904C571.418 347.907 518.471 365.122 467.028 375.595C423.111 384.562 380.259 388.538 341.801 377.923C296.637 365.354 266.632 333.898 243.562 300.823C219.74 266.635 204.711 227.008 185.539 186.94C166.308 146.911 141.609 105.116 108.689 77.9391M1070.23 1348.13C1000.55 1289.88 915.938 1224.57 875.356 1150.22C841.015 1087.36 811.27 1030.79 785.838 967.962C762.159 951.786 738.167 930.099 726.858 897.862C711.265 853.235 724.252 798.063 741.994 752.315C760.487 704.521 782.726 662.135 796.621 616.258C798.309 610.673 799.821 604.952 801.273 599.271C815.822 542.871 814.026 481.133 787.179 432.251C773.646 407.584 753.425 386.419 727.206 372.047C699.885 357.055 667.451 349.281 631.839 350.321C581.454 351.878 527.606 369.275 475.36 379.95C430.698 389.08 387.159 393.178 348.246 382.016C302.548 368.784 272.084 336.273 250.415 301.225C228.188 265.103 213.468 224.669 194.74 183.616C176.012 142.564 150.856 99.9673 116.468 73.2721M1073.78 1347.69C1006.82 1288.54 933.631 1217.64 879.952 1153.6C835.552 1100.62 813.777 1041.56 787.017 982.454C761.87 967.015 736.311 945.79 724.393 913.283C707.953 868.289 722.052 812.109 741.419 765.859C761.598 717.778 786.074 675.415 801.987 629.111C803.95 623.426 805.658 617.743 807.384 611.962C824.322 554.8 824.361 491.734 798.564 441.372C785.457 415.82 765.407 393.771 739.143 378.575C711.678 362.74 678.827 354.223 642.606 354.992C591.491 356.103 536.683 373.723 483.633 384.6C438.227 393.892 394.002 398.113 354.634 386.406C308.362 372.452 278.143 338.407 257.307 301.942C235.856 264.44 222.305 222.703 203.942 180.549C185.619 138.453 160.105 95.0744 124.19 68.9002M1077.38 1347.21C1013.15 1287.16 939.953 1218.14 884.566 1156.88C839.798 1107.4 816.361 1052.2 788.174 996.79C761.502 982.127 734.435 961.325 721.925 928.449C704.679 883.147 719.792 825.939 740.882 779.206C762.747 730.838 789.519 688.459 807.45 641.728C809.668 636.042 811.61 630.2 813.592 624.417C832.919 566.492 834.892 502.118 810.046 450.257C797.364 423.819 777.445 400.827 751.118 384.906C723.569 368.188 690.3 358.929 653.429 359.369C601.644 359.995 545.875 377.837 491.983 388.858C445.832 398.312 400.903 402.754 361.098 390.402C314.193 375.765 284.317 340.208 264.178 302.246C243.542 263.424 231.08 220.266 213.162 177.127C195.244 133.989 169.371 89.8281 131.929 64.175M1080.99 1346.74C1019.48 1285.78 946.433 1218.62 889.22 1160.23C844.142 1114.2 818.927 1062.93 789.372 1011.18C761.214 997.355 732.599 976.918 719.479 943.772C701.328 898.143 717.571 839.828 740.366 792.709C763.877 743.996 792.985 701.659 812.876 654.542C815.309 648.795 817.507 642.951 819.704 637.108C841.419 578.42 845.268 512.776 821.432 459.379C809.235 432.015 789.427 408.178 762.997 391.472C735.304 373.912 701.619 363.911 664.196 364.041C611.682 364.22 555.011 382.246 500.257 393.508C453.303 403.164 407.746 407.689 367.526 394.849C320.087 379.549 290.416 342.401 271.013 303.001C251.211 262.761 239.819 218.28 222.345 174.158C204.872 130.035 178.601 85.0331 139.632 59.9011M1084.6 1346.26C1025.81 1284.4 952.873 1219.05 893.835 1163.51C848.604 1120.92 821.512 1073.57 790.53 1025.52C760.847 1012.47 730.782 992.412 716.953 958.977C697.996 913.04 715.311 853.658 739.732 806.037C764.869 757.077 796.292 714.625 818.241 667.14C820.89 661.333 823.401 655.448 825.774 649.485C849.879 590.035 855.661 523.082 832.776 468.186C821.005 439.936 801.368 415.215 774.892 397.686C747.115 379.244 712.954 368.539 674.979 368.359C621.697 368.033 564.165 386.301 508.607 397.765C460.908 407.583 414.705 412.289 373.932 398.885C325.86 382.903 296.492 344.182 277.825 303.345C258.799 261.725 248.575 215.942 231.565 170.736C214.497 125.571 187.867 79.7865 147.429 55.1359M1088.21 1345.78C1032.14 1283.02 959.43 1219.39 898.45 1166.79C853.026 1127.58 824.038 1084.24 791.688 1039.85C760.538 1027.54 728.906 1007.95 714.526 974.201C694.722 927.898 713.051 867.488 739.235 819.442C766.058 770.195 799.777 727.728 823.686 679.855C826.649 674.006 829.335 668.003 831.963 662.038C858.457 601.825 866.115 533.603 844.24 477.17C832.953 447.994 813.428 422.428 786.849 404.115C758.929 384.83 724.449 373.401 685.784 372.834C631.772 372.062 573.28 390.552 516.88 402.16C468.436 412.141 421.489 417.009 380.319 403.018C331.673 386.314 302.589 346.121 284.618 303.787C266.367 260.788 257.273 213.642 240.668 167.394C224.005 121.186 197.016 74.6192 155.051 50.4898M1091.81 1345.3C1038.47 1281.64 966.045 1219.7 903.104 1170.13C857.506 1134.2 826.662 1094.94 792.885 1054.25C760.209 1042.71 727.128 1023.5 712.04 989.466C691.429 942.854 710.83 881.376 738.737 832.848C767.207 783.256 803.203 740.87 829.189 692.531C832.367 686.622 835.309 680.616 838.211 674.552C867.035 613.616 876.685 544.045 855.762 486.114C844.94 456.11 825.448 429.583 798.863 410.504C770.858 390.337 735.902 378.205 696.687 377.328C641.945 376.11 582.552 394.783 525.29 406.632C476.102 416.776 428.508 421.825 386.843 407.23C337.604 389.902 308.784 348.078 291.647 304.325C274.172 259.948 266.206 211.44 250.046 164.207C233.886 116.975 206.441 69.6074 162.949 45.999M1095.42 1344.83C1044.76 1280.2 972.739 1219.87 907.719 1173.42C862.045 1140.78 829.188 1105.61 794.043 1068.58C759.842 1057.82 725.253 1039.03 709.554 1004.73C688.097 957.751 708.511 895.246 738.142 846.234C768.258 796.297 806.59 753.953 834.535 705.228C837.929 699.258 841.184 693.211 844.243 687.126C875.456 625.427 886.982 554.587 867.068 495.118C856.73 464.189 837.35 436.817 810.721 416.915C782.573 395.904 747.2 383.03 707.335 381.824C651.864 380.16 591.609 399.075 533.504 411.067C483.571 421.372 435.291 426.545 393.171 411.403C343.358 393.354 314.823 350.056 298.382 304.807C281.682 259.05 274.885 209.239 259.13 160.964C243.375 112.688 215.571 64.5382 170.591 41.5095M1098.97 1344.39C1051.03 1278.86 979.392 1219.98 912.314 1176.8C866.584 1147.36 831.754 1116.35 795.221 1083.08C759.495 1073.09 723.398 1054.73 707.049 1020.09C684.727 972.845 706.271 909.233 737.567 859.778C769.369 809.553 809.957 767.135 839.961 718.042C843.609 712.07 847.041 705.904 850.374 699.719C884.015 637.315 897.435 565.108 878.473 504.141C868.561 472.326 849.351 444.07 822.618 423.383C794.386 401.491 758.577 387.972 718.12 386.397C661.96 384.346 600.705 403.425 541.757 415.561C491.08 426.028 442.055 431.363 399.539 415.635C349.093 396.904 320.861 352.034 305.156 305.347C289.232 258.211 283.563 207.038 268.253 157.779C252.943 108.519 224.741 59.528 178.292 36.9807M1102.58 1343.91C1057.36 1277.48 986.182 1219.91 916.929 1180.08C871.161 1153.74 834.28 1127.03 796.379 1097.41C759.186 1088.16 721.639 1070.18 704.622 1035.32C681.61 987.682 704.011 923.063 737.031 873.124C770.479 822.555 813.402 780.178 845.366 730.698C849.288 724.626 852.975 718.458 856.523 712.213C892.554 649.047 907.947 575.59 889.897 513.065C880.469 480.325 861.372 451.224 834.594 429.714C806.218 406.979 769.992 392.717 728.944 390.774C672.055 388.276 609.898 407.538 550.147 419.876C498.725 430.506 449.054 436.022 406.043 419.69C355.063 400.295 327.035 353.834 312.066 305.71C296.958 257.253 292.437 204.62 277.532 154.317C262.626 104.015 234.066 54.2417 186.09 32.2155M1106.19 1343.44C1063.63 1276.14 992.99 1219.74 921.583 1183.42C875.737 1160.13 836.904 1137.72 797.517 1111.85C758.839 1103.43 719.744 1085.81 702.077 1050.62C678.16 1002.66 701.691 936.933 736.416 886.609C771.51 835.694 816.769 793.36 850.751 743.454C854.929 737.38 858.831 731.152 862.653 724.806C901.073 660.877 918.4 586.111 901.301 522.089C892.338 488.521 873.372 458.478 846.491 436.183C818.031 412.565 781.387 397.561 739.729 395.347C682.11 392.404 619.052 411.849 558.44 424.428C506.273 435.221 455.916 440.859 412.391 424.02C360.778 403.943 333.054 355.91 318.861 306.407C304.488 256.513 301.176 202.635 286.675 151.29C272.175 99.9441 243.256 49.3886 193.753 27.8836M1109.79 1342.96C1069.96 1274.76 999.837 1219.38 926.198 1186.71C880.294 1166.35 842.428 1141.84 798.676 1126.18C760.117 1112.39 717.868 1101.35 699.591 1065.88C674.868 1017.61 699.373 950.803 735.861 900.054C772.641 848.852 820.156 806.443 856.137 756.208C860.531 750.074 864.707 743.746 868.726 737.438C909.574 672.805 928.795 596.672 912.648 531.151C904.169 496.658 885.334 465.672 858.33 442.691C829.785 418.191 792.706 402.542 750.416 399.901C692.069 396.512 628.109 416.14 566.635 428.961C513.724 439.915 462.661 445.775 418.701 428.292C366.514 407.493 339.034 357.928 325.577 306.987C312.038 255.674 309.796 200.473 295.74 148.144C281.684 95.8141 252.367 44.4175 201.337 23.4336M1113.4 1342.48C1076.29 1273.38 1006.56 1218.84 930.812 1189.99C884.869 1172.48 844.02 1153.66 799.833 1140.52C759.305 1128.48 716.051 1116.84 697.124 1081.05C671.554 1032.41 697.171 964.593 735.285 913.342C773.71 861.795 823.503 819.468 861.561 768.767C866.17 762.573 870.601 756.242 874.894 749.834C918.131 684.439 939.228 607.036 924.09 539.978C916.096 504.558 897.314 472.768 870.324 448.924C841.695 423.541 804.139 407.19 761.298 404.239C702.222 400.403 637.302 420.254 575.044 433.178C521.388 444.295 469.639 450.277 425.263 432.307C372.483 410.884 345.307 359.747 332.604 307.27C319.841 254.578 318.728 198.016 305.077 144.643C291.426 91.2706 261.75 39.0919 209.252 18.5893M1117.01 1342C1082.58 1271.94 1013.37 1218.16 935.467 1193.33C889.386 1178.65 845.789 1165.62 801.031 1154.91C758.553 1144.79 714.215 1132.44 694.678 1096.37C668.301 1047.43 694.892 978.521 734.769 926.846C774.84 874.953 826.968 832.668 866.987 781.58C871.909 775.345 876.556 768.954 881.025 762.427C926.632 696.367 949.721 617.616 935.553 548.961C928.025 512.714 909.373 479.981 882.28 455.352C853.508 429.127 815.594 411.994 772.084 408.812C712.297 404.432 646.457 424.564 583.337 437.73C528.936 449.009 476.502 455.114 431.67 436.597C378.317 414.453 351.385 361.783 339.418 307.869C327.43 253.798 327.486 195.932 314.24 141.516C300.994 87.101 270.96 34.1399 216.934 14.1584M1120.66 1341.59C1088.95 1270.62 1020.13 1217.43 940.121 1196.67C893.882 1184.66 847.795 1177.67 802.228 1169.3C757.939 1161.18 712.379 1148.03 692.192 1111.64C664.91 1062.36 692.494 992.274 734.272 940.251C775.91 887.896 830.453 845.77 872.49 794.256C877.628 787.96 882.588 781.528 887.272 774.941C935.406 708.195 960.291 628.058 947.075 557.905C940.031 520.732 921.492 487.154 894.295 461.742C865.438 434.634 827.048 416.798 782.947 413.247C722.431 408.421 655.729 428.795 591.766 442.105C536.602 453.644 483.481 459.871 438.214 440.71C384.228 417.883 357.501 363.623 346.368 308.29C335.097 252.88 336.34 193.612 323.598 138.173C310.855 82.7333 280.422 28.9313 224.811 9.51062M1124.21 1341.15C1095.22 1269.28 1026.68 1216.5 944.716 1200.05C898.26 1190.75 849.938 1189.8 803.367 1183.74C757.287 1177.77 710.484 1163.66 689.686 1127C661.598 1077.42 690.254 1006.26 733.657 953.736C776.982 901.095 833.781 858.894 877.817 807.051C883.17 800.695 888.346 794.202 893.344 787.573C943.808 720.105 970.784 638.638 958.421 566.968C951.901 528.928 933.434 494.447 906.192 468.211C877.192 440.261 838.385 421.681 793.732 417.821C732.487 412.549 664.884 433.105 600.019 446.598C544.11 458.3 490.304 464.65 444.523 444.982C390.002 421.492 363.52 365.7 353.123 308.929C342.628 252.139 345 191.51 332.702 135.086C320.364 78.6038 289.573 24.0195 232.434 5.11985M1127.81 1340.67C1101.55 1267.9 1033.27 1215.37 949.331 1203.34C902.52 1196.67 852.297 1201.87 804.564 1198.13C756.832 1194.39 708.706 1179.22 687.299 1142.28C658.364 1092.34 688.131 1020.17 733.2 967.2C778.269 914.232 837.305 872.054 883.36 819.785C946.375 748.264 982.445 656.371 969.885 575.951C957.324 495.532 892.393 430.4 804.537 422.296C689.111 411.583 550.784 492.905 451.008 449.135C395.854 424.962 369.734 367.559 360.014 309.39C350.354 251.181 353.835 189.288 341.903 131.763C329.97 74.2379 298.82 18.8713 240.213 0.453096" stroke="url(#paint0_linear_237_460)" stroke-width="0.5" stroke-miterlimit="10"/>
<defs>
<linearGradient id="paint0_linear_237_460" x1="819.892" y1="1216.71" x2="29.3656" y2="59.0653" gradientUnits="userSpaceOnUse">
<stop stop-color="#2973FF"/>
<stop offset="0.48974" stop-color="#8846D3" stop-opacity="0.12"/>
<stop offset="1" stop-color="#FF22AC" stop-opacity="0.11"/>
</linearGradient>
</defs>
</svg>
