<svg width="60" height="40" viewBox="0 0 60 40" fill="none" xmlns="http://www.w3.org/2000/svg">
<path d="M2 16C3.1 16 4 16.89 4 18V22C4 23.1 3.1 24 2 24C0.9 24 0 23.1 0 22V18C0 16.89 0.9 16 2 16ZM10 13C11.1 13 12 13.89 12 15V25C12 26.1 11.1 27 10 27C8.9 27 8 26.1 8 25V15C8 13.89 8.9 13 10 13ZM18 9C19.1 9 20 9.89 20 11V29C20 30.1 19.1 31 18 31C16.9 31 16 30.1 16 29V11C16 9.89 16.9 9 18 9ZM26 5C27.1 5 28 5.89 28 7V33C28 34.1 27.1 35 26 35C24.9 35 24 34.1 24 33V7C24 5.89 24.9 5 26 5ZM34 0C35.1 0 36 0.89 36 2V38C36 39.1 35.1 40 34 40C32.9 40 32 39.1 32 38V2C32 0.89 32.9 0 34 0ZM42 5C40.9 5 40 5.89 40 7V33C40 34.1 40.9 35 42 35C43.1 35 44 34.1 44 33V7C44 5.89 43.1 5 42 5ZM50 9C48.9 9 48 9.89 48 11V29C48 30.1 48.9 31 50 31C51.1 31 52 30.1 52 29V11C52 9.89 51.1 9 50 9ZM58 13C56.9 13 56 13.89 56 15V25C56 26.1 56.9 27 58 27C59.1 27 60 26.1 60 25V15C60 13.89 59.1 13 58 13Z" fill="url(#paint0_linear_3262_46469)"/>
<defs>
<linearGradient id="paint0_linear_3262_46469" x1="-2.32753e-06" y1="40" x2="52.952" y2="-12.4314" gradientUnits="userSpaceOnUse">
<stop stop-color="#2973FF"/>
<stop offset="0.48974" stop-color="#8846D3"/>
<stop offset="1" stop-color="#FF22AC"/>
</linearGradient>
</defs>
</svg>
