<svg width="26" height="26" viewBox="0 0 26 26" fill="none" xmlns="http://www.w3.org/2000/svg">
<path d="M4.30435 26H21.6957C22.416 26 23 25.4709 23 24.8182V11.4242C23 10.7716 22.416 10.2424 21.6957 10.2424H20.3913V6.69697C20.3913 3.00426 17.0756 0 13 0C8.92443 0 5.6087 3.00426 5.6087 6.69697V10.2424H4.30435C3.584 10.2424 3 10.7716 3 11.4242V24.8182C3 25.4709 3.584 26 4.30435 26ZM16.694 17.2826L12.9983 20.6311C12.7437 20.8618 12.4098 20.9773 12.0761 20.9773C11.7423 20.9773 11.4084 20.8618 11.1538 20.6311L9.306 18.9568C8.79661 18.4953 8.79661 17.7471 9.306 17.2855C9.8153 16.824 10.6412 16.824 11.1506 17.2855L12.0762 18.124L14.8496 15.6113C15.3589 15.1497 16.1848 15.1497 16.6942 15.6113C17.2035 16.0729 17.2035 16.8211 16.694 17.2826ZM8.21739 6.69697C8.21739 4.30757 10.3629 2.36364 13 2.36364C15.6371 2.36364 17.7826 4.30757 17.7826 6.69697V10.2424H8.21739V6.69697Z" fill="black"/>
</svg>
