<?xml version="1.0" encoding="utf-8"?>
<!-- Generator: Adobe Illustrator 25.0.0, SVG Export Plug-In . SVG Version: 6.00 Build 0)  -->
<svg version="1.1" id="Слой_1" xmlns="http://www.w3.org/2000/svg" xmlns:xlink="http://www.w3.org/1999/xlink" x="0px" y="0px"
	 viewBox="0 0 600 300" style="enable-background:new 0 0 600 300;" xml:space="preserve">
<style type="text/css">
	.st0{fill:#284CCB;}
	.st1{fill:#C126CE;}
	.st2{fill:#FFFFFF;}
</style>
<polygon class="st0" points="148.5,28.6 148.5,32.7 131.6,36.7 129.3,37.2 129.8,39.5 138.1,74.8 101,83.5 98.7,84 99.3,86.3 
	108.6,126.2 109.2,128.5 111.4,128 148.5,119.3 148.5,119.3 148.5,153.5 87.2,153.5 87.2,28.6 "/>
<polygon class="st1" points="174,29.1 182.8,66.8 222.1,57.6 231.4,97.5 192.1,106.7 200.9,144.3 159.2,154 150.4,116.4 
	111.1,125.6 101.8,85.7 141.1,76.5 132.3,38.9 "/>
<g>
	<path class="st2" d="M271.8,149.2c-3.4-0.8-6.5-1.9-9.5-3.4s-5.7-3.3-8.2-5.6c-2.5-2.3-4.6-4.8-6.4-7.7s-3.2-6.1-4.2-9.8
		s-1.5-7.7-1.5-11.9c0-3.7,0.4-7.2,1.2-10.6s2-6.6,3.5-9.5c1.5-3,3.4-5.7,5.8-8.1s5-4.5,7.9-6.2c2.9-1.7,6.2-3.1,10-4
		s7.7-1.4,11.9-1.4c5.6,0,11.2,1.2,16.9,3.7c5.6,2.5,10.5,6.2,14.6,11.2l-15.1,13c-0.9-1-1.9-1.9-3-2.8s-2.3-1.7-3.7-2.5
		s-2.9-1.5-4.6-1.9s-3.4-0.7-5.1-0.7c-1.9,0-3.8,0.3-5.6,0.8c-1.8,0.5-3.5,1.3-5.1,2.5c-1.6,1.1-3,2.5-4.1,4s-2.1,3.4-2.8,5.6
		s-1,4.5-1,7.1c0,2.6,0.4,5.1,1.3,7.5c0.9,2.4,2,4.5,3.6,6.3s3.5,3.2,5.9,4.3s5,1.6,7.8,1.6c3,0,6-0.7,9-2.2c3-1.4,5.4-3.3,7.4-5.7
		l15.1,13c-3.6,4.4-8.1,7.9-13.5,10.7s-11.4,4.1-18,4.1C278.6,150.4,275.2,150,271.8,149.2z"/>
	<path class="st2" d="M351.8,94.8v20.8c-1.1-0.1-2.4-0.1-4.1-0.1c-3.6,0-6.4,0.9-8.2,2.8s-2.8,4.4-2.8,7.6v23.3h-19.4V96h19.4v7.3
		h0.2c1.9-2.7,4.1-4.8,6.7-6.2s5.3-2.2,8.2-2.2L351.8,94.8L351.8,94.8z"/>
	<path class="st2" d="M408.4,96l-27.4,74.8h-18.9l9-25.4L350.8,96h20l9,25.2h0.2l8.5-25.2L408.4,96L408.4,96z"/>
	<path class="st2" d="M450.9,95.8c2,0.6,4,1.5,5.7,2.6c1.7,1.1,3.3,2.5,4.7,4.2s2.6,3.5,3.6,5.5s1.8,4.3,2.3,6.8s0.8,5,0.8,7.7
		c0,5.4-1,10.2-3.1,14.5s-5,7.5-8.8,9.8s-8,3.5-12.9,3.5c-5.5,0-9.9-1.9-13.2-5.7H430v26.1h-19.4V96h19.5v5.4h0.2
		c3.7-4.3,8.5-6.5,14.3-6.5C446.7,94.8,448.8,95.2,450.9,95.8z M445.9,130.4c1.8-2,2.7-4.6,2.7-7.8c0-3.2-0.9-5.7-2.7-7.7
		s-4-3-6.8-3c-2.9,0-5.2,1-7.1,3s-2.8,4.6-2.8,7.7c0,3.2,0.9,5.8,2.8,7.8c1.8,2,4.2,2.9,7.1,2.9
		C441.8,133.4,444.1,132.4,445.9,130.4z"/>
	<path class="st2" d="M484.1,149.3c-1.9-0.7-3.6-1.8-5-3.2c-1.4-1.4-2.6-3.3-3.4-5.6s-1.2-4.9-1.2-7.9v-21.1h-5.8V96h5.8V79.2
		l19.4-2V96h11.6v15.4h-11.6v16.9c0,0.7,0,1.4,0.1,1.9c0.1,0.6,0.2,1.1,0.4,1.7c0.2,0.6,0.6,1,1.1,1.3s1.1,0.5,1.9,0.5
		c1.4,0,2.7-0.3,3.9-0.9l4.7,13.5c-2.3,1.3-4.6,2.3-6.9,2.9c-2.3,0.7-5.2,1-8.7,1C488.1,150.4,486,150,484.1,149.3z"/>
	<path class="st2" d="M519.2,146.9c-4.4-2.3-7.9-5.6-10.4-9.8s-3.7-9-3.7-14.4c0-5.4,1.2-10.2,3.7-14.4c2.5-4.2,5.9-7.5,10.4-9.8
		c4.4-2.3,9.5-3.5,15.2-3.5c5.7,0,10.7,1.2,15.1,3.5c4.4,2.3,7.9,5.6,10.4,9.8c2.5,4.2,3.7,9,3.7,14.4c0,5.4-1.2,10.2-3.7,14.4
		c-2.5,4.2-5.9,7.5-10.4,9.8s-9.5,3.5-15.1,3.5C528.7,150.4,523.7,149.2,519.2,146.9z M541.3,130.2c1.8-2,2.8-4.5,2.8-7.6
		c0-3.1-0.9-5.7-2.7-7.6c-1.8-2-4.1-2.9-7-2.9c-1.4,0-2.7,0.3-3.9,0.8s-2.2,1.3-3.1,2.2c-0.8,0.9-1.5,2-2,3.3s-0.7,2.7-0.7,4.2
		c0,1.2,0.2,2.3,0.5,3.4s0.8,2.1,1.3,2.9c0.6,0.9,1.3,1.6,2.1,2.2s1.7,1.1,2.7,1.5c1,0.3,2,0.5,3.1,0.5
		C537.1,133.2,539.5,132.2,541.3,130.2z"/>
</g>
<g>
	<path class="st1" d="M22.8,162.3h52.5v18.9h-32v11.9h25.1v18.4H43.2v11.1h34.4v18.8H22.8V162.3z"/>
	<path class="st1" d="M170.3,209.5v31.9h-19.8V214c0-0.9,0-1.7-0.1-2.4s-0.1-1.5-0.3-2.2c-0.1-0.7-0.3-1.4-0.5-2s-0.5-1.1-0.8-1.7
		c-0.3-0.5-0.7-0.9-1.2-1.2s-1-0.6-1.6-0.8s-1.3-0.3-2-0.3c-2.1,0-3.9,0.9-5.2,2.7s-2,4.4-2,8v27.4h-19.9V214c0-1.6-0.1-2.9-0.3-4.2
		c-0.2-1.2-0.5-2.3-1-3.3s-1.2-1.8-2-2.3s-2-0.8-3.2-0.8c-2.3,0-4.1,0.9-5.5,2.7s-2.1,4.4-2.1,8v27.4H82.8v-54.5h19.9v6.2h0.1
		c1.9-2.4,4.1-4.2,6.6-5.5c2.5-1.2,5.2-1.9,8-1.9c7.2,0,12.5,2.6,15.6,7.7h0.2c4.3-5.1,10.2-7.7,17.6-7.7
		C163.8,185.8,170.3,193.7,170.3,209.5z"/>
	<path class="st1" d="M229.3,219h-35.7c0.4,2.5,1.7,4.5,3.7,5.8s4.6,2,7.6,2c4.5,0,8.7-2,12.6-6l10.3,11.3
		c-2.5,3.1-5.9,5.6-10.2,7.5s-9.2,2.9-14.8,2.9c-5.4,0-10.3-1.2-14.6-3.6s-7.8-5.7-10.2-10.1c-2.5-4.4-3.7-9.3-3.7-14.8
		c0-5.4,1.2-10.3,3.6-14.6s5.8-7.7,10.1-10.1c4.3-2.4,9.2-3.6,14.6-3.6c3.9,0,7.5,0.7,10.9,2.1c3.4,1.4,6.3,3.3,8.7,5.7
		s4.3,5.4,5.7,8.9s2.1,7.2,2.1,11.3C229.8,215.8,229.6,217.6,229.3,219z M196.6,202.8c-1.6,1.3-2.6,3.1-3,5.4h16.9
		c-0.2-1.1-0.6-2.1-1.1-3c-0.5-0.9-1.1-1.7-1.8-2.3s-1.5-1.1-2.4-1.4c-0.9-0.3-1.9-0.5-3-0.5C200.1,200.9,198.2,201.6,196.6,202.8z"
		/>
	<path class="st1" d="M269.5,185.8V207c-1.1-0.1-2.5-0.1-4.2-0.1c-3.7,0-6.5,1-8.4,2.9s-2.9,4.5-2.9,7.8v23.8h-19.9v-54.5H254v7.4
		h0.2c1.9-2.8,4.2-4.9,6.8-6.4s5.4-2.2,8.4-2.2H269.5z"/>
	<path class="st1" d="M327.8,186.9v46.6c0,3.8-0.3,7.2-0.9,10.3c-0.6,3.1-1.6,5.9-3.1,8.5c-1.5,2.6-3.3,4.8-5.6,6.6
		s-5.1,3.2-8.6,4.2s-7.4,1.5-11.9,1.5c-4.7,0-8.8-0.4-12.2-1.1s-6.9-2-10.4-3.9l4.4-15.6c2,1.2,4.4,2.3,7.4,3.1
		c3,0.9,5.8,1.3,8.3,1.3c4.2,0,7.5-0.8,9.8-2.5s3.5-3.8,3.5-6.3v-4.9h-0.2c-3.5,3.8-8.3,5.7-14.4,5.7c-4.7,0-8.9-1.2-12.7-3.5
		s-6.6-5.5-8.7-9.6c-2-4-3.1-8.6-3.1-13.6c0-4,0.6-7.7,1.8-11.2c1.2-3.5,2.9-6.4,4.9-8.9s4.5-4.3,7.4-5.7s6-2.1,9.2-2.1
		c6.1,0,11.1,2.1,14.9,6.5h0.2v-5.3L327.8,186.9L327.8,186.9z M306.1,220.1c1.8-1.8,2.7-4.1,2.7-7c0-2.8-0.9-5.1-2.8-7
		c-1.9-1.8-4.1-2.7-6.8-2.7s-5,0.9-6.9,2.7c-1.9,1.8-2.8,4.2-2.8,7c0,2.9,0.9,5.2,2.8,7c1.9,1.8,4.1,2.7,6.9,2.7
		S304.2,221.9,306.1,220.1z"/>
	<path class="st1" d="M387.2,219h-35.7c0.4,2.5,1.7,4.5,3.7,5.8s4.6,2,7.6,2c4.5,0,8.7-2,12.5-6l10.3,11.3
		c-2.5,3.1-5.9,5.6-10.2,7.5c-4.3,1.9-9.2,2.9-14.8,2.9c-5.4,0-10.3-1.2-14.6-3.6s-7.8-5.7-10.2-10.1c-2.5-4.4-3.7-9.3-3.7-14.8
		c0-5.4,1.2-10.3,3.6-14.6s5.8-7.7,10.1-10.1c4.3-2.4,9.2-3.6,14.6-3.6c3.9,0,7.5,0.7,10.9,2.1c3.4,1.4,6.3,3.3,8.7,5.7
		s4.3,5.4,5.7,8.9s2.1,7.2,2.1,11.3C387.7,215.8,387.5,217.6,387.2,219z M354.5,202.8c-1.6,1.3-2.6,3.1-3,5.4h17
		c-0.2-1.1-0.6-2.1-1.1-3c-0.5-0.9-1.1-1.7-1.8-2.3s-1.5-1.1-2.4-1.4c-0.9-0.3-1.9-0.5-3-0.5C358,200.9,356.1,201.6,354.5,202.8z"/>
	<path class="st1" d="M432.8,186.2c1.6,0.3,3.2,0.8,4.6,1.5c1.5,0.7,2.8,1.6,3.9,2.8s2.1,2.6,2.9,4.2c0.8,1.6,1.5,3.6,1.9,5.9
		s0.6,4.9,0.6,7.8v33h-19.9v-28.2c0-2.5-0.3-4.5-0.8-6s-1.3-2.4-2.3-3c-1-0.6-2.3-0.8-4-0.8c-2.5,0-4.4,0.9-5.8,2.6
		c-1.4,1.8-2.1,4.4-2.1,8v27.4H392v-54.5h19.9v6h0.1c2-2.3,4.3-4.1,7-5.3c2.7-1.2,5.5-1.8,8.5-1.8
		C429.4,185.8,431.1,185.9,432.8,186.2z"/>
	<path class="st1" d="M464.7,239c-4.4-2.4-7.8-5.7-10.2-10.1c-2.5-4.3-3.7-9.2-3.7-14.8c0-5.5,1.3-10.5,3.8-14.8s6-7.7,10.6-10.1
		s9.7-3.6,15.5-3.6c4.7,0,9.1,1,13.4,2.9c4.2,1.9,7.7,4.7,10.4,8.3l-13.2,11.2c-2.8-3.3-6.1-4.9-10.1-4.9c-3.1,0-5.6,1-7.5,3
		s-2.9,4.5-2.9,7.7c0,3.2,1,5.8,3,7.8s4.5,3,7.6,3c4,0,7.3-1.5,9.8-4.4l13.5,11.8c-2.5,3.1-5.9,5.6-10.3,7.5
		c-4.4,1.9-9.4,2.9-15.1,2.9C473.9,242.5,469,241.3,464.7,239z"/>
	<path class="st1" d="M562,186.9l-28,76.5h-19.3l9.2-26l-20.9-50.5h20.5l9.2,25.8h0.2l8.7-25.8L562,186.9L562,186.9z"/>
</g>
</svg>
