<svg width="160" height="80" viewBox="0 0 160 80" fill="none" xmlns="http://www.w3.org/2000/svg">
<path d="M39.6 7.62666V8.72L35.0933 9.78666L34.48 9.92L34.6133 10.5333L36.8267 19.9467L26.9333 22.2667L26.32 22.4L26.48 23.0133L28.96 33.6533L29.12 34.2667L29.7067 34.1333L39.6 31.8133V40.9333H23.2533V7.62666H39.6Z" fill="#284CCB"/>
<path d="M46.4 7.75999L48.7467 17.8133L59.2267 15.36L61.7067 26L51.2267 28.4533L53.5733 38.48L42.4533 41.0667L40.1067 31.04L29.6267 33.4933L27.1467 22.8533L37.6267 20.4L35.28 10.3733L46.4 7.75999Z" fill="#C126CE"/>
<path d="M72.48 39.7867C71.5733 39.5733 70.7467 39.28 69.9467 38.88C69.1467 38.48 68.4267 38 67.76 37.3867C67.0933 36.7733 66.5333 36.1067 66.0533 35.3333C65.5733 34.56 65.2 33.7067 64.9333 32.72C64.6667 31.7333 64.5333 30.6667 64.5333 29.5467C64.5333 28.56 64.64 27.6267 64.8533 26.72C65.0667 25.8133 65.3867 24.96 65.7867 24.1867C66.1867 23.3867 66.6933 22.6667 67.3333 22.0267C67.9733 21.3867 68.6667 20.8267 69.44 20.3733C70.2133 19.92 71.0933 19.5467 72.1067 19.3067C73.12 19.0667 74.16 18.9333 75.28 18.9333C76.7733 18.9333 78.2667 19.2533 79.7867 19.92C81.28 20.5867 82.5867 21.5733 83.68 22.9067L79.6533 26.3733C79.4133 26.1067 79.1467 25.8667 78.8533 25.6267C78.56 25.3867 78.24 25.1733 77.8667 24.96C77.4933 24.7467 77.0933 24.56 76.64 24.4533C76.1867 24.3467 75.7333 24.2667 75.28 24.2667C74.7733 24.2667 74.2667 24.3467 73.7867 24.48C73.3067 24.6133 72.8533 24.8267 72.4267 25.1467C72 25.44 71.6267 25.8133 71.3333 26.2133C71.04 26.6133 70.7733 27.12 70.5867 27.7067C70.4 28.2933 70.32 28.9067 70.32 29.6C70.32 30.2933 70.4267 30.96 70.6667 31.6C70.9067 32.24 71.2 32.8 71.6267 33.28C72.0533 33.76 72.56 34.1333 73.2 34.4267C73.84 34.72 74.5333 34.8533 75.28 34.8533C76.08 34.8533 76.88 34.6667 77.68 34.2667C78.48 33.8933 79.12 33.3867 79.6533 32.7467L83.68 36.2133C82.72 37.3867 81.52 38.32 80.08 39.0667C78.64 39.8133 77.04 40.16 75.28 40.16C74.2933 40.1067 73.3867 40 72.48 39.7867Z" fill="white"/>
<path d="M93.8133 25.28V30.8267C93.52 30.8 93.1733 30.8 92.72 30.8C91.76 30.8 91.0133 31.04 90.5333 31.5467C90.0533 32.0533 89.7867 32.72 89.7867 33.5733V39.7867H84.6133V25.6H89.7867V27.5467H89.84C90.3467 26.8267 90.9333 26.2667 91.6267 25.8933C92.32 25.52 93.04 25.3067 93.8133 25.3067V25.28Z" fill="white"/>
<path d="M108.907 25.6L101.6 45.5467H96.56L98.96 38.7733L93.5467 25.6H98.88L101.28 32.32H101.333L103.6 25.6H108.907Z" fill="white"/>
<path d="M120.24 25.5467C120.773 25.7067 121.307 25.9467 121.76 26.24C122.213 26.5333 122.64 26.9067 123.013 27.36C123.387 27.8133 123.707 28.2933 123.973 28.8267C124.24 29.36 124.453 29.9733 124.587 30.64C124.72 31.3067 124.8 31.9733 124.8 32.6933C124.8 34.1333 124.533 35.4133 123.973 36.56C123.413 37.7067 122.64 38.56 121.627 39.1733C120.613 39.7867 119.493 40.1067 118.187 40.1067C116.72 40.1067 115.547 39.6 114.667 38.5867V45.5467H109.493V25.6H114.693V27.04H114.747C115.733 25.8933 117.013 25.3067 118.56 25.3067C119.12 25.28 119.68 25.3867 120.24 25.5467ZM118.907 34.7733C119.387 34.24 119.627 33.5467 119.627 32.6933C119.627 31.84 119.387 31.1733 118.907 30.64C118.427 30.1067 117.84 29.84 117.093 29.84C116.32 29.84 115.707 30.1067 115.2 30.64C114.693 31.1733 114.453 31.8667 114.453 32.6933C114.453 33.5467 114.693 34.24 115.2 34.7733C115.68 35.3067 116.32 35.5467 117.093 35.5467C117.813 35.5733 118.427 35.3067 118.907 34.7733Z" fill="white"/>
<path d="M129.093 39.8133C128.587 39.6267 128.133 39.3333 127.76 38.96C127.387 38.5867 127.067 38.08 126.853 37.4667C126.64 36.8533 126.533 36.16 126.533 35.36V29.7333H124.987V25.6H126.533V21.12L131.707 20.5867V25.6H134.8V29.7067H131.707V34.2133C131.707 34.4 131.707 34.5867 131.733 34.72C131.76 34.88 131.787 35.0133 131.84 35.1733C131.893 35.3333 132 35.44 132.133 35.52C132.267 35.6 132.427 35.6533 132.64 35.6533C133.013 35.6533 133.36 35.5733 133.68 35.4133L134.933 39.0133C134.32 39.36 133.707 39.6267 133.093 39.7867C132.48 39.9733 131.707 40.0533 130.773 40.0533C130.16 40.1067 129.6 40 129.093 39.8133Z" fill="white"/>
<path d="M6.08 43.28H20.08V48.32H11.5467V51.4933H18.24V56.4H11.52V59.36H20.6933V64.3733H6.08V43.28Z" fill="#C126CE"/>
<path d="M45.4133 55.8667V64.3733H40.1333V57.0667C40.1333 56.8267 40.1333 56.6133 40.1067 56.4267C40.08 56.24 40.08 56.0267 40.0267 55.84C40 55.6533 39.9467 55.4667 39.8933 55.3067C39.84 55.1467 39.76 55.0133 39.68 54.8533C39.6 54.72 39.4933 54.6133 39.36 54.5333C39.2267 54.4533 39.0933 54.3733 38.9333 54.32C38.7733 54.2667 38.5867 54.24 38.4 54.24C37.84 54.24 37.36 54.48 37.0133 54.96C36.6667 55.44 36.48 56.1333 36.48 57.0933V64.4H31.1733V57.0667C31.1733 56.64 31.1467 56.2933 31.0933 55.9467C31.04 55.6267 30.96 55.3333 30.8267 55.0667C30.6933 54.8 30.5067 54.5867 30.2933 54.4533C30.08 54.32 29.76 54.24 29.44 54.24C28.8267 54.24 28.3467 54.48 27.9733 54.96C27.6 55.44 27.4133 56.1333 27.4133 57.0933V64.4H22.08V49.8667H27.3867V51.52H27.4133C27.92 50.88 28.5067 50.4 29.1733 50.0533C29.84 49.7333 30.56 49.5467 31.3067 49.5467C33.2267 49.5467 34.64 50.24 35.4667 51.6H35.52C36.6667 50.24 38.24 49.5467 40.2133 49.5467C43.68 49.5467 45.4133 51.6533 45.4133 55.8667Z" fill="#C126CE"/>
<path d="M61.1467 58.4H51.6267C51.7333 59.0667 52.08 59.6 52.6133 59.9467C53.1467 60.2933 53.84 60.48 54.64 60.48C55.84 60.48 56.96 59.9467 58 58.88L60.7467 61.8933C60.08 62.72 59.1733 63.3867 58.0267 63.8933C56.88 64.4 55.5733 64.6667 54.08 64.6667C52.64 64.6667 51.3333 64.3467 50.1867 63.7067C49.04 63.0667 48.1067 62.1867 47.4667 61.0133C46.8 59.84 46.48 58.5333 46.48 57.0667C46.48 55.6267 46.8 54.32 47.44 53.1733C48.08 52.0267 48.9867 51.12 50.1333 50.48C51.28 49.84 52.5867 49.52 54.0267 49.52C55.0667 49.52 56.0267 49.7067 56.9333 50.08C57.84 50.4533 58.6133 50.96 59.2533 51.6C59.8933 52.24 60.4 53.04 60.7733 53.9733C61.1467 54.9067 61.3333 55.8933 61.3333 56.9867C61.28 57.5467 61.2267 58.0267 61.1467 58.4ZM52.4267 54.08C52 54.4267 51.7333 54.9067 51.6267 55.52H56.1333C56.08 55.2267 55.9733 54.96 55.84 54.72C55.7067 54.48 55.5467 54.2667 55.36 54.1067C55.1733 53.9467 54.96 53.8133 54.72 53.7333C54.48 53.6533 54.2133 53.6 53.92 53.6C53.36 53.5733 52.8533 53.76 52.4267 54.08Z" fill="#C126CE"/>
<path d="M71.8667 49.5467V55.2C71.5733 55.1733 71.2 55.1733 70.7467 55.1733C69.76 55.1733 69.0133 55.44 68.5067 55.9467C68 56.4533 67.7333 57.1467 67.7333 58.0267V64.3733H62.4267V49.84H67.7333V51.8133H67.7867C68.2933 51.0667 68.9067 50.5067 69.6 50.1067C70.2933 49.7067 71.04 49.52 71.84 49.52H71.8667V49.5467Z" fill="#C126CE"/>
<path d="M87.4133 49.84V62.2667C87.4133 63.28 87.3333 64.1867 87.1733 65.0133C87.0133 65.84 86.7467 66.5867 86.3467 67.28C85.9467 67.9733 85.4667 68.56 84.8533 69.04C84.24 69.52 83.4933 69.8933 82.56 70.16C81.6267 70.4267 80.5867 70.56 79.3867 70.56C78.1333 70.56 77.04 70.4533 76.1333 70.2667C75.2267 70.08 74.2933 69.7333 73.36 69.2267L74.5333 65.0667C75.0667 65.3867 75.7067 65.68 76.5067 65.8933C77.3067 66.1333 78.0533 66.24 78.72 66.24C79.84 66.24 80.72 66.0267 81.3333 65.5733C81.9467 65.12 82.2667 64.56 82.2667 63.8933V62.5867H82.2133C81.28 63.6 80 64.1067 78.3733 64.1067C77.12 64.1067 76 63.7867 74.9867 63.1733C73.9733 62.56 73.2267 61.7067 72.6667 60.6133C72.1333 59.5467 71.84 58.32 71.84 56.9867C71.84 55.92 72 54.9333 72.32 54C72.64 53.0667 73.0933 52.2933 73.6267 51.6267C74.16 50.96 74.8267 50.48 75.6 50.1067C76.3733 49.7333 77.2 49.5467 78.0533 49.5467C79.68 49.5467 81.0133 50.1067 82.0267 51.28H82.08V49.8667L87.4133 49.84ZM81.6267 58.6933C82.1067 58.2133 82.3467 57.6 82.3467 56.8267C82.3467 56.08 82.1067 55.4667 81.6 54.96C81.0933 54.48 80.5067 54.24 79.7867 54.24C79.0667 54.24 78.4533 54.48 77.9467 54.96C77.44 55.44 77.2 56.08 77.2 56.8267C77.2 57.6 77.44 58.2133 77.9467 58.6933C78.4533 59.1733 79.04 59.4133 79.7867 59.4133C80.5333 59.4133 81.12 59.1733 81.6267 58.6933Z" fill="#C126CE"/>
<path d="M103.253 58.4H93.7333C93.84 59.0667 94.1867 59.6 94.72 59.9467C95.2533 60.2933 95.9467 60.48 96.7467 60.48C97.9467 60.48 99.0667 59.9467 100.08 58.88L102.827 61.8933C102.16 62.72 101.253 63.3867 100.107 63.8933C98.96 64.4 97.6533 64.6667 96.16 64.6667C94.72 64.6667 93.4133 64.3467 92.2667 63.7067C91.12 63.0667 90.1867 62.1867 89.5467 61.0133C88.88 59.84 88.56 58.5333 88.56 57.0667C88.56 55.6267 88.88 54.32 89.52 53.1733C90.16 52.0267 91.0667 51.12 92.2133 50.48C93.36 49.84 94.6667 49.52 96.1067 49.52C97.1467 49.52 98.1067 49.7067 99.0133 50.08C99.92 50.4533 100.693 50.96 101.333 51.6C101.973 52.24 102.48 53.04 102.853 53.9733C103.227 54.9067 103.413 55.8933 103.413 56.9867C103.387 57.5467 103.333 58.0267 103.253 58.4ZM94.5333 54.08C94.1067 54.4267 93.84 54.9067 93.7333 55.52H98.2667C98.2133 55.2267 98.1067 54.96 97.9733 54.72C97.84 54.48 97.68 54.2667 97.4933 54.1067C97.3067 53.9467 97.0933 53.8133 96.8533 53.7333C96.6133 53.6533 96.3467 53.6 96.0533 53.6C95.4667 53.5733 94.96 53.76 94.5333 54.08Z" fill="#C126CE"/>
<path d="M115.413 49.6533C115.84 49.7333 116.267 49.8667 116.64 50.0533C117.04 50.24 117.387 50.48 117.68 50.8C117.973 51.12 118.24 51.4933 118.453 51.92C118.667 52.3467 118.853 52.88 118.96 53.4933C119.067 54.1067 119.12 54.8 119.12 55.5733V64.3733H113.813V56.8533C113.813 56.1867 113.733 55.6533 113.6 55.2533C113.467 54.8533 113.253 54.6133 112.987 54.4533C112.72 54.2933 112.373 54.24 111.92 54.24C111.253 54.24 110.747 54.48 110.373 54.9333C110 55.4133 109.813 56.1067 109.813 57.0667V64.3733H104.533V49.84H109.84V51.44H109.867C110.4 50.8267 111.013 50.3467 111.733 50.0267C112.453 49.7067 113.2 49.5467 114 49.5467C114.507 49.5467 114.96 49.5733 115.413 49.6533Z" fill="#C126CE"/>
<path d="M123.92 63.7333C122.747 63.0933 121.84 62.2133 121.2 61.04C120.533 59.8933 120.213 58.5867 120.213 57.0933C120.213 55.6267 120.56 54.2933 121.227 53.1467C121.893 52 122.827 51.0933 124.053 50.4533C125.28 49.8133 126.64 49.4933 128.187 49.4933C129.44 49.4933 130.613 49.76 131.76 50.2667C132.88 50.7733 133.813 51.52 134.533 52.48L131.013 55.4667C130.267 54.5867 129.387 54.16 128.32 54.16C127.493 54.16 126.827 54.4267 126.32 54.96C125.813 55.4933 125.547 56.16 125.547 57.0133C125.547 57.8667 125.813 58.56 126.347 59.0933C126.88 59.6267 127.547 59.8933 128.373 59.8933C129.44 59.8933 130.32 59.4933 130.987 58.72L134.587 61.8667C133.92 62.6933 133.013 63.36 131.84 63.8667C130.667 64.3733 129.333 64.64 127.813 64.64C126.373 64.6667 125.067 64.3467 123.92 63.7333Z" fill="#C126CE"/>
<path d="M149.867 49.84L142.4 70.24H137.253L139.707 63.3067L134.133 49.84H139.6L142.053 56.72H142.107L144.427 49.84H149.867Z" fill="#C126CE"/>
</svg>
