<svg width="130" height="65" viewBox="0 0 130 65" fill="none" xmlns="http://www.w3.org/2000/svg">
<path d="M32.175 6.19667V7.085L28.5133 7.95167L28.015 8.06L28.1233 8.55833L29.9217 16.2067L21.8833 18.0917L21.385 18.2L21.515 18.6983L23.53 27.3433L23.66 27.8417L24.1367 27.7333L32.175 25.8483V33.2583H18.8933V6.19667H32.175Z" fill="#284CCB"/>
<path d="M37.7 6.305L39.6067 14.4733L48.1217 12.48L50.1367 21.125L41.6217 23.1183L43.5283 31.265L34.4933 33.3667L32.5867 25.22L24.0717 27.2133L22.0567 18.5683L30.5717 16.575L28.665 8.42833L37.7 6.305Z" fill="#C126CE"/>
<path d="M58.89 32.3267C58.1533 32.1533 57.4817 31.915 56.8317 31.59C56.1817 31.265 55.5967 30.875 55.055 30.3767C54.5133 29.8783 54.0583 29.3367 53.6683 28.7083C53.2783 28.08 52.975 27.3867 52.7583 26.585C52.5417 25.7833 52.4333 24.9167 52.4333 24.0067C52.4333 23.205 52.52 22.4467 52.6933 21.71C52.8667 20.9733 53.1267 20.28 53.4517 19.6517C53.7767 19.0017 54.1883 18.4167 54.7083 17.8967C55.2283 17.3767 55.7917 16.9217 56.42 16.5533C57.0483 16.185 57.7633 15.8817 58.5867 15.6867C59.41 15.4917 60.255 15.3833 61.165 15.3833C62.3783 15.3833 63.5917 15.6433 64.8267 16.185C66.04 16.7267 67.1017 17.5283 67.99 18.6117L64.7183 21.4283C64.5233 21.2117 64.3067 21.0167 64.0683 20.8217C63.83 20.6267 63.57 20.4533 63.2667 20.28C62.9633 20.1067 62.6383 19.955 62.27 19.8683C61.9017 19.7817 61.5333 19.7167 61.165 19.7167C60.7533 19.7167 60.3417 19.7817 59.9517 19.89C59.5617 19.9983 59.1933 20.1717 58.8467 20.4317C58.5 20.67 58.1967 20.9733 57.9583 21.2983C57.72 21.6233 57.5033 22.035 57.3517 22.5117C57.2 22.9883 57.135 23.4867 57.135 24.05C57.135 24.6133 57.2217 25.155 57.4167 25.675C57.6117 26.195 57.85 26.65 58.1967 27.04C58.5433 27.43 58.955 27.7333 59.475 27.9717C59.995 28.21 60.5583 28.3183 61.165 28.3183C61.815 28.3183 62.465 28.1667 63.115 27.8417C63.765 27.5383 64.285 27.1267 64.7183 26.6067L67.99 29.4233C67.21 30.3767 66.235 31.135 65.065 31.7417C63.895 32.3483 62.595 32.63 61.165 32.63C60.3633 32.5867 59.6267 32.5 58.89 32.3267Z" fill="white"/>
<path d="M76.2233 20.54V25.0467C75.985 25.025 75.7033 25.025 75.335 25.025C74.555 25.025 73.9483 25.22 73.5583 25.6317C73.1683 26.0433 72.9517 26.585 72.9517 27.2783V32.3267H68.7483V20.8H72.9517V22.3817H72.995C73.4067 21.7967 73.8833 21.3417 74.4467 21.0383C75.01 20.735 75.595 20.5617 76.2233 20.5617V20.54Z" fill="white"/>
<path d="M88.4867 20.8L82.55 37.0067H78.455L80.405 31.5033L76.0067 20.8H80.34L82.29 26.26H82.3333L84.175 20.8H88.4867Z" fill="white"/>
<path d="M97.695 20.7567C98.1283 20.8867 98.5617 21.0817 98.93 21.32C99.2983 21.5583 99.645 21.8617 99.9483 22.23C100.252 22.5983 100.512 22.9883 100.728 23.4217C100.945 23.855 101.118 24.3533 101.227 24.895C101.335 25.4367 101.4 25.9783 101.4 26.5633C101.4 27.7333 101.183 28.7733 100.728 29.705C100.273 30.6367 99.645 31.33 98.8217 31.8283C97.9983 32.3267 97.0883 32.5867 96.0267 32.5867C94.835 32.5867 93.8817 32.175 93.1667 31.3517V37.0067H88.9633V20.8H93.1883V21.97H93.2317C94.0333 21.0383 95.0733 20.5617 96.33 20.5617C96.785 20.54 97.24 20.6267 97.695 20.7567ZM96.6117 28.2533C97.0017 27.82 97.1967 27.2567 97.1967 26.5633C97.1967 25.87 97.0017 25.3283 96.6117 24.895C96.2217 24.4617 95.745 24.245 95.1383 24.245C94.51 24.245 94.0117 24.4617 93.6 24.895C93.1883 25.3283 92.9933 25.8917 92.9933 26.5633C92.9933 27.2567 93.1883 27.82 93.6 28.2533C93.99 28.6867 94.51 28.8817 95.1383 28.8817C95.7233 28.9033 96.2217 28.6867 96.6117 28.2533Z" fill="white"/>
<path d="M104.888 32.3483C104.477 32.1967 104.108 31.9583 103.805 31.655C103.502 31.3517 103.242 30.94 103.068 30.4417C102.895 29.9433 102.808 29.38 102.808 28.73V24.1583H101.552V20.8H102.808V17.16L107.012 16.7267V20.8H109.525V24.1367H107.012V27.7983C107.012 27.95 107.012 28.1017 107.033 28.21C107.055 28.34 107.077 28.4483 107.12 28.5783C107.163 28.7083 107.25 28.795 107.358 28.86C107.467 28.925 107.597 28.9683 107.77 28.9683C108.073 28.9683 108.355 28.9033 108.615 28.7733L109.633 31.6983C109.135 31.98 108.637 32.1967 108.138 32.3267C107.64 32.4783 107.012 32.5433 106.253 32.5433C105.755 32.5867 105.3 32.5 104.888 32.3483Z" fill="white"/>
<path d="M112.493 31.8283C111.54 31.33 110.782 30.615 110.24 29.705C109.698 28.795 109.438 27.755 109.438 26.585C109.438 25.415 109.698 24.375 110.24 23.465C110.782 22.555 111.518 21.84 112.493 21.3417C113.447 20.8433 114.552 20.5833 115.787 20.5833C117.022 20.5833 118.105 20.8433 119.058 21.3417C120.012 21.84 120.77 22.555 121.312 23.465C121.853 24.375 122.113 25.415 122.113 26.585C122.113 27.755 121.853 28.795 121.312 29.705C120.77 30.615 120.033 31.33 119.058 31.8283C118.083 32.3267 117 32.5867 115.787 32.5867C114.552 32.5867 113.468 32.3267 112.493 31.8283ZM117.282 28.21C117.672 27.7767 117.888 27.235 117.888 26.5633C117.888 25.8917 117.693 25.3283 117.303 24.9167C116.913 24.4833 116.415 24.2883 115.787 24.2883C115.483 24.2883 115.202 24.3533 114.942 24.4617C114.682 24.57 114.465 24.7433 114.27 24.9383C114.097 25.1333 113.945 25.3717 113.837 25.6533C113.728 25.935 113.685 26.2383 113.685 26.5633C113.685 26.8233 113.728 27.0617 113.793 27.3C113.858 27.5383 113.967 27.755 114.075 27.9283C114.205 28.1233 114.357 28.275 114.53 28.405C114.703 28.535 114.898 28.6433 115.115 28.73C115.332 28.795 115.548 28.8383 115.787 28.8383C116.372 28.86 116.892 28.6433 117.282 28.21Z" fill="white"/>
<path d="M4.94 35.165H16.315V39.26H9.38167V41.8383H14.82V45.825H9.36V48.23H16.8133V52.3033H4.94V35.165Z" fill="#C126CE"/>
<path d="M36.8983 45.3917V52.3033H32.6083V46.3667C32.6083 46.1717 32.6083 45.9983 32.5867 45.8467C32.565 45.695 32.565 45.5217 32.5217 45.37C32.5 45.2183 32.4567 45.0667 32.4133 44.9367C32.37 44.8067 32.305 44.6983 32.24 44.5683C32.175 44.46 32.0883 44.3733 31.98 44.3083C31.8717 44.2433 31.7633 44.1783 31.6333 44.135C31.5033 44.0917 31.3517 44.07 31.2 44.07C30.745 44.07 30.355 44.265 30.0733 44.655C29.7917 45.045 29.64 45.6083 29.64 46.3883V52.325H25.3283V46.3667C25.3283 46.02 25.3067 45.7383 25.2633 45.4567C25.22 45.1967 25.155 44.9583 25.0467 44.7417C24.9383 44.525 24.7867 44.3517 24.6133 44.2433C24.44 44.135 24.18 44.07 23.92 44.07C23.4217 44.07 23.0317 44.265 22.7283 44.655C22.425 45.045 22.2733 45.6083 22.2733 46.3883V52.325H17.94V40.5167H22.2517V41.86H22.2733C22.685 41.34 23.1617 40.95 23.7033 40.6683C24.245 40.4083 24.83 40.2567 25.4367 40.2567C26.9967 40.2567 28.145 40.82 28.8167 41.925H28.86C29.7917 40.82 31.07 40.2567 32.6733 40.2567C35.49 40.2567 36.8983 41.9683 36.8983 45.3917Z" fill="#C126CE"/>
<path d="M49.6817 47.45H41.9467C42.0333 47.9917 42.315 48.425 42.7483 48.7067C43.1817 48.9883 43.745 49.14 44.395 49.14C45.37 49.14 46.28 48.7067 47.125 47.84L49.3567 50.2883C48.815 50.96 48.0783 51.5017 47.1467 51.9133C46.215 52.325 45.1533 52.5417 43.94 52.5417C42.77 52.5417 41.7083 52.2817 40.7767 51.7617C39.845 51.2417 39.0867 50.5267 38.5667 49.5733C38.025 48.62 37.765 47.5583 37.765 46.3667C37.765 45.1967 38.025 44.135 38.545 43.2033C39.065 42.2717 39.8017 41.535 40.7333 41.015C41.665 40.495 42.7267 40.235 43.8967 40.235C44.7417 40.235 45.5217 40.3867 46.2583 40.69C46.995 40.9933 47.6233 41.405 48.1433 41.925C48.6633 42.445 49.075 43.095 49.3783 43.8533C49.6817 44.6117 49.8333 45.4133 49.8333 46.3017C49.79 46.7567 49.7467 47.1467 49.6817 47.45ZM42.5967 43.94C42.25 44.2217 42.0333 44.6117 41.9467 45.11H45.6083C45.565 44.8717 45.4783 44.655 45.37 44.46C45.2617 44.265 45.1317 44.0917 44.98 43.9617C44.8283 43.8317 44.655 43.7233 44.46 43.6583C44.265 43.5933 44.0483 43.55 43.81 43.55C43.355 43.5283 42.9433 43.68 42.5967 43.94Z" fill="#C126CE"/>
<path d="M58.3917 40.2567V44.85C58.1533 44.8283 57.85 44.8283 57.4817 44.8283C56.68 44.8283 56.0733 45.045 55.6617 45.4567C55.25 45.8683 55.0333 46.4317 55.0333 47.1467V52.3033H50.7217V40.495H55.0333V42.0983H55.0767C55.4883 41.4917 55.9867 41.0367 56.55 40.7117C57.1133 40.3867 57.72 40.235 58.37 40.235H58.3917V40.2567Z" fill="#C126CE"/>
<path d="M71.0233 40.495V50.5917C71.0233 51.415 70.9583 52.1517 70.8283 52.8233C70.6983 53.495 70.4817 54.1017 70.1567 54.665C69.8317 55.2283 69.4417 55.705 68.9433 56.095C68.445 56.485 67.8383 56.7883 67.08 57.005C66.3217 57.2217 65.4767 57.33 64.5017 57.33C63.4833 57.33 62.595 57.2433 61.8583 57.0917C61.1217 56.94 60.3633 56.6583 59.605 56.2467L60.5583 52.8667C60.9917 53.1267 61.5117 53.365 62.1617 53.5383C62.8117 53.7333 63.4183 53.82 63.96 53.82C64.87 53.82 65.585 53.6467 66.0833 53.2783C66.5817 52.91 66.8417 52.455 66.8417 51.9133V50.8517H66.7983C66.04 51.675 65 52.0867 63.6783 52.0867C62.66 52.0867 61.75 51.8267 60.9267 51.3283C60.1033 50.83 59.4967 50.1367 59.0417 49.2483C58.6083 48.3817 58.37 47.385 58.37 46.3017C58.37 45.435 58.5 44.6333 58.76 43.875C59.02 43.1167 59.3883 42.4883 59.8217 41.9467C60.255 41.405 60.7967 41.015 61.425 40.7117C62.0533 40.4083 62.725 40.2567 63.4183 40.2567C64.74 40.2567 65.8233 40.7117 66.6467 41.665H66.69V40.5167L71.0233 40.495ZM66.3217 47.6883C66.7117 47.2983 66.9067 46.8 66.9067 46.1717C66.9067 45.565 66.7117 45.0667 66.3 44.655C65.8883 44.265 65.4117 44.07 64.8267 44.07C64.2417 44.07 63.7433 44.265 63.3317 44.655C62.92 45.045 62.725 45.565 62.725 46.1717C62.725 46.8 62.92 47.2983 63.3317 47.6883C63.7433 48.0783 64.22 48.2733 64.8267 48.2733C65.4333 48.2733 65.91 48.0783 66.3217 47.6883Z" fill="#C126CE"/>
<path d="M83.8933 47.45H76.1583C76.245 47.9917 76.5267 48.425 76.96 48.7067C77.3933 48.9883 77.9567 49.14 78.6067 49.14C79.5817 49.14 80.4917 48.7067 81.315 47.84L83.5467 50.2883C83.005 50.96 82.2683 51.5017 81.3367 51.9133C80.405 52.325 79.3433 52.5417 78.13 52.5417C76.96 52.5417 75.8983 52.2817 74.9667 51.7617C74.035 51.2417 73.2767 50.5267 72.7567 49.5733C72.215 48.62 71.955 47.5583 71.955 46.3667C71.955 45.1967 72.215 44.135 72.735 43.2033C73.255 42.2717 73.9917 41.535 74.9233 41.015C75.855 40.495 76.9167 40.235 78.0867 40.235C78.9317 40.235 79.7117 40.3867 80.4483 40.69C81.185 40.9933 81.8133 41.405 82.3333 41.925C82.8533 42.445 83.265 43.095 83.5683 43.8533C83.8717 44.6117 84.0233 45.4133 84.0233 46.3017C84.0017 46.7567 83.9583 47.1467 83.8933 47.45ZM76.8083 43.94C76.4617 44.2217 76.245 44.6117 76.1583 45.11H79.8417C79.7983 44.8717 79.7117 44.655 79.6033 44.46C79.495 44.265 79.365 44.0917 79.2133 43.9617C79.0617 43.8317 78.8883 43.7233 78.6933 43.6583C78.4983 43.5933 78.2817 43.55 78.0433 43.55C77.5667 43.5283 77.155 43.68 76.8083 43.94Z" fill="#C126CE"/>
<path d="M93.7733 40.3433C94.12 40.4083 94.4667 40.5167 94.77 40.6683C95.095 40.82 95.3767 41.015 95.615 41.275C95.8533 41.535 96.07 41.8383 96.2434 42.185C96.4167 42.5317 96.5684 42.965 96.655 43.4633C96.7417 43.9617 96.785 44.525 96.785 45.1533V52.3033H92.4733V46.1933C92.4733 45.6517 92.4083 45.2183 92.3 44.8933C92.1917 44.5683 92.0184 44.3733 91.8017 44.2433C91.585 44.1133 91.3034 44.07 90.935 44.07C90.3934 44.07 89.9817 44.265 89.6783 44.6333C89.375 45.0233 89.2233 45.5867 89.2233 46.3667V52.3033H84.9333V40.495H89.245V41.795H89.2667C89.7 41.2967 90.1983 40.9067 90.7833 40.6467C91.3683 40.3867 91.975 40.2567 92.625 40.2567C93.0367 40.2567 93.405 40.2783 93.7733 40.3433Z" fill="#C126CE"/>
<path d="M100.685 51.7833C99.7317 51.2633 98.995 50.5483 98.475 49.595C97.9333 48.6633 97.6733 47.6017 97.6733 46.3883C97.6733 45.1967 97.955 44.1133 98.4967 43.1817C99.0383 42.25 99.7967 41.5133 100.793 40.9933C101.79 40.4733 102.895 40.2133 104.152 40.2133C105.17 40.2133 106.123 40.43 107.055 40.8417C107.965 41.2533 108.723 41.86 109.308 42.64L106.448 45.0667C105.842 44.3517 105.127 44.005 104.26 44.005C103.588 44.005 103.047 44.2217 102.635 44.655C102.223 45.0883 102.007 45.63 102.007 46.3233C102.007 47.0167 102.223 47.58 102.657 48.0133C103.09 48.4467 103.632 48.6633 104.303 48.6633C105.17 48.6633 105.885 48.3383 106.427 47.71L109.352 50.2667C108.81 50.9383 108.073 51.48 107.12 51.8917C106.167 52.3033 105.083 52.52 103.848 52.52C102.678 52.5417 101.617 52.2817 100.685 51.7833Z" fill="#C126CE"/>
<path d="M121.767 40.495L115.7 57.07H111.518L113.512 51.4367L108.983 40.495H113.425L115.418 46.085H115.462L117.347 40.495H121.767Z" fill="#C126CE"/>
</svg>
