<svg width="297" height="305" viewBox="0 0 297 305" fill="none" xmlns="http://www.w3.org/2000/svg">
<path d="M237.069 183.544C236.066 182.473 235.049 181.412 234.008 180.369C216.295 162.64 194.587 150.364 170.917 144.375C195.942 131.887 213.175 106.005 213.175 76.1672C213.175 34.1683 179.038 0 137.078 0C95.1188 0 60.9813 34.1683 60.9813 76.1666C60.9813 106.005 78.2152 131.886 103.24 144.375C79.5698 150.363 57.8621 162.639 40.1491 180.369C14.2587 206.283 0 240.738 0 277.387C0 280.743 2.71748 283.463 6.06998 283.463H190.016C201.155 296.627 217.78 305 236.323 305C269.781 305 297 277.756 297 244.267C297 211.028 270.183 183.945 237.069 183.544ZM73.1213 76.1666C73.1213 40.8688 101.813 12.1512 137.078 12.1512C172.344 12.1512 201.035 40.8688 201.035 76.1666C201.035 111.464 172.344 140.183 137.078 140.183C101.813 140.183 73.1213 111.466 73.1213 76.1666ZM12.2858 271.312C15.4627 205.167 70.2223 152.334 137.078 152.334C169.63 152.334 199.31 164.864 221.568 185.354C195.218 191.968 175.647 215.872 175.647 244.267C175.647 253.979 177.939 263.163 182.007 271.312H12.2858V271.312ZM236.323 292.849C209.56 292.849 187.787 271.055 187.787 244.267C187.787 217.48 209.56 195.686 236.323 195.686C263.086 195.686 284.86 217.48 284.86 244.267C284.86 271.055 263.086 292.849 236.323 292.849Z" fill="white"/>
<line x1="239.254" y1="222.549" x2="239.254" y2="266.736" stroke="white" stroke-width="13" stroke-linecap="round"/>
<line x1="261.566" y1="244.944" x2="217.379" y2="244.944" stroke="white" stroke-width="13" stroke-linecap="round"/>
</svg>
