<svg width="703" height="261" viewBox="0 0 703 261" fill="none" xmlns="http://www.w3.org/2000/svg">
<path d="M215.095 165.651C198.672 149.249 178.514 137.935 156.537 132.496C179.792 121.159 195.851 97.2991 195.851 69.7629C195.851 31.2955 164.516 0 126 0C87.4839 0 56.1495 31.2955 56.1495 69.7629C56.1495 97.3001 72.208 121.159 95.4626 132.496C73.4852 137.935 53.3276 149.249 36.905 165.651C13.1064 189.419 0 221.02 0 254.633C0 257.597 2.40549 260 5.37333 260H246.627C249.594 260 252 257.598 252 254.633C252 221.02 238.894 189.419 215.095 165.651ZM66.8956 69.7624C66.8956 37.2131 93.4099 10.7321 126 10.7321C158.591 10.7321 185.105 37.2131 185.105 69.7624C185.105 102.312 158.591 128.793 126 128.793C93.4099 128.793 66.8956 102.311 66.8956 69.7624ZM10.8702 249.267C13.6845 188.276 64.2491 139.525 126 139.525C187.751 139.525 238.316 188.276 241.13 249.267H10.8702Z" fill="white"/>
<path d="M349.055 105.754C343.131 100.702 343.976 93.1382 350.956 88.8481C354.071 86.9294 357.883 86 361.677 86C366.375 86 371.044 87.436 374.321 90.2241L413.054 123.235C418.315 127.711 418.315 134.285 413.054 138.758L374.312 171.766C368.384 176.817 357.936 177.432 350.948 173.145C343.968 168.855 343.122 161.288 349.046 156.239L378.679 130.993L349.055 105.754ZM256.566 142.991L310.856 142.991L295.304 156.242C289.38 161.291 290.229 168.858 297.206 173.148C304.19 177.435 314.642 176.82 320.566 171.769L359.316 138.761C364.573 134.285 364.573 127.711 359.316 123.238L320.566 90.2271C317.289 87.43 312.62 86.003 307.927 86.003C304.132 86.003 300.321 86.9384 297.206 88.8511C290.229 93.1411 289.38 100.705 295.304 105.757L310.856 119.008L256.571 119.008C247.419 119.008 240 124.377 240 130.999C239.996 137.622 247.411 142.991 256.566 142.991Z" fill="white"/>
<circle cx="573.517" cy="130.623" r="124.482" stroke="white" stroke-width="10"/>
<circle cx="573.518" cy="130.624" r="114.325" stroke="white" stroke-width="3"/>
<path d="M569.052 61.5488V66.0665L550.516 70.474L547.993 71.025L548.541 73.5593L557.645 112.455L516.952 122.042L514.43 122.593L515.088 125.127L525.288 169.092L525.946 171.626L528.359 171.075L569.052 161.489V199.173H501.816V61.5488H569.052Z" fill="white"/>
<path d="M597.111 63.1245L606.742 104.19L649.749 94.1684L659.927 137.63L616.919 147.651L626.549 188.607L580.915 199.173L571.285 158.217L528.277 168.238L518.1 124.777L561.108 114.755L551.477 73.7992L597.111 63.1245Z" fill="white"/>
</svg>
