<svg width="192" height="225" viewBox="0 0 192 225" fill="none" xmlns="http://www.w3.org/2000/svg">
<path d="M191.768 204.309C191.604 203.657 175.72 138.625 173.48 116.965C170.111 84.3784 151.684 58.3603 126.209 46.7893L136.45 23.0367V21.3816C136.45 9.5902 126.856 0 115.066 0H74.7118C62.9183 0 53.3249 9.5902 53.3249 21.3816V23.0367L63.9367 47.6485C39.4219 59.6201 21.8049 85.1701 18.5189 116.965C16.2808 138.625 0.391684 203.657 0.231443 204.309C-0.805906 208.552 1.73897 212.846 5.96111 213.969C7.64258 214.416 47.7186 224.934 96.0027 224.934C143.61 224.934 184.301 214.423 186.01 213.977C190.246 212.868 192.81 208.563 191.768 204.309ZM74.7118 16.0399H115.066C117.569 16.0399 119.673 17.7667 120.251 20.0902L110.901 41.7796C106.083 40.7855 101.104 40.2637 96.0006 40.2637C90.175 40.2637 84.5171 40.9584 79.0762 42.2445L69.5272 20.0902C70.107 17.7667 72.2112 16.0399 74.7118 16.0399ZM96.0017 208.89C61.8693 208.89 31.3951 203.232 17.7135 200.254C22.0959 181.923 32.5874 136.911 34.4776 118.615C37.4642 89.7338 53.8056 67.7745 76.4354 59.7087L61.3855 78.3019L73.8558 88.3949L95.1762 62.0564L116.494 88.3949L128.964 78.3019L113.235 58.8727C137.084 66.2121 154.437 88.7428 157.522 118.616C159.415 136.907 169.898 181.894 174.282 200.236C160.494 203.214 129.782 208.89 96.0017 208.89Z" fill="white"/>
<path d="M94.8795 104.367V106.997L83.8352 109.563L82.3321 109.884L82.6589 111.359L88.083 134.003L63.8378 139.584L62.3347 139.905L62.7268 141.38L68.8045 166.975L69.1966 168.451L70.6343 168.13L94.8795 162.549V184.488H54.8193V104.367H94.8795Z" fill="white"/>
<path d="M111.758 105.421L117.413 129.287L142.668 123.463L148.644 148.721L123.39 154.545L129.045 178.347L102.247 184.488L96.5925 160.685L71.3377 166.509L65.3613 141.251L90.6161 135.427L84.9611 111.625L111.758 105.421Z" fill="white"/>
</svg>
