<svg width="53" height="42" viewBox="0 0 53 42" fill="none" xmlns="http://www.w3.org/2000/svg">
<path fill-rule="evenodd" clip-rule="evenodd" d="M14.9718 37.4447V39.6665V41.8883H14.0263V41.3488C13.7264 41.7489 13.2713 42 12.6527 42C11.4333 42 10.4773 41.0243 10.4773 39.6665C10.4773 38.3098 11.4333 37.333 12.6527 37.333C13.2713 37.333 13.7264 37.5841 14.0263 37.9842V37.4447H14.9718ZM12.7704 38.2438C11.9519 38.2438 11.451 38.8855 11.451 39.6665C11.451 40.4475 11.9519 41.0891 12.7704 41.0891C13.5524 41.0891 14.0804 40.4752 14.0804 39.6665C14.0804 38.8578 13.5524 38.2438 12.7704 38.2438ZM46.9249 39.6665C46.9249 38.8855 47.4258 38.2438 48.2444 38.2438C49.0275 38.2438 49.5544 38.8578 49.5544 39.6665C49.5544 40.4752 49.0275 41.0891 48.2444 41.0891C47.4258 41.0891 46.9249 40.4475 46.9249 39.6665ZM50.4468 35.6603V39.6665V41.8883H49.5002V41.3488C49.2003 41.7489 48.7452 42 48.1267 42C46.9072 42 45.9513 41.0243 45.9513 39.6665C45.9513 38.3098 46.9072 37.333 48.1267 37.333C48.7452 37.333 49.2003 37.5841 49.5002 37.9842V35.6603H50.4468ZM26.709 38.1981C27.3182 38.1981 27.7098 38.5886 27.8097 39.276H25.5531C25.6541 38.6344 26.0353 38.1981 26.709 38.1981ZM24.5617 39.6665C24.5617 38.2811 25.4531 37.333 26.7277 37.333C27.9461 37.333 28.7834 38.2811 28.7928 39.6665C28.7928 39.7963 28.7834 39.9176 28.774 40.0379H25.5448C25.6812 40.838 26.2362 41.1264 26.8454 41.1264C27.2817 41.1264 27.7462 40.9583 28.1107 40.6614L28.5741 41.3775C28.0461 41.8329 27.4463 42 26.7913 42C25.4896 42 24.5617 41.0796 24.5617 39.6665ZM38.1452 39.6665C38.1452 38.8855 38.6461 38.2438 39.4646 38.2438C40.2467 38.2438 40.7747 38.8578 40.7747 39.6665C40.7747 40.4752 40.2467 41.0891 39.4646 41.0891C38.6461 41.0891 38.1452 40.4475 38.1452 39.6665ZM41.6661 37.4447V39.6665V41.8883H40.7205V41.3488C40.4196 41.7489 39.9656 42 39.347 42C38.1276 42 37.1716 41.0243 37.1716 39.6665C37.1716 38.3098 38.1276 37.333 39.347 37.333C39.9656 37.333 40.4196 37.5841 40.7205 37.9842V37.4447H41.6661ZM32.8051 39.6665C32.8051 41.0147 33.7236 42 35.1252 42C35.7802 42 36.2166 41.851 36.6894 41.4701L36.2353 40.6891C35.8802 40.9498 35.5074 41.0892 35.0971 41.0892C34.3421 41.0796 33.7871 40.522 33.7871 39.6665C33.7871 38.811 34.3421 38.2534 35.0971 38.2439C35.5074 38.2439 35.8802 38.3832 36.2353 38.6439L36.6894 37.8629C36.2166 37.482 35.7802 37.333 35.1252 37.333C33.7236 37.333 32.8051 38.3183 32.8051 39.6665ZM43.8497 37.9842C44.0954 37.5937 44.4505 37.333 44.9962 37.333C45.1878 37.333 45.4606 37.3703 45.67 37.4543L45.3784 38.3652C45.1784 38.2811 44.9785 38.2534 44.7869 38.2534C44.1683 38.2534 43.859 38.662 43.859 39.3973V41.8883H42.9124V37.4448H43.8497V37.9842ZM19.6485 37.798C19.1934 37.4916 18.5665 37.333 17.8751 37.333C16.7733 37.333 16.0642 37.8725 16.0642 38.7557C16.0642 39.4803 16.5921 39.9272 17.5648 40.0666L18.0115 40.1315C18.5301 40.206 18.7748 40.3454 18.7748 40.5965C18.7748 40.9402 18.4291 41.136 17.7834 41.136C17.1284 41.136 16.6557 40.9221 16.337 40.671L15.8913 41.4233C16.4099 41.8138 17.0649 42 17.7741 42C19.03 42 19.7579 41.3956 19.7579 40.5497C19.7579 39.7687 19.1851 39.3601 18.2385 39.2207L17.7928 39.1547C17.3836 39.0994 17.0555 39.0164 17.0555 38.7184C17.0555 38.3928 17.3648 38.1981 17.8834 38.1981C18.4385 38.1981 18.9758 38.412 19.2393 38.579L19.6485 37.798ZM30.7037 37.9842C30.9484 37.5937 31.3035 37.333 31.8492 37.333C32.0408 37.333 32.3136 37.3703 32.5229 37.4543L32.2313 38.3652C32.0314 38.2811 31.8315 38.2534 31.6399 38.2534C31.0213 38.2534 30.712 38.662 30.712 39.3973V41.8883H29.7664V37.4448H30.7037V37.9842ZM23.7795 37.4447H22.2331V36.0966H21.2771V37.4447H20.3951V38.3279H21.2771V40.355C21.2771 41.386 21.6687 42 22.7871 42C23.1974 42 23.6702 41.8702 23.9701 41.6563L23.6972 40.8285C23.415 40.9955 23.1057 41.0796 22.86 41.0796C22.3872 41.0796 22.2331 40.7816 22.2331 40.3358V38.3279H23.7795V37.4447ZM9.64106 39.0994V41.8883H8.68509V39.4154C8.68509 38.662 8.37581 38.2439 7.73017 38.2439C7.10223 38.2439 6.6659 38.6535 6.6659 39.425V41.8883H5.70993V39.4154C5.70993 38.662 5.39232 38.2439 4.76438 38.2439C4.11769 38.2439 3.69907 38.6535 3.69907 39.425L3.69907 41.8883H2.74414L2.74414 37.4448H3.69074V37.9927C4.04584 37.4724 4.49987 37.333 4.96432 37.333C5.62871 37.333 6.10148 37.631 6.40139 38.1236C6.80232 37.5001 7.37506 37.3235 7.93011 37.333C8.98605 37.3426 9.64106 38.0491 9.64106 39.0994Z" fill="white"/>
<path d="M33.6652 29.8945H19.334V3.57812H33.6652V29.8945Z" fill="#FF5F00"/>
<path d="M20.244 16.737C20.244 11.3986 22.6902 6.64332 26.4995 3.57882C23.7138 1.33791 20.1982 0.000385284 16.3775 0.000385284C7.33221 0.000385284 0 7.49351 0 16.737C0 25.9805 7.33221 33.4736 16.3775 33.4736C20.1982 33.4736 23.7138 32.1361 26.4995 29.8952C22.6902 26.8307 20.244 22.0754 20.244 16.737Z" fill="#EB001B"/>
<path d="M53.0005 16.737C53.0005 25.9805 45.6683 33.4736 36.6231 33.4736C32.8023 33.4736 29.2867 32.1361 26.5 29.8952C30.3103 26.8307 32.7565 22.0754 32.7565 16.737C32.7565 11.3986 30.3103 6.64332 26.5 3.57882C29.2867 1.33791 32.8023 0.000385284 36.6231 0.000385284C45.6683 0.000385284 53.0005 7.49351 53.0005 16.737Z" fill="#F79E1B"/>
</svg>
