<?xml version="1.0" encoding="utf-8"?>
<!-- Generator: Adobe Illustrator 26.0.3, SVG Export Plug-In . SVG Version: 6.00 Build 0)  -->
<svg version="1.1" id="Слой_1" xmlns="http://www.w3.org/2000/svg" xmlns:xlink="http://www.w3.org/1999/xlink" x="0px" y="0px"
	 viewBox="0 0 140.6 129" style="enable-background:new 0 0 140.6 129;" xml:space="preserve">
<style type="text/css">
	.st0{display:none;}
	.st1{fill:none;stroke:#FFFFFF;stroke-width:7;stroke-linecap:round;stroke-linejoin:round;stroke-miterlimit:10;}
	.st2{fill:#FFFFFF;}
	.st3{fill:none;stroke:#FFFFFF;stroke-width:7;stroke-linecap:round;stroke-linejoin:round;}
	.st4{fill:#FFFFFF;stroke:#FFFFFF;stroke-width:6;stroke-linecap:round;stroke-linejoin:round;stroke-miterlimit:10;}
</style>
<rect class="st0" width="140.6" height="129"/>
<g>
	<g>
		<path class="st1" d="M116.8,30.5h5.1c2.8,0,5.1,2.3,5.1,5.1v61.7c0,2.8-2.3,5.1-5.1,5.1H15.4c-2.8,0-5.1-2.3-5.1-5.1V35.5
			c0-2.8,2.3-5.1,5.1-5.1h22.9"/>
		<rect x="58.5" y="102.3" class="st1" width="20.3" height="16.3"/>
		<line class="st1" x1="43.4" y1="118.6" x2="94" y2="118.6"/>
	</g>
	<line class="st1" x1="10.5" y1="88.2" x2="127" y2="88.2"/>
</g>
<g>
	<circle class="st2" cx="59.6" cy="36.9" r="4.4"/>
	<circle class="st2" cx="76.7" cy="36.9" r="4.4"/>
	<circle class="st2" cx="93.9" cy="36.9" r="4.4"/>
</g>
<path class="st3" d="M97.8,63.4h-49c-4.8,0-8.6-3.8-8.6-8.6v-36c0-4.6,3.8-8.4,8.4-8.4h56.3c4.6,0,8.4,3.8,8.4,8.4v36.4
	c0,4.6-3.7,8.3-8.3,8.3h-2.1H97.8z"/>
<polygon class="st4" points="106.9,63.4 96.3,73 96.3,63.4 "/>
</svg>
