<?xml version="1.0" encoding="UTF-8"?>
<!DOCTYPE svg PUBLIC "-//W3C//DTD SVG 1.1//EN" "http://www.w3.org/Graphics/SVG/1.1/DTD/svg11.dtd">
<svg xmlns="http://www.w3.org/2000/svg" version="1.1" width="1024px" height="1024px" style="shape-rendering:geometricPrecision; text-rendering:geometricPrecision; image-rendering:optimizeQuality; fill-rule:evenodd; clip-rule:evenodd" xmlns:xlink="http://www.w3.org/1999/xlink">
<g><path style="opacity:0.994" fill="#393C47" d="M 479.5,-0.5 C 500.833,-0.5 522.167,-0.5 543.5,-0.5C 719.679,15.3445 855.179,97.3445 950,245.5C 993.053,317.724 1017.55,395.724 1023.5,479.5C 1023.5,500.833 1023.5,522.167 1023.5,543.5C 1010.51,698.667 943.18,824.167 821.5,920C 738.815,981.845 645.815,1016.34 542.5,1023.5C 521.833,1023.5 501.167,1023.5 480.5,1023.5C 303.888,1007.99 168.054,925.988 73,777.5C 29.9468,705.276 5.44683,627.276 -0.5,543.5C -0.5,522.167 -0.5,500.833 -0.5,479.5C 15.3445,303.321 97.3445,167.821 245.5,73C 317.764,30.0778 395.764,5.57778 479.5,-0.5 Z M 219.5,305.5 C 277.168,305.333 334.834,305.5 392.5,306C 437.371,404.242 482.371,502.408 527.5,600.5C 567.623,502.459 606.957,404.126 645.5,305.5C 700.833,305.5 756.167,305.5 811.5,305.5C 811.665,308.518 811.498,311.518 811,314.5C 794,330.833 777,347.167 760,363.5C 759.138,365.087 758.471,366.754 758,368.5C 757.333,484.833 757.333,601.167 758,717.5C 758.471,719.246 759.138,720.913 760,722.5C 776.029,738.862 792.362,754.862 809,770.5C 809.498,773.817 809.665,777.15 809.5,780.5C 731.5,780.5 653.5,780.5 575.5,780.5C 575.335,777.482 575.502,774.482 576,771.5C 594,754.833 611.333,737.5 628,719.5C 628.667,625.5 628.667,531.5 628,437.5C 583.333,550.833 538.667,664.167 494,777.5C 491.106,778.78 487.939,779.446 484.5,779.5C 481.5,779.167 478.5,778.833 475.5,778.5C 423.333,664.833 371.167,551.167 319,437.5C 318.822,515.511 318.322,593.511 317.5,671.5C 317.92,679.261 320.42,686.261 325,692.5C 346.572,717.982 367.905,743.649 389,769.5C 389.498,772.817 389.665,776.15 389.5,779.5C 330.167,779.5 270.833,779.5 211.5,779.5C 211.335,776.482 211.502,773.482 212,770.5C 235.045,743.124 257.711,715.457 280,687.5C 281.399,684.637 282.399,681.637 283,678.5C 283.667,584.5 283.667,490.5 283,396.5C 282.434,392.035 280.767,388.035 278,384.5C 258.429,361.685 239.096,338.685 220,315.5C 219.502,312.183 219.335,308.85 219.5,305.5 Z"/></g>
</svg>
