<!-- icon666.com - MILLIONS vector ICONS FREE --><svg id="Menu_Bar" viewBox="0 0 512.6 512.6" xmlns="http://www.w3.org/2000/svg" data-name="Menu Bar"><path d="m256.3 0c-141.55 0-256.3 114.75-256.3 256.3s114.75 256.3 256.3 256.3 256.3-114.75 256.3-256.3-114.75-256.3-256.3-256.3zm-52.5 335.2a28.385 28.385 0 0 1 -28.36 28.4h-.06a28.387 28.387 0 0 1 -28.38-28.36v-1.54a28.385 28.385 0 0 1 28.36-28.4h.04a28.385 28.385 0 0 1 28.4 28.36zm0-78.1a28.385 28.385 0 0 1 -28.36 28.4h-.06a28.387 28.387 0 0 1 -28.38-28.36v-1.54a28.385 28.385 0 0 1 28.36-28.4h.04a28.385 28.385 0 0 1 28.4 28.36zm0-78.2a28.385 28.385 0 0 1 -28.36 28.4h-.06a28.387 28.387 0 0 1 -28.38-28.36v-1.54a28.385 28.385 0 0 1 28.36-28.4h.04a28.385 28.385 0 0 1 28.4 28.36zm80.9 156.3a28.385 28.385 0 0 1 -28.36 28.4h-.06a28.387 28.387 0 0 1 -28.38-28.36v-1.54a28.385 28.385 0 0 1 28.36-28.4h.04a28.385 28.385 0 0 1 28.4 28.36zm0-78.1a28.385 28.385 0 0 1 -28.36 28.4h-.06a28.387 28.387 0 0 1 -28.38-28.36v-1.54a28.385 28.385 0 0 1 28.36-28.4h.04a28.385 28.385 0 0 1 28.4 28.36zm0-78.2a28.385 28.385 0 0 1 -28.36 28.4h-.06a28.387 28.387 0 0 1 -28.38-28.36v-1.54a28.385 28.385 0 0 1 28.36-28.4h.04a28.385 28.385 0 0 1 28.4 28.36zm80.9 156.3a28.385 28.385 0 0 1 -28.36 28.4h-.06a28.387 28.387 0 0 1 -28.38-28.36v-1.54a28.385 28.385 0 0 1 28.36-28.4h.04a28.385 28.385 0 0 1 28.4 28.36zm0-78.1a28.385 28.385 0 0 1 -28.36 28.4h-.06a28.387 28.387 0 0 1 -28.38-28.36v-1.54a28.385 28.385 0 0 1 28.36-28.4h.04a28.385 28.385 0 0 1 28.4 28.36zm0-78.2a28.385 28.385 0 0 1 -28.36 28.4h-.06a28.387 28.387 0 0 1 -28.38-28.36v-1.54a28.385 28.385 0 0 1 28.36-28.4h.04a28.385 28.385 0 0 1 28.4 28.36z" fill="#000000" style="fill: rgb(255, 255, 255);"></path></svg>