<svg width="141" height="129" viewBox="0 0 141 129" fill="none" xmlns="http://www.w3.org/2000/svg">
<path d="M70.2984 4.5C35.7984 4.5 7.89844 31.4 7.89844 64.5C7.89844 97.6 35.7984 124.5 70.2984 124.5C104.798 124.5 132.698 97.6 132.698 64.5C132.698 31.4 104.798 4.5 70.2984 4.5ZM98.9984 58.6C97.1984 60.2 94.3984 60 92.7984 58.3L75.0984 39.3V104C75.0984 106.3 73.0984 108.2 70.6984 108.2C70.5984 108.2 70.4984 108.2 70.2984 108.2C70.0984 108.2 70.0984 108.2 69.8984 108.2C67.4984 108.2 65.4984 106.3 65.4984 104V39.3L47.8984 58.3C46.2984 60 43.4984 60.2 41.6984 58.6C39.8984 57 39.6984 54.4 41.3984 52.6L66.7984 25.4C67.6984 24.4 69.0984 23.9 70.4984 24C71.8984 23.9 73.1984 24.4 74.1984 25.4L99.4984 52.6C100.998 54.4 100.898 57 98.9984 58.6Z" fill="white"/>
</svg>
