<svg width="141" height="129" viewBox="0 0 141 129" fill="none" xmlns="http://www.w3.org/2000/svg">
<path d="M126.001 59.4305H75.3713V8.80047C75.3713 7.45582 74.8371 6.16625 73.8863 5.21544C72.9355 4.26463 71.6459 3.73047 70.3013 3.73047C68.9566 3.73047 67.667 4.26463 66.7162 5.21544C65.7654 6.16625 65.2313 7.45582 65.2313 8.80047V59.4305H14.6012C13.2566 59.4305 11.967 59.9646 11.0162 60.9154C10.0654 61.8662 9.53125 63.1558 9.53125 64.5005C9.53125 65.8451 10.0654 67.1347 11.0162 68.0855C11.967 69.0363 13.2566 69.5705 14.6012 69.5705H65.2313V120.2C65.2313 121.545 65.7654 122.835 66.7162 123.785C67.667 124.736 68.9566 125.27 70.3013 125.27C71.6459 125.27 72.9355 124.736 73.8863 123.785C74.8371 122.835 75.3713 121.545 75.3713 120.2V69.5705H126.001C127.346 69.5705 128.635 69.0363 129.586 68.0855C130.537 67.1347 131.071 65.8451 131.071 64.5005C131.071 63.1558 130.537 61.8662 129.586 60.9154C128.635 59.9646 127.346 59.4305 126.001 59.4305Z" fill="white"/>
</svg>
