<svg width="21" height="21" viewBox="0 0 21 21" fill="none" xmlns="http://www.w3.org/2000/svg">
<path d="M20.1106 7.64816C19.768 7.30735 19.214 7.30887 18.8732 7.65148L8.35453 18.227C6.98987 19.5917 4.77345 19.5917 3.40625 18.2251C2.04007 16.8583 2.04007 14.6419 3.40641 13.2755L14.2364 2.38864C15.0884 1.53669 16.4736 1.53669 17.328 2.39049C18.1822 3.2447 18.1822 4.62971 17.3278 5.48416L8.35617 14.4557C8.3556 14.4563 8.3551 14.457 8.35453 14.4575C8.01274 14.7974 7.46037 14.797 7.11927 14.4559C6.77761 14.1142 6.77761 13.5605 7.11927 13.2188L11.4498 8.88735C11.7915 8.5456 11.7914 7.99155 11.4497 7.64988C11.1079 7.30821 10.5539 7.30825 10.2122 7.65L5.88172 11.9814C4.85668 13.0064 4.85668 14.6682 5.8818 15.6933C6.90689 16.7184 8.56872 16.7184 9.59385 15.6933C9.59503 15.6921 9.59598 15.6909 9.59713 15.6897L18.5652 6.72155C20.1031 5.18368 20.1031 2.69061 18.5652 1.15273C17.0272 -0.384243 14.5343 -0.384243 12.9973 1.15273L2.1673 12.0397C0.119179 14.0878 0.119178 17.412 2.16878 19.4626C4.21973 21.5125 7.54396 21.5125 9.59368 19.4628L20.114 8.88563C20.4548 8.54298 20.4532 7.98896 20.1106 7.64816Z" fill="#ADBAD6"/>
</svg>
