<svg width="17" height="17" viewBox="0 0 17 17" fill="none" xmlns="http://www.w3.org/2000/svg">
<path d="M8.5 15.9375C6.52745 15.9375 4.63569 15.1539 3.24089 13.7591C1.84609 12.3643 1.0625 10.4725 1.0625 8.5C1.0625 6.52745 1.84609 4.63569 3.24089 3.24089C4.63569 1.84609 6.52745 1.0625 8.5 1.0625C10.4725 1.0625 12.3643 1.84609 13.7591 3.24089C15.1539 4.63569 15.9375 6.52745 15.9375 8.5C15.9375 10.4725 15.1539 12.3643 13.7591 13.7591C12.3643 15.1539 10.4725 15.9375 8.5 15.9375ZM8.5 17C10.7543 17 12.9163 16.1045 14.5104 14.5104C16.1045 12.9163 17 10.7543 17 8.5C17 6.24566 16.1045 4.08365 14.5104 2.48959C12.9163 0.895533 10.7543 0 8.5 0C6.24566 0 4.08365 0.895533 2.48959 2.48959C0.895533 4.08365 0 6.24566 0 8.5C0 10.7543 0.895533 12.9163 2.48959 14.5104C4.08365 16.1045 6.24566 17 8.5 17Z" fill="#ADBAD6"/>
<path d="M13.1017 10.0938C13.1949 10.2553 13.244 10.4385 13.244 10.625C13.244 10.8115 13.1949 10.9947 13.1017 11.1562C12.6355 11.9641 11.9647 12.635 11.1569 13.1013C10.3491 13.5676 9.43273 13.8129 8.49999 13.8125C7.56743 13.8127 6.65127 13.5673 5.84365 13.101C5.03604 12.6347 4.36546 11.964 3.89937 11.1562C3.80616 10.9948 3.75707 10.8117 3.75702 10.6253C3.75697 10.4389 3.80597 10.2557 3.89909 10.0942C3.99222 9.93273 4.12619 9.79859 4.28756 9.70526C4.44893 9.61192 4.63201 9.56269 4.81843 9.5625H12.1816C12.3681 9.5625 12.5513 9.6116 12.7128 9.70485C12.8743 9.79811 13.0084 9.93223 13.1017 10.0938ZM7.43749 6.90625C7.43749 7.786 6.96149 6.90625 6.37499 6.90625C5.78849 6.90625 5.31249 7.786 5.31249 6.90625C5.31249 6.0265 5.78849 5.3125 6.37499 5.3125C6.96149 5.3125 7.43749 6.0265 7.43749 6.90625ZM11.6875 6.90625C11.6875 7.786 11.2115 6.90625 10.625 6.90625C10.0385 6.90625 9.56249 7.786 9.56249 6.90625C9.56249 6.0265 10.0385 5.3125 10.625 5.3125C11.2115 5.3125 11.6875 6.0265 11.6875 6.90625Z" fill="#ADBAD6"/>
</svg>
