<svg width="21" height="17" viewBox="0 0 21 17" fill="none" xmlns="http://www.w3.org/2000/svg">
<path fill-rule="evenodd" clip-rule="evenodd" d="M14.6009 1.79233H20.2546L20.9999 2.53762V15.9528L20.2546 16.6981H0.877124L0.131836 15.9528V2.53762L0.877124 1.79233H6.53088L7.80234 0.519382L8.33001 0.301758H12.8017L13.3294 0.519382L14.6009 1.79233ZM1.62241 15.2075H19.5093V3.28291H14.2923L13.7647 3.06529L12.4932 1.79233H8.63856L7.3671 3.06529L6.83943 3.28291H1.62241V15.2075ZM3.85828 4.77349C3.66061 4.77349 3.47105 4.85201 3.33128 4.99178C3.19151 5.13155 3.11299 5.32111 3.11299 5.51878C3.11299 5.71644 3.19151 5.90601 3.33128 6.04577C3.47105 6.18554 3.66061 6.26406 3.85828 6.26406C4.05594 6.26406 4.24551 6.18554 4.38528 6.04577C4.52504 5.90601 4.60357 5.71644 4.60357 5.51878C4.60357 5.32111 4.52504 5.13155 4.38528 4.99178C4.24551 4.85201 4.05594 4.77349 3.85828 4.77349ZM10.5659 6.26406C11.3565 6.26406 12.1148 6.57815 12.6739 7.13722C13.2329 7.6963 13.547 8.45457 13.547 9.24522C13.547 10.0359 13.2329 10.7941 12.6739 11.3532C12.1148 11.9123 11.3565 12.2264 10.5659 12.2264C9.77522 12.2264 9.01695 11.9123 8.45788 11.3532C7.8988 10.7941 7.58472 10.0359 7.58472 9.24522C7.58472 8.45457 7.8988 7.6963 8.45788 7.13722C9.01695 6.57815 9.77522 6.26406 10.5659 6.26406ZM10.5659 4.77349C9.3799 4.77349 8.24249 5.24462 7.40388 6.08323C6.56527 6.92184 6.09414 8.05924 6.09414 9.24522C6.09414 10.4312 6.56527 11.5686 7.40388 12.4072C8.24249 13.2458 9.3799 13.7169 10.5659 13.7169C11.7519 13.7169 12.8893 13.2458 13.7279 12.4072C14.5665 11.5686 15.0376 10.4312 15.0376 9.24522C15.0376 8.05924 14.5665 6.92184 13.7279 6.08323C12.8893 5.24462 11.7519 4.77349 10.5659 4.77349Z" fill="#ADBAD6"/>
</svg>
