<svg width="35" height="31" viewBox="0 0 35 31" fill="none" xmlns="http://www.w3.org/2000/svg">
<path d="M20.7397 2.19679C18.5662 0.85626 15.9906 0.119141 13.3301 0.119141C6.08768 0.119141 0 5.51495 0 12.4238C0 14.8461 0.7525 17.1682 2.18189 19.1737L0.185117 25.4427C-0.0258399 26.1049 0.470176 26.7793 1.16231 26.7793C1.32057 26.7793 1.47984 26.7427 1.62682 26.6679L7.69932 23.5804C7.9452 23.6862 8.19417 23.7847 8.44566 23.8762C7.03972 21.6817 6.28906 19.1627 6.28906 16.5254C6.28906 8.6711 12.8979 2.63285 20.7397 2.19679Z" fill="url(#paint0_linear_284_393)"/>
<path d="M32.8181 23.2753C34.2475 21.2698 35 18.9477 35 16.5254C35 9.61399 28.9097 4.2207 21.6699 4.2207C14.4275 4.2207 8.33984 9.61651 8.33984 16.5254C8.33984 23.4368 14.4301 28.8301 21.6699 28.8301C23.6125 28.8301 25.5481 28.4342 27.3003 27.6818L33.3732 30.7695C33.7417 30.9569 34.1869 30.9046 34.5019 30.6368C34.817 30.3691 34.9405 29.9383 34.815 29.5443L32.8181 23.2753ZM17.5 17.5508C16.9337 17.5508 16.4746 17.0917 16.4746 16.5254C16.4746 15.9591 16.9337 15.5 17.5 15.5C18.0663 15.5 18.5254 15.9591 18.5254 16.5254C18.5254 17.0917 18.0663 17.5508 17.5 17.5508ZM21.6016 17.5508C21.0353 17.5508 20.5762 17.0917 20.5762 16.5254C20.5762 15.9591 21.0353 15.5 21.6016 15.5C22.1679 15.5 22.627 15.9591 22.627 16.5254C22.627 17.0917 22.1679 17.5508 21.6016 17.5508ZM25.7031 17.5508C25.1368 17.5508 24.6777 17.0917 24.6777 16.5254C24.6777 15.9591 25.1368 15.5 25.7031 15.5C26.2694 15.5 26.7285 15.9591 26.7285 16.5254C26.7285 17.0917 26.2694 17.5508 25.7031 17.5508Z" fill="url(#paint1_linear_284_393)"/>
<defs>
<linearGradient id="paint0_linear_284_393" x1="4.5" y1="4" x2="36" y2="34" gradientUnits="userSpaceOnUse">
<stop stop-color="#ADB6CE"/>
<stop offset="1" stop-color="#ADB6CE" stop-opacity="0"/>
</linearGradient>
<linearGradient id="paint1_linear_284_393" x1="4.5" y1="4" x2="36" y2="34" gradientUnits="userSpaceOnUse">
<stop stop-color="#ADB6CE"/>
<stop offset="1" stop-color="#ADB6CE" stop-opacity="0"/>
</linearGradient>
</defs>
</svg>
