<?xml version="1.0" encoding="utf-8"?>
<!-- Generator: Adobe Illustrator 25.4.1, SVG Export Plug-In . SVG Version: 6.00 Build 0)  -->
<svg version="1.1" id="Слой_1" xmlns="http://www.w3.org/2000/svg" xmlns:xlink="http://www.w3.org/1999/xlink" x="0px" y="0px"
	 viewBox="0 0 125 125" style="enable-background:new 0 0 125 125;" xml:space="preserve">
<style type="text/css">
	.st0{fill:none;stroke:#231F20;stroke-width:7;stroke-linecap:round;stroke-linejoin:round;}
	.st1{fill:#231F20;}
</style>
<path class="st0" d="M82.3,105.7c-7.1,3.9-15.1,6.1-23.8,6.1c-27.3,0-49.4-22.1-49.4-49.4s22.1-49.4,49.4-49.4s49.4,22.1,49.4,49.4
	c0,4.6-0.6,9.1-1.8,13.3"/>
<g>
	<path class="st1" d="M55.8,89C53.9,89,52,88.8,50,88.4c-1.9-0.3-3.7-0.7-5.3-1.2c-1.6-0.5-3-1.1-4.1-1.7c-1.1-0.6-1.9-1.3-2.2-1.9
		c-0.4-0.7-0.6-1.4-0.6-2.1c0-0.6,0.1-1.1,0.3-1.7c0.2-0.5,0.5-1,0.8-1.4c0.4-0.4,0.8-0.8,1.3-1c0.5-0.3,1.1-0.4,1.8-0.4
		c0.7,0,1.5,0.1,2.2,0.4c0.7,0.3,1.6,0.5,2.5,0.8c1.5,0.5,3.2,0.8,5.1,1.2c1.9,0.3,3.9,0.5,6.1,0.5c1.1,0,2.1-0.1,3.2-0.3
		s2.1-0.6,2.9-1c0.9-0.5,1.6-1.1,2.1-1.8s0.8-1.6,0.8-2.7c0-0.9-0.2-1.7-0.6-2.4s-1-1.3-1.6-1.8c-0.7-0.5-1.5-0.9-2.4-1.3
		c-0.9-0.4-1.9-0.7-3-1.1l-2.1-0.6c-0.5-0.1-1-0.3-1.5-0.4s-1-0.3-1.5-0.5l-3.1-0.9c-0.8-0.3-1.6-0.5-2.4-0.8
		c-0.7-0.3-1.3-0.5-1.8-0.6c-3.2-1.2-5.6-2.8-7.3-4.9c-1.6-2.1-2.4-4.9-2.4-8.2c0-2,0.4-3.9,1.2-5.7c0.8-1.8,2-3.3,3.6-4.7
		c1.6-1.3,3.5-2.4,5.8-3.3c2.3-0.8,4.9-1.4,7.9-1.6v-2.7c0-0.9,0.2-1.6,0.7-2.1c0.5-0.5,1-0.7,1.7-0.7c0.6,0,1.2,0.2,1.7,0.6
		c0.5,0.4,0.7,1,0.7,1.8V35c1.9,0.1,3.8,0.3,5.7,0.5c1.9,0.2,3.7,0.6,5.3,1.1c1.6,0.5,2.9,1.2,3.9,2.1s1.5,2,1.5,3.3
		c0,1.1-0.4,2-1.2,2.8c-0.8,0.8-1.8,1.1-3.1,1.1c-0.1,0-0.2,0-0.4,0s-0.3,0-0.4,0c-0.7-0.1-1.3-0.2-1.9-0.4
		c-0.6-0.1-1.3-0.3-2.1-0.4c-0.7-0.1-1.6-0.3-2.6-0.4c-1-0.1-2.1-0.3-3.5-0.4c-0.6,0-1.1-0.1-1.7-0.1c-0.6,0-1.1-0.1-1.7-0.1
		c-1.1,0-2.1,0.1-3.2,0.3c-1.1,0.2-2,0.5-2.8,0.9c-0.8,0.4-1.5,0.9-2,1.6c-0.5,0.6-0.8,1.4-0.8,2.3c0,1.1,0.3,2,0.8,2.7
		c0.5,0.7,1.3,1.4,2.1,1.9c0.9,0.5,1.9,1,3,1.4c1.1,0.4,2.2,0.7,3.4,1l3.6,1c2.5,0.8,4.7,1.6,6.8,2.4c2.1,0.8,3.9,1.8,5.4,2.9
		c1.5,1.1,2.7,2.5,3.5,4.1c0.8,1.6,1.3,3.6,1.3,6c0,2.4-0.4,4.6-1.3,6.5c-0.9,1.9-2.2,3.6-3.9,5c-1.7,1.4-3.7,2.5-6,3.4
		c-2.4,0.8-5,1.4-7.9,1.5v3c0,0.4,0,0.8-0.1,1.2c-0.1,0.4-0.2,0.7-0.4,1s-0.4,0.5-0.7,0.7s-0.7,0.3-1.2,0.3c-0.6,0-1.2-0.2-1.7-0.6
		c-0.5-0.4-0.7-1-0.7-1.8V89z"/>
</g>
<g>
	<polygon class="st0" points="103.8,104.2 92.3,114.4 92.1,76.5 119.1,102.9 	"/>
</g>
</svg>
