<svg width="38" height="38" viewBox="0 0 38 38" fill="none" xmlns="http://www.w3.org/2000/svg">
<g clip-path="url(#clip0_221:2142)">
<path d="M18.6085 17.8156C18.8539 17.9066 19.1286 17.913 19.3913 17.8156L33.474 12.5347V24.7097C33.8316 24.6197 34.2022 24.5667 34.5873 24.5667C34.9725 24.5667 35.3431 24.6197 35.7007 24.7097V11.6996L37.2797 11.1352C38.239 10.7746 38.2408 9.41112 37.2797 9.04979L19.3913 2.36946C19.139 2.27594 18.8607 2.27594 18.6085 2.36946L0.72002 9.04979C-0.239201 9.41038 -0.241056 10.7739 0.72002 11.1352L18.6085 17.8156Z" fill="white"/>
<path d="M34.5873 26.7935C32.6835 26.7935 31.2471 29.1866 31.2471 32.3604V34.5872C31.2471 35.2026 31.7451 35.7006 32.3605 35.7006H36.8141C37.4295 35.7006 37.9275 35.2026 37.9275 34.5872V32.3604C37.9275 29.1866 36.4912 26.7935 34.5873 26.7935Z" fill="white"/>
<path d="M30.5156 16.0224L20.173 19.901C19.3983 20.1872 18.5791 20.1796 17.8342 19.9032L7.484 16.0222C6.55529 19.4258 6.79147 21.6594 6.7525 22.3398C6.7525 23.1274 7.55303 23.6652 8.27799 23.3738C8.30412 23.364 10.9071 22.3398 13.4328 22.3398C15.7825 22.3398 18.281 24.3034 18.3061 24.3241C18.7042 24.6409 19.2837 24.6513 19.6956 24.323C20.385 23.7706 22.6041 22.3397 24.5667 22.3397C27.0925 22.3397 29.6955 23.364 29.7215 23.3738C30.4448 23.6644 31.247 23.1288 31.247 22.3397C31.2097 21.6869 31.4388 19.4055 30.5156 16.0224Z" fill="white"/>
</g>
<defs>
<clipPath id="clip0_221:2142">
<rect width="38" height="38" fill="white"/>
</clipPath>
</defs>
</svg>
