<svg width="126" height="109" viewBox="0 0 126 109" fill="none" xmlns="http://www.w3.org/2000/svg">
<path d="M94.6633 72.1503C92.7125 72.1503 91.1289 73.7333 91.1289 75.6847V96.9796C91.1289 99.7083 88.9091 101.928 86.1804 101.928H12.0174C9.28876 101.928 7.06907 99.7083 7.06907 96.9796V19.997C8.58187 20.5965 10.2502 20.9528 12.0174 20.9528H86.1835C88.9122 20.9528 91.132 23.1725 91.132 25.9011V39.98C91.132 41.9311 92.715 43.5145 94.6664 43.5145C96.6172 43.5145 98.2008 41.9311 98.2008 39.98V25.9011C98.2008 19.276 92.8113 13.8837 86.1835 13.8837H85.089V10.4764C85.089 4.70236 79.6995 0 73.0717 0H12.0174C5.3923 0 0 4.69953 0 10.4764C0 10.7705 0.0735205 11.0476 0.0989693 11.3332C0.0735205 11.5028 0 11.6527 0 11.828V96.982C0 103.61 5.3923 109 12.0174 109H86.1835C92.8113 109 98.2008 103.61 98.2008 96.982V75.6872C98.1977 73.7333 96.6172 72.1503 94.6633 72.1503ZM12.0174 7.07193H73.0717C75.7097 7.07193 78.0202 8.66388 78.0202 10.4792V13.8865H12.0174C9.3821 13.8865 7.06907 12.2946 7.06907 10.4792C7.06907 8.66388 9.3821 7.07193 12.0174 7.07193ZM122.974 48.0925L106.056 40.6615C104.263 39.8754 102.185 40.6869 101.399 42.4768C100.616 44.2638 101.427 46.3478 103.214 47.1339L111.137 50.6119C98.1978 54.6243 72.865 61.4729 57.3699 59.0354C55.4414 58.7187 53.6317 60.0477 53.3292 61.9763C53.0266 63.9049 54.3414 65.7144 56.2728 66.0167C58.863 66.4269 61.6651 66.6077 64.6085 66.6077C82.1117 66.6077 104.503 60.1891 115.328 56.7224L110.891 66.8255C110.108 68.6152 110.92 70.6992 112.707 71.4827C113.17 71.6863 113.651 71.7795 114.126 71.7795C115.486 71.7795 116.781 70.9904 117.367 69.6671L124.798 52.7467C125.573 50.9653 124.761 48.8785 122.974 48.0925Z" fill="black"/>
</svg>
