<svg width="20" height="20" viewBox="0 0 20 20" fill="none" xmlns="http://www.w3.org/2000/svg">
<path d="M13.712 5.64062H8.74501C8.30724 5.64062 7.95239 5.99543 7.95239 6.43324C7.95239 6.87102 8.3072 7.22586 8.74501 7.22586H13.712C14.15 7.22586 14.5046 6.87105 14.5046 6.43324C14.5046 5.99543 14.1498 5.64062 13.712 5.64062Z" fill="#AFB0C0"/>
<path d="M15.6142 9.47168H8.74501C8.30724 9.47168 7.95239 9.82649 7.95239 10.2643C7.95239 10.7021 8.3072 11.0569 8.74501 11.0569H15.6142C16.052 11.0569 16.4068 10.7021 16.4068 10.2643C16.4068 9.82649 16.052 9.47168 15.6142 9.47168Z" fill="#AFB0C0"/>
<path d="M19.2074 0.673828H5.17832C4.74055 0.673828 4.3857 1.02863 4.3857 1.46645V8.94332H2.98547C1.33922 8.94332 0 10.2828 0 11.9288V16.3409C0 17.9872 1.33922 19.3264 2.98547 19.3264C3.1202 19.3264 3.25285 19.3174 3.38258 19.3H16.4597C18.4116 19.3 20 17.7119 20 15.7597V1.46645C20 1.02863 19.6452 0.673828 19.2074 0.673828ZM4.38574 16.3409C4.38574 17.0202 3.89934 17.5882 3.25656 17.7148H2.98551V17.7412C2.21324 17.7412 1.58523 17.1129 1.58523 16.3409V11.9288C1.58523 11.1568 2.21352 10.5285 2.98551 10.5285H4.38578V16.3409H4.38574ZM18.4148 15.7597C18.4148 16.8194 17.5197 17.7148 16.4597 17.7148H5.63566C5.84992 17.3034 5.97094 16.836 5.97094 16.3409V2.25902H18.4148V15.7597Z" fill="#AFB0C0"/>
<path d="M13.712 13.0649H8.74501C8.30724 13.0649 7.95239 13.4197 7.95239 13.8576C7.95239 14.2953 8.3072 14.6502 8.74501 14.6502H13.712C14.15 14.6502 14.5046 14.2954 14.5046 13.8576C14.5046 13.4197 14.1498 13.0649 13.712 13.0649Z" fill="#AFB0C0"/>
</svg>
