<svg width="50" height="50" viewBox="0 0 50 50" fill="none" xmlns="http://www.w3.org/2000/svg">
<path d="M38.4619 47.23H9.61485C9.61485 47.23 1.92285 47.322 1.92285 39.484C1.92285 31.644 1.92285 3.76904 1.92285 3.76904" stroke="white" stroke-width="3" stroke-miterlimit="10" stroke-linejoin="round"/>
<path d="M48.0769 39.539C48.0769 47.234 41.3848 47.23 41.3848 47.23C41.3848 47.23 33.6929 47.203 33.6929 39.484C33.6929 31.765 33.6929 3.76904 33.6929 3.76904H1.92285C1.92285 3.76904 1.92285 31.644 1.92285 39.484C1.92285 47.322 9.61485 47.23 9.61485 47.23H40.3848" stroke="white" stroke-width="3" stroke-miterlimit="10" stroke-linejoin="round"/>
<path d="M40.3848 38.6151V14.3851C40.3848 14.3851 40.4748 10.5391 44.2308 10.5391C47.9868 10.5391 48.0778 14.4391 48.0778 14.4391V39.5391" stroke="white" stroke-width="3" stroke-miterlimit="10" stroke-linecap="round" stroke-linejoin="round"/>
<path d="M44.2299 10.4951H34.7559" stroke="white" stroke-width="3" stroke-miterlimit="10" stroke-linejoin="round"/>
<path d="M19.6111 19.5H29.3889C29.9058 19.5 30.5 19.1407 30.5 18.5C30.5 17.8593 29.9058 17.5 29.3889 17.5H19.6111C19.098 17.5 18.5 17.8582 18.5 18.5C18.5 19.1418 19.098 19.5 19.6111 19.5Z" fill="white" stroke="white"/>
<path d="M19.6111 12.5H29.3889C29.9058 12.5 30.5 12.1407 30.5 11.5C30.5 10.8593 29.9058 10.5 29.3889 10.5H19.6111C19.098 10.5 18.5 10.8582 18.5 11.5C18.5 12.1418 19.098 12.5 19.6111 12.5Z" fill="white" stroke="white"/>
<path d="M15.4444 39.5H6.55556C6.02292 39.5 5.5 39.9012 5.5 40.5C5.5 41.102 6.02428 41.5 6.55556 41.5H15.4444C15.9739 41.5 16.5 41.1026 16.5 40.5C16.5 39.9012 15.9771 39.5 15.4444 39.5Z" fill="white" stroke="white"/>
<path d="M15.4444 32.5H6.55556C6.02292 32.5 5.5 32.9012 5.5 33.5C5.5 34.102 6.02428 34.5 6.55556 34.5H15.4444C15.9739 34.5 16.5 34.1026 16.5 33.5C16.5 32.9012 15.9771 32.5 15.4444 32.5Z" fill="white" stroke="white"/>
<path d="M29.4444 39.5H20.5556C20.0211 39.5 19.5 39.9018 19.5 40.5C19.5 41.1014 20.0225 41.5 20.5556 41.5H29.4444C29.9739 41.5 30.5 41.1026 30.5 40.5C30.5 39.9006 29.9753 39.5 29.4444 39.5Z" fill="white" stroke="white"/>
<path d="M29.4444 32.5H20.5556C20.0211 32.5 19.5 32.9018 19.5 33.5C19.5 34.1014 20.0225 34.5 20.5556 34.5H29.4444C29.9739 34.5 30.5 34.1026 30.5 33.5C30.5 32.9006 29.9753 32.5 29.4444 32.5Z" fill="white" stroke="white"/>
<path d="M29.4 25.5H6.6C6.08189 25.5 5.5 25.8664 5.5 26.5C5.5 27.1336 6.08189 27.5 6.6 27.5H29.4C29.9162 27.5 30.5 27.1342 30.5 26.5C30.5 25.8658 29.9162 25.5 29.4 25.5Z" fill="white" stroke="white"/>
<path fill-rule="evenodd" clip-rule="evenodd" d="M7.22222 21H15.7778C16.4537 21 17 20.4037 17 19.6661V10.3339C17 9.59627 16.4537 9 15.7778 9H7.22222C6.54633 9 6 9.59627 6 10.3339V19.6661C6 20.4024 6.54633 21 7.22222 21ZM8.44444 11.6625H14.5556V18.3321H8.44444V11.6625Z" fill="white"/>
</svg>
