<?xml version="1.0" encoding="utf-8"?>
<!-- Generator: Adobe Illustrator 26.0.3, SVG Export Plug-In . SVG Version: 6.00 Build 0)  -->
<svg version="1.1" id="Слой_1" xmlns="http://www.w3.org/2000/svg" xmlns:xlink="http://www.w3.org/1999/xlink" x="0px" y="0px"
	 viewBox="0 0 140.6 129" style="enable-background:new 0 0 140.6 129;" xml:space="preserve">
<style type="text/css">
	.st0{fill:none;}
	.st1{fill:#000000;}
	.st2{fill:url(#SVGID_00000086663925612190240440000017619787176782021019_);}
</style>
<rect x="26.3" y="54.2" class="st0" width="87.4" height="22.8"/>
<linearGradient id="SVGID_1_" gradientUnits="userSpaceOnUse" x1="28.3823" y1="65.7405" x2="109.4717" y2="65.7405">
	<stop  offset="0" style="stop-color:#FFA0AF"/>
	<stop  offset="9.244496e-02" style="stop-color:#F293B4"/>
	<stop  offset="0.5171" style="stop-color:#B85AC8"/>
	<stop  offset="0.8319" style="stop-color:#9536D5"/>
	<stop  offset="1" style="stop-color:#8729DA"/>
</linearGradient>
<path class="st1" d="M40.9,75.9l-8-13.3h-0.1L33,75.9h-4.6V55.6h5.4l7.9,13.3h0.1l-0.1-13.3h4.6v20.4H40.9z M50.4,75.9V55.6h13.3
	v4.1H55v3.9h8.2v3.9H55v4.2h9.2v4.2H50.4z M88.3,75.9h-4.7l-3.9-13.8h-0.1l-3.9,13.8H71l-5.6-20.4h5.1l3.1,13.6h0.1l3.5-13.6h5
	l3.5,13.6h0.1L89,55.6h5L88.3,75.9z M106.4,60.8c-0.4-0.5-0.9-1-1.6-1.3s-1.3-0.5-1.9-0.5c-0.3,0-0.6,0-1,0.1
	c-0.3,0.1-0.6,0.2-0.9,0.3c-0.3,0.2-0.5,0.4-0.7,0.6c-0.2,0.3-0.3,0.6-0.3,1c0,0.3,0.1,0.6,0.2,0.9c0.1,0.2,0.3,0.4,0.6,0.6
	c0.3,0.2,0.6,0.3,1,0.5c0.4,0.1,0.8,0.3,1.3,0.4c0.7,0.2,1.4,0.5,2.1,0.8c0.7,0.3,1.4,0.6,2,1.1c0.6,0.5,1.1,1,1.5,1.7
	c0.4,0.7,0.6,1.5,0.6,2.5c0,1.2-0.2,2.2-0.6,3s-1,1.6-1.7,2.1s-1.5,1-2.4,1.2c-0.9,0.3-1.9,0.4-2.8,0.4c-1.4,0-2.8-0.3-4.1-0.8
	s-2.4-1.2-3.3-2.2l3.1-3.3c0.5,0.6,1.1,1.1,1.9,1.5s1.6,0.6,2.4,0.6c0.4,0,0.7,0,1-0.1c0.3-0.1,0.6-0.2,0.9-0.4
	c0.3-0.2,0.5-0.4,0.6-0.7c0.1-0.3,0.2-0.6,0.2-1c0-0.4-0.1-0.7-0.3-1c-0.2-0.3-0.5-0.5-0.8-0.7c-0.3-0.2-0.8-0.4-1.3-0.6
	c-0.5-0.2-1.1-0.4-1.7-0.6c-0.6-0.2-1.3-0.5-1.9-0.7c-0.6-0.3-1.1-0.7-1.6-1.1c-0.5-0.5-0.9-1-1.1-1.6c-0.3-0.6-0.4-1.4-0.4-2.3
	c0-1.1,0.2-2.1,0.7-2.9c0.4-0.8,1-1.5,1.8-2c0.7-0.5,1.5-0.9,2.5-1.1c0.9-0.2,1.8-0.4,2.8-0.4c1.1,0,2.3,0.2,3.4,0.6s2.2,1,3.1,1.9
	L106.4,60.8z"/>
<linearGradient id="SVGID_00000078029815398777908750000017405680818158910605_" gradientUnits="userSpaceOnUse" x1="12.2998" y1="64.5002" x2="127.2998" y2="64.5002">
	<stop  offset="0" style="stop-color:#FFA0AF"/>
	<stop  offset="9.244496e-02" style="stop-color:#F293B4"/>
	<stop  offset="0.5171" style="stop-color:#B85AC8"/>
	<stop  offset="0.8319" style="stop-color:#9536D5"/>
	<stop  offset="1" style="stop-color:#8729DA"/>
</linearGradient>
<path style="fill:#000000;" d="M69.8,3.1c-31.7,0-57.5,27.5-57.5,61.4
	c0,33.9,25.8,61.4,57.5,61.4c31.7,0,57.5-27.5,57.5-61.4C127.3,30.6,101.5,3.1,69.8,3.1z M117.1,81.8H22.7c-0.3,0-0.5,0-0.7,0.1
	c-1.7-5.5-2.7-11.3-2.7-17.4c0-6.1,0.9-11.9,2.6-17.4c0.2,0,0.4,0.1,0.7,0.1H96c0,0,0,0,0,0c0,0,0,0,0,0h21c0.2,0,0.4,0,0.7-0.1
	c1.7,5.5,2.6,11.3,2.6,17.4c0,6.1-0.9,11.9-2.6,17.4C117.5,81.8,117.3,81.8,117.1,81.8z M115,40.2h-16c-2-10.8-5.8-19.9-10.6-26.3
	C99.9,18.8,109.4,28.3,115,40.2z M91.8,40.2H73.3V10.7C81.5,13.2,88.6,24.5,91.8,40.2z M66.3,10.8v29.4H48
	C51.2,24.6,58.2,13.4,66.3,10.8z M51.6,13.8c-4.9,6.4-8.7,15.5-10.7,26.4H24.6C30.2,28.2,39.9,18.7,51.6,13.8z M24.6,88.8H41
	c2.1,10.9,5.9,20,10.8,26.5C39.9,110.4,30.3,100.9,24.6,88.8z M48.1,88.8h18.3v29.4C58.3,115.6,51.3,104.4,48.1,88.8z M73.4,118.3
	V88.8h18.5C88.7,104.5,81.6,115.8,73.4,118.3z M88.4,115c4.8-6.4,8.6-15.5,10.6-26.2H115C109.4,100.7,100,110.1,88.4,115z"/>
</svg>
