<svg width="123" height="109" viewBox="0 0 123 109" fill="none" xmlns="http://www.w3.org/2000/svg">
<path d="M28.8 53.3V91.2C28.8 97.7 23.5 103 17 103H15.8C9.3 103 4 97.7 4 91.2V53.3H28.8Z" stroke="black" stroke-width="7" stroke-miterlimit="10" stroke-linecap="round" stroke-linejoin="round"/>
<path d="M31.3 103H103.4H104C110.5 103 115.8 97.7 115.8 91.2V90.6V23.3C115.8 22 114.3 21 113.3 21H30.7001C29.7001 21 28.8 22 28.8 23.3V88.1" stroke="black" stroke-width="7" stroke-miterlimit="10" stroke-linecap="round" stroke-linejoin="round"/>
<path d="M31.3001 103H16.4001" stroke="black" stroke-width="7" stroke-miterlimit="10" stroke-linecap="round" stroke-linejoin="round"/>
<path d="M80.5 90V70.9C80.5 67.5 77.5002 64.8 73.9002 64.8H49.4001C45.7001 64.8 42.8 67.5 42.8 70.9V90" stroke="black" stroke-width="7" stroke-linecap="round" stroke-linejoin="round"/>
<path d="M61.6001 37.3C67.4001 37.3 72.1001 41.7001 72.1001 47.2001C72.1001 52.7001 67.4001 57.1 61.6001 57.1C55.8001 57.1 51.1001 52.7001 51.1001 47.2001C51.1001 41.7001 55.8001 37.3 61.6001 37.3Z" stroke="black" stroke-width="7" stroke-linecap="round" stroke-linejoin="round"/>
<path d="M101.8 75.1V60.6C101.8 58 99.4999 56 96.7999 56H78.2" stroke="black" stroke-width="6" stroke-linecap="round" stroke-linejoin="round"/>
<path d="M88.5 34C92.9 34 96.5 37.3 96.5 41.5C96.5 45.7 92.9 49 88.5 49C84.1 49 80.5 45.7 80.5 41.5C80.5 37.3 84.1 34 88.5 34Z" stroke="black" stroke-width="6" stroke-linecap="round" stroke-linejoin="round"/>
</svg>
