<?xml version="1.0" encoding="utf-8"?>
<!-- Generator: Adobe Illustrator 26.0.3, SVG Export Plug-In . SVG Version: 6.00 Build 0)  -->
<svg version="1.1" id="Слой_1" xmlns="http://www.w3.org/2000/svg" xmlns:xlink="http://www.w3.org/1999/xlink" x="0px" y="0px"
	 viewBox="0 0 140.6 129" style="enable-background:new 0 0 140.6 129;" xml:space="preserve">
<style type="text/css">
	.st0{fill:none;stroke:#000000;stroke-width:7;stroke-linecap:round;stroke-linejoin:round;stroke-miterlimit:10;}
	.st1{fill:none;}
	.st2{font-family:'AvenirNext-Bold';}
	.st3{font-size:28.7684px;}
</style>
<path class="st0" d="M22.1,85.3c6.1,21.4,25.2,37.1,48,37.1c22.7,0,41.9-15.6,48-37.1"/>
<path class="st0" d="M43.9,85.3c3.3,21.4,13.7,37,26.1,37s22.8-15.6,26.1-37"/>
<line class="st0" x1="22.7" y1="85.3" x2="117.1" y2="85.3"/>
<line class="st0" x1="69.9" y1="85.3" x2="69.9" y2="119.4"/>
<rect x="26.3" y="54.2" class="st1" width="87.4" height="22.8"/>
<text transform="matrix(0.9703 0 0 1 26.3447 75.9244)" class="st2 st3">NEWS</text>
<path class="st0" d="M22,43.7C28,22.3,47.2,6.6,69.9,6.6c22.7,0,41.9,15.6,48,37.1"/>
<path class="st0" d="M43.8,43.7c3.3-21.4,13.7-37,26.1-37c12.4,0,22.8,15.6,26.1,37"/>
<line class="st0" x1="22.6" y1="43.7" x2="117" y2="43.7"/>
<line class="st0" x1="69.8" y1="43.7" x2="69.8" y2="9.6"/>
<ellipse class="st0" cx="69.8" cy="64.5" rx="54" ry="57.9"/>
</svg>
