<svg width="101" height="123" viewBox="0 0 101 123" fill="none" xmlns="http://www.w3.org/2000/svg">
<path d="M96.8 118.6H4L12.2 23.1001H88.6L96.8 118.6Z" stroke="black" stroke-width="7" stroke-miterlimit="10" stroke-linecap="round" stroke-linejoin="round"/>
<path d="M31.9 40.9001C32.9493 40.9001 33.8 40.0494 33.8 39.0001C33.8 37.9508 32.9493 37.1001 31.9 37.1001C30.8507 37.1001 30 37.9508 30 39.0001C30 40.0494 30.8507 40.9001 31.9 40.9001Z" stroke="black" stroke-width="7" stroke-miterlimit="10" stroke-linecap="round" stroke-linejoin="round"/>
<path d="M68.9 40.9001C69.9493 40.9001 70.8 40.0494 70.8 39.0001C70.8 37.9508 69.9493 37.1001 68.9 37.1001C67.8507 37.1001 67 37.9508 67 39.0001C67 40.0494 67.8507 40.9001 68.9 40.9001Z" stroke="black" stroke-width="7" stroke-miterlimit="10" stroke-linecap="round" stroke-linejoin="round"/>
<path d="M31.2998 39.5V22.5C31.2998 12.3 39.5998 4 49.7998 4H51.0998C61.2998 4 69.5998 12.3 69.5998 22.5V39.5" stroke="black" stroke-width="7" stroke-miterlimit="10" stroke-linecap="round" stroke-linejoin="round"/>
<path d="M80.2006 59.2002H20.6006V98.7002H80.2006V59.2002Z" stroke="black" stroke-width="5" stroke-miterlimit="10" stroke-linecap="round" stroke-linejoin="round"/>
<path d="M20.6006 89.4002L41.4006 74.7002L61.4006 89.4002" stroke="black" stroke-width="5" stroke-miterlimit="10" stroke-linecap="round" stroke-linejoin="round"/>
<path d="M54.2002 84.1004L65.2002 76.4004L80.2002 87.4004" stroke="black" stroke-width="5" stroke-miterlimit="10" stroke-linecap="round" stroke-linejoin="round"/>
<path d="M53.6006 74.8003C56.362 74.8003 58.6006 72.5617 58.6006 69.8003C58.6006 67.0389 56.362 64.8003 53.6006 64.8003C50.8392 64.8003 48.6006 67.0389 48.6006 69.8003C48.6006 72.5617 50.8392 74.8003 53.6006 74.8003Z" stroke="black" stroke-width="5" stroke-miterlimit="10" stroke-linecap="round" stroke-linejoin="round"/>
</svg>
