<?xml version="1.0" encoding="utf-8"?>
<!-- Generator: Adobe Illustrator 26.0.3, SVG Export Plug-In . SVG Version: 6.00 Build 0)  -->
<svg version="1.1" id="Слой_1" xmlns="http://www.w3.org/2000/svg" xmlns:xlink="http://www.w3.org/1999/xlink" x="0px" y="0px"
	 viewBox="0 0 125 125" style="enable-background:new 0 0 125 125;" xml:space="preserve">
<style type="text/css">
	.st0{fill:none;stroke:#FFFFFF;stroke-width:4;stroke-linecap:round;stroke-linejoin:round;}
	.st1{fill:none;stroke:#000000;stroke-width:7;stroke-linecap:round;stroke-linejoin:round;}
</style>
<path class="st1" d="M10.1,12.6v100.5c0,3.7,2,6.7,4.6,6.7h84.8c1.1,0,2.2-0.6,3.1-1.7l12.7-16.9c1-1.3,1.5-3.1,1.5-5V12.6
	c0-3.7-2-6.7-4.6-6.7H14.6C12.1,5.9,10.1,8.9,10.1,12.6z"/>
<line class="st1" x1="54.1" y1="32.4" x2="101.3" y2="32.4"/>
<line class="st1" x1="25.5" y1="52" x2="100.9" y2="51.9"/>
<line class="st1" x1="25.5" y1="71.6" x2="100.9" y2="71.5"/>
<path class="st1" d="M98.7,119.8l0-20c0-2,1.7-3.7,3.7-3.7h14.3"/>
</svg>
