<!-- icon666.com - MILLIONS vector ICONS FREE --><svg id="Layer_1" enable-background="new 0 0 48 48" viewBox="0 0 48 48" xmlns="http://www.w3.org/2000/svg"><g><path d="m4 11h4c.55 0 1-.45 1-1v-4c0-.55-.45-1-1-1h-4c-.55 0-1 .45-1 1v4c0 .55.45 1 1 1zm1-4h2v2h-2z" fill="#000000" style="fill: rgb(255, 255, 255);"></path><path d="m12 9h16c.55 0 1-.45 1-1s-.45-1-1-1h-16c-.55 0-1 .45-1 1s.45 1 1 1z" fill="#000000" style="fill: rgb(255, 255, 255);"></path><path d="m4 19h4c.55 0 1-.45 1-1v-4c0-.55-.45-1-1-1h-4c-.55 0-1 .45-1 1v4c0 .55.45 1 1 1zm1-4h2v2h-2z" fill="#000000" style="fill: rgb(255, 255, 255);"></path><path d="m12 17h16c.55 0 1-.45 1-1s-.45-1-1-1h-16c-.55 0-1 .45-1 1s.45 1 1 1z" fill="#000000" style="fill: rgb(255, 255, 255);"></path><path d="m4 27h4c.55 0 1-.45 1-1v-4c0-.55-.45-1-1-1h-4c-.55 0-1 .45-1 1v4c0 .55.45 1 1 1zm1-4h2v2h-2z" fill="#000000" style="fill: rgb(255, 255, 255);"></path><path d="m44 23h-32c-.55 0-1 .45-1 1s.45 1 1 1h32c.55 0 1-.45 1-1s-.45-1-1-1z" fill="#000000" style="fill: rgb(255, 255, 255);"></path><path d="m4 35h4c.55 0 1-.45 1-1v-4c0-.55-.45-1-1-1h-4c-.55 0-1 .45-1 1v4c0 .55.45 1 1 1zm1-4h2v2h-2z" fill="#000000" style="fill: rgb(255, 255, 255);"></path><path d="m44 31h-32c-.55 0-1 .45-1 1s.45 1 1 1h32c.55 0 1-.45 1-1s-.45-1-1-1z" fill="#000000" style="fill: rgb(255, 255, 255);"></path><path d="m4 43h4c.55 0 1-.45 1-1v-4c0-.55-.45-1-1-1h-4c-.55 0-1 .45-1 1v4c0 .55.45 1 1 1zm1-4h2v2h-2z" fill="#000000" style="fill: rgb(255, 255, 255);"></path><path d="m44 39h-32c-.55 0-1 .45-1 1s.45 1 1 1h32c.55 0 1-.45 1-1s-.45-1-1-1z" fill="#000000" style="fill: rgb(255, 255, 255);"></path><path d="m33.85 17.99c.05.01.1.01.15.01.23 0 .45-.08.63-.22l10-8c.43-.34.5-.97.16-1.41s-.97-.5-1.41-.16l-9.15 7.32-3.39-5.09c-.31-.46-.93-.58-1.39-.28-.46.31-.58.93-.28 1.39l4 6c.15.24.4.4.68.44z" fill="#000000" style="fill: rgb(255, 255, 255);"></path></g></svg>