<svg width="19" height="20" viewBox="0 0 19 20" fill="none" xmlns="http://www.w3.org/2000/svg">
<path d="M17.0248 16H0.994726C0.554726 16 0.174775 15.71 0.0447752 15.27C-0.0852248 14.84 0.0747898 14.37 0.43479 14.11C0.44479 14.11 2.66477 12.37 2.66477 6.61C2.66477 2.96 5.51475 0 9.01475 0C12.5147 0 15.3547 2.96 15.3547 6.61C15.3547 12.37 17.5847 14.11 17.6047 14.12C17.9547 14.39 18.1047 14.86 17.9747 15.28C17.8347 15.71 17.4648 16 17.0248 16ZM3.08481 13.94H14.9348C14.1548 12.53 13.3547 10.21 13.3547 6.61C13.3547 4.1 11.4047 2.06 9.01475 2.06C6.62475 2.06 4.67478 4.1 4.67478 6.61C4.67478 10.21 3.87481 12.53 3.08481 13.94ZM9.00474 20C8.42474 20 7.86471 19.87 7.35471 19.61C6.85471 19.35 6.44476 18.99 6.15476 18.55C5.83476 18.06 6.0247 17.43 6.5947 17.14C7.1647 16.86 7.8947 17.03 8.2147 17.53C8.2947 17.65 8.41478 17.75 8.55478 17.83C8.76478 17.93 9.00473 17.96 9.24473 17.91C9.48473 17.85 9.68478 17.72 9.80478 17.53C10.1348 17.03 10.8548 16.86 11.4348 17.14C11.9948 17.43 12.1947 18.06 11.8647 18.55C11.4247 19.23 10.7047 19.71 9.8447 19.9C9.5747 19.97 9.28474 20 9.00474 20Z" fill="black"/>
</svg>
