<svg width="107" height="96" viewBox="0 0 107 96" fill="none" xmlns="http://www.w3.org/2000/svg">
<g clip-path="url(#clip0_317_15)">
<g filter="url(#filter0_d_317_15)">
<path d="M23.4004 35.6C25.9004 20 42.4004 8 62.0004 8C83.5004 8 99.9004 22.3 99.9004 39.9C99.9004 47.6 97.7004 54.7 90.0004 60.2C88.8004 66.4 90.0004 72.5 91.2004 76.4C91.6004 77.9 90.2004 79.2 88.7004 78.8L67.6004 71.3C65.5004 71.6 63.7004 71.7 61.5004 71.7" stroke="#F9F9F9" stroke-width="7" stroke-miterlimit="10" stroke-linecap="round" stroke-linejoin="round" shape-rendering="crispEdges"/>
</g>
<g filter="url(#filter1_d_317_15)">
<path d="M36.3 33C19.7 33 7 44.1 7 57.8C7 63.7 8.9 69.2 14.7 73.5C15.7 77.8 15 82.1 14.1 85.1C13.7 86.6 15.1 88.1 16.6 87.5L31.8 82.2C33.4 82.3 34.8 82.5 36.4 82.5C53 82.5 66.4 71.4 66.4 57.7C66.4 44 52.9 33 36.3 33Z" stroke="#F9F9F9" stroke-width="7" stroke-miterlimit="10" stroke-linecap="round" stroke-linejoin="round" shape-rendering="crispEdges"/>
</g>
</g>
<defs>
<filter id="filter0_d_317_15" x="19.8994" y="1.5" width="87.501" height="81.8672" filterUnits="userSpaceOnUse" color-interpolation-filters="sRGB">
<feFlood flood-opacity="0" result="BackgroundImageFix"/>
<feColorMatrix in="SourceAlpha" type="matrix" values="0 0 0 0 0 0 0 0 0 0 0 0 0 0 0 0 0 0 127 0" result="hardAlpha"/>
<feOffset dx="2" dy="-1"/>
<feGaussianBlur stdDeviation="1"/>
<feComposite in2="hardAlpha" operator="out"/>
<feColorMatrix type="matrix" values="0 0 0 0 0 0 0 0 0 0 0 0 0 0 0 0 0 0 0.25 0"/>
<feBlend mode="normal" in2="BackgroundImageFix" result="effect1_dropShadow_317_15"/>
<feBlend mode="normal" in="SourceGraphic" in2="effect1_dropShadow_317_15" result="shape"/>
</filter>
<filter id="filter1_d_317_15" x="1.5" y="26.5" width="70.4004" height="65.6387" filterUnits="userSpaceOnUse" color-interpolation-filters="sRGB">
<feFlood flood-opacity="0" result="BackgroundImageFix"/>
<feColorMatrix in="SourceAlpha" type="matrix" values="0 0 0 0 0 0 0 0 0 0 0 0 0 0 0 0 0 0 127 0" result="hardAlpha"/>
<feOffset dy="-1"/>
<feGaussianBlur stdDeviation="1"/>
<feComposite in2="hardAlpha" operator="out"/>
<feColorMatrix type="matrix" values="0 0 0 0 0 0 0 0 0 0 0 0 0 0 0 0 0 0 0.25 0"/>
<feBlend mode="normal" in2="BackgroundImageFix" result="effect1_dropShadow_317_15"/>
<feBlend mode="normal" in="SourceGraphic" in2="effect1_dropShadow_317_15" result="shape"/>
</filter>
<clipPath id="clip0_317_15">
<rect width="107" height="96" fill="white"/>
</clipPath>
</defs>
</svg>
