<?xml version="1.0" standalone="no"?>
<!DOCTYPE svg PUBLIC "-//W3C//DTD SVG 20010904//EN"
 "http://www.w3.org/TR/2001/REC-SVG-20010904/DTD/svg10.dtd">
<svg version="1.0" xmlns="http://www.w3.org/2000/svg"
 width="1007.000000pt" height="614.000000pt" viewBox="0 0 1007.000000 614.000000"
 preserveAspectRatio="xMidYMid meet">
<metadata>
Created by potrace 1.16, written by Peter Selinger 2001-2019
</metadata>
<g transform="translate(0.000000,614.000000) scale(0.100000,-0.100000)"
fill="#000000" stroke="none">
<path d="M10020 3070 l0 -3070 25 0 25 0 0 3070 0 3070 -25 0 -25 0 0 -3070z"/>
<path d="M4825 6113 c-175 -11 -451 -67 -583 -119 -378 -149 -682 -420 -887
-793 -226 -410 -352 -936 -396 -1658 -23 -380 -4 -1042 41 -1385 91 -704 291
-1229 600 -1570 362 -401 792 -578 1403 -578 426 0 739 83 1034 276 494 321
805 881 943 1699 70 407 99 903 80 1350 -44 1061 -249 1735 -674 2217 -184
209 -446 383 -706 469 -235 77 -551 111 -855 92z m565 -123 c617 -107 1070
-512 1323 -1185 208 -553 294 -1370 236 -2245 -60 -919 -305 -1595 -725 -2000
-267 -257 -570 -396 -959 -441 -116 -13 -413 -13 -532 1 -592 67 -1026 363
-1305 890 -231 435 -348 992 -378 1796 -23 611 36 1294 146 1714 171 651 471
1075 924 1309 182 94 394 154 635 180 149 16 490 6 635 -19z"/>
<path d="M4940 5584 c-143 -26 -239 -77 -332 -179 -94 -103 -168 -250 -226
-445 -120 -407 -165 -927 -165 -1890 0 -1294 95 -1941 338 -2293 35 -52 142
-148 194 -175 154 -81 383 -80 525 3 237 139 391 498 461 1074 51 423 74 1165
56 1822 -15 554 -33 821 -77 1104 -87 564 -262 875 -541 960 -50 16 -190 27
-233 19z m172 -105 c171 -36 310 -190 403 -449 59 -165 119 -495 144 -800 28
-335 35 -560 36 -1155 0 -846 -23 -1230 -96 -1630 -86 -464 -239 -725 -464
-790 -93 -28 -231 -17 -316 23 -293 140 -436 607 -491 1607 -16 301 -16 1280
0 1570 35 594 98 986 200 1232 129 308 332 445 584 392z"/>
</g>
</svg>
