<svg width="72" height="72" viewBox="0 0 72 72" fill="none" xmlns="http://www.w3.org/2000/svg">
<path d="M68 36C68 53.6842 53.6842 68 36 68C18.3158 68 4 53.6842 4 36C4 18.3158 18.3158 4 36 4C53.6842 4 68 18.3158 68 36Z" stroke="#66EACC" stroke-width="7" stroke-linecap="round" stroke-linejoin="round"/>
<path d="M31.9579 40.3789C31.9579 39.3122 32.1263 38.414 32.407 37.628C32.6877 36.8982 33.193 36.1684 33.8667 35.5508C34.8772 34.5964 35.7754 33.7543 36.6175 33.0245C37.4596 32.2947 38.1895 31.621 38.807 31.0034C39.4246 30.3859 39.8737 29.7684 40.2105 29.2069C40.5474 28.6455 40.7158 28.0841 40.7158 27.4666C40.7158 26.2876 40.3228 25.3894 39.593 24.7157C38.8632 24.042 37.9088 23.7052 36.8421 23.7052C35.1579 23.7052 33.8667 24.1543 33.0246 25.1087C32.1263 26.0631 31.6772 27.1859 31.5649 28.4771L23.3123 27.9157C23.7053 24.0982 25.1088 21.235 27.5228 19.214C29.9368 17.2491 33.0246 16.2385 36.786 16.2385C38.414 16.2385 39.986 16.4631 41.4456 16.9122C42.9053 17.3613 44.1965 18.035 45.2632 18.9333C46.386 19.8315 47.2281 20.9543 47.9018 22.2455C48.5193 23.5929 48.8561 25.1087 48.8561 26.7929C48.8561 27.8596 48.7439 28.7578 48.5193 29.5999C48.2947 30.442 47.9579 31.2841 47.3965 32.0701C46.8912 32.9122 46.2175 33.7543 45.3754 34.5964C44.5333 35.4385 43.4667 36.3368 42.1754 37.3473C41.3333 37.9648 40.7719 38.6385 40.4912 39.1999C40.2105 39.8175 40.0421 40.435 40.0421 41.0526V42.6245H31.9579V40.3789ZM31.0035 50.7087C31.0035 50.035 31.1158 49.3613 31.3965 48.7999C31.6211 48.1824 32.014 47.6771 32.4632 47.228C32.9123 46.7789 33.4175 46.442 34.0351 46.1613C34.6526 45.9368 35.2702 45.7684 35.9439 45.7684C36.6175 45.7684 37.2912 45.8806 37.8526 46.1613C38.4702 46.3859 38.9754 46.7789 39.4246 47.228C39.8737 47.6771 40.2105 48.1824 40.4912 48.7999C40.7158 49.4175 40.8842 50.035 40.8842 50.7087C40.8842 51.3824 40.7719 52.0561 40.4912 52.6175C40.2667 53.235 39.8737 53.7403 39.4246 54.1894C38.9754 54.6385 38.4702 54.9754 37.8526 55.2561C37.2351 55.4806 36.6175 55.6491 35.9439 55.6491C35.2702 55.6491 34.5965 55.5368 34.0351 55.2561C33.4175 55.0315 32.9123 54.6385 32.4632 54.1894C32.014 53.7403 31.6772 53.235 31.3965 52.6175C31.1719 52.0561 31.0035 51.3824 31.0035 50.7087Z" fill="#66EACC"/>
</svg>
