<svg width="38" height="35" viewBox="0 0 38 35" fill="none" xmlns="http://www.w3.org/2000/svg">
<path d="M19 1C27.28 1 34 7.72 34 16C34 24.28 27.28 31 19 31C10.72 31 4 24.28 4 16C4 7.72 10.72 1 19 1Z" fill="#E7E7E7" stroke="#E7E7E7"/>
<path d="M0 17.25L29.4 0L31.77 4.06995L2.38 21.3199L0 17.25ZM3.86 23.86L33.25 6.60999L38 14.75L8.60001 32L3.86 23.86Z" fill="white"/>
<path d="M19 5C25.08 5 30 9.92 30 16C30 22.07 25.08 27 19 27C12.92 27 8 22.07 8 16C8 9.92 12.92 5 19 5Z" fill="#C5C5C5"/>
<path d="M19 6C24.52 6 29 10.48 29 16C29 21.52 24.52 26 19 26C13.48 26 9 21.52 9 16C9 10.48 13.48 6 19 6Z" fill="#E7E7E7"/>
<path d="M21 10L34 23V35H30L17 22V13L21 10Z" fill="#C5C5C5"/>
<path d="M18 18H20C20.55 18 21 18.45 21 19V21C21 21.55 20.55 22 20 22H18C17.45 22 17 21.55 17 21V19C17 18.45 17.45 18 18 18ZM18 10H20C20.55 10 21 10.45 21 11V16C21 16.55 20.55 17 20 17H18C17.45 17 17 16.55 17 16V11C17 10.45 17.45 10 18 10Z" fill="white"/>
</svg>
