<svg width="34" height="34" viewBox="0 0 34 34" fill="none" xmlns="http://www.w3.org/2000/svg">
<path d="M17 34C26.3888 34 34 26.3888 34 17C34 7.61116 26.3888 0 17 0C7.61116 0 0 7.61116 0 17C0 26.3888 7.61116 34 17 34Z" fill="url(#paint0_linear_271_81)"/>
<path d="M29.17 17.2071H26.1731C26.1731 11.0997 21.2048 6.14893 15.0756 6.14893C9.0223 6.14893 4.10092 10.9785 3.98047 16.9813C3.85586 23.1863 9.69799 28.5745 15.9259 28.5745H16.7093C22.1999 28.5745 29.559 24.2916 30.7088 19.0732C30.9211 18.1113 30.1586 17.2071 29.17 17.2071ZM10.6221 17.4792C10.6221 18.2959 9.95167 18.9639 9.13204 18.9639C8.3124 18.9639 7.64206 18.2956 7.64206 17.4792V15.0773C7.64206 14.2606 8.3124 13.5926 9.13204 13.5926C9.95167 13.5926 10.6221 14.2606 10.6221 15.0773V17.4792ZM15.7959 17.4792C15.7959 18.2959 15.1256 18.9639 14.306 18.9639C13.4863 18.9639 12.816 18.2956 12.816 17.4792V15.0773C12.816 14.2606 13.4866 13.5926 14.306 13.5926C15.1256 13.5926 15.7959 14.2606 15.7959 15.0773V17.4792Z" fill="url(#paint1_linear_271_81)"/>
<defs>
<linearGradient id="paint0_linear_271_81" x1="17" y1="0" x2="17" y2="34" gradientUnits="userSpaceOnUse">
<stop stop-color="#534BB1"/>
<stop offset="1" stop-color="#551BF9"/>
</linearGradient>
<linearGradient id="paint1_linear_271_81" x1="17.3615" y1="6.14893" x2="17.3615" y2="28.5745" gradientUnits="userSpaceOnUse">
<stop stop-color="white"/>
<stop offset="1" stop-color="white" stop-opacity="0.82"/>
</linearGradient>
</defs>
</svg>
