<svg width="136" height="116" viewBox="0 0 136 116" fill="none" xmlns="http://www.w3.org/2000/svg">
<path d="M107.402 106.07C113.835 99.8325 118.949 92.3666 122.441 84.1152C125.934 75.8639 127.734 66.9951 127.734 58.035C127.734 49.0749 125.934 40.2061 122.441 31.9548C118.949 23.7034 113.835 16.2375 107.402 10" stroke="#E5E4E4" stroke-width="7" stroke-miterlimit="10" stroke-linecap="round"/>
<path d="M97.1816 91.74C101.771 87.3106 105.421 82.0022 107.914 76.1315C110.406 70.2608 111.691 63.9481 111.691 57.57C111.691 51.192 110.406 44.8792 107.914 39.0085C105.421 33.1378 101.771 27.8294 97.1816 23.4" stroke="#E5E4E4" stroke-width="7" stroke-miterlimit="10" stroke-linecap="round"/>
<path d="M82.5215 80.95C84.2227 79.3149 85.7385 77.4972 87.0415 75.53C90.4762 70.3399 92.3077 64.2537 92.3077 58.03C92.3077 51.8063 90.4762 45.7201 87.0415 40.53C85.7385 38.5627 84.2227 36.7451 82.5215 35.11" stroke="#E5E4E4" stroke-width="7" stroke-miterlimit="10" stroke-linecap="round"/>
<path d="M61.7863 96.3893L61.0257 97.2169C60.3266 97.6929 59.4841 97.9186 58.6377 97.8565C55.2305 97.6308 35.0612 80.3256 34.4604 80.2504C34.3464 80.2437 34.2322 80.2437 34.1182 80.2504L33.6847 80.3783C33.0915 80.589 32.2701 80.8749 31.2814 81.1307C29.1854 81.7394 27.0364 82.1525 24.8625 82.3646C16.8237 83.117 13.3405 80.4761 13.1808 80.3332L12.8157 79.9946C12.7119 79.864 12.6227 79.7227 12.5495 79.5732C11.0323 75.935 9.78183 72.1934 8.80772 68.3776C8.55675 66.7825 8.38182 65.225 8.26014 63.7729C7.91329 59.8227 7.91329 55.8502 8.26014 51.9001C8.41224 50.1169 8.62519 48.5745 8.81533 47.3857C9.64728 43.5167 10.8993 39.7479 12.5495 36.1449C12.6217 35.9901 12.711 35.8438 12.8157 35.7085L13.1808 35.3699C13.3405 35.2269 16.8237 32.5936 24.8625 33.3384C27.0364 33.5506 29.1854 33.9637 31.2814 34.5724C32.2701 34.8583 33.0915 35.1442 33.6847 35.3248L34.1182 35.4527C34.2322 35.4593 34.3464 35.4593 34.4604 35.4527C35.0612 35.4226 55.2305 18.1024 58.6453 17.8767C59.4917 17.8146 60.3342 18.0402 61.0333 18.5162C61.2159 18.7118 61.4821 18.9902 61.7939 19.3438C63.6876 21.5032 70 29.3733 70 57.8591C69.9924 57.8666 69.9924 87.3906 61.7863 96.3893Z" fill="#E5E4E4"/>
</svg>
