<?xml version="1.0" encoding="utf-8"?>
<!-- Generator: Adobe Illustrator 26.0.3, SVG Export Plug-In . SVG Version: 6.00 Build 0)  -->
<svg version="1.1" id="Слой_1" xmlns="http://www.w3.org/2000/svg" xmlns:xlink="http://www.w3.org/1999/xlink" x="0px" y="0px"
	 viewBox="0 0 140.6 129" style="enable-background:new 0 0 140.6 129;" xml:space="preserve">
<style type="text/css">
	.st0{fill:none;stroke:#231F20;stroke-width:4;stroke-linecap:round;stroke-linejoin:round;}
	.st1{fill: #ffffff;}
</style>
<path class="st1" d="M114.8,24.3l-34.6-20c-7.2-4.1-16.2-4.1-23.4,0l-34.6,20c-7.2,4.1-11.7,11.9-11.7,20.2v40
	c0,8.3,4.5,16,11.7,20.2l34.6,20c3.6,2.1,7.7,3.1,11.7,3.1s8.1-1,11.7-3.1l34.6-20c7.2-4.1,11.7-11.9,11.7-20.2v-40
	C126.5,36.2,122,28.5,114.8,24.3z M92.5,69.4H72.8v20.4c0,2.4-1.9,4.3-4.3,4.3c-2.4,0-4.3-1.9-4.3-4.3V69.3H44.4
	c-2.4,0-4.3-1.9-4.3-4.3c0-2.4,1.9-4.3,4.3-4.3h19.7V41.8c0-2.4,1.9-4.3,4.3-4.3c2.4,0,4.3,1.9,4.3,4.3v18.9h19.7
	c2.4,0,4.3,1.9,4.3,4.4C96.8,67.5,94.9,69.4,92.5,69.4z"/>
</svg>
