<svg width="21" height="6" viewBox="0 0 21 6" fill="none" xmlns="http://www.w3.org/2000/svg">
<path d="M3.07519 5.5C4.47987 5.5 5.65038 4.39794 5.65038 3H4.65038C4.65038 3.8112 3.96269 4.5 3.07519 4.5V5.5ZM0.5 3C0.5 4.39794 1.6705 5.5 3.07519 5.5V4.5C2.18768 4.5 1.5 3.8112 1.5 3H0.5ZM3.07519 0.5C1.6705 0.5 0.5 1.60206 0.5 3H1.5C1.5 2.1888 2.18768 1.5 3.07519 1.5V0.5ZM5.65038 3C5.65038 1.60206 4.47987 0.5 3.07519 0.5V1.5C3.96269 1.5 4.65038 2.1888 4.65038 3H5.65038ZM10.3384 5.5C11.7431 5.5 12.9136 4.39794 12.9136 3H11.9136C11.9136 3.8112 11.2259 4.5 10.3384 4.5V5.5ZM7.76322 3C7.76322 4.39794 8.93373 5.5 10.3384 5.5V4.5C9.45091 4.5 8.76322 3.8112 8.76322 3H7.76322ZM10.3384 0.5C8.93373 0.5 7.76322 1.60206 7.76322 3H8.76322C8.76322 2.1888 9.45091 1.5 10.3384 1.5V0.5ZM12.9136 3C12.9136 1.60206 11.7431 0.5 10.3384 0.5V1.5C11.2259 1.5 11.9136 2.1888 11.9136 3H12.9136ZM19.1768 3C19.1768 3.8112 18.4891 4.5 17.6016 4.5V5.5C19.0063 5.5 20.1768 4.39794 20.1768 3H19.1768ZM17.6016 1.5C18.4891 1.5 19.1768 2.1888 19.1768 3H20.1768C20.1768 1.60206 19.0063 0.5 17.6016 0.5V1.5ZM16.0264 3C16.0264 2.1888 16.7141 1.5 17.6016 1.5V0.5C16.1969 0.5 15.0264 1.60206 15.0264 3H16.0264ZM17.6016 4.5C16.7141 4.5 16.0264 3.8112 16.0264 3H15.0264C15.0264 4.39794 16.1969 5.5 17.6016 5.5V4.5Z" fill="white"/>
</svg>
