<svg width="135" height="110" viewBox="0 0 135 110" fill="none" xmlns="http://www.w3.org/2000/svg">
<path d="M41.2149 50.5083H35.1666C35.1666 67.8246 49.4735 81.8552 67.0808 81.8552C67.2979 81.8552 67.51 81.8552 67.7271 81.8552C85.0582 81.5197 99 67.6223 99 50.5181H92.6705M67.7271 105.674V81.8453M52.9269 105.674H82.5274M45.7734 24.9187H88.3932M88.1613 53.8729H46.0201M35.3491 53.8729H34.91M75.961 69.7782V6.95609M59.1874 70.1778V6.54662M46.6516 39.3933H88.8027M88.4475 26.3987V50.5083C88.3622 56.1182 86.0738 61.4695 82.0766 65.4065C78.0793 69.3435 72.6938 71.5502 67.0833 71.5502C61.4728 71.5502 56.0873 69.3435 52.09 65.4065C48.0928 61.4695 45.8044 56.1182 45.7191 50.5083V26.3987C45.6761 23.5658 46.1969 20.7526 47.2512 18.1229C48.3055 15.4931 49.8724 13.0993 51.8605 11.0808C53.8486 9.0622 56.2183 7.4592 58.8317 6.36504C61.4451 5.27087 64.2501 4.7074 67.0833 4.7074C69.9165 4.7074 72.7215 5.27087 75.3349 6.36504C77.9483 7.4592 80.318 9.0622 82.3061 11.0808C84.2942 13.0993 85.8611 15.4931 86.9154 18.1229C87.9697 20.7526 88.4905 23.5658 88.4475 26.3987V26.3987Z" stroke="url(#paint0_linear_290_49)" stroke-width="6" stroke-miterlimit="10"/>
<defs>
<linearGradient id="paint0_linear_290_49" x1="34.91" y1="4.7074" x2="117.935" y2="82.0917" gradientUnits="userSpaceOnUse">
<stop stop-color="#CC5CDA"/>
<stop offset="1" stop-color="#454FCE"/>
</linearGradient>
</defs>
</svg>
