<svg width="117" height="152" viewBox="0 0 117 152" fill="none" xmlns="http://www.w3.org/2000/svg">
<path d="M25.173 70.1248H17.3325C17.3325 92.4785 35.8785 110.591 58.7029 110.591C58.9843 110.591 59.2593 110.591 59.5407 110.591C82.0069 110.158 100.08 92.2174 100.08 70.1375H91.8746M59.5407 141.338V110.578M40.3552 141.338H78.7262M31.0822 37.0909H86.33M86.0294 74.4682H31.4019M17.5692 74.4682H17M70.2142 95.0005V13.9029M48.4706 95.5163V13.3743M32.2205 55.7763H86.8608M86.4004 39.0015V70.1248C86.2898 77.3666 83.3235 84.2747 78.1418 89.357C72.9601 94.4393 65.979 97.288 58.7061 97.288C51.4332 97.288 44.452 94.4393 39.2704 89.357C34.0887 84.2747 31.1223 77.3666 31.0118 70.1248V39.0015C30.956 35.3445 31.6311 31.7129 32.9978 28.3181C34.3645 24.9234 36.3956 21.8332 38.9728 19.2274C41.55 16.6217 44.6218 14.5523 48.0096 13.1399C51.3974 11.7274 55.0334 11 58.7061 11C62.3788 11 66.0148 11.7274 69.4026 13.1399C72.7904 14.5523 75.8622 16.6217 78.4394 19.2274C81.0166 21.8332 83.0476 24.9234 84.4143 28.3181C85.7811 31.7129 86.4562 35.3445 86.4004 39.0015V39.0015Z" stroke="url(#paint0_linear_290_54)" stroke-width="6" stroke-miterlimit="10"/>
<defs>
<linearGradient id="paint0_linear_290_54" x1="28.6457" y1="130.577" x2="139.286" y2="52.4968" gradientUnits="userSpaceOnUse">
<stop stop-color="#6956E2"/>
<stop offset="1" stop-color="#E52BB6"/>
</linearGradient>
</defs>
</svg>
