<svg width="133" height="158" viewBox="0 0 133 158" fill="none" xmlns="http://www.w3.org/2000/svg">
<path d="M33.173 73.1248H25.3325C25.3325 95.4785 43.8785 113.591 66.7029 113.591C66.9843 113.591 67.2593 113.591 67.5407 113.591C90.0069 113.158 108.08 95.2174 108.08 73.1375H99.8746M67.5407 144.338V113.578M48.3552 144.338H86.7262M39.0822 40.0909H94.33M94.0294 77.4682H39.4019M25.5692 77.4682H25M78.2142 98.0005V16.9029M56.4706 98.5163V16.3743M40.2205 58.7763H94.8608M94.4004 42.0015V73.1248C94.2898 80.3666 91.3235 87.2747 86.1418 92.357C80.9601 97.4393 73.979 100.288 66.7061 100.288C59.4332 100.288 52.452 97.4393 47.2704 92.357C42.0887 87.2747 39.1223 80.3666 39.0118 73.1248V42.0015C38.956 38.3445 39.6311 34.7129 40.9978 31.3181C42.3645 27.9234 44.3956 24.8332 46.9728 22.2274C49.55 19.6217 52.6218 17.5523 56.0096 16.1399C59.3974 14.7274 63.0334 14 66.7061 14C70.3788 14 74.0148 14.7274 77.4026 16.1399C80.7904 17.5523 83.8622 19.6217 86.4394 22.2274C89.0166 24.8332 91.0476 27.9234 92.4143 31.3181C93.7811 34.7129 94.4562 38.3445 94.4004 42.0015V42.0015Z" stroke="url(#paint0_linear_290_54)" stroke-width="6" stroke-miterlimit="10"/>
<defs>
<linearGradient id="paint0_linear_290_54" x1="25" y1="14" x2="132.208" y2="114.341" gradientUnits="userSpaceOnUse">
<stop stop-color="#CC5CDA"/>
<stop offset="1" stop-color="#454FCE"/>
</linearGradient>
</defs>
</svg>
