<svg width="90" height="137" viewBox="0 0 90 137" fill="none" xmlns="http://www.w3.org/2000/svg">
<path d="M11.173 62.1248H3.33255C3.33255 84.4785 21.8785 102.591 44.7029 102.591C44.9843 102.591 45.2593 102.591 45.5407 102.591C68.0069 102.158 86.0796 84.2174 86.0796 62.1375H77.8746M45.5407 133.338V102.578M26.3552 133.338H64.7262M17.0822 29.0909H72.33M72.0294 66.4682H17.4019M3.56917 66.4682H3M56.2142 87.0005V5.90286M34.4706 87.5163V5.37426M18.2205 47.7763H72.8608M72.4004 31.0015V62.1248C72.2898 69.3666 69.3235 76.2747 64.1418 81.357C58.9601 86.4393 51.979 89.288 44.7061 89.288C37.4332 89.288 30.452 86.4393 25.2704 81.357C20.0887 76.2747 17.1223 69.3666 17.0118 62.1248V31.0015C16.956 27.3445 17.6311 23.7129 18.9978 20.3181C20.3645 16.9234 22.3956 13.8332 24.9728 11.2274C27.55 8.62166 30.6218 6.55233 34.0096 5.13986C37.3974 3.7274 41.0334 3 44.7061 3C48.3788 3 52.0148 3.7274 55.4026 5.13986C58.7904 6.55233 61.8622 8.62166 64.4394 11.2274C67.0166 13.8332 69.0476 16.9234 70.4143 20.3181C71.7811 23.7129 72.4562 27.3445 72.4004 31.0015V31.0015Z" stroke="url(#paint0_linear_290_54)" stroke-width="6" stroke-miterlimit="10"/>
<defs>
<linearGradient id="paint0_linear_290_54" x1="3" y1="3" x2="110.208" y2="103.341" gradientUnits="userSpaceOnUse">
<stop stop-color="#CC5CDA"/>
<stop offset="1" stop-color="#454FCE"/>
</linearGradient>
</defs>
</svg>
