<svg width="119" height="121" viewBox="0 0 119 121" fill="none" xmlns="http://www.w3.org/2000/svg">
<path d="M106.427 0.0135702C112.949 -0.27943 117.931 4.20057 118.31 10.7096L118.81 84.5096C118.741 85.2476 118.834 84.9966 118.707 85.3046C118.409 94.1786 109.892 99.6396 102.193 101.733C91.4027 104.225 80.7757 99.6546 78.7377 90.8296C76.6997 82.0046 84.2477 73.2386 95.0377 70.7466L95.1647 70.7196C95.5527 70.6456 96.4547 70.4686 96.5867 70.4436C96.9887 70.3676 97.2547 70.3256 97.5757 70.2946C97.7567 70.2766 99.4127 70.1716 100.574 70.0806C100.693 70.0706 100.813 70.0676 100.932 70.0706C104.697 70.1826 108.501 70.9396 111.731 72.9486L111.427 27.9596L38.9097 44.6796L40.4087 102.443C40.3527 103.195 40.4417 102.93 40.3067 103.276C40.0497 112.217 31.5597 117.723 23.7887 119.834C12.9987 122.326 2.37072 117.757 0.332719 108.931C-1.70428 100.106 5.84372 91.3396 16.6337 88.8476C19.9587 88.2136 17.9697 88.5126 22.6307 88.1726C26.2817 88.3146 29.9617 89.0626 33.1087 90.9766L31.4107 25.5306C31.2667 20.3086 34.8507 15.8166 39.9547 14.6156L105.167 0.213567L106.427 0.0135702ZM22.2567 95.1696C19.1197 95.4416 20.4627 95.2306 18.2087 95.6686C10.8097 97.3776 6.11071 102.836 7.15471 107.356C8.19871 111.877 14.8147 114.722 22.2137 113.013C29.6127 111.305 34.3117 105.847 33.2677 101.326C31.8687 96.4896 26.6217 95.4196 22.2567 95.1696ZM100.88 77.0766C100.009 77.1446 99.1377 77.2016 98.2657 77.2596C98.1817 77.2686 98.1057 77.2806 97.8907 77.3206C97.4547 77.4056 97.0187 77.4906 96.5827 77.5756C91.3137 78.8776 84.6057 82.9316 85.5587 89.2546C86.6027 93.7756 93.2187 96.6206 100.618 94.9116C105.771 93.6346 112.636 89.6186 111.692 83.3536C110.056 78.6506 105.359 77.3996 100.88 77.0766ZM107.55 6.96257L106.665 7.05057L41.5117 21.4406C39.6387 21.8816 38.3567 23.4866 38.4087 25.3426L38.7247 37.5386L111.378 20.7866L111.31 10.7336C111.019 8.05057 109.918 7.53657 107.55 6.96257Z" fill="url(#paint0_linear_205_143)"/>
<defs>
<linearGradient id="paint0_linear_205_143" x1="3.99172" y1="114.495" x2="131.498" y2="-6.36342" gradientUnits="userSpaceOnUse">
<stop stop-color="#6258E4"/>
<stop offset="1" stop-color="#FE21AC"/>
</linearGradient>
</defs>
</svg>
