<svg width="135" height="110" viewBox="0 0 135 110" fill="none" xmlns="http://www.w3.org/2000/svg">
<path d="M62.0392 0C62.6532 0 63.2002 0.403004 63.4052 1.007L99.5922 107.682C99.9262 108.667 99.2262 109.7 98.2262 109.7H75.0722C74.4392 109.7 73.8792 109.27 73.6902 108.64L67.4222 87.771H31.8842L25.1452 108.67C24.9472 109.285 24.3942 109.7 23.7722 109.7H1.45025C0.448246 109.7 -0.250756 108.664 0.0852444 107.679L36.5502 1.004C36.7562 0.401998 37.3022 0 37.9142 0H62.0392ZM49.7472 30.83L38.5962 66.364H60.5452L49.7472 30.83Z" fill="url(#paint0_linear_205_136)"/>
<path d="M72.7913 0.0849609L130.254 0.0869598C132.654 0.0879598 134.6 2.11896 134.6 4.62496C134.6 7.13096 132.654 9.16196 130.253 9.16196L72.7913 9.15997C70.3913 9.15997 68.4453 7.12796 68.4453 4.62196C68.4453 2.11596 70.3913 0.0849609 72.7923 0.0849609H72.7913Z" fill="url(#paint1_linear_205_136)"/>
<path d="M130.165 23.938C132.614 23.937 134.599 25.988 134.6 28.52C134.601 31.052 132.617 33.105 130.168 33.106L86.2734 33.122C83.8254 33.123 81.8394 31.071 81.8384 28.54C81.8384 26.008 83.8214 23.955 86.2704 23.954L130.165 23.938Z" fill="url(#paint2_linear_205_136)"/>
<path d="M99.1502 47.2739L130.254 47.2749C132.654 47.2749 134.6 49.3059 134.6 51.8119C134.6 54.3179 132.654 56.3489 130.254 56.3489H99.1502C96.7502 56.3489 94.8042 54.3169 94.8042 51.8109C94.8042 49.3059 96.7502 47.2739 99.1502 47.2739Z" fill="url(#paint3_linear_205_136)"/>
<defs>
<linearGradient id="paint0_linear_205_136" x1="13.9722" y1="100.643" x2="112.805" y2="1.218" gradientUnits="userSpaceOnUse">
<stop stop-color="#6956E2"/>
<stop offset="1" stop-color="#E52BB6"/>
</linearGradient>
<linearGradient id="paint1_linear_205_136" x1="38.1033" y1="63.392" x2="132.315" y2="1.218" gradientUnits="userSpaceOnUse">
<stop stop-color="#6956E2"/>
<stop offset="1" stop-color="#E52BB6"/>
</linearGradient>
<linearGradient id="paint2_linear_205_136" x1="47.4384" y1="82.481" x2="131.746" y2="22.915" gradientUnits="userSpaceOnUse">
<stop stop-color="#6956E2"/>
<stop offset="1" stop-color="#E52BB6"/>
</linearGradient>
<linearGradient id="paint3_linear_205_136" x1="78.6632" y1="89.1189" x2="132.572" y2="46.7769" gradientUnits="userSpaceOnUse">
<stop stop-color="#6956E2"/>
<stop offset="1" stop-color="#E52BB6"/>
</linearGradient>
</defs>
</svg>
