<svg width="141" height="129" viewBox="0 0 141 129" fill="none" xmlns="http://www.w3.org/2000/svg">
<path d="M81.7016 7.5H26.7016C26.7016 7.5 34.8016 14.3 42.6016 21.8C26.6016 33.8 11.1016 50.4 11.1016 77.5C11.1016 84.7 12.1016 91.5 13.8016 98.3C20.1016 73.1 43.4016 56 66.2016 44.8L81.6016 60.7L81.7016 7.5Z" stroke="white" stroke-width="7" stroke-miterlimit="10" stroke-linecap="round" stroke-linejoin="round"/>
<path d="M65.2984 121.6H113.798C113.798 121.6 105.698 114.8 97.8984 107.3C113.898 95.2998 129.398 78.6998 129.398 51.5998C129.398 44.3998 128.398 37.5998 126.698 30.7998C120.498 55.9998 97.1984 73.1998 74.3984 84.2998L58.8984 68.3998V115.2C58.8984 118.7 61.7984 121.6 65.2984 121.6Z" stroke="white" stroke-width="7" stroke-miterlimit="10" stroke-linecap="round" stroke-linejoin="round"/>
</svg>
