<svg width="141" height="129" viewBox="0 0 141 129" fill="none" xmlns="http://www.w3.org/2000/svg">
<path d="M71.0008 26.5V28.3L61.8008 30.5L60.4008 30.8L60.7008 32.2L65.2008 51.4L45.0008 56.2L43.6008 56.5L43.9008 57.9L49.0008 79.8L49.3008 81.2L50.7008 80.9L71.0008 76.2V76.3V95.2H37.3008V26.5H71.0008Z" fill="white"/>
<path d="M84.9984 26.5L89.7984 47.2L111.398 42.1L116.498 64L94.9984 69.1L99.7984 89.8L76.8984 95.2L72.0984 74.5L50.4984 79.6L45.3984 57.7L66.9984 52.6L62.1984 31.9L84.9984 26.5Z" fill="white"/>
<path d="M69.3016 6.1001C33.7016 6.1001 6.60156 29.8001 6.60156 59.0001C6.60156 71.8001 10.8016 83.5001 23.2016 92.7001C25.5016 102 23.9016 111.2 22.0016 117.5C21.0016 120.7 24.1016 123.7 27.3016 122.6L59.7016 111.1C63.1016 111.6 66.1016 111.9 69.7016 111.9C105.302 111.9 133.902 88.2001 133.902 59.0001C133.902 29.8001 104.902 6.1001 69.3016 6.1001Z" stroke="white" stroke-width="7" stroke-miterlimit="10" stroke-linecap="round" stroke-linejoin="round"/>
</svg>
