<svg width="141" height="129" viewBox="0 0 141 129" fill="none" xmlns="http://www.w3.org/2000/svg">
<path d="M52.2031 76.0998C52.2031 74.5998 52.4031 73.3998 52.8031 72.2998C53.2031 71.2998 53.9031 70.2998 54.8031 69.3998C56.2031 68.0998 57.4031 66.8998 58.6031 65.8998C59.8031 64.8998 60.8031 63.9998 61.6031 63.0998C62.5031 62.1998 63.1031 61.3998 63.5031 60.5998C63.9031 59.7998 64.2031 59.0998 64.2031 58.1998C64.2031 56.5998 63.7031 55.2998 62.7031 54.3998C61.7031 53.4998 60.4031 52.9998 58.9031 52.9998C56.6031 52.9998 54.8031 53.5998 53.6031 54.8998C52.7031 55.8998 52.1031 56.9998 51.8031 58.1998C51.6031 58.8998 51.0031 59.3998 50.3031 59.3998L41.9031 58.9998C41.0031 58.9998 40.3031 58.0998 40.5031 57.1998C41.2031 52.6998 43.1031 49.3998 46.1031 46.8998C49.4031 44.1998 53.7031 42.7998 58.9031 42.7998C61.1031 42.7998 63.3031 43.0998 65.3031 43.6998C67.3031 44.2998 69.1031 45.1998 70.6031 46.4998C72.1031 47.6998 73.3031 49.2998 74.2031 51.0998C75.1031 52.9998 75.5031 54.9998 75.5031 57.3998C75.5031 58.8998 75.3031 60.0998 75.0031 61.2998C74.7031 62.4998 74.2031 63.5998 73.5031 64.6998C72.8031 65.8998 71.9031 66.9998 70.7031 68.1998C69.5031 69.3998 68.1031 70.5998 66.3031 71.9998C65.1031 72.8998 64.4031 73.7998 64.0031 74.5998C63.6031 75.4998 63.4031 76.2998 63.4031 77.1998V77.9998C63.4031 78.7998 62.7031 79.4998 61.9031 79.4998H53.8031C53.0031 79.4998 52.3031 78.7998 52.3031 77.9998V76.0998H52.2031ZM50.8031 90.2998C50.8031 89.3998 51.0031 88.3998 51.3031 87.6998C51.6031 86.7998 52.2031 86.1998 52.8031 85.4998C53.4031 84.8998 54.0031 84.3998 54.9031 83.9998C55.0031 83.9998 55.0031 83.9998 55.1031 83.9998C56.0031 83.6998 56.7031 83.4998 57.6031 83.4998C58.5031 83.4998 59.5031 83.6998 60.2031 83.9998C61.1031 84.2998 61.7031 84.8998 62.4031 85.4998C63.0031 86.0998 63.5031 86.6998 63.9031 87.5998C63.9031 87.6998 64.0031 87.6998 64.0031 87.7998C64.3031 88.6998 64.5031 89.3998 64.5031 90.2998C64.5031 91.1998 64.3031 92.1998 64.0031 92.8998C63.7031 93.7998 63.1031 94.3998 62.5031 95.0998C61.9031 95.7998 61.2031 96.1998 60.3031 96.5998C59.4031 96.8998 58.6031 97.0998 57.7031 97.0998C56.8031 97.0998 55.8031 96.8998 55.1031 96.5998C54.2031 96.2998 53.6031 95.6998 52.9031 95.0998C52.3031 94.4998 51.8031 93.8998 51.5031 92.9998C51.5031 92.8998 51.4031 92.7998 51.4031 92.7998C51.1031 92.0998 50.8031 91.1998 50.8031 90.2998Z" fill="white"/>
<path d="M92.6016 109.4H19.9016C12.8016 109.4 7.10156 103.7 7.10156 96.6002V43.2002C7.10156 36.3002 12.7016 30.7002 19.6016 30.7002H103.202C110.102 30.7002 115.602 36.3002 115.602 43.1002V97.1002C115.602 103.9 110.102 109.4 103.302 109.4H100.202H92.6016V109.4Z" stroke="white" stroke-width="7" stroke-linecap="round" stroke-linejoin="round"/>
<path d="M106.198 109.4L90.3984 123.6V109.4H106.198Z" fill="white" stroke="white" stroke-width="6" stroke-miterlimit="10" stroke-linecap="round" stroke-linejoin="round"/>
<path d="M25.2031 29.9002V27.2002C25.2031 20.3002 30.8031 14.7002 37.7031 14.7002H121.303C128.103 14.7002 133.603 20.2002 133.603 27.0002V80.7002C133.603 87.7002 128.003 93.3002 121.003 93.3002H115.503" stroke="white" stroke-width="7" stroke-linecap="round" stroke-linejoin="round"/>
</svg>
