<svg width="141" height="129" viewBox="0 0 141 129" fill="none" xmlns="http://www.w3.org/2000/svg">
<path d="M43.8984 85.2998C47.1984 106.7 57.5984 122.3 69.9984 122.3C82.3984 122.3 92.7984 106.7 96.0984 85.2998" stroke="white" stroke-width="7" stroke-miterlimit="10" stroke-linecap="round" stroke-linejoin="round"/>
<path d="M22.6992 85.2998H117.099" stroke="white" stroke-width="7" stroke-miterlimit="10" stroke-linecap="round" stroke-linejoin="round"/>
<path d="M69.8984 85.2998V119.4" stroke="white" stroke-width="7" stroke-miterlimit="10" stroke-linecap="round" stroke-linejoin="round"/>
<path d="M45.5766 54.0644V74.6738H43.1614L31.9309 58.4922H31.7296V74.6738H29.234V54.0644H31.6491L42.9199 70.2863H43.1212V54.0644H45.5766ZM50.5705 74.6738V54.0644H63.0086V56.2783H53.0661V63.242H62.3645V65.4559H53.0661V72.4599H63.1696V74.6738H50.5705ZM71.2503 74.6738L65.6149 54.0644H68.1509L72.4579 70.8498H72.6592L77.0467 54.0644H79.8644L84.252 70.8498H84.4532L88.7603 54.0644H91.2962L85.6608 74.6738H83.0847L78.5361 58.2507H78.3751L73.8265 74.6738H71.2503ZM105.677 59.2168C105.556 58.197 105.066 57.4054 104.207 56.8418C103.349 56.2783 102.295 55.9965 101.047 55.9965C100.135 55.9965 99.3367 56.1441 98.6524 56.4393C97.9748 56.7345 97.4448 57.1404 97.0624 57.657C96.6867 58.1735 96.4989 58.7606 96.4989 59.418C96.4989 59.9681 96.6297 60.4411 96.8914 60.8369C97.1597 61.226 97.5019 61.5514 97.9178 61.8131C98.3338 62.068 98.7698 62.2793 99.226 62.447C99.6822 62.6081 100.102 62.7389 100.484 62.8395L102.577 63.403C103.114 63.5439 103.711 63.7385 104.368 63.9867C105.032 64.2349 105.666 64.5737 106.27 65.0031C106.881 65.4257 107.384 65.9692 107.78 66.6333C108.176 67.2975 108.373 68.1126 108.373 69.0787C108.373 70.1923 108.082 71.1987 107.498 72.0976C106.921 72.9966 106.076 73.7111 104.962 74.2411C103.855 74.7711 102.51 75.0361 100.927 75.0361C99.4508 75.0361 98.1727 74.7979 97.0926 74.3216C96.0192 73.8453 95.1739 73.1811 94.5567 72.3291C93.9462 71.4771 93.6007 70.4875 93.5202 69.3605H96.0964C96.1635 70.1387 96.4251 70.7827 96.8813 71.2926C97.3442 71.7958 97.9279 72.1714 98.6323 72.4197C99.3434 72.6612 100.108 72.7819 100.927 72.7819C101.879 72.7819 102.735 72.6276 103.493 72.319C104.251 72.0037 104.851 71.5677 105.294 71.0108C105.737 70.4473 105.958 69.7898 105.958 69.0384C105.958 68.3541 105.767 67.7973 105.385 67.3679C105.002 66.9386 104.499 66.5897 103.875 66.3214C103.251 66.053 102.577 65.8182 101.853 65.6169L99.3166 64.8924C97.7065 64.4295 96.4318 63.7687 95.4926 62.9099C94.5533 62.0512 94.0837 60.9275 94.0837 59.5388C94.0837 58.3849 94.3957 57.3785 95.0196 56.5198C95.6502 55.6544 96.4955 54.9835 97.5555 54.5072C98.6222 54.0241 99.813 53.7826 101.128 53.7826C102.456 53.7826 103.637 54.0208 104.67 54.4971C105.703 54.9667 106.522 55.6108 107.126 56.4292C107.736 57.2477 108.058 58.1769 108.092 59.2168H105.677Z" fill="white"/>
<path d="M43.8008 43.7002C47.1008 22.3002 57.5008 6.7002 69.9008 6.7002C82.3008 6.7002 92.7008 22.3002 96.0008 43.7002" stroke="white" stroke-width="7" stroke-miterlimit="10" stroke-linecap="round" stroke-linejoin="round"/>
<path d="M22.6016 43.7002H117.002" stroke="white" stroke-width="7" stroke-miterlimit="10" stroke-linecap="round" stroke-linejoin="round"/>
<path d="M69.8008 43.7001V9.6001" stroke="white" stroke-width="7" stroke-miterlimit="10" stroke-linecap="round" stroke-linejoin="round"/>
<path d="M69.8008 122.4C99.6242 122.4 123.801 96.4774 123.801 64.5001C123.801 32.5228 99.6242 6.6001 69.8008 6.6001C39.9774 6.6001 15.8008 32.5228 15.8008 64.5001C15.8008 96.4774 39.9774 122.4 69.8008 122.4Z" stroke="white" stroke-width="7" stroke-miterlimit="10" stroke-linecap="round" stroke-linejoin="round"/>
</svg>
