<svg width="141" height="129" viewBox="0 0 141 129" fill="none" xmlns="http://www.w3.org/2000/svg">
<g clip-path="url(#clip0_839_89)">
<path d="M99.1016 112.2V83.2C99.1016 78.1 94.6016 74 89.1016 74H51.7016C46.1016 74 41.6016 78.1 41.6016 83.3V112.3" stroke="white" stroke-width="7" stroke-linecap="round" stroke-linejoin="round"/>
<path d="M54.1016 112.2V91.8999" stroke="white" stroke-width="7" stroke-linecap="round" stroke-linejoin="round"/>
<path d="M70.7031 64.8001C79.5397 64.8001 86.7031 58.0396 86.7031 49.7001C86.7031 41.3606 79.5397 34.6001 70.7031 34.6001C61.8666 34.6001 54.7031 41.3606 54.7031 49.7001C54.7031 58.0396 61.8666 64.8001 70.7031 64.8001Z" stroke="white" stroke-width="7" stroke-linecap="round" stroke-linejoin="round"/>
<path d="M87.5 112.2V91.8999" stroke="white" stroke-width="7" stroke-linecap="round" stroke-linejoin="round"/>
<path d="M136.6 68.8999V50.2999C136.6 47.0999 134 44.3999 130.7 44.3999H108.9C105.7 44.3999 103 47.0999 103 50.2999V68.8999" stroke="white" stroke-width="7" stroke-linecap="round" stroke-linejoin="round"/>
<path d="M119.8 36.1998C124.936 36.1998 129.1 31.857 129.1 26.4998C129.1 21.1426 124.936 16.7998 119.8 16.7998C114.664 16.7998 110.5 21.1426 110.5 26.4998C110.5 31.857 114.664 36.1998 119.8 36.1998Z" stroke="white" stroke-width="7" stroke-linecap="round" stroke-linejoin="round"/>
<path d="M37.6 68.8999V50.2999C37.6 47.0999 35 44.3999 31.7 44.3999H9.9C6.7 44.3999 4 47.0999 4 50.2999V68.8999" stroke="white" stroke-width="7" stroke-linecap="round" stroke-linejoin="round"/>
<path d="M20.8 36.1998C25.9362 36.1998 30.1 31.857 30.1 26.4998C30.1 21.1426 25.9362 16.7998 20.8 16.7998C15.6638 16.7998 11.5 21.1426 11.5 26.4998C11.5 31.857 15.6638 36.1998 20.8 36.1998Z" stroke="white" stroke-width="7" stroke-linecap="round" stroke-linejoin="round"/>
</g>
<defs>
<clipPath id="clip0_839_89">
<rect width="140.6" height="129" fill="white"/>
</clipPath>
</defs>
</svg>
