<svg width="124" height="124" viewBox="0 0 124 124" fill="none" xmlns="http://www.w3.org/2000/svg">
<path d="M35.8984 82.2998C39.1984 103.7 49.5984 119.3 61.9984 119.3C74.3984 119.3 84.7984 103.7 88.0984 82.2998" stroke="white" stroke-width="7" stroke-miterlimit="10" stroke-linecap="round" stroke-linejoin="round"/>
<path d="M14.7031 82.2998H109.103" stroke="white" stroke-width="7" stroke-miterlimit="10" stroke-linecap="round" stroke-linejoin="round"/>
<path d="M61.8984 82.2998V116.4" stroke="white" stroke-width="7" stroke-miterlimit="10" stroke-linecap="round" stroke-linejoin="round"/>
<path d="M37.5727 51.0644V71.6738H35.1575L23.927 55.4922H23.7257V71.6738H21.23V51.0644H23.6452L34.916 67.2863H35.1173V51.0644H37.5727ZM42.5665 71.6738V51.0644H55.0047V53.2783H45.0622V60.242H54.3606V62.4559H45.0622V69.4599H55.1657V71.6738H42.5665ZM63.2464 71.6738L57.611 51.0644H60.147L64.454 67.8498H64.6553L69.0428 51.0644H71.8605L76.2481 67.8498H76.4493L80.7564 51.0644H83.2923L77.6569 71.6738H75.0807L70.5322 55.2507H70.3712L65.8226 71.6738H63.2464ZM97.6726 56.2168C97.5519 55.197 97.0621 54.4054 96.2034 53.8418C95.3447 53.2783 94.2914 52.9965 93.0436 52.9965C92.1312 52.9965 91.3328 53.1441 90.6485 53.4393C89.9709 53.7345 89.4409 54.1404 89.0585 54.657C88.6828 55.1735 88.495 55.7606 88.495 56.418C88.495 56.9681 88.6258 57.4411 88.8875 57.8369C89.1558 58.226 89.498 58.5514 89.9139 58.8131C90.3298 59.068 90.7659 59.2793 91.2221 59.447C91.6783 59.6081 92.0976 59.7389 92.48 59.8395L94.5732 60.403C95.1099 60.5439 95.707 60.7385 96.3644 60.9867C97.0286 61.2349 97.6626 61.5737 98.2664 62.0031C98.8769 62.4257 99.38 62.9692 99.7758 63.6333C100.172 64.2975 100.37 65.1126 100.37 66.0787C100.37 67.1923 100.078 68.1987 99.4941 69.0976C98.9171 69.9966 98.0718 70.7111 96.9581 71.2411C95.8512 71.7711 94.5061 72.0361 92.9228 72.0361C91.4469 72.0361 90.1688 71.7979 89.0887 71.3216C88.0153 70.8453 87.17 70.1811 86.5528 69.3291C85.9423 68.4771 85.5968 67.4875 85.5163 66.3605H88.0925C88.1596 67.1387 88.4212 67.7827 88.8774 68.2926C89.3403 68.7958 89.924 69.1714 90.6284 69.4197C91.3395 69.6612 92.1043 69.7819 92.9228 69.7819C93.8755 69.7819 94.7308 69.6276 95.4889 69.319C96.247 69.0037 96.8474 68.5677 97.2902 68.0108C97.733 67.4473 97.9544 66.7898 97.9544 66.0384C97.9544 65.3541 97.7632 64.7973 97.3808 64.3679C96.9984 63.9386 96.4952 63.5897 95.8713 63.3214C95.2474 63.053 94.5732 62.8182 93.8486 62.6169L91.3127 61.8924C89.7026 61.4295 88.4279 60.7687 87.4887 59.9099C86.5494 59.0512 86.0798 57.9275 86.0798 56.5388C86.0798 55.3849 86.3918 54.3785 87.0157 53.5198C87.6463 52.6544 88.4916 51.9835 89.5516 51.5072C90.6183 51.0241 91.8091 50.7826 93.1241 50.7826C94.4524 50.7826 95.6332 51.0208 96.6663 51.4971C97.6995 51.9667 98.5179 52.6108 99.1217 53.4292C99.7322 54.2477 100.054 55.1769 100.088 56.2168H97.6726Z" fill="white"/>
<path d="M35.7969 40.7002C39.0969 19.3002 49.4969 3.7002 61.8969 3.7002C74.2969 3.7002 84.6969 19.3002 87.9969 40.7002" stroke="white" stroke-width="7" stroke-miterlimit="10" stroke-linecap="round" stroke-linejoin="round"/>
<path d="M14.6016 40.7002H109.002" stroke="white" stroke-width="7" stroke-miterlimit="10" stroke-linecap="round" stroke-linejoin="round"/>
<path d="M61.7969 40.7001V6.6001" stroke="white" stroke-width="7" stroke-miterlimit="10" stroke-linecap="round" stroke-linejoin="round"/>
<path d="M61.7969 119.4C91.6203 119.4 115.797 93.4774 115.797 61.5001C115.797 29.5228 91.6203 3.6001 61.7969 3.6001C31.9735 3.6001 7.79688 29.5228 7.79688 61.5001C7.79688 93.4774 31.9735 119.4 61.7969 119.4Z" stroke="white" stroke-width="7" stroke-miterlimit="10" stroke-linecap="round" stroke-linejoin="round"/>
</svg>
