<svg width="141" height="129" viewBox="0 0 141 129" fill="none" xmlns="http://www.w3.org/2000/svg">
<path d="M39.1984 55.7998V93.6998C39.1984 100.2 33.8984 105.5 27.3984 105.5H26.1984C19.6984 105.5 14.3984 100.2 14.3984 93.6998V55.7998H39.1984Z" stroke="white" stroke-width="7" stroke-miterlimit="10" stroke-linecap="round" stroke-linejoin="round"/>
<path d="M41.6992 105.5H113.799H114.399C120.899 105.5 126.199 100.2 126.199 93.7V93.1V25.8C126.199 24.5 124.699 23.5 123.699 23.5H41.0992C40.0992 23.5 39.1992 24.5 39.1992 25.8V90.6" stroke="white" stroke-width="7" stroke-miterlimit="10" stroke-linecap="round" stroke-linejoin="round"/>
<path d="M41.7008 105.5H26.8008" stroke="white" stroke-width="7" stroke-miterlimit="10" stroke-linecap="round" stroke-linejoin="round"/>
<path d="M90.8992 92.4998V73.3998C90.8992 69.9998 87.8992 67.2998 84.2992 67.2998H59.7992C56.0992 67.2998 53.1992 69.9998 53.1992 73.3998V92.4998" stroke="white" stroke-width="7" stroke-linecap="round" stroke-linejoin="round"/>
<path d="M72 39.7998C77.8 39.7998 82.5 44.1998 82.5 49.6998C82.5 55.1998 77.8 59.5998 72 59.5998C66.2 59.5998 61.5 55.1998 61.5 49.6998C61.5 44.1998 66.2 39.7998 72 39.7998Z" stroke="white" stroke-width="7" stroke-linecap="round" stroke-linejoin="round"/>
<path d="M112.198 77.6V63.1C112.198 60.5 109.898 58.5 107.198 58.5H88.5977" stroke="white" stroke-width="6" stroke-linecap="round" stroke-linejoin="round"/>
<path d="M98.8984 36.5C103.298 36.5 106.898 39.8 106.898 44C106.898 48.2 103.298 51.5 98.8984 51.5C94.4984 51.5 90.8984 48.2 90.8984 44C90.8984 39.8 94.4984 36.5 98.8984 36.5Z" stroke="white" stroke-width="6" stroke-linecap="round" stroke-linejoin="round"/>
</svg>
