<svg width="141" height="129" viewBox="0 0 141 129" fill="none" xmlns="http://www.w3.org/2000/svg">
<path d="M86.8986 120.6L86.9986 109C87.9986 106.8 90.4986 105.6 92.7986 106.2L99.7986 107.9C105.499 109.3 111.199 105.7 112.299 99.9L116.199 79.1C116.399 78.2 116.799 77.3 117.499 76.6L121.199 72.6C123.999 69.6 123.999 65 121.099 62.1L113.599 54.4C111.599 52.3 110.499 49.5 110.599 46.6C111.099 35.3 108.199 5.5 62.4986 5.5C7.39858 5.5 10.3986 58.8 35.4986 86C36.4986 87.1 36.9986 88.7 36.6986 90.2L36.7986 117.7C36.2986 120.8 38.6986 123.5 41.7986 123.5H82.1986C84.2986 123.5 86.0986 122.4 86.8986 120.6Z" stroke="white" stroke-width="7" stroke-miterlimit="10" stroke-linecap="round" stroke-linejoin="round"/>
<path d="M49.3008 55.4C49.3008 46.3 56.5008 39 65.6008 38.8C74.6008 38.6 82.2008 45.8 82.6008 54.7C82.7008 57.8 82.0008 60.6 80.7008 63.1C80.0008 64.5 79.3008 66.1 78.7008 67.6L75.3008 77.4H66.1008H55.9008L53.3008 68.8C52.7008 66.8 52.0008 64.8 51.1008 63C49.9008 60.7 49.3008 58.1 49.3008 55.4Z" stroke="white" stroke-width="6" stroke-miterlimit="10" stroke-linecap="round" stroke-linejoin="round"/>
<path d="M55.7008 86.9998H76.6008C77.3008 86.9998 77.8008 86.4998 77.8008 85.7998L77.6008 77.2998H54.3008L54.5008 85.7998C54.5008 86.5998 55.1008 86.9998 55.7008 86.9998Z" stroke="white" stroke-width="6" stroke-miterlimit="10" stroke-linecap="round" stroke-linejoin="round"/>
<path d="M66.1016 22.7002V29.7002" stroke="white" stroke-width="6" stroke-miterlimit="10" stroke-linecap="round" stroke-linejoin="round"/>
<path d="M52.3984 25.7998L55.9984 31.6998" stroke="white" stroke-width="6" stroke-miterlimit="10" stroke-linecap="round" stroke-linejoin="round"/>
<path d="M41.8984 33.3999L47.1984 37.7999" stroke="white" stroke-width="6" stroke-miterlimit="10" stroke-linecap="round" stroke-linejoin="round"/>
<path d="M79.9984 25.7998L76.3984 31.6998" stroke="white" stroke-width="6" stroke-miterlimit="10" stroke-linecap="round" stroke-linejoin="round"/>
<path d="M90.6008 33.3999L85.3008 37.7999" stroke="white" stroke-width="6" stroke-miterlimit="10" stroke-linecap="round" stroke-linejoin="round"/>
<path d="M95.6016 46.8002L88.6016 46.7002" stroke="white" stroke-width="6" stroke-miterlimit="10" stroke-linecap="round" stroke-linejoin="round"/>
<path d="M36.1992 46.8002L43.1992 46.7002" stroke="white" stroke-width="6" stroke-miterlimit="10" stroke-linecap="round" stroke-linejoin="round"/>
</svg>
