<?xml version="1.0" encoding="utf-8"?>
<!-- Generator: Adobe Illustrator 25.4.1, SVG Export Plug-In . SVG Version: 6.00 Build 0)  -->
<svg version="1.1" id="Слой_1" xmlns="http://www.w3.org/2000/svg" xmlns:xlink="http://www.w3.org/1999/xlink" x="0px" y="0px"
	 viewBox="0 0 140.6 129" style="enable-background:new 0 0 140.6 129;" xml:space="preserve">
<style type="text/css">
	.st0{fill:none;stroke:#231F20;stroke-width:7;stroke-linecap:round;stroke-linejoin:round;}
</style>
<g>
	<path class="st0" d="M122.1,92.2h-13.3c-2.9,0-5.3,3-5.3,6.6v14.6"/>
	<path class="st0" d="M45.7,31L45.7,31c-1.3,0-2.3-1.2-2.3-2.7V14.7c0-1.5,1-2.7,2.3-2.7c1.3,0,2.3,1.2,2.3,2.7v13.5
		C48,29.7,46.9,31,45.7,31z"/>
	<path class="st0" d="M96.8,29.8L96.8,29.8c1.3,0,2.3-1.2,2.3-2.7V13.5c0-1.5-1-2.7-2.3-2.7c-1.3,0-2.3,1.2-2.3,2.7V27
		C94.5,28.6,95.5,29.8,96.8,29.8z"/>
	<path class="st0" d="M124.6,96.7V31.2v0c0-5.4-3.8-9.7-8.4-9.7h-6.5H105h-9.4"/>
	<path class="st0" d="M90.9,21.5H50.3H25.6c-4.9,0-9,4.7-9,10.4v74.3c0,4,2.8,7.2,6.2,7.2h0h86"/>
	<line class="st0" x1="124.6" y1="96.7" x2="109.6" y2="113.4"/>
	<line class="st0" x1="17.9" y1="52.5" x2="123.8" y2="52.5"/>
</g>
</svg>
