<?xml version="1.0" encoding="utf-8"?>
<!-- Generator: Adobe Illustrator 25.4.1, SVG Export Plug-In . SVG Version: 6.00 Build 0)  -->
<svg version="1.1" id="Слой_1" xmlns="http://www.w3.org/2000/svg" xmlns:xlink="http://www.w3.org/1999/xlink" x="0px" y="0px"
	 viewBox="0 0 140.6 129" style="enable-background:new 0 0 140.6 129;" xml:space="preserve">
<style type="text/css">
	.st0{fill:none;stroke:#231F20;stroke-width:7;stroke-linecap:round;stroke-linejoin:round;}
</style>
<path class="st0" d="M99.1,112.2v-29c0-5.1-4.5-9.2-10-9.2H51.7c-5.6,0-10.1,4.1-10.1,9.3v29"/>
<line class="st0" x1="54.1" y1="112.2" x2="54.1" y2="91.9"/>
<ellipse class="st0" cx="70.7" cy="49.7" rx="16" ry="15.1"/>
<line class="st0" x1="87.5" y1="112.2" x2="87.5" y2="91.9"/>
<path class="st0" d="M136.6,68.9V50.3c0-3.2-2.6-5.9-5.9-5.9h-21.8c-3.2,0-5.9,2.7-5.9,5.9v18.6"/>
<ellipse class="st0" cx="119.8" cy="26.5" rx="9.3" ry="9.7"/>
<path class="st0" d="M37.6,68.9V50.3c0-3.2-2.6-5.9-5.9-5.9H9.9c-3.2,0-5.9,2.7-5.9,5.9v18.6"/>
<ellipse class="st0" cx="20.8" cy="26.5" rx="9.3" ry="9.7"/>
</svg>
