<?xml version="1.0" encoding="utf-8"?>
<!-- Generator: Adobe Illustrator 25.4.1, SVG Export Plug-In . SVG Version: 6.00 Build 0)  -->
<svg version="1.1" id="Слой_1" xmlns="http://www.w3.org/2000/svg" xmlns:xlink="http://www.w3.org/1999/xlink" x="0px" y="0px"
	 viewBox="0 0 125 125" style="enable-background:new 0 0 125 125;" xml:space="preserve">
<style type="text/css">
	.st0{fill:none;stroke:#231F20;stroke-width:7;stroke-linecap:round;stroke-linejoin:round;stroke-miterlimit:10;}
	.st1{fill:#1C1A1A;stroke:#231F20;stroke-width:3;stroke-linecap:round;stroke-linejoin:round;stroke-miterlimit:10;}
</style>
<path class="st0" d="M97.3,6.7h-35h-35c0,0-3.2,73.1,35,73.1C100.4,79.8,97.3,6.7,97.3,6.7z"/>
<path class="st0" d="M98.2,20.2H111c0,0,1,14.3-3.2,24.7c-4.2,10.4-17.9,15.5-17.9,15.5l0,0"/>
<path class="st0" d="M27.5,20.2H14.8c0,0-2.1,12.3,3.2,24.7s17.8,15.5,17.8,15.5l0,0"/>
<line class="st0" x1="51.9" y1="77.6" x2="46.3" y2="103.7"/>
<line class="st0" x1="72.8" y1="77.6" x2="78.4" y2="103.7"/>
<rect x="35.8" y="105.7" class="st0" width="53.1" height="14"/>
<polygon class="st1" points="63.9,27.3 65.7,35.2 73.9,33.3 75.9,41.6 67.7,43.5 69.5,51.5 60.8,53.4 59,45.7 50.6,47.5 48.7,39.1 
	57,37.2 55.1,29.3 "/>
</svg>
