<?xml version="1.0" encoding="utf-8"?>
<!-- Generator: Adobe Illustrator 25.4.1, SVG Export Plug-In . SVG Version: 6.00 Build 0)  -->
<svg version="1.1" id="Слой_1" xmlns="http://www.w3.org/2000/svg" xmlns:xlink="http://www.w3.org/1999/xlink" x="0px" y="0px"
	 viewBox="0 0 140.6 129" style="enable-background:new 0 0 140.6 129;" xml:space="preserve">
<style type="text/css">
	.st0{fill:none;stroke:#231F20;stroke-width:8;stroke-linecap:round;stroke-linejoin:round;}
	.st1{fill:#231F20;stroke:#231F20;stroke-width:0.75;stroke-linecap:round;stroke-linejoin:round;}
	.st2{fill:#231F20;stroke:#231F20;stroke-width:0.75;stroke-miterlimit:10;}
</style>
<g>
	<path class="st0" d="M8.9,115.5h106.5c6.2,0,11.2-5,11.2-11.2v0V11.2"/>
	<path class="st1" d="M31.3,97.1L31.3,97.1c2.6,0,4.7-2,4.7-4.4V70.8c0-2.4-2.1-4.4-4.7-4.4s-4.7,2-4.7,4.4v21.8
		C26.6,95.1,28.7,97.1,31.3,97.1z"/>
	<path class="st2" d="M96.8,95.9L96.8,95.9c4.3,0,7.8-4.1,7.8-9.2V41.6c0-5-3.5-9.2-7.8-9.2S89,36.6,89,41.6v45.1
		C89,91.8,92.5,95.9,96.8,95.9z"/>
	<path class="st1" d="M62.7,95.9L62.7,95.9c3.1,0,5.7-3,5.7-6.7V56.5c0-3.7-2.5-6.7-5.7-6.7s-5.7,3-5.7,6.7v32.8
		C57.1,92.9,59.6,95.9,62.7,95.9z"/>
</g>
</svg>
