<?xml version="1.0" encoding="utf-8"?>
<!-- Generator: Adobe Illustrator 25.4.1, SVG Export Plug-In . SVG Version: 6.00 Build 0)  -->
<svg version="1.1" id="Слой_1" xmlns="http://www.w3.org/2000/svg" xmlns:xlink="http://www.w3.org/1999/xlink" x="0px" y="0px"
	 viewBox="0 0 140.6 129" style="enable-background:new 0 0 140.6 129;" xml:space="preserve">
<style type="text/css">
	.st0{fill:none;stroke:#231F20;stroke-width:7;stroke-linecap:round;stroke-linejoin:round;}
	.st1{fill:#1D1D1B;stroke:#231F20;stroke-width:0.75;stroke-linecap:round;stroke-linejoin:round;}
</style>
<path class="st0" d="M7.7,107c0,6.4,5.2,11.6,11.7,11.6H121c6.5,0,11.8-5.3,11.8-11.8V40.2c0-6.6-5.4-11.9-12-11.9H19.6
	c-6.6,0-11.9,5.3-11.9,11.8V107z"/>
<path class="st0" d="M120.9,25.2v-3.7c0-6.2-4.9-11.2-10.8-11.2H18.5c-5.9,0-10.7,4.9-10.7,11v16.1"/>
<path class="st0" d="M92.6,79.9c0,1.5,1.6,2.8,3.7,2.8h32c2.1,0,3.7-1.3,3.7-2.8V64.1c0-1.6-1.7-2.8-3.8-2.8H96.4
	c-2.1,0-3.7,1.3-3.7,2.8V79.9z"/>
<circle class="st1" cx="105.5" cy="72" r="4.5"/>
</svg>
