<svg width="66" height="66" viewBox="0 0 66 66" fill="none" xmlns="http://www.w3.org/2000/svg">
<path d="M33 66C51.2254 66 66 51.2254 66 33C66 14.7746 51.2254 0 33 0C14.7746 0 0 14.7746 0 33C0 51.2254 14.7746 66 33 66Z" fill="#64C4FF"/>
<path d="M62.0226 23.2035C62.0226 22.268 61.2643 21.5098 60.3288 21.5098H15.0865C14.2442 21.5098 13.5614 22.1926 13.5614 23.0349V55.4079C13.5614 57.4085 11.9396 59.0303 9.93896 59.0303H53.2846C56.8592 56.2406 59.845 52.7315 62.0225 48.7196L62.0226 23.2035Z" fill="#FAC149"/>
<path d="M17.7119 55.4079V23.0349C17.7119 22.1926 18.3947 21.5098 19.237 21.5098H15.0865C14.2442 21.5098 13.5614 22.1926 13.5614 23.0349V55.4079C13.5614 57.4085 11.9396 59.0303 9.93896 59.0303H14.0895C16.09 59.0303 17.7119 57.4084 17.7119 55.4079Z" fill="#F8A748"/>
<path d="M13.5608 55.4347C13.5609 55.4254 13.5615 55.4163 13.5615 55.407V23.0341C13.5615 22.192 14.2441 21.509 15.0865 21.509H15.0867C16.6422 21.509 46.7856 21.509 48.3453 21.509C48.3262 21.2139 48.3155 20.9165 48.3155 20.6164C48.3155 19.6885 48.4086 18.7826 48.5849 17.9066H31.1468C30.7778 17.9066 30.4341 17.7196 30.2337 17.4097L27.9707 13.9098C27.6518 13.5224 27.1761 13.2979 26.6743 13.2979H8.11362C7.12104 13.2979 6.31641 14.1025 6.31641 15.0951V55.3254C6.31641 57.345 7.96022 59.0476 9.97554 59.0285C11.9488 59.0088 13.5453 57.4137 13.5608 55.4347Z" fill="#FCD597"/>
<path d="M17.7213 19.4509C17.7213 16.0527 20.4761 13.2979 23.8743 13.2979H8.11349C7.12091 13.2979 6.31641 14.1024 6.31641 15.0949V55.3252C6.31641 57.3447 7.96022 59.0473 9.97554 59.0283C11.9688 59.008 13.5455 57.3946 13.5607 55.4345C13.5607 55.4252 13.5613 55.4161 13.5613 55.4068V23.034C13.5613 22.1919 14.244 21.5088 15.0864 21.5088H15.0865H17.7213V19.4509Z" fill="#FAC149"/>
<path d="M52.0541 34.2635C59.5908 34.2635 65.7005 28.1538 65.7005 20.6171C65.7005 13.0804 59.5908 6.9707 52.0541 6.9707C44.5174 6.9707 38.4077 13.0804 38.4077 20.6171C38.4077 28.1538 44.5174 34.2635 52.0541 34.2635Z" fill="#EFEFEF"/>
<path d="M43.6584 25.4645C40.2255 19.5186 41.7765 12.0637 47.014 7.93457C46.4085 8.17614 45.8128 8.46309 45.2317 8.79863C38.7048 12.5671 36.4685 20.913 40.2367 27.44C44.005 33.9671 52.3511 36.2032 58.8781 32.435C59.4592 32.0995 60.0056 31.7272 60.5174 31.3236C54.3228 33.7947 47.0912 31.4105 43.6584 25.4645Z" fill="#DDDDDD"/>
<path d="M60.7891 50.805C63.0159 47.3368 64.6089 43.4236 65.4102 39.2295H33.4556C32.5222 39.2295 31.7583 39.9933 31.7583 40.9268V49.1078C31.7583 50.0412 32.5221 50.8051 33.4556 50.8051H60.789V50.805H60.7891Z" fill="#EFEFEF"/>
<path d="M38.7262 49.1078V40.9268C38.7262 39.9934 39.49 39.2295 40.4235 39.2295H33.4556C32.5222 39.2295 31.7583 39.9933 31.7583 40.9268V49.1078C31.7583 50.0412 32.5221 50.8051 33.4556 50.8051H40.4235C39.49 50.8051 38.7262 50.0414 38.7262 49.1078Z" fill="#DDDDDD"/>
<path d="M40.5658 43.1778C40.1517 42.7637 39.4799 42.7636 39.0658 43.1779L38.7266 43.517L38.3875 43.1779C37.9733 42.7636 37.3016 42.7637 36.8874 43.1778C36.4731 43.5921 36.4731 44.2637 36.8874 44.6778L37.2267 45.0171L36.8874 45.3564C36.4731 45.7706 36.4731 46.4422 36.8874 46.8565C37.0945 47.0636 37.366 47.167 37.6375 47.167C37.909 47.167 38.1804 47.0634 38.3876 46.8564L38.7267 46.5172L39.0659 46.8564C39.273 47.0636 39.5445 47.167 39.816 47.167C40.0875 47.167 40.3589 47.0634 40.5661 46.8565C40.9804 46.4422 40.9804 45.7706 40.5661 45.3564L40.2268 45.0171L40.5661 44.6778C40.9801 44.2637 40.9801 43.5921 40.5658 43.1778Z" fill="#BAB6B3"/>
<path d="M47.2299 43.1778C46.8158 42.7637 46.144 42.7636 45.7298 43.1779L45.3907 43.517L45.0515 43.1779C44.6374 42.7636 43.9656 42.7637 43.5515 43.1778C43.1373 43.5919 43.1372 44.2637 43.5513 44.6778L43.8906 45.0171L43.5513 45.3564C43.1372 45.7706 43.1372 46.4423 43.5515 46.8565C43.7586 47.0636 44.0301 47.167 44.3016 47.167C44.573 47.167 44.8445 47.0634 45.0517 46.8564L45.3908 46.5172L45.73 46.8564C45.9371 47.0636 46.2086 47.167 46.4801 47.167C46.7516 47.167 47.023 47.0634 47.2302 46.8565C47.6444 46.4423 47.6445 45.7706 47.2303 45.3564L46.891 45.0171L47.2303 44.6778C47.6442 44.2637 47.6441 43.5919 47.2299 43.1778Z" fill="#BAB6B3"/>
<path d="M53.894 43.1778C53.4798 42.7637 52.8081 42.7636 52.3939 43.1779L52.0548 43.517L51.7156 43.1779C51.3014 42.7636 50.6297 42.7637 50.2155 43.1778C49.8014 43.5919 49.8012 44.2637 50.2154 44.6778L50.5547 45.0171L50.2154 45.3564C49.8012 45.7706 49.8012 46.4423 50.2155 46.8565C50.4227 47.0636 50.6942 47.167 50.9656 47.167C51.2371 47.167 51.5086 47.0634 51.7157 46.8564L52.0549 46.5172L52.394 46.8564C52.6012 47.0636 52.8727 47.167 53.1441 47.167C53.4156 47.167 53.6871 47.0634 53.8942 46.8565C54.3084 46.4423 54.3085 45.7706 53.8944 45.3564L53.5551 45.0171L53.8944 44.6778C54.3083 44.2637 54.3083 43.5919 53.894 43.1778Z" fill="#BAB6B3"/>
<path d="M60.5585 43.1778C60.1443 42.7637 59.4726 42.7636 59.0584 43.1779L58.7193 43.517L58.3801 43.1779C57.966 42.7636 57.2942 42.7637 56.8801 43.1778C56.4658 43.5921 56.4658 44.2637 56.8801 44.6778L57.2193 45.0171L56.8801 45.3564C56.4658 45.7706 56.4658 46.4422 56.8801 46.8565C57.0872 47.0636 57.3587 47.167 57.6302 47.167C57.9016 47.167 58.1731 47.0634 58.3803 46.8564L58.7194 46.5172L59.0586 46.8564C59.2657 47.0636 59.5372 47.167 59.8087 47.167C60.0801 47.167 60.3516 47.0634 60.5588 46.8565C60.9731 46.4422 60.9731 45.7706 60.5588 45.3564L60.2195 45.0171L60.5588 44.6778C60.9727 44.2637 60.9727 43.5921 60.5585 43.1778Z" fill="#BAB6B3"/>
<path d="M55.9529 19.3748C55.3671 19.3748 54.8921 18.8999 54.8921 18.3141V15.4541C54.8921 13.8896 53.6191 12.6168 52.0546 12.6168C50.4901 12.6168 49.2172 13.8897 49.2172 15.4541V18.3141C49.2172 18.8999 48.7422 19.3748 48.1565 19.3748C47.5707 19.3748 47.0957 18.8999 47.0957 18.3141V15.4541C47.0957 12.7197 49.3204 10.4951 52.0547 10.4951C54.7891 10.4951 57.0138 12.7198 57.0138 15.4541V18.3141C57.0136 18.8999 56.5386 19.3748 55.9529 19.3748Z" fill="#DDDDDD"/>
<path d="M53.1232 10.6123C52.7788 10.5362 52.4216 10.4951 52.0547 10.4951C49.3204 10.4951 47.0957 12.7197 47.0957 15.4541V18.3141C47.0957 18.8999 47.5707 19.3748 48.1565 19.3748C48.7422 19.3748 49.2172 18.8999 49.2172 18.3141V15.4541C49.2172 15.2982 49.2304 15.1453 49.2548 14.996C49.4539 12.8341 51.046 11.0706 53.1232 10.6123Z" fill="#CCCCCC"/>
<path d="M57.0656 28.6728H47.0443C46.4609 28.6728 45.9878 28.1997 45.9878 27.6163V18.9637C45.9878 18.3803 46.4609 17.9072 47.0443 17.9072H57.0656C57.649 17.9072 58.1221 18.3803 58.1221 18.9637V27.6163C58.1221 28.1999 57.6492 28.6728 57.0656 28.6728Z" fill="#FC5B6F"/>
<path d="M49.0845 27.6163V18.9637C49.0845 18.3803 49.5576 17.9072 50.141 17.9072H47.0443C46.4609 17.9072 45.9878 18.3803 45.9878 18.9637V27.6163C45.9878 28.1997 46.4609 28.6728 47.0443 28.6728H50.141C49.5575 28.6728 49.0845 28.1999 49.0845 27.6163Z" fill="#F74352"/>
<path d="M53.8801 22.5746C53.8801 21.5663 53.0629 20.749 52.0546 20.749C51.0463 20.749 50.229 21.5663 50.229 22.5746C50.229 23.1868 50.5313 23.7273 50.9938 24.0583V25.1369C50.9938 25.7227 51.4688 26.1976 52.0546 26.1976C52.6403 26.1976 53.1153 25.7227 53.1153 25.1369V24.0583C53.5779 23.7273 53.8801 23.1868 53.8801 22.5746Z" fill="#F74352"/>
<path d="M52.358 22.5736C52.358 21.9631 52.6588 21.424 53.1191 21.0926C52.8192 20.8767 52.4522 20.748 52.0546 20.748C51.0463 20.748 50.229 21.5653 50.229 22.5736C50.229 23.1858 50.5314 23.7263 50.9938 24.0575V25.136C50.9938 25.7219 51.4688 26.1968 52.0546 26.1968C52.6403 26.1968 53.1153 25.7219 53.1153 25.136V24.0575C53.1166 24.0566 53.1178 24.0554 53.1191 24.0545C52.6589 23.7231 52.358 23.1841 52.358 22.5736Z" fill="#E8364C"/>
</svg>
