<svg width="132" height="101" viewBox="0 0 132 101" fill="none" xmlns="http://www.w3.org/2000/svg">
<path d="M30 3.6001H13.3C7.9 3.6001 3.5 8.7001 3.5 15.0001V85.4001C3.5 91.7001 7.9 96.8001 13.3 96.8001H118.1C123.5 96.8001 127.9 91.7001 127.9 85.4001V15.0001C127.9 8.7001 123.5 3.6001 118.1 3.6001H101.7C100.3 3.6001 31.5 3.6001 30 3.6001Z" stroke="black" stroke-width="7" stroke-miterlimit="10" stroke-linecap="round" stroke-linejoin="round"/>
<path d="M90.0992 57.4999L50.6992 36.8999C49.3992 36.1999 47.6992 37.1999 47.6992 38.6999V79.9999C47.6992 81.4999 49.2992 82.4999 50.6992 81.7999L90.0992 61.1999C91.5992 60.3999 91.5992 58.2999 90.0992 57.4999Z" stroke="black" stroke-width="7" stroke-miterlimit="10" stroke-linecap="round" stroke-linejoin="round"/>
<path d="M5.69922 20.2998H127.899" stroke="black" stroke-width="7" stroke-miterlimit="10" stroke-linecap="round" stroke-linejoin="round"/>
</svg>
