<svg width="138" height="121" viewBox="0 0 138 121" fill="none" xmlns="http://www.w3.org/2000/svg">
<path d="M51.1001 67.3999C51.1001 65.8999 51.3001 64.7 51.7001 63.6C52.1001 62.6 52.8001 61.6 53.7001 60.7C55.1001 59.4 56.3001 58.2 57.5001 57.2C58.7001 56.2 59.7001 55.2999 60.5001 54.3999C61.4001 53.4999 62.0001 52.6999 62.4001 51.8999C62.8001 51.0999 63.1001 50.4 63.1001 49.5C63.1001 47.9 62.6001 46.6 61.6001 45.7C60.6001 44.8 59.3001 44.2999 57.8001 44.2999C55.5001 44.2999 53.7001 44.9 52.5001 46.2C51.3001 47.5 50.6001 49.0999 50.5001 50.7999L39.1001 50.2999C39.6001 44.9999 41.6001 41.0999 44.9001 38.2999C48.2001 35.5999 52.5001 34.2 57.7001 34.2C59.9001 34.2 62.1001 34.4999 64.1001 35.0999C66.1001 35.6999 67.9001 36.5999 69.4001 37.8999C70.9001 39.0999 72.1001 40.7 73.0001 42.5C73.9001 44.4 74.3001 46.3999 74.3001 48.7999C74.3001 50.2999 74.1001 51.5 73.8001 52.7C73.5001 53.9 73.0001 55 72.3001 56.1C71.6001 57.3 70.7001 58.4 69.5001 59.6C68.3001 60.8 66.9001 61.9999 65.1001 63.3999C63.9001 64.2999 63.2001 65.1999 62.8001 65.9999C62.4001 66.8999 62.2001 67.7 62.2001 68.6V70.7999H51.1001V67.3999ZM49.7001 81.6C49.7001 80.7 49.9001 79.6999 50.2001 78.9999C50.5001 78.0999 51.1001 77.4999 51.7001 76.7999C52.3001 76.1999 53.0001 75.6999 53.9001 75.2999C54.8001 74.9999 55.6001 74.7999 56.5001 74.7999C57.4001 74.7999 58.4001 74.9999 59.1001 75.2999C60.0001 75.5999 60.6001 76.1999 61.3001 76.7999C61.9001 77.3999 62.4001 78.0999 62.8001 78.9999C63.1001 79.8999 63.3001 80.7 63.3001 81.6C63.3001 82.5 63.1001 83.5 62.8001 84.2C62.5001 85.1 61.9001 85.6999 61.3001 86.3999C60.7001 87.0999 60.0001 87.4999 59.1001 87.8999C58.2001 88.1999 57.4001 88.3999 56.5001 88.3999C55.6001 88.3999 54.6001 88.1999 53.9001 87.8999C53.0001 87.5999 52.4001 86.9999 51.7001 86.3999C51.1001 85.7999 50.6001 85.1 50.2001 84.2C50.0001 83.5 49.7001 82.6 49.7001 81.6Z" fill="white"/>
<path d="M91.5 100.7H18.8C11.7 100.7 6 95 6 87.9V34.5C6 27.6 11.6 22 18.5 22H102.1C109 22 114.5 27.6 114.5 34.4V88.4C114.5 95.2 109 100.7 102.2 100.7H99.1H91.5V100.7Z" stroke="white" stroke-width="11" stroke-linecap="round" stroke-linejoin="round"/>
<path d="M105.1 100.7L89.2998 114.9V100.7H105.1Z" fill="#231F20" stroke="white" stroke-width="11" stroke-miterlimit="10" stroke-linecap="round" stroke-linejoin="round"/>
<path d="M24.1001 21.2V18.5C24.1001 11.6 29.7001 6 36.6001 6H120.2C127 6 132.5 11.5 132.5 18.3V72C132.5 79 126.9 84.6 119.9 84.6H114.4" stroke="white" stroke-width="11" stroke-linecap="round" stroke-linejoin="round"/>
</svg>
