<svg width="42" height="39" viewBox="0 0 42 39" fill="none" xmlns="http://www.w3.org/2000/svg">
<path d="M19 1C27.28 1 34 7.72 34 16C34 24.28 27.28 31 19 31C10.72 31 4 24.28 4 16C4 7.72 10.72 1 19 1Z" fill="#FECC06" stroke="#FECC06"/>
<path d="M0 17.25L29.4 0L31.77 4.06995L2.38 21.3199L0 17.25ZM3.86 23.86L33.25 6.60999L38 14.75L8.60001 32L3.86 23.86Z" fill="#FFFC77"/>
<path d="M19 5C25.08 5 30 9.92 30 16C30 22.08 25.08 27 19 27C12.92 27 8 22.08 8 16C8 9.92 12.92 5 19 5Z" fill="#EE9F07"/>
<path d="M19 6C24.52 6 29 10.48 29 16C29 21.52 24.52 26 19 26C13.48 26 9 21.52 9 16C9 10.48 13.48 6 19 6Z" fill="#FECC06"/>
<path d="M15 20.71L32.05 39L42 30L24.95 14L18.55 16.5699L15 20.71ZM13 14.71L30.05 33L36 26L18.95 10L18.55 16.5699L13 14.71Z" fill="#EE9F07"/>
<path d="M19 10L20.98 13.46L25 14.2L22.2 17.08L22.71 21L19 19.3199L15.29 21L15.8 17.08L13 14.2L17.02 13.46L19 10Z" fill="white"/>
</svg>
