<svg width="118" height="118" viewBox="0 0 118 118" fill="none" xmlns="http://www.w3.org/2000/svg">
<path d="M113.655 20.1719L36.4551 37.9719" stroke="black" stroke-width="7" stroke-miterlimit="10" stroke-linecap="round" stroke-linejoin="round"/>
<path d="M114.354 81.0717L113.854 7.27165C113.854 2.67165 109.554 -0.828348 104.954 0.171652L39.7541 14.5717C36.3541 15.3717 33.8541 18.3717 33.9541 21.9717L35.9541 99.0717" stroke="black" stroke-width="7" stroke-miterlimit="10" stroke-linecap="round" stroke-linejoin="round"/>
<path d="M22.0474 112.962C31.142 110.862 37.2656 103.75 35.7247 97.0767C34.1838 90.4037 25.562 86.6966 16.4674 88.7966C7.37269 90.8967 1.24913 98.0087 2.79 104.682C4.33087 111.355 12.9527 115.062 22.0474 112.962Z" stroke="black" stroke-width="7.0003" stroke-miterlimit="10.0004" stroke-linecap="round" stroke-linejoin="round"/>
<path d="M100.45 94.8563C109.544 92.7562 115.668 85.6442 114.127 78.9712C112.586 72.2982 103.964 68.5911 94.8697 70.6912C85.775 72.7912 79.6515 79.9032 81.1923 86.5762C82.7332 93.2492 91.355 96.9563 100.45 94.8563Z" stroke="black" stroke-width="7.0003" stroke-miterlimit="10.0004" stroke-linecap="round" stroke-linejoin="round"/>
</svg>
