<svg width="135" height="111" viewBox="0 0 135 111" fill="none" xmlns="http://www.w3.org/2000/svg">
<path d="M101.2 21.9002L96.1 6.8002C95.9 5.3002 94.6 4.2002 93 4.2002H42C40.5 4.2002 39.2 5.3002 38.9 6.8002L33.8 21.9002C33.6 23.4002 32.3 24.5002 30.7 24.5002H13.6C8 24.5002 3.5 29.0002 3.5 34.6002V96.8002C3.5 102.4 8 106.9 13.6 106.9H121C126.6 106.9 131.1 102.4 131.1 96.8002V34.6002C131.1 29.1002 126.6 24.6002 121.1 24.6002H104.3C102.7 24.5002 101.4 23.4002 101.2 21.9002Z" stroke="black" stroke-width="7" stroke-miterlimit="10" stroke-linecap="round" stroke-linejoin="round"/>
<path d="M67.2992 89.7C81.1616 89.7 92.3992 78.4623 92.3992 64.6C92.3992 50.7377 81.1616 39.5 67.2992 39.5C53.4369 39.5 42.1992 50.7377 42.1992 64.6C42.1992 78.4623 53.4369 89.7 67.2992 89.7Z" stroke="black" stroke-width="7" stroke-miterlimit="10" stroke-linecap="round" stroke-linejoin="round"/>
</svg>
