<svg width="19" height="21" viewBox="0 0 19 21" fill="none" xmlns="http://www.w3.org/2000/svg">
<path d="M0 11.5276C0 16.7395 4.23464 20.9741 9.44651 20.9741C14.6584 20.9741 18.893 16.7395 18.893 11.5276C18.893 8.9398 17.8434 6.56912 16.1423 4.86803L16.8843 4.12606L17.2281 4.4699C17.3729 4.61467 17.5539 4.68706 17.7529 4.68706C17.952 4.68706 18.1329 4.61467 18.2777 4.4699C18.5673 4.18035 18.5673 3.70983 18.2777 3.42029L16.5585 1.70109C16.269 1.41155 15.7985 1.41155 15.5089 1.70109C15.2194 1.99064 15.2194 2.46116 15.5089 2.75071L15.8528 3.09455L15.0384 3.9089C13.6631 2.89548 12.0162 2.26209 10.2066 2.11732V1.48393H11.8534C12.2696 1.48393 12.5953 1.15819 12.5953 0.741967C12.5953 0.325742 12.2696 0 11.8534 0H6.96725C6.55103 0 6.22528 0.325742 6.22528 0.741967C6.22528 1.15819 6.55103 1.48393 6.96725 1.48393H8.72264V2.11732C3.83651 2.49735 0 6.56912 0 11.5276V11.5276ZM9.44651 3.56506C13.844 3.56506 17.4272 7.14822 17.4272 11.5457C17.4272 15.9432 13.844 19.5264 9.44651 19.5264C5.049 19.5264 1.46584 15.9432 1.46584 11.5457C1.46584 7.13012 5.049 3.56506 9.44651 3.56506V3.56506Z" fill="url(#paint0_linear_1688_3932)"/>
<path d="M9.44656 12.1428H12.6135C13.0297 12.1428 13.3555 11.8171 13.3555 11.4009C13.3555 10.9846 13.0297 10.6589 12.6135 10.6589H10.1885V6.84048C10.1885 6.42425 9.86278 6.09851 9.44656 6.09851C9.03033 6.09851 8.70459 6.42425 8.70459 6.84048V11.419C8.70459 11.8171 9.03033 12.1428 9.44656 12.1428V12.1428Z" fill="url(#paint1_linear_1688_3932)"/>
<defs>
<linearGradient id="paint0_linear_1688_3932" x1="9.44651" y1="-10.4871" x2="-11.4136" y2="8.30325" gradientUnits="userSpaceOnUse">
<stop stop-color="#10D194"/>
<stop offset="1" stop-color="#00F777"/>
</linearGradient>
<linearGradient id="paint1_linear_1688_3932" x1="11.03" y1="3.07635" x2="5.18748" y2="7.57196" gradientUnits="userSpaceOnUse">
<stop stop-color="#10D194"/>
<stop offset="1" stop-color="#00F777"/>
</linearGradient>
</defs>
</svg>
