<?xml version="1.0" encoding="utf-8"?>
<!-- Generator: Adobe Illustrator 26.0.3, SVG Export Plug-In . SVG Version: 6.00 Build 0)  -->
<svg version="1.1" id="Слой_1" xmlns="http://www.w3.org/2000/svg" xmlns:xlink="http://www.w3.org/1999/xlink" x="0px" y="0px"
	 viewBox="0 0 140.6 129" style="enable-background:new 0 0 140.6 129;" xml:space="preserve">
<style type="text/css">
	.st0{fill: #FFFFFF;}
</style>
<path class="st0" d="M52.2,76.1c0-1.5,0.2-2.7,0.6-3.8c0.4-1,1.1-2,2-2.9c1.4-1.3,2.6-2.5,3.8-3.5s2.2-1.9,3-2.8
	c0.9-0.9,1.5-1.7,1.9-2.5s0.7-1.5,0.7-2.4c0-1.6-0.5-2.9-1.5-3.8c-1-0.9-2.3-1.4-3.8-1.4c-2.3,0-4.1,0.6-5.3,1.9
	c-0.9,1-1.5,2.1-1.8,3.3c-0.2,0.8-0.9,1.3-1.8,1.3l-7.9-0.3c-1.1,0-1.9-1-1.7-2.1c0.8-4.3,2.7-7.6,5.5-10c3.3-2.7,7.6-4.1,12.8-4.1
	c2.2,0,4.4,0.3,6.4,0.9c2,0.6,3.8,1.5,5.3,2.8c1.5,1.2,2.7,2.8,3.6,4.6c0.9,1.9,1.3,3.9,1.3,6.3c0,1.5-0.2,2.7-0.5,3.9
	s-0.8,2.3-1.5,3.4c-0.7,1.2-1.6,2.3-2.8,3.5c-1.2,1.2-2.6,2.4-4.4,3.8c-1.2,0.9-1.9,1.8-2.3,2.6c-0.4,0.9-0.6,1.7-0.6,2.6v0.4
	c0,1-0.8,1.8-1.8,1.8H54c-1,0-1.8-0.8-1.8-1.8V76.1z M50.8,90.3c0-0.9,0.2-1.9,0.5-2.6c0.3-0.9,0.9-1.5,1.5-2.2
	c0.6-0.6,1.2-1.1,2.1-1.4C55,84,55,84,55.1,84c0.8-0.3,1.6-0.5,2.5-0.5c0.9,0,1.9,0.2,2.6,0.5c0.9,0.3,1.5,0.9,2.2,1.5
	c0.6,0.6,1.1,1.2,1.4,2.1c0,0.1,0.1,0.2,0.1,0.3c0.3,0.8,0.5,1.6,0.5,2.5c0,0.9-0.2,1.9-0.5,2.6c-0.3,0.9-0.9,1.5-1.5,2.2
	s-1.3,1.1-2.2,1.5c-0.9,0.3-1.7,0.5-2.6,0.5c-0.9,0-1.9-0.2-2.6-0.5c-0.9-0.3-1.5-0.9-2.2-1.5c-0.6-0.6-1-1.2-1.4-2.1
	c0-0.1-0.1-0.2-0.1-0.3C51.1,92.1,50.8,91.2,50.8,90.3"/>
<polygon class="st0" points="106.2,109.4 90.4,123.6 90.4,109.4 "/>
<path class="st0" d="M121.3,11.2H37.7c-8.8,0-16,7.2-16,16h-2.1c-8.8,0-16,7.2-16,16v53.4c0,9,7.3,16.3,16.3,16.3h67.5v10.7
	c0,1.2,0.7,2.3,1.8,2.7c0.4,0.2,0.8,0.3,1.2,0.3c0.7,0,1.4-0.3,2-0.8l15-13.5c6.7-1.8,11.7-8,11.7-15.2v-0.3h1.9
	c8.9,0,16.1-7.2,16.1-16.1V27C137.1,18.3,130,11.2,121.3,11.2z M112.1,97.1c0,4.9-3.9,8.8-8.8,8.8H19.9c-5.1,0-9.3-4.2-9.3-9.3V43.2
	c0-5,4-9,9-9h83.6c4.9,0,8.9,4,8.9,8.9V97.1z M130.1,80.7c0,5.1-4,9.1-9.1,9.1h-1.9V43.1c0-8.8-7.1-15.9-15.9-15.9H28.7c0-5,4-9,9-9
	h83.6c4.9,0,8.8,3.9,8.8,8.8V80.7z"/>
</svg>
