<svg width="37" height="28" viewBox="0 0 37 28" fill="none" xmlns="http://www.w3.org/2000/svg">
<path fill-rule="evenodd" clip-rule="evenodd" d="M0.377014 8.833C0.631014 9.609 1.06599 10.323 1.67599 10.963C2.31299 11.635 3.15 12.157 4.19 12.531C5.225 12.904 6.55899 13.096 8.20499 13.096H10.438C10.17 15.839 9.19101 18.176 7.50201 20.108C5.81301 22.036 3.46901 23.729 0.475006 25.183L2.289 27.998C6.234 26.319 9.60601 23.864 12.406 20.618C15.209 17.372 16.602 14.154 16.602 10.963C16.602 7.535 15.795 4.847 14.164 2.905C12.533 0.964001 10.199 0 7.15799 0C5.23399 0 3.55701 0.640001 2.13501 1.925C0.71101 3.21 0 4.713 0 6.428C0 7.252 0.127014 8.057 0.377014 8.833ZM20.775 8.833C21.027 9.609 21.465 10.323 22.072 10.963C22.711 11.635 23.549 12.157 24.584 12.531C25.623 12.904 26.957 13.096 28.602 13.096H30.832C30.566 15.839 29.588 18.176 27.898 20.108C26.207 22.036 23.867 23.729 20.871 25.183L22.688 27.998C26.631 26.319 30.004 23.864 32.805 20.618C35.606 17.372 37 14.154 37 10.963C37 7.535 36.191 4.847 34.561 2.905C32.932 0.964001 30.598 0 27.557 0C25.629 0 23.955 0.640001 22.533 1.925C21.109 3.21 20.398 4.713 20.398 6.428C20.398 7.252 20.522 8.057 20.775 8.833Z" fill="url(#paint0_linear_1762_3374)"/>
<defs>
<linearGradient id="paint0_linear_1762_3374" x1="-1.43531e-06" y1="27.998" x2="36.7226" y2="-4.03708" gradientUnits="userSpaceOnUse">
<stop stop-color="#2973FF"/>
<stop offset="0.135411" stop-color="#8846D3"/>
<stop offset="1" stop-color="#FF22AC"/>
</linearGradient>
</defs>
</svg>
