<svg width="37" height="28" viewBox="0 0 37 28" fill="none" xmlns="http://www.w3.org/2000/svg">
<path fill-rule="evenodd" clip-rule="evenodd" d="M36.623 19.165C36.369 18.389 35.934 17.675 35.324 17.035C34.687 16.363 33.85 15.841 32.81 15.467C31.775 15.094 30.441 14.902 28.795 14.902L26.562 14.902C26.83 12.159 27.809 9.82204 29.498 7.89004C31.187 5.96204 33.531 4.26904 36.525 2.81504L34.711 4.55763e-05C30.766 1.67905 27.394 4.13405 24.594 7.38005C21.791 10.626 20.398 13.844 20.398 17.035C20.398 20.463 21.205 23.151 22.836 25.093C24.467 27.034 26.801 27.998 29.842 27.998C31.766 27.998 33.443 27.358 34.865 26.073C36.289 24.788 37 23.285 37 21.57C37 20.746 36.873 19.941 36.623 19.165ZM16.225 19.165C15.973 18.389 15.535 17.675 14.928 17.035C14.289 16.363 13.451 15.841 12.416 15.467C11.377 15.094 10.043 14.902 8.39801 14.902L6.168 14.902C6.434 12.159 7.41199 9.82204 9.10199 7.89004C10.793 5.96204 13.133 4.26904 16.129 2.81504L14.312 4.37929e-05C10.369 1.67904 6.99601 4.13404 4.19501 7.38004C1.39401 10.626 1.23738e-06 13.844 9.58416e-07 17.035C6.58731e-07 20.463 0.808996 23.151 2.439 25.093C4.068 27.034 6.40199 27.998 9.44299 27.998C11.371 27.998 13.045 27.358 14.467 26.073C15.891 24.788 16.602 23.285 16.602 21.57C16.602 20.746 16.478 19.941 16.225 19.165Z" fill="url(#paint0_linear_1762_3378)"/>
<defs>
<linearGradient id="paint0_linear_1762_3378" x1="37" y1="4.74217e-05" x2="0.277389" y2="32.0351" gradientUnits="userSpaceOnUse">
<stop stop-color="#2973FF"/>
<stop offset="0.135411" stop-color="#8846D3"/>
<stop offset="1" stop-color="#FF22AC"/>
</linearGradient>
</defs>
</svg>
