<svg width="32" height="32" viewBox="0 0 32 32" fill="none" xmlns="http://www.w3.org/2000/svg">
<g clip-path="url(#clip0_6_4)">
<path d="M14.6951 5.33026C16.462 5.79515 17.5611 6.56201 17.5808 7.52239L17.5815 14.2825C17.5596 15.5868 15.7163 16.2327 14.6951 16.5014C11.444 17.3567 6.4376 17.3567 3.18645 16.5014C1.41952 16.0365 0.320813 15.2693 0.300781 14.3093V7.52239C0.320813 6.56201 1.41952 5.79515 3.18645 5.33026C6.4376 4.47458 11.444 4.47458 14.6951 5.33026ZM22.9466 9.7353C22.363 8.8902 23.6499 8.00163 24.2335 8.84674L24.89 9.80069L27.5379 6.63269C28.1979 5.84352 29.399 6.8485 28.7387 7.63766L25.4301 11.5945C25.1013 11.9875 24.4826 11.9648 24.187 11.537L22.9466 9.7353ZM25.864 3.27911C29.0864 3.27911 31.6988 5.89152 31.6988 9.11395C31.6988 12.3364 29.0864 14.9488 25.864 14.9488C22.6419 14.9488 20.0295 12.3364 20.0295 9.11395C20.0295 5.89152 22.6419 3.27911 25.864 3.27911ZM25.864 4.84762C23.5078 4.84762 21.598 6.75779 21.598 9.11395C21.598 11.4701 23.5078 13.3799 25.864 13.3799C28.2202 13.3799 30.1303 11.4701 30.1303 9.11395C30.1303 6.75779 28.2202 4.84762 25.864 4.84762ZM26.409 25.8603V24.2528C26.028 24.4278 25.5858 24.582 25.0915 24.7121C21.8403 25.5674 16.8339 25.5674 13.5828 24.7121C13.0884 24.582 12.6462 24.4278 12.2653 24.2528V25.8603C12.2653 26.0292 12.921 26.2866 13.9812 26.5655C16.956 27.3483 21.7182 27.3483 24.6931 26.5655C25.7533 26.2866 26.409 26.0292 26.409 25.8603ZM26.409 22.4935V20.886C26.028 21.061 25.5858 21.2149 25.0915 21.3449C21.8411 22.2006 16.8332 22.2006 13.5828 21.3449C13.0881 21.2149 12.6462 21.061 12.2653 20.886V22.4935C12.2653 22.6624 12.921 22.9194 13.9812 23.1984C16.956 23.9815 21.7182 23.9815 24.6931 23.1984C25.7533 22.9194 26.409 22.6624 26.409 22.4935ZM27.9775 25.8603C27.9556 27.1646 26.1123 27.8101 25.0915 28.0789C21.8403 28.9342 16.8339 28.9342 13.5828 28.0789C12.5619 27.8101 10.7187 27.1646 10.6967 25.8603L10.6971 19.0998C10.7168 18.1398 11.8159 17.3726 13.5828 16.9077C16.8339 16.0524 21.8403 16.0524 25.0915 16.9077C26.8584 17.3726 27.9575 18.1398 27.9771 19.0998L27.9775 25.8603ZM24.6931 18.4214C21.7182 17.6383 16.956 17.6383 13.9812 18.4214C12.921 18.7003 12.2653 18.9573 12.2653 19.1263C12.2653 19.2952 12.921 19.5526 13.9812 19.8316C16.9553 20.6143 21.719 20.6143 24.6931 19.8316C25.7533 19.5526 26.409 19.2952 26.409 19.1263C26.409 18.9573 25.7533 18.7003 24.6931 18.4214ZM16.0127 9.30822C15.6321 9.48359 15.1899 9.63703 14.6951 9.76743C11.4451 10.6227 6.43684 10.6227 3.18645 9.76743C2.69209 9.63703 2.24988 9.48359 1.86891 9.30822V10.9156C1.86891 11.0846 2.52466 11.342 3.58481 11.6209C6.55968 12.4036 11.3223 12.4036 14.2967 11.6209C15.3569 11.342 16.0127 11.0846 16.0127 10.9156V9.30822ZM16.0127 12.6754C15.6321 12.8504 15.1899 13.0042 14.6951 13.1342C11.444 13.9899 6.4376 13.9899 3.18645 13.1342C2.69209 13.0042 2.24988 12.8504 1.86891 12.6754V14.2825C1.86891 14.4518 2.52466 14.7088 3.58481 14.9877C6.55968 15.7708 11.3223 15.7708 14.2967 14.9877C15.3569 14.7088 16.0127 14.4518 16.0127 14.2825V12.6754ZM14.2967 6.84359C11.3223 6.06085 6.55968 6.06085 3.58481 6.84359C2.52466 7.12252 1.86891 7.37952 1.86891 7.54885C1.86891 7.71779 2.52466 7.9748 3.58481 8.25373C6.55892 9.03685 11.3226 9.03685 14.2971 8.25373C15.3569 7.9748 16.0127 7.71779 16.0127 7.54885C16.0127 7.37952 15.3569 7.12252 14.2967 6.84359Z" fill="white"/>
</g>
<defs>
<clipPath id="clip0_6_4">
<rect width="31.9997" height="31.9997" fill="white"/>
</clipPath>
</defs>
</svg>
