<svg width="19" height="19" viewBox="0 0 19 19" fill="none" xmlns="http://www.w3.org/2000/svg">
<path d="M13.6736 19C10.3428 19 6.78589 17.7761 4.00484 14.9951C1.22843 12.2187 0 8.66415 0 5.32642C0 2.3848 2.3799 0 5.32642 0C5.55405 0 5.75871 0.138566 5.84324 0.349904L8.22815 6.31216C8.34234 6.5976 8.20351 6.92153 7.9181 7.03571L5.29829 8.08361C5.48361 11.0976 7.90292 13.5167 10.9164 13.7018L11.9643 11.082C12.0782 10.797 12.4021 10.6577 12.6879 10.7719L18.6501 13.1568C18.8614 13.2413 19 13.446 19 13.6736C19 16.6152 16.6201 19 13.6736 19ZM4.95596 1.12924C2.8241 1.31371 1.11328 3.10142 1.11328 5.32642C1.11328 8.6814 2.41975 11.8356 4.79208 14.2079C7.16437 16.5802 10.3186 17.8867 13.6736 17.8867C15.8979 17.8867 17.6862 16.1769 17.8708 14.044L12.7912 12.0122L11.8055 14.4765C11.721 14.6879 11.5163 14.8264 11.2887 14.8264C7.36514 14.8264 4.17358 11.6349 4.17358 7.71192C4.17358 7.48433 4.31215 7.279 4.52348 7.19451L6.98777 6.20877L4.95596 1.12924Z" fill="#939AB2"/>
</svg>
