<svg width="70" height="70" viewBox="0 0 70 70" fill="none" xmlns="http://www.w3.org/2000/svg">
<circle cx="35" cy="35.0005" r="35" fill="url(#paint0_linear_221_2508)"/>
<path d="M45.4822 37.9122C44.238 39.3768 43.0196 40.5269 42.0578 41.3862C41.7868 41.6284 40.1791 43.2396 38.5483 44.8906L39.8161 49.9617L43.5408 46.2369C45.4226 44.3552 46.2345 41.6738 45.7126 39.0643L45.4822 37.9122Z" fill="url(#paint1_linear_221_2508)"/>
<path d="M28.8681 27.7186C29.674 26.8169 30.7383 25.6877 32.0798 24.5299L30.9216 24.3021C28.3206 23.7906 25.6485 24.6043 23.774 26.4787L20.035 30.2176L25.0991 31.4677C26.8539 29.7457 28.6273 27.9882 28.8681 27.7186Z" fill="url(#paint2_linear_221_2508)"/>
<path d="M40.2941 31.4711C41.2687 31.4711 42.0588 30.681 42.0588 29.7064C42.0588 28.7318 41.2687 27.9417 40.2941 27.9417C39.3195 27.9417 38.5294 28.7318 38.5294 29.7064C38.5294 30.681 39.3195 31.4711 40.2941 31.4711Z" fill="url(#paint3_linear_221_2508)"/>
<path d="M49.1177 20.0005C44.6817 20.0005 40.6027 21.0657 36.9942 23.1667C33.833 25.0071 31.5936 27.3171 30.1841 28.8944C29.7846 29.3415 26.7103 32.3615 25.5595 33.4874L24.9218 34.1113L35.8873 45.0767L36.5111 44.443C37.575 43.3625 40.434 40.4704 40.882 40.0702C42.4804 38.642 44.8244 36.3718 46.7192 33.1597C48.8963 29.4694 50.0001 25.3389 50.0001 20.8828V20.0005H49.1177ZM37.0233 38.2714L31.7292 32.9773L32.977 31.7295L38.2711 37.0236L37.0233 38.2714ZM40.2942 33.2358C38.3481 33.2358 36.7648 31.6525 36.7648 29.7064C36.7648 27.7603 38.3481 26.177 40.2942 26.177C42.2403 26.177 43.8236 27.7603 43.8236 29.7064C43.8236 31.6525 42.2403 33.2358 40.2942 33.2358Z" fill="url(#paint4_linear_221_2508)"/>
<path d="M22.6471 44.7064C21.1852 44.7064 20.0001 45.8915 20.0001 47.3534V50.0005C20.0001 50.0005 21.8632 50.0005 22.6471 50.0005C24.1091 50.0005 25.2942 48.8153 25.2942 47.3534C25.2942 45.8915 24.1091 44.7064 22.6471 44.7064Z" fill="url(#paint5_linear_221_2508)"/>
<path d="M24.0463 38.53L25.1388 39.6225L23.7335 43.0775C25.2963 43.4748 26.5286 44.7084 26.9242 46.2719L30.3793 44.8631L31.4706 45.9543L32.8698 44.5551L25.4454 37.1307L24.0463 38.53Z" fill="url(#paint6_linear_221_2508)"/>
<defs>
<linearGradient id="paint0_linear_221_2508" x1="2.70756e-07" y1="47.4581" x2="69.1199" y2="46.2884" gradientUnits="userSpaceOnUse">
<stop stop-color="#2C66B8"/>
<stop offset="1" stop-color="#8859EC"/>
</linearGradient>
<linearGradient id="paint1_linear_221_2508" x1="48.0001" y1="23.0005" x2="20.0001" y2="53.0005" gradientUnits="userSpaceOnUse">
<stop stop-color="white"/>
<stop offset="1" stop-color="#D3DFFF"/>
</linearGradient>
<linearGradient id="paint2_linear_221_2508" x1="48.0001" y1="23.0005" x2="20.0001" y2="53.0005" gradientUnits="userSpaceOnUse">
<stop stop-color="white"/>
<stop offset="1" stop-color="#D3DFFF"/>
</linearGradient>
<linearGradient id="paint3_linear_221_2508" x1="48.0001" y1="23.0005" x2="20.0001" y2="53.0005" gradientUnits="userSpaceOnUse">
<stop stop-color="white"/>
<stop offset="1" stop-color="#D3DFFF"/>
</linearGradient>
<linearGradient id="paint4_linear_221_2508" x1="48.0001" y1="23.0005" x2="20.0001" y2="53.0005" gradientUnits="userSpaceOnUse">
<stop stop-color="white"/>
<stop offset="1" stop-color="#D3DFFF"/>
</linearGradient>
<linearGradient id="paint5_linear_221_2508" x1="48.0001" y1="23.0005" x2="20.0001" y2="53.0005" gradientUnits="userSpaceOnUse">
<stop stop-color="white"/>
<stop offset="1" stop-color="#D3DFFF"/>
</linearGradient>
<linearGradient id="paint6_linear_221_2508" x1="48.0001" y1="23.0005" x2="20.0001" y2="53.0005" gradientUnits="userSpaceOnUse">
<stop stop-color="white"/>
<stop offset="1" stop-color="#D3DFFF"/>
</linearGradient>
</defs>
</svg>
