<?xml version="1.0" encoding="utf-8"?>
<!-- Generator: Adobe Illustrator 23.0.2, SVG Export Plug-In . SVG Version: 6.00 Build 0)  -->
<svg version="1.1" id="Layer_1"  width="32" height="32" fill="#ffffff" xmlns="http://www.w3.org/2000/svg" xmlns:xlink="http://www.w3.org/1999/xlink" x="0px" y="0px"
	 viewBox="0 0 466.2048 139.459" enable-background="new 0 0 466.2048 139.459" xml:space="preserve">
<g>
	<path d="M56.1422,115.9197v-21.053h4.2499v-1.77c14.8483-0.9786,26-5.1194,26-10.0802c0-4.8073-46.7701-5.5519-61.2662-2.2345
		L13.9147,50.9252c4.7804,7.4586,9.7067,11.688,13.0243,10.4423C32.2647,59.3677,9.2395-1.9519,3.9138,0.0479
		c-4.3409,1.6299-4.5862,12.1288-1.0859,25.125c-0.3953-0.053-0.8066-0.0237-1.2062,0.1257
		c-1.2925,0.4854-1.9468,1.9268-1.4614,3.2197l20.8574,55.5459c0.0573,0.1526,0.1317,0.2927,0.2137,0.4268
		c1.9559,4.2898,12.3114,7.7258,25.6607,8.6057v1.77h4.2501v21.053l-29.25,9v3.6838c-1.8741,0.9243-3.1667,2.8486-3.1667,5.0796
		c0,3.1296,2.537,5.6667,5.6666,5.6667c3.1296,0,5.6667-2.5371,5.6667-5.6667c0-2.2263-1.287-4.1471-3.1547-5.0737l24.238-7.4579
		v7.452c-1.8741,0.9243-3.1667,2.8486-3.1667,5.0796c0,3.1296,2.537,5.6667,5.6666,5.6667c3.1296,0,5.6667-2.5371,5.6667-5.6667
		c0-2.231-1.2925-4.1553-3.1666-5.0796v-7.452l21.8231,6.7147l1.184-4.8674L56.1422,115.9197z"/>
	<path d="M464.5831,25.2986c-0.3994-0.1494-0.8107-0.1788-1.206-0.1257c3.5003-12.9962,3.2549-23.4951-1.0859-25.125
		c-5.3257-1.9998-28.3508,59.3198-23.0251,61.3196c3.3174,1.2457,8.2435-2.9833,13.0237-10.4414l-11.2108,29.856
		c-14.4965-3.3174-61.266-2.5728-61.266,2.2345c0,4.9608,11.1517,9.1016,26,10.0802v1.77h4.2502v21.053l-23.0083,7.0795
		l1.184,4.8676l21.8243-6.7152v7.452c-1.8743,0.9242-3.1669,2.8485-3.1669,5.0796c0,3.1296,2.537,5.6667,5.6667,5.6667
		c3.1296,0,5.6666-2.5371,5.6666-5.6667c0-2.231-1.2924-4.155-3.1664-5.0793v-7.4523l24.2379,7.4579
		c-1.8678,0.9265-3.1547,2.8474-3.1547,5.0737c0,3.1296,2.537,5.6667,5.6667,5.6667c3.1296,0,5.6666-2.5371,5.6666-5.6667
		c0-2.231-1.2924-4.155-3.1664-5.0793v-3.6841l-29.25-9v-21.053h4.2498v-1.77c13.3502-0.8799,23.7063-4.3164,25.6611-8.6067
		c0.0818-0.1337,0.156-0.2737,0.2131-0.4258l20.8574-55.5459C466.5299,27.2254,465.8756,25.7839,464.5831,25.2986z"/>
	<path d="M166.6088,73.2468h-36.6663v13.5c0,0,23.3452,6.5366,35.9162,7.665v8.6069h-1.583v6.9575l-34.9998,8.4482v6.2834
		c-2.3173,0.9146-3.9592,3.1689-3.9592,5.8108c0,3.4512,2.7979,6.25,6.25,6.25c3.4522,0,6.25-2.7988,6.25-6.25
		c0-2.4792-1.4476-4.6156-3.5408-5.6257v-2.531l32.4988-7.8445v10.2063c-2.2948,0.9253-3.916,3.1694-3.916,5.7949
		c0,3.4512,2.7979,6.25,6.25,6.25c3.4522,0,6.25-2.7988,6.25-6.25c0-2.6255-1.6212-4.8696-3.916-5.7951v-10.2062l32.4988,7.8445
		v2.531c-2.0931,1.0103-3.5408,3.1465-3.5408,5.6257c0,3.4512,2.7979,6.25,6.25,6.25c3.4522,0,6.25-2.7988,6.25-6.25
		c0-2.6419-1.6418-4.8962-3.9592-5.8108v-6.2834l-34.9998-8.4482v-6.9575h-1.583v-8.6069
		c12.5708-1.1281,35.9171-7.665,35.9171-7.665v-13.5h-36.6671V57.1805h-5V73.2468z"/>
	<path d="M199.6015,41.1805c10.2255-3.944,10.5073-10.6736,10.5073-18.3138c0-12.1503-18.3563-22-41-22s-41,9.8497-41,22
		c0,7.6402,0.2818,14.3698,10.5073,18.3138H199.6015z"/>
	<path d="M294.5968,73.2468h-36.6666v13.5c0,0,23.3452,6.5366,35.9162,7.665v8.6069h-1.5829v6.9575l-35.0002,8.4482v6.2836
		c-2.3172,0.9147-3.9589,3.1691-3.9589,5.8107c0,3.4512,2.7979,6.25,6.25,6.25c3.4522,0,6.25-2.7988,6.25-6.25
		c0-2.4795-1.4478-4.6159-3.5411-5.626v-2.5308l32.4991-7.8445v10.2063c-2.2948,0.9253-3.916,3.1694-3.916,5.7949
		c0,3.4512,2.7979,6.25,6.25,6.25c3.4522,0,6.25-2.7988,6.25-6.25c0-2.6255-1.6212-4.8696-3.916-5.7949v-10.2062l32.4988,7.8444
		v2.531c-2.0932,1.0103-3.5408,3.1464-3.5408,5.6257c0,3.4512,2.7979,6.25,6.25,6.25s6.25-2.7988,6.25-6.25
		c0-2.6419-1.6418-4.8962-3.9592-5.8108v-6.2834l-34.9999-8.4481v-6.9576h-1.583v-8.6069
		c12.5708-1.1281,35.9172-7.665,35.9172-7.665v-13.5h-36.6668V57.1805h-5V73.2468z"/>
	<path d="M327.5896,41.1805c10.2255-3.944,10.5073-10.6736,10.5073-18.3138c0-12.1503-18.3563-22-41-22s-41,9.8497-41,22
		c0,7.6402,0.2818,14.3698,10.5073,18.3138H327.5896z"/>
	<path d="M367.2277,54.1802h36.5352c2.75,0,5-2.25,5-5s-2.25-5-5-5H62.4419c-2.75,0-5,2.25-5,5s2.25,5,5,5h36.5344l-20.2834,83.3882
		l7.7734,1.8906l20.7433-85.2788h251.7849l20.7433,85.2788l7.7734-1.8906L367.2277,54.1802z"/>
</g>
</svg>
