<?xml version="1.0" encoding="UTF-8" standalone="no"?> <svg  width="32" height="32" fill="#ffffff"  id="_01-living_room" data-name="01-living room" xmlns="http://www.w3.org/2000/svg" viewBox="0 0 64 64"><title>furniture-interior-sofa-frame-lamp-living-room</title><path d="M61.708,41H60V36.495A6.447,6.447,0,0,0,53.617,30H16V15.667h5a1,1,0,0,0,.97-1.243L19.3,3.757A1,1,0,0,0,18.333,3H11.667a1,1,0,0,0-.971.757L8.03,14.424A1,1,0,0,0,9,15.667h5V30H9.383A6.447,6.447,0,0,0,3,36.495V41H2.292A2.294,2.294,0,0,0,0,43.292V56a1,1,0,0,0,1,1H3v1.561A2.442,2.442,0,0,0,5.439,61H58.561A2.442,2.442,0,0,0,61,58.561V57h2a1,1,0,0,0,1-1V43.292A2.294,2.294,0,0,0,61.708,41ZM10.281,13.667,12.447,5h5.106l2.166,8.667ZM4.966,36.495A4.462,4.462,0,0,1,9.383,32H53.617a4.462,4.462,0,0,1,4.417,4.495V41h-.742A2.294,2.294,0,0,0,55,43.292V46H9V43.292A2.294,2.294,0,0,0,6.708,41H4.966ZM55,48v7H9V48ZM2,55V43.292A.292.292,0,0,1,2.292,43H6.708A.292.292,0,0,1,7,43.292V55Zm57,3.561a.44.44,0,0,1-.439.439H5.439A.44.44,0,0,1,5,58.561V57H59ZM62,55H57V43.292A.292.292,0,0,1,57.292,43h4.416a.292.292,0,0,1,.292.292Z"/><rect x="14" y="34" width="2" height="2"/><rect x="14" y="40" width="2" height="2"/><rect x="48" y="34" width="2" height="2"/><rect x="48" y="40" width="2" height="2"/><rect x="31" y="34" width="2" height="2"/><rect x="31" y="40" width="2" height="2"/><path d="M26,27H59a1,1,0,0,0,1-1V5a1,1,0,0,0-1-1H26a1,1,0,0,0-1,1V26A1,1,0,0,0,26,27ZM27,6H58V25H27Z"/><path d="M56,7H29a1,1,0,0,0-1,1V23a1,1,0,0,0,1,1H56a1,1,0,0,0,1-1V8A1,1,0,0,0,56,7ZM55,22H30V9H55Z"/></svg>