<?xml version="1.0" encoding="utf-8"?>
<!-- Generator: Adobe Illustrator 26.0.3, SVG Export Plug-In . SVG Version: 6.00 Build 0)  -->
<svg version="1.1" id="Слой_1" xmlns="http://www.w3.org/2000/svg" xmlns:xlink="http://www.w3.org/1999/xlink" x="0px" y="0px"
	 viewBox="0 0 140.6 129" style="enable-background:new 0 0 140.6 129;" xml:space="preserve">
<style type="text/css">
	.st0{display:none;}
	.st1{fill:none;stroke:#FFFFFF;stroke-width:7;stroke-linecap:round;stroke-linejoin:round;}
	.st2{fill:#FFFFFF;stroke:#FFFFFF;stroke-width:6;stroke-linecap:round;stroke-linejoin:round;stroke-miterlimit:10;}
	.st3{fill:none;stroke:#FFFFFF;stroke-width:6;stroke-miterlimit:10;}
	.st4{fill:none;stroke:#FFFFFF;stroke-width:5;stroke-miterlimit:10;}
</style>
<path class="st0" d="M140.5,129H0.1c-0.1,0-0.1-0.1-0.1-0.1V0.1C0,0.1,0.1,0,0.1,0h140.4c0.1,0,0.1,0.1,0.1,0.1v128.8
	C140.6,128.9,140.5,129,140.5,129z"/>
<g>
	<path class="st1" d="M93.3,108.3H20.6c-7.1,0-12.8-5.7-12.8-12.8V42.1c0-6.9,5.6-12.5,12.5-12.5h83.6c6.9,0,12.4,5.6,12.4,12.4v54
		c0,6.8-5.5,12.3-12.3,12.3h-3.1H93.3z"/>
	<polygon class="st2" points="106.9,108.3 91.1,122.5 91.1,108.3 	"/>
	<path class="st1" d="M25.9,28.8v-2.7c0-6.9,5.6-12.5,12.5-12.5H122c6.8,0,12.3,5.5,12.3,12.3v53.7c0,7-5.6,12.6-12.6,12.6H117"/>
	<path class="st3" d="M80.9,97V77.9c0-3.4-3-6.1-6.6-6.1H49.8c-3.7,0-6.6,2.7-6.6,6.1V97"/>
	<path class="st3" d="M62,44.3c5.8,0,10.5,4.4,10.5,9.9s-4.7,9.9-10.5,9.9s-10.5-4.4-10.5-9.9S56.2,44.3,62,44.3"/>
	<path class="st4" d="M100.3,91.3V78.6c0-2.3-2-4-4.4-4H79.8"/>
	<path class="st4" d="M88.8,55.4c3.8,0,7,2.9,7,6.5c0,3.7-3.1,6.5-7,6.5s-7-2.9-7-6.5C81.8,58.3,84.9,55.4,88.8,55.4"/>
	<path class="st4" d="M24.4,91.3V78.6c0-2.3,2-4,4.4-4H45"/>
	<path class="st4" d="M36,55.4c-3.8,0-7,2.9-7,6.5c0,3.7,3.1,6.5,7,6.5s7-2.9,7-6.5C43,58.3,39.9,55.4,36,55.4"/>
</g>
</svg>
