<svg width="17" height="9" viewBox="0 0 17 9" fill="none" xmlns="http://www.w3.org/2000/svg">
<path d="M8.6278 8.66722L15.7479 1.99203C15.9127 1.83764 16.0035 1.63154 16.0035 1.41179C16.0035 1.19203 15.9127 0.985939 15.7479 0.83155L15.2236 0.339968C14.8821 0.0200925 14.3269 0.0200924 13.9858 0.339968L8.0068 5.94529L2.02115 0.333748C1.85634 0.179359 1.63664 0.0941156 1.40236 0.0941156C1.16783 0.0941156 0.948122 0.179359 0.78318 0.333748L0.259087 0.825329C0.0942754 0.97984 0.00347991 1.18581 0.0034799 1.40557C0.00347989 1.62532 0.0942754 1.83142 0.259087 1.98581L7.38566 8.66722C7.55099 8.82197 7.77174 8.90697 8.00641 8.90649C8.24198 8.90697 8.4626 8.82197 8.6278 8.66722Z" fill="#A2A6B3"/>
</svg>
