<svg width="13" height="13" viewBox="0 0 13 13" fill="none" xmlns="http://www.w3.org/2000/svg">
<path fill-rule="evenodd" clip-rule="evenodd" d="M1.29279 2.20347L1.93397 5.89026H5.89018C6.22673 5.89026 6.49956 6.16308 6.49956 6.49964C6.49956 6.83618 6.22673 7.10901 5.89018 7.10901H1.93397L1.29279 10.7958L11.3172 6.49964L1.29279 2.20347ZM0.802907 6.49964L0.0512856 2.17781C-0.00947686 1.82843 0.103576 1.47133 0.354337 1.22056C0.669412 0.905493 1.14457 0.813982 1.55413 0.989506L12.4436 5.65639C12.7808 5.80096 12.9995 6.13264 12.9995 6.49964C12.9995 6.86663 12.7808 7.19831 12.4436 7.34288L1.55413 12.0097C1.14457 12.1853 0.669412 12.0937 0.354337 11.7787C0.103576 11.5279 -0.00947702 11.1708 0.0512856 10.8215L0.802907 6.49964Z" fill="#F2F2F2"/>
</svg>
