<?xml version="1.0" encoding="utf-8"?>
<!-- Generator: Adobe Illustrator 25.4.1, SVG Export Plug-In . SVG Version: 6.00 Build 0)  -->
<svg version="1.1" id="Слой_1" xmlns="http://www.w3.org/2000/svg" xmlns:xlink="http://www.w3.org/1999/xlink" x="0px" y="0px"
	 viewBox="0 0 140.6 129" style="enable-background:new 0 0 140.6 129;" xml:space="preserve">
<style type="text/css">
	.st0{fill:#000000;stroke:#000000;stroke-width:5;stroke-miterlimit:10;}
	.st1{fill:#000000;stroke:#231F20;stroke-width:5;stroke-linecap:round;stroke-linejoin:round;}
	.st2{fill:none;stroke:#000000;stroke-width:7;stroke-linecap:round;stroke-linejoin:round;}
	.st3{fill:none;stroke:#000000;stroke-width:7;stroke-linecap:round;stroke-linejoin:round;stroke-miterlimit:10;}
	.st4{fill:none;stroke:#000000;stroke-width:6;stroke-linecap:round;stroke-linejoin:round;stroke-miterlimit:10;}
	.st5{fill:#000000;}
	.st6{fill:none;stroke:#000000;stroke-width:5;stroke-linecap:round;stroke-linejoin:round;stroke-miterlimit:10;}
</style>
<path class="st0" d="M-298.1-117.3c-1.9,0-3.4-1.6-3.4-3.4v-16.9c0-1.9,1.6-3.4,3.4-3.4c1.9,0,3.4,1.6,3.4,3.4v17
	C-294.6-118.8-296.1-117.3-298.1-117.3z"/>
<path class="st1" d="M-230.7-88.2L-230.7-88.2c-1.9,0-3.4-1.6-3.4-3.4v-17c0-1.9,1.6-3.4,3.4-3.4c1.9,0,3.4,1.6,3.4,3.4v17
	C-227.2-89.7-228.8-88.2-230.7-88.2z"/>
<path class="st1" d="M-273.8-59.1L-273.8-59.1c-1.9,0-3.4-1.6-3.4-3.4v-16.9c0-1.9,1.6-3.4,3.4-3.4c1.9,0,3.4,1.6,3.4,3.4v16.9
	C-270.4-60.5-272-59.1-273.8-59.1z"/>
<line class="st2" x1="-283.7" y1="-129.2" x2="-212.2" y2="-129.2"/>
<line class="st2" x1="-318.2" y1="-100.1" x2="-245.7" y2="-100.1"/>
<line class="st2" x1="-259.7" y1="-72.2" x2="-212.2" y2="-72.2"/>
<line class="st2" x1="-318.2" y1="-129.2" x2="-312.3" y2="-129.2"/>
<line class="st2" x1="-217.5" y1="-100.1" x2="-212.2" y2="-100.1"/>
<line class="st2" x1="-318.2" y1="-72.2" x2="-288.8" y2="-72.2"/>
<path class="st3" d="M113.2,80.8c0-2-0.2-4-0.6-5.9l7.7-3.8l-7-14.1l-7.2,3.8c-3.9-4.4-9.9-7.7-14.3-9.2v-6.8H76.5v6.8
	c-6.6,1.6-11.7,4.8-15.6,9.2L52.9,57l-7.1,14.1l7.6,3.8c-0.4,1.9-0.6,3.9-0.6,5.9s0.2,4,0.6,5.9l-7.7,3.8l7,14.1l8.5-3.8
	c3.9,4.4,9,7.7,15.6,9.2v7.4h15.4V110c4.4-1.6,10.4-4.8,14.3-9.2l7.5,3.8l6.8-14.1l-7.8-3.8C113.1,84.8,113.2,82.8,113.2,80.8z"/>
<circle class="st4" cx="365.6" cy="97.7" r="8.5"/>
<g>
	<path class="st5" d="M83,66.1c8.3,0,15,6.7,15,15s-6.7,15-15,15c-8.3,0-15-6.7-15-15S74.7,66.1,83,66.1 M83,60.1
		c-11.6,0-21,9.4-21,21s9.4,21,21,21s21-9.4,21-21S94.6,60.1,83,60.1L83,60.1z"/>
</g>
<path class="st6" d="M55,32.5c0-1-0.1-2.1-0.3-3l4-2l-3.6-7.3l-3.8,2c-2-2.3-5.3-4-7.5-4.8V14H35v3.4c-2.2,0.8-5.6,2.5-7.6,4.8l-4-2
	l-3.6,7.3l4,2c-0.2,1-0.3,2-0.3,3c0,1,0.1,2.1,0.3,3l-4,2l3.6,7.3l3.9-2c2,2.3,5.4,4,7.6,4.8v3.7h8.8v-3.7c2.2-0.8,5.5-2.5,7.5-4.8
	l3.9,2l3.6-7.3l-4-2C54.9,34.6,55,33.6,55,32.5z"/>
<circle class="st6" cx="39.2" cy="32.5" r="7.8"/>
</svg>
