<svg width="141" height="129" viewBox="0 0 141 129" fill="none" xmlns="http://www.w3.org/2000/svg">
<path d="M124.102 77L122.602 76.3C120.002 75 118.402 72.2 118.702 69.3C118.802 67.8 118.902 66.2 118.902 64.6C118.902 63 118.802 61.5 118.702 60C118.402 57.1 120.002 54.2 122.602 52.9L124.002 52.2C127.502 50.5 129.002 46.2 127.202 42.7L122.402 33C120.602 29.4 116.302 28 112.702 29.8L112.102 30.1C109.402 31.5 106.202 31 104.002 29C99.5017 24.9 94.1017 21.6 88.8017 19.3C86.2017 18.2 84.4017 15.6 84.4017 12.7V11.6C84.4017 7.7 81.2017 4.5 77.3017 4.5H62.3017C58.4017 4.5 55.2017 7.7 55.2017 11.6V13.2C55.2017 15.9 53.7017 18.4 51.2017 19.6C46.7017 21.9 40.7017 25.1 36.0017 29.2C33.8017 31.1 30.7017 31.4 28.1017 30.1L27.6017 30C23.9017 28.1 19.5017 29.6 17.8017 33.2L13.2017 42.8C11.5017 46.3 13.0017 50.6 16.5017 52.3L18.0017 53.1C20.6017 54.4 22.2017 57.2 22.0017 60.1C21.9017 61.6 21.8017 63.2 21.8017 64.7C21.8017 66.2 21.9017 67.8 22.0017 69.3C22.3017 72.3 20.8017 75.1 18.1017 76.4L16.8017 77C13.3017 78.7 11.8017 83 13.6017 86.5L18.3017 96C20.1017 99.6 24.6017 101 28.1017 99.1C30.7017 97.7 33.9017 98 36.1017 99.9C40.8017 103.9 46.7017 107.2 51.2017 109.4C53.6017 110.6 55.2017 113.1 55.2017 115.8C55.2017 116.2 55.2017 116.6 55.2017 117C55.2017 120.9 58.4017 124.1 62.3017 124.1H77.3017C81.2017 124.1 84.4017 120.9 84.4017 117V116.2C84.4017 113.3 86.1017 110.8 88.8017 109.6C94.1017 107.4 99.5017 104 104.102 99.9C106.302 97.9 109.502 97.4 112.102 98.8L113.102 99.3C116.602 101.1 121.002 99.6 122.702 96.1L127.402 86.4C129.102 83 127.602 78.8 124.102 77ZM70.3017 105.1C47.9017 105.1 29.7017 86.9 29.7017 64.5C29.7017 42.1 47.9017 23.9 70.3017 23.9C92.7017 23.9 110.902 42.1 110.902 64.5C110.902 86.9 92.7017 105.1 70.3017 105.1Z" fill="white" stroke="white" stroke-width="4" stroke-miterlimit="10"/>
<path d="M124.102 77L122.602 76.3C120.002 75 118.402 72.2 118.702 69.3C118.802 67.8 118.902 66.2 118.902 64.6C118.902 63 118.802 61.5 118.702 60C118.402 57.1 120.002 54.2 122.602 52.9L124.002 52.2C127.502 50.5 129.002 46.2 127.202 42.7L122.402 33C120.602 29.4 116.302 28 112.702 29.8L112.102 30.1C109.402 31.5 106.202 31 104.002 29C99.5017 24.9 94.1017 21.6 88.8017 19.3C86.2017 18.2 84.4017 15.6 84.4017 12.7V11.6C84.4017 7.7 81.2017 4.5 77.3017 4.5H62.3017C58.4017 4.5 55.2017 7.7 55.2017 11.6V13.2C55.2017 15.9 53.7017 18.4 51.2017 19.6C46.7017 21.9 40.7017 25.1 36.0017 29.2C33.8017 31.1 30.7017 31.4 28.1017 30.1L27.6017 30C23.9017 28.1 19.5017 29.6 17.8017 33.2L13.2017 42.8C11.5017 46.3 13.0017 50.6 16.5017 52.3L18.0017 53.1C20.6017 54.4 22.2017 57.2 22.0017 60.1C21.9017 61.6 21.8017 63.2 21.8017 64.7C21.8017 66.2 21.9017 67.8 22.0017 69.3C22.3017 72.3 20.8017 75.1 18.1017 76.4L16.8017 77C13.3017 78.7 11.8017 83 13.6017 86.5L18.3017 96C20.1017 99.6 24.6017 101 28.1017 99.1C30.7017 97.7 33.9017 98 36.1017 99.9C40.8017 103.9 46.7017 107.2 51.2017 109.4C53.6017 110.6 55.2017 113.1 55.2017 115.8C55.2017 116.2 55.2017 116.6 55.2017 117C55.2017 120.9 58.4017 124.1 62.3017 124.1H77.3017C81.2017 124.1 84.4017 120.9 84.4017 117V116.2C84.4017 113.3 86.1017 110.8 88.8017 109.6C94.1017 107.4 99.5017 104 104.102 99.9C106.302 97.9 109.502 97.4 112.102 98.8L113.102 99.3C116.602 101.1 121.002 99.6 122.702 96.1L127.402 86.4C129.102 83 127.602 78.8 124.102 77ZM70.3017 105.1C47.9017 105.1 29.7017 86.9 29.7017 64.5C29.7017 42.1 47.9017 23.9 70.3017 23.9C92.7017 23.9 110.902 42.1 110.902 64.5C110.902 86.9 92.7017 105.1 70.3017 105.1Z" fill="white" stroke="white" stroke-width="4" stroke-miterlimit="10"/>
</svg>
