<svg width="15" height="14" viewBox="0 0 15 14" fill="none" xmlns="http://www.w3.org/2000/svg">
<path d="M2.91674 0.778958H5.61118C5.93335 0.778958 6.19453 1.04013 6.19453 1.36231C6.19453 1.65763 5.97507 1.9017 5.69034 1.94033L5.61118 1.94565H2.91674C1.99049 1.94565 1.23231 2.66524 1.17073 3.57588L1.16669 3.69569V11.0848C1.16669 12.011 1.88628 12.7692 2.79692 12.8308L2.91674 12.8348H10.3064C11.2326 12.8348 11.9908 12.1152 12.0524 11.2046L12.0564 11.0848V10.6976C12.0564 10.3754 12.3176 10.1142 12.6398 10.1142C12.9351 10.1142 13.1792 10.3337 13.2178 10.6184L13.2231 10.6976V11.0848C13.2231 12.6437 12.0001 13.9169 10.4613 13.9975L10.3064 14.0015H2.91674C1.35783 14.0015 0.0845669 12.7785 0.00404299 11.2397L0 11.0848V3.69569C0 2.13679 1.22298 0.863525 2.76183 0.783001L2.91674 0.778958H5.61118H2.91674ZM8.94776 2.73889V0.584509C8.94776 0.0991875 9.4975 -0.162217 9.87099 0.109899L9.93492 0.163521L14.5975 4.63585C14.8151 4.84457 14.8349 5.17982 14.6569 5.41157L14.5976 5.47776L9.93499 9.95153C9.58477 10.2876 9.01549 10.0718 8.95332 9.61387L8.94776 9.53061V7.41086L8.6806 7.43428C6.81413 7.62898 5.02516 8.46969 3.30248 9.97045C2.89872 10.3222 2.27405 9.98962 2.34045 9.45827C2.85753 5.32074 5.02126 3.04024 8.71492 2.75417L8.94776 2.73889V0.584509V2.73889ZM10.1145 1.95238V3.3068C10.1145 3.62897 9.85328 3.89014 9.53111 3.89014C6.51839 3.89014 4.6512 5.19383 3.84443 7.90138L3.78294 8.11805L4.05687 7.93385C5.7964 6.79692 7.62377 6.22353 9.53111 6.22353C9.82644 6.22353 10.0705 6.44299 10.1091 6.72772L10.1145 6.80688V8.16244L13.3511 5.0569L10.1145 1.95238Z" fill="#FDFDFD"/>
</svg>
