<svg width="24" height="24" viewBox="0 0 24 24" fill="none" xmlns="http://www.w3.org/2000/svg">
<path d="M12 0C5.38331 0 0 5.38331 0 12C0 18.6167 5.38331 24 12 24C18.6167 24 24 18.6167 24 12C24 5.38331 18.6167 0 12 0ZM12 23C5.93456 23 0.999984 18.0654 0.999984 12C0.999984 5.93456 5.93456 0.999984 12 0.999984C18.0654 0.999984 23 5.93456 23 12C23 18.0654 18.0654 23 12 23Z" fill="white"/>
<path d="M18.4398 14.0211C18.1688 13.9561 17.9012 14.1231 17.8377 14.3917C17.1932 17.105 14.7928 19.0001 11.9998 19.0001C9.20346 19.0001 6.8021 17.1021 6.16047 14.3853C6.09649 14.1158 5.8255 13.9522 5.55893 14.0132C5.28986 14.0767 5.12336 14.3462 5.18683 14.6148C5.93585 17.7857 8.73761 20 11.9998 20C15.2581 20 18.0589 17.7891 18.8104 14.6231C18.8744 14.3541 18.7084 14.0845 18.4398 14.0211Z" fill="white"/>
<path d="M7.99998 9.99997C8.55226 9.99997 8.99997 9.55226 8.99997 8.99998C8.99997 8.44771 8.55226 8 7.99998 8C7.44771 8 7 8.44771 7 8.99998C7 9.55226 7.44771 9.99997 7.99998 9.99997Z" fill="white"/>
<path d="M16 9.99997C16.5523 9.99997 17 9.55226 17 8.99998C17 8.44771 16.5523 8 16 8C15.4477 8 15 8.44771 15 8.99998C15 9.55226 15.4477 9.99997 16 9.99997Z" fill="white"/>
</svg>
