<svg width="6" height="10" viewBox="0 0 6 10" fill="none" xmlns="http://www.w3.org/2000/svg">
<path d="M2.76588 9.69195L0.0958529 7.02187C0.0340485 6.96011 -3.8423e-09 6.87768 0 6.78977C3.8423e-09 6.70187 0.0340485 6.61943 0.0958529 6.55768L0.292437 6.36105C0.420533 6.2331 0.628727 6.2331 0.756628 6.36105L2.99876 8.60317L5.24337 6.35856C5.30518 6.2968 5.38757 6.2627 5.47542 6.2627C5.56337 6.2627 5.64576 6.2968 5.70761 6.35856L5.90415 6.55519C5.96595 6.61699 6 6.69938 6 6.78729C6 6.87519 5.96595 6.95763 5.90415 7.01938L3.23168 9.69195C3.16968 9.75385 3.0869 9.78785 2.9989 9.78765C2.91056 9.78785 2.82783 9.75385 2.76588 9.69195Z" fill="#C1CCEB"/>
<path d="M3.23412 0.0957008L5.90415 2.76578C5.96595 2.82754 6 2.90997 6 2.99788C6 3.08578 5.96595 3.16822 5.90415 3.22997L5.70756 3.4266C5.57947 3.55455 5.37127 3.55455 5.24337 3.4266L3.00124 1.18448L0.756628 3.42909C0.694824 3.49085 0.612434 3.52495 0.524581 3.52495C0.436631 3.52495 0.354241 3.49085 0.292387 3.42909L0.0958529 3.23246C0.0340486 3.17066 -1.04822e-09 3.08827 0 3.00036C1.04822e-09 2.91246 0.0340486 2.83002 0.0958529 2.76827L2.76832 0.0957008C2.83032 0.0338008 2.9131 -0.000199123 3.0011 8.77353e-07C3.08944 -0.000199123 3.17217 0.0338008 3.23412 0.0957008Z" fill="#C1CCEB"/>
</svg>
