<svg width="38" height="38" viewBox="0 0 38 38" fill="none" xmlns="http://www.w3.org/2000/svg">
<g clip-path="url(#clip0_221:2102)">
<path d="M10.1049 14.5119C9.97402 14.915 10.0832 15.3574 10.3867 15.6532L13.8856 19.064L13.0597 23.8799C12.988 24.2975 13.1599 24.7196 13.5027 24.9687C13.6966 25.1096 13.9262 25.1813 14.1571 25.1813C14.3343 25.1813 14.5121 25.1391 14.675 25.0534L19.0002 22.7797L23.3253 25.0534C23.4881 25.139 23.666 25.1813 23.8433 25.1813H23.847C24.4608 25.1801 24.9582 24.6821 24.9582 24.068C24.9582 23.9826 24.9485 23.8993 24.9302 23.8193L24.1145 19.064L27.6136 15.6532C27.9171 15.3574 28.0264 14.915 27.8953 14.5119C27.7644 14.1089 27.4161 13.8151 26.9967 13.7543L22.1612 13.0517L19.9987 8.66986C19.8111 8.28986 19.4241 8.04932 19.0003 8.04932C18.5766 8.04932 18.1896 8.28993 18.002 8.66986L15.8394 13.0517L11.0039 13.7543C10.5843 13.8152 10.236 14.109 10.1049 14.5119Z" fill="white"/>
<path d="M37.2311 16.6671C37.1182 16.6304 36.095 16.3085 34.9265 16.3085C34.1951 16.3085 33.5536 16.437 33.0135 16.6895C33.0028 16.5027 32.9893 16.3165 32.9712 16.1307C33.888 15.8714 35.1372 15.3491 35.8474 14.3352C36.9938 12.6981 36.4549 10.177 36.3898 9.8949C36.2616 9.34004 35.7348 8.97147 35.1698 9.04064C34.8962 9.07412 32.5716 9.39875 31.3594 10.8412C31.2764 10.6874 31.1911 10.5346 31.1021 10.3837C31.0962 10.3735 31.0898 10.3637 31.0839 10.3537C31.8049 9.73118 32.7155 8.73034 32.9303 7.51211C33.2774 5.54353 31.7235 3.48663 31.5453 3.25856C31.1944 2.80991 30.5617 2.69843 30.0786 2.99998C29.8449 3.14604 27.8736 4.42394 27.3855 6.24497C26.9492 5.9193 26.4945 5.61716 26.0215 5.34351C25.4892 5.03565 24.8083 5.21726 24.5003 5.74949C24.1924 6.28164 24.3742 6.96274 24.9063 7.2706C25.9061 7.84921 26.8013 8.56498 27.5746 9.38532C29.6128 11.5158 30.865 14.4046 30.865 17.5858C30.865 24.1387 25.5528 29.4507 19.0001 29.4507C12.4473 29.4507 7.13524 24.1387 7.13524 17.5859C7.13524 14.407 8.38546 11.5203 10.4209 9.39021C11.1954 8.5678 12.0921 7.85032 13.094 7.27068C13.6263 6.96282 13.8081 6.28171 13.5002 5.74949C13.1924 5.21726 12.5114 5.03565 11.9792 5.34329C11.5061 5.61701 11.0512 5.91923 10.6147 6.24482C10.1269 4.42379 8.1553 3.14589 7.92151 2.99991C7.4385 2.69821 6.80564 2.80976 6.45495 3.25848C6.27668 3.48648 4.72269 5.54346 5.06973 7.51226C5.28467 8.73041 6.19519 9.7311 6.91637 10.3536C6.91043 10.3637 6.90405 10.3734 6.89811 10.3834C6.80912 10.5344 6.72385 10.6873 6.6408 10.8412C5.42836 9.39868 3.10383 9.07412 2.83026 9.04057C2.26508 8.9714 1.73857 9.33997 1.6104 9.8949C1.54516 10.177 1.00648 12.6981 2.15286 14.335C2.86284 15.349 4.11224 15.8713 5.02899 16.1306C5.01088 16.3164 4.99737 16.5027 4.98653 16.6894C4.44674 16.437 3.80512 16.3084 3.07369 16.3084C1.90534 16.3084 0.881941 16.6303 0.769128 16.667C0.227554 16.8432 -0.0938133 17.3998 0.0244913 17.9569C0.0846085 18.2401 0.661882 20.7524 2.39296 21.752C2.98122 22.0916 3.71019 22.2638 4.55963 22.2638C4.99188 22.2638 5.40402 22.2197 5.75774 22.1624C5.81994 22.3389 5.88517 22.5139 5.95412 22.6872C5.95353 22.6872 5.95294 22.6871 5.95242 22.6871C4.06823 22.6871 2.3177 24.2694 2.12421 24.4499C1.70777 24.8385 1.65181 25.4787 1.99448 25.9337C2.1686 26.1649 3.75354 28.1983 5.74468 28.3724C5.83916 28.3806 5.93616 28.3848 6.03317 28.3848H6.03346C7.16515 28.3848 8.24815 27.8141 8.97498 27.3189C9.10605 27.4528 9.23949 27.5841 9.37576 27.7127C7.66323 28.507 6.74493 30.6753 6.64154 30.9313C6.42831 31.4595 6.64822 32.0634 7.1512 32.3309C7.31255 32.4167 8.77199 33.1696 10.29 33.1698H10.2903C10.7567 33.1698 11.1909 33.0978 11.5807 32.9561C12.7437 32.5326 13.5714 31.4609 14.0593 30.6425C14.4592 30.7933 14.8679 30.9264 15.2842 31.0408C14.6362 31.6996 14.0427 32.5382 13.5221 33.5442C13.2394 34.0901 13.4529 34.762 13.999 35.0446C14.545 35.3271 15.2168 35.1138 15.4995 34.5676C16.495 32.6441 17.7711 31.541 19.0004 31.541C20.2298 31.541 21.5058 32.6441 22.5014 34.5677C22.6994 34.95 23.0882 35.1694 23.491 35.1694C23.6634 35.1694 23.8384 35.1292 24.0019 35.0445C24.5479 34.7618 24.7615 34.0901 24.4788 33.544C23.9581 32.5381 23.3647 31.6993 22.7167 31.0406C23.133 30.9263 23.5415 30.7932 23.9415 30.6423C24.4292 31.4608 25.2572 32.5326 26.4204 32.9561C26.8099 33.0977 27.2441 33.1696 27.7107 33.1696C29.2287 33.1696 30.6881 32.4166 30.8496 32.3307C31.3524 32.0632 31.5724 31.4593 31.3591 30.9311C31.2557 30.6752 30.3373 28.5068 28.6249 27.7125C28.7612 27.5841 28.8947 27.4527 29.0257 27.3189C29.7525 27.8139 30.8357 28.3846 31.9674 28.3846C32.0644 28.3846 32.1613 28.3805 32.256 28.3723C34.247 28.1981 35.832 26.1648 36.0062 25.9335C36.3487 25.4785 36.2927 24.8383 35.8763 24.4498C35.683 24.2693 33.9324 22.6869 32.0482 22.6869C32.0477 22.6869 32.0471 22.687 32.0464 22.687C32.1156 22.5138 32.1808 22.3387 32.2429 22.1622C32.5967 22.2195 33.0089 22.2636 33.441 22.2636C34.2903 22.2636 35.0194 22.0914 35.608 21.7517C37.3386 20.7522 37.9161 18.24 37.976 17.9568C38.0939 17.3998 37.7726 16.8433 37.2311 16.6671Z" fill="white"/>
</g>
<defs>
<clipPath id="clip0_221:2102">
<rect width="38" height="38" fill="white"/>
</clipPath>
</defs>
</svg>
