<svg width="682" height="1092" viewBox="0 0 682 1092" fill="none" xmlns="http://www.w3.org/2000/svg">
<g clip-path="url(#clip0_2289_7329)">
<path d="M543.175 466.988C518.945 465.285 496.812 482.031 472.66 483.014C442.298 484.081 417.692 460.826 393.046 443.261C368.401 425.696 332.006 413.551 309.991 434.327C293.059 450.141 294.029 477.776 303.761 498.788C313.493 519.8 329.633 536.897 341.561 556.86C352.301 575.205 359.284 596.041 361.46 617.177C364.743 647.793 358.216 679.325 363.616 709.723C369.016 740.121 392.515 771.475 423.471 769.46C453.081 767.485 471.871 737.447 482.869 710.021C494.123 682.536 505.575 651.219 532.931 639.487C547.963 633.037 565.746 633.796 579.354 624.701C627.498 592.747 604.809 471.136 543.175 466.988Z" stroke="url(#paint0_linear_2289_7329)" stroke-width="0.5" stroke-miterlimit="10" stroke-linecap="round" stroke-linejoin="round"/>
<path d="M361.857 711.482C363.657 721.615 367.118 731.904 372.261 741.265C382.725 760.755 399.874 775.184 420.544 775.546C433.341 775.834 444.557 771.619 454.427 763.929C467.995 753.49 479.052 736.87 486.845 720.192C497.783 696.026 507.831 668.008 527.136 651.916C530.064 649.346 533.367 647.23 536.729 645.371C550.951 637.757 567.863 637.094 581.807 627.109C588.75 621.988 594.941 615.959 599.688 608.371C606.868 597.245 609.538 584.185 610.824 569.823C612.109 551.945 610.922 532.745 606.314 515.147C602.12 499.347 595.217 484.713 585.821 473.361C575.358 460.903 561.749 452.417 545.767 451.242C521.537 449.539 499.542 465.712 475.193 467.012C444.89 468.335 421.115 445.159 395.579 430.775C384.996 424.836 372.318 421.545 359.678 419.597C346.208 417.572 332.244 418.094 319.743 422.606C313.947 424.486 308.646 427.334 303.899 431.407C286.335 446.826 286.79 474.58 295.493 495.83C299.667 505.685 305.008 514.729 311.12 523.594C318.102 533.882 325.282 543.853 331.612 554.832C342.412 573.433 348.88 594.388 352.144 615.543C354.537 631.759 355.981 647.384 356.911 663.127C357.584 678.93 358.889 695.128 361.857 711.482Z" stroke="url(#paint1_linear_2289_7329)" stroke-width="0.5" stroke-miterlimit="10" stroke-linecap="round" stroke-linejoin="round"/>
<path d="M360.096 713.242C362.015 723.888 365.278 734.494 370.223 744.17C380.291 764.293 397.045 779.355 417.359 781.692C430.137 783.067 442.024 780.59 453.22 773.945C468.43 764.75 481.663 748.168 490.564 730.423C502.985 705.643 512.934 676.026 531.112 658.571C533.98 655.744 536.966 653.431 540.27 651.315C553.68 642.536 569.722 640.451 583.745 629.637C591.084 623.884 598.244 617.36 603.762 609.593C612.564 597.281 614.74 583.254 615.927 567.292C617.311 547.498 617.054 526.46 612.544 506.946C608.509 489.486 601.763 473.193 591.438 460.162C580.361 446.223 565.111 436.494 547.527 435.418C523.297 433.715 501.242 449.632 476.893 450.931C446.709 452.768 423.705 429.414 397.536 418.151C386.044 412.963 372.416 412.597 358.847 412.487C344.447 412.299 329.494 414.402 315.193 419.33C308.943 421.586 302.494 424.158 297.035 428.666C279.095 443.631 278.779 471.564 286.711 492.992C290.37 502.965 295.454 512.069 301.111 521.31C307.579 531.716 314.818 541.944 320.891 552.983C331.493 571.9 338.02 593.112 342.056 614.088C345.458 631.153 348.821 646.875 351.412 662.776C353.805 678.992 356.891 695.86 360.096 713.242Z" stroke="url(#paint2_linear_2289_7329)" stroke-width="0.5" stroke-miterlimit="10" stroke-linecap="round" stroke-linejoin="round"/>
<path d="M358.395 715.258C360.373 726.161 363.439 737.083 368.246 747.332C377.978 768.344 394.336 784.038 414.492 788.035C427.566 790.693 440.067 789.698 452.014 783.961C468.609 776.069 484.334 759.722 494.342 740.91C507.99 715.576 518.157 684.556 535.207 665.739C537.758 662.715 540.686 660.145 543.929 657.772C556.529 647.828 571.7 644.322 585.803 632.678C593.735 625.976 601.666 619.274 608.154 611.013C618.835 597.455 620.259 582.52 621.347 564.958C622.573 543.306 623.562 520.628 619.091 498.941C615.274 480.078 608.37 461.929 597.175 447.476C585.228 432.115 568.652 421.34 549.406 420.108C525.176 418.405 503.003 433.808 478.773 435.621C448.648 437.714 423.824 419.379 399.357 406.1C385.946 404.331 372.12 404.28 357.621 406.008C342.549 407.598 326.29 411.086 310.249 416.686C303.227 419.121 295.948 421.614 290.034 426.497C271.52 441.325 270.571 468.863 277.731 490.469C281.134 500.502 285.762 509.981 291.103 519.025C297.373 529.747 304.158 540.351 310.23 551.389C320.634 570.623 327.162 591.835 332.028 612.889C336.439 630.803 341.661 646.366 345.775 662.997C350.285 678.994 354.894 696.592 358.395 715.258Z" stroke="url(#paint3_linear_2289_7329)" stroke-width="0.5" stroke-miterlimit="10" stroke-linecap="round" stroke-linejoin="round"/>
<path d="M356.951 717.215C359.245 728.315 361.916 739.87 366.525 750.435C375.663 772.396 391.883 788.663 411.682 794.635C425.053 798.578 437.91 799.122 451.183 794.432C469.42 787.783 487.32 771.474 498.436 751.595C513.251 725.45 523.754 693.541 539.815 672.789C542.307 669.508 544.918 666.741 547.786 663.914C559.575 652.805 573.876 647.877 588.058 635.403C596.385 628.069 605.345 621.129 612.545 612.433C624.848 597.688 625.777 581.786 626.766 562.624C628.091 539.056 629.752 514.6 625.638 490.937C621.978 470.415 614.917 450.408 603.168 434.731C590.607 417.889 572.39 405.871 551.74 404.422C527.509 402.719 505.218 417.608 481.047 419.678C451.041 422.285 425.999 405.353 401.888 393.614C387.488 393.426 372.792 395.47 357.304 398.779C341.302 402.207 323.797 407.334 306.47 413.232C298.677 415.845 290.884 418.457 284.198 423.519C265.309 437.892 263.588 465.608 269.977 487.393C272.865 497.545 277.236 507.083 282.379 516.443C288.135 527.284 294.722 538.204 300.537 549.302C310.744 568.852 317.331 590.321 322.968 611.197C328.131 630.019 335.529 645.62 341.305 662.407C346.823 679.254 352.896 697.325 356.951 717.215Z" stroke="url(#paint4_linear_2289_7329)" stroke-width="0.5" stroke-miterlimit="10" stroke-linecap="round" stroke-linejoin="round"/>
<path d="M355.191 718.974C357.604 730.588 360.334 742.399 364.488 753.34C373.231 775.933 389.173 793.346 408.498 800.781C422.166 806.007 435.696 808.29 449.66 804.251C469.282 798.905 489.358 782.634 501.898 761.884C517.939 735.186 528.403 701.933 543.534 679.503C545.967 675.965 548.518 672.941 551.07 669.917C562.048 657.643 575.221 651.353 589.739 637.989C598.403 629.766 608.391 622.589 616.56 613.398C630.485 597.467 630.92 580.597 631.87 560.092C633.036 534.668 635.884 508.314 632.126 482.675C628.625 460.494 621.464 438.888 608.845 421.789C595.414 403.525 575.871 390.46 553.56 388.855C529.329 387.152 506.919 401.527 482.867 404.111C452.92 406.975 427.978 391.642 403.708 381.563C388.062 383.015 372.752 387.094 356.335 392.241C339.404 397.507 320.85 403.958 301.783 410.529C293.218 413.32 284.594 415.854 277.196 421.35C257.99 435.526 255.439 463.164 260.8 485.186C263.43 495.397 267.288 505.055 272.233 514.731C277.791 525.888 284.12 536.868 289.738 548.282C299.747 568.148 306.393 589.873 312.742 610.315C318.914 629.986 328.23 645.684 335.47 662.945C343.303 679.256 350.898 698.057 355.191 718.974Z" stroke="url(#paint5_linear_2289_7329)" stroke-width="0.5" stroke-miterlimit="10" stroke-linecap="round" stroke-linejoin="round"/>
<path d="M353.489 720.989C355.962 732.86 358.494 744.987 362.509 756.501C370.916 779.983 386.463 798.029 405.63 807.123C419.594 813.633 433.48 817.456 448.77 814.463C470.033 810.361 492.285 794.128 505.933 772.311C523.2 745.059 533.881 710.404 548.083 686.294C550.199 682.56 552.691 679.279 555.184 675.998C565.35 662.559 577.653 654.847 592.449 640.338C601.765 631.423 612.525 624.067 621.347 614.184C636.893 597.067 636.834 579.229 637.684 557.124C638.95 529.784 642.47 501.652 639.068 474.038C635.982 450.137 628.723 426.931 615.174 408.154C601.13 388.408 580.005 374.357 556.032 372.595C531.801 370.892 509.272 384.754 485.279 387.594C455.451 390.972 430.351 377.298 406.12 368.563C389.228 371.655 373.049 377.829 355.642 384.556C337.722 391.403 318.239 399.692 297.628 406.62C288.609 409.786 278.838 412.044 270.985 417.916C251.205 431.954 248.021 459.197 252.61 481.398C254.727 491.728 258.327 501.445 263.015 511.18C268.059 522.457 274.19 533.752 279.867 545.423C289.678 565.605 296.384 587.587 303.505 607.85C310.685 628.37 321.92 644.166 330.821 661.584C339.782 679.258 349.157 698.729 353.489 720.989Z" stroke="url(#paint6_linear_2289_7329)" stroke-width="0.5" stroke-miterlimit="10" stroke-linecap="round" stroke-linejoin="round"/>
<path d="M352.046 722.946C354.637 735.33 356.971 747.774 360.789 759.604C368.8 783.719 383.813 802.969 402.762 813.466C417.024 821.26 431.522 826.564 447.821 824.42C470.726 821.561 494.897 805.426 509.969 782.739C528.462 754.933 539.361 718.875 552.435 693.403C554.492 689.412 556.668 685.934 558.844 682.455C568.199 667.851 579.573 658.461 594.506 643.379C604.159 633.574 615.947 625.981 625.798 615.861C643.223 597.498 642.412 578.752 643.421 554.987C644.528 525.79 649.236 495.761 645.991 466.487C643.123 441.184 635.706 416.121 621.543 395.863C606.629 374.696 584.376 359.282 558.801 357.62C534.571 355.917 511.923 369.265 487.99 372.362C458.221 375.996 433.219 363.923 409.028 356.531C390.95 361.521 374.097 369.473 355.762 378.038C337.169 386.663 316.38 396.336 294.029 403.936C284.238 407.28 273.953 409.658 265.329 415.708C245.232 429.549 241.217 456.713 245.035 479.092C246.894 489.481 250.04 499.574 254.213 509.428C259.059 521.021 264.934 532.376 270.354 544.106C279.908 564.348 286.989 586.784 294.624 606.928C302.813 628.297 315.967 644.19 326.529 661.765C336.261 679.26 347.16 699.462 352.046 722.946Z" stroke="url(#paint7_linear_2289_7329)" stroke-width="0.5" stroke-miterlimit="10" stroke-linecap="round" stroke-linejoin="round"/>
<path d="M350.286 724.705C352.936 737.346 355.132 750.363 358.752 762.509C366.427 787.513 381.103 807.652 399.578 819.612C414.195 828.946 428.991 835.534 446.357 834.496C470.647 832.939 497.251 816.783 513.43 793.028C532.893 764.728 544.266 727.208 556.411 700.058C558.151 695.869 560.209 691.877 562.325 688.142C570.87 672.373 581.373 661.561 596.385 645.649C606.374 634.956 619.508 627.322 629.754 616.569C648.801 597.02 647.496 577.307 648.405 551.942C649.612 520.828 654.992 489.021 652.103 457.772C649.393 430.809 641.877 404.146 626.844 382.466C611.376 360.075 587.482 343.418 560.245 341.598C536.015 339.895 513.308 352.987 489.433 356.341C459.784 360.488 434.564 349.818 410.472 344.025C391.147 350.655 373.425 360.702 354.417 371.046C334.894 381.508 312.859 392.822 288.965 400.778C278.403 404.301 267.287 406.6 257.951 413.085C237.538 426.728 232.692 453.814 235.739 476.372C237.084 486.88 239.972 497.032 243.948 507.202C248.279 518.914 253.956 530.585 259.435 542.572C268.791 563.13 275.873 585.566 284.339 605.789C293.794 627.947 308.609 643.997 320.635 662.045C332.8 679.519 345.163 700.194 350.286 724.705Z" stroke="url(#paint8_linear_2289_7329)" stroke-width="0.5" stroke-miterlimit="10" stroke-linecap="round" stroke-linejoin="round"/>
<path d="M348.584 726.722C351.294 739.619 353.292 752.952 356.773 765.671C363.795 791.367 378.512 812.85 396.452 826.014C411.109 836.692 426.775 844.702 445.15 844.512C471.081 844.199 499.604 828.141 517.208 803.516C537.838 774.405 549.23 735.798 560.445 706.969C562.127 702.524 563.867 698.335 565.667 694.403C573.401 677.468 582.776 665.294 598.125 648.493C608.51 637.167 622.613 629.039 633.887 618.049C654.814 597.254 652.757 576.632 653.567 549.667C654.615 516.697 661.182 482.992 658.393 449.827C655.841 421.205 648.225 392.942 632.579 369.78C616.241 345.968 591.022 328.264 562.38 326.228C538.15 324.525 515.324 337.104 491.51 340.714C461.919 345.119 436.541 336.108 412.806 331.856C392.235 340.126 373.899 352.208 353.644 364.192C333.192 376.492 310.109 389.13 284.732 397.7C273.398 401.401 261.51 403.878 251.66 410.482C230.99 424.185 225.254 450.936 227.272 473.731C228.36 484.298 230.734 494.569 234.453 504.799C238.587 516.827 244.006 528.557 249.228 540.604C258.387 561.478 265.784 584.111 275.022 604.156C285.486 627.162 302.16 643.054 315.907 661.515C329.278 679.522 343.164 700.926 348.584 726.722Z" stroke="url(#paint9_linear_2289_7329)" stroke-width="0.5" stroke-miterlimit="10" stroke-linecap="round" stroke-linejoin="round"/>
<path d="M346.883 728.738C349.711 742.149 351.511 755.798 354.795 768.834C361.481 795.418 375.604 817.85 393.584 832.358C408.537 844.319 424.619 854.126 444.003 854.785C471.576 855.716 502.215 839.439 520.985 814.003C542.842 784.338 554.452 744.329 564.48 713.881C566.102 709.179 567.526 704.792 569.267 700.603C576.19 682.504 584.636 668.651 600.38 651.218C611.358 638.944 626.291 630.894 638.219 619.212C660.827 597.487 658.216 575.641 658.927 547.076C660.074 512.19 667.313 476.707 664.88 441.566C662.487 411.285 654.713 381.165 638.454 356.522C621.502 331.228 594.641 312.281 564.338 310.088C540.108 308.385 517.164 320.45 493.408 324.317C463.936 329.235 438.657 321.824 414.645 318.718C392.828 328.629 373.879 342.746 352.695 356.568C331.254 370.449 307.241 384.924 280.064 393.91C268.216 397.73 255.497 400.129 244.935 407.168C223.949 420.673 217.323 447.089 218.569 470.062C219.143 480.749 221.318 491.335 224.78 501.625C228.657 513.712 233.622 525.818 238.903 538.122C247.864 559.312 255.578 582.143 265.329 602.068C276.802 625.924 295.395 641.913 310.804 660.531C325.757 679.524 341.166 701.659 346.883 728.738Z" stroke="url(#paint10_linear_2289_7329)" stroke-width="0.5" stroke-miterlimit="10" stroke-linecap="round" stroke-linejoin="round"/>
<path d="M345.38 730.437C348.268 744.105 349.929 758.327 353.015 771.679C359.365 799.153 372.894 822.533 390.657 838.443C405.709 852.005 422.601 862.977 442.994 864.485C471.952 866.718 504.766 850.479 524.961 824.173C548.044 793.955 559.872 752.542 569.03 720.673C570.335 715.773 571.7 711.13 573.322 706.428C579.434 687.164 587.009 671.889 602.833 653.626C614.147 640.462 630.109 632.175 642.748 620.058C666.978 597.147 663.616 574.393 664.486 544.168C665.474 507.425 673.9 470.045 671.566 432.988C669.39 401.304 661.458 369.327 644.328 343.263C626.507 316.547 598.32 296.554 566.356 294.204C541.868 292.561 519.062 304.053 495.426 308.433C466.013 313.608 440.576 307.856 416.92 306.291C393.916 318.099 374.037 334.054 351.923 349.713C329.553 365.432 304.235 381.291 275.831 390.831C263.271 395.086 249.722 397.406 238.388 404.623C217.085 417.932 209.628 444.269 210.103 467.42C210.42 478.166 212.081 488.872 215.088 499.537C218.451 511.743 223.218 524.165 228.499 536.469C237.262 557.975 245.292 581.003 255.558 600.81C268.297 625.455 288.551 641.601 305.424 660.692C322.237 679.526 339.169 702.391 345.38 730.437Z" stroke="url(#paint11_linear_2289_7329)" stroke-width="0.5" stroke-miterlimit="10" stroke-linecap="round" stroke-linejoin="round"/>
<path d="M343.679 732.454C346.685 746.635 348.09 760.917 351.037 774.841C356.991 802.948 370.244 827.474 387.531 844.846C402.94 859.948 420.129 872.204 441.847 874.758C472.446 878.235 507.437 862.034 528.739 834.661C552.732 803.691 565.094 761.073 573.065 727.585C574.311 722.428 575.616 717.528 576.665 712.688C581.966 692.259 588.354 675.365 604.514 656.213C616.224 642.417 633.472 633.833 646.823 621.28C672.932 597.124 668.818 573.461 669.648 541.894C670.736 503.234 680.091 464.016 677.915 425.3C675.897 391.956 668.123 358.32 650.124 330.834C631.689 302.637 601.92 281.658 568.551 279.091C544.064 277.448 521.139 288.426 497.304 293.123C468.011 298.811 442.613 294.403 418.798 294.497C394.806 307.886 374.057 325.935 350.954 343.175C327.911 360.673 301.347 378.172 271.143 388.128C257.811 392.561 243.748 395 231.583 402.139C209.964 415.25 201.677 441.509 201.38 464.838C201.182 475.703 202.587 486.468 205.336 497.193C208.501 509.715 213.011 522.197 217.838 534.876C226.402 556.698 234.69 579.667 245.53 599.612C259.277 625.105 281.45 641.349 299.984 660.597C318.775 679.786 337.171 703.123 343.679 732.454Z" stroke="url(#paint12_linear_2289_7329)" stroke-width="0.5" stroke-miterlimit="10" stroke-linecap="round" stroke-linejoin="round"/>
<path d="M341.978 734.47C345.044 748.908 346.31 763.762 349.059 778.003C354.677 806.998 367.396 832.73 384.663 851.189C400.112 867.634 418.23 881.569 440.7 885.031C473 890.008 509.85 873.647 532.518 845.148C557.737 813.624 570.316 769.603 577.357 734.437C578.287 729.083 579.533 723.926 580.522 718.829C585.012 697.235 590.53 678.919 606.769 658.937C618.815 644.252 637.092 635.43 651.155 622.443C678.886 597.1 674.277 572.47 675.266 539.243C676.195 498.727 686.48 457.671 684.66 416.979C683.058 381.917 674.928 346.74 656.058 317.832C636.752 288.213 605.599 265.931 570.628 263.465C546.141 261.821 523.157 272.542 499.381 277.496C470.147 283.441 444.591 280.692 421.073 282.07C395.834 297.1 374.215 317.243 350.44 336.262C326.408 355.34 298.854 374.42 266.91 385.049C252.807 389.661 237.913 392.021 225.294 399.536C203.417 412.706 194.18 438.372 192.855 461.94C192.4 472.864 193.291 483.748 195.842 494.789C198.493 507.43 202.805 520.228 207.631 532.907C215.998 555.046 224.603 578.212 235.957 598.037C250.97 624.32 274.805 640.721 294.743 660.185C315.255 679.788 335.173 703.855 341.978 734.47Z" stroke="url(#paint13_linear_2289_7329)" stroke-width="0.5" stroke-miterlimit="10" stroke-linecap="round" stroke-linejoin="round"/>
<path d="M340.474 736.169C343.857 750.805 344.984 766.232 347.279 780.848C352.501 810.476 364.686 837.413 381.736 857.274C397.283 875.32 415.955 890.479 439.691 894.73C473.376 901.01 512.402 884.688 536.493 855.318C562.879 822.983 575.795 778.074 581.59 741.031C582.461 735.421 583.39 730.067 584.32 724.713C587.999 701.954 592.39 682.276 609.222 661.345C621.861 645.712 640.968 636.968 656.001 623.486C685.611 596.898 680.25 571.359 681.14 536.532C682.168 494.1 693.443 451.464 691.662 408.598C690.218 371.876 681.989 335.1 662.506 304.711C642.587 273.611 610.108 250.283 573.219 247.719C548.732 246.075 525.629 256.283 501.913 261.493C472.797 267.952 447.083 266.862 423.605 269.584C397.12 286.254 374.887 308.432 349.866 329.091C324.904 350.007 296.105 370.728 262.875 381.653C248.258 386.384 232.592 388.923 218.944 396.675C196.751 409.648 186.684 435.236 184.587 458.982C183.618 470.025 184.311 481.225 186.605 492.325C189.058 505.282 193.113 518.14 197.741 531.135C205.911 553.59 214.832 576.953 226.7 596.66C242.919 623.476 268.416 640.033 290.134 660.168C311.477 679.849 333.432 704.528 340.474 736.169Z" stroke="url(#paint14_linear_2289_7329)" stroke-width="0.5" stroke-miterlimit="10" stroke-linecap="round" stroke-linejoin="round"/>
<path d="M338.774 738.185C342.275 753.334 343.145 768.821 345.301 784.01C349.93 814.586 361.778 842.412 378.611 863.677C394.257 883.322 413.74 899.646 438.287 905.062C473.614 912.586 514.815 896.302 540.014 865.864C567.627 832.976 580.503 786.723 585.428 748.259C586.239 742.391 586.852 736.84 587.406 731.032C590.274 707.108 593.735 685.751 610.706 664.248C623.681 647.725 643.817 638.744 659.561 624.827C690.853 597.309 684.939 570.546 685.729 534.119C686.856 489.771 698.803 445.356 697.379 400.515C696.152 362.39 687.765 323.757 667.609 291.63C646.879 259.365 612.957 234.477 574.722 231.954C550.235 230.31 527.014 240.004 503.357 245.472C474.301 252.187 448.686 252.697 425.049 257.078C397.318 275.388 374.156 299.405 348.521 322.099C322.63 344.852 292.782 366.897 257.812 378.496C242.482 383.661 225.986 386.122 211.824 393.993C189.314 406.768 178.416 432.278 175.548 456.202C174.322 467.305 174.757 478.564 176.28 489.843C178.219 502.919 182.076 516.092 186.764 529.344C194.735 552.115 203.913 575.419 216.296 595.007C233.781 622.612 260.939 639.326 284.319 659.618C307.956 679.851 331.435 705.26 338.774 738.185Z" stroke="url(#paint15_linear_2289_7329)" stroke-width="0.5" stroke-miterlimit="10" stroke-linecap="round" stroke-linejoin="round"/>
<path d="M337.073 740.201C340.633 755.607 341.365 771.667 343.581 787.113C347.873 818.578 359.128 847.353 376 869.96C391.686 890.949 411.782 908.754 437.595 914.96C474.564 923.727 517.624 907.283 544.307 876.232C572.829 842.593 586.239 795.135 590.235 754.992C590.729 748.927 591.223 742.862 591.777 737.054C593.834 711.965 596.425 689.187 613.475 666.854C626.846 649.699 648.01 640.48 664.665 625.812C697.578 597.108 691.169 569.377 691.861 531.35C692.771 484.888 705.963 438.833 704.638 392.076C703.569 352.292 695.024 311.801 674.057 278.509C652.715 244.763 617.209 218.889 577.254 215.951C552.767 214.308 529.427 223.489 505.889 229.47C476.951 236.698 451.119 238.611 427.838 244.533C398.92 264.74 375.085 290.535 348.521 315.066C321.7 339.658 290.864 363.284 254.093 375.298C237.992 380.642 220.665 383.024 206.048 391.271C183.024 404.165 171.434 429.023 167.854 453.382C166.113 464.604 166.291 475.923 167.617 487.517C169.357 500.91 172.958 514.142 177.388 527.454C185.103 550.285 194.656 574.043 207.553 593.512C226.305 621.906 255.124 638.777 279.908 659.286C304.435 679.854 329.437 705.992 337.073 740.201Z" stroke="url(#paint16_linear_2289_7329)" stroke-width="0.5" stroke-miterlimit="10" stroke-linecap="round" stroke-linejoin="round"/>
<path d="M335.312 741.96C338.991 757.88 339.526 774.256 341.543 790.018C345.44 822.116 356.221 852.353 372.816 876.106C388.6 898.694 409.567 917.921 436.389 924.976C474.742 935.046 519.978 918.64 548.026 886.463C577.774 852.269 591.402 803.409 594.21 761.647C594.646 755.325 594.824 749.063 595.318 742.998C596.564 716.744 597.968 692.347 615.414 669.382C629.121 651.337 651.571 641.821 668.74 627.034C703.532 597.084 696.371 568.445 696.964 528.818C697.973 480.44 711.838 432.606 710.868 383.874C709.958 342.43 701.571 300.281 679.734 265.567C657.778 230.34 620.691 203.478 579.331 200.325C554.844 198.681 531.385 207.348 507.906 213.586C479.028 221.072 451.692 221.168 429.796 231.909C396.526 248.524 374.927 281.645 347.374 307.758C319.564 333.931 287.481 359.197 249.484 371.765C232.612 377.288 214.771 379.788 199.125 388.273C175.785 400.97 163.364 425.749 158.696 450.089C156.698 461.37 156.421 473.065 157.49 484.719C158.716 498.23 162.118 511.779 166.608 525.347C174.125 548.494 183.936 572.193 197.406 591.8C217.424 620.983 247.904 638.012 274.41 658.934C300.974 680.113 327.44 706.724 335.312 741.96Z" stroke="url(#paint17_linear_2289_7329)" stroke-width="0.5" stroke-miterlimit="10" stroke-linecap="round" stroke-linejoin="round"/>
<path d="M333.868 743.917C337.607 760.094 337.943 776.786 339.822 793.121C343.383 826.108 353.313 857.352 369.948 882.449C385.772 906.381 407.352 927.089 435.182 934.993C475.177 946.306 522.589 929.938 551.803 896.95C582.719 861.946 596.624 811.939 598.502 768.499C598.878 761.92 598.997 755.402 598.918 749.199C599.352 721.78 599.886 695.961 617.609 671.85C631.652 652.916 655.19 643.419 673.269 627.881C709.683 596.745 702.028 567.138 702.582 526.168C703.432 475.933 718.484 426.202 717.672 375.81C716.92 332.707 708.434 288.957 685.984 252.763C663.158 216.114 624.686 187.949 581.724 184.895C557.236 183.252 533.659 191.406 510.24 197.9C481.48 205.899 454.045 207.912 432.387 219.68C397.99 238.449 375.659 273.092 347.176 301.042C318.693 328.993 285.365 355.9 245.568 368.884C227.924 374.585 209.311 377.263 193.151 385.867C169.554 398.623 156.243 423.068 150.803 447.586C148.291 458.986 147.757 470.74 148.568 482.453C149.597 496.281 152.485 509.948 156.975 523.517C164.294 546.98 174.421 570.876 188.406 590.364C209.689 620.337 241.832 637.522 269.741 658.661C297.453 680.115 325.442 707.457 333.868 743.917Z" stroke="url(#paint18_linear_2289_7329)" stroke-width="0.5" stroke-miterlimit="10" stroke-linecap="round" stroke-linejoin="round"/>
<path d="M332.167 745.933C335.965 762.366 336.163 779.631 337.845 796.282C341.01 829.902 350.405 862.351 367.08 888.791C383.003 914.323 405.394 936.196 434.292 945.205C475.672 957.821 525.26 941.492 555.839 907.377C587.981 871.819 602.103 820.41 602.854 775.607C602.914 768.831 602.973 762.055 602.775 755.339C602.34 726.499 601.746 699.317 619.864 674.574C634.244 654.751 658.81 645.016 677.66 629.3C716.013 597.174 707.488 566.146 708.259 523.773C709.208 471.622 725.189 420.054 724.734 367.686C724.14 322.923 715.555 277.574 692.175 239.7C668.479 201.63 628.681 172.419 584.058 169.209C559.571 167.565 535.934 175.462 512.574 182.213C483.616 190.529 456.399 194.655 434.721 207.509C398.88 228.234 375.501 264.202 346.088 293.99C316.617 323.522 282.299 352.009 241.019 365.607C222.92 371.683 203.417 374.027 186.545 383.065C162.631 395.624 148.232 420.05 142.278 444.687C139.509 456.146 138.461 468.019 138.817 480.108C139.589 493.995 142.279 507.979 146.314 521.923C153.435 545.702 163.879 569.795 178.378 589.165C200.868 619.67 234.731 637.269 264.302 658.565C293.932 680.117 323.444 708.188 332.167 745.933Z" stroke="url(#paint19_linear_2289_7329)" stroke-width="0.5" stroke-miterlimit="10" stroke-linecap="round" stroke-linejoin="round"/>
<path d="M330.407 747.692C334.323 764.638 334.324 782.219 335.807 799.187C338.636 833.696 347.438 867.094 363.895 894.937C379.858 921.812 402.921 945.423 432.769 955.024C475.85 969.14 527.495 952.336 559.3 917.667C592.352 881.357 607.008 828.743 606.573 782.321C606.573 775.288 606.316 768.315 606.058 761.342C604.812 731.337 603.348 702.734 621.545 677.16C636.261 656.448 661.916 646.733 681.675 630.265C721.65 596.954 712.63 564.958 713.302 520.985C714.093 466.977 731.004 413.571 730.905 359.227C730.786 313.003 721.786 265.856 697.792 226.501C673.483 186.949 632.103 156.752 585.818 153.384C561.331 151.741 537.575 159.124 514.275 166.132C485.436 174.961 458.318 180.688 436.62 194.628C400.284 217.902 375.916 255.451 345.515 286.82C315.113 318.189 279.807 348.258 236.726 362.271C217.856 368.526 197.582 371.048 179.939 380.264C155.768 392.883 140.419 416.716 133.753 441.789C130.47 453.367 129.165 465.299 129.323 477.704C129.58 491.71 132.073 506.01 136.108 519.954C143.031 544.049 153.989 568.024 168.804 587.59C192.56 618.885 228.026 636.384 259.377 658.351C290.411 680.119 321.446 708.92 330.407 747.692Z" stroke="url(#paint20_linear_2289_7329)" stroke-width="0.5" stroke-miterlimit="10" stroke-linecap="round" stroke-linejoin="round"/>
<path d="M328.963 749.649C332.939 766.852 332.998 784.69 334.086 802.29C336.579 837.687 344.788 872.034 361.027 901.28C377.089 929.755 400.706 954.59 431.879 965.237C476.344 980.656 530.165 963.89 563.336 928.094C597.614 891.231 612.547 837.47 611.122 789.113C610.806 781.883 610.489 774.654 609.916 767.483C607.858 736.313 605.207 706.091 623.8 679.885C639.169 658.481 665.535 648.331 686.007 631.428C727.604 596.93 718.09 563.967 718.663 518.394C719.552 462.469 737.393 407.225 737.393 350.966C737.432 303.082 728.333 254.335 703.469 213.559C678.289 172.585 635.782 141.026 587.895 137.758C563.408 136.114 539.533 142.984 516.292 150.249C487.513 159.334 460.355 167.234 438.637 182.261C401.491 207.886 375.817 246.818 344.743 279.966C313.155 313.232 276.8 344.625 232.236 359.252C212.595 365.685 191.806 368.325 173.391 377.72C148.904 390.142 132.724 413.896 124.971 438.95C121.431 450.587 119.67 462.895 119.512 475.103C119.572 489.425 121.807 503.785 125.644 518.044C132.37 542.456 143.644 566.628 158.974 586.076C184.193 617.844 221.122 635.816 253.878 657.998C286.95 680.378 319.449 709.653 328.963 749.649Z" stroke="url(#paint21_linear_2289_7329)" stroke-width="0.5" stroke-miterlimit="10" stroke-linecap="round" stroke-linejoin="round"/>
<path d="M327.262 751.664C331.357 769.381 331.218 787.535 332.109 805.452C334.206 841.482 341.623 877.093 357.902 907.682C373.746 937.56 398.491 963.757 430.416 975.313C476.523 991.975 532.262 975.306 566.857 938.64C602.302 900.966 617.512 846.06 614.96 796.341C614.584 788.854 613.951 781.427 613.259 773.743C610.133 741.467 606.869 709.764 625.798 682.669C641.503 660.376 669.215 650.185 690.399 632.847C733.874 597.104 723.351 563.291 724.083 516.059C724.814 458.278 743.584 401.196 743.94 342.961C744.137 293.418 735.137 242.754 709.463 200.813C683.669 158.359 639.58 125.813 589.972 122.131C565.425 120.23 541.492 126.844 518.369 134.622C489.708 144.221 462.709 153.977 440.714 170.15C402.697 197.87 376.035 238.383 343.972 273.111C311.652 307.899 274.051 340.933 227.746 356.232C207.334 362.843 185.774 365.662 166.845 375.176C142.041 387.4 124.971 410.82 116.505 436.308C112.451 448.064 110.433 460.432 110.077 472.956C109.623 487.396 111.66 502.072 115.497 516.332C122.025 541.06 133.557 565.172 149.46 584.758C175.945 617.316 214.536 635.445 249.012 658.041C283.429 680.38 317.451 710.385 327.262 751.664Z" stroke="url(#paint22_linear_2289_7329)" stroke-width="0.5" stroke-miterlimit="10" stroke-linecap="round" stroke-linejoin="round"/>
<path d="M325.501 753.424C329.655 771.398 329.378 790.125 330.071 808.357C331.574 845.336 338.656 881.837 354.974 913.769C370.917 945.246 396.275 972.925 429.466 985.27C477.214 1003.18 535.129 986.545 570.832 948.812C607.246 910.643 622.931 854.275 619.449 802.877C619.014 795.134 618.064 787.509 617.313 779.568C613.376 746.127 608.926 712.805 628.25 685.078C644.291 661.896 673.091 651.724 694.927 633.694C740.342 596.962 729.007 561.985 729.64 513.152C730.47 453.455 750.17 394.535 750.625 334.384C750.98 283.181 741.881 230.918 715.534 187.239C689.187 143.56 643.396 109.513 592.444 105.872C567.897 103.972 543.845 110.071 520.781 118.106C492.18 127.962 465.398 139.832 443.383 157.092C404.556 187.162 376.845 229 343.595 265.625C310.346 302.251 271.756 336.865 223.908 352.522C202.981 359.251 180.65 362.249 160.692 372C135.631 384.284 117.671 407.368 108.434 433.034C104.123 444.85 101.591 457.336 100.78 470.236C100.127 484.993 101.908 499.728 105.547 514.305C111.877 539.349 123.666 563.401 140.143 583.125C167.835 616.215 208.146 634.758 244.027 657.571C279.908 680.383 315.452 711.117 325.501 753.424Z" stroke="url(#paint23_linear_2289_7329)" stroke-width="0.5" stroke-miterlimit="10" stroke-linecap="round" stroke-linejoin="round"/>
<path d="M323.8 755.44C328.013 773.67 327.539 792.713 328.093 811.519C329.201 849.13 335.748 886.836 351.849 920.171C367.832 952.992 394.06 982.092 428.259 995.286C477.393 1014.49 537.424 997.645 574.61 959.298C612.191 920.319 627.896 862.864 623.485 809.788C622.733 801.847 621.724 793.966 620.656 785.828C615.908 751.222 610.587 716.478 629.932 687.664C646.309 663.593 676.137 653.183 698.745 634.975C745.781 597.057 733.953 561.112 734.803 510.877C735.475 449.323 756.164 388.822 756.974 326.695C757.547 274.09 748.29 219.97 721.073 174.869C693.855 129.768 646.739 94.6758 594.125 90.8774C569.578 88.977 545.407 94.5633 522.206 103.171C493.723 113.541 467.099 127.267 444.748 145.416C405.11 177.838 376.034 220.802 342.171 259.463C308.388 297.294 268.294 333.608 219.221 349.818C197.582 356.983 174.419 359.902 153.947 369.772C128.313 381.918 109.779 404.864 99.4546 430.511C94.6284 442.446 91.8989 455.248 90.7716 467.951C89.6047 482.827 91.1872 497.878 94.8862 512.711C101.018 538.071 113.124 562.322 130.115 581.926C159.33 615.746 201.045 634.506 238.588 657.475C276.387 680.385 313.455 711.849 323.8 755.44Z" stroke="url(#paint24_linear_2289_7329)" stroke-width="0.5" stroke-miterlimit="10" stroke-linecap="round" stroke-linejoin="round"/>
<path d="M322.356 757.397C326.688 776.141 326.016 795.5 326.372 814.622C327.144 853.122 332.841 891.836 348.982 926.514C365.063 960.935 391.845 991.26 427.112 1005.56C477.887 1026.01 539.838 1009.26 578.388 969.786C617.136 929.996 633.118 871.395 627.52 816.7C626.709 808.502 625.324 800.167 624.256 792.029C618.698 756.258 612.19 719.895 631.93 690.449C648.643 665.489 679.559 655.098 703.077 636.139C751.735 597.034 739.412 560.121 740.163 508.286C740.934 444.816 762.553 382.478 763.462 318.435C764.194 264.17 754.837 208.45 727.007 161.868C699.117 115.029 650.676 78.8904 596.4 74.9351C571.596 73.0941 547.623 78.3642 524.421 86.9721C495.998 97.5984 469.592 113.438 447.221 132.673C407.029 167.387 376.647 211.735 341.538 252.036C306.687 292.278 265.545 329.916 214.672 346.542C192.261 353.886 168.585 356.923 147.341 366.972C121.707 379.117 102.026 401.788 90.9297 427.614C85.8464 439.608 82.6027 452.529 81.2775 465.548C79.9129 480.74 80.9811 495.91 84.68 510.743C90.6142 536.419 103.234 560.551 120.482 580.096C150.904 614.449 194.281 633.365 233.604 657.005C272.669 680.704 311.714 712.523 322.356 757.397Z" stroke="url(#paint25_linear_2289_7329)" stroke-width="0.5" stroke-miterlimit="10" stroke-linecap="round" stroke-linejoin="round"/>
<path d="M770.207 310.113C771.097 254.189 761.641 196.869 732.94 148.865C704.24 100.862 654.157 63.4796 598.536 59.5646C543.429 55.5307 490.301 83.4972 449.555 120.503C408.809 157.509 376.805 203.043 341.024 245.122C305.183 286.945 263.112 326.421 210.439 343.463C187.257 350.985 162.75 353.944 140.794 364.427C102.639 382.171 76.5102 421.479 71.7832 463.143C67.0562 504.808 82.6629 547.723 110.968 578.778C142.853 613.604 187.694 632.993 228.421 656.85C269.405 680.647 309.717 713.255 320.596 759.156C325.245 778.097 324.177 798.089 324.335 817.527C324.77 856.916 329.874 896.579 346.054 932.6C361.918 968.424 389.828 1000.11 426.163 1015.52C478.323 1037.27 542.706 1020.5 582.423 980.213C622.141 939.929 638.597 879.866 632.129 823.749C627.045 779.483 609.757 730.465 634.442 693.114C651.492 667.264 683.693 656.576 707.666 637.241C758.263 597.148 745.128 559.07 745.781 505.635C746.393 440.308 768.882 375.875 770.207 310.113Z" stroke="url(#paint26_linear_2289_7329)" stroke-width="0.5" stroke-miterlimit="10" stroke-linecap="round" stroke-linejoin="round"/>
<path d="M316.304 762.853C321.902 782.386 323.663 801.724 325.305 820.549C328.588 858.198 334.622 896.023 351.731 930.206C369.098 964.33 397.799 994.753 434.333 1009.84C485.286 1031.06 547.671 1015.02 587.032 976.714C626.592 938.089 644.037 879.961 638.894 824.89C634.759 781.217 619.192 732.612 642.532 695.301C658.949 669.057 688.619 656.791 711.385 636.923C758.797 595.943 746.612 558.457 747.64 505.476C748.985 442.144 770.544 379.549 772.344 315.841C773.985 260.825 765.855 204.551 738.618 157.02C711.38 109.49 663.276 72.462 608.96 67.1634C554.902 61.8053 501.813 87.5988 460.513 123.38C419.213 159.162 386.953 204.755 351.429 246.775C316.102 288.479 275.119 327.974 222.96 344.897C199.976 352.103 175.093 354.608 153.018 364.578C114.171 381.67 88.5565 420.859 82.7416 462.504C76.7289 504.466 89.5862 547.205 115.518 578.539C144.515 613.761 186.844 634.002 225.89 658.787C264.995 683.83 303.625 717.368 316.304 762.853Z" stroke="url(#paint27_linear_2289_7329)" stroke-width="0.5" stroke-miterlimit="10" stroke-linecap="round" stroke-linejoin="round"/>
<path d="M312.21 766.233C318.816 786.615 323.662 805.24 326.729 823.195C332.801 858.847 339.507 894.894 358.061 927.12C376.614 959.347 406.364 988.445 443.471 1003.67C493.217 1024.36 553.664 1009.31 592.353 972.779C631.754 935.814 649.931 879.681 646.37 825.596C643.442 782.455 629.141 734.64 651.334 697.053C667.316 670.099 694.196 656.313 715.816 636.169C760.162 594.815 748.808 557.408 750.212 504.881C751.971 443.346 772.66 382.846 775.132 320.876C777.327 267.084 770.463 211.6 744.69 164.542C718.916 117.485 672.473 80.6141 619.72 73.8725C566.967 67.1308 513.661 90.8107 471.807 125.368C429.954 159.925 397.317 205.064 362.11 247.281C327.238 288.61 287.402 328.381 235.816 345.442C212.377 353.023 187.435 355.271 164.985 364.787C125.505 381.485 100.345 420.298 93.3829 461.668C86.3417 503.867 96.133 546.233 119.553 578.417C145.919 613.977 185.796 635.325 223.16 661.041C260.524 686.756 297.849 721.677 312.21 766.233Z" stroke="url(#paint28_linear_2289_7329)" stroke-width="0.5" stroke-miterlimit="10" stroke-linecap="round" stroke-linejoin="round"/>
<path d="M307.858 769.673C315.414 790.647 323.089 808.618 327.638 825.959C336.5 859.615 344.135 893.824 363.935 924.41C383.735 954.996 414.473 982.514 452.154 997.878C500.951 1017.98 559.202 1003.97 597.535 969.417C636.521 934.171 656.004 880.17 653.768 827.132C652.106 784.78 639.209 737.181 659.998 699.379C675.287 671.772 699.695 656.664 720.108 635.989C761.072 594.064 750.865 556.933 752.704 505.117C754.938 445.636 774.698 386.973 777.902 326.998C780.591 274.174 775.053 219.735 750.743 173.151C726.433 126.567 681.651 89.8529 630.52 81.925C578.816 73.8591 525.49 95.1093 483.398 128.639C441.307 162.169 407.979 206.657 373.028 248.815C338.928 289.965 299.665 329.874 248.851 346.757C225.412 354.338 200.351 356.072 177.525 365.134C137.096 381.24 112.707 419.875 104.598 460.969C96.2118 503.208 103.056 545.715 124.359 578.117C148.095 614.015 185.459 636.214 220.945 663.176C256.371 689.88 292.271 725.671 307.858 769.673Z" stroke="url(#paint29_linear_2289_7329)" stroke-width="0.5" stroke-miterlimit="10" stroke-linecap="round" stroke-linejoin="round"/>
<path d="M303.823 773.31C312.388 795.133 322.832 812.194 328.865 828.922C340.515 860.58 348.823 893.011 370.067 921.64C391.37 950.527 422.84 976.523 460.837 992.084C508.427 1011.65 564.938 998.319 602.658 965.799C641.485 932.212 661.7 880.206 660.79 828.214C660.077 786.454 648.901 739.269 668.344 701.507C682.942 673.249 704.877 656.819 724.024 635.354C761.922 593.056 752.546 556.003 754.761 504.641C757.411 446.958 776.3 390.39 779.978 332.468C783.162 280.612 778.949 227.219 756.103 181.108C733.257 134.997 690.453 98.6378 640.628 89.3262C589.971 79.9361 536.685 99.0133 494.04 131.319C451.395 163.625 417.75 207.915 383.056 250.014C349.47 291.045 311.355 331.229 260.996 347.736C237.3 355.377 212.12 356.598 189.176 365.147C148.053 380.601 124.18 419.117 114.982 460.192C105.567 502.669 109.346 544.802 128.335 577.739C149.183 614.034 184.292 637.025 217.839 664.975C252.217 693.004 286.495 729.981 303.823 773.31Z" stroke="url(#paint30_linear_2289_7329)" stroke-width="0.5" stroke-miterlimit="10" stroke-linecap="round" stroke-linejoin="round"/>
<path d="M299.471 776.75C309.243 799.106 322.199 815.315 330.032 831.627C344.155 861.091 353.709 891.882 376.198 918.871C398.688 945.86 431.207 970.532 469.777 986.231C516.161 1005.26 570.734 992.922 607.781 962.181C646.45 930.253 667.654 880.183 668.128 829.493C668.622 788.266 658.653 741.614 677.265 703.773C691.229 675.12 710.633 657.112 728.573 635.114C763.405 592.443 754.86 555.469 757.708 504.501C760.773 448.615 778.99 393.825 783.143 337.958C787.138 287.267 784.191 234.663 762.61 189.342C740.971 143.763 700.086 107.501 651.882 97.0034C602.274 86.2892 549.027 103.193 505.828 134.275C462.887 165.296 428.609 209.192 394.232 251.488C361.358 292.084 324.133 332.604 274.288 348.992C250.394 356.949 225.036 357.4 201.775 365.751C159.901 380.297 136.799 418.635 126.514 459.691C115.813 502.465 116.783 544.165 133.458 577.638C151.675 614.27 184.272 638.112 215.94 667.307C247.806 696.187 281.175 733.916 299.471 776.75Z" stroke="url(#paint31_linear_2289_7329)" stroke-width="0.5" stroke-miterlimit="10" stroke-linecap="round" stroke-linejoin="round"/>
<path d="M295.437 780.388C306.217 803.592 321.626 818.694 331.199 834.333C347.478 861.406 358.338 890.812 382.331 916.102C406.067 941.451 439.574 964.542 478.402 980.182C523.52 998.425 576.47 987.269 612.904 958.563C651.415 928.295 673.608 880.16 675.407 830.516C676.91 790.138 668.602 743.642 685.81 705.585C699.082 676.281 716.073 657.207 732.747 634.42C764.513 591.376 756.542 554.539 760.022 503.967C763.563 450.135 780.85 397.183 785.735 343.31C790.224 293.586 788.602 242.029 768.486 197.181C748.31 152.075 709.086 115.97 662.504 104.286C613.945 92.2477 560.421 106.782 517.242 136.776C473.806 166.83 439.092 210.015 405.032 252.509C372.475 293.302 336.595 333.781 287.205 349.794C263.311 357.751 237.577 357.748 214.197 365.585C171.236 380.112 148.588 418.075 137.472 459.052C125.743 502.064 123.647 543.391 138.007 577.398C153.535 614.111 183.739 639.317 213.666 669.186C243.652 699.311 275.657 738.167 295.437 780.388Z" stroke="url(#paint32_linear_2289_7329)" stroke-width="0.5" stroke-miterlimit="10" stroke-linecap="round" stroke-linejoin="round"/>
<path d="M291.085 783.828C303.071 807.565 320.992 821.816 332.109 837.098C350.346 862.095 362.965 889.742 387.888 913.194C412.811 936.646 447.367 958.413 486.768 974.19C530.679 991.901 581.691 981.735 617.71 954.747C655.806 926.198 678.987 879.998 682.429 831.598C685.138 791.752 678.037 745.789 694.157 707.713C706.737 677.758 720.998 657.421 736.723 634.042C765.225 590.94 758.282 553.866 762.198 504.005C766.153 451.97 782.827 401.053 788.187 349.235C793.171 300.478 792.934 250.224 774.221 205.592C755.509 160.96 718.204 124.952 672.987 112.141C625.417 98.522 571.992 111.14 528.259 139.91C484.526 168.68 449.18 211.471 415.693 254.102C383.788 294.203 348.798 335.018 299.982 351.169C275.831 359.185 250.038 358.925 226.282 366.308C182.569 379.927 160.693 417.711 148.43 458.412C135.415 501.722 130.51 542.616 142.616 577.415C155.453 614.208 182.947 640.582 211.252 671.637C239.182 702.238 270.395 742.358 291.085 783.828Z" stroke="url(#paint33_linear_2289_7329)" stroke-width="0.5" stroke-miterlimit="10" stroke-linecap="round" stroke-linejoin="round"/>
<path d="M287.05 787.465C300.302 811.991 317.748 827.704 333.335 840.06C349.119 866.165 367.653 888.929 394.079 910.681C420.505 932.433 455.793 952.678 495.511 968.653C538.216 985.832 587.546 976.595 622.893 951.385C660.83 924.495 685.001 880.231 689.767 832.877C693.683 793.564 688.045 748.074 702.821 710.038C714.708 679.431 726.556 658.03 740.955 633.605C766.451 590.386 760.28 553.134 764.571 503.726C769.002 453.746 784.746 404.666 790.778 354.586C796.514 306.738 797.344 257.589 780.096 213.43C762.907 169.528 727.204 133.421 683.55 119.167C637.028 104.223 583.583 114.411 539.355 142.214C495.128 170.016 459.406 212.353 426.176 254.924C395.043 294.848 360.943 335.997 312.582 351.773C288.49 360.045 262.578 359.272 238.447 366.201C194.041 379.169 172.68 416.834 159.329 457.516C145.028 501.122 137.255 541.327 147.106 576.917C157.312 614.049 182.295 641.273 208.661 673.317C235.028 705.361 265.074 746.292 287.05 787.465Z" stroke="url(#paint34_linear_2289_7329)" stroke-width="0.5" stroke-miterlimit="10" stroke-linecap="round" stroke-linejoin="round"/>
<path d="M282.699 790.905C297.158 815.964 316.72 831.458 334.502 842.766C352.304 867.052 372.539 887.801 400.212 907.912C427.824 927.767 464.417 946.628 504.452 962.801C545.95 979.446 593.54 970.882 628.075 948.024C665.855 922.794 691.014 880.464 697.165 834.414C702.347 795.89 697.857 750.676 711.485 712.364C722.68 681.106 732.115 658.639 745.248 633.425C767.797 590.346 762.08 552.718 767.005 503.705C771.85 455.522 786.922 408.221 793.489 360.452C799.719 313.571 801.875 265.469 786.09 221.783C770.365 178.354 736.58 142.344 694.291 126.963C648.758 110.439 595.412 118.71 550.63 145.289C506.106 171.807 469.751 213.749 436.838 256.518C406.16 296.066 373.207 337.491 325.36 353.148C301.209 361.164 274.921 359.936 250.731 366.609C205.376 378.984 184.528 416.53 170.287 456.877C154.899 500.465 144.376 540.493 151.656 576.678C159.172 613.89 181.702 642.222 206.189 675.512C230.875 708.485 259.813 750.484 282.699 790.905Z" stroke="url(#paint35_linear_2289_7329)" stroke-width="0.5" stroke-miterlimit="10" stroke-linecap="round" stroke-linejoin="round"/>
<path d="M278.604 794.286C294.072 820.193 316.146 834.836 335.669 845.471C355.291 868.255 377.167 886.731 406.283 904.886C435.142 923.1 472.724 940.38 513.332 956.691C553.624 972.804 599.276 965.228 633.396 944.089C671.274 920.459 697.165 880.124 704.641 835.12C711.03 797.128 707.687 752.19 720.286 714.116C730.73 681.95 737.811 658.675 749.678 632.671C769.28 589.733 764.216 551.413 769.576 503.111C774.579 456.784 789.295 411.459 796.336 365.744C803.378 320.028 806.799 272.715 792.538 229.759C778.276 186.803 745.837 150.753 705.486 134.383C661.001 116.534 607.694 122.633 562.616 147.928C517.538 173.222 480.808 214.71 448.211 257.676C418.047 297.105 386.182 338.549 338.849 354.087C314.184 362.222 288.035 360.421 263.468 366.64C217.421 378.364 197.088 415.791 181.7 455.862C165.026 499.747 151.694 539.342 156.402 576.122C161.486 613.355 181.306 642.854 204.112 677.074C226.464 711.668 254.492 754.418 278.604 794.286Z" stroke="url(#paint36_linear_2289_7329)" stroke-width="0.5" stroke-miterlimit="10" stroke-linecap="round" stroke-linejoin="round"/>
<path d="M274.311 797.983C291.243 824.363 317.293 835.113 336.638 848.494C361.679 865.426 381.914 886.175 412.217 902.433C442.52 918.691 480.893 934.706 521.817 951.214C560.902 966.794 604.932 960.405 638.38 941.045C676.1 919.074 702.98 880.674 711.782 836.716C719.377 799.257 717.24 754.851 728.752 716.758C738.503 683.94 742.914 659.66 753.772 632.807C770.743 590.206 766.075 551.254 771.87 503.663C777.348 459.39 791.392 415.843 798.591 371.985C806.127 327.237 810.874 280.97 798.076 238.487C785.278 196.004 754.757 160.052 715.771 142.555C672.275 123.125 619.008 127.051 573.436 151.378C528.12 175.646 490.499 216.798 458.417 259.645C428.965 298.639 397.99 340.419 351.172 355.838C326.506 363.972 299.982 361.718 275.296 367.423C228.557 378.495 208.678 415.547 192.519 455.796C174.559 499.978 158.36 538.884 160.872 576.712C163.266 614.026 180.692 644.89 201.56 680.098C222.309 714.793 249.171 758.353 274.311 797.983Z" stroke="url(#paint37_linear_2289_7329)" stroke-width="0.5" stroke-miterlimit="10" stroke-linecap="round" stroke-linejoin="round"/>
<path d="M270.217 801.363C288.415 828.533 316.205 838.61 337.805 851.199C364.093 866.491 386.543 885.105 418.092 899.722C449.641 914.34 489.062 929.031 530.441 945.163C568.32 960.211 610.668 954.752 643.186 937.229C680.807 917.174 708.617 880.453 718.804 837.797C727.348 800.931 726.675 756.998 737.04 718.629C746.098 685.16 748.413 660.011 757.63 631.915C771.91 589.395 767.44 550.127 773.868 502.93C779.762 460.455 793.192 418.943 800.866 377.139C809.153 333.299 814.968 288.138 803.634 246.128C792.3 204.118 763.381 168.066 726.077 149.64C683.57 128.629 630.144 130.698 584.275 153.741C538.406 176.784 500.409 217.482 468.584 260.27C439.646 299.145 409.76 340.944 363.455 356.244C338.533 364.438 311.889 361.67 286.888 367.178C239.199 377.658 220.092 414.532 202.785 454.505C183.539 498.984 164.788 537.398 164.729 575.82C164.69 613.155 179.407 645.187 198.336 681.384C217.839 717.719 244.167 762.484 270.217 801.363Z" stroke="url(#paint38_linear_2289_7329)" stroke-width="0.5" stroke-miterlimit="10" stroke-linecap="round" stroke-linejoin="round"/>
<path d="M265.925 805.06C285.329 832.762 315.177 842.363 339.032 854.161C366.822 867.753 391.488 884.232 424.224 896.953C457.019 909.93 497.429 923.04 539.125 939.37C575.797 953.885 616.464 949.355 648.309 933.61C685.772 915.215 714.571 880.429 726.083 838.819C735.893 802.742 736.308 758.829 745.644 720.697C754.011 686.577 753.911 660.363 761.863 631.478C773.513 589.295 769.438 549.394 776.499 502.593C782.551 461.974 795.566 422.181 803.774 382.688C812.813 339.756 819.696 295.7 809.825 254.164C799.698 212.687 772.896 176.416 736.956 156.863C695.438 134.271 642.111 134.424 595.945 156.183C549.779 177.942 511.15 218.246 479.641 261.231C451.158 299.73 422.478 342.062 376.629 356.986C351.706 365.18 324.687 361.958 299.567 366.952C251.185 376.781 232.335 413.595 214.138 453.234C193.805 497.693 172.245 535.675 169.674 574.947C167.202 612.304 179.209 645.503 196.259 682.945C213.31 720.388 239.103 766.359 265.925 805.06Z" stroke="url(#paint39_linear_2289_7329)" stroke-width="0.5" stroke-miterlimit="10" stroke-linecap="round" stroke-linejoin="round"/>
<path d="M261.831 808.44C282.442 836.675 314.149 846.117 340.199 856.866C369.553 869.016 396.374 883.103 430.356 894.183C464.338 905.263 505.796 917.049 548.066 933.517C583.531 947.499 622.517 943.899 653.749 930.189C691.311 913.394 720.842 880.603 733.481 840.356C744.498 804.811 746.12 761.43 754.367 723.28C762.042 688.508 759.589 661.486 766.215 631.554C775.234 589.709 771.297 549.235 778.991 502.828C785.261 464.323 797.861 426.249 806.484 388.553C816.275 346.53 824.483 303.52 815.819 262.516C807.155 221.512 782.015 185.398 747.697 164.659C707.168 140.486 653.881 138.466 607.22 159.258C560.56 180.049 521.495 219.642 490.303 262.824C462.592 301.145 434.742 343.555 389.407 358.361C364.227 366.614 337.347 362.819 311.91 367.616C262.52 376.596 244.501 413.489 225.216 453.108C203.597 497.865 179.485 535.354 174.343 575.221C169.438 612.599 178.478 647.024 194.104 685.337C209.73 723.65 234.04 770.234 261.831 808.44Z" stroke="url(#paint40_linear_2289_7329)" stroke-width="0.5" stroke-miterlimit="10" stroke-linecap="round" stroke-linejoin="round"/>
<path d="M257.479 811.881C279.554 840.589 312.804 849.674 341.109 859.632C372.024 870.339 400.745 882.094 436.23 891.474C471.715 900.854 513.905 911.118 556.491 927.783C590.75 941.233 628.114 938.819 658.357 926.69C695.82 911.811 726.34 880.955 740.245 841.498C752.726 806.426 755.238 763.38 762.655 725.151C769.32 689.531 765.087 661.838 770.071 630.663C776.776 589.353 772.662 548.109 781.048 502.353C787.733 465.646 799.719 429.607 808.818 393.965C819.103 352.909 828.696 311.202 821.496 270.671C814.295 230.141 791.014 193.867 758.12 172.258C718.837 146.445 665.392 142.568 618.178 162.135C571.221 181.643 531.582 221.098 500.647 264.221C473.707 302.364 446.946 344.793 402.184 359.736C376.747 368.049 349.748 363.74 323.935 368.083C273.853 376.412 256.289 412.929 235.916 452.529C213.011 497.583 186.606 534.52 178.694 575.298C171.356 612.697 177.686 648.29 191.433 687.848C205.121 727.15 228.719 774.169 257.479 811.881Z" stroke="url(#paint41_linear_2289_7329)" stroke-width="0.5" stroke-miterlimit="10" stroke-linecap="round" stroke-linejoin="round"/>
<path d="M253.444 815.518C276.784 845.016 312.091 853.625 342.533 862.278C375.011 871.541 405.887 880.905 442.559 888.388C479.231 895.87 522.47 904.811 565.63 921.614C598.682 934.531 634.365 933.047 663.935 922.696C701.556 909.674 733.006 880.496 748.038 842.401C761.785 808.119 765.444 765.349 771.773 727.101C777.746 690.829 771.416 662.268 774.818 630.106C779.15 589.074 775.174 547.258 783.936 501.956C790.779 467.105 802.409 433.042 811.982 399.454C823.079 359.563 833.68 318.705 827.944 278.647C822.207 238.59 800.528 202.217 769.315 179.678C731.022 152.284 677.675 146.491 630.164 164.774C582.653 183.057 542.639 222.058 512.02 265.378C485.279 303.205 459.664 345.91 415.417 360.734C390.039 369.304 362.605 364.285 336.673 368.114C285.641 375.851 268.592 412.249 247.388 451.77C223.138 496.865 194.24 533.567 183.757 574.939C174.303 612.556 177.666 649.376 189.415 689.667C200.967 730.273 223.714 778.301 253.444 815.518Z" stroke="url(#paint42_linear_2289_7329)" stroke-width="0.5" stroke-miterlimit="10" stroke-linecap="round" stroke-linejoin="round"/>
<path d="M249.092 818.959C273.897 848.929 310.865 857.696 343.443 865.043C377.484 872.864 410.259 879.895 448.177 885.737C486.095 891.58 530.323 898.939 574.056 915.88C605.901 928.265 639.211 923.542 668.86 919.394C707.688 913.937 738.762 880.79 755.12 843.74C770.073 809.991 774.879 767.497 780.18 729.486C785.203 692.622 776.975 662.878 778.853 629.986C781.068 589.173 776.717 546.902 786.112 501.995C793.113 469.001 804.645 436.853 814.435 405.379C826.54 366.337 837.953 326.644 833.68 287.059C829.407 247.475 809.588 210.943 779.799 187.534C742.692 158.243 689.187 150.593 641.182 167.908C593.434 185.165 552.727 223.514 522.425 267.032C496.138 304.483 471.671 347.463 427.937 362.169C402.303 370.798 374.75 365.265 348.502 368.897C296.778 375.982 280.242 412.261 258.148 451.448C232.613 496.84 201.163 533.049 188.109 575.015C176.222 612.654 176.875 650.641 186.745 692.178C196.497 733.201 218.651 782.176 249.092 818.959Z" stroke="url(#paint43_linear_2289_7329)" stroke-width="0.5" stroke-miterlimit="10" stroke-linecap="round" stroke-linejoin="round"/>
<path d="M245.058 822.595C271.068 853.099 310.153 861.647 344.669 868.005C380.332 874.639 415.204 879.022 454.309 882.967C493.671 886.853 538.749 893.205 582.68 909.829C613.319 921.682 645.323 918.342 673.667 915.578C712.396 912.037 744.399 880.568 762.142 844.822C778.301 811.605 784.057 769.703 788.467 731.357C792.74 693.585 782.731 663.17 782.77 629.351C782.671 589.072 778.141 546.031 788.228 501.775C795.388 470.638 806.563 440.467 816.512 410.849C829.369 372.715 842.107 334.068 839.041 295.016C836.231 255.905 818.271 219.214 789.907 194.934C753.788 164.062 700.126 154.556 651.824 170.588C603.521 186.619 562.439 224.514 532.453 268.23C507.452 305.384 483.558 348.502 440.597 363.029C414.962 371.659 387.033 365.671 360.667 368.79C307.993 375.283 291.912 411.187 268.988 450.295C242.167 495.983 208.423 531.642 192.283 574.321C178.279 612.179 175.906 651.135 184.095 693.601C192.344 736.324 213.588 786.051 245.058 822.595Z" stroke="url(#paint44_linear_2289_7329)" stroke-width="0.5" stroke-miterlimit="10" stroke-linecap="round" stroke-linejoin="round"/>
<path d="M240.964 825.976C268.438 856.953 309.185 865.658 345.837 870.711C383.319 875.843 419.833 877.952 460.441 880.198C501.049 882.444 547.116 887.214 591.621 903.976C621.053 915.296 651.494 913.4 679.048 911.901C717.361 910.079 750.927 880.683 769.678 845.785C787.104 813.357 793.947 771.474 797.329 733.366C800.652 695.002 789.061 663.6 787.201 628.597C784.985 588.538 780.08 545.042 790.8 501.181C798.118 471.901 809.195 443.646 819.361 416.141C833.029 379.173 846.775 341.374 845.489 302.993C844.144 264.355 828.043 227.504 801.043 202.098C766.112 169.329 712.35 158.222 663.751 172.97C614.955 188.035 573.239 225.535 543.768 269.131C518.707 306.028 496.02 349.68 453.513 363.831C427.622 372.52 399.574 366.019 372.891 368.94C319.466 374.525 303.959 410.567 279.946 449.656C251.78 495.385 215.544 530.807 196.892 574.338C180.515 612.474 175.372 652.341 181.682 696.052C188.19 739.448 208.524 789.926 240.964 825.976Z" stroke="url(#paint45_linear_2289_7329)" stroke-width="0.5" stroke-miterlimit="10" stroke-linecap="round" stroke-linejoin="round"/>
<path d="M236.671 829.673C265.609 861.122 308.274 869.925 347.063 873.673C386.167 877.618 424.777 877.08 466.632 877.685C508.426 878.033 555.542 881.48 600.363 898.439C628.589 909.227 658.041 912.428 684.289 908.796C722.029 903.319 756.999 881.172 777.075 847.321C796.024 815.623 803.501 774.135 806.052 735.948C808.682 696.932 795.251 664.603 791.552 628.673C787.22 588.832 781.622 544.685 793.292 501.416C800.511 474.052 811.746 447.654 822.13 422.263C836.806 386.143 851.364 349.51 851.542 311.602C851.719 273.693 837.418 236.427 811.843 210.15C778.157 175.741 724.178 162.521 675.085 176.301C625.991 190.081 583.643 227.187 554.429 270.724C529.882 307.502 508.283 351.173 466.291 365.205C440.399 373.894 412.233 366.88 385.174 369.347C330.799 374.34 316.004 409.946 290.904 449.016C261.452 495.042 222.921 529.913 201.441 574.097C182.947 612.452 174.581 653.605 179.15 697.989C183.779 742.631 203.401 793.544 236.671 829.673Z" stroke="url(#paint46_linear_2289_7329)" stroke-width="0.5" stroke-miterlimit="10" stroke-linecap="round" stroke-linejoin="round"/>
<path d="M232.576 833.053C262.978 864.976 307.502 873.619 348.229 876.378C389.213 879.078 429.405 876.01 472.703 874.658C515.744 873.366 563.849 875.232 609.244 892.329C636.263 902.584 664.152 907.228 689.352 904.92C727.309 901.558 763.15 880.832 784.354 848.343C804.509 817.178 813.133 775.965 814.596 737.76C816.218 697.895 801.205 664.58 795.725 627.979C789.474 588.04 783.303 543.756 795.863 500.822C803.24 475.315 814.376 450.832 824.918 427.298C840.663 392.284 855.972 356.559 857.614 319.124C858.998 281.748 846.754 244.006 822.662 217.117C790.163 180.81 736.085 165.99 686.438 178.546C636.791 191.102 594.067 227.753 565.169 271.488C541.334 307.831 520.625 351.836 479.147 365.75C452.998 374.498 424.713 366.97 397.595 369.18C342.528 373.522 327.99 409.069 302 447.804C271.203 493.87 230.497 528.703 206.128 573.284C185.202 611.66 174.125 653.98 176.816 699.611C179.625 745.754 198.594 797.359 232.576 833.053Z" stroke="url(#paint47_linear_2289_7329)" stroke-width="0.5" stroke-miterlimit="10" stroke-linecap="round" stroke-linejoin="round"/>
<path d="M228.225 836.493C260.09 868.889 306.534 877.63 349.139 879.143C392.002 880.597 434.094 875.197 478.321 872.008C522.806 868.759 571.761 869.617 617.413 886.655C643.226 896.377 669.493 902.207 694.02 901.678C731.938 900.488 768.709 881.441 791.178 849.741C812.6 819.365 822.113 778.488 822.746 740.204C823.418 699.747 807.08 665.386 799.247 627.977C790.879 588.257 784.015 543.321 797.584 501.236C805.12 477.585 816.216 455.276 826.917 433.599C843.729 399.69 860.107 365.07 862.895 327.911C865.743 291.009 855.616 253.048 832.691 225.348C801.695 187.341 747.202 170.723 697.258 181.996C647.373 193.525 603.957 229.525 575.375 273.456C552.055 309.681 532.434 353.705 491.47 367.5C465.064 376.308 436.66 368.266 409.167 370.023C353.348 373.456 339.324 408.884 312.306 447.857C280.223 494.22 237.024 528.818 210.025 573.736C186.725 612.39 172.879 655.621 173.948 702.437C175.155 748.681 193.531 801.235 228.225 836.493Z" stroke="url(#paint48_linear_2289_7329)" stroke-width="0.5" stroke-miterlimit="10" stroke-linecap="round" stroke-linejoin="round"/>
<path d="M224.19 840.131C257.46 872.743 305.881 881.838 350.366 882.106C395.108 882.314 438.781 874.385 484.512 869.496C530.243 864.607 580.187 863.883 626.413 881.059C651.019 890.249 675.724 897.522 699.46 898.258C737.397 899.497 775.295 881.813 798.833 851.218C821.777 821.572 832.122 780.774 831.726 742.728C831.389 701.422 813.726 666.014 803.796 627.737C793.51 587.92 785.756 542.648 800.274 501.156C807.711 479.421 818.966 458.969 829.884 439.405C847.764 406.602 864.893 372.89 869.146 336.204C873.457 299.775 865.189 261.655 843.688 233.085C813.88 193.181 759.228 174.707 708.79 185.011C658.351 195.316 614.559 230.862 586.294 274.991C563.429 310.839 545.014 355.397 504.505 368.816C478.099 377.624 449.32 369.128 421.707 370.371C364.939 373.212 351.43 408.521 323.778 447.099C290.35 493.503 244.916 527.806 215.148 573.635C189.672 612.251 172.741 656.194 171.871 704C171.001 751.805 188.467 805.11 224.19 840.131Z" stroke="url(#paint49_linear_2289_7329)" stroke-width="0.5" stroke-miterlimit="10" stroke-linecap="round" stroke-linejoin="round"/>
<path d="M219.839 843.57C254.572 876.656 304.912 885.849 351.533 884.811C398.095 883.517 443.667 873.255 490.585 866.469C537.502 859.683 588.495 857.635 635.235 874.692C658.634 883.349 681.52 892.125 704.721 894.066C742.619 897.478 781.388 881.216 805.994 851.727C830.145 822.613 841.438 782.407 840.152 744.025C838.866 702.128 819.818 665.417 807.851 626.529C795.646 586.614 787.002 541.008 802.47 500.107C810.065 480.229 821.28 461.949 832.297 443.986C851.305 412.545 869.127 379.485 874.902 343.529C880.677 307.573 874.268 269.293 854.192 239.853C825.886 198.25 770.562 178.037 719.827 187.058C669.092 196.079 624.409 231.289 596.718 275.556C574.308 311.029 557.041 355.863 517.046 369.163C490.383 378.03 461.484 369.021 433.555 370.066C376.095 372.256 363.1 407.447 334.36 446.005C299.647 492.707 251.721 526.774 219.322 572.94C191.591 612.348 171.891 657.202 169.142 706.253C166.393 755.304 183.344 808.728 219.839 843.57Z" stroke="url(#paint50_linear_2289_7329)" stroke-width="0.5" stroke-miterlimit="10" stroke-linecap="round" stroke-linejoin="round"/>
<path d="M215.803 847.208C252.001 880.766 304.259 890.057 352.759 887.773C401.2 885.234 448.355 872.442 496.776 863.956C545.196 855.47 596.723 852.217 643.977 869.155C666.17 877.28 687.433 887.242 709.705 891.02C747.366 896.922 787.519 881.962 813.193 853.579C838.867 825.196 850.735 785.127 848.677 746.924C846.442 704.434 826.009 666.421 812.004 626.922C797.881 586.909 788.09 541.027 804.764 500.658C812.26 482.697 823.95 466.471 834.611 450.484C855.004 420.346 873.26 387.996 880.499 352.513C887.738 317.03 883.446 278.532 864.477 248.025C837.615 204.465 781.876 182.455 730.903 190.449C679.674 198.502 634.556 233.002 607.181 277.466C585.285 312.82 569.106 357.672 529.625 370.854C502.962 379.721 473.945 370.198 445.64 370.789C387.171 372.131 374.691 407.202 345.12 445.682C309.062 492.424 258.96 526.453 223.673 573.016C193.826 612.642 171.158 658.723 166.412 708.507C162.436 758.112 178.281 812.603 215.803 847.208Z" stroke="url(#paint51_linear_2289_7329)" stroke-width="0.5" stroke-miterlimit="10" stroke-linecap="round" stroke-linejoin="round"/>
<path d="M228.678 572.401C196.457 612.305 170.763 659.356 164.652 710.266C158.283 761.236 173.475 816.419 211.709 850.589C249.311 884.364 303.547 894.008 353.867 890.223C404.444 886.377 453.181 871.056 502.848 860.93C552.515 850.804 605.031 845.97 652.858 863.046C673.845 870.638 693.289 882.102 715.027 887.086C752.707 895.418 793.73 881.88 820.67 854.286C847.61 826.692 860.625 786.899 857.677 748.36C854.493 705.279 832.932 665.903 816.633 625.852C800.591 585.742 789.594 539.327 807.593 500.005C814.931 483.703 826.898 469.848 837.717 455.717C859.554 427.138 878.186 395.243 886.889 360.233C895.592 325.223 893.415 286.507 875.613 255.188C849.998 209.988 794.1 186.121 742.574 192.891C691.047 199.66 645.356 234.022 618.239 278.427C597.055 313.346 581.765 358.533 542.799 371.596C515.879 380.523 486.743 370.486 458.379 370.821C399.218 371.511 387.192 406.207 356.533 444.668C319.387 491.39 266.595 525.5 228.678 572.401Z" stroke="url(#paint52_linear_2289_7329)" stroke-width="0.5" stroke-miterlimit="10" stroke-linecap="round" stroke-linejoin="round"/>
</g>
<defs>
<linearGradient id="paint0_linear_2289_7329" x1="432.929" y1="406.042" x2="492.607" y2="758.403" gradientUnits="userSpaceOnUse">
<stop offset="0.00067472" stop-color="#4F5FEB"/>
<stop offset="1" stop-color="#DC0574"/>
</linearGradient>
<linearGradient id="paint1_linear_2289_7329" x1="430.43" y1="400.671" x2="497.335" y2="763.095" gradientUnits="userSpaceOnUse">
<stop offset="0.00067472" stop-color="#4F5FEB"/>
<stop offset="1" stop-color="#DC0574"/>
</linearGradient>
<linearGradient id="paint2_linear_2289_7329" x1="428.039" y1="395.127" x2="502.639" y2="768.309" gradientUnits="userSpaceOnUse">
<stop offset="0.00067472" stop-color="#4F5FEB"/>
<stop offset="1" stop-color="#DC0574"/>
</linearGradient>
<linearGradient id="paint3_linear_2289_7329" x1="425.63" y1="389.284" x2="508.55" y2="774.106" gradientUnits="userSpaceOnUse">
<stop offset="0.00067472" stop-color="#4F5FEB"/>
<stop offset="1" stop-color="#DC0574"/>
</linearGradient>
<linearGradient id="paint4_linear_2289_7329" x1="423.075" y1="382.76" x2="515.016" y2="780.398" gradientUnits="userSpaceOnUse">
<stop offset="0.00067472" stop-color="#4F5FEB"/>
<stop offset="1" stop-color="#DC0574"/>
</linearGradient>
<linearGradient id="paint5_linear_2289_7329" x1="420.103" y1="374.617" x2="521.978" y2="787.013" gradientUnits="userSpaceOnUse">
<stop offset="0.00067472" stop-color="#4F5FEB"/>
<stop offset="1" stop-color="#DC0574"/>
</linearGradient>
<linearGradient id="paint6_linear_2289_7329" x1="416.571" y1="364.838" x2="529.434" y2="793.767" gradientUnits="userSpaceOnUse">
<stop offset="0.00067472" stop-color="#4F5FEB"/>
<stop offset="1" stop-color="#DC0574"/>
</linearGradient>
<linearGradient id="paint7_linear_2289_7329" x1="412.64" y1="354.335" x2="537.282" y2="800.604" gradientUnits="userSpaceOnUse">
<stop offset="0.00067472" stop-color="#4F5FEB"/>
<stop offset="1" stop-color="#DC0574"/>
</linearGradient>
<linearGradient id="paint8_linear_2289_7329" x1="408.41" y1="343.734" x2="545.547" y2="807.414" gradientUnits="userSpaceOnUse">
<stop offset="0.00067472" stop-color="#4F5FEB"/>
<stop offset="1" stop-color="#DC0574"/>
</linearGradient>
<linearGradient id="paint9_linear_2289_7329" x1="403.977" y1="333.405" x2="554.166" y2="814.146" gradientUnits="userSpaceOnUse">
<stop offset="0.00067472" stop-color="#4F5FEB"/>
<stop offset="1" stop-color="#DC0574"/>
</linearGradient>
<linearGradient id="paint10_linear_2289_7329" x1="399.355" y1="323.357" x2="563.073" y2="820.775" gradientUnits="userSpaceOnUse">
<stop offset="0.00067472" stop-color="#4F5FEB"/>
<stop offset="1" stop-color="#DC0574"/>
</linearGradient>
<linearGradient id="paint11_linear_2289_7329" x1="394.506" y1="313.622" x2="572.3" y2="827.217" gradientUnits="userSpaceOnUse">
<stop offset="0.00067472" stop-color="#4F5FEB"/>
<stop offset="1" stop-color="#DC0574"/>
</linearGradient>
<linearGradient id="paint12_linear_2289_7329" x1="389.48" y1="304.192" x2="581.765" y2="833.485" gradientUnits="userSpaceOnUse">
<stop offset="0.00067472" stop-color="#4F5FEB"/>
<stop offset="1" stop-color="#DC0574"/>
</linearGradient>
<linearGradient id="paint13_linear_2289_7329" x1="384.222" y1="295.108" x2="591.489" y2="839.51" gradientUnits="userSpaceOnUse">
<stop offset="0.00067472" stop-color="#4F5FEB"/>
<stop offset="1" stop-color="#DC0574"/>
</linearGradient>
<linearGradient id="paint14_linear_2289_7329" x1="378.716" y1="286.389" x2="601.367" y2="845.319" gradientUnits="userSpaceOnUse">
<stop offset="0.00067472" stop-color="#4F5FEB"/>
<stop offset="1" stop-color="#DC0574"/>
</linearGradient>
<linearGradient id="paint15_linear_2289_7329" x1="373.221" y1="277.942" x2="611.589" y2="850.822" gradientUnits="userSpaceOnUse">
<stop offset="0.00067472" stop-color="#4F5FEB"/>
<stop offset="1" stop-color="#DC0574"/>
</linearGradient>
<linearGradient id="paint16_linear_2289_7329" x1="367.753" y1="269.773" x2="622.225" y2="855.936" gradientUnits="userSpaceOnUse">
<stop offset="0.00067472" stop-color="#4F5FEB"/>
<stop offset="1" stop-color="#DC0574"/>
</linearGradient>
<linearGradient id="paint17_linear_2289_7329" x1="362.332" y1="261.804" x2="633.202" y2="860.685" gradientUnits="userSpaceOnUse">
<stop offset="0.00067472" stop-color="#4F5FEB"/>
<stop offset="1" stop-color="#DC0574"/>
</linearGradient>
<linearGradient id="paint18_linear_2289_7329" x1="356.955" y1="254.066" x2="644.564" y2="864.997" gradientUnits="userSpaceOnUse">
<stop offset="0.00067472" stop-color="#4F5FEB"/>
<stop offset="1" stop-color="#DC0574"/>
</linearGradient>
<linearGradient id="paint19_linear_2289_7329" x1="351.64" y1="246.525" x2="656.263" y2="868.879" gradientUnits="userSpaceOnUse">
<stop offset="0.00067472" stop-color="#4F5FEB"/>
<stop offset="1" stop-color="#DC0574"/>
</linearGradient>
<linearGradient id="paint20_linear_2289_7329" x1="346.398" y1="239.155" x2="668.248" y2="872.344" gradientUnits="userSpaceOnUse">
<stop offset="0.00067472" stop-color="#4F5FEB"/>
<stop offset="1" stop-color="#DC0574"/>
</linearGradient>
<linearGradient id="paint21_linear_2289_7329" x1="341.214" y1="231.958" x2="680.565" y2="875.334" gradientUnits="userSpaceOnUse">
<stop offset="0.00067472" stop-color="#4F5FEB"/>
<stop offset="1" stop-color="#DC0574"/>
</linearGradient>
<linearGradient id="paint22_linear_2289_7329" x1="336.102" y1="224.885" x2="693.12" y2="877.868" gradientUnits="userSpaceOnUse">
<stop offset="0.00067472" stop-color="#4F5FEB"/>
<stop offset="1" stop-color="#DC0574"/>
</linearGradient>
<linearGradient id="paint23_linear_2289_7329" x1="331.041" y1="217.939" x2="705.957" y2="879.894" gradientUnits="userSpaceOnUse">
<stop offset="0.00067472" stop-color="#4F5FEB"/>
<stop offset="1" stop-color="#DC0574"/>
</linearGradient>
<linearGradient id="paint24_linear_2289_7329" x1="326.037" y1="211.092" x2="719.038" y2="881.416" gradientUnits="userSpaceOnUse">
<stop offset="0.00067472" stop-color="#4F5FEB"/>
<stop offset="1" stop-color="#DC0574"/>
</linearGradient>
<linearGradient id="paint25_linear_2289_7329" x1="321.101" y1="204.303" x2="732.265" y2="882.484" gradientUnits="userSpaceOnUse">
<stop offset="0.00067472" stop-color="#4F5FEB"/>
<stop offset="1" stop-color="#DC0574"/>
</linearGradient>
<linearGradient id="paint26_linear_2289_7329" x1="316.229" y1="197.642" x2="745.754" y2="883.031" gradientUnits="userSpaceOnUse">
<stop offset="0.00067472" stop-color="#4F5FEB"/>
<stop offset="1" stop-color="#DC0574"/>
</linearGradient>
<linearGradient id="paint27_linear_2289_7329" x1="322.797" y1="210.8" x2="757.791" y2="867.404" gradientUnits="userSpaceOnUse">
<stop stop-color="#545CE6"/>
<stop offset="0.00067472" stop-color="#545CE6"/>
<stop offset="0.9993" stop-color="#D70879"/>
<stop offset="1" stop-color="#D70879"/>
</linearGradient>
<linearGradient id="paint28_linear_2289_7329" x1="326.097" y1="226.976" x2="767.139" y2="852.087" gradientUnits="userSpaceOnUse">
<stop stop-color="#5A58E2"/>
<stop offset="0.00067472" stop-color="#5A58E2"/>
<stop offset="0.9993" stop-color="#D10C7D"/>
<stop offset="1" stop-color="#D10C7D"/>
</linearGradient>
<linearGradient id="paint29_linear_2289_7329" x1="328.209" y1="245.343" x2="775.697" y2="835.598" gradientUnits="userSpaceOnUse">
<stop stop-color="#5F55DD"/>
<stop offset="0.00067472" stop-color="#5F55DD"/>
<stop offset="0.9993" stop-color="#CC0F82"/>
<stop offset="1" stop-color="#CC0F82"/>
</linearGradient>
<linearGradient id="paint30_linear_2289_7329" x1="318.358" y1="251.368" x2="784.323" y2="816.707" gradientUnits="userSpaceOnUse">
<stop stop-color="#6551D9"/>
<stop offset="0.00067472" stop-color="#6551D9"/>
<stop offset="0.9993" stop-color="#C61386"/>
<stop offset="1" stop-color="#C61386"/>
</linearGradient>
<linearGradient id="paint31_linear_2289_7329" x1="306.056" y1="259.482" x2="792.715" y2="794.883" gradientUnits="userSpaceOnUse">
<stop stop-color="#6A4ED4"/>
<stop offset="0.00067472" stop-color="#6A4ED4"/>
<stop offset="0.9993" stop-color="#C1168B"/>
<stop offset="1" stop-color="#C1168B"/>
</linearGradient>
<linearGradient id="paint32_linear_2289_7329" x1="290.839" y1="270.752" x2="800.422" y2="769.222" gradientUnits="userSpaceOnUse">
<stop stop-color="#704AD0"/>
<stop offset="0.00067472" stop-color="#704AD0"/>
<stop offset="0.9993" stop-color="#BB1A8F"/>
<stop offset="1" stop-color="#BB1A8F"/>
</linearGradient>
<linearGradient id="paint33_linear_2289_7329" x1="272.506" y1="286.761" x2="806.504" y2="738.778" gradientUnits="userSpaceOnUse">
<stop stop-color="#7547CB"/>
<stop offset="0.00067472" stop-color="#7547CB"/>
<stop offset="0.9993" stop-color="#B61D94"/>
<stop offset="1" stop-color="#B61D94"/>
</linearGradient>
<linearGradient id="paint34_linear_2289_7329" x1="251.287" y1="309.84" x2="809.285" y2="702.671" gradientUnits="userSpaceOnUse">
<stop stop-color="#7A43C6"/>
<stop offset="0.00067472" stop-color="#7A43C6"/>
<stop offset="0.9993" stop-color="#B12199"/>
<stop offset="1" stop-color="#B12199"/>
</linearGradient>
<linearGradient id="paint35_linear_2289_7329" x1="228.117" y1="343.51" x2="805.855" y2="660.538" gradientUnits="userSpaceOnUse">
<stop stop-color="#8040C2"/>
<stop offset="0.00067472" stop-color="#8040C2"/>
<stop offset="0.9993" stop-color="#AB249D"/>
<stop offset="1" stop-color="#AB249D"/>
</linearGradient>
<linearGradient id="paint36_linear_2289_7329" x1="205.058" y1="392.868" x2="791.626" y2="615.689" gradientUnits="userSpaceOnUse">
<stop stop-color="#853CBD"/>
<stop offset="0.00067472" stop-color="#853CBD"/>
<stop offset="0.9993" stop-color="#A628A2"/>
<stop offset="1" stop-color="#A628A2"/>
</linearGradient>
<linearGradient id="paint37_linear_2289_7329" x1="178.607" y1="460.601" x2="767.992" y2="575.354" gradientUnits="userSpaceOnUse">
<stop stop-color="#8B39B9"/>
<stop offset="0.00067472" stop-color="#8B39B9"/>
<stop offset="0.9993" stop-color="#A02BA6"/>
<stop offset="1" stop-color="#A02BA6"/>
</linearGradient>
<linearGradient id="paint38_linear_2289_7329" x1="164.785" y1="548.7" x2="812.682" y2="543.082" gradientUnits="userSpaceOnUse">
<stop stop-color="#9035B4"/>
<stop offset="0.00067472" stop-color="#9035B4"/>
<stop offset="0.9993" stop-color="#9B2FAB"/>
<stop offset="1" stop-color="#9B2FAB"/>
</linearGradient>
<linearGradient id="paint39_linear_2289_7329" x1="179.732" y1="648.343" x2="864.749" y2="488.245" gradientUnits="userSpaceOnUse">
<stop stop-color="#9632B0"/>
<stop offset="0.00067472" stop-color="#9532B0"/>
<stop offset="0.9993" stop-color="#9632B0"/>
<stop offset="1" stop-color="#9632AF"/>
</linearGradient>
<linearGradient id="paint40_linear_2289_7329" x1="220.056" y1="742.809" x2="895.422" y2="416.174" gradientUnits="userSpaceOnUse">
<stop stop-color="#9B2FAB"/>
<stop offset="0.00067472" stop-color="#9B2FAB"/>
<stop offset="0.9993" stop-color="#9035B4"/>
<stop offset="1" stop-color="#9035B4"/>
</linearGradient>
<linearGradient id="paint41_linear_2289_7329" x1="261.947" y1="818.013" x2="893.586" y2="336.384" gradientUnits="userSpaceOnUse">
<stop stop-color="#A02BA6"/>
<stop offset="0.00067472" stop-color="#A02BA6"/>
<stop offset="0.9993" stop-color="#8B39B9"/>
<stop offset="1" stop-color="#8B39B9"/>
</linearGradient>
<linearGradient id="paint42_linear_2289_7329" x1="298.306" y1="858.988" x2="855.879" y2="258.725" gradientUnits="userSpaceOnUse">
<stop stop-color="#A628A2"/>
<stop offset="0.00067472" stop-color="#A628A2"/>
<stop offset="0.9993" stop-color="#853CBD"/>
<stop offset="1" stop-color="#853CBD"/>
</linearGradient>
<linearGradient id="paint43_linear_2289_7329" x1="338.85" y1="886.33" x2="811.765" y2="209.173" gradientUnits="userSpaceOnUse">
<stop stop-color="#AB249D"/>
<stop offset="0.00067472" stop-color="#AB249D"/>
<stop offset="0.9993" stop-color="#8040C2"/>
<stop offset="1" stop-color="#8040C2"/>
</linearGradient>
<linearGradient id="paint44_linear_2289_7329" x1="372.513" y1="899.967" x2="765.473" y2="177.837" gradientUnits="userSpaceOnUse">
<stop stop-color="#B12199"/>
<stop offset="0.00067472" stop-color="#B12199"/>
<stop offset="0.9993" stop-color="#7A43C6"/>
<stop offset="1" stop-color="#7A43C6"/>
</linearGradient>
<linearGradient id="paint45_linear_2289_7329" x1="398.397" y1="905.825" x2="721.985" y2="159.78" gradientUnits="userSpaceOnUse">
<stop stop-color="#B61D94"/>
<stop offset="0.00067472" stop-color="#B61D94"/>
<stop offset="0.9993" stop-color="#7547CB"/>
<stop offset="1" stop-color="#7547CB"/>
</linearGradient>
<linearGradient id="paint46_linear_2289_7329" x1="420.219" y1="908.63" x2="685.676" y2="151.603" gradientUnits="userSpaceOnUse">
<stop stop-color="#BB1A8F"/>
<stop offset="0.00067472" stop-color="#BB1A8F"/>
<stop offset="0.9993" stop-color="#704AD0"/>
<stop offset="1" stop-color="#704AD0"/>
</linearGradient>
<linearGradient id="paint47_linear_2289_7329" x1="438.379" y1="909.743" x2="655.858" y2="149.433" gradientUnits="userSpaceOnUse">
<stop stop-color="#C1168B"/>
<stop offset="0.00067472" stop-color="#C1168B"/>
<stop offset="0.9993" stop-color="#6A4ED4"/>
<stop offset="1" stop-color="#6A4ED4"/>
</linearGradient>
<linearGradient id="paint48_linear_2289_7329" x1="453.491" y1="909.991" x2="631.393" y2="150.862" gradientUnits="userSpaceOnUse">
<stop stop-color="#C61386"/>
<stop offset="0.00067472" stop-color="#C61386"/>
<stop offset="0.9993" stop-color="#6551D9"/>
<stop offset="1" stop-color="#6551D9"/>
</linearGradient>
<linearGradient id="paint49_linear_2289_7329" x1="466.141" y1="909.835" x2="611.11" y2="154.445" gradientUnits="userSpaceOnUse">
<stop stop-color="#CC0F82"/>
<stop offset="0.00067472" stop-color="#CC0F82"/>
<stop offset="0.9993" stop-color="#5F55DD"/>
<stop offset="1" stop-color="#5F55DD"/>
</linearGradient>
<linearGradient id="paint50_linear_2289_7329" x1="476.784" y1="909.571" x2="594.253" y2="159.307" gradientUnits="userSpaceOnUse">
<stop stop-color="#D10C7D"/>
<stop offset="0.00067472" stop-color="#D10C7D"/>
<stop offset="0.9993" stop-color="#5A58E2"/>
<stop offset="1" stop-color="#5A58E2"/>
</linearGradient>
<linearGradient id="paint51_linear_2289_7329" x1="485.86" y1="909.349" x2="580.108" y2="164.926" gradientUnits="userSpaceOnUse">
<stop stop-color="#D70879"/>
<stop offset="0.00067472" stop-color="#D70879"/>
<stop offset="0.9993" stop-color="#545CE6"/>
<stop offset="1" stop-color="#545CE6"/>
</linearGradient>
<linearGradient id="paint52_linear_2289_7329" x1="493.696" y1="909.267" x2="568.223" y2="170.964" gradientUnits="userSpaceOnUse">
<stop stop-color="#DC0574"/>
<stop offset="0.9993" stop-color="#4F5FEB"/>
</linearGradient>
<clipPath id="clip0_2289_7329">
<rect width="844" height="925" fill="white" transform="translate(0 190.05) rotate(-13.0133)"/>
</clipPath>
</defs>
</svg>
