<svg width="38" height="38" viewBox="0 0 38 38" fill="none" xmlns="http://www.w3.org/2000/svg">
<path d="M6.94946 21.7183C6.82143 22.1178 6.926 22.55 7.22229 22.8463L15.1535 30.7775C15.4505 31.0757 15.8876 31.1776 16.2817 31.0504C17.4014 30.6917 18.4772 30.3029 19.5094 29.8851L8.11484 18.4905C7.69706 19.5226 7.30816 20.5985 6.94946 21.7183Z" fill="white"/>
<path d="M25.1802 13.7866L23.0214 15.9453C23.6365 16.1833 24.2906 16.0331 24.7345 15.7171C24.9739 15.5466 25.7144 14.9052 25.1914 13.8103C25.1875 13.8022 25.184 13.7946 25.1802 13.7866Z" fill="white"/>
<path d="M26.1158 9.81725C25.7813 10.0457 25.5879 10.3819 25.6232 10.6738C25.6411 10.822 25.6746 10.9817 25.719 11.1486L27.2425 9.6251C26.8229 9.49069 26.397 9.62517 26.1158 9.81725Z" fill="white"/>
<path d="M37.9843 0.945882C37.9663 0.442382 37.5578 0.0338817 37.0543 0.0158466C35.7191 -0.0320987 32.1579 -0.0344737 27.9318 0.971487C22.6001 2.24063 18.1672 4.61362 14.7561 8.02472C12.5421 10.2386 10.6418 13.0107 9.07565 16.3025L21.6976 28.9244C24.9893 27.3583 27.7615 25.458 29.9754 23.244C33.3864 19.8329 35.7594 15.4 37.0286 10.0683C38.0345 5.84224 38.032 2.28085 37.9843 0.945882ZM30.0683 11.3219C30.0401 11.7308 29.686 12.0389 29.277 12.0115C28.8693 11.9834 28.5613 11.6315 28.5872 11.2242C28.5874 11.2045 28.5858 10.9276 28.3871 10.5798L26.2971 12.6699C26.374 12.8393 26.4529 13.007 26.5309 13.1705C27.1999 14.571 26.8328 16.0452 25.5957 16.9263C25.0594 17.3082 24.3658 17.5402 23.6455 17.5402C23.0654 17.5402 22.4684 17.3887 21.9221 17.0449L21.4329 17.5341C21.2879 17.679 21.098 17.7515 20.9081 17.7515C20.7181 17.7515 20.5282 17.679 20.3832 17.5341C20.0934 17.2443 20.0934 16.7744 20.3832 16.4845L20.8249 16.0429C20.3557 15.5038 20.0753 14.978 19.8743 14.0161C19.7904 13.6149 20.0476 13.2217 20.4489 13.1378C20.8502 13.0537 21.2433 13.3112 21.3272 13.7124C21.4539 14.318 21.5851 14.6323 21.8779 14.9898L24.5434 12.3243C24.3242 11.7449 24.2013 11.2784 24.1497 10.8519C24.0471 10.0031 24.4798 9.13703 25.2789 8.5913C26.1525 7.99466 27.2482 7.92096 28.1383 8.399C28.2111 8.43812 28.2804 8.47849 28.3482 8.51953L28.7801 8.08758C29.07 7.79783 29.5398 7.7979 29.8297 8.08758C30.1196 8.3774 30.1196 8.84736 29.8297 9.13726L29.4587 9.50828C29.9667 10.1898 30.0976 10.8953 30.0683 11.3219Z" fill="white"/>
<path d="M2.16138 15.5432L2.43072 15.4662C3.91257 15.0426 5.47176 15.2829 6.7363 16.055C7.99082 13.283 9.46651 10.8332 11.1527 8.72386C9.59602 8.54603 8.00254 8.71889 6.50162 9.24362C4.16484 10.0607 2.18921 11.6913 0.938327 13.8356L0.893574 13.9123C0.664831 14.305 0.697636 14.7973 0.97655 15.156C1.25546 15.5148 1.72453 15.6681 2.16138 15.5432Z" fill="white"/>
<path d="M21.9451 31.2637C22.7171 32.5283 22.9573 34.0875 22.534 35.5693L22.457 35.8387C22.3321 36.2757 22.4854 36.7447 22.8442 37.0236C23.2289 37.3258 23.7634 37.3302 24.1651 37.0616C26.3089 35.811 27.9395 33.8353 28.7565 31.4986C29.2813 29.9976 29.4542 28.4041 29.2763 26.8474C27.1669 28.5335 24.7171 30.0092 21.9451 31.2637Z" fill="white"/>
<path d="M7.78673 26.5595C7.24226 26.4668 6.67723 26.4749 6.11814 26.592C4.63651 26.9019 3.42267 27.9286 2.87115 29.3383L0.0765894 36.4812C-0.0845395 36.8931 0.013355 37.3612 0.326113 37.674C0.639687 37.9884 1.11127 38.0837 1.51896 37.9235L8.66184 35.1289C10.0715 34.5774 11.0981 33.3637 11.4082 31.882C11.5251 31.3229 11.5331 30.7578 11.4404 30.2132L7.78673 26.5595Z" fill="white"/>
</svg>
