<svg width="38" height="38" viewBox="0 0 38 38" fill="none" xmlns="http://www.w3.org/2000/svg">
<g clip-path="url(#clip0_307_52)">
<mask id="mask0_307_52" style="mask-type:luminance" maskUnits="userSpaceOnUse" x="0" y="0" width="38" height="38">
<path d="M38 0H0V38H38V0Z" fill="white"/>
</mask>
<g mask="url(#mask0_307_52)">
<path d="M6.94924 21.7183C6.82122 22.1178 6.92579 22.55 7.22207 22.8463L15.1533 30.7775C15.4503 31.0757 15.8873 31.1776 16.2814 31.0504C17.4012 30.6917 18.477 30.3029 19.5092 29.8851L8.11463 18.4905C7.69685 19.5226 7.30794 20.5985 6.94924 21.7183Z" fill="black"/>
<path d="M25.1802 13.7866L23.0215 15.9453C23.6365 16.1833 24.2907 16.0331 24.7345 15.7171C24.9739 15.5466 25.7144 14.9052 25.1914 13.8103C25.1875 13.8022 25.1841 13.7946 25.1802 13.7866Z" fill="black"/>
<path d="M26.1159 9.81725C25.7813 10.0457 25.588 10.3819 25.6233 10.6738C25.6411 10.822 25.6747 10.9817 25.7191 11.1486L27.2426 9.6251C26.8229 9.49069 26.3971 9.62517 26.1159 9.81725Z" fill="black"/>
<path d="M37.9843 0.945882C37.9663 0.442382 37.5578 0.0338817 37.0543 0.0158466C35.7192 -0.0320987 32.1579 -0.0344737 27.9318 0.971487C22.6001 2.24063 18.1672 4.61362 14.7561 8.02472C12.5421 10.2386 10.6418 13.0107 9.07568 16.3025L21.6976 28.9244C24.9894 27.3583 27.7615 25.458 29.9754 23.244C33.3864 19.8329 35.7595 15.4 37.0286 10.0683C38.0346 5.84224 38.0321 2.28085 37.9843 0.945882ZM30.0683 11.3219C30.0402 11.7308 29.6861 12.0389 29.277 12.0115C28.8694 11.9834 28.5614 11.6315 28.5872 11.2242C28.5874 11.2045 28.5859 10.9276 28.3872 10.5798L26.2971 12.6699C26.3741 12.8393 26.4529 13.007 26.531 13.1705C27.2 14.571 26.8328 16.0452 25.5957 16.9263C25.0594 17.3082 24.3658 17.5402 23.6456 17.5402C23.0655 17.5402 22.4684 17.3887 21.9221 17.0449L21.4329 17.5341C21.2879 17.679 21.098 17.7515 20.9081 17.7515C20.7181 17.7515 20.5282 17.679 20.3833 17.5341C20.0935 17.2443 20.0935 16.7744 20.3833 16.4845L20.8249 16.0429C20.3557 15.5038 20.0753 14.978 19.8743 14.0161C19.7904 13.6149 20.0477 13.2217 20.4489 13.1378C20.8502 13.0537 21.2433 13.3112 21.3273 13.7124C21.4539 14.318 21.5851 14.6323 21.878 14.9898L24.5435 12.3243C24.3242 11.7449 24.2013 11.2784 24.1497 10.8519C24.0472 10.0031 24.4799 9.13703 25.2789 8.5913C26.1525 7.99466 27.2482 7.92096 28.1383 8.399C28.2111 8.43812 28.2805 8.47849 28.3482 8.51953L28.7802 8.08758C29.07 7.79783 29.5399 7.7979 29.8298 8.08758C30.1196 8.3774 30.1196 8.84736 29.8298 9.13726L29.4587 9.50828C29.9668 10.1898 30.0976 10.8953 30.0683 11.3219Z" fill="black"/>
<path d="M2.16135 15.5432L2.43069 15.4662C3.91254 15.0426 5.47173 15.2829 6.73627 16.055C7.99079 13.283 9.46648 10.8332 11.1527 8.72386C9.59599 8.54603 8.00251 8.71889 6.50159 9.24362C4.16481 10.0607 2.18918 11.6913 0.938297 13.8356L0.893543 13.9123C0.664801 14.305 0.697606 14.7973 0.97652 15.156C1.25543 15.5148 1.7245 15.6681 2.16135 15.5432Z" fill="black"/>
<path d="M21.9448 31.2637C22.7168 32.5283 22.9571 34.0875 22.5337 35.5693L22.4568 35.8387C22.3319 36.2757 22.4851 36.7447 22.844 37.0236C23.2287 37.3258 23.7631 37.3302 24.1649 37.0616C26.3087 35.811 27.9392 33.8353 28.7563 31.4986C29.2811 29.9976 29.4539 28.4041 29.2761 26.8474C27.1666 28.5335 24.7168 30.0092 21.9448 31.2637Z" fill="black"/>
<path d="M7.7867 26.5595C7.24223 26.4668 6.6772 26.4749 6.11811 26.592C4.63648 26.9019 3.42264 27.9286 2.87112 29.3383L0.0765588 36.4812C-0.0845701 36.8931 0.0133245 37.3612 0.326082 37.674C0.639656 37.9884 1.11124 38.0837 1.51893 37.9235L8.66181 35.1289C10.0714 34.5774 11.0981 33.3637 11.4081 31.882C11.5251 31.3229 11.5331 30.7578 11.4404 30.2132L7.7867 26.5595Z" fill="black"/>
</g>
</g>
<defs>
<clipPath id="clip0_307_52">
<rect width="38" height="38" fill="white"/>
</clipPath>
</defs>
</svg>
