<svg width="15" height="15" viewBox="0 0 15 15" fill="none" xmlns="http://www.w3.org/2000/svg">
<path d="M14.9607 5.75336C14.8619 5.44963 14.5925 5.23459 14.275 5.20587L9.94497 4.81276L8.2337 0.806344C8.10736 0.511997 7.81988 0.322021 7.4999 0.322021C7.17991 0.322021 6.89232 0.511997 6.76678 0.806344L5.05551 4.81276L0.724768 5.20587C0.407303 5.23517 0.138477 5.4502 0.0391409 5.75336C-0.0596233 6.0571 0.0315876 6.39024 0.271689 6.60081L3.54487 9.47092L2.57977 13.7216C2.50916 14.0341 2.63047 14.3573 2.8898 14.5447C3.02919 14.646 3.19296 14.6966 3.3573 14.6966C3.49852 14.6966 3.63986 14.6591 3.76609 14.5835L7.4999 12.351L11.233 14.5835C11.5069 14.7472 11.8512 14.7322 12.11 14.5447C12.3693 14.3573 12.4906 14.0341 12.42 13.7216L11.4549 9.47092L14.7281 6.60081C14.9681 6.39024 15.0594 6.05778 14.9607 5.75336Z" fill="url(#paint0_linear_570_2712)"/>
<defs>
<linearGradient id="paint0_linear_570_2712" x1="-0.000122012" y1="10.0675" x2="14.8109" y2="9.80596" gradientUnits="userSpaceOnUse">
<stop stop-color="#679FEF"/>
<stop offset="1" stop-color="#A87FFF"/>
</linearGradient>
</defs>
</svg>
