<?xml version="1.0" encoding="UTF-8"?>
<svg xmlns="http://www.w3.org/2000/svg" xmlns:xlink="http://www.w3.org/1999/xlink" viewBox="0 0 24 24" width="24px" height="24px">
<g id="surface10269937">
<path style=" stroke:none;fill-rule:nonzero;fill:rgb(100%,100%,100%);fill-opacity:1;" d="M 21.300781 2.875 C 21.066406 2.882812 20.839844 2.949219 20.632812 3.03125 C 20.429688 3.113281 19.261719 3.613281 17.535156 4.351562 C 15.808594 5.089844 13.5625 6.050781 11.339844 7.003906 C 6.886719 8.910156 2.515625 10.785156 2.515625 10.785156 L 2.546875 10.773438 C 2.546875 10.773438 2.28125 10.863281 2.015625 11.046875 C 1.882812 11.140625 1.738281 11.261719 1.617188 11.4375 C 1.5 11.613281 1.414062 11.863281 1.449219 12.125 C 1.5625 13.046875 2.519531 13.3125 2.519531 13.3125 L 2.523438 13.3125 L 6.796875 14.773438 C 6.90625 15.136719 8.09375 19.101562 8.351562 19.941406 C 8.496094 20.402344 8.632812 20.671875 8.773438 20.855469 C 8.84375 20.945312 8.917969 21.015625 9 21.066406 C 9.03125 21.089844 9.066406 21.101562 9.097656 21.117188 C 9.101562 21.117188 9.101562 21.117188 9.101562 21.117188 C 9.105469 21.117188 9.109375 21.121094 9.113281 21.121094 L 9.101562 21.117188 C 9.109375 21.121094 9.117188 21.125 9.125 21.128906 C 9.140625 21.132812 9.148438 21.132812 9.167969 21.140625 C 9.660156 21.308594 10.0625 20.992188 10.0625 20.992188 L 10.082031 20.980469 L 12.707031 18.542969 L 16.964844 21.867188 L 17.019531 21.890625 C 17.765625 22.222656 18.4375 22.035156 18.8125 21.734375 C 19.1875 21.429688 19.332031 21.039062 19.332031 21.039062 L 19.347656 20.996094 L 22.480469 4.679688 C 22.558594 4.316406 22.570312 4 22.496094 3.714844 C 22.417969 3.429688 22.234375 3.183594 22.007812 3.046875 C 21.777344 2.90625 21.535156 2.863281 21.300781 2.875 Z M 21.328125 3.847656 C 21.421875 3.84375 21.492188 3.855469 21.515625 3.867188 C 21.535156 3.882812 21.546875 3.878906 21.566406 3.960938 C 21.589844 4.042969 21.601562 4.210938 21.542969 4.476562 L 21.539062 4.480469 L 18.425781 20.703125 C 18.421875 20.71875 18.355469 20.867188 18.207031 20.988281 C 18.054688 21.113281 17.886719 21.207031 17.441406 21.019531 L 12.785156 17.386719 L 12.652344 17.285156 L 12.648438 17.289062 L 11.257812 16.242188 L 19.085938 7.03125 C 19.207031 6.886719 19.234375 6.683594 19.152344 6.511719 C 19.070312 6.34375 18.898438 6.234375 18.707031 6.238281 C 18.617188 6.242188 18.527344 6.269531 18.453125 6.320312 L 7.125 13.875 L 2.84375 12.40625 C 2.84375 12.40625 2.421875 12.171875 2.398438 12.007812 C 2.398438 11.996094 2.394531 12.003906 2.414062 11.972656 C 2.4375 11.941406 2.492188 11.882812 2.5625 11.835938 C 2.703125 11.738281 2.859375 11.679688 2.859375 11.679688 L 2.878906 11.675781 L 2.894531 11.667969 C 2.894531 11.667969 7.265625 9.792969 11.71875 7.886719 C 13.941406 6.933594 16.1875 5.972656 17.914062 5.234375 C 19.640625 4.496094 20.886719 3.964844 20.992188 3.921875 C 21.113281 3.875 21.230469 3.855469 21.328125 3.847656 Z M 16.132812 9.019531 L 10.195312 16.007812 C 10.183594 16.019531 10.175781 16.03125 10.167969 16.042969 C 10.160156 16.054688 10.148438 16.070312 10.140625 16.082031 C 10.109375 16.140625 10.085938 16.203125 10.078125 16.269531 C 10.078125 16.269531 10.078125 16.269531 10.078125 16.273438 L 9.304688 19.75 C 9.292969 19.710938 9.285156 19.699219 9.269531 19.65625 L 9.269531 19.652344 C 9.023438 18.863281 7.90625 15.128906 7.75 14.609375 Z M 10.867188 17.152344 L 11.933594 17.953125 L 10.367188 19.40625 Z M 10.867188 17.152344 "/>
</g>
</svg>
