<!-- icon666.com - MILLIONS vector ICONS FREE --><svg fill="none" viewBox="0 0 24 24" xmlns="http://www.w3.org/2000/svg"><path clip-rule="evenodd" d="m2 4c0-.55228.44772-1 1-1h10c.5523 0 1 .44772 1 1v3c0 .55228-.4477 1-1 1s-1-.44772-1-1v-2h-3v14h1c.5523 0 1 .4477 1 1s-.4477 1-1 1h-4c-.55228 0-1-.4477-1-1s.44772-1 1-1h1v-14h-3v2c0 .55228-.44772 1-1 1s-1-.44772-1-1zm10 8c0-.5523.4477-1 1-1h8c.5523 0 1 .4477 1 1v2c0 .5523-.4477 1-1 1s-1-.4477-1-1v-1h-2v6h1c.5523 0 1 .4477 1 1s-.4477 1-1 1h-4c-.5523 0-1-.4477-1-1s.4477-1 1-1h1v-6h-2v1c0 .5523-.4477 1-1 1s-1-.4477-1-1z" fill="rgb(0,0,0)" fill-rule="evenodd" style="fill: rgb(201, 107, 255);"></path></svg>