<svg width="8" height="8" viewBox="0 0 8 8" fill="none" xmlns="http://www.w3.org/2000/svg">
<path d="M7.02498 2.00311C6.56774 2.00311 6.14578 1.85164 5.80703 1.59609C5.41849 1.30311 5.13929 0.873422 5.04072 0.378133C5.01618 0.255733 5.00312 0.129422 5.00178 0H3.69556V3.56924L3.69396 5.52427C3.69396 6.04693 3.35361 6.49013 2.88178 6.64596C2.74489 6.6912 2.59698 6.71262 2.44294 6.70418C2.24641 6.69342 2.06223 6.63404 1.90214 6.53831C1.56143 6.33458 1.33049 5.96489 1.32418 5.54204C1.31432 4.88116 1.84863 4.3424 2.50898 4.3424C2.63938 4.3424 2.76454 4.36364 2.88178 4.40231V3.42684V3.07618C2.75814 3.05787 2.63236 3.04836 2.50507 3.04836C1.78223 3.04836 1.10623 3.3488 0.622939 3.89013C0.257694 4.2992 0.0385831 4.82107 0.00480534 5.36836C-0.0394613 6.08729 0.223561 6.77067 0.733783 7.27493C0.808716 7.34898 0.887472 7.41769 0.969783 7.48107C1.40721 7.81751 1.94196 8 2.50516 8C2.63236 8 2.75823 7.99058 2.88187 7.97227C3.40801 7.89431 3.89343 7.65351 4.27654 7.27476C4.74729 6.80951 5.00738 6.19182 5.01014 5.5344L5.00338 2.61493C5.22792 2.78818 5.47352 2.93156 5.73698 3.04276C6.14685 3.21564 6.58143 3.30329 7.02863 3.3032V2.35476V2.00284C7.02898 2.00311 7.02525 2.00311 7.02498 2.00311Z" fill="white"/>
</svg>
