<svg width="34" height="32" viewBox="0 0 34 32" fill="none" xmlns="http://www.w3.org/2000/svg">
<path d="M33.1278 15.8202C33.1278 17.4591 30.1919 18.6137 29.7116 20.0923C29.2138 21.6252 30.8932 24.2819 29.9648 25.5577C29.0271 26.8462 25.9752 26.065 24.6868 27.0027C23.4109 27.9311 23.2162 31.0808 21.6837 31.5772C20.2047 32.0574 18.2032 29.6404 16.5639 29.6404C14.9246 29.6404 12.9231 32.0574 11.4441 31.5772C9.91155 31.0797 9.71645 27.9311 8.44101 27.0027C7.15253 26.065 4.10062 26.8459 3.163 25.5574C2.23453 24.2819 3.91394 21.6252 3.41613 20.0923C2.93589 18.6137 0 17.4591 0 15.8202C0 14.1812 2.93589 13.0266 3.41613 11.548C3.91394 10.0152 2.23453 7.35841 3.163 6.08259C4.10062 4.79411 7.15253 5.57528 8.44101 4.63767C9.71685 3.70919 9.91155 0.559543 11.4441 0.0631357C12.9231 -0.417098 14.9246 1.99989 16.5639 1.99989C18.2032 1.99989 20.2047 -0.417098 21.6837 0.0631357C23.2162 0.560593 23.4113 3.70919 24.6868 4.63767C25.9752 5.57528 29.0271 4.79446 29.9648 6.08294C30.8932 7.35841 29.2138 10.0152 29.7116 11.548C30.1919 13.0266 33.1278 14.1812 33.1278 15.8202Z" fill="url(#paint0_linear_237_25)"/>
<rect x="21.7363" y="8" width="3.81432" height="18.0121" rx="1.8" transform="rotate(45 21.7363 8)" fill="white"/>
<rect x="9" y="10.697" width="3.81432" height="18.0121" rx="1.8" transform="rotate(-45 9 10.697)" fill="white"/>
<defs>
<linearGradient id="paint0_linear_237_25" x1="16.5639" y1="-15.8202" x2="-15.0431" y2="17.2726" gradientUnits="userSpaceOnUse">
<stop stop-color="#FF7272"/>
<stop offset="1" stop-color="#D93030"/>
</linearGradient>
</defs>
</svg>
