<svg width="34" height="32" viewBox="0 0 34 32" fill="none" xmlns="http://www.w3.org/2000/svg">
<path d="M33.1278 15.8202C33.1278 17.4591 30.1919 18.6137 29.7116 20.0923C29.2138 21.6252 30.8932 24.2819 29.9648 25.5577C29.0271 26.8462 25.9752 26.065 24.6868 27.0027C23.4109 27.9311 23.2162 31.0808 21.6837 31.5772C20.2047 32.0574 18.2032 29.6404 16.5639 29.6404C14.9246 29.6404 12.9231 32.0574 11.4441 31.5772C9.91155 31.0797 9.71645 27.9311 8.44101 27.0027C7.15253 26.065 4.10062 26.8459 3.163 25.5574C2.23453 24.2819 3.91394 21.6252 3.41613 20.0923C2.93589 18.6137 0 17.4591 0 15.8202C0 14.1812 2.93589 13.0266 3.41613 11.548C3.91394 10.0152 2.23453 7.35841 3.163 6.08259C4.10062 4.79411 7.15253 5.57528 8.44101 4.63767C9.71685 3.70919 9.91155 0.559543 11.4441 0.0631357C12.9231 -0.417098 14.9246 1.99989 16.5639 1.99989C18.2032 1.99989 20.2047 -0.417098 21.6837 0.0631357C23.2162 0.560593 23.4113 3.70919 24.6868 4.63767C25.9752 5.57528 29.0271 4.79446 29.9648 6.08294C30.8932 7.35841 29.2138 10.0152 29.7116 11.548C30.1919 13.0266 33.1278 14.1812 33.1278 15.8202Z" fill="url(#paint0_linear_237_26)"/>
<path d="M15.1145 21.4535C14.8743 21.454 14.6363 21.407 14.4143 21.3153C14.1923 21.2235 13.9906 21.0888 13.8208 20.9188L9.74263 16.8407C9.57283 16.6708 9.43813 16.4692 9.34623 16.2473C9.25433 16.0254 9.20703 15.7876 9.20703 15.5474C9.20703 15.3073 9.25433 15.0694 9.34623 14.8475C9.43813 14.6256 9.57283 14.424 9.74263 14.2542C9.91253 14.0844 10.1141 13.9497 10.336 13.8577C10.5579 13.7658 10.7957 13.7185 11.0359 13.7185C11.276 13.7185 11.5139 13.7658 11.7358 13.8578C11.9576 13.9497 12.1593 14.0844 12.3291 14.2542L15.1142 17.0386L20.7961 11.3563C20.9659 11.1864 21.1675 11.0516 21.3894 10.9597C21.6113 10.8677 21.8491 10.8203 22.0893 10.8203C22.3295 10.8203 22.5674 10.8675 22.7893 10.9594C23.0112 11.0513 23.2129 11.1859 23.3827 11.3557C23.5526 11.5255 23.6874 11.7272 23.7793 11.949C23.8713 12.1709 23.9187 12.4088 23.9187 12.6489C23.9188 12.8891 23.8715 13.127 23.7796 13.3489C23.6878 13.5708 23.5531 13.7725 23.3833 13.9424L16.4079 20.9188C16.2382 21.0887 16.0365 21.2234 15.8146 21.3152C15.5926 21.4069 15.3547 21.454 15.1145 21.4535Z" fill="#F8F9E8"/>
<defs>
<linearGradient id="paint0_linear_237_26" x1="16.5639" y1="-15.8202" x2="-15.0431" y2="17.2726" gradientUnits="userSpaceOnUse">
<stop stop-color="#72FFB6"/>
<stop offset="1" stop-color="#10D194"/>
</linearGradient>
</defs>
</svg>
