<svg width="32" height="33" viewBox="0 0 32 33" fill="none" xmlns="http://www.w3.org/2000/svg">
<path d="M31.2399 16.0562C31.2399 19.4602 30.2095 22.6168 28.4517 25.2143C25.6304 29.3834 20.9355 31.1073 15.6207 31.1073C6.99456 31.1073 0.962891 24.9237 0.962891 16.0561C0.962891 10.5944 2.65438 5.76951 6.70782 2.86903C9.23542 1.06045 12.3075 0 15.6206 0C24.2469 0.00011 31.2399 7.18868 31.2399 16.0562Z" fill="#FFC263"/>
<path d="M29.4312 14.5871C28.7814 7.92425 23.529 2.52489 17.0475 1.85698C13.6491 1.50676 10.4769 2.42258 7.91031 4.19638C7.11097 4.74884 6.1216 3.72824 6.66971 2.91409L6.70638 2.86832C2.06794 6.1903 -0.74167 12.0344 0.171747 18.4696C1.1519 25.3744 6.55385 30.9274 13.2707 31.9349C19.5309 32.874 25.2186 29.9817 28.4502 25.2135C28.4368 25.2231 28.4136 25.2414 28.4002 25.251C27.6082 25.8144 26.6181 24.8016 27.1555 23.9798C28.881 21.3414 29.7718 18.0806 29.4312 14.5871Z" fill="#FFAA5A"/>
<path d="M15.6209 28.5446C22.3303 28.5446 27.7692 22.9535 27.7692 16.0565C27.7692 9.15948 22.3303 3.56836 15.6209 3.56836C8.91163 3.56836 3.47266 9.15948 3.47266 16.0565C3.47266 22.9535 8.91163 28.5446 15.6209 28.5446Z" fill="#FFF4D6"/>
<path d="M15.6198 26.7597C21.3706 26.7597 26.0326 21.9674 26.0326 16.0557C26.0326 10.144 21.3706 5.35156 15.6198 5.35156C9.86904 5.35156 5.20703 10.144 5.20703 16.0557C5.20703 21.9674 9.86904 26.7597 15.6198 26.7597Z" fill="white"/>
<path d="M24.2964 16.9487H15.6191C15.3886 16.9487 15.1683 16.8545 15.0056 16.6873L9.79917 11.3353C9.46017 10.9868 9.46017 10.4224 9.79917 10.0739C10.1382 9.72537 10.6873 9.72537 11.0263 10.0739L15.9785 15.1646H24.2965C24.7761 15.1646 25.1642 15.564 25.1642 16.0566C25.1641 16.5492 24.7761 16.9487 24.2964 16.9487Z" fill="#4E3D4D"/>
<path d="M15.6198 8.92018C15.1402 8.92018 14.752 8.52078 14.752 8.02818V7.13616C14.752 6.64357 15.1402 6.24414 15.6198 6.24414C16.0994 6.24414 16.4875 6.64357 16.4875 7.13616V8.02818C16.4875 8.52078 16.0995 8.92018 15.6198 8.92018Z" fill="#FF8B57"/>
<path d="M15.6198 25.8675C15.1402 25.8675 14.752 25.468 14.752 24.9755V24.0834C14.752 23.5909 15.1402 23.1914 15.6198 23.1914C16.0994 23.1914 16.4875 23.5909 16.4875 24.0834V24.9755C16.4875 25.4682 16.0995 25.8675 15.6198 25.8675Z" fill="#FF8B57"/>
<path d="M7.8097 16.9481H6.94196C6.46236 16.9481 6.07422 16.5487 6.07422 16.0561C6.07422 15.5635 6.46236 15.1641 6.94196 15.1641H7.8097C8.2893 15.1641 8.67744 15.5635 8.67744 16.0561C8.67744 16.5487 8.2893 16.9481 7.8097 16.9481Z" fill="#FF8B57"/>
<path d="M15.6203 17.8396C16.5788 17.8396 17.3558 17.0408 17.3558 16.0555C17.3558 15.0702 16.5788 14.2715 15.6203 14.2715C14.6618 14.2715 13.8848 15.0702 13.8848 16.0555C13.8848 17.0408 14.6618 17.8396 15.6203 17.8396Z" fill="#FFAA5A"/>
</svg>
