<svg width="12" height="11" viewBox="0 0 12 11" fill="none" xmlns="http://www.w3.org/2000/svg">
<path d="M12 1.74624C11.55 1.97049 11.1 2.0485 10.57 2.11675C11.1 1.82425 11.47 1.37574 11.62 0.771244C11.17 1.07349 10.65 1.21974 10.05 1.37574C9.59999 0.917489 8.92 0.625 8.25 0.625C6.97 0.625 5.84998 1.74625 5.84998 3.09175C5.84998 3.32575 5.84998 3.47201 5.91998 3.61826C3.89998 3.55001 2.02001 2.57499 0.820007 1.07349C0.600007 1.44399 0.52002 1.82424 0.52002 2.35074C0.52002 3.16974 0.970024 3.9205 1.65002 4.369C1.27002 4.369 0.90002 4.22275 0.52002 4.06675C0.52002 5.27575 1.34997 6.25075 2.46997 6.475C2.24997 6.54325 2.01999 6.54326 1.79999 6.54326C1.64999 6.54326 1.49998 6.54325 1.34998 6.475C1.64998 7.45 2.54998 8.20074 3.66998 8.20074C2.84998 8.87349 1.79998 9.244 0.599976 9.244C0.369976 9.244 0.22 9.244 0 9.244C1.12 9.91675 2.4 10.375 3.75 10.375C8.25 10.375 10.72 6.62125 10.72 3.394C10.72 3.32575 10.72 3.16975 10.72 3.09175C11.25 2.72125 11.7 2.27274 12 1.74624Z" fill="white"/>
</svg>
