<svg width="16" height="13" viewBox="0 0 16 13" fill="none" xmlns="http://www.w3.org/2000/svg">
<path fill-rule="evenodd" clip-rule="evenodd" d="M7.76891 3.4582L7.8036 4.02049L7.22555 3.95164C5.12147 3.68771 3.28329 2.79264 1.72257 1.28938L0.959553 0.543493L0.763018 1.0943C0.346826 2.32216 0.612727 3.61886 1.47979 4.49098C1.94223 4.97294 1.83818 5.04179 1.04048 4.75491C0.763018 4.6631 0.52024 4.59425 0.497118 4.62868C0.416192 4.709 0.693653 5.75325 0.91331 6.16636C1.21389 6.74012 1.82662 7.30241 2.49715 7.63519L3.06363 7.89912L2.3931 7.9106C1.74569 7.9106 1.72257 7.92207 1.79194 8.16305C2.02315 8.90894 2.93646 9.70073 3.95382 10.045L4.6706 10.286L4.04631 10.6532C3.12144 11.181 2.03472 11.4794 0.947992 11.5023C0.427753 11.5138 0 11.5597 0 11.5941C0 11.7089 1.41043 12.3515 2.23125 12.604C4.69372 13.3499 7.61862 13.0286 9.81519 11.7548C11.3759 10.8483 12.9366 9.04665 13.665 7.30241C14.058 6.37291 14.4511 4.67458 14.4511 3.85984C14.4511 3.33198 14.4858 3.26312 15.1332 2.63199C15.5147 2.26478 15.8731 1.86315 15.9425 1.74839C16.0581 1.53036 16.0465 1.53036 15.4569 1.72544C14.4742 2.0697 14.3355 2.0238 14.8211 1.50741C15.1794 1.14021 15.6072 0.474642 15.6072 0.279563C15.6072 0.245137 15.4338 0.302513 15.2372 0.40579C15.0291 0.520543 14.5667 0.692671 14.2199 0.795948L13.5956 0.991027L13.0291 0.612345C12.717 0.40579 12.2777 0.176285 12.0464 0.107434C11.4568 -0.0532193 10.5551 -0.0302688 10.0233 0.153335C8.57817 0.669721 7.66487 2.00085 7.76891 3.4582Z" fill="white"/>
</svg>
