<svg width="38" height="38" viewBox="0 0 38 38" fill="none" xmlns="http://www.w3.org/2000/svg">
<g clip-path="url(#clip0_221:2096)">
<path d="M13.1275 16.3067V30.2901C13.1275 30.9119 12.7354 31.4649 12.1502 31.6697C11.3222 31.9608 10.3229 32.1145 9.25935 32.1145C6.20021 32.1145 2.90992 30.8592 2.90992 28.1029V10.2104C2.84116 8.98149 3.26982 6.81039 5.32826 5.6356C6.2836 5.0899 11.3002 1.86398 13.8195 0.234199C14.2687 -0.0569387 14.8422 -0.0774207 15.3132 0.177142C15.7843 0.43463 16.0769 0.927661 16.0769 1.46312V3.58155C16.0769 4.38912 15.4215 5.04455 14.6139 5.04455C13.9848 5.04455 13.4479 4.64807 13.2416 4.08921C10.9652 5.55221 7.61201 7.6999 6.77956 8.17537C6.0305 8.60403 5.86811 9.39112 5.83592 9.81832C5.83592 10.2982 5.9398 10.6756 6.12706 10.8819C6.64642 11.4481 8.37716 11.0955 10.2659 9.9617C12.08 8.87322 21.0277 2.91588 21.117 2.8559C21.569 2.55598 22.1455 2.52818 22.618 2.78421C23.0949 3.03877 23.3919 3.53473 23.3919 4.07458V4.24136C23.3919 4.73 23.1476 5.18646 22.7424 5.45858C22.7424 5.45858 16.5305 9.60472 15.9804 9.95731C13.8751 11.312 13.1275 12.974 13.1275 16.3067ZM35.096 9.24629V28.239C35.096 28.7408 34.837 29.2089 34.4113 29.4767C34.4113 29.4767 25.882 36.1011 24.1512 37.153C23.2412 37.7075 22.0826 38.0001 20.8024 38.0001C17.7608 38.0001 14.6139 36.3542 14.6139 33.6023V15.8766V15.448C14.6139 15.4421 14.6183 15.4362 14.6183 15.4289C14.6476 14.358 14.8978 12.8292 16.8889 11.3603C18.0827 10.4796 25.1929 5.63121 25.4943 5.42639C25.9434 5.12209 26.5242 5.0899 27.0012 5.34154C27.481 5.59464 27.7809 6.09206 27.7809 6.63483V8.75326C27.7809 9.56083 27.127 10.2163 26.3179 10.2163C25.7137 10.2163 25.1944 9.85051 24.972 9.32675C22.7029 10.879 19.3716 13.1657 18.6255 13.7143C17.6833 14.4107 17.5575 14.8701 17.5414 15.4597C17.5443 15.8971 17.6628 16.2307 17.9028 16.4501C18.6489 17.1333 20.6576 16.8466 22.6385 15.6586C24.1044 14.7779 30.4217 9.90025 32.7303 8.09491C33.1736 7.75256 33.7705 7.68965 34.2737 7.93398C34.777 8.1783 35.096 8.68596 35.096 9.24629ZM32.1699 15.7654L24.8549 21.4404V24.3664L32.1699 18.6914V15.7654Z" fill="white"/>
</g>
<defs>
<clipPath id="clip0_221:2096">
<rect width="38" height="38" fill="white"/>
</clipPath>
</defs>
</svg>
