<svg width="774" height="866" viewBox="0 0 774 866" fill="none" xmlns="http://www.w3.org/2000/svg">
<path d="M773.766 598.739C773.766 635.168 754.352 668.836 722.824 687.085L438.134 851.865C406.502 870.174 367.496 870.174 335.864 851.865L51.1744 687.085C19.6464 668.836 0.232422 635.168 0.232422 598.739V267.639C0.232422 231.246 19.6064 197.606 51.0864 179.345L335.776 14.1846C367.452 -4.19043 406.546 -4.19043 438.222 14.1846L722.912 179.345C754.39 197.606 773.766 231.246 773.766 267.639V598.739Z" fill="white"/>
<path d="M329.155 292.058L174.43 268.898C202.995 165.968 279.961 114.503 405.327 114.503C470.391 114.503 522.165 130.862 560.647 163.579C599.13 196.296 618.371 239.49 618.371 293.161C618.371 331.392 607.263 365.028 585.046 394.069C562.83 423.11 519.983 460.79 456.505 507.109C411.278 540.194 383.904 564.823 374.382 580.998H631.463V701.206H164.908C164.908 652.682 180.579 605.996 211.921 561.147C243.263 516.299 282.936 476.23 330.94 440.939C378.945 405.649 411.874 377.343 429.726 356.022C447.579 334.701 456.505 313.012 456.505 290.955C456.505 274.045 450.753 260.443 439.247 250.15C427.743 239.857 413.262 234.711 395.805 234.711C360.893 234.711 338.677 253.827 329.155 292.058Z" fill="url(#paint0_linear_1767_3454)"/>
<defs>
<linearGradient id="paint0_linear_1767_3454" x1="251.197" y1="197.647" x2="621.812" y2="689.401" gradientUnits="userSpaceOnUse">
<stop offset="0.005" stop-color="#735BD2"/>
<stop offset="1" stop-color="#E5388E"/>
</linearGradient>
</defs>
</svg>
