<svg width="38" height="38" viewBox="0 0 38 38" fill="none" xmlns="http://www.w3.org/2000/svg">
<g clip-path="url(#clip0_307_117)">
<mask id="mask0_307_117" style="mask-type:luminance" maskUnits="userSpaceOnUse" x="0" y="0" width="38" height="38">
<path d="M38 0H0V38H38V0Z" fill="white"/>
</mask>
<g mask="url(#mask0_307_117)">
<path d="M18.6086 17.8156C18.854 17.9066 19.1287 17.913 19.3914 17.8156L33.4741 12.5347V24.7097C33.8317 24.6197 34.2023 24.5667 34.5874 24.5667C34.9726 24.5667 35.3432 24.6197 35.7008 24.7097V11.6996L37.2798 11.1352C38.2391 10.7746 38.2409 9.41112 37.2798 9.04979L19.3914 2.36946C19.1391 2.27594 18.8608 2.27594 18.6086 2.36946L0.720112 9.04979C-0.239109 9.41038 -0.240964 10.7739 0.720112 11.1352L18.6086 17.8156Z" fill="black"/>
<path d="M34.5873 26.7935C32.6835 26.7935 31.2471 29.1866 31.2471 32.3604V34.5872C31.2471 35.2026 31.7451 35.7006 32.3605 35.7006H36.8141C37.4295 35.7006 37.9275 35.2026 37.9275 34.5872V32.3604C37.9275 29.1866 36.4912 26.7935 34.5873 26.7935Z" fill="black"/>
<path d="M30.5157 16.0224L20.1731 19.901C19.3984 20.1872 18.5792 20.1796 17.8343 19.9032L7.48409 16.0222C6.55538 19.4258 6.79156 21.6594 6.75259 22.3398C6.75259 23.1274 7.55312 23.6652 8.27808 23.3738C8.30421 23.364 10.9072 22.3398 13.4329 22.3398C15.7826 22.3398 18.2811 24.3034 18.3062 24.3241C18.7043 24.6409 19.2838 24.6513 19.6957 24.323C20.3851 23.7706 22.6042 22.3397 24.5668 22.3397C27.0926 22.3397 29.6956 23.364 29.7216 23.3738C30.4449 23.6644 31.2471 23.1288 31.2471 22.3397C31.2098 21.6869 31.4389 19.4055 30.5157 16.0224Z" fill="black"/>
</g>
</g>
<defs>
<clipPath id="clip0_307_117">
<rect width="38" height="38" fill="white"/>
</clipPath>
</defs>
</svg>
