<svg width="40" height="40" viewBox="0 0 40 40" fill="none" xmlns="http://www.w3.org/2000/svg">
<path d="M16.875 15C20.3268 15 23.125 12.2018 23.125 8.75C23.125 5.29822 20.3268 2.5 16.875 2.5C13.4232 2.5 10.625 5.29822 10.625 8.75C10.625 12.2018 13.4232 15 16.875 15Z" fill="white"/>
<path d="M21.25 30C21.25 31.4834 21.6899 32.9334 22.514 34.1668C23.3381 35.4001 24.5094 36.3614 25.8799 36.9291C27.2503 37.4967 28.7583 37.6453 30.2132 37.3559C31.668 37.0665 33.0044 36.3522 34.0533 35.3033C35.1022 34.2544 35.8165 32.918 36.1059 31.4632C36.3953 30.0083 36.2467 28.5003 35.6791 27.1299C35.1114 25.7594 34.1501 24.5881 32.9168 23.764C31.6834 22.9399 30.2334 22.5 28.75 22.5C26.7616 22.5022 24.8552 23.2931 23.4492 24.6992C22.0431 26.1052 21.2522 28.0116 21.25 30ZM24.558 31.433C24.6161 31.375 24.685 31.329 24.7608 31.2975C24.8366 31.2661 24.9179 31.25 25 31.25C25.0821 31.25 25.1634 31.2661 25.2392 31.2975C25.315 31.329 25.3839 31.375 25.442 31.433L27.4029 33.394L31.98 26.5283C32.0724 26.3913 32.2152 26.2965 32.3772 26.2646C32.5393 26.2326 32.7074 26.2661 32.8449 26.3578C32.9823 26.4494 33.0779 26.5917 33.1107 26.7536C33.1435 26.9155 33.1109 27.0838 33.02 27.2217L28.02 34.7217C27.9687 34.7986 27.901 34.8632 27.8217 34.9108C27.7424 34.9584 27.6536 34.9878 27.5616 34.9969C27.541 34.999 27.5204 35 27.4999 35C27.3342 35 27.1752 34.9341 27.058 34.8169L24.558 32.3169C24.5 32.2589 24.454 32.19 24.4226 32.1142C24.3911 32.0383 24.375 31.9571 24.375 31.875C24.375 31.7929 24.3911 31.7116 24.4226 31.6358C24.454 31.56 24.5 31.4911 24.558 31.433Z" fill="white"/>
<path d="M21.2969 34.5791C20.5659 33.3909 20.1297 32.0451 20.0248 30.654C19.9199 29.2629 20.1493 27.8668 20.6939 26.5824C21.2384 25.298 22.0823 24.1625 23.1551 23.2707C24.2279 22.3789 25.4985 21.7567 26.8608 21.456C24.4297 18.1359 20.8368 16.25 16.8751 16.25C13.3187 16.25 10.033 17.7723 7.62342 20.5363C5.1967 23.3202 3.82928 27.2004 3.75342 31.4966C5.18811 32.2201 11.0791 35 16.8751 35C18.3588 34.9945 19.8389 34.8537 21.2969 34.5791Z" fill="white"/>
</svg>
