<svg width="20" height="20" viewBox="0 0 20 20" fill="none" xmlns="http://www.w3.org/2000/svg">
<g clip-path="url(#clip0_311_22)">
<path d="M17.8021 12.298C17.8021 12.298 19.4191 13.895 19.8191 14.634C19.8269 14.6446 19.8329 14.6564 19.8371 14.669C20.0001 14.942 20.0401 15.156 19.9601 15.314C19.8251 15.575 19.3681 15.706 19.2131 15.717H16.3551C16.1561 15.717 15.7421 15.665 15.2381 15.317C14.8531 15.048 14.4701 14.605 14.0991 14.172C13.5451 13.529 13.0661 12.971 12.5811 12.971C12.5198 12.9708 12.459 12.981 12.4011 13.001C12.0341 13.117 11.5681 13.64 11.5681 15.033C11.5681 15.469 11.2241 15.717 10.9831 15.717H9.67409C9.22809 15.717 6.90609 15.561 4.84709 13.39C2.32409 10.732 0.05809 5.39996 0.03609 5.35296C-0.10491 5.00796 0.19109 4.81996 0.51109 4.81996H3.39709C3.78409 4.81996 3.91009 5.05396 3.99809 5.26396C4.10009 5.50496 4.47809 6.46896 5.09809 7.55196C6.10209 9.31396 6.71909 10.031 7.21209 10.031C7.30471 10.0312 7.39577 10.0071 7.47609 9.96096C8.12009 9.60696 8.00009 7.30696 7.97009 6.83296C7.97009 6.74096 7.96909 5.80596 7.63909 5.35396C7.40309 5.02996 7.00109 4.90396 6.75809 4.85796C6.82309 4.76396 6.96109 4.61996 7.13809 4.53496C7.57909 4.31496 8.37609 4.28296 9.16709 4.28296H9.60609C10.4641 4.29496 10.6861 4.34996 10.9981 4.42896C11.6261 4.57896 11.6381 4.98596 11.5831 6.37196C11.5671 6.76796 11.5501 7.21396 11.5501 7.73896C11.5501 7.85096 11.5451 7.97596 11.5451 8.10296C11.5261 8.81396 11.5011 9.61496 12.0031 9.94396C12.0682 9.98452 12.1434 10.006 12.2201 10.006C12.3941 10.006 12.9151 10.006 14.3281 7.58096C14.9481 6.50996 15.4281 5.24696 15.4611 5.15196C15.4891 5.09896 15.5731 4.94996 15.6751 4.88996C15.7476 4.85135 15.8289 4.83207 15.9111 4.83396H19.3061C19.6761 4.83396 19.9271 4.88996 19.9761 5.02996C20.0581 5.25696 19.9601 5.94996 18.4101 8.04596C18.1491 8.39496 17.9201 8.69696 17.7191 8.96096C16.3141 10.805 16.3141 10.898 17.8021 12.298V12.298Z" fill="white"/>
</g>
<defs>
<clipPath id="clip0_311_22">
<rect width="20" height="20" fill="white"/>
</clipPath>
</defs>
</svg>
