<svg width="22" height="22" viewBox="0 0 22 22" fill="none" xmlns="http://www.w3.org/2000/svg">
<path d="M10.9994 22C17.0656 21.9989 22 17.0645 22 10.9994C21.9989 4.93435 17.0645 -1.13951e-06 11.0006 -1.66964e-06C4.93435 -2.19996e-06 7.83888e-07 4.93435 2.53661e-07 10.9994C-2.76567e-07 17.0645 4.93435 21.9989 10.9994 22V22ZM11.0006 2.19989C15.8513 2.19989 19.799 6.14759 19.8001 10.9994C19.8001 15.8513 15.8524 19.799 10.9994 19.8001C6.14759 19.799 2.19989 15.8513 2.19989 10.9994C2.19989 6.14759 6.14759 2.19989 11.0006 2.19989V2.19989Z" fill="url(#paint0_linear_276_157)"/>
<path d="M10.9995 17L15 10.9917L11.9984 10.9917L11.9984 5L10.0006 5L10.0006 10.9917L7 10.9917L10.9995 17Z" fill="url(#paint1_linear_276_157)"/>
<defs>
<linearGradient id="paint0_linear_276_157" x1="-2" y1="22.5" x2="27" y2="-1.5" gradientUnits="userSpaceOnUse">
<stop stop-color="#FF00F5"/>
<stop offset="1" stop-color="#0066FF"/>
</linearGradient>
<linearGradient id="paint1_linear_276_157" x1="6.27273" y1="17.2727" x2="19.8943" y2="9.75735" gradientUnits="userSpaceOnUse">
<stop stop-color="#FF00F5"/>
<stop offset="1" stop-color="#0066FF"/>
</linearGradient>
</defs>
</svg>
