<svg width="38" height="38" viewBox="0 0 38 38" fill="none" xmlns="http://www.w3.org/2000/svg">
<path d="M12.4709 9.65457C10.3814 8.69039 8.53974 7.27846 7.06895 5.54248C4.98451 8.00261 3.64568 11.113 3.40469 14.5221H12.1149C12.1519 12.8419 12.2724 11.2062 12.4709 9.65457Z" fill="white"/>
<path d="M12.8341 7.35396C13.1051 5.92666 13.4477 4.59963 13.8573 3.41191C14.2756 2.19895 14.7247 1.23492 15.1859 0.471436C12.7169 1.09272 10.4797 2.30278 8.63199 3.94294C9.78282 5.34516 11.2119 6.51039 12.8341 7.35396Z" fill="white"/>
<path d="M25.8852 14.5221H34.5953C34.3543 11.1129 33.0154 8.00253 30.931 5.54248C29.4602 7.27846 27.6186 8.69032 25.5291 9.65449C25.7276 11.2061 25.8482 12.8419 25.8852 14.5221Z" fill="white"/>
<path d="M23.3852 10.458C21.9932 10.8654 20.5217 11.0849 18.9999 11.0849C17.4781 11.0849 16.0067 10.8654 14.6148 10.4581C14.4659 11.7595 14.3738 13.1228 14.3418 14.5221H23.6582C23.6262 13.1228 23.5341 11.7595 23.3852 10.458Z" fill="white"/>
<path d="M18.9999 8.85823C20.4162 8.85823 21.7814 8.63684 23.0639 8.22804C22.8013 6.73327 22.4573 5.3537 22.0379 4.1377C21.5563 2.74142 20.9861 1.61611 20.3888 0.883574C20.0509 0.469137 19.5356 0 18.9999 0C18.4643 0 17.9491 0.469137 17.6113 0.883574C17.014 1.61611 16.4438 2.74134 15.9622 4.1377C15.5429 5.35377 15.1987 6.73335 14.9362 8.22811C16.2186 8.63684 17.5838 8.85823 18.9999 8.85823Z" fill="white"/>
<path d="M25.1659 7.35381C26.7881 6.51024 28.2171 5.34508 29.3679 3.94287C27.5203 2.30263 25.283 1.09265 22.8141 0.471436C23.2753 1.23492 23.7245 2.19895 24.1427 3.41183C24.5524 4.59956 24.895 5.92659 25.1659 7.35381Z" fill="white"/>
<path d="M36.8867 22.4141H1.11328C0.498453 22.4141 0 22.9125 0 23.5273V36.8866C0 37.5014 0.498453 37.9999 1.11328 37.9999H36.8867C37.5015 37.9999 38 37.5014 38 36.8866V23.5273C38 22.9125 37.5015 22.4141 36.8867 22.4141ZM10.1491 34.2519C9.65319 34.407 9.11273 34.2121 8.80412 33.7669L6.72103 30.7504V33.2601C6.72103 33.8749 6.22257 34.3734 5.60775 34.3734C4.99292 34.3734 4.49446 33.8749 4.49446 33.2601V27.1791C4.49446 26.6919 4.81131 26.2613 5.27643 26.1163C5.74156 25.9714 6.24699 26.1456 6.52383 26.5466L8.73154 29.7434L8.70668 27.1784C8.70074 26.5636 9.19429 26.0604 9.80912 26.0543C9.81276 26.0543 9.81647 26.0543 9.82011 26.0543C10.43 26.0543 10.9272 26.5456 10.9332 27.1567L10.9902 33.0438C10.9902 33.0475 10.9902 33.051 10.9902 33.0547C10.9902 33.6135 10.6522 34.0946 10.1491 34.2519ZM15.2344 29.1007C15.8492 29.1007 16.3476 29.5991 16.3476 30.2139C16.3476 30.8288 15.8492 31.3272 15.2344 31.3272H13.9916V32.119H15.4219C16.0367 32.119 16.5352 32.6174 16.5352 33.2323C16.5352 33.8471 16.0367 34.3455 15.4219 34.3455H12.8783C12.2635 34.3455 11.765 33.8471 11.765 33.2323V27.1957C11.765 26.5809 12.2635 26.0824 12.8783 26.0824H15.4219C16.0367 26.0824 16.5352 26.5809 16.5352 27.1957C16.5352 27.8105 16.0367 28.309 15.4219 28.309H13.9916V29.1007H15.2344ZM26.3209 27.3963L25.1291 33.3841C25.1197 33.4318 25.1071 33.4786 25.0915 33.5245C24.9205 34.0286 24.4481 34.3697 23.916 34.3735C23.913 34.3735 23.91 34.3735 23.907 34.3735C23.3785 34.3735 22.9056 34.0401 22.7285 33.5414C22.7233 33.5265 22.7183 33.5116 22.7137 33.4965L21.9282 30.9466L21.1391 33.4961C21.1361 33.5058 21.133 33.5153 21.1297 33.5249C20.9586 34.0287 20.4862 34.3698 19.9542 34.3736C19.9513 34.3736 19.9483 34.3736 19.9453 34.3736C19.4169 34.3736 18.944 34.0403 18.7668 33.5417C18.7486 33.4905 18.7342 33.4381 18.7237 33.3849L17.5367 27.3839C17.4174 26.7808 17.8096 26.1951 18.4128 26.0759C19.016 25.9567 19.6017 26.3488 19.721 26.9519L20.1549 29.1459L20.8475 26.908C20.9367 26.5386 21.2117 26.224 21.6012 26.1041C22.1887 25.9231 22.8119 26.2527 22.9929 26.8402L23.7029 29.1447L24.1373 26.962C24.2573 26.3589 24.8435 25.9677 25.4465 26.0874C26.0494 26.2071 26.441 26.7933 26.3209 27.3963ZM33.4689 32.1354C33.2374 33.4322 32.0137 34.3734 30.5591 34.3734C29.4164 34.3734 28.3418 33.9109 27.6111 33.1045C27.1982 32.6488 27.2329 31.9448 27.6885 31.5319C28.144 31.119 28.8481 31.1537 29.261 31.6093C29.3753 31.7353 29.8065 32.1467 30.5591 32.1467C31.0101 32.1467 31.2528 31.88 31.2771 31.7439C31.2954 31.6412 31.1005 31.4529 30.7029 31.3064C29.7472 30.9538 28.8979 30.5758 28.8622 30.5599C28.8085 30.536 28.7569 30.5078 28.7077 30.4757C27.9494 29.9813 27.5586 29.1147 27.688 28.2141C27.8245 27.2633 28.514 26.4905 29.4876 26.1974C30.6536 25.846 31.7751 26.0738 32.8209 26.8744L32.8535 26.8991C33.3476 27.2649 33.4517 27.9621 33.0858 28.4562C32.7199 28.9503 32.0229 29.0544 31.5286 28.6886C31.5114 28.6758 31.4909 28.6602 31.4676 28.6424C31.119 28.3755 30.7157 28.1529 30.1298 28.3292C29.991 28.3711 29.9043 28.4444 29.892 28.5305C29.8886 28.5541 29.891 28.5704 29.8963 28.5819C30.1592 28.6961 30.7953 28.9671 31.4735 29.2173C33.2161 29.8603 33.6376 31.1911 33.4689 32.1354Z" fill="white"/>
<path d="M25.6876 20.1874H33.9584C34.2938 19.0872 34.5114 17.9361 34.5953 16.7485H25.8852C25.8594 17.9209 25.7928 19.0717 25.6876 20.1874Z" fill="white"/>
<path d="M14.5485 20.1874H23.4514C23.5614 19.0767 23.6313 17.9255 23.6582 16.7485H14.3418C14.3687 17.9255 14.4385 19.0767 14.5485 20.1874Z" fill="white"/>
<path d="M12.3125 20.1874C12.2073 19.0717 12.1408 17.9209 12.1149 16.7485H3.40469C3.48864 17.9361 3.70617 19.0872 4.04164 20.1874H12.3125Z" fill="white"/>
</svg>
