<svg id="Слой_1" data-name="Слой 1" xmlns="http://www.w3.org/2000/svg" xmlns:xlink="http://www.w3.org/1999/xlink" viewBox="0 0 472.36 273.6"><defs><style>.cls-1,.cls-2{fill:#202121;}.cls-1{opacity:0.09;}.cls-3{fill:url(#Безымянный_градиент_48);}</style><linearGradient id="Безымянный_градиент_48" x1="82.1" y1="123.74" x2="372.21" y2="123.74" gradientUnits="userSpaceOnUse"><stop offset="0" stop-color="#42578a"/><stop offset="0.01" stop-color="#3f5c8b"/><stop offset="0.06" stop-color="#2b7a92"/><stop offset="0.12" stop-color="#1b9297"/><stop offset="0.18" stop-color="#0fa59b"/><stop offset="0.26" stop-color="#06b29e"/><stop offset="0.35" stop-color="#01baa0"/><stop offset="0.54" stop-color="#00bca0"/><stop offset="0.58" stop-color="#15bea3"/><stop offset="0.73" stop-color="#59c4ae"/><stop offset="0.86" stop-color="#8bc8b5"/><stop offset="0.95" stop-color="#aacbba"/><stop offset="1" stop-color="#b6ccbc"/></linearGradient></defs><rect class="cls-1" x="36.01" y="33.46" width="418.4" height="220.98" rx="77.78"/><rect class="cls-2" x="17.95" y="19.16" width="418.4" height="220.98" rx="78.88"/><path class="cls-3" d="M144.45,59.77l-2.19,12.45a2.19,2.19,0,0,1-3.06,1.6A22.29,22.29,0,0,0,129.86,72c-13.47,0-15,13.38-15,23.45V98h19.24a2.18,2.18,0,0,1,2.18,2.18v12.26a2.18,2.18,0,0,1-2.18,2.18H114.83v74.16a2.18,2.18,0,0,1-2.18,2.18H96.72a2.18,2.18,0,0,1-2.17-2.18V114.66H84.28a2.17,2.17,0,0,1-2.18-2.18V100.22A2.17,2.17,0,0,1,84.28,98H94.55V96c0-14.68,3.67-25.62,10.92-32.52,5.88-5.7,14.09-8.84,23.11-8.84a39.37,39.37,0,0,1,14.56,2.73A2.17,2.17,0,0,1,144.45,59.77Zm48.36,36.87A19.55,19.55,0,0,0,187.7,96c-9.49,0-18.07,5.26-23.32,13.86l-.31-9.73A2.18,2.18,0,0,0,161.89,98H147.8a2.2,2.2,0,0,0-1.6.69,2.18,2.18,0,0,0-.58,1.63c.5,7.55.73,16,.73,27.5v61a2.18,2.18,0,0,0,2.18,2.18h15.92a2.18,2.18,0,0,0,2.18-2.18V141.59a43.79,43.79,0,0,1,.7-7.12c2.12-11.65,9.58-18.89,19.46-18.89a22,22,0,0,1,5,.49,2.15,2.15,0,0,0,1.83-.42,2.18,2.18,0,0,0,.82-1.7V98.75A2.17,2.17,0,0,0,192.81,96.64Zm87.69,43.3a56.78,56.78,0,0,1-.48,7l-.08.75a2.19,2.19,0,0,1-2.17,1.94h-60c1.48,23.77,20,26.39,28.13,26.39,11.69,0,18.29-2.11,23.68-4.4a2.17,2.17,0,0,1,1.83.06,2.21,2.21,0,0,1,1.14,1.44l2.74,11.53a2.19,2.19,0,0,1-1.22,2.5c-5.74,2.59-15.67,5.68-30.37,5.68C215.93,192.83,198,174.44,198,146c0-29.41,18-50,43.74-50,13.47,0,24.18,5.45,31,15.74C279.74,122.47,280.5,135,280.5,139.94Zm-20-6.21c-.21-4.07-1.32-11.52-6.32-16.61-3.39-3.45-8-5.21-13.8-5.21-14.27,0-20.43,12.76-22.17,21.82Zm111.67,6.21a56.78,56.78,0,0,1-.48,7l-.08.75a2.19,2.19,0,0,1-2.17,1.94h-60C311,173.4,329.53,176,337.63,176c11.69,0,18.29-2.11,23.68-4.4a2.17,2.17,0,0,1,1.83.06,2.21,2.21,0,0,1,1.14,1.44L367,184.65a2.19,2.19,0,0,1-1.22,2.5c-5.74,2.59-15.67,5.68-30.37,5.68-27.79,0-45.75-18.39-45.75-46.85,0-29.41,18-50,43.74-50,13.47,0,24.18,5.45,31,15.74C371.45,122.47,372.21,135,372.21,139.94Zm-20-6.21c-.21-4.07-1.32-11.52-6.32-16.61-3.39-3.45-8-5.21-13.8-5.21-14.27,0-20.43,12.76-22.17,21.82Z"/></svg>