<svg id="Слой_1" data-name="Слой 1" xmlns="http://www.w3.org/2000/svg" xmlns:xlink="http://www.w3.org/1999/xlink" viewBox="0 0 1012.95 471.32"><defs><style>.cls-1,.cls-2,.cls-3{fill-rule:evenodd;}.cls-1{fill:url(#Безымянный_градиент);}.cls-2{fill:#0566a8;}.cls-3,.cls-4{fill:#fff;}</style><linearGradient id="Безымянный_градиент" x1="5679.82" y1="-3524.66" x2="9687.42" y2="-3524.66" gradientTransform="matrix(0.03, 0, 0, -0.03, 247.27, 3.61)" gradientUnits="userSpaceOnUse"><stop offset="0" stop-color="#c79732"/><stop offset="1" stop-color="#b38325"/></linearGradient></defs><path class="cls-1" d="M495.53,38.85c-.62,2.52-5.63,12.69-7.33,16.06-.82,1.64-1.91,3.38-2.53,5,5.53-2.69,9.45-5.63,16.85-6.55-.1,14.7-4.26,106.79-8.32,115.15-1.78-.58-4.95-2.43-7-3.35a64,64,0,0,0-24.86-6.1c.88-3.31,2.11-6.52,3.1-10a121.15,121.15,0,0,0,4.13-34.49c5.73,2,9.51,7,12.38,9.62l.41.31c-.75-13.37-6.69-30-12.66-39.26-5.42-8.42-11.39-14.39-20.05-19a48.87,48.87,0,0,0-7-3c-2.83-1-2.05-.44-2.29,0,1.47.85,5.63,8.6,6.72,10.71a81.44,81.44,0,0,1,5.08,12.18c7.54,22.61,6.65,51.22-2.79,73.29-2.66,6.21-4.27,8.08-5.87,11.6,17.16.06,31.86,4.46,44.92,14.08,3.1,2.29,11.59,10.27,12,12.79.24,1.4-.88,39.5,0,47.75l.24,2.05c4.94-4.06,10.84-6.82,16.57-9,0-8.12.14-18.86.14-24.56,0-16.27-2.83-16.13,7.54-25.41C538.64,176.5,555.35,171,574.42,171c-.82-1.88-2.26-3.86-3.24-5.87-13.75-27.56-14.23-64.53-.07-91.88,2.15-4.16,5.69-8.94,6.58-10.64-5.39.64-14.22,6.17-17.33,8.76a55.75,55.75,0,0,0-12.14,13.88c-6,10.13-11.9,25.07-12.65,39.29.58-.37.14-.06.61-.47l.34-.35s.45-.51.58-.64c.51-.55.82-.92,1.33-1.47,2.22-2.35,6.79-5.93,9.93-7a120,120,0,0,0,1.77,23.84c1.81,10.23,3.38,12.52,5.46,20.6-16.85.24-28.58,8.59-31.86,9.41-1.53-3.82-2.9-22.27-3.37-27.52-2.22-25.65-4.61-62.93-4.78-87.55a34.67,34.67,0,0,1,9,2.56c2.76,1.16,6.75,3.61,7.67,4-.75-2.08-2.52-5-3.51-7.09a282,282,0,0,1-13.06-30.66L512,10.85c-.28-1-.55-1.95-.86-3C510.64,6.14,509.72,1.23,509,0c-.79,1.64-2.15,8.09-2.8,10.3-.1.41-.27.89-.44,1.47l-3.48,10.37C499.62,29.64,496.52,37.83,495.53,38.85Z"/><path class="cls-2" d="M591.64,289.09l1.43-.79c-1.43-.07-2.9-.17-4.36-.27C589.7,288.44,590.68,288.78,591.64,289.09Z"/><path class="cls-3" d="M445.87,233.08l-19.71-10c-4.92-2.49-11.63-1.91-16.78.78,4.4,1.23,8.69,2.39,12.79,3.48C427,228.55,435.74,230.93,445.87,233.08Z"/><path class="cls-3" d="M567.73,233.08l19.71-10c4.92-2.49,11.63-1.91,16.82.78-4.44,1.23-8.7,2.39-12.83,3.48C586.63,228.55,577.86,230.93,567.73,233.08Z"/><path class="cls-2" d="M343.24,225.38c0,.64-.1,1.29-.17,1.94h.34Z"/><path class="cls-3" d="M577.38,79.23c32,32.54,39.33,80.83,13.65,121.86a104.26,104.26,0,0,1-7.68,10.3,31.69,31.69,0,0,0-2.62,3.21c1.19-.55,5.32-5.08,6.54-6.55,2-2.39,3.82-4.67,5.7-7.23a94.26,94.26,0,0,0,9.72-16.17c15.59-33.39,13-71.59-7.33-101.91-2-3-9.18-12.72-11.7-14.36C582,70,577.79,77.66,577.38,79.23Z"/><path class="cls-3" d="M411.73,147.68a95.39,95.39,0,0,1,9-39.9c5.66-12.11,11.46-19.41,20.09-28.55a33.62,33.62,0,0,0-2.83-5.7c-.58-1-1.09-1.77-1.7-2.72-.38-.58-.55-.89-.86-1.33l-.95-1.06c-2.46,1.74-9.62,11.22-11.26,13.74-10.91,16.78-17.77,35.41-17.77,57,0,23.95,6.89,43.56,19.72,61.67,2.28,3.24,10.26,12.89,12.58,14.05-3.58-4.81-5.45-5.9-10.09-13A96,96,0,0,1,411.73,147.68Z"/><path class="cls-3" d="M455.52,62.14c1.78.69,2.76,1.78,4.26,2.56,6.35-2.66,8-4.81,18.52-8.32,1.88-.61,1.37-.48,2.94-3.68s5.76-11.33,6.31-14a59,59,0,0,1-6,1.6,110.62,110.62,0,0,0-16.2,5.93c-4,1.78-15.86,8.39-18.45,11.19C448.73,59.07,454.23,60.23,455.52,62.14Z"/><path class="cls-3" d="M530.62,38.92,537,52.66c1.53,3.21,1,3.11,2.9,3.72,10.23,3.44,10.74,4.74,18.52,8.32,1.67-.78,4.19-2.69,6.2-3.89,1.84-1.05,5.46-2.25,6.72-3.34-1.26-1.43-6.68-4.81-8.76-6C553.85,46.18,540.89,40.55,530.62,38.92Z"/><path class="cls-3" d="M405.93,222.2a111.39,111.39,0,0,1-12.35-21.35c-10.09-23.19-14.32-49.08-8-76.57,2.66-11.59,7.13-23.53,12.55-32.57,5.6-9.41,9.32-14.83,16.68-22.78,1-1,1.57-2.08,2.8-2.73l-8.49,11.56c-8,11.67-14.23,27.87-16.71,42.3-3.93,23-.31,48.53,9,66.95,7.1,14.05,10.17,18.21,20.13,29.43.51.58,1.19,1.3,2,2.05A15,15,0,0,0,405.93,222.2Z"/><path class="cls-3" d="M607.36,222.2a110.87,110.87,0,0,0,12.35-21.35c10.09-23.19,14.32-49.08,8-76.57-2.66-11.59-7.13-23.53-12.55-32.57-5.6-9.41-9.31-14.83-16.68-22.78-1-1-1.57-2.08-2.8-2.73l8.5,11.56c8,11.67,14.22,27.87,16.67,42.3,4,23,.34,48.53-9,66.95-7.13,14.05-10.16,18.21-20.12,29.43-.51.58-1.2,1.3-2,2.05A15,15,0,0,1,607.36,222.2Z"/><path class="cls-3" d="M681.85,227.9c4.09-7.78,4.84-17.09,18.66-15.25,8.49,1.13,14,10.3,13.19,20.47-2.28,27.15-34.24,19.95-44.61,19-49.48-4.47-50.75,24.11-112.61,21.62,3.78,2.76,13.81,4.09,20.22,4.91a181,181,0,0,0,22,1.84c15.65.07,26.06-3.47,40.35-7.12,16.4-4.16,24.48-4.57,41.78-1.09,13.33,2.66,27.69,5.9,40.89,1C745,264.73,751,230.49,733.93,211,717.42,192.19,677.89,195.12,681.85,227.9Z"/><path class="cls-3" d="M331,227.9c-4.09-7.78-4.8-17.09-18.62-15.25-8.49,1.13-14.08,10.3-13.23,20.47,2.32,27.15,34.28,19.95,44.64,19,49.49-4.47,50.72,24.11,112.59,21.62-3.79,2.76-13.78,4.09-20.23,4.91a180.48,180.48,0,0,1-22,1.84c-15.69.07-26.06-3.47-40.38-7.12-16.41-4.16-24.49-4.57-41.78-1.09-13.3,2.66-27.66,5.9-40.9,1C267.9,264.73,261.9,230.49,279,211,295.5,192.19,335,195.12,331,227.9Z"/><path class="cls-3" d="M611.86,287.28c22.45-.58,30.09-8.22,56.59-4.23,9.34,1.43,18.82,3.92,28.13,4.43a34.94,34.94,0,0,0,14.19-1.7,20.67,20.67,0,0,0,9.48-6.18c-28.68,6.55-30.15-4.33-55.32-5.56-9.89-.51-39.63,7.27-50.88,12Z"/><path class="cls-3" d="M401,287.28c-22.41-.58-30-8.22-56.55-4.23-9.38,1.43-18.82,3.92-28.17,4.43a35.1,35.1,0,0,1-14.19-1.7,20.82,20.82,0,0,1-9.48-6.18c28.72,6.55,30.15-4.33,55.32-5.56,9.93-.51,39.63,7.27,50.89,12Z"/><path class="cls-3" d="M428.34,285.64c43.89,6.86,61-22.88,91.23-18.28s45.81,33.94,81.31,32.3c-10.5-2.73-14.53-2.83-23.16-8.6-18.69-12.51-29.12-29.4-57.23-36.35-22.75-5.63-35,1.29-48.36,11.52C454.19,280.05,455.9,284.28,428.34,285.64Z"/><path class="cls-3" d="M415.75,289.05a43,43,0,0,0,4.27,1.09c63.33,14.5,75.34-15.17,98.87-6.2,5.53,2.08,8.29,4.8,7.33,12.75-.82,7-3.65,7.68-7,9.11-.24.1-.58.24-.79.3L516,307.26c37.11.17,26.09-50.54-19.88-34.14-12.66,4.51-23.16,10.61-36.94,14.16-18,4.64-30.08,1.29-47.37-.24Z"/><path class="cls-3" d="M438.4,216c13.06-4.44,23.12,6,16,16.54-10.74,15.79-47.71-3.45-66-3.69-13.64-.17-23.46,3.62-35.13,5.36,14-.38,23.4-5.66,43.79,1.19,12.9,4.33,23.61,10.85,38.37,13.13,16.31,2.49,32.64-1.5,32.23-17.83C467.25,213.71,452.38,208,438.4,216Z"/><path class="cls-3" d="M579.5,216c-13.1-4.44-23.13,6-16,16.54,10.74,15.79,47.68-3.45,65.92-3.69,13.68-.17,23.5,3.62,35.17,5.36-14-.38-23.4-5.66-43.83,1.19-12.86,4.33-23.57,10.85-38.37,13.13-16.27,2.49-32.61-1.5-32.2-17.83C550.64,213.71,565.51,208,579.5,216Z"/><path class="cls-3" d="M321.31,237.41c15,9,53.82,10.65,69.92,12.56,22.34,2.66,48.5,12.1,69.85,12.89C399.89,250.75,407.57,228,361.25,237,344.23,240.28,337.58,238.23,321.31,237.41Z"/><path class="cls-3" d="M696.55,237.41c-14.94,9-53.82,10.65-69.88,12.56-22.38,2.66-48.5,12.1-69.85,12.89C618,250.75,610.33,228,656.65,237,673.66,240.28,680.28,238.23,696.55,237.41Z"/><path class="cls-4" d="M66.3,360.81c0-15,.1-17.46.31-20.57s1-4.53,3.48-5.11a25.05,25.05,0,0,1,2.79-.31c1.37-.1,2.05-.37,2.05-1.16,0-.58-.58-.85-2.22-.85-3.58,0-14.73.27-15.58.27s-10.17-.27-14.05-.27c-1.74,0-2.32.27-2.32.85s.58,1,1.84,1.06c.78.1,1.36.2,2.42.41,2.9.37,3.79,2.11,4,4.81.2,3.1.2,5.9.2,20.87v4.84a28.9,28.9,0,0,1-8.53,1.06c-8.32,0-15.1-3.48-15.1-14.6,0-3.85,0-7.53.2-11.49.2-4.54,1.26-5.32,4.74-5.8,1.74-.17,1.94-.68,1.94-1.06,0-.58-.37-.95-2.14-.95-4,0-11.8.27-14.12.27-2.05,0-8.63-.27-14.06-.27-1,0-2.11.2-2.11.85,0,.41.2.89,1.94,1.06a15.2,15.2,0,0,1,2.7.41c2.9.37,3.41,2.11,3.58,4.91.31,3.1.2,6.38.2,10.64,0,9.07,2.43,12.86,4.27,15.18,4.16,4.91,11.8,7.43,20.53,7.43,4.74,0,10.64-.37,16-2.62v7.26c0,9.38-.2,16.34-.48,20.4-.3,3.54-1.16,4.81-3.41,5.22-1,.17-2,.27-3,.37s-1.81.27-1.81,1,.65,1,2,1c3.3,0,14-.3,14.42-.3,1,0,11.16.3,17.81.3,1.46,0,1.84-.51,1.84-1s-.27-.86-1.91-1c-1.26-.1-2.63-.2-3.89-.37-2.9-.52-3.79-2.53-4-5.05-.41-4.06-.51-13-.51-20.67Zm30.22,17c0,6-.1,11.7-.27,15.55-.21,6.11-.58,9.76-3.31,10.17a24.32,24.32,0,0,1-2.9.37c-1.47,0-1.94.48-1.94,1,0,.68.58,1,2.32,1,5.32,0,9.41-.3,13.94-.3,10.17,0,17.43.58,30.8.58,3.58,0,4.27-.1,4.91-2.59a75.59,75.59,0,0,0,1.57-13c0-1.16-.1-2.12-.88-2.12-.58,0-1,.58-1.16,1.74-.86,4.43-2,6.55-4.74,7.61s-6.48,1.16-9,1.16c-10.74,0-12.11-1.54-12.17-8.29-.11-3.69,0-9.38,0-12.66v-6.68c0-.75.06-1.26.58-1.26,3,0,10.91.2,13.64.41,4.74.27,6.1,1.91,6.48,4.7.1.79.2,1.47.27,2.25s.41,1.54,1.09,1.54.86-.58.86-1.84c0-1.06,0-5.8.1-8,.3-3.75.78-7.23.78-8.22,0-.58,0-1.16-.58-1.16s-.78.41-1.36,1.27c-1.06,1.73-2.32,2-7.06,2.21-3.48.1-11.33.21-14,.1-.69,0-.75-.47-.75-1.16V340.93c0-.69.17-1,.75-1,2.9,0,11.32.2,14.53.51,4.63.37,5.9,1.64,6.37,3.85a10.84,10.84,0,0,1,.51,3.38c.07.89.48,1.36,1,1.36s.95-.58.95-1.36c.31-5,.52-8.39.79-10.33.31-2.8.48-3.79.48-4.27s-.11-.85-.58-.85a6.57,6.57,0,0,0-1.54.37,32,32,0,0,1-5.22.41l-27.32.07c-4.26,0-8.9-.27-14.42-.27-1.54,0-2.12.27-2.12.85s.48,1,1.74,1.06a28.14,28.14,0,0,1,3.17.31c2.43.58,3.31,2.21,3.52,5,.17,3.1.27,5,.27,20.77Zm66.23,0c0,9.38-.2,16.23-.58,20.29-.4,3.69-1.26,5-3.2,5.43-1,.17-1.95.27-2.9.37s-1.84.27-1.84,1,.58,1,1.94,1c3.28,0,13.85-.3,14.33-.3.85,0,11.12.3,17.8.3,1.47,0,1.94-.4,1.94-.88,0-.79-.37-1.06-1.84-1.06a39.12,39.12,0,0,1-4.26-.48c-2.9-.58-3.58-2.42-3.79-5.21-.47-4.06-.47-12.86-.47-20.4v-36.9c0-1.64.41-2.22,1.16-2.42a13.56,13.56,0,0,1,2.62-.21,12.4,12.4,0,0,1,9.21,4c3.48,3.78,4.74,9.1,4.74,15.75,0,8.7-3.89,15-11.9,15-1.78,0-2.15.41-2.15,1s.48.75,1.06.95a14.5,14.5,0,0,0,3,.27c13.37,0,27-8,27-22.88a17.65,17.65,0,0,0-5.22-12.86c-3.89-3.58-10.26-6.65-23.43-6.65-4.47,0-9.89.27-14.53.27-1.64,0-11.53-.27-15.69-.27-1.84,0-2.11.37-2.11.95s.48,1,1.74,1a23.15,23.15,0,0,1,3.68.41c2.32.48,3.21,2.22,3.38,4.91.3,3.1.3,10.16.3,20.77Zm88.31-15.28c-.31,0-.58-.17-.58-.65v-2c0-12.08,0-16,.27-19.14.2-2.79.68-5,3.31-5.59a28.52,28.52,0,0,1,3.37-.41c1.16,0,1.74-.48,1.74-1s-.3-.95-2-.95c-4.16,0-12.28.27-16,.27-2.21,0-9.68-.27-15.28-.27-1.09,0-2.14.2-2.14.85,0,.48.2,1,1.94,1.06a24.69,24.69,0,0,1,2.69.31c3.42.47,4.47,2.32,4.68,5.69.17,3.11.27,5.32.27,20.3v16.81c0,9.17-.2,15.93-.48,20-.2,2.89-1.05,5.42-3.37,5.73-1.27.17-1.85.27-3,.37s-1.67.38-1.67,1.06,1.09.88,2.15.88c3.11,0,13.27-.3,14.12-.3s12.38.3,17.91.3c1.46,0,1.94-.51,1.94-1,0-.69-.78-1-1.84-1s-2-.2-4.06-.48c-2.9-.47-3.78-2.32-4.06-5.11-.41-4.16-.47-8.12-.47-17.33V371a.51.51,0,0,1,.58-.58h30.18a.56.56,0,0,1,.58.58v7.81c0,9.18-.17,15.28-.58,19.34-.27,3.11-.85,4.91-3.17,5.43-.89.17-2.05.27-3,.37-1.27,0-1.85.38-1.85.85s.38,1.09,2.12,1.09c4.74,0,12.31-.3,13.85-.3,1.74,0,11.52.3,18.21.3,1.16,0,1.91-.3,1.91-1,0-.48-.48-1-1.64-1-.95-.1-2.9-.2-4.26-.37-2.9-.52-3.69-2.15-4-5.32-.48-4.06-.48-11.23-.48-20.4v-17c0-15,0-17.46.17-20.57s1.1-4.74,3.59-5.11c1.16-.21,1.77-.21,3.41-.41.95,0,1.43-.48,1.43-1s-.48-.95-1.91-.95c-4.16,0-15.31.27-16.2.27s-9.65-.27-15.28-.27c-1.47,0-1.94.37-1.94.95,0,.38.47,1,1.84,1,1.16.1,2.62.2,3.37.31,3.21.68,4,2.32,4.2,5.11.17,3.11.17,4.74.17,19.72v2c0,.48-.27.65-.58.65ZM359.75,407.2c25.38,0,40.69-17.19,40.69-39.7,0-19.62-15.42-36.05-40-36.05C332,331.45,319,350.31,319,369.61,319,386.73,331.2,407.2,359.75,407.2Zm2.9-6.18c-16.64,0-24.28-17.49-24.28-35.74,0-22.92,10-27.83,18.89-27.83,17.12,0,23.81,18.24,23.81,34.31C381.07,398.4,368.65,401,362.65,401ZM489,335c-.3-2.43-.88-3.79-1.84-3.79s-1.74,1-3.27,3.48l-26.54,46.79-27.69-46.28c-2.05-3-2.73-4-3.79-4s-1.63.89-2,3.79L415,394.44c-1,6.38-2,8.59-4.74,9.17-1.06.21-2.12.21-2.9.31-1.37,0-1.95.38-1.95,1,0,1,1.16,1,2.15,1,3.58,0,8.12-.3,11.12-.3s8.22.3,12.48.3c1.57,0,1.95-.3,1.95-1.09,0-.58-.31-.85-1.74-.85a27.9,27.9,0,0,1-3.58-.48c-2.42-.47-3.41-1.63-3.41-4.46a69.74,69.74,0,0,1,.41-7.71L427.62,364c1.84,3.27,6.11,11.18,7.74,14,3.69,6.18,9.59,17.19,13,22.62,2.69,4.23,3.27,5.21,4.33,5.21.79,0,1.36-.57,4-5.52l19.95-37.28,3.48,34.59c.38,4.33.27,4.91-1.26,5.49-.68.2-1.06.58-1.06,1s.38,1.05,2.22,1.16c11.05.57,18.86.57,26.91.57,1.53,0,2.32-.2,2.32-1s-.58-1-1.84-1a28.37,28.37,0,0,1-5.53-.89c-3.17-.95-4.16-3.37-4.91-9.65Zm65.15,72.17c25.37,0,40.69-17.19,40.69-39.7,0-19.62-15.42-36.05-40-36.05-28.45,0-41.44,18.86-41.44,38.16C513.4,386.73,525.61,407.2,554.16,407.2Zm2.9-6.18c-16.65,0-24.29-17.49-24.29-35.74,0-22.92,10-27.83,18.9-27.83,17.12,0,23.8,18.24,23.8,34.31C575.47,398.4,563.06,401,557.06,401Zm58.18-23.19c0,9.38-.17,16.23-.58,20.29-.37,3.69-1.26,5-3.17,5.43-1,.17-2,.27-2.9.37s-1.84.27-1.84,1,.58,1,1.91,1c3.31,0,13.85-.3,14.36-.3.85,0,11.12.3,17.8.3,1.43,0,1.94-.4,1.94-.88,0-.79-.41-1.06-1.84-1.06a39.12,39.12,0,0,1-4.26-.48c-2.9-.58-3.58-2.42-3.79-5.21-.47-4.06-.47-12.86-.47-20.4v-36.9c0-1.64.37-2.22,1.16-2.42a13.56,13.56,0,0,1,2.62-.21,12.36,12.36,0,0,1,9.18,4c3.48,3.78,4.74,9.1,4.74,15.75,0,8.7-3.86,15-11.91,15-1.74,0-2.11.41-2.11,1s.48.75,1.06.95a14.5,14.5,0,0,0,3,.27c13.37,0,27-8,27-22.88a17.65,17.65,0,0,0-5.22-12.86c-3.89-3.58-10.26-6.65-23.43-6.65-4.47,0-9.89.27-14.53.27-1.64,0-11.53-.27-15.69-.27-1.84,0-2.11.37-2.11.95s.48,1,1.74,1a23.15,23.15,0,0,1,3.68.41c2.32.48,3.17,2.22,3.38,4.91.27,3.1.27,10.16.27,20.77ZM723.39,407.2c6.21,0,12.79-.69,16.64-2.22,1.68-.58,2.36-1.37,2.53-2.8a131.67,131.67,0,0,0,2.15-14.7c0-.75-.1-1.74-.79-1.74s-1,.68-1.53,2.73a14.84,14.84,0,0,1-3.21,6.45c-3.78,4.26-8.73,4.94-16.64,4.94-16.27,0-27.12-13.33-27.12-33.25,0-10.34,2.6-19.31,8.53-24.42,3.75-3.31,8.49-4.64,14.22-4.64,9.38,0,16.17,2.49,19.55,6.07a14.36,14.36,0,0,1,3.68,9.48c.1,1.33.41,2,1.16,2s1.06-.86,1.16-2.32c.2-2.43.1-8.12.31-11.29s.47-5.63.47-6.38c0-.58,0-1.16-1-1.26a80.58,80.58,0,0,1-9.59-1.27,88.58,88.58,0,0,0-13.74-1.15c-14,0-23.74,2.89-32.06,9.95-9.79,8.22-12,20.2-12,26.78,0,10.33,2.73,20.29,12.21,28.41C698.43,405.08,710.81,407.2,723.39,407.2ZM782,360.81c0-15,.06-16.88.27-20s.78-5.32,4.16-5.79c1.47-.21,2.05-.21,2.9-.31,1.26-.07,1.74-.38,1.74-1.06,0-.48-.38-.85-2-.85-3.48,0-15.22.27-16.07.27-.68,0-10.57-.27-14.73-.27-1.84,0-2.63.27-2.63.85,0,.89.79,1.06,2,1.06a29.91,29.91,0,0,1,3.68.41c2.32.48,3.38,2.22,3.58,4.91.28,3.1.28,5.8.28,20.77v17c0,9.38-.18,16.13-.58,20.19-.28,2.8-.58,5.12-3.59,5.59a29.38,29.38,0,0,1-3,.31c-1,0-1.74.27-1.74,1s.69,1,2,1c3.2,0,14.22-.3,14.73-.3.85,0,11.22.3,17.6.3,1.47,0,1.84-.51,1.84-1s-.48-1-1.64-1-2.79-.2-4.16-.37c-3.3-.52-4-2.9-4.16-5.32-.41-4.06-.47-12.86-.47-20.4v-8.49c7.16,10.54,17.7,24,23,29.84,4.94,5.42,9.41,6.68,22.17,6.68h9.48c1.09,0,1.94-.1,1.94-.88s-.68-1-2-1.06a14.1,14.1,0,0,1-4.47-1.26c-1.74-.79-4.36-2.9-10.16-8.8-6.48-6.75-22.48-26.09-26.23-32,2.49-2.73,13.44-14,17.91-18.28,4.63-4.43,7.74-7.33,12.48-8.32,1.16-.27,2-.38,3.48-.58,1.26-.07,1.74-.48,1.74-1,0-.68-.38-.85-2-.85-1.26,0-8.32.17-13.94.17s-5.91-.17-10.27-.17c-1.06,0-1.54.38-1.54.85,0,.69.75.89,1.64,1,2.32.51,2.7,1.09,2.7,2.15,0,1.53-1.85,4.23-5,7.91-7.67,8.6-15.58,16.92-20.9,21.83Zm79.7-15.07c.17-7.71.68-10.34,4.44-10.82,1-.1,2.25-.2,3.2-.2,1.54-.07,2-.48,2-1,0-.75-.68-.95-2.36-.95-2.69,0-9.17.2-15.65.27-2.56,0-12-.27-15.42-.27-1.57,0-2,.2-2,.85s.58,1,1.74,1.06a20.94,20.94,0,0,1,2.42.2c4.36.58,4.06,2.8,4.36,12.08.38,19.61.11,43.48.11,56.24,0,2.9.37,4.43,1.63,4.43.69,0,1.74-.27,4.74-3.17,3.72-3.38,12.69-13.33,31.18-34.48,5.15-6,8.63-10.06,11.7-13.75-.28,12.08-.11,28.21-.58,38.58-.28,6.27-.69,8.39-4.23,8.76a20.54,20.54,0,0,1-2.53.31c-1.63.21-2.32.27-2.32,1s.75,1,2.32,1c3.58,0,8.12-.3,12.18-.3,2.32.1,16.16.3,20,.3,1.54,0,2.22-.1,2.22-1,0-.48-.38-.69-2.22-1-.68-.1-2.63-.2-3.1-.31-3.79-.75-4.27-1.91-4.54-8-.68-19-.41-38-.68-57.09,0-6.11-.48-7.06-1.67-7.06-1.54,0-3.58,1.15-10.13,8.49-5.15,5.8-9.21,10.43-15,17.12-4.16,4.84-14,16.44-22.07,25.51Zm92.16,0c.2-7.71.68-10.34,4.46-10.82,1-.1,2.22-.2,3.18-.2,1.56-.07,2-.48,2-1,0-.75-.68-.95-2.32-.95-2.73,0-9.21.2-15.69.27-2.52,0-12-.27-15.41-.27-1.54,0-2,.2-2,.85s.58,1,1.74,1.06a22.27,22.27,0,0,1,2.42.2c4.33.58,4.06,2.8,4.33,12.08.41,19.61.1,43.48.1,56.24,0,2.9.41,4.43,1.64,4.43.68,0,1.77-.27,4.77-3.17,3.69-3.38,12.69-13.33,31.18-34.48,5.11-6,8.59-10.06,11.69-13.75-.3,12.08-.1,28.21-.58,38.58-.3,6.27-.68,8.39-4.26,8.76a18.86,18.86,0,0,1-2.52.31c-1.64.21-2.32.27-2.32,1s.78,1,2.32,1c3.58,0,8.11-.3,12.17-.3,2.36.1,16.2.3,20,.3,1.56,0,2.21-.1,2.21-1,0-.48-.37-.69-2.21-1-.69-.1-2.6-.2-3.11-.31-3.75-.75-4.23-1.91-4.53-8-.69-19-.38-38-.69-57.09,0-6.11-.47-7.06-1.63-7.06-1.57,0-3.58,1.15-10.17,8.49-5.15,5.8-9.17,10.43-15,17.12-4.17,4.84-14,16.44-22,25.51Zm-3.28-29.85c0,1.84,1.43,3.58,3.38,5.12,4.84,3.48,10.43,3.89,14.12,3.89a31.2,31.2,0,0,0,25.24-13c1.09-1.54,1.09-2.7.47-2.7s-.85.07-1.91,1.16c-4,4.64-8.69,7.81-17.42,7.81-10.07,0-15.86-4.64-16.82-8.22-.2-.58-.41-.68-.78-.68-.79,0-4,2.9-5.43,4.64A4,4,0,0,0,950.57,315.89Z"/><path class="cls-4" d="M291.74,433.49a19.27,19.27,0,0,0-.27,3.17l0,3.48-.24.21h-1.3l-.24-.17a17.87,17.87,0,0,0-.24-3.14,1.44,1.44,0,0,0-1.33-1c-.27-.07-1.56-.07-3.92-.07h-2.79c0,.48,0,2.43,0,5.8v11.8a49.25,49.25,0,0,0,.27,6.48.87.87,0,0,0,.72.75,16.58,16.58,0,0,0,2.42.21l.24.2v1.4l-.24.24c-1.36-.1-3.51-.14-6.41-.14s-5.12,0-6.45.14l-.17-.2v-1.44l.21-.2a16.53,16.53,0,0,0,2.45-.21.87.87,0,0,0,.69-.75,44.27,44.27,0,0,0,.27-6.48v-11.8c0-3.44,0-5.39-.07-5.8h-3a19.62,19.62,0,0,0-4.36.24.74.74,0,0,0-.45.31,3.63,3.63,0,0,0-.3,1.33c-.1.72-.17,1.5-.21,2.25l-.2.21h-1.33l-.21-.21-.06-3.55a19.75,19.75,0,0,0-.24-3.1l.2-.2c.82.13,3.79.2,9,.2h8.43q7.15,0,9-.2Zm39.36,13.88c0,5.12-1.46,9.14-4.47,12s-6.89,4.26-11.93,4.26c-4.74,0-8.5-1.33-11.19-4s-4.09-6.38-4.09-11.15c0-6.69,2.56-11.29,7.67-13.85a18.72,18.72,0,0,1,8.6-1.77c4.84,0,8.63,1.26,11.32,3.82S331.1,442.84,331.1,447.37Zm-6.41,1.06c0-4-.82-7.2-2.42-9.58a8.17,8.17,0,0,0-7.13-3.55c-4.16,0-6.89,1.84-8.22,5.56a17.91,17.91,0,0,0-1.06,6.38c0,4.29.79,7.7,2.39,10.16a8.11,8.11,0,0,0,7.37,3.85q5.92,0,8-5.83A21.23,21.23,0,0,0,324.69,448.43ZM363,439.87a8.26,8.26,0,0,1-2.94,6.72,10.13,10.13,0,0,1-6.61,2.39,12.9,12.9,0,0,1-2.53-.28,8.22,8.22,0,0,0-.75-1.5l.45-.48a4.75,4.75,0,0,0,1.6.31,4.31,4.31,0,0,0,3.41-1.5,6.37,6.37,0,0,0,1.26-4.16c0-3.89-1.74-5.83-5.25-5.83a24.34,24.34,0,0,0-2.49.27,49.4,49.4,0,0,0-.2,6.79v11a49.25,49.25,0,0,0,.27,6.48.87.87,0,0,0,.71.75c.14,0,1.1.11,2.87.21l.24.24v1.36l-.24.24c-1.88-.1-4.16-.14-6.82-.14-3,0-5.15,0-6.45.14l-.2-.2v-1.4l.24-.24a16.76,16.76,0,0,0,2.42-.21.85.85,0,0,0,.71-.75,48.62,48.62,0,0,0,.28-6.48v-11a47.73,47.73,0,0,0-.28-6.45.91.91,0,0,0-.71-.78q-.31-.06-2.46-.21l-.2-.2v-1.4l.24-.21c1.36.11,3.44.14,6.27.14,1.16,0,2.87,0,5.05-.07s3.48-.07,3.82-.07c3.79,0,6.28,1,7.4,2.9A6.82,6.82,0,0,1,363,439.87Zm29.94-6.41a52.58,52.58,0,0,0-.27,6.75l-.24.2h-1.33l-.2-.2c0-.07,0-.38-.07-.82,0-1-.07-1.6-.1-1.74a2.44,2.44,0,0,0-.58-1.57c-.41-.3-1.74-.47-4-.47h-6.21v18a48.62,48.62,0,0,0,.28,6.48.86.86,0,0,0,.71.75,16.94,16.94,0,0,0,2.46.21l.2.2v1.44l-.17.2-1.6-.07c-2.22,0-3.82-.07-4.84-.07-1.37,0-3.55,0-6.45.14l-.2-.2v-1.44l.2-.2a16.94,16.94,0,0,0,2.46-.21.86.86,0,0,0,.71-.75,48.62,48.62,0,0,0,.28-6.48v-11a47.73,47.73,0,0,0-.28-6.45.93.93,0,0,0-.71-.78q-.32-.06-2.46-.21l-.2-.2v-1.4l.2-.21,5.08.14c9,0,14.7-.07,17.19-.24Zm39.4,13.91q0,7.68-4.51,12c-2.9,2.83-6.89,4.26-11.9,4.26-4.77,0-8.49-1.33-11.22-4s-4.06-6.38-4.06-11.15c0-6.69,2.56-11.29,7.67-13.85a18.56,18.56,0,0,1,8.57-1.77c4.84,0,8.62,1.26,11.32,3.82S432.3,442.84,432.3,447.37Zm-6.45,1.06c0-4-.79-7.2-2.42-9.58a8.12,8.12,0,0,0-7.13-3.55c-4.13,0-6.86,1.84-8.22,5.56a18.84,18.84,0,0,0-1.06,6.38c0,4.29.82,7.7,2.39,10.16a8.11,8.11,0,0,0,7.37,3.85q5.93,0,8-5.83A20.47,20.47,0,0,0,425.85,448.43Zm39.08,4.91c0,3.51-1.67,6.21-5,8.12a12.94,12.94,0,0,1-6.45,1.43c-.85,0-1.53,0-2.08,0l-5-.11c-1.77,0-3.17,0-4.13.14l-.23-.24v-.58l.13-.24a6.1,6.1,0,0,0,1.64-1.22,8.92,8.92,0,0,0,.24-2.77l.07-4.67V442.6a41.61,41.61,0,0,0-.28-6.45.93.93,0,0,0-.71-.78c-.21,0-1-.11-2.42-.21l-.21-.2v-1.4l.21-.21c1.22.11,3.34.14,6.37.14,1.91,0,3.65,0,5.19-.1,1.23-.07,2.28-.1,3.1-.1,3.89,0,6.45.88,7.64,2.66a5.44,5.44,0,0,1,1,3.2,6.25,6.25,0,0,1-2.29,5,8.4,8.4,0,0,1-2.32,1.4,22.66,22.66,0,0,1-3,.88Q464.94,446.74,464.93,453.34Zm-7.26-13.16q0-4.6-4.81-4.61a20.17,20.17,0,0,0-2.69.17c0,1.47-.07,2.8-.07,4v5.76c.31,0,.95,0,1.91,0,2.52,0,4.16-.81,5-2.42A6.8,6.8,0,0,0,457.67,440.18Zm.89,13.81q0-6.24-6.59-6.24c-.54,0-1.16,0-1.87.07v9.65c0,1,0,2,.07,3a13.42,13.42,0,0,0,2.42.17,5.62,5.62,0,0,0,4.5-1.84A7.2,7.2,0,0,0,458.56,454ZM511,462.65l-.2.24c-1.37-.1-3.55-.14-6.45-.14s-5,0-6.41.14l-.21-.24v-1.4l.21-.2a16.94,16.94,0,0,0,2.46-.21.87.87,0,0,0,.71-.75,49.25,49.25,0,0,0,.27-6.48v-11a48.36,48.36,0,0,0-.27-6.45.94.94,0,0,0-.71-.78q-.32-.06-2.46-.21l-.21-.2v-1.4l.21-.21c1.36.11,3.48.14,6.45.14s5.08,0,6.41-.14l.2.21V435l-.2.2q-2.15.15-2.46.21a.91.91,0,0,0-.71.78,47.73,47.73,0,0,0-.28,6.45v11a48.62,48.62,0,0,0,.28,6.48.85.85,0,0,0,.71.75,16.94,16.94,0,0,0,2.46.21l.2.2Zm-12.51-8.87a7.89,7.89,0,0,1-3.72,7,14.15,14.15,0,0,1-8,2.11c-.65,0-1.91,0-3.82-.1-1.12-.07-2.08-.07-2.86-.07-.55,0-2.63,0-6.28.14l-.2-.17v-1.47l.24-.2a15.82,15.82,0,0,0,2.21-.21.87.87,0,0,0,.72-.75,49.25,49.25,0,0,0,.27-6.48v-11a48.36,48.36,0,0,0-.27-6.45.94.94,0,0,0-.72-.78c-.24,0-1-.14-2.25-.21l-.2-.2v-1.4l.2-.21c1.2.11,3.24.14,6.18.14,1.5,0,3.68,0,6.48-.14l.2.21V435l-.2.2q-2.16.15-2.46.21a.94.94,0,0,0-.72.78,48.36,48.36,0,0,0-.27,6.45V446a57,57,0,0,1,8.19.41Q498.51,447.72,498.5,453.78Zm-6.31.41a6,6,0,0,0-1.74-4.6,6.48,6.48,0,0,0-4.1-1.5c-.71,0-1.8,0-3.34,0V460.5a15,15,0,0,0,2.39.17,12.25,12.25,0,0,0,3.48-.37,4.74,4.74,0,0,0,2.49-2.25A8.06,8.06,0,0,0,492.19,454.19Zm58.69,8.53-.24.17c-2.86-.1-5-.14-6.51-.14-3,0-5.08,0-6.38.14l-.17-.2v-1.44l.21-.2a16.53,16.53,0,0,0,2.45-.21.87.87,0,0,0,.72-.75,49.25,49.25,0,0,0,.27-6.48V438.27l-13.06,24.62c-1.43-.07-2.77-.1-4-.1-.79,0-2.59,0-5.39.1l-.21-.2v-1.44l.21-.2a16.4,16.4,0,0,0,2.42-.21.87.87,0,0,0,.72-.75,49.25,49.25,0,0,0,.27-6.48v-11a48.36,48.36,0,0,0-.27-6.45.94.94,0,0,0-.72-.78c-.2,0-1-.11-2.42-.21l-.21-.2v-1.4l.17-.21c2.15.11,4.3.14,6.45.14,1.4,0,3.55,0,6.41-.14l.21.21V435l-.21.2c-1.43.1-2.25.17-2.45.21a.94.94,0,0,0-.72.78,48.36,48.36,0,0,0-.27,6.45v15.69l13.06-24.94c1.81.11,3.07.14,3.72.14.48,0,2.39,0,5.69-.14l.24.21V435l-.24.2c-1.43.1-2.25.17-2.45.21a.94.94,0,0,0-.72.78,48.36,48.36,0,0,0-.27,6.45v11a49.25,49.25,0,0,0,.27,6.48.87.87,0,0,0,.72.75,16.53,16.53,0,0,0,2.45.21l.24.2Zm-10.5-38.51.85,1.54a8.05,8.05,0,0,1-7,3.92,8.53,8.53,0,0,1-2.11-.24,4.83,4.83,0,0,1-1.91-.78,10.48,10.48,0,0,1-2.12-2V426l1.71-1.64.61-.07a5.66,5.66,0,0,0,5.19,3,5.21,5.21,0,0,0,2.28-.45,3.43,3.43,0,0,0,1.47-1.12,2.73,2.73,0,0,0,.44-1.43Zm72.54,36.87c-.51,2.05-1.19,5.39-2,10.1l-.24.13h-1.3l-.2-.13L609,467c-.07-1.91-.27-3.07-.68-3.48a1.54,1.54,0,0,0-.85-.47,22,22,0,0,0-3.62-.21l-3.58-.07h-5.83c-1.3,0-4.2,0-8.63.07l-7,.07-.21-.17v-1.47l.21-.2a16.53,16.53,0,0,0,2.45-.21.92.92,0,0,0,.72-.75,51.26,51.26,0,0,0,.24-6.48v-11a50.36,50.36,0,0,0-.24-6.45,1,1,0,0,0-.72-.78c-.2,0-1-.11-2.45-.21l-.21-.2v-1.4l.21-.21c1.56.11,3.68.14,6.44.14s4.88,0,6.45-.14l.17.21V435l-.21.2c-1.43.1-2.25.17-2.45.21a.94.94,0,0,0-.72.78,48.36,48.36,0,0,0-.27,6.45v11.18c0,2.83.07,5.12.2,6.83h12.66c.13-1.71.17-4,.17-6.83V442.6a50.36,50.36,0,0,0-.24-6.45,1,1,0,0,0-.72-.78c-.2,0-1-.11-2.45-.21l-.24-.2v-1.4l.2-.21c1.16.11,3.21.14,6.18.14s5.18,0,6.71-.14l.21.21V435l-.21.2c-1.43.1-2.25.17-2.45.21a.94.94,0,0,0-.72.78,48.36,48.36,0,0,0-.27,6.45v11.12a63.84,63.84,0,0,0,.17,6.41c.07.2.17.34.27.37a5.2,5.2,0,0,0,1.67.14c1.23,0,2.36-.07,3.41-.17Zm30.53-5.28a45.39,45.39,0,0,0-.45,6.85l-.24.24-15.14-.14c-2.56,0-4.33,0-5.35.14l-.24-.24v-.58l.1-.24a6.8,6.8,0,0,0,1.67-1.22,10.33,10.33,0,0,0,.24-2.77l.07-4.67V442.6a48.36,48.36,0,0,0-.27-6.45.94.94,0,0,0-.72-.78c-.21,0-1-.11-2.42-.21l-.21-.2v-1.4l.21-.21c1.4.11,3.54.14,6.48.14,2.62,0,7.6,0,14.94-.14l.23.18-.27,2.31c-.1.72-.17,1.37-.2,1.88l-.14,1.94-.2.21h-1.23l-.21-.21c0-1.87-.1-3-.34-3.2s-.88-.38-2.21-.48-2.53-.17-3.55-.17c-1.23,0-2.46.07-3.68.14-.14,1.46-.24,3.51-.24,6.07v4.33c1.12.07,2,.1,2.69.1l2.73,0c1.3,0,2-.11,2.18-.31a7,7,0,0,0,.41-2.8l.21-.24h1.29l.24.24c-.07,1.54-.1,3-.1,4.27s0,2.93.1,4.6l-.24.17h-1.4l-.2-.2a6.8,6.8,0,0,0-.31-2.83c-.24-.31-.92-.52-2-.62-.86-.07-1.74-.1-2.7-.1s-2,0-2.86.1v6.35c0,1.84,0,3.61.13,5.32H633c4.06,0,6.55-.17,7.47-.48a1.22,1.22,0,0,0,.34-.24,3.27,3.27,0,0,0,.38-1.26l.51-2.59.21-.21h1.26Zm40.75,6.85-.24.24c-1.36-.1-3.51-.14-6.41-.14s-5.11,0-6.41.14l-.24-.2v-1.44l.24-.2a16.94,16.94,0,0,0,2.46-.21.89.89,0,0,0,.71-.75,51.26,51.26,0,0,0,.24-6.48v-5q-1-.11-6.75-.1c-3.51,0-5.8,0-6.93.1v5a48.62,48.62,0,0,0,.28,6.48.86.86,0,0,0,.71.75,16.81,16.81,0,0,0,2.43.21l.23.2v1.4l-.2.24c-1.4-.1-3.55-.14-6.41-.14s-5.15,0-6.45.14l-.2-.2v-1.44l.2-.2a16.94,16.94,0,0,0,2.46-.21.89.89,0,0,0,.71-.75,51.26,51.26,0,0,0,.24-6.48v-11a50.36,50.36,0,0,0-.24-6.45,1,1,0,0,0-.71-.78q-.31-.06-2.46-.21l-.2-.2v-1.4l.2-.21c1.33.11,3.48.14,6.45.14s5.15,0,6.41-.14l.2.21V435l-.23.17c-1.4.1-2.22.17-2.43.21a.93.93,0,0,0-.71.78,47.73,47.73,0,0,0-.28,6.45V446c1.47.07,3.52.1,6.11.1q6.09,0,7.57-.1V442.6a50.36,50.36,0,0,0-.24-6.45,1,1,0,0,0-.71-.78q-.32-.06-2.46-.21l-.24-.2v-1.4l.24-.21c1.33.11,3.48.14,6.41.14s5.19,0,6.41-.14l.24.21V435l-.2.17c-1.47.1-2.25.17-2.46.21a.91.91,0,0,0-.71.78,47.73,47.73,0,0,0-.28,6.45v11a48.62,48.62,0,0,0,.28,6.48.85.85,0,0,0,.71.75,16.76,16.76,0,0,0,2.42.21l.24.2Zm33.87-29.16a19.27,19.27,0,0,0-.27,3.17l-.07,3.48-.21.21h-1.29l-.24-.17a20.35,20.35,0,0,0-.24-3.14,1.44,1.44,0,0,0-1.33-1c-.27-.07-1.57-.07-3.92-.07h-2.8c0,.48,0,2.43,0,5.8v11.8a49.25,49.25,0,0,0,.27,6.48.87.87,0,0,0,.72.75,16.4,16.4,0,0,0,2.42.21l.2.2v1.4l-.2.24c-1.37-.1-3.51-.14-6.41-.14s-5.12,0-6.45.14l-.17-.2v-1.44l.2-.2a15.42,15.42,0,0,0,2.43-.21.86.86,0,0,0,.71-.75,42.34,42.34,0,0,0,.28-6.48v-11.8c0-3.44,0-5.39-.07-5.8h-3a19.74,19.74,0,0,0-4.37.24.75.75,0,0,0-.44.31,3.38,3.38,0,0,0-.31,1.33c-.1.72-.17,1.5-.2,2.25l-.21.21h-1.33l-.2-.21-.07-3.55a19.75,19.75,0,0,0-.24-3.1l.21-.2c.82.13,3.78.2,9,.2h8.42q7.17,0,9-.2Zm30.73,6.38a8.28,8.28,0,0,1-2.93,6.72,10.15,10.15,0,0,1-6.62,2.39,12.71,12.71,0,0,1-2.52-.28,9.79,9.79,0,0,0-.75-1.5l.44-.48a4.79,4.79,0,0,0,1.6.31,4.21,4.21,0,0,0,3.38-1.5,6.22,6.22,0,0,0,1.3-4.16c0-3.89-1.78-5.83-5.26-5.83a24.34,24.34,0,0,0-2.49.27,51.41,51.41,0,0,0-.2,6.79v11a49.25,49.25,0,0,0,.27,6.48.87.87,0,0,0,.72.75c.13,0,1.09.11,2.86.21l.21.24v1.36l-.21.24c-1.87-.1-4.16-.14-6.82-.14-3,0-5.15,0-6.44.14l-.21-.2v-1.4l.24-.24a16.4,16.4,0,0,0,2.42-.21.92.92,0,0,0,.72-.75,49.25,49.25,0,0,0,.27-6.48v-11a48.36,48.36,0,0,0-.27-6.45,1,1,0,0,0-.72-.78c-.2,0-1-.11-2.45-.21l-.21-.2v-1.4l.24-.21c1.36.11,3.44.14,6.27.14,1.16,0,2.87,0,5.05-.07s3.48-.07,3.79-.07c3.82,0,6.31,1,7.43,2.9A7.11,7.11,0,0,1,748.8,439.87Z"/></svg>