<svg id="Слой_1" data-name="Слой 1" xmlns="http://www.w3.org/2000/svg" xmlns:xlink="http://www.w3.org/1999/xlink" viewBox="0 0 872.01 295.3"><defs><style>.cls-1,.cls-2{fill:#202121;}.cls-1{isolation:isolate;opacity:0.09;}.cls-3{fill:url(#Безымянный_градиент_98);}</style><linearGradient id="Безымянный_градиент_98" x1="81.26" y1="124.36" x2="744.13" y2="124.36" gradientUnits="userSpaceOnUse"><stop offset="0" stop-color="#0fa59b"/><stop offset="0.85" stop-color="#d0007b"/></linearGradient></defs><rect class="cls-1" x="73.94" y="61.3" width="774.78" height="227.55" rx="87.86"/><rect class="cls-2" x="25.3" y="15.52" width="786.09" height="243.71" rx="87.86"/><path class="cls-3" d="M298.1,164.9c0,19.08-15,31.41-38.21,31.41-10.29,0-20.4-2.48-27.73-6.79a4,4,0,0,1-1.77-4.7l4.16-12.66a4,4,0,0,1,2.47-2.53,4,4,0,0,1,3.51.43,39.45,39.45,0,0,0,19.74,6c8.75,0,13.76-3.5,13.76-9.61,0-5-2.29-8.6-14.39-13.07-22.15-7.89-26.81-20.47-26.81-29.64,0-17.87,15-30.84,35.57-30.84,8.77,0,17.94,2.33,24.53,6.23a4,4,0,0,1,1.74,4.74l-4.16,12.1a4,4,0,0,1-5.92,2.08A31.69,31.69,0,0,0,268,113.34c-6.87,0-11.31,3.32-11.31,8.47,0,4.8,3.18,7.33,14.81,11.76C289.9,140.57,298.1,150.23,298.1,164.9Zm-82.45-55c7.55,11.44,8.36,24.83,8.36,30a60.86,60.86,0,0,1-.5,7.43l-.09.77a4,4,0,0,1-4,3.55h-60c2.28,21.42,19.7,23.75,27.13,23.75,11.76,0,18.37-2.12,23.76-4.4a3.94,3.94,0,0,1,3.37.11,4,4,0,0,1,2.09,2.64l2.83,11.91a4,4,0,0,1-2.24,4.57c-6.09,2.75-16.59,6-32.08,6-29.75,0-49-19.68-49-50.12,0-31.4,19.29-53.33,46.9-53.33C196.74,92.86,208.3,98.75,215.65,109.9Zm-15.88,21.9c-.39-3.67-1.68-9.91-5.88-14.18-3.16-3.22-7.53-4.85-13-4.85-4.81,0-16.36,1.87-20.71,19ZM132.15,93.55a21.85,21.85,0,0,0-5.69-.69A29.45,29.45,0,0,0,104,103.71l-.15-4.9a4,4,0,0,0-4-3.87H85.26a4,4,0,0,0-4,4.27c.51,7.76.74,16.48.74,28.27v62.93a4,4,0,0,0,4,4h16.45a4,4,0,0,0,4-4V141.65a43,43,0,0,1,.69-7c2-11.15,9.06-18.07,18.36-18.07a21.26,21.26,0,0,1,4.81.47,4,4,0,0,0,4.86-3.9V97.43A4,4,0,0,0,132.15,93.55Zm253,16.35c7.55,11.44,8.36,24.83,8.36,30a61.18,61.18,0,0,1-.5,7.43l-.09.77a4,4,0,0,1-4,3.55H329c2.28,21.42,19.7,23.75,27.13,23.75,11.76,0,18.37-2.12,23.76-4.4a4,4,0,0,1,5.46,2.75l2.83,11.91a4,4,0,0,1-2.24,4.57c-6.09,2.75-16.6,6-32.08,6-29.75,0-49-19.68-49-50.12,0-31.4,19.29-53.33,46.9-53.33C366.27,92.86,377.83,98.75,385.18,109.9ZM369.3,131.8c-.39-3.68-1.68-9.91-5.88-14.18-3.16-3.22-7.53-4.85-13-4.85-4.81,0-16.36,1.87-20.71,19Zm374.82,58.25a4,4,0,0,1-4,4.36H725.2a4,4,0,0,1-4-3.81l-.25-5.1c-7.11,7-17.28,11-28.08,11-25,0-43.12-21.23-43.12-50.49-.1-16.39,5.19-30.8,14.89-40.56a42.21,42.21,0,0,1,30.12-12.58c9.27,0,17.73,2.74,24,7.73V56.23a4,4,0,0,1,4-4h16.64a4,4,0,0,1,4,4V166.79C743.38,172.44,743.47,183,744.12,190.05Zm-25.38-53.88a26,26,0,0,0-.61-5.94l0-.15c-1.87-8.05-8.81-16.18-20.1-16.18-14.22,0-23.41,12.31-23.41,31.34,0,13.77,6,29.83,23,29.83,9.82,0,18.06-6.74,20.49-16.78h0a24.76,24.76,0,0,0,.64-6.23ZM635.41,109.9c7.55,11.44,8.37,24.83,8.37,30a60.8,60.8,0,0,1-.51,7.43l-.09.77a4,4,0,0,1-4,3.55h-60c2.28,21.42,19.7,23.75,27.13,23.75,11.76,0,18.37-2.12,23.77-4.4a4,4,0,0,1,5.45,2.75l2.83,11.91a4,4,0,0,1-2.24,4.57c-6.09,2.75-16.59,6-32.08,6-29.75,0-49-19.68-49-50.12,0-31.4,19.29-53.33,46.91-53.33C616.5,92.86,628.06,98.75,635.41,109.9Zm-15.88,21.9c-.39-3.68-1.68-9.91-5.88-14.18-3.16-3.22-7.53-4.85-13-4.85-4.81,0-16.36,1.87-20.71,19ZM555.2,96.69a4,4,0,0,0-3.31-1.75H534.5a4,4,0,0,0-3.78,2.7L513,149c-1.73,4.78-3,8.47-4.13,11.72-1.15-3.6-2.47-7.44-4-11.69l-18-51.41a4,4,0,0,0-3.77-2.68H465.33a4,4,0,0,0-3.74,5.42l34.78,91.48a4,4,0,0,0,3.74,2.57H516a4,4,0,0,0,3.73-2.53l35.91-91.48A4,4,0,0,0,555.2,96.69Zm-98.92-3.14a21.8,21.8,0,0,0-5.69-.69,29.47,29.47,0,0,0-22.5,10.85l-.15-4.9a4,4,0,0,0-4-3.87H409.39a4,4,0,0,0-4,4.27c.51,7.76.75,16.48.75,28.27v62.93a4,4,0,0,0,4,4h16.44a4,4,0,0,0,4-4V141.65a43,43,0,0,1,.69-7c2-11.15,9.06-18.07,18.37-18.07a21.22,21.22,0,0,1,4.8.47,4,4,0,0,0,3.37-.78,4,4,0,0,0,1.49-3.12V97.43A4,4,0,0,0,456.28,93.55Z"/></svg>