<svg id="Слой_1" data-name="Слой 1" xmlns="http://www.w3.org/2000/svg" xmlns:xlink="http://www.w3.org/1999/xlink" viewBox="0 0 373.16 273.6"><defs><style>.cls-1{fill:url(#Безымянный_градиент_25);}</style><linearGradient id="Безымянный_градиент_25" x1="43.36" y1="136.8" x2="330.01" y2="136.8" gradientUnits="userSpaceOnUse"><stop offset="0" stop-color="#42578a"/><stop offset="0.04" stop-color="#3e5e8b"/><stop offset="0.33" stop-color="#238694"/><stop offset="0.6" stop-color="#10a49b"/><stop offset="0.83" stop-color="#04b69f"/><stop offset="0.99" stop-color="#00bca0"/></linearGradient></defs><path class="cls-1" d="M249,20.75H124.4a81,81,0,0,0-81,81.05v70a81,81,0,0,0,81,81H249a81.05,81.05,0,0,0,81-81v-70A81.05,81.05,0,0,0,249,20.75Zm3.85,128.38-45.57,26.31-45.57,26.31a14.24,14.24,0,0,1-21.36-12.33V84.18a14.24,14.24,0,0,1,21.36-12.33l45.57,26.31,45.57,26.31A14.23,14.23,0,0,1,252.81,149.13Z"/></svg>