<svg width="40" height="111" viewBox="0 0 40 111" fill="none" xmlns="http://www.w3.org/2000/svg">
<path d="M12.9984 105.032C24.5417 104.41 33.6955 95.1633 33.7037 83.877L33.7632 2.1407C33.7637 1.36961 33.1108 0.738233 32.3123 0.737653C31.5137 0.737072 30.8599 1.36749 30.8593 2.13859L30.7999 83.8049C30.7929 93.5489 22.9466 101.534 13.0005 102.158C12.3491 99.3537 9.73722 97.2489 6.61554 97.2466C2.98576 97.244 0.00718452 100.116 0.00463642 103.621C0.00208802 107.126 2.97648 110.002 6.60627 110.005C9.72794 110.007 12.343 107.836 12.9984 105.032ZM2.9085 103.623C2.90993 101.66 4.5808 100.049 6.61351 100.05C8.64621 100.052 10.3148 101.665 10.3134 103.628C10.3119 105.591 8.64101 107.202 6.60831 107.201C4.5756 107.199 2.90707 105.586 2.9085 103.623Z" fill="url(#paint0_linear_13_22)"/>
<g clip-path="url(#clip0_13_22)">
<path d="M24.3604 51.5695C24.3633 47.6059 27.709 44.4096 31.8519 44.4126C35.9948 44.4156 39.3359 47.6168 39.333 51.5804C39.3302 55.544 35.9844 58.7403 31.8415 58.7373C27.6986 58.7343 24.3575 55.5331 24.3604 51.5695Z" fill="url(#paint1_linear_13_22)"/>
<path d="M31.9761 55.3584L35.3922 49.6828L28.5682 49.6778L31.9761 55.3584Z" fill="white"/>
</g>
<path d="M24.8086 7.18036C24.8114 3.21671 28.1572 0.0204148 32.3001 0.0234268C36.443 0.0264389 39.7841 3.2276 39.7812 7.19125C39.7783 11.1549 36.4326 14.3512 32.2897 14.3482C28.1468 14.3452 24.8057 11.144 24.8086 7.18036Z" fill="url(#paint2_linear_13_22)"/>
<path d="M32.328 9.41164C31.1807 9.4108 30.2491 8.53337 30.2499 7.45429C30.2507 6.37522 31.1836 5.43171 32.3309 5.43254C33.4782 5.43337 34.4098 6.3108 34.409 7.38988C34.4082 8.46895 33.4753 9.41247 32.328 9.41164Z" fill="white"/>
<defs>
<linearGradient id="paint0_linear_13_22" x1="16.9153" y1="0.736974" x2="16.8358" y2="110.001" gradientUnits="userSpaceOnUse">
<stop stop-color="#D82B56"/>
<stop offset="1" stop-color="#920C2D"/>
</linearGradient>
<linearGradient id="paint1_linear_13_22" x1="31.849" y1="44.4133" x2="31.8386" y2="58.7571" gradientUnits="userSpaceOnUse">
<stop stop-color="#D82B56"/>
<stop offset="1" stop-color="#920C2D"/>
</linearGradient>
<linearGradient id="paint2_linear_13_22" x1="32.2972" y1="0.00659664" x2="32.2868" y2="14.3504" gradientUnits="userSpaceOnUse">
<stop stop-color="#D82B56"/>
<stop offset="1" stop-color="#920C2D"/>
</linearGradient>
<clipPath id="clip0_13_22">
<rect width="15.1206" height="15.3886" fill="white" transform="translate(39.5554 44.1151) rotate(90.0417)"/>
</clipPath>
</defs>
</svg>
