<svg width="41" height="111" viewBox="0 0 41 111" fill="none" xmlns="http://www.w3.org/2000/svg">
<path d="M13.7802 105.026C25.3229 104.394 34.4689 95.1397 34.4675 83.8533L34.4571 2.11699C34.457 1.34589 33.8035 0.71508 33.005 0.715181C32.2064 0.715283 31.5531 1.34626 31.5532 2.11736L31.5636 83.7837C31.5648 93.5277 23.7255 101.52 13.7798 102.152C13.1261 99.3483 10.5124 97.2457 7.39069 97.2461C3.7609 97.2465 0.784787 100.121 0.785234 103.626C0.78568 107.131 3.76253 110.005 7.39232 110.004C10.514 110.004 13.1271 107.83 13.7802 105.026ZM3.6891 103.625C3.68885 101.663 5.35834 100.05 7.39105 100.05C9.42375 100.049 11.0937 101.662 11.094 103.624C11.0942 105.587 9.42466 107.2 7.39196 107.2C5.35925 107.2 3.68935 105.588 3.6891 103.625Z" fill="url(#paint0_linear_6_118)"/>
<g clip-path="url(#clip0_6_118)">
<path d="M25.0965 51.5538C25.096 47.5902 28.439 44.391 32.5819 44.3905C36.7248 44.39 40.0686 47.5883 40.0691 51.5519C40.0697 55.5155 36.7267 58.7147 32.5837 58.7152C28.4408 58.7158 25.097 55.5174 25.0965 51.5538Z" fill="url(#paint1_linear_6_118)"/>
<path d="M32.7154 55.3362L36.1267 49.6577L29.3027 49.6585L32.7154 55.3362Z" fill="white"/>
</g>
<path d="M25.5068 7.16428C25.5063 3.20064 28.8493 0.00148046 32.9922 0.000953049C37.1351 0.000425633 40.4789 3.19873 40.4794 7.16238C40.4799 11.126 37.1369 14.3252 32.994 14.3257C28.8511 14.3262 25.5073 11.1279 25.5068 7.16428Z" fill="url(#paint2_linear_6_118)"/>
<path d="M33.0281 9.38912C31.8808 9.38927 30.9485 8.51263 30.9483 7.43355C30.9482 6.35448 31.8803 5.41017 33.0276 5.41002C34.1749 5.40988 35.1073 6.28651 35.1074 7.36558C35.1075 8.44466 34.1754 9.38898 33.0281 9.38912Z" fill="white"/>
<defs>
<linearGradient id="paint0_linear_6_118" x1="17.608" y1="0.727656" x2="17.6219" y2="109.992" gradientUnits="userSpaceOnUse">
<stop stop-color="#FF9C6A"/>
<stop offset="1" stop-color="#FF696D"/>
</linearGradient>
<linearGradient id="paint1_linear_6_118" x1="32.579" y1="44.3912" x2="32.5808" y2="58.735" gradientUnits="userSpaceOnUse">
<stop stop-color="#FF9C6A"/>
<stop offset="1" stop-color="#FF696D"/>
</linearGradient>
<linearGradient id="paint2_linear_6_118" x1="32.9893" y1="-0.0158746" x2="32.9911" y2="14.328" gradientUnits="userSpaceOnUse">
<stop stop-color="#FF9C6A"/>
<stop offset="1" stop-color="#FF696D"/>
</linearGradient>
<clipPath id="clip0_6_118">
<rect width="15.1206" height="15.3886" fill="white" transform="translate(40.2851 44.0864) rotate(89.9927)"/>
</clipPath>
</defs>
</svg>
