<svg width="40" height="111" viewBox="0 0 40 111" fill="none" xmlns="http://www.w3.org/2000/svg">
<path d="M13.0352 105.032C24.5785 104.41 33.7323 95.1633 33.7406 83.877L33.8 2.1407C33.8005 1.36961 33.1476 0.738233 32.3491 0.737653C31.5505 0.737072 30.8967 1.36749 30.8961 2.13859L30.8367 83.8049C30.8297 93.5489 22.9834 101.534 13.0373 102.158C12.3859 99.3537 9.77402 97.2489 6.65235 97.2466C3.02256 97.244 0.0439887 100.116 0.0414406 103.621C0.0388922 107.126 3.01328 110.002 6.64307 110.005C9.76475 110.007 12.3798 107.836 13.0352 105.032ZM2.9453 103.623C2.94673 101.66 4.61761 100.049 6.65031 100.05C8.68301 100.052 10.3516 101.665 10.3502 103.628C10.3487 105.591 8.67782 107.202 6.64511 107.201C4.61241 107.199 2.94388 105.586 2.9453 103.623Z" fill="url(#paint0_linear_6_109)"/>
<g clip-path="url(#clip0_6_109)">
<path d="M24.3972 51.5695C24.4001 47.6059 27.7458 44.4096 31.8887 44.4126C36.0317 44.4156 39.3727 47.6168 39.3699 51.5804C39.367 55.544 36.0212 58.7403 31.8783 58.7373C27.7354 58.7343 24.3943 55.5331 24.3972 51.5695Z" fill="url(#paint1_linear_6_109)"/>
<path d="M32.0129 55.3584L35.429 49.6828L28.605 49.6778L32.0129 55.3584Z" fill="white"/>
</g>
<path d="M24.8454 7.18036C24.8483 3.21671 28.194 0.0204148 32.3369 0.0234268C36.4798 0.0264389 39.8209 3.2276 39.818 7.19125C39.8152 11.1549 36.4694 14.3512 32.3265 14.3482C28.1836 14.3452 24.8425 11.144 24.8454 7.18036Z" fill="url(#paint2_linear_6_109)"/>
<path d="M32.3648 9.41164C31.2175 9.4108 30.2859 8.53337 30.2867 7.45429C30.2875 6.37522 31.2204 5.43171 32.3677 5.43254C33.515 5.43337 34.4466 6.3108 34.4458 7.38988C34.445 8.46895 33.5121 9.41247 32.3648 9.41164Z" fill="white"/>
<defs>
<linearGradient id="paint0_linear_6_109" x1="16.9521" y1="0.736974" x2="16.8726" y2="110.001" gradientUnits="userSpaceOnUse">
<stop stop-color="#00B3B1"/>
<stop offset="1" stop-color="#00A5FB"/>
</linearGradient>
<linearGradient id="paint1_linear_6_109" x1="31.8858" y1="44.4133" x2="31.8754" y2="58.7571" gradientUnits="userSpaceOnUse">
<stop stop-color="#00B3B1"/>
<stop offset="1" stop-color="#00A5FB"/>
</linearGradient>
<linearGradient id="paint2_linear_6_109" x1="32.334" y1="0.00659664" x2="32.3236" y2="14.3504" gradientUnits="userSpaceOnUse">
<stop stop-color="#00B3B1"/>
<stop offset="1" stop-color="#00A5FB"/>
</linearGradient>
<clipPath id="clip0_6_109">
<rect width="15.1206" height="15.3886" fill="white" transform="translate(39.5922 44.1151) rotate(90.0417)"/>
</clipPath>
</defs>
</svg>
