<svg width="41" height="111" viewBox="0 0 41 111" fill="none" xmlns="http://www.w3.org/2000/svg">
<path d="M14.0646 105.098C25.6056 104.434 34.7264 95.1556 34.6944 83.8693L34.4626 2.13328C34.4604 1.36219 33.8053 0.733146 33.0067 0.735411C32.2081 0.737676 31.5566 1.37042 31.5588 2.14152L31.7904 83.8075C31.818 93.5515 24.0003 101.565 14.0564 102.224C13.3951 99.422 10.7757 97.3265 7.65405 97.3353C4.02427 97.3456 1.05595 100.228 1.06589 103.733C1.07584 107.238 4.06046 110.104 7.69023 110.093C10.8119 110.085 13.4192 107.904 14.0646 105.098ZM3.96975 103.725C3.96418 101.762 5.6293 100.145 7.662 100.139C9.6947 100.133 11.369 101.741 11.3746 103.704C11.3801 105.667 9.71498 107.284 7.68228 107.289C5.64958 107.295 3.97532 105.688 3.96975 103.725Z" fill="url(#paint0_linear_7_166)"/>
<g clip-path="url(#clip0_7_166)">
<path d="M25.236 51.5953C25.2248 47.6317 28.5591 44.4235 32.702 44.4117C36.8449 44.4 40.1974 47.5892 40.2086 51.5528C40.2199 55.5164 36.8855 58.7246 32.7426 58.7364C28.5997 58.7482 25.2473 55.5589 25.236 51.5953Z" fill="url(#paint1_linear_7_166)"/>
<path d="M32.8652 55.357L36.2611 49.6693L29.4371 49.6886L32.8652 55.357Z" fill="white"/>
</g>
<path d="M25.526 7.20482C25.5148 3.24119 28.8491 0.0329856 32.992 0.0212345C37.1349 0.00948336 40.4874 3.19872 40.4986 7.16235C40.5099 11.126 37.1755 14.3342 33.0326 14.3459C28.8897 14.3577 25.5373 11.1684 25.526 7.20482Z" fill="url(#paint2_linear_7_166)"/>
<path d="M33.0534 9.40927C31.9061 9.41252 30.9714 8.53841 30.9683 7.45934C30.9652 6.38027 31.8948 5.43344 33.0421 5.43018C34.1894 5.42693 35.1241 6.30103 35.1272 7.3801C35.1302 8.45917 34.2007 9.40601 33.0534 9.40927Z" fill="white"/>
<defs>
<linearGradient id="paint0_linear_7_166" x1="17.6098" y1="0.789599" x2="17.9197" y2="110.054" gradientUnits="userSpaceOnUse">
<stop stop-color="#FFBC00"/>
<stop offset="1" stop-color="#FF9900"/>
</linearGradient>
<linearGradient id="paint1_linear_7_166" x1="32.6991" y1="44.4125" x2="32.7398" y2="58.7562" gradientUnits="userSpaceOnUse">
<stop stop-color="#FFBC00"/>
<stop offset="1" stop-color="#FF9900"/>
</linearGradient>
<linearGradient id="paint2_linear_7_166" x1="32.989" y1="0.00441477" x2="33.0297" y2="14.3482" gradientUnits="userSpaceOnUse">
<stop stop-color="#FFBC00"/>
<stop offset="1" stop-color="#FF9900"/>
</linearGradient>
<clipPath id="clip0_7_166">
<rect width="15.1206" height="15.3886" fill="white" transform="translate(40.4043 44.0868) rotate(89.8375)"/>
</clipPath>
</defs>
</svg>
