<svg width="161" height="56" viewBox="0 0 161 56" fill="none" xmlns="http://www.w3.org/2000/svg">
<path d="M153.377 37.322C152.455 21.1942 138.942 8.41364 122.459 8.41364H3.09052C1.9644 8.41364 1.04303 9.32653 1.04303 10.4423C1.04303 11.5581 1.9644 12.4709 3.09052 12.4709H122.357C136.587 12.4709 148.258 23.4257 149.179 37.322C145.084 38.2349 142.013 41.8865 142.013 46.2481C142.013 51.3197 146.211 55.4785 151.329 55.4785C156.448 55.4785 160.645 51.3197 160.645 46.2481C160.645 41.8865 157.471 38.2349 153.377 37.322ZM151.329 51.4212C148.462 51.4212 146.108 49.0882 146.108 46.2481C146.108 43.408 148.462 41.075 151.329 41.075C154.196 41.075 156.55 43.408 156.55 46.2481C156.55 49.0882 154.196 51.4212 151.329 51.4212Z" fill="url(#paint0_linear_7_166)"/>
<g clip-path="url(#clip0_7_166)">
<path d="M75.2869 21.5012C69.4984 21.5012 64.8269 16.8297 64.8269 11.0411C64.8269 5.25258 69.4984 0.581116 75.2869 0.581116C81.0755 0.581116 85.747 5.25258 85.747 11.0411C85.747 16.8297 81.0755 21.5012 75.2869 21.5012Z" fill="url(#paint1_linear_7_166)"/>
<path d="M80.8122 10.8566L72.5198 6.0892V15.6239L80.8122 10.8566Z" fill="white"/>
</g>
<path d="M10.46 20.92C4.67147 20.92 0 16.2486 0 10.46C0 4.67147 4.67147 0 10.46 0C16.2486 0 20.92 4.67147 20.92 10.46C20.92 16.2486 16.2486 20.92 10.46 20.92Z" fill="url(#paint2_linear_7_166)"/>
<path d="M13.7106 10.4115C13.7106 12.0146 12.4302 13.3171 10.8543 13.3171C9.27838 13.3171 7.89948 12.0146 7.89948 10.4115C7.89948 8.80843 9.17989 7.50594 10.7558 7.50594C12.3317 7.50594 13.7106 8.80843 13.7106 10.4115Z" fill="white"/>
<defs>
<linearGradient id="paint0_linear_7_166" x1="1.05839" y1="31.9552" x2="160.63" y2="31.9552" gradientUnits="userSpaceOnUse">
<stop stop-color="#FFBC00"/>
<stop offset="1" stop-color="#FF9900"/>
</linearGradient>
<linearGradient id="paint1_linear_7_166" x1="64.8281" y1="11.0452" x2="85.7759" y2="11.0452" gradientUnits="userSpaceOnUse">
<stop stop-color="#FFBC00"/>
<stop offset="1" stop-color="#FF9900"/>
</linearGradient>
<linearGradient id="paint2_linear_7_166" x1="-0.0245759" y1="10.4641" x2="20.9233" y2="10.4641" gradientUnits="userSpaceOnUse">
<stop stop-color="#FFBC00"/>
<stop offset="1" stop-color="#FF9900"/>
</linearGradient>
<clipPath id="clip0_7_166">
<rect width="22.0823" height="21.5012" fill="white" transform="translate(64.3843 0.278076)"/>
</clipPath>
</defs>
</svg>
