<svg width="38" height="111" viewBox="0 0 38 111" fill="none" xmlns="http://www.w3.org/2000/svg">
<path d="M25.3128 105.11C14.7122 104.559 6.24564 95.3695 6.16047 84.0835L5.54366 2.3495C5.53784 1.57842 6.13285 0.943014 6.86589 0.937482C7.59894 0.93195 8.20347 1.5583 8.20929 2.32938L8.82557 83.9934C8.8991 93.7371 16.1566 101.674 25.2911 102.236C25.8697 99.4274 28.2529 97.3064 31.1185 97.2848C34.4505 97.2597 37.2045 100.113 37.2309 103.618C37.2574 107.123 34.5468 110.017 31.2148 110.043C28.3492 110.064 25.9338 107.909 25.3128 105.11ZM34.5653 103.638C34.5505 101.675 33.0056 100.074 31.1396 100.088C29.2737 100.102 27.7531 101.726 27.7679 103.689C27.7827 105.652 29.3277 107.253 31.1936 107.239C33.0595 107.225 34.5801 105.601 34.5653 103.638Z" fill="url(#paint0_linear_6_108)"/>
<defs>
<linearGradient id="paint0_linear_6_108" x1="20.9998" y1="0.841335" x2="21.8243" y2="110.103" gradientUnits="userSpaceOnUse">
<stop stop-color="#FF2EF7"/>
<stop offset="1" stop-color="#973EFA"/>
</linearGradient>
</defs>
</svg>
