<svg width="161" height="56" viewBox="0 0 161 56" fill="none" xmlns="http://www.w3.org/2000/svg">
<path d="M7.26855 37.322C8.1902 21.1942 21.7034 8.41364 38.1861 8.41364H157.555C158.681 8.41364 159.602 9.32653 159.602 10.4423C159.602 11.5581 158.681 12.471 157.555 12.471H38.2883C24.0581 12.471 12.3876 23.4257 11.4659 37.322C15.561 38.2349 18.6322 41.8865 18.6322 46.2481C18.6322 51.3197 14.4348 55.4785 9.31641 55.4785C4.19739 55.4785 0 51.3197 0 46.2481C0 41.8865 3.17404 38.2349 7.26855 37.322ZM9.31641 51.4212C12.183 51.4212 14.5377 49.0882 14.5377 46.2481C14.5377 43.408 12.183 41.075 9.31641 41.075C6.44978 41.075 4.09509 43.408 4.09509 46.2481C4.09509 49.0882 6.44978 51.4212 9.31641 51.4212Z" fill="url(#paint0_linear_7_127)"/>
<g clip-path="url(#clip0_7_127)">
<path d="M85.3585 21.5012C91.147 21.5012 95.8185 16.8297 95.8185 11.0411C95.8185 5.25258 91.147 0.581116 85.3585 0.581116C79.5699 0.581116 74.8984 5.25258 74.8984 11.0411C74.8984 16.8297 79.5699 21.5012 85.3585 21.5012Z" fill="url(#paint1_linear_7_127)"/>
<path d="M79.8332 10.8566L88.1255 6.0892V15.6239L79.8332 10.8566Z" fill="white"/>
</g>
<path d="M150.185 20.92C155.974 20.92 160.645 16.2486 160.645 10.46C160.645 4.67147 155.974 0 150.185 0C144.397 0 139.725 4.67147 139.725 10.46C139.725 16.2486 144.397 20.92 150.185 20.92Z" fill="url(#paint2_linear_7_127)"/>
<path d="M146.935 10.4115C146.935 12.0146 148.215 13.3171 149.791 13.3171C151.367 13.3171 152.746 12.0146 152.746 10.4115C152.746 8.80844 151.465 7.50595 149.89 7.50595C148.314 7.50595 146.935 8.80844 146.935 10.4115Z" fill="white"/>
<defs>
<linearGradient id="paint0_linear_7_127" x1="159.587" y1="31.9552" x2="0.0156881" y2="31.9552" gradientUnits="userSpaceOnUse">
<stop stop-color="#0051C0"/>
<stop offset="1" stop-color="#0068E2"/>
</linearGradient>
<linearGradient id="paint1_linear_7_127" x1="95.8173" y1="11.0452" x2="74.8695" y2="11.0452" gradientUnits="userSpaceOnUse">
<stop stop-color="#0051C0"/>
<stop offset="1" stop-color="#0068E2"/>
</linearGradient>
<linearGradient id="paint2_linear_7_127" x1="160.67" y1="10.4641" x2="139.722" y2="10.4641" gradientUnits="userSpaceOnUse">
<stop stop-color="#0051C0"/>
<stop offset="1" stop-color="#0068E2"/>
</linearGradient>
<clipPath id="clip0_7_127">
<rect width="22.0823" height="21.5012" fill="white" transform="matrix(-1 0 0 1 96.2611 0.278076)"/>
</clipPath>
</defs>
</svg>
