<svg width="38" height="111" viewBox="0 0 38 111" fill="none" xmlns="http://www.w3.org/2000/svg">
<path d="M25.3605 105.115C14.7596 104.569 6.2889 95.3832 6.19859 84.0973L5.5446 2.36356C5.53843 1.59249 6.13315 0.95681 6.86619 0.950944C7.59924 0.945079 8.20405 1.57116 8.21022 2.34223L8.86365 84.0059C8.94161 93.7496 16.2027 101.683 25.3375 102.241C25.9148 99.4322 28.297 97.3102 31.1626 97.2872C34.4946 97.2606 37.2499 100.113 37.2779 103.617C37.306 107.122 34.5967 110.018 31.2647 110.045C28.3991 110.068 25.9827 107.914 25.3605 105.115ZM34.6123 103.639C34.5966 101.676 33.051 100.076 31.185 100.091C29.3191 100.106 27.7992 101.73 27.815 103.693C27.8307 105.656 29.3763 107.256 31.2422 107.241C33.1082 107.226 34.628 105.602 34.6123 103.639Z" fill="url(#paint0_linear_7_127)"/>
<defs>
<linearGradient id="paint0_linear_7_127" x1="21" y1="0.848369" x2="21.8743" y2="110.109" gradientUnits="userSpaceOnUse">
<stop stop-color="#0051C0"/>
<stop offset="1" stop-color="#0068E2"/>
</linearGradient>
</defs>
</svg>
