<svg width="38" height="111" viewBox="0 0 38 111" fill="none" xmlns="http://www.w3.org/2000/svg">
<path d="M25.1808 105.216C14.582 104.652 6.12775 95.4523 6.0565 84.1663L5.5405 2.43154C5.53563 1.66046 6.13135 1.02579 6.86432 1.02116C7.5973 1.01653 8.20098 1.64363 8.20585 2.41471L8.72141 84.0794C8.78292 93.8232 16.0298 101.769 25.1626 102.342C25.7446 99.5345 28.1302 97.4164 30.9954 97.3984C34.3271 97.3773 37.0772 100.234 37.0994 103.739C37.1215 107.244 34.4076 110.135 31.076 110.156C28.2107 110.174 25.7982 108.016 25.1808 105.216ZM34.434 103.756C34.4216 101.793 32.8789 100.19 31.0131 100.202C29.1474 100.214 27.625 101.836 27.6374 103.799C27.6497 105.761 29.1925 107.364 31.0583 107.352C32.924 107.34 34.4464 105.719 34.434 103.756Z" fill="url(#paint0_linear_7_175)"/>
<defs>
<linearGradient id="paint0_linear_7_175" x1="20.9967" y1="0.942454" x2="21.6865" y2="110.205" gradientUnits="userSpaceOnUse">
<stop stop-color="#9EDD57"/>
<stop offset="1" stop-color="#279324"/>
</linearGradient>
</defs>
</svg>
