<svg width="680" height="1419" viewBox="0 0 680 1419" fill="none" xmlns="http://www.w3.org/2000/svg">
<path d="M-248.538 1221.57C-178.844 1105.44 -44.7449 1033.97 89.001 973.168C222.747 912.366 364.126 856.06 461.779 757.988C544.074 675.306 590.471 565.105 592.003 448.475C593.601 328.349 549.333 205.964 518.536 84.6937C487.739 -36.5769 470.975 -165.349 524.928 -269.692M-243.151 1224.97C-176.46 1108.57 -45.1473 1035.52 86.8707 973.754C218.889 911.985 359.18 855.143 456.92 757.845C535.151 680.187 582.568 578.935 590.923 470.315C591.432 463.398 591.842 456.521 592.043 449.557C593.901 389.117 583.999 327.784 568.464 266.395C553.267 205.967 533.046 145.983 516.551 85.914C482.902 -35.3991 465.964 -165.719 521.116 -270.381M-237.792 1228.43C-174.174 1111.73 -45.5083 1037.18 84.7411 974.341C214.99 911.506 354.164 854.198 452.061 757.703C531.119 680.225 580.351 579.731 590.586 471.321C591.234 464.462 591.744 457.545 592.043 450.541C594.984 390.06 586.002 328.292 569.71 266.751C553.936 206.328 532.36 146.843 514.566 87.1345C478.404 -34.2443 460.984 -166.159 517.236 -271.099M-232.405 1231.83C-171.859 1114.83 -45.9107 1038.73 82.57 974.828C211.051 910.927 349.107 853.153 447.231 757.49C527.115 680.194 578.162 580.456 590.346 472.287C591.094 465.387 591.772 458.459 592.211 451.512C596.234 390.992 588.073 328.828 571.153 267.025C554.803 206.608 531.772 147.663 512.779 88.2735C473.934 -33.1594 456.171 -166.61 513.552 -271.899M-227.018 1235.22C-169.504 1118.03 -46.2433 1040.31 80.4397 975.414C207.123 910.517 343.87 851.951 442.372 757.347C522.931 680.005 575.944 581.252 590.008 473.293C590.896 466.452 591.672 459.482 592.251 452.594C597.328 392.103 590.086 329.504 572.508 267.509C555.582 207.097 531.096 148.692 510.904 89.6219C469.377 -31.8651 451.271 -166.852 509.822 -272.39M-221.631 1238.62C-167.189 1121.12 -46.6451 1041.86 78.3392 975.93C203.323 909.997 338.913 850.866 437.641 757.094C518.986 679.833 573.885 581.867 589.799 474.189C590.855 467.336 591.702 460.396 592.38 453.467C598.538 392.936 592.018 329.983 573.882 267.754C556.281 207.388 530.339 149.524 508.978 90.703C464.768 -30.8381 446.32 -167.361 505.999 -273.248M-216.273 1242.09C-164.834 1124.32 -47.0068 1043.52 76.2088 976.517C199.424 909.517 333.827 849.891 432.782 756.951C514.912 679.773 571.667 582.663 589.46 475.195C590.586 468.371 591.602 461.42 592.449 454.48C599.69 393.909 594.06 330.589 575.226 268.069C557.048 207.709 529.652 150.385 507.092 91.8827C460.17 -29.6427 441.408 -167.771 502.217 -274.007M-210.885 1245.48C-162.519 1127.42 -47.4089 1045.07 74.009 977.074C195.427 909.078 328.742 848.916 427.853 756.779C510.74 679.752 569.38 583.429 589.123 476.201C590.417 469.366 591.503 462.444 592.419 455.533C600.743 394.922 595.933 331.207 576.442 268.495C557.659 208.21 528.837 151.356 505.049 93.2429C455.374 -28.3658 436.409 -167.972 498.347 -274.556M-205.498 1248.88C-160.204 1130.51 -47.7706 1046.72 71.9078 977.59C191.586 908.459 323.784 847.83 423.093 756.595C506.835 679.68 567.261 584.184 588.883 477.167C590.248 470.361 591.502 463.427 592.587 456.504C601.993 395.853 598.104 331.703 577.885 268.769C558.526 208.489 528.179 152.146 503.262 94.3818C450.835 -27.3102 431.626 -168.493 494.664 -275.356M-200.111 1252.27C-157.82 1133.64 -48.1727 1048.27 69.807 978.106C187.787 907.939 318.728 846.786 418.263 756.383C502.791 679.549 565.073 584.91 588.575 478.103C590.108 471.286 591.432 464.381 592.616 457.418C603.075 396.796 600.105 332.21 579.159 269.055C559.224 208.781 527.393 153.048 501.236 95.5034C446.028 -26.202 426.575 -168.962 490.783 -276.074M-194.724 1255.67C-155.504 1136.73 -48.5046 1049.86 67.6366 978.594C183.778 907.331 313.672 845.741 413.463 756.101C498.816 679.448 562.914 585.566 588.365 478.999C589.968 472.211 591.461 465.295 592.785 458.39C604.257 397.699 602.177 332.747 580.603 269.33C560.092 209.061 526.736 153.839 499.45 96.6427C441.459 -25.0762 421.763 -169.413 487.1 -276.873M-189.366 1259.13C-153.149 1139.93 -48.9363 1051.48 65.477 979.25C179.89 907.02 308.626 844.865 408.574 756.027C494.713 679.457 560.597 586.402 587.998 480.075C589.77 473.275 591.332 466.388 592.755 459.442C605.309 398.712 604.12 333.394 581.818 269.755C560.731 209.491 525.821 154.85 497.435 97.9327C436.692 -23.8694 416.724 -169.713 483.19 -277.522M-183.979 1262.53C-150.864 1143.1 -49.2688 1053.06 63.3759 979.766C176.021 906.471 303.64 843.849 403.744 755.815C490.739 679.355 558.409 587.128 587.689 481.012C589.531 474.241 591.332 467.371 592.853 460.385C606.49 399.614 606.122 333.901 583.162 270.07C561.499 209.812 525.064 155.682 495.549 99.1124C431.955 -22.7323 411.812 -170.124 479.477 -278.251M-178.591 1265.92C-148.549 1146.19 -49.6708 1054.61 61.2053 980.253C172.081 905.892 298.612 842.735 398.914 755.602C486.666 679.294 556.221 587.854 587.45 481.977C589.461 475.195 591.331 468.354 592.993 461.426C607.712 400.616 608.234 334.537 584.576 270.414C562.337 210.161 524.348 156.612 493.664 100.292C427.288 -21.5658 406.901 -170.534 475.695 -279.01M-173.204 1269.32C-146.164 1149.32 -50.0031 1056.2 59.0753 980.84C168.154 905.482 293.597 841.789 394.055 755.46C482.662 679.263 554.032 588.58 587.112 482.984C589.262 476.26 591.232 469.378 592.992 462.41C608.765 401.629 610.207 335.114 585.822 270.77C563.006 210.523 523.562 157.513 491.679 101.513C422.422 -20.318 401.92 -170.974 471.814 -279.728M-167.817 1272.71C-143.849 1152.42 -50.4051 1057.75 56.9745 981.356C164.354 904.962 288.61 840.774 389.325 755.206C478.758 679.19 551.943 589.265 586.903 483.88C589.152 477.115 591.261 470.292 593.19 463.312C610.045 402.491 612.336 335.511 587.294 270.975C563.903 210.733 522.904 158.304 489.921 102.582C417.883 -19.2621 397.137 -171.495 468.201 -280.498M-162.459 1276.18C-141.494 1155.61 -50.8367 1059.37 54.8441 981.942C160.525 904.512 283.664 839.857 384.465 755.063C474.754 679.159 549.725 590.06 586.564 484.886C588.953 478.179 591.161 471.316 593.16 464.365C611.097 403.504 614.279 336.158 588.51 271.4C564.542 211.164 521.99 159.316 487.907 103.872C413.017 -18.0146 392.097 -171.795 464.29 -281.147M-157.072 1279.57C-139.18 1158.71 -51.1692 1060.96 52.644 982.499C156.457 904.043 278.578 838.882 379.536 754.891C470.651 679.167 547.438 590.827 586.226 485.892C588.714 479.145 591.062 472.339 593.229 465.377C612.249 404.476 616.322 336.765 589.854 271.715C565.31 211.484 521.204 160.217 485.951 105.023C408.181 -16.8368 387.116 -172.234 460.438 -281.935M-151.684 1282.97C-136.864 1161.8 -51.6 1062.58 50.5436 983.016C152.687 903.454 273.592 837.866 374.777 754.708C466.747 679.095 545.32 591.582 585.988 486.858C588.615 480.169 591.062 473.323 593.299 466.39C613.401 405.449 618.364 337.371 591.169 272.1C566.119 211.904 520.32 161.159 484.036 106.273C403.386 -15.5598 382.176 -172.575 456.697 -282.594M-146.227 1286.39C-134.41 1164.96 -51.8629 1064.19 48.5121 983.561C148.887 902.933 268.745 836.909 370.016 754.525C462.743 679.063 543.201 592.337 585.748 487.823C588.475 481.094 591.061 474.306 593.467 467.361C614.623 406.45 620.465 337.838 592.583 272.444C566.957 212.253 519.603 162.09 482.22 107.482C398.689 -14.3236 377.404 -172.927 452.984 -283.324M-140.84 1289.79C-132.095 1168.06 -52.2647 1065.74 46.3417 984.049C144.948 902.355 263.688 835.864 365.216 754.242C458.867 678.921 541.042 592.993 585.539 488.719C588.405 482.048 591.09 475.22 593.665 468.263C615.903 407.312 622.635 338.334 594.125 272.678C567.923 212.492 519.015 162.91 480.532 108.58C394.121 -13.198 372.72 -173.489 449.4 -284.164M-135.482 1293.25C-129.769 1171.32 -52.6265 1067.39 44.1821 984.705C140.991 902.015 258.713 835.018 360.328 754.169C454.805 679.029 538.795 593.858 585.172 489.795C588.206 483.112 590.961 476.313 593.606 469.386C616.926 408.395 624.549 339.051 595.312 273.173C568.563 212.923 518.072 163.991 478.419 109.911C389.127 -11.8401 367.582 -173.748 445.431 -284.673M-130.095 1296.65C-127.454 1174.42 -53.0285 1068.95 42.0814 985.221C137.191 901.494 253.727 834.002 355.498 753.957C450.802 678.998 536.607 594.584 584.863 490.732C587.967 484.078 590.921 477.198 593.705 470.328C618.107 409.297 626.65 339.518 596.685 273.419C569.36 213.174 517.315 164.822 476.562 111.021C384.32 -10.7319 362.7 -174.228 441.679 -285.502M-124.708 1300.04C-125.14 1177.51 -53.3613 1070.53 39.98 985.737C133.321 900.945 248.78 833.085 350.737 753.773C446.897 678.925 534.517 595.269 584.722 491.657C587.996 484.991 591.019 478.14 593.902 471.23C619.387 410.159 628.82 340.014 598.128 273.693C570.296 213.483 516.628 165.683 474.775 112.16C379.623 -9.49577 357.887 -174.679 437.995 -286.301M-119.32 1303.44C-122.755 1180.64 -53.763 1072.08 37.7806 986.295C129.324 900.506 243.765 832.14 345.809 753.601C442.865 678.963 532.231 596.036 584.315 492.634C587.658 485.998 590.92 479.164 593.873 472.283C620.341 411.213 630.723 340.562 599.374 274.049C570.966 213.844 515.743 166.625 472.791 113.381C374.758 -8.24811 352.877 -175.049 434.184 -286.99M-113.933 1306.84C-120.44 1183.74 -54.0955 1073.67 35.6794 986.811C125.454 899.957 238.778 831.124 341.078 753.348C438.96 678.891 530.141 596.721 584.105 493.53C587.617 486.882 590.948 480.077 594 473.156C621.551 412.046 632.992 341.017 600.747 274.294C571.891 213.984 514.887 167.497 470.864 114.462C369.852 -7.0994 347.925 -175.559 430.361 -287.848M-108.575 1310.3C-118.084 1186.93 -54.5265 1075.29 33.5496 987.397C121.626 899.506 233.832 830.207 336.219 753.205C434.927 678.929 527.924 597.517 583.837 494.565C587.419 487.947 590.919 481.13 594.14 474.198C622.773 413.047 635.064 341.554 602.161 274.638C572.799 214.363 514.172 168.427 469.048 115.671C365.126 -5.79342 343.113 -176.01 426.649 -288.578M-103.188 1313.7C-115.77 1190.03 -54.8588 1076.87 31.3497 987.954C117.558 899.038 228.787 829.331 331.29 753.033C430.894 678.967 525.636 598.283 583.429 495.542C587.18 488.912 590.75 482.125 594.11 475.251C623.826 414.06 637.007 342.201 603.377 275.064C573.439 214.794 513.228 169.509 467.034 116.961C360.203 -4.40612 338.074 -176.31 422.779 -289.127M-97.801 1317.09C-113.455 1193.13 -55.2907 1078.49 29.2482 988.471C113.787 898.448 223.951 828.543 326.53 752.849C427.14 679.121 523.517 599.038 583.19 496.508C587.01 489.907 590.749 483.108 594.208 476.193C625.006 414.963 639.078 342.737 604.721 275.378C574.206 215.114 512.442 170.41 465.147 118.14C355.337 -3.1587 333.162 -176.72 418.997 -289.886M-92.4133 1320.49C-111.07 1196.25 -55.6225 1080.08 27.1478 988.987C109.918 897.899 219.035 827.556 321.7 752.637C423.067 679.061 521.33 599.764 582.882 497.444C586.871 490.832 590.679 484.063 594.308 477.136C626.159 415.935 641.08 343.245 606.094 275.624C575.004 215.365 511.558 171.352 463.192 119.291C350.186 -1.6202 328.181 -177.16 415.215 -290.644M-87.0556 1323.95C-108.814 1199.49 -56.0542 1081.7 24.9474 989.544C105.949 897.39 213.949 826.581 316.87 752.424C419.093 678.959 519.071 600.46 582.642 498.41C586.771 491.856 590.679 485.046 594.377 478.148C627.31 416.907 643.151 343.781 607.409 276.009C575.742 215.755 510.742 172.323 461.277 120.541C345.489 -0.384238 323.31 -177.472 411.403 -291.334M-81.6681 1327.35C-106.429 1202.61 -56.3863 1083.28 22.8177 990.13C102.022 896.98 208.963 825.566 312.011 752.282C415.06 678.997 516.854 601.256 582.305 499.416C623.974 434.528 649.282 352.076 608.753 276.324C576.511 216.076 509.956 173.224 459.391 121.721C340.723 0.822915 318.399 -177.882 407.621 -292.092M-79.1261 1330.29C-101.555 1207.43 -53.275 1088.59 22.5883 996.181C98.1082 904.197 202.54 836.243 299.874 761.722C322.909 744.045 345.443 725.012 369.013 706.247C402.816 679.461 437.289 653.035 469.109 625.503C504.7 594.627 537.156 562.033 564.848 525.731C568.242 521.329 571.526 516.799 574.74 512.24C605.251 469.574 628.235 418.031 627.722 365.041C627.523 340.373 622.174 315.278 610.016 290.782C597.736 265.99 579.7 243.795 558.864 222.807C527.907 191.696 491.234 163.281 460.283 131.763C434.148 105.205 412.577 75.9614 396.354 45.0986C377.701 9.45188 366.392 -27.883 361.624 -64.7831C356.311 -104.697 358.509 -144.345 367.888 -182.143C377.197 -219.97 393.646 -256.048 416.226 -287.764M-76.6546 1333.21C-96.6514 1212.18 -50.2634 1093.95 22.2595 1002.27C94.1942 911.415 196.075 846.822 287.638 771.203C309.526 753.129 330.356 732.484 353.81 713.015C387.346 685.297 423.541 659.263 456.693 632.86C493.64 603.451 527.346 572.773 556.532 537.995C560.107 533.75 563.542 529.447 567.007 525.074C599.419 483.94 624.679 433.428 626.301 380.429C627.074 355.593 622.685 330.16 611.237 305.141C599.697 279.756 582.01 256.723 561.157 234.991C530.2 202.897 492.737 173.824 461.204 141.735C434.487 114.606 412.305 84.8624 396.403 53.2318C377.959 16.6893 368.403 -21.3077 365.183 -58.3813C361.725 -98.4222 365.705 -137.818 376.183 -175.895C386.732 -213.943 403.6 -250.829 424.819 -283.605M-74.1129 1336.15C-91.7071 1217.03 -47.2105 1099.4 22.03 1008.32C90.1526 918.742 189.699 857.191 275.472 780.713C296.243 762.173 315.409 740.014 338.776 719.771C372.144 691.082 409.962 665.479 444.417 640.275C482.678 612.235 517.676 583.57 548.427 550.347C552.182 546.259 555.867 542.143 559.483 537.997C593.908 498.522 621.303 448.983 625.061 395.973C626.846 371.068 623.307 345.17 612.57 319.628C601.669 293.691 584.501 269.809 563.532 247.373C532.616 214.395 494.391 184.594 462.137 151.876C434.838 124.177 412.144 93.8916 396.393 61.5047C378.259 24.0257 370.285 -14.6219 368.712 -51.9097C367.012 -92.0367 372.801 -131.251 384.421 -169.508C396.11 -207.735 413.496 -245.47 433.424 -279.276M-71.5713 1339.1C-86.763 1221.88 -44.1288 1104.79 21.8003 1014.37C86.2388 925.96 183.41 867.35 263.335 790.153C283.116 771.037 300.38 747.346 323.672 726.498C356.801 696.808 396.284 671.736 432.071 647.662C471.688 621.088 507.895 594.239 540.181 562.64C544.088 558.78 547.953 554.82 551.819 550.861C588.217 512.946 617.886 464.439 623.681 411.459C626.438 386.386 623.859 360.152 613.762 334.058C603.531 307.498 586.782 282.808 565.726 259.598C534.811 225.636 495.864 195.207 462.918 161.79C435.038 133.52 411.832 102.694 396.303 69.5799C378.407 31.1352 372.086 -8.13377 372.16 -45.6357C372.287 -85.8197 379.787 -124.812 392.577 -163.318C405.436 -201.795 423.311 -240.309 441.877 -275.175M-69.0295 1342.05C-81.8186 1226.73 -41.076 1110.24 21.5417 1020.49C82.3077 933.416 177.109 877.341 251.168 799.663C269.891 779.941 285.364 754.847 308.568 733.226C341.431 702.604 382.536 677.964 419.754 654.978C460.686 629.773 498.184 604.938 532.035 574.893C536.192 571.219 540.238 567.417 544.214 563.585C582.653 527.261 614.458 479.726 622.359 426.806C626.158 401.594 624.47 374.994 615.083 348.376C605.522 321.195 589.262 295.725 568.09 271.812C537.216 236.966 497.437 205.779 463.909 171.792C435.447 142.952 411.63 111.624 396.421 77.7426C378.805 38.4313 374.097 -1.55798 375.888 -39.245C377.772 -79.5151 387.082 -118.326 401.082 -156.982C415.081 -195.639 433.475 -235.002 450.68 -270.928M-66.4873 1344.99C-76.8738 1231.58 -38.0518 1115.76 21.3127 1026.54C78.3655 940.703 170.827 887.094 239.032 809.103C256.795 788.735 270.376 762.278 293.465 739.953C326.159 708.36 368.888 684.151 407.479 662.394C449.626 638.597 488.514 615.735 523.86 587.216C528.168 583.769 532.394 580.124 536.62 576.479C577.032 541.714 611.083 495.281 621.05 442.322C625.82 416.941 625.023 389.975 616.346 362.835C607.454 335.031 591.614 308.753 570.424 284.095C539.551 248.265 499.051 216.45 464.801 181.834C435.758 152.423 411.429 120.554 396.442 85.9457C379.065 45.6688 375.98 5.1279 379.447 -32.8431C383.089 -73.1993 394.208 -111.828 409.378 -150.734C424.547 -189.64 443.43 -229.783 459.274 -266.768M-63.9456 1347.94C-71.9296 1236.43 -34.9293 1121.24 21.0539 1032.66C74.4343 948.159 164.392 896.619 226.865 818.614C243.668 797.599 255.429 769.809 278.431 746.709C310.887 714.116 355.21 690.408 395.203 669.81C438.635 647.451 478.872 626.463 515.754 599.568C520.242 596.278 524.69 592.889 529.096 589.401C571.55 556.226 607.835 510.725 619.809 457.866C625.593 432.417 625.715 405.015 617.678 377.322C609.526 348.925 594.104 321.839 572.799 296.477C541.897 259.734 500.675 227.29 465.833 191.935C436.208 161.953 411.338 129.613 396.601 94.2073C379.533 52.9939 378.031 11.8023 383.116 -26.3131C388.516 -66.7554 401.415 -105.133 417.755 -144.288C434.094 -183.444 453.466 -224.365 468.018 -262.382M-61.4041 1350.88C-66.9564 1241.21 -31.935 1126.84 20.8242 1038.71C70.532 955.545 144.579 894.006 214.728 828.054C226.383 803.661 240.441 777.24 263.327 753.436C295.585 719.941 341.491 696.566 382.886 677.126C427.633 656.135 469.161 637.161 507.538 611.792C512.206 608.659 516.834 605.427 521.462 602.195C565.928 570.68 604.447 526.111 618.459 473.283C625.284 447.694 626.296 419.926 618.97 391.71C611.458 362.762 596.485 334.797 575.133 308.759C544.202 271.103 502.288 237.961 466.724 201.977C436.448 171.396 411.067 138.514 396.522 102.451C379.664 60.3419 379.844 18.4591 386.575 -19.8704C393.732 -60.3989 408.442 -98.5953 425.922 -137.93C443.472 -177.236 463.292 -219.036 476.483 -258.112M-58.9317 1353.8C-62.0815 1246.03 -28.9109 1132.36 20.4962 1044.81C66.5722 963.071 136.487 902.593 202.393 837.575C212.46 812.274 225.256 784.752 248.055 760.175C280.075 725.679 327.604 702.735 370.372 684.524C416.364 664.872 459.253 647.941 499.194 624.126C504.084 621.249 508.822 618.146 513.63 615.071C560.208 585.175 600.932 541.608 616.91 488.78C624.707 463.024 626.61 434.89 619.994 406.151C613.151 376.58 598.668 347.836 577.229 321.025C546.368 282.415 503.593 248.585 467.378 212.002C436.52 180.85 410.598 147.497 396.303 110.637C379.754 67.5912 381.488 25.1276 389.896 -13.4859C398.781 -54.0307 415.33 -92.1153 434.049 -131.67C452.769 -171.225 473.078 -213.805 484.908 -253.94M-56.3899 1356.74C-57.1371 1250.88 -25.8755 1138.05 20.2668 1050.86C62.711 970.556 128.423 911.111 190.256 847.016C198.705 820.876 210.269 792.184 233.021 766.932C264.843 731.533 313.927 708.992 358.096 691.94C405.373 673.726 449.513 658.71 491.048 636.379C496.118 633.659 501.106 630.742 506.095 627.825C554.715 599.518 597.643 556.953 615.728 504.185C624.567 478.29 627.361 449.79 621.455 420.528C615.351 390.364 601.217 360.783 579.662 333.268C548.773 293.744 505.306 259.215 468.468 221.963C437.028 190.24 410.594 156.346 396.521 118.759C380.211 74.7474 383.528 31.6333 393.722 -7.13615C404.365 -47.767 422.694 -85.6003 442.584 -125.405C462.444 -165.14 483.272 -208.568 493.74 -249.763M-53.8484 1359.69C-52.1931 1255.73 -22.7708 1143.77 20.037 1056.91C58.9192 978.07 120.43 919.658 178.119 856.456C184.98 829.407 195.281 799.615 217.946 773.589C249.53 737.19 300.237 715.08 345.808 699.187C394.33 682.312 439.86 669.269 482.931 648.562C488.181 646 493.39 643.339 498.559 640.578C549.261 613.96 594.425 572.328 614.476 519.561C624.357 493.527 628.041 464.661 622.775 434.847C617.341 404.061 603.626 373.671 582.054 345.411C551.136 304.974 506.977 269.747 469.418 231.865C437.396 199.572 410.38 165.107 396.599 126.822C380.597 81.8744 385.469 38.1796 397.31 -0.804045C409.64 -41.5502 429.849 -79.1727 450.879 -119.157C471.909 -159.141 493.226 -203.349 502.374 -245.505M-51.3064 1362.64C-47.2485 1260.58 -30.7196 1143.57 19.7786 1063.03C64.8962 991.054 112.338 928.246 165.953 865.966C171.295 838.038 180.334 807.145 202.813 780.386C234.2 743.085 286.42 721.279 333.434 706.643C383.2 691.107 430.091 680.107 474.657 660.925C480.058 658.59 485.477 656.016 490.866 653.513C543.611 628.484 589.332 587.085 613.068 535.117C624.827 509.294 628.523 479.613 623.939 449.346C619.174 417.938 605.949 386.769 584.261 357.805C553.384 316.483 508.462 280.528 470.252 242.047C437.649 209.184 410.092 174.247 396.561 135.165C380.769 89.3218 387.253 44.9066 400.81 5.73791C414.898 -35.0943 436.917 -72.5354 459.087 -112.699C481.287 -152.933 503.093 -197.92 510.88 -241.136M-48.7938 1365.65C-42.4032 1265.47 -28.4583 1149.35 19.4502 1069.12C61.5527 998.673 104.245 936.834 153.717 875.447C157.471 846.61 165.247 814.617 187.709 787.113C218.899 748.91 272.701 727.437 321.117 713.959C372.129 699.762 420.38 690.805 466.51 673.178C472.162 671.029 477.732 668.683 483.302 666.336C538.129 642.996 587.76 603.228 611.787 550.563C623.751 524.251 629.175 494.554 625.3 463.763C621.275 431.762 608.399 399.756 586.694 370.047C555.817 327.742 510.105 291.13 471.243 252.049C438.058 218.615 409.989 183.137 396.68 143.328C381.197 96.5477 389.234 51.5516 404.468 12.099C420.284 -28.7496 444.112 -66.0091 467.482 -106.492C490.822 -146.905 513.147 -192.741 519.572 -237.017M-46.2522 1368.6C-37.459 1270.32 -26.1274 1155.16 19.1914 1075.24C58.3081 1006.25 96.1528 945.421 141.551 884.957C143.716 855.212 150.23 822.118 172.576 793.91C203.528 754.706 258.953 733.664 308.812 721.445C361.068 708.587 410.68 701.672 458.306 685.571C464.108 683.649 469.859 681.459 475.638 679.2C532.507 657.449 584.413 618.713 610.407 566.049C623.412 539.598 629.727 509.535 626.493 478.192C623.137 445.569 610.75 412.783 588.929 382.371C558.024 339.153 511.59 301.911 472.065 262.062C438.298 228.057 409.619 192.078 396.56 151.473C381.316 103.727 391.844 58.4591 407.887 18.4426C424.483 -22.9 451.098 -59.57 475.678 -100.203C500.189 -140.866 523.072 -187.452 528.066 -232.817M-43.7101 1371.54C-32.4852 1275.1 -23.7145 1161.16 18.9623 1081.29C55.0233 1013.73 88.1597 953.969 129.414 894.397C129.991 863.743 135.313 829.578 157.502 800.568C188.256 760.462 245.194 739.724 296.496 728.761C350.066 717.271 400.999 712.301 450.16 697.824C456.143 696.059 462.143 694.056 468.074 692.023C527.026 671.961 581.166 634.157 609.126 581.495C623.243 554.934 630.309 524.447 627.785 492.581C625.169 459.365 613.102 425.811 591.293 394.584C560.358 350.453 513.233 312.512 473.056 272.063C438.708 237.489 409.516 200.968 396.679 159.635C381.715 111.023 392.918 64.7259 411.545 24.8042C430.806 -16.2458 458.324 -53.1131 484.044 -93.9261C509.765 -134.739 533.097 -182.203 536.8 -228.599M-41.2385 1374.46C-27.6111 1279.92 -7.1408 1172.91 18.6334 1087.38C39.9614 1016.62 79.9971 962.527 117.148 903.948C116.207 872.414 120.197 837.12 142.27 807.405C172.855 766.328 231.347 745.992 284.05 736.188C338.866 726.037 391.089 723.081 441.815 710.158C448.048 708.58 454.13 706.774 460.311 704.928C521.345 686.555 577.749 649.613 607.647 597.022C622.806 570.322 630.762 539.469 628.948 507.08C627.001 473.242 615.354 438.879 593.429 406.948C562.466 361.903 514.578 323.235 473.75 282.187C438.82 247.041 409.116 209.979 396.5 167.92C381.845 118.371 394.562 71.3939 414.946 31.3861C435.895 -9.77914 465.263 -46.3658 492.182 -87.498C519.073 -128.56 542.894 -176.804 545.235 -224.259M-38.6969 1377.4C-22.6669 1284.77 -3.8847 1178.86 18.4038 1093.43C36.3908 1024.39 72.0036 971.074 105.011 913.388C102.482 880.946 105.209 844.551 127.265 814.092C157.653 772.112 217.658 752.08 271.804 743.534C327.864 734.722 381.448 733.809 433.739 722.44C440.123 721.089 446.484 719.4 452.816 717.781C515.933 701.096 574.641 665.116 606.436 612.496C622.636 585.657 631.512 554.369 630.309 521.497C629.102 487.066 617.874 451.896 595.862 419.19C564.94 373.261 516.29 333.866 474.839 292.148C439.328 256.432 409.014 218.869 396.718 176.042C382.301 125.527 396.573 77.9695 418.703 37.7068C441.31 -3.50381 472.586 -39.9498 500.647 -81.2616C528.707 -122.573 553.017 -171.596 553.997 -220.111M-36.1549 1380.35C-17.7224 1289.62 -0.517725 1184.94 18.1453 1099.55C32.8612 1032.26 63.9114 979.662 92.8452 922.898C88.6983 889.617 90.1921 852.052 112.132 820.889C142.282 777.909 203.939 758.238 259.429 750.99C316.763 743.447 371.679 744.647 425.465 734.803C432.029 733.609 438.542 732.147 445.054 730.685C510.253 715.689 571.195 680.641 604.957 628.023C622.269 601.075 631.966 569.391 631.403 535.967C630.865 500.914 620.057 464.935 597.998 431.555C567.048 384.712 517.706 344.618 475.534 302.271C439.371 265.956 408.614 227.881 396.511 184.396C382.374 133.015 398.188 84.7077 422.034 44.2601C446.399 2.9633 479.485 -33.3012 508.686 -74.7926C537.887 -116.284 562.715 -166.156 562.335 -215.73M-33.613 1383.29C-12.778 1294.47 2.87833 1190.94 17.916 1105.6C29.4712 1040.19 55.9181 988.209 80.7082 932.339C74.973 898.149 75.2744 859.513 97.0575 827.546C127.01 783.664 190.25 764.326 247.142 758.237C305.651 752.004 362.026 755.206 417.348 746.986C424.093 745.949 430.826 744.744 437.548 743.369C504.83 730.061 568.076 695.975 603.735 643.329C622.088 616.242 632.675 584.192 632.823 550.245C633.024 514.599 622.565 477.782 600.46 443.728C569.51 395.902 519.447 355.179 476.624 312.232C439.879 275.346 408.582 236.8 396.659 192.489C382.761 140.142 400.158 91.1843 425.721 50.5516C451.774 9.13955 486.71 -26.8444 517.151 -68.5561C547.521 -110.297 572.839 -160.948 571.167 -211.553M-31.071 1386.24C-7.8334 1299.32 6.41412 1197.01 17.6867 1111.65C26.1105 1048.05 47.8551 996.727 68.5713 941.779C61.3177 906.71 60.2869 866.944 82.0238 834.303C111.808 789.449 176.561 770.414 234.866 765.653C294.62 760.759 352.356 766.003 409.172 759.309C416.138 758.528 423.081 757.41 429.954 756.263C499.319 744.643 564.799 711.49 602.425 658.845C621.89 631.648 633.298 599.203 634.086 564.703C634.957 528.435 624.958 490.909 602.795 456.011C571.816 407.272 520.991 365.821 477.545 322.205C440.218 284.748 408.34 245.631 396.708 200.622C383.119 147.339 402 97.7714 429.309 56.8839C457.05 15.3566 493.866 -20.4166 525.476 -62.3777C557.016 -104.368 582.823 -155.798 579.789 -207.463M-28.5296 1389.19C-2.88941 1304.17 10.0192 1203.1 17.4278 1117.77C22.819 1055.94 39.8323 1005.34 56.4048 951.289C47.5629 915.311 45.3396 874.474 66.9197 841.03C96.5064 795.274 162.842 776.572 222.59 773.068C283.618 769.443 342.616 776.772 401.067 771.661C408.213 771.037 415.307 770.146 422.43 769.185C493.807 759.225 561.661 727.062 601.185 674.389C621.662 647.123 633.949 614.144 635.418 579.191C637.028 542.33 627.378 503.966 605.169 468.393C574.162 418.74 522.644 376.591 478.477 332.346C440.569 294.319 408.149 254.73 396.768 208.924C383.389 154.745 403.882 104.457 432.949 63.4836C462.377 21.8411 501.072 -13.7215 533.823 -55.8621C566.574 -98.0028 592.829 -150.311 588.434 -203.036M-25.9875 1392.13C2.08438 1308.95 13.7936 1209.18 17.1986 1123.82C19.5979 1063.85 31.7694 1013.86 44.268 960.729C33.8379 923.843 30.3522 881.905 51.8162 847.757C81.2346 801.03 149.083 782.631 210.273 780.385C272.575 778.029 332.905 787.47 392.851 783.885C400.177 783.418 407.492 782.783 414.726 781.95C488.186 773.679 558.274 742.448 599.764 689.777C621.354 662.4 634.461 629.026 636.64 593.55C638.92 556.067 629.689 516.895 607.393 480.548C576.357 429.982 524.118 387.204 479.329 342.289C440.839 303.692 407.907 263.561 396.748 217.029C383.678 161.913 405.655 111.015 436.468 69.7868C467.583 28.0291 508.129 -7.25315 542.049 -49.6432C575.97 -92.0333 602.714 -145.121 596.929 -198.836M-23.5158 1395.05C6.95861 1313.77 17.5966 1215.2 16.8699 1129.91C16.3763 1071.77 23.6768 1022.45 32.0026 970.28C19.9842 932.485 15.2362 889.447 36.6133 854.525C65.7643 806.866 135.265 788.83 197.828 787.812C261.375 786.795 323.095 798.209 384.576 796.248C392.054 796.009 399.579 795.461 407.062 794.814C482.576 788.301 554.997 757.962 598.384 705.263C621.015 677.748 635.013 644.007 637.833 607.979C640.852 569.903 631.941 529.963 609.629 492.871C578.534 441.462 525.563 397.886 480.151 352.302C441.079 313.134 407.566 272.433 396.698 225.203C383.866 169.121 407.427 117.573 439.956 76.1594C472.759 34.2864 515.185 -0.784966 550.246 -43.3546C585.307 -85.9243 612.57 -139.861 605.493 -194.607M-20.9736 1397.99C11.9034 1318.62 21.6389 1221.23 16.6409 1135.96C13.3533 1079.6 15.614 1030.97 19.866 979.72C6.3291 941.046 0.388608 896.937 21.5797 861.281C50.673 812.779 121.576 794.918 185.582 795.158C250.403 795.41 313.454 808.937 376.43 808.501C384.158 808.448 391.834 808.127 399.498 807.638C477.094 802.813 551.791 773.505 597.104 720.709C620.846 693.084 635.665 658.948 639.195 622.397C642.883 583.699 634.392 542.951 612.062 505.114C580.939 452.791 527.275 408.517 481.212 362.333C441.559 322.594 407.504 281.422 396.887 233.394C384.335 176.447 409.438 124.149 443.684 82.5502C478.146 40.6317 522.549 5.73037 558.781 -37.0887C595.012 -79.9078 622.763 -134.624 614.325 -190.429M-18.4325 1400.94C16.7772 1323.44 25.779 1227.22 16.3816 1142.08C10.3291 1087.44 7.59075 1039.58 7.62925 989.201C-7.52503 949.688 -14.6987 904.408 6.40545 867.979C35.2605 818.476 107.816 800.977 173.166 802.515C239.26 804.036 303.644 819.676 368.184 820.795C376.064 820.968 383.92 820.805 391.834 820.502C471.512 817.366 548.513 789.019 595.723 736.195C620.478 708.5 636.216 673.929 640.387 636.826C644.814 597.535 636.743 555.978 614.297 517.437C583.145 464.201 528.789 419.228 482.004 372.416C441.769 332.106 407.203 290.393 396.737 241.609C384.424 183.695 411.11 130.747 447.044 89.0333C483.222 46.9298 529.448 12.3786 566.848 -30.6899C604.249 -73.7584 632.49 -129.254 622.691 -186.119M-15.8902 1403.88C21.7221 1328.29 30.1183 1233.12 16.1527 1148.13C7.43427 1095.16 7.14601 1046.94 -4.50723 998.641C-14.7837 956.083 -29.6858 911.84 -8.6977 874.706C19.9599 824.302 94.0577 807.036 160.821 809.902C228.16 812.762 293.933 830.375 359.94 833.088C367.999 833.419 376.106 833.442 384.101 833.337C465.833 831.959 545.167 804.504 594.274 751.652C620.141 723.848 636.798 688.841 641.51 651.226C646.677 611.342 638.926 569.018 616.492 529.662C585.312 475.512 530.263 429.841 482.757 382.4C441.941 341.52 406.763 299.306 396.618 249.754C384.614 190.904 412.813 137.276 450.464 95.377C488.4 53.1874 536.434 18.8179 574.976 -24.4302C613.517 -67.6783 642.276 -124.023 631.116 -181.947M-13.3484 1406.83C26.6664 1333.14 34.5443 1238.82 15.9232 1154.18C4.63779 1102.85 -2.48839 1055.29 -16.6444 1008.08C-29.6498 964.794 -44.6037 919.3 -23.7026 881.393C4.78664 830.016 80.4381 813.153 148.603 817.178C217.216 821.307 284.251 841.003 351.893 845.301C360.132 845.789 368.39 846.039 376.636 846.12C460.45 846.431 542.018 819.908 593.092 767.057C620.07 739.143 637.479 703.712 642.971 665.603C648.877 625.126 641.475 581.964 618.995 541.934C587.786 486.871 531.975 440.471 483.917 392.39C442.519 350.94 406.829 308.184 396.876 257.975C385.082 198.229 414.865 143.951 454.331 101.826C493.954 59.5211 543.869 25.3621 583.58 -18.1354C623.291 -61.6329 652.539 -118.757 640.087 -177.712M-10.8066 1409.77C31.6399 1337.92 39.1392 1244.51 15.6646 1160.3C1.77158 1110.5 -12.1402 1063.88 -28.8105 1017.59C-44.6729 973.686 -59.6204 926.801 -38.8354 888.19C-10.5437 835.912 66.6498 819.282 136.228 824.634C206.115 830.032 274.482 851.842 343.618 857.664C352.079 858.408 360.517 858.815 368.972 858.984C454.77 861.024 538.712 835.492 591.782 782.573C619.773 754.589 638.101 718.723 644.233 680.061C650.809 638.962 643.897 595.021 621.23 554.258C590.091 498.24 533.49 451.183 484.71 402.473C442.73 360.452 406.529 317.155 396.797 266.219C385.312 205.536 416.608 150.578 457.791 108.268C499.102 65.8483 550.867 31.9699 591.748 -11.777C632.629 -55.5239 662.366 -113.427 648.553 -173.442M-8.29386 1412.79C36.5552 1342.84 43.7632 1250.13 15.4061 1166.42C-0.966531 1118.04 -21.7398 1072.74 -40.9766 1027.1C-59.6844 982.746 -74.6371 934.302 -53.939 894.917C-25.8855 841.638 52.9489 825.202 123.953 832.049C195.172 838.577 264.812 862.639 335.513 870.016C344.154 870.918 352.813 871.581 361.448 871.906C449.341 875.804 535.575 851.064 590.542 798.117C619.644 770.024 638.793 733.762 645.566 694.548C652.881 652.857 646.318 608.078 623.634 566.57C592.467 509.639 535.144 461.953 485.742 412.573C443.081 370.023 406.368 326.184 396.957 274.48C385.711 212.832 418.549 157.125 461.489 114.729C504.418 72.1642 558.132 38.5256 600.224 -5.37172C642.315 -49.2691 672.571 -108.022 657.326 -169.125M-5.82222 1415.71C41.4294 1347.66 48.4335 1255.44 15.0773 1172.52C-3.84473 1125.53 -31.3282 1081.77 -53.213 1036.58C-74.8943 991.887 -89.7241 941.774 -69.1421 901.685C-41.286 847.504 39.1311 831.4 111.537 839.407C184 847.273 255.031 873.308 327.198 882.28C336.019 883.339 344.858 884.159 353.715 884.741C443.62 890.298 532.268 866.648 589.092 813.574C619.277 785.441 639.275 748.714 646.758 708.977C654.742 666.663 648.599 621.076 625.869 578.894C594.673 521.049 536.658 472.665 486.563 422.586C443.321 379.465 406.096 335.085 396.837 282.625C385.87 220.111 420.222 163.723 464.879 121.142C509.495 78.4625 565.089 45.0346 608.321 0.957592C651.582 -43.1892 682.327 -102.721 665.721 -164.884M-3.28035 1418.65C46.3738 1352.51 53.3021 1260.66 14.8479 1178.57C-6.63509 1132.81 -40.7359 1090.96 -65.3791 1046.09C-90.0223 1001.23 -104.671 949.304 -84.2051 908.511C-56.5173 853.358 25.4533 837.657 99.2317 846.892C173.01 856.127 245.332 884.176 319.063 894.702C419.951 909.103 523.252 887.47 587.782 829.09C652.313 770.709 672.47 674.471 628.203 591.177C570.103 481.704 416.297 405.721 396.926 290.858C386.199 227.377 422.203 170.369 468.507 127.574C514.881 84.8076 572.255 51.6309 616.686 7.23472C661.117 -37.1614 692.351 -97.4723 674.454 -160.666" stroke="url(#paint0_linear_1824_3452)" stroke-width="0.5" stroke-miterlimit="10"/>
<defs>
<linearGradient id="paint0_linear_1824_3452" x1="-73.0002" y1="1070.69" x2="679.587" y2="-397.418" gradientUnits="userSpaceOnUse">
<stop stop-color="#FF22AC" stop-opacity="0.45"/>
<stop offset="0.48974" stop-color="#8846D3" stop-opacity="0.39"/>
<stop offset="1" stop-color="#2973FF" stop-opacity="0.11"/>
</linearGradient>
</defs>
</svg>
