<svg width="639" height="621" viewBox="0 0 639 621" fill="none" xmlns="http://www.w3.org/2000/svg">
<path d="M638.165 -48.9898C585.801 11.2232 500.665 38.9041 416.831 60.431C332.997 81.9579 245.198 100.091 178.471 146.952C122.234 186.462 83.9944 245.63 71.1191 313.139C57.8465 382.67 70.9487 458.227 76.3508 531.752C81.7529 605.278 78.2434 681.713 36.222 736.705M635.389 -51.5134C584.739 9.16464 501.058 38.0445 418.127 60.31C335.196 82.5755 247.973 101.132 181.275 147.534C127.912 184.548 90.0001 238.418 73.9902 300.579C72.984 304.54 72.0393 308.487 71.2072 312.507C63.9176 347.383 63.3584 383.985 66.0612 421.199C68.667 457.821 74.232 494.702 77.6278 531.248C84.6796 605.092 81.1119 682.443 38.3623 737.496M632.636 -54.0748C583.738 7.0924 501.438 37.123 419.423 60.1887C337.408 83.2544 250.785 102.196 184.079 148.117C130.255 184.94 91.3679 238.185 74.2893 300.03C73.2081 303.943 72.2019 307.903 71.3081 311.937C63.3866 346.724 62.2491 383.485 65.3751 420.865C68.3158 457.543 74.7187 494.273 78.9043 530.744C87.4077 604.884 83.956 683.21 40.5396 738.312M629.86 -56.5985C582.714 5.05792 501.831 36.2634 420.733 60.1292C339.634 83.9951 253.611 103.322 186.859 148.737C132.575 185.37 92.7121 237.989 74.5274 299.494C73.3846 303.42 72.2793 307.371 71.3105 311.356C62.757 346.055 61.1028 382.961 64.5664 420.557C67.8418 457.291 75.1442 493.858 80.0581 530.267C90.1121 604.714 86.7014 683.966 42.5942 739.155M627.084 -59.1221C581.676 2.96185 502.186 35.3796 422.029 60.0082C341.871 84.6368 256.525 104.558 189.663 149.319C134.982 185.91 94.0803 237.755 74.827 298.945C73.6091 302.823 72.4422 306.787 71.3985 310.724C62.2369 345.298 60.0046 382.361 63.8298 420.137C67.44 456.928 75.642 493.33 81.2842 529.678C92.8888 604.432 89.5189 684.61 44.7076 739.823M624.308 -61.6461C580.651 0.927091 502.579 34.5197 423.3 59.9244C344.021 85.3291 259.289 105.697 192.381 149.952C137.253 186.415 95.3384 237.61 75.0405 298.447C73.7236 302.314 72.5192 306.254 71.4138 310.204C61.6203 344.69 58.9329 381.885 63.0581 419.854C67.0646 456.687 76.1663 492.925 82.5126 529.248C95.6679 604.31 92.3389 685.415 46.8368 740.713M621.556 -64.2073C579.614 -1.16902 502.959 33.5984 424.596 59.8033C346.234 86.0082 262.14 106.785 195.185 150.535C139.61 186.869 96.7068 237.376 75.3402 297.898C73.9857 301.741 72.6822 305.67 71.4778 309.61C61.0523 344.008 57.8107 381.323 62.311 419.533C66.6522 456.422 76.6534 492.497 83.7281 528.758C98.458 604.089 95.1459 686.158 48.953 741.543M618.78 -66.7311C578.589 -3.20363 503.351 32.7387 425.93 59.7063C348.508 86.6739 264.989 107.874 198.027 151.141C142.028 187.31 98.1123 237.166 75.6396 297.349C74.1861 301.181 72.8451 305.086 71.6032 309.002C60.5456 343.312 56.7874 380.772 61.6493 419.161C66.3494 456.068 77.2261 492.017 85.0531 528.179C101.371 603.841 98.025 686.788 51.1413 742.259M616.004 -69.2547C577.565 -5.23811 503.731 31.8174 427.202 59.6227C350.672 87.428 267.754 109.013 200.769 151.737C144.286 187.753 99.419 236.946 75.8776 296.813C74.3866 300.622 72.9465 304.516 71.6055 308.421C59.9159 342.643 55.5794 380.261 60.8405 418.853C65.8753 455.817 77.6891 491.626 86.2068 527.702C104.113 603.695 100.746 687.583 53.1959 743.102M613.228 -71.7786C576.502 -7.29685 504.124 30.9577 428.473 59.5391C352.823 88.1205 270.58 110.139 203.549 152.357C146.619 188.245 100.763 236.75 76.1529 296.302C74.5628 300.099 73.0852 303.97 71.6826 307.888C59.3851 341.984 54.4704 379.761 60.1306 418.556C65.5002 455.576 78.2376 491.184 87.497 527.259C107.015 603.547 103.628 688.374 55.3734 743.917M610.451 -74.3025C575.478 -9.33156 504.479 30.0737 429.782 59.4794C355.086 88.8851 273.405 111.265 206.305 153.014C148.914 188.712 102.083 236.591 76.3665 295.803C74.7388 299.577 73.1622 303.436 71.6846 307.307C58.7926 341.339 53.3236 379.237 59.3214 418.249C65.0257 455.324 78.7002 490.793 88.6505 526.782C109.781 603.363 106.373 689.13 57.4277 744.76M607.699 -76.8636C574.44 -11.4276 504.896 29.1766 431.103 59.3209C357.309 89.4652 276.242 112.292 209.133 153.559C151.295 189.129 103.513 236.345 76.6901 295.217C74.9634 298.98 73.3493 302.815 71.8101 306.699C58.2861 340.643 52.263 378.662 58.6599 417.877C64.699 455.009 79.3347 490.3 89.9516 526.241C112.67 603.153 109.266 689.822 59.6295 745.538M604.923 -79.3873C573.44 -13.4996 505.252 28.2928 432.374 59.2373C359.497 90.1818 279.031 113.394 211.913 154.179C153.59 189.596 104.857 236.148 76.9656 294.705C75.2014 298.444 73.4506 302.245 71.8499 306.142C57.6939 339.998 51.1541 378.162 57.9127 417.556C64.2865 454.744 79.8592 489.895 91.1669 525.75C115.535 602.98 112.073 690.565 61.7081 746.343M602.147 -81.9111C572.415 -15.5343 505.645 27.433 433.684 59.1777C361.723 90.9224 281.832 114.557 214.693 154.799C155.947 190.05 106.201 235.952 77.2034 294.17C75.3401 297.898 73.5518 301.674 71.8761 305.523C57.0881 339.291 49.9941 377.576 57.1277 417.211C63.8363 454.455 80.3702 489.429 92.3821 525.259C118.363 602.783 114.879 691.308 63.824 747.172M599.371 -84.4349C571.353 -17.593 506 26.5491 434.98 59.0565C363.959 91.5639 284.645 115.622 217.497 155.381C158.266 190.48 107.545 235.756 77.5028 293.621C75.5645 297.301 73.7147 301.091 71.9774 304.953C56.5814 338.595 48.9092 377.038 56.4419 416.876C63.4853 454.177 80.9187 488.987 93.6589 524.755C121.313 602.56 117.724 692.075 66.0016 747.988M596.595 -86.9588C570.328 -19.6277 506.393 25.6893 436.251 58.9728C366.11 92.2563 287.433 116.724 220.215 156.014C160.523 190.924 108.827 235.573 77.7165 293.122C75.7167 296.816 73.7918 300.558 71.9554 304.409C55.9274 337.964 47.7145 376.589 55.6089 416.606C62.987 453.962 81.3816 488.596 94.7885 524.315C124.055 602.414 120.445 692.869 68.0185 748.806M593.843 -89.5199C569.29 -21.7237 506.81 24.7922 437.547 58.8518C368.285 92.9115 290.208 117.764 223.019 156.597C162.843 191.354 110.195 235.34 78.0162 292.573C75.9413 296.219 73.9548 299.974 72.0809 303.801C55.421 337.268 46.6538 376.014 54.9474 416.234C62.6602 453.647 82.0159 488.103 96.0895 523.774C127.006 602.19 123.337 693.562 70.2204 749.584M591.067 -92.0436C568.266 -23.7582 507.165 23.9084 438.881 58.7548C370.596 93.6013 293.058 118.852 225.861 157.204C165.224 191.77 111.601 235.13 78.3157 292.024C76.1793 295.683 74.1178 299.39 72.1448 303.207C54.8529 336.585 45.5315 375.452 54.2001 415.914C62.2478 453.382 82.5646 487.661 97.3424 523.307C129.933 602.004 126.182 694.329 72.374 750.437M588.29 -94.5675C567.241 -25.793 507.582 23.011 440.152 58.671C372.723 94.3311 295.846 119.954 228.603 157.799C167.481 192.214 112.907 234.91 78.5533 291.488C76.3418 295.099 74.2188 298.82 72.2083 302.612C54.2843 335.903 44.4088 374.89 53.4765 415.555C61.8214 453.055 83.1744 487.205 98.5814 522.779C132.845 601.756 129.012 695.034 74.4764 751.205M585.477 -97.1153C566.142 -27.8756 507.9 22.1032 441.387 58.5634C374.874 95.0237 298.56 121.008 231.346 158.395C169.8 192.644 114.214 234.69 78.7914 290.953C76.5183 294.577 74.3203 298.249 72.2107 302.031C53.6788 335.196 43.2385 374.403 52.692 415.21C61.3716 452.766 83.6857 486.739 99.7594 522.265C135.697 601.522 131.744 695.729 76.5552 752.01M582.701 -99.6391C565.117 -29.9103 508.293 21.2434 442.696 58.5038C377.099 95.7642 301.385 122.134 234.101 159.052C172.034 193.125 115.534 234.531 79.005 290.455C76.6569 294.031 74.3973 297.716 72.1886 301.488C53.0247 334.564 42.0302 373.892 51.8212 414.916C60.8356 452.528 84.1109 486.323 100.851 521.801C138.463 601.338 134.404 696.536 78.5478 752.866M579.949 -102.2C564.103 -32.0439 508.673 20.3221 444.016 58.3452C379.36 96.3684 304.184 123.137 236.93 159.597C174.401 193.48 116.926 234.26 79.3286 289.868C76.8815 293.433 74.5844 297.095 72.3382 300.842C52.5423 333.831 40.9936 373.28 51.1837 414.506C60.5088 452.213 84.7693 485.793 102.214 521.246C141.499 601.064 137.358 697.215 80.7978 753.569M577.172 -104.724C563.079 -34.0785 509.065 19.4623 445.288 58.2615C381.511 97.0608 306.973 124.239 239.709 160.217C176.72 193.91 118.27 234.064 79.6039 289.356C77.1193 292.898 74.699 296.586 72.3778 300.285C51.9499 333.186 39.823 372.793 50.4123 414.223C60.0721 451.985 85.2937 485.388 103.405 520.793C144.402 600.915 140.141 697.996 82.8897 754.435M574.396 -107.248C562.054 -36.113 509.421 18.5786 446.56 58.178C383.699 97.7775 309.748 125.279 242.452 160.813C178.978 194.353 119.553 233.881 79.7805 288.834C77.1968 292.365 74.739 296.029 72.3562 299.742C51.2963 332.554 38.6151 372.282 49.6036 413.915C59.5607 451.71 85.781 484.96 104.559 520.316C147.253 600.681 142.886 698.752 84.9444 755.278M571.62 -109.772C560.992 -38.1718 509.814 17.7187 447.893 58.0809C385.973 98.443 312.56 126.343 245.293 161.419C181.321 194.745 120.958 233.672 80.1171 288.309C77.4958 291.816 74.9015 295.445 72.4812 299.134C50.8509 331.845 37.5674 371.768 48.9175 413.581C59.2093 451.431 86.3908 484.504 105.836 519.811C150.204 600.457 145.754 699.482 87.0842 756.07M568.844 -112.295C559.968 -40.2063 510.169 16.8349 449.165 57.9973C388.161 99.1596 315.349 127.445 248.012 162.053C183.579 195.189 122.241 233.489 80.3311 287.811C77.6107 291.307 74.9788 294.912 72.497 298.614C50.2346 331.237 36.2979 371.271 48.1462 413.298C58.6872 451.255 86.977 484.086 107.064 519.382C153.168 600.295 148.575 700.286 89.2138 756.96M566.092 -114.857C558.929 -42.3026 510.586 15.9376 450.461 57.8761C390.336 99.8146 318.123 128.485 250.816 162.635C185.922 195.581 123.609 233.255 80.5929 287.238C77.835 290.71 75.104 294.304 72.5231 297.996C49.6287 330.531 35.1513 370.747 47.3612 412.952C58.1994 450.942 87.4878 483.62 108.242 518.868C156.043 600.023 151.32 701.043 91.2922 757.765M563.316 -117.381C557.905 -44.3372 510.941 15.0538 451.794 57.779C392.647 100.504 320.96 129.512 253.657 163.242C188.265 195.974 125.014 233.046 80.9298 286.713C78.0729 290.174 75.3045 293.745 72.6485 297.388C49.1221 329.835 34.0904 370.171 46.6995 412.581C57.8725 450.626 88.1461 483.089 109.543 518.326C159.042 599.724 154.212 701.735 93.4804 758.482M560.54 -119.904C556.881 -46.3716 511.359 14.1567 453.066 57.6956C394.774 101.234 323.684 130.467 256.4 163.838C190.459 196.27 126.321 232.826 81.168 286.177C78.2735 289.614 75.406 293.174 72.6885 296.831C48.5301 329.19 32.9442 369.647 45.9524 412.26C57.4601 450.361 88.695 482.648 110.758 517.836C161.993 599.501 157.019 702.478 95.5968 759.311M557.763 -122.428C555.818 -48.4304 511.714 13.2727 454.338 57.6118C396.962 101.951 326.435 131.545 259.179 164.457C192.815 196.724 127.665 232.629 81.4431 285.666C78.4495 289.092 75.5445 292.628 72.7279 296.274C47.9616 328.507 31.835 369.147 45.1808 411.976C57.0233 450.134 89.3048 482.192 112.011 517.369C165.139 599.137 159.863 703.245 97.7125 760.14M555.012 -124.989C554.842 -50.5399 512.131 12.3756 455.672 57.5149C399.212 102.654 329.285 132.633 261.96 165.077C195.111 197.192 129.046 232.457 81.6812 285.13C78.6126 288.508 75.646 292.058 72.7918 295.679C47.3935 327.825 30.6887 368.623 44.4577 411.618C56.6349 449.831 89.8777 481.712 113.25 516.841C167.99 598.903 162.657 703.927 99.8528 760.931M552.235 -127.513C553.78 -52.5987 512.486 11.4917 456.967 57.3936C401.448 103.296 332.073 133.735 264.763 165.66C197.454 197.584 130.414 232.224 81.9804 284.581C51.1394 317.944 27.985 363.18 43.7102 411.297C56.2222 449.566 90.4261 481.27 114.466 516.35C170.879 598.693 165.463 704.67 101.969 761.76M551.063 -129.483C551.448 -55.8965 511.228 8.08882 457.722 53.9068C404.46 99.5104 336.896 128.2 272.774 161.43C257.596 169.318 242.568 178.044 226.966 186.508C204.604 198.574 181.891 210.362 160.603 223.065C136.783 237.319 114.606 252.893 94.8115 271.108C92.39 273.313 90.0195 275.604 87.6864 277.919C65.6025 299.536 46.9723 327.078 41.8242 357.874C39.4046 372.206 39.9284 387.317 44.4637 402.778C49.0393 418.425 57.2209 433.157 67.1507 447.475C81.9114 468.708 100.265 488.964 114.98 510.432C127.411 528.528 136.919 547.712 143.158 567.286C150.316 589.885 153.039 612.709 152.012 634.608C150.993 658.312 145.643 681.088 136.317 702.054C127.03 723.044 113.78 742.285 97.4218 758.365M549.929 -131.429C549.091 -59.1567 510.031 4.67279 458.539 50.4068C407.472 95.7255 341.733 122.728 280.847 157.187C266.292 165.423 252.087 175.26 236.481 184.144C214.178 196.778 190.506 208.162 168.562 220.072C144.106 233.336 121.401 247.671 100.896 264.848C98.3857 266.943 95.9508 269.086 93.4918 271.267C70.4617 291.8 50.6179 318.51 44.2299 349.093C41.2292 363.423 41.1613 378.63 45.2308 394.322C49.3166 410.236 57.2095 425.418 67.0727 440.17C81.7321 461.973 100.477 482.693 115.471 504.552C128.181 523.038 137.992 542.575 143.966 562.562C150.909 585.659 152.548 608.687 150.606 630.528C148.497 654.114 142.139 676.562 132.147 697.577C122.118 718.567 108.542 738.233 92.8647 755.068M548.758 -133.4C546.722 -62.4786 508.82 1.19501 459.294 46.92C410.57 91.8895 346.498 117.367 288.882 152.921C274.927 161.542 261.532 172.428 245.897 181.77C223.592 194.985 199.022 205.951 176.445 217.032C151.368 229.367 128.12 242.4 106.867 258.515C104.269 260.5 101.708 262.51 99.1844 264.543C75.1574 283.907 54.1748 309.832 46.5469 340.202C42.9517 354.468 42.343 369.857 45.9468 385.78C49.6044 401.949 57.1094 417.57 66.9676 432.742C81.5123 455.054 100.624 476.274 115.972 498.572C128.961 517.449 139.013 537.353 144.822 557.763C151.49 581.372 152.143 604.615 149.224 626.41C146.086 649.866 138.698 672.022 128.025 693.024C117.316 714.001 103.352 734.107 88.3179 751.672M547.586 -135.37C544.352 -65.8005 507.586 -2.24524 460.049 43.4333C413.582 88.1045 351.19 112.119 296.893 148.691C283.453 157.749 271.003 169.719 255.35 179.42C233.08 193.24 207.6 203.727 184.366 214.016C158.653 225.36 134.89 237.216 112.914 252.23C110.251 254.068 107.602 255.968 104.952 257.868C79.9415 276.123 57.7453 301.216 48.9389 331.359C44.7627 345.622 43.5624 361.108 46.738 377.285C49.9432 393.747 57.1218 409.794 66.951 425.424C81.3944 448.306 100.86 469.965 116.538 492.74C129.805 512.008 140.099 532.279 145.704 553.087C152.134 577.232 151.765 600.665 147.868 622.416C143.665 645.717 135.307 667.568 123.93 688.594C112.517 709.596 98.189 730.104 83.8356 748.424M546.414 -137.34C541.982 -69.1224 506.375 -5.72306 460.828 39.909C416.629 84.1827 355.872 106.97 304.928 144.424C292.04 153.942 280.485 166.911 264.803 177.07C242.592 191.457 216.215 201.527 192.262 211.037C165.928 221.453 141.623 232.007 118.898 245.958C116.11 247.663 113.372 249.453 110.672 251.267C84.6398 268.39 61.305 292.699 51.2828 322.59C46.488 336.828 44.7335 352.434 47.4434 368.842C50.1963 385.595 57.0111 402.044 66.8352 418.095C81.1639 441.486 101.034 463.67 116.991 486.835C130.537 506.494 141.134 527.118 146.474 548.339C152.653 572.958 151.275 596.643 146.363 618.325C141.131 641.495 131.742 663.055 119.648 684.044C107.554 705.033 92.8384 725.98 79.1657 745.054M545.242 -139.31C539.612 -72.4445 505.189 -9.23849 461.583 36.4221C419.665 80.36 360.519 101.958 312.938 140.195C300.541 150.186 289.943 164.14 274.255 174.719C252.043 189.688 224.768 199.341 200.146 207.997C173.251 217.47 148.342 226.736 124.907 239.649C122.054 241.206 119.228 242.887 116.401 244.567C89.3861 260.582 64.8616 284.022 53.637 313.723C48.2611 327.958 45.9524 343.686 48.1965 360.324C50.4972 377.369 56.9857 394.244 66.7432 410.729C80.9706 434.69 101.195 457.313 117.505 480.917C131.33 500.967 142.168 521.958 147.306 543.578C153.246 568.732 150.869 592.571 144.956 614.244C138.696 637.284 128.276 658.553 115.477 679.566C102.679 700.579 87.5999 721.928 74.6079 741.758M544.071 -141.281C537.242 -75.7664 503.941 -12.7404 462.362 32.8978C422.711 76.4383 365.23 97.0928 320.973 135.928C309.066 146.393 299.388 161.308 283.671 172.345C261.494 187.919 233.345 197.117 208.029 204.956C180.536 213.463 155.038 221.504 130.879 233.316C127.937 234.763 125.009 236.272 122.094 237.843C94.0576 252.726 68.333 275.395 55.954 304.832C49.9837 319.003 47.0967 334.889 48.9126 351.782C50.7235 369.095 56.8856 386.395 66.6382 403.301C80.7884 427.795 101.366 450.857 117.945 474.951C132.049 495.391 143.152 516.711 148.062 538.768C153.728 564.434 150.365 588.487 143.499 610.079C136.21 632.988 124.783 653.928 111.28 674.965C97.7781 696.003 82.3349 717.753 69.9862 738.314M542.899 -143.251C534.849 -79.0507 502.779 -16.293 463.117 29.4111C425.734 72.5542 376.456 100.646 328.984 131.699C319.717 144.653 308.846 158.537 293.124 169.995C270.969 186.112 241.936 194.955 215.926 201.977C187.811 209.556 161.771 216.295 136.901 227.069C133.871 228.406 130.854 229.806 127.838 231.205C98.8043 244.918 71.8793 266.816 58.322 296.026C51.7331 310.171 48.292 326.177 49.6422 343.301C51.0248 360.869 56.8366 378.633 66.5466 395.934C80.6196 420.962 101.527 444.5 118.46 469.033C132.88 489.888 144.224 511.575 148.955 533.993C154.407 560.158 149.998 584.439 142.154 605.985C133.837 628.763 121.379 649.412 107.196 670.436C92.976 691.437 77.1825 713.651 65.5146 734.966M541.764 -145.197C532.516 -82.3487 501.592 -19.8085 463.933 25.9108C428.805 68.5949 382.032 96.4956 337.118 127.443C328.678 141.087 318.427 155.739 302.676 167.655C280.556 184.377 250.626 192.803 223.945 198.972C195.246 205.645 168.626 211.059 143.009 220.77C139.877 221.937 136.809 223.25 133.704 224.54C103.612 237.097 75.5111 258.187 60.8129 287.194C53.6429 301.336 49.6477 317.463 50.5321 334.817C51.4625 352.677 56.9103 370.843 66.5913 388.603C80.5254 414.176 101.862 438.201 119.111 463.149C133.81 484.395 145.42 506.412 149.923 529.267C155.1 555.942 149.73 580.401 140.884 601.939C131.563 624.549 118.049 644.944 103.125 665.969C88.2006 686.994 72.0432 709.61 61.056 731.68M540.593 -147.167C530.146 -85.6706 500.416 -23.4229 464.688 22.424C431.814 64.6491 387.585 92.3825 345.129 123.213C337.541 137.511 327.885 152.969 312.091 165.28C289.993 182.547 259.204 190.579 231.829 195.931C202.531 201.638 175.383 205.813 148.994 214.499C145.773 215.555 142.58 216.735 139.386 217.915C108.273 229.34 78.9957 249.622 63.0817 278.378C55.2931 292.493 50.7436 308.741 51.1623 326.326C51.6029 344.454 56.762 363.07 66.4379 381.25C80.2949 407.356 101.961 431.858 119.502 457.258C134.48 478.895 146.331 501.278 150.632 524.532C155.57 551.744 149.215 576.417 139.317 597.862C128.967 620.341 114.447 640.407 98.8181 661.457C83.2137 682.468 66.6684 705.524 56.3619 728.348M539.421 -149.137C527.777 -88.9925 499.203 -27.0613 465.443 18.9373C434.786 60.6794 393.101 88.2455 353.14 118.984C346.38 133.972 337.343 150.198 321.52 162.968C299.457 180.839 267.771 188.454 239.701 192.99C209.82 197.792 182.068 200.679 154.955 208.265C151.646 209.212 148.35 210.22 145.068 211.29C112.921 221.521 82.443 241.033 65.3881 269.586C56.981 283.675 51.8774 300.044 51.8679 317.883C51.8562 336.303 56.6889 355.345 66.2983 373.958C80.078 400.598 102.074 425.576 119.969 451.415C135.226 473.443 147.355 496.217 151.415 519.846C156.078 547.569 148.762 572.419 137.887 593.819C126.546 616.192 110.957 635.943 94.6481 656.979C78.3395 678.015 61.4304 701.472 51.7912 724.99M538.249 -151.108C525.407 -92.3145 503.793 -26.1263 466.222 15.4129C432.653 52.532 398.677 84.0949 361.175 114.717C355.206 130.371 346.787 147.366 330.997 160.58C308.956 178.995 276.423 186.278 247.646 189.936C217.18 193.834 188.849 195.395 161.025 201.942C157.652 202.742 154.244 203.678 150.86 204.577C117.691 213.676 86.9135 232.995 67.8041 260.705C58.3284 274.479 53.1341 291.319 52.6829 309.351C52.2189 328.063 56.6878 347.507 66.2921 366.541C79.9571 393.689 102.32 419.168 120.531 445.422C136.067 467.841 148.462 490.943 152.295 515.009C156.744 543.23 148.418 568.333 136.528 589.664C124.159 611.906 107.539 631.365 90.5501 652.388C73.5373 673.449 56.2643 697.308 47.3059 721.581M537.101 -153.116C523.099 -95.6498 503.075 -29.7115 467.038 11.9127C435.375 48.4551 404.254 79.9444 369.247 110.474C364.106 126.819 356.307 144.581 340.45 158.23C318.431 177.188 285.014 184.115 255.543 186.957C224.492 189.95 195.582 190.186 167.01 195.671C163.511 196.337 160.038 197.126 156.566 197.915C122.363 205.82 89.4845 223.79 70.1345 251.875C60.4902 265.912 54.2917 282.583 53.3748 300.846C52.421 319.826 56.601 339.72 66.1388 359.188C79.7025 386.907 102.457 412.848 120.984 439.517C136.799 462.327 149.435 485.796 153.065 510.261C157.239 538.994 147.952 564.274 135.06 585.597C121.687 607.671 104.035 626.839 86.3184 647.924C68.6254 668.972 50.9646 693.27 42.6869 718.297M535.93 -155.086C520.729 -98.9717 502.32 -33.3206 467.817 8.38853C438.036 44.3918 409.831 75.7939 377.282 106.207C372.969 123.243 365.789 141.773 349.927 155.842C327.943 175.405 293.629 181.916 263.45 183.88C231.815 185.968 202.325 184.879 173.043 189.324C169.479 189.843 165.919 190.522 162.334 191.239C127.109 198.012 93.0175 215.15 72.5266 243.032C62.2638 257.042 55.511 273.835 54.1659 292.352C52.7598 311.624 56.576 331.92 66.1087 351.808C79.5952 380.06 102.704 406.44 121.537 433.624C137.63 456.824 150.569 480.647 153.971 505.548C157.907 534.816 147.148 559.998 133.729 581.565C119.852 603.846 100.645 622.385 82.2099 643.433C63.8127 664.505 45.7505 689.181 38.1911 714.987M534.758 -157.056C518.335 -102.256 501.538 -37.0531 468.572 4.90163C440.71 40.3898 415.346 71.6567 385.293 101.978C381.807 119.704 375.209 138.978 359.356 153.529C337.394 173.636 302.233 179.815 271.347 180.901C239.09 182.06 209.034 179.707 179.028 183.053C175.376 183.462 171.689 184.007 168.04 184.576C131.78 190.156 96.4885 206.523 74.8567 234.203C63.9379 248.162 56.7059 265.123 54.8951 283.871C52.9992 303.411 56.5507 324.119 65.9928 344.479C79.4021 373.264 102.84 400.121 121.99 427.719C138.361 451.31 151.542 475.499 154.741 500.8C158.426 530.542 147.169 556.251 132.261 577.499C116.868 599.335 97.1169 617.896 78.002 638.931C58.8872 659.966 40.4746 685.105 33.5585 711.642M533.624 -159.002C516.003 -105.554 493.131 -45.5748 469.389 1.40158C449.745 40.2598 420.961 67.5304 393.389 97.6978C390.695 116.09 384.753 136.157 368.895 151.128C346.931 171.816 310.91 177.601 279.33 177.871C246.488 178.125 215.89 174.472 185.136 176.755C181.358 177.03 177.644 177.452 173.869 177.887C136.575 182.273 100.059 197.907 77.3105 225.346C65.7731 239.279 57.987 256.361 55.7104 275.34C53.3622 295.172 56.5873 316.306 66.0244 337.086C79.3564 366.403 103.162 393.761 122.628 421.774C139.278 445.756 152.7 470.312 155.696 496.012C159.105 526.266 146.9 552.214 130.964 573.33C114.581 595.06 93.785 613.268 73.9419 634.365C54.1228 655.424 35.3464 680.965 29.111 708.257M532.452 -160.972C513.633 -108.876 491.853 -49.3605 470.144 -2.08518C452.615 36.1186 426.476 63.3934 401.4 93.4685C399.534 112.551 394.211 133.386 378.286 148.791C356.344 170.023 319.477 175.477 287.189 174.868C253.763 174.218 222.585 169.239 191.083 170.459C187.241 170.587 183.377 170.913 179.538 171.201C141.209 174.393 103.455 189.232 79.6035 216.493C67.4475 230.399 59.0832 247.639 56.4025 266.835C53.5645 286.935 56.4633 308.495 65.8713 329.733C79.0886 359.559 103.261 387.417 123.019 415.883C139.949 440.255 153.673 465.165 156.405 491.277C159.576 522.067 146.41 548.192 129.435 569.277C112.085 590.862 90.196 608.792 69.6727 629.876C49.1495 650.96 30.0092 676.903 24.4545 704.95M531.28 -162.943C511.263 -112.198 490.525 -53.2319 470.923 -5.60953C455.471 31.9158 432.053 59.2428 409.435 89.2016C408.42 108.937 403.693 130.578 387.763 146.403C365.856 168.24 328.068 173.314 295.134 171.814C261.099 170.297 229.366 163.955 197.154 164.137C193.223 164.155 189.295 164.333 185.367 164.512C146.004 166.51 107.05 180.579 82.0569 207.636C69.2448 221.492 60.3638 238.877 57.2549 258.327C53.9646 278.72 56.5371 300.705 65.9026 322.34C79.0427 352.699 103.545 381.033 123.657 409.938C140.903 434.725 154.831 459.978 157.383 486.451C160.303 517.715 146.165 544.117 128.175 565.132C109.797 586.587 86.8771 604.226 65.6738 625.296C44.4704 646.367 24.9422 672.75 20.0683 701.551M530.108 -164.913C508.893 -115.52 489.172 -57.0658 471.678 -9.09632C458.252 27.6648 437.568 55.1056 417.446 84.9722C417.259 105.398 413.114 127.783 397.192 144.09C375.307 166.471 336.634 171.189 303.006 168.873C268.425 166.475 236.051 158.821 203.114 157.903C199.095 157.811 195.065 157.818 191.025 157.925C150.627 158.729 110.435 172.003 84.3391 198.882C70.9085 212.711 61.4733 230.217 57.8986 249.897C54.1186 270.558 56.4022 292.994 65.7252 315.024C78.764 345.954 103.62 374.727 124.048 404.047C141.573 429.225 155.767 454.807 158.129 481.741C160.811 513.54 145.688 540.156 126.683 561.103C107.314 582.451 83.3496 599.737 61.4045 620.808C39.4969 641.903 19.6049 668.687 15.3742 698.22M528.937 -166.883C506.524 -118.842 487.744 -60.948 472.433 -12.5832C461.01 23.4513 443.121 50.9925 425.457 80.7427C426.06 101.835 422.572 125.013 406.607 141.716C384.72 164.678 345.201 169.064 310.889 165.833C275.723 162.529 242.77 153.551 209.123 151.594C205.002 151.33 200.86 151.266 196.755 151.225C155.323 150.835 113.93 163.339 86.6934 190.014C72.6067 203.793 62.6548 221.444 58.6519 241.379C54.4196 262.332 56.3635 285.132 65.6333 307.658C78.5949 339.12 103.819 368.394 124.539 398.166C142.342 423.735 156.815 449.708 158.936 477.017C161.343 509.328 145.296 536.145 125.252 557.06C104.893 578.302 79.8595 595.272 57.2102 616.368C34.5983 637.487 14.3425 664.673 10.7926 694.96M527.765 -168.853C504.154 -122.164 486.279 -64.8539 473.212 -16.1074C463.729 19.2139 448.661 46.818 433.492 76.476C434.923 98.2587 432.016 122.18 416.061 139.366C394.195 162.871 353.792 166.902 318.773 162.792C282.998 158.622 249.527 148.305 215.095 145.261C210.885 144.888 206.678 144.676 202.447 144.501C160.018 142.942 117.351 154.627 89.0106 181.123C74.3294 194.838 63.8127 212.709 59.3681 232.837C54.646 254.057 56.3011 277.307 65.5284 300.23C78.4128 332.225 103.966 361.976 125.04 392.187C143.122 418.146 157.86 444.448 159.755 472.194C161.948 505.003 144.892 532.073 123.819 552.857C102.469 573.992 76.3668 590.647 53.0374 611.729C29.7079 632.812 9.10173 660.461 6.23255 691.503M526.593 -170.824C501.76 -125.448 484.715 -68.7708 473.967 -19.5942C466.412 14.9523 454.213 42.7049 441.502 72.2466C443.762 94.7197 441.474 119.41 425.513 137.015C403.646 161.102 362.396 164.801 326.669 159.813C290.286 154.776 256.259 143.096 221.117 139.013C216.819 138.531 212.51 138.147 208.228 137.887C164.765 135.134 120.897 146.048 91.4158 172.342C76.0786 186.006 65.0453 204.021 60.135 224.38C54.9605 245.893 56.2893 269.569 65.4875 292.949C78.2947 325.477 104.202 355.667 125.568 386.33C143.929 412.681 158.908 439.349 160.6 467.494C162.517 500.815 144.538 528.086 122.426 548.838C100.085 569.867 72.9383 586.168 48.9046 607.275C24.871 628.382 3.90086 656.434 1.73649 688.193M525.459 -172.77C499.428 -128.746 483.126 -72.6499 474.783 -23.0943C469.094 10.6908 459.79 38.5545 449.599 67.9664C452.687 91.13 451.018 116.588 435.028 134.652C413.22 159.306 371.049 162.625 334.652 156.784C297.684 150.841 263.054 137.874 227.188 132.691C222.825 132.061 218.404 131.605 213.996 131.211C169.522 127.227 124.393 137.384 93.808 163.499C77.8521 177.136 66.2645 195.273 60.926 215.886C55.2618 237.667 56.3258 261.755 65.4574 285.569C78.2115 318.593 104.462 349.321 126.12 380.436C144.76 407.178 160.018 434.237 161.469 462.757C163.149 496.613 144.184 524.099 121.057 544.782C97.725 565.704 69.51 581.69 44.7962 602.784C20.0824 623.878 -1.27559 652.369 -2.79672 684.859M524.287 -174.74C497.058 -132.068 481.401 -76.5642 475.538 -26.5813C471.653 6.45585 465.343 34.4413 457.61 63.7368C461.488 87.5668 460.401 113.769 444.443 132.277C422.582 157.427 379.616 160.5 342.511 153.781C304.935 146.971 269.749 132.641 233.172 126.419C228.684 125.655 224.198 125.052 219.702 124.549C174.193 119.37 127.85 128.695 96.1381 154.669C79.5262 168.256 67.422 186.537 61.6177 207.381C55.5012 229.454 56.2389 253.968 65.304 278.216C77.9808 311.773 104.561 342.977 126.536 374.507C145.454 401.64 160.978 429.028 162.201 457.985C163.63 492.315 143.693 520.077 119.552 540.691C95.2525 561.469 65.9073 577.153 40.4893 598.271C15.0712 619.39 -6.65061 648.282 -7.49098 681.527M523.116 -176.71C494.726 -135.365 479.615 -80.4645 476.317 -30.1053C474.212 2.22136 470.883 30.2669 465.682 59.4943C470.413 83.9773 469.921 110.985 453.934 129.951C432.108 155.706 388.22 158.399 350.47 150.789C312.285 143.112 276.544 127.419 239.219 120.134C234.666 119.224 230.092 118.511 225.47 117.873C178.927 111.501 131.346 120.032 98.5305 145.826C81.3241 159.349 68.6416 177.789 62.4092 198.887C55.8029 221.228 56.2141 246.168 65.2742 270.836C77.8738 304.926 104.784 336.607 127.112 368.576C146.31 396.099 162.074 423.854 163.132 453.234C164.323 488.1 143.401 516.077 118.269 536.584C92.9548 557.293 62.589 572.587 36.4667 593.73C10.3445 614.872 -11.7412 644.167 -11.9008 678.166M521.944 -178.681C492.356 -138.688 477.705 -84.3384 477.072 -33.5923C476.685 -1.96264 471.896 26.0461 473.693 55.2648C475.281 81.0131 479.378 108.214 463.387 127.601C441.583 153.899 396.824 156.298 358.39 147.772C319.621 139.19 283.276 122.21 245.265 113.849C240.624 112.829 235.924 111.982 231.275 111.221C183.721 103.618 134.878 111.391 100.96 137.007C83.0971 150.479 69.8364 169.077 63.2373 190.417C56.1412 213.026 56.2878 238.378 65.2572 263.518C77.7795 298.14 105.019 330.298 127.701 362.706C147.178 390.62 163.245 418.728 164.038 448.521C164.953 483.898 143.084 512.114 116.937 532.552C90.5947 553.13 59.1977 568.132 32.3954 589.262C5.59299 610.392 -16.8806 640.126 -16.3595 674.88M520.772 -180.651C489.986 -142.01 475.723 -88.0997 477.827 -37.0791C479.097 -6.13309 478.344 22.1897 481.704 51.0354C484.799 77.4873 488.799 105.42 472.778 125.264C450.972 152.143 405.354 154.149 366.225 144.807C326.848 135.358 289.985 117.038 251.188 107.591C246.459 106.461 241.694 105.467 236.919 104.572C188.331 95.7755 138.288 102.778 103.228 128.191C84.7099 141.612 70.97 160.379 63.8676 181.925C56.2817 204.802 56.1395 230.605 65.0664 256.141C77.5116 291.296 105.118 323.954 128.055 356.791C147.81 385.095 164.119 413.571 164.733 443.724C165.435 479.6 142.58 508.03 115.356 528.413C88.0233 548.884 55.5577 563.571 28.0512 584.725C0.544568 605.88 -22.2928 636.015 -21.1285 671.5M519.6 -182.621C487.592 -145.294 473.642 -91.8716 478.606 -40.6034C481.547 -10.2794 484.826 18.1968 489.739 46.7685C494.428 73.873 498.281 102.611 482.255 122.876C460.471 150.299 413.982 152.011 374.17 141.753C334.184 131.437 296.766 111.755 257.259 101.269C252.427 99.9672 247.574 98.8636 242.687 97.8967C193.125 87.8926 141.807 94.0763 105.583 119.324C86.4698 132.681 72.1516 151.607 64.6211 173.407C56.5829 196.576 56.0768 222.781 65.0362 248.761C77.3425 284.463 105.341 317.583 128.632 350.859C148.665 379.555 165.216 408.397 165.626 438.95C166.052 475.337 142.25 504.006 114.011 524.32C85.6875 544.684 52.1773 559.018 23.9665 580.197C-4.24425 601.375 -27.4455 631.913 -25.6004 668.152M518.452 -184.629C485.246 -148.653 471.537 -95.6061 479.385 -44.1277C483.91 -14.3748 491.305 14.0431 497.774 42.5017C504.067 70.1597 507.763 99.8031 491.708 120.526C469.959 148.554 422.538 149.985 382.053 138.713C341.41 127.604 303.485 106.484 263.23 94.9358C258.31 93.5244 253.355 92.2495 248.379 91.1728C197.794 79.8758 145.228 85.3639 107.9 110.432C88.1307 123.74 73.2959 142.81 65.3371 164.865C56.8091 188.302 56.0142 214.956 64.907 241.371C77.1362 277.605 105.488 311.165 129.071 344.893C149.445 373.966 166.237 403.175 166.383 434.14C166.571 471.063 141.797 500.008 112.53 520.191C83.2528 540.473 48.6364 554.468 19.708 575.609C-9.22046 596.751 -32.8096 627.727 -30.2462 664.746M517.318 -186.575C482.914 -151.951 469.374 -99.1663 480.201 -47.6278C486.349 -18.422 497.795 9.79047 505.846 38.259C513.83 66.4196 517.282 97.0191 501.223 118.162C479.496 146.734 431.191 147.809 390.012 135.721C348.784 123.707 310.256 101.299 269.314 88.6751C264.306 87.1539 259.263 85.7692 254.185 84.5212C202.602 72.0546 148.747 76.6623 110.33 101.613C89.9283 114.833 74.5528 134.085 66.1283 156.371C57.148 180.1 56.0268 207.18 64.877 233.991C77.0289 270.758 105.711 304.794 129.624 338.999C150.277 368.463 167.309 398.038 167.29 429.427C167.226 466.824 141.504 496.008 111.223 516.122C80.9547 536.297 45.2697 549.976 15.6611 571.105C-13.9715 592.27 -37.9245 623.649 -34.6804 661.422M516.146 -188.545C480.544 -155.273 467.087 -102.7 480.956 -51.1146C488.716 -22.3568 504.197 5.42799 513.881 33.9921C523.566 62.5562 526.727 94.1868 510.662 115.75C488.933 144.903 439.768 145.585 397.919 132.643C356.07 119.7 316.999 95.9916 275.31 82.3045C218.265 63.5773 156.118 65.5086 112.684 92.7462C69.2501 119.984 47.6664 173.747 64.7853 226.624C87.2383 296.111 168.651 356.008 168.083 424.641C167.782 462.574 141.038 491.949 109.779 512.017C78.4824 532.062 41.7904 545.412 11.4535 566.603C-18.8833 587.793 -43.2002 619.573 -39.3128 658.077" stroke="url(#paint0_linear_3293_63735)" stroke-width="0.5" stroke-miterlimit="10"/>
<defs>
<linearGradient id="paint0_linear_3293_63735" x1="520.83" y1="20.506" x2="46.8402" y2="765.524" gradientUnits="userSpaceOnUse">
<stop stop-color="#2973FF"/>
<stop offset="0.48974" stop-color="#8846D3" stop-opacity="0.12"/>
<stop offset="1" stop-color="#FF22AC" stop-opacity="0.11"/>
</linearGradient>
</defs>
</svg>
