<svg width="438" height="621" viewBox="0 0 438 621" fill="none" xmlns="http://www.w3.org/2000/svg">
<path d="M182.72 -173.864C208.23 -98.2549 189.108 -10.7981 165.333 72.4262C141.558 155.651 112.852 240.583 119.582 321.843C125.27 390.336 157.012 453.228 208.769 498.445C262.069 545.026 333.894 571.89 400.076 604.372C466.258 636.855 530.449 678.499 556.678 742.545M179.139 -172.744C205.917 -98.3784 188.565 -11.5716 165.884 71.2466C143.202 154.065 115.151 238.714 121.502 319.717C126.486 384.468 153.823 444.402 199.38 489.622C202.29 492.491 205.219 495.301 208.268 498.049C234.683 521.959 265.989 540.933 299.47 557.401C332.391 573.654 367.031 587.483 400.286 603.016C467.576 634.235 532.528 676.392 558.442 741.098M175.538 -171.662C203.623 -98.5617 187.961 -12.3644 166.434 70.0672C144.906 152.499 117.49 236.825 123.421 317.591C128.008 382.644 154.312 443.103 199.057 489.086C201.888 491.996 204.797 494.865 207.827 497.674C233.847 522.085 264.996 541.638 298.835 557.824C331.974 573.816 366.907 586.846 400.496 601.659C468.775 631.776 534.627 674.325 560.246 739.631M171.958 -170.542C201.349 -98.7054 187.418 -13.1379 167.044 68.9071C146.67 150.952 119.89 234.955 125.36 315.505C129.551 380.86 154.822 441.844 198.715 488.61C201.526 491.58 204.377 494.529 207.326 497.379C232.951 522.29 263.965 542.362 298.161 558.367C331.517 574.098 366.763 586.269 400.667 600.423C469.995 629.356 536.666 672.338 562.011 738.283M168.378 -169.421C199.016 -98.8687 186.835 -13.8912 167.594 67.7275C148.353 149.346 122.429 233.064 127.279 313.38C131.233 379.055 155.312 440.545 198.393 488.074C201.124 491.084 203.955 494.094 206.825 496.983C232.035 522.357 262.893 543.007 297.426 558.79C331 574.261 366.559 585.573 400.778 599.067C471.154 626.817 538.646 670.232 563.656 736.797M164.797 -168.3C196.743 -99.0123 186.291 -14.6645 168.164 66.5878C150.037 147.84 124.808 231.254 129.199 311.354C132.816 377.35 155.822 439.386 198.071 487.638C200.743 490.728 203.534 493.758 206.385 496.708C231.199 522.582 261.941 543.692 296.791 559.313C330.603 574.463 366.475 584.916 401.028 597.79C472.452 624.357 540.765 668.204 565.5 735.41M161.196 -167.219C194.409 -99.1756 185.688 -15.4576 168.714 65.4081C151.741 146.274 127.188 229.344 131.118 309.228C134.399 375.546 156.312 438.087 197.748 487.102C200.381 490.213 203.113 493.322 205.904 496.352C230.323 522.727 260.889 544.376 296.137 559.796C330.166 574.686 366.351 584.279 401.219 596.493C473.671 621.838 542.824 666.157 567.285 734.002M157.616 -166.098C192.136 -99.3192 185.144 -16.231 169.304 64.2083C153.464 144.648 129.567 227.434 133.077 307.082C136.001 373.681 156.841 436.768 197.426 486.566C199.999 489.757 202.691 492.887 205.443 495.937C229.466 522.813 259.896 544.981 295.482 560.179C329.708 574.768 366.226 583.543 401.388 595.057C474.929 619.199 544.822 663.991 569.008 732.476M154.035 -164.977C189.862 -99.463 184.541 -17.024 169.875 63.0684C155.208 143.161 131.947 225.624 134.977 305.016C137.524 371.957 157.311 435.529 197.084 486.09C199.617 489.301 202.25 492.511 204.943 495.641C228.571 523.018 258.845 545.766 294.808 560.722C329.251 575.05 366.123 582.946 401.56 593.82C476.189 616.759 546.883 662.044 570.774 731.128M150.455 -163.856C187.549 -99.5864 183.998 -17.7974 170.445 61.9287C156.893 141.655 134.346 223.755 136.916 302.931C139.127 370.192 157.821 434.271 196.781 485.594C199.255 488.885 201.849 492.116 204.522 495.305C227.734 523.144 257.853 546.47 294.193 561.184C328.854 575.253 366.018 582.249 401.83 592.483C477.526 614.179 549.021 659.957 572.578 729.661M146.874 -162.735C185.276 -99.73 183.414 -18.5505 171.055 60.7687C158.696 140.088 136.745 221.885 138.876 300.884C140.689 368.448 158.351 433.051 196.459 485.158C198.893 488.469 201.428 491.78 204.021 495.01C226.878 523.329 256.821 547.195 293.519 561.727C328.397 575.535 365.915 581.652 402 591.247C478.765 611.699 551.061 657.97 574.342 728.314M143.273 -161.654C182.942 -99.8933 182.851 -19.3637 171.585 59.5493C160.319 138.462 139.064 219.956 140.775 298.719C142.252 366.603 158.86 431.693 196.116 484.583C198.492 487.974 200.986 491.305 203.56 494.595C226.022 523.415 255.789 547.819 292.864 562.11C327.96 575.657 365.81 580.856 402.19 589.85C480.044 609.1 553.12 655.823 576.126 726.807M139.693 -160.534C180.649 -100.077 182.268 -20.117 172.155 58.4095C162.043 136.936 141.424 218.106 142.714 296.633C143.815 364.859 159.37 430.434 195.814 484.087C198.15 487.498 200.545 490.929 203.099 494.279C225.166 523.6 254.797 548.524 292.209 562.593C327.523 575.88 365.726 580.199 402.381 588.554C481.342 606.54 555.179 653.776 577.871 725.42M136.112 -159.413C178.375 -100.22 181.724 -20.8903 172.765 57.2495C163.807 135.389 143.844 216.276 144.654 294.547C145.397 363.054 159.879 429.175 195.472 483.611C197.748 487.102 200.104 490.553 202.579 493.944C224.25 523.766 253.706 549.229 291.515 563.096C327.046 576.122 365.581 579.522 402.571 587.257C482.6 604 557.238 651.729 579.656 724.012M132.532 -158.292C176.062 -100.344 181.141 -21.6436 173.316 56.0699C165.49 133.783 146.183 214.386 146.573 292.421C146.94 361.27 160.389 427.916 195.149 483.075C197.346 486.607 199.682 490.118 202.138 493.568C223.393 523.851 252.693 549.893 290.88 563.519C326.628 576.284 365.477 578.825 402.781 585.9C483.898 601.341 559.337 649.662 581.46 722.545M128.951 -157.171C173.788 -100.487 180.597 -22.417 173.886 54.9301C167.174 132.277 148.542 212.537 148.492 290.396C148.463 359.546 160.879 426.717 194.827 482.639C197.005 486.231 199.261 489.782 201.657 493.313C222.518 524.096 251.702 550.697 290.226 564.101C326.192 576.606 365.373 578.228 402.973 584.703C485.157 598.901 561.397 647.715 583.185 721.218M125.351 -156.09C171.455 -100.651 180.034 -23.2302 174.436 53.7505C168.839 130.731 150.842 210.667 150.412 288.27C150.006 357.761 161.369 425.418 194.505 482.103C196.603 485.735 198.84 489.346 201.196 492.897C221.661 524.182 250.67 551.322 289.571 564.484C325.754 576.729 365.268 577.432 403.163 583.307C486.455 596.242 563.456 645.568 584.969 719.711M121.77 -154.969C169.182 -100.794 179.451 -23.9835 175.026 52.5507C170.602 129.085 153.221 208.758 152.371 286.124C151.568 355.917 161.898 424.099 194.182 481.567C196.261 485.259 198.418 488.911 200.715 492.542C220.785 524.327 249.618 552.007 288.916 564.967C325.317 576.951 365.164 576.735 403.393 581.99C487.773 593.622 565.555 643.501 586.793 718.283M118.189 -153.848C166.908 -100.938 178.887 -24.7965 175.596 51.411C172.306 127.618 155.581 206.908 154.27 284.058C153.091 354.193 162.368 422.86 193.84 481.091C195.839 484.824 197.977 488.536 200.234 492.187C219.909 524.473 248.566 552.692 288.241 565.41C324.82 577.154 365.079 575.978 403.563 580.654C489.03 590.983 567.593 641.415 588.518 716.857M114.569 -152.707C164.555 -101.041 178.264 -25.5296 176.127 50.2912C173.99 126.112 157.861 205.099 156.17 281.992C154.634 352.409 162.838 421.621 193.498 480.615C195.477 484.408 197.536 488.16 199.734 491.891C218.993 524.639 247.555 553.456 287.547 565.913C324.343 577.396 364.935 575.302 403.714 579.377C490.269 588.403 569.573 639.408 590.262 715.469M110.989 -151.586C162.282 -101.185 177.72 -26.3029 176.737 49.1313C175.754 124.565 160.26 203.229 158.129 279.946C156.178 350.724 163.368 420.402 193.176 480.179C195.076 484.012 197.115 487.824 199.254 491.635C218.118 524.884 246.503 554.241 286.853 566.516C323.867 577.738 364.791 574.725 403.865 578.201C491.508 585.924 571.614 637.521 592.008 714.182M107.388 -150.505C159.928 -101.388 177.117 -27.0959 177.267 47.9119C177.417 122.92 162.54 201.32 160.028 277.781C157.68 348.86 163.837 419.064 192.833 479.603C194.674 483.517 196.673 487.349 198.772 491.18C217.241 524.93 245.451 554.826 286.178 566.859C323.43 577.861 364.666 573.889 404.075 576.745C492.805 583.165 573.692 635.314 593.751 712.596M103.807 -149.385C157.655 -101.532 176.573 -27.8693 177.837 46.7721C179.101 121.414 164.899 199.47 161.968 275.695C159.223 347.076 164.347 417.805 192.531 479.107C194.332 483.041 196.292 486.993 198.312 490.865C216.385 525.115 244.44 555.59 285.544 567.382C323.013 578.123 364.582 573.232 404.286 575.488C494.143 580.585 575.771 633.307 595.556 711.228M100.227 -148.264C155.382 -101.675 175.99 -28.6227 178.408 45.6321C180.825 119.887 167.199 197.601 163.868 273.629C160.746 345.352 164.837 416.606 192.169 478.691C193.911 482.705 195.832 486.677 197.832 490.609C215.51 525.36 243.388 556.375 284.87 567.925C322.517 578.425 364.458 572.595 404.457 574.251C495.381 578.005 577.811 631.32 597.321 709.88M96.6464 -147.143C153.068 -101.799 175.447 -29.3959 178.997 44.4325C182.548 118.261 169.538 195.712 165.826 271.483C162.268 343.528 165.366 415.287 191.886 478.135C193.588 482.169 195.41 486.242 197.37 490.194C214.673 525.386 242.416 557.019 284.235 568.348C322.099 578.588 364.373 571.838 404.667 572.894C496.679 575.346 579.89 629.213 599.085 708.434M93.066 -146.022C150.795 -101.942 174.864 -30.1492 179.568 43.2926C184.272 116.735 171.898 193.862 167.746 269.457C163.792 341.803 165.857 414.088 191.565 477.699C193.207 481.813 194.989 485.906 196.93 489.918C213.837 525.611 241.345 557.864 283.6 568.87C321.683 578.949 364.308 571.121 404.917 571.617C498.036 572.706 582.009 627.186 600.93 707.046M89.4651 -144.941C148.461 -102.106 174.3 -30.9623 180.118 42.1132C185.936 115.189 174.198 191.993 169.665 267.332C165.314 339.979 166.346 412.789 191.202 477.184C192.805 481.318 194.528 485.491 196.409 489.583C212.921 525.777 240.313 558.588 282.906 569.373C321.166 579.212 364.164 570.445 405.068 570.341C499.254 570.087 584.049 625.199 602.674 705.659M85.8846 -143.82C146.188 -102.249 173.717 -31.7155 180.708 40.9134C187.699 113.542 176.517 190.063 171.624 265.186C166.837 338.155 166.875 411.47 190.919 476.628C192.463 480.842 194.146 485.035 195.948 489.167C212.064 525.863 239.281 559.213 282.251 569.756C320.728 579.334 364.039 569.609 405.258 568.945C500.511 567.349 586.107 623.052 604.398 704.132M82.3044 -142.699C143.915 -102.393 173.153 -32.5288 181.278 39.7734C189.404 112.076 178.717 188.195 173.524 263.12C168.201 336.412 167.346 410.231 190.577 476.152C192.081 480.386 193.705 484.659 195.488 488.851C211.209 526.048 238.25 559.938 281.596 570.239C320.292 579.557 363.935 568.912 405.449 567.648C501.809 564.689 588.167 621.005 606.183 702.725M78.7236 -141.578C141.601 -102.516 172.57 -33.2818 181.849 38.6337C191.127 110.549 181.037 186.365 175.463 261.034C169.783 334.608 167.855 408.972 190.275 475.656C191.719 479.97 193.303 484.263 195.027 488.536C210.332 526.194 237.258 560.642 280.962 570.762C319.874 579.819 363.849 568.155 405.679 566.331C503.085 561.791 590.265 618.938 607.967 701.318M75.123 -140.497C139.288 -102.74 172.006 -34.0951 182.439 37.4338C192.871 108.963 183.416 184.456 177.403 258.948C171.346 332.863 168.405 407.693 189.933 475.18C191.298 479.534 192.862 483.888 194.546 488.181C209.456 526.339 236.226 561.366 280.287 571.205C319.417 580.001 363.725 567.419 405.849 564.995C504.324 559.211 592.265 616.872 609.732 699.871M71.5424 -139.376C136.974 -102.863 171.423 -34.8483 182.989 36.2544C194.554 107.357 185.775 182.606 179.322 256.823C172.868 331.039 168.894 406.394 189.61 474.644C202.822 518.115 230.163 560.95 279.632 571.688C318.98 580.223 363.621 566.722 406.039 563.698C505.602 556.612 594.324 614.825 611.516 698.463M69.25 -139.361C132.95 -102.516 167.85 -35.4811 180.361 33.8414C192.809 102.845 183.436 175.647 179.719 247.773C178.858 264.857 178.796 282.234 178.219 299.974C177.335 325.369 176.033 350.925 176.241 375.714C176.509 403.472 178.745 430.479 184.465 456.764C185.145 459.968 185.924 463.171 186.743 466.354C194.242 496.333 208.599 526.325 232.576 546.326C243.722 555.655 257.027 562.837 272.662 566.734C288.476 570.69 305.323 571.071 322.696 569.735C348.477 567.724 375.231 562.118 401.192 560.264C423.089 558.678 444.448 560.164 464.492 564.668C487.612 569.909 508.684 579.089 527.065 591.038C547.006 603.893 563.96 620.017 577.342 638.657C590.764 657.276 600.676 678.431 606.288 700.672M66.9977 -139.365C128.946 -102.13 164.298 -36.174 177.753 31.3683C191.065 98.3338 181.156 168.708 180.136 238.663C179.89 255.384 181.203 272.612 180.986 290.569C180.622 316.199 178.487 342.379 177.68 367.335C176.772 395.14 177.671 421.977 182.136 448.351C182.676 451.575 183.296 454.76 183.936 457.983C190.021 488.232 203.047 518.851 226.213 539.814C237.064 549.643 250.153 557.384 265.751 561.8C281.55 566.314 298.639 567.172 316.353 566.112C342.575 564.476 369.926 558.767 396.365 556.87C418.74 555.24 440.557 556.644 460.824 561.585C484.265 567.262 504.966 577.481 522.833 590.191C542.123 603.927 558.284 620.754 571.371 639.993C584.419 659.253 594.533 680.905 601.141 702.939M64.7054 -139.349C124.882 -101.763 160.685 -36.8863 175.125 28.9553C189.319 93.7226 178.937 161.888 180.513 229.573C180.903 245.971 183.53 263.031 183.694 281.244C183.83 307.169 180.882 333.913 179.038 358.995C177.015 386.869 176.518 413.516 179.687 439.998C180.088 443.243 180.529 446.469 181.009 449.674C185.582 480.192 197.355 511.397 219.71 533.323C230.205 543.632 243.179 551.932 258.741 556.866C274.543 561.878 291.815 563.293 309.89 562.451C336.493 561.17 364.461 555.397 391.458 553.417C414.311 551.744 436.567 553.124 457.115 558.422C480.858 564.595 501.247 575.773 518.581 589.304C537.239 603.861 552.627 621.431 565.36 641.251C578.053 661.091 588.35 683.299 595.914 705.148M62.4132 -139.333C120.818 -101.396 157.092 -37.5591 172.498 26.5422C187.574 89.2109 176.779 155.187 180.91 220.523C181.936 236.697 185.977 253.488 186.441 271.898C187.117 298.099 183.296 325.387 180.437 350.636C177.237 378.557 175.464 405.054 177.318 431.605C177.559 434.831 177.86 438.077 178.162 441.324C181.281 472.131 191.723 503.963 213.287 526.791C223.487 537.601 236.245 546.46 251.81 551.892C267.636 557.442 285.111 559.354 303.566 558.768C330.61 557.863 359.136 552.006 386.71 549.982C410.042 548.266 432.736 549.623 453.525 555.298C477.611 561.947 497.647 574.104 514.449 588.455C532.435 603.855 547.07 622.107 559.468 642.547C571.827 663.007 582.287 685.732 590.846 707.375M60.1209 -139.317C116.754 -101.029 153.479 -38.2714 169.85 24.0895C185.729 84.6004 174.701 148.546 181.287 211.433C182.989 227.363 188.344 243.887 189.188 262.553C190.384 288.989 185.749 316.841 181.856 342.316C177.54 370.305 174.37 396.612 174.929 423.271C174.991 426.539 175.153 429.806 175.355 433.053C176.981 464.169 186.171 496.588 206.904 520.338C216.769 531.669 229.351 541.067 244.88 547.018C260.729 553.106 278.367 555.535 297.182 555.165C324.608 554.617 353.79 548.675 381.844 546.608C405.653 544.849 428.805 546.123 449.817 552.235C474.184 559.34 493.929 572.495 510.158 587.688C527.511 603.909 541.374 622.904 553.378 643.944C565.381 664.985 576.025 688.266 585.579 709.703M57.8283 -139.301C112.69 -100.662 149.846 -39.0232 167.222 21.6766C183.963 80.0493 172.722 142.003 181.684 202.383C184.043 218.13 190.731 234.325 191.935 253.208C193.632 279.94 188.183 308.355 183.214 333.977C177.803 361.973 173.216 388.15 172.52 414.899C172.423 418.148 172.445 421.435 172.467 424.723C172.64 456.129 180.479 489.135 200.441 513.827C210.01 525.658 222.416 535.596 237.909 542.065C253.782 548.69 271.622 551.616 290.778 551.523C318.645 551.35 348.385 545.325 376.996 543.174C401.283 541.372 424.874 542.623 446.128 549.112C470.837 556.693 490.209 570.788 505.926 586.84C522.647 603.883 535.738 623.62 547.407 645.281C559.075 666.942 569.882 690.741 580.431 711.971M55.5361 -139.286C108.626 -100.295 146.194 -39.7154 164.574 19.2238C182.118 75.4387 170.904 135.48 182.061 193.293C185.076 208.856 193.058 224.743 194.643 243.883C196.88 270.89 190.597 299.829 184.573 325.637C178.025 353.662 172.082 379.729 170.072 406.546C169.835 409.816 169.658 413.105 169.54 416.414C168.221 448.128 174.788 481.781 193.938 507.336C203.152 519.647 215.403 530.164 230.899 537.131C246.755 544.315 264.799 547.737 284.315 547.861C312.602 548.024 342.9 541.916 372.069 539.781C396.835 537.935 420.843 539.124 442.359 546.03C467.371 554.107 486.431 569.16 501.595 585.994C517.683 603.857 529.982 624.298 541.316 646.579C552.65 668.859 563.619 693.175 575.124 714.219M53.244 -139.27C104.582 -99.8889 142.54 -40.5073 161.946 16.8107C180.293 70.8679 179.641 127.587 182.458 184.243C188.955 198.785 195.445 215.181 197.391 234.537C200.107 261.8 193.071 291.322 185.992 317.317C178.328 345.409 170.989 371.287 167.723 398.192C167.346 401.483 167.03 404.793 166.713 408.103C163.88 440.087 169.176 474.387 187.536 500.843C196.413 513.675 208.489 524.732 223.949 532.217C239.808 539.899 258.075 543.858 277.912 544.219C306.62 544.717 337.496 538.565 367.222 536.347C392.505 534.438 416.952 535.604 438.69 542.847C464.024 551.36 482.751 567.431 497.383 585.086C512.839 603.771 524.365 624.954 535.344 647.816C546.283 670.697 557.476 695.549 569.976 716.387M50.9912 -139.274C100.557 -99.542 138.907 -41.2592 159.338 14.3379C178.428 66.2178 178.877 120.678 182.894 175.073C190.405 189.25 197.871 205.499 200.197 225.112C203.454 252.65 195.604 282.736 187.449 308.878C178.71 337.017 169.934 362.725 165.373 389.739C164.797 393.031 164.381 396.342 163.925 399.673C159.559 431.987 163.564 466.893 181.171 494.232C189.754 507.564 201.653 519.159 217.077 527.163C232.96 535.383 251.389 539.859 271.607 540.476C300.716 541.371 332.229 535.094 362.474 532.812C388.235 530.861 413.1 531.964 435.099 539.623C460.736 548.632 479.131 565.623 493.25 584.138C508.053 603.605 518.827 625.571 529.432 649.072C540.037 672.574 551.392 697.943 564.887 718.575M48.6988 -139.258C96.4934 -99.1751 135.194 -42.0704 156.71 11.9249C176.543 61.6275 178.132 113.808 183.291 166.023C191.796 179.794 200.258 195.937 202.904 215.787C206.641 243.581 198.018 274.21 188.808 300.539C178.932 328.706 168.82 354.243 162.984 381.406C162.269 384.719 161.673 388.071 161.078 391.423C155.22 424.046 157.932 459.559 174.709 487.82C182.956 501.672 194.68 513.807 210.067 522.329C225.934 531.107 244.606 536.06 265.184 536.894C294.714 538.124 326.805 531.804 357.587 529.498C383.827 527.503 409.13 528.584 431.371 536.62C457.35 546.105 475.432 564.055 488.939 583.431C503.11 603.719 513.092 626.388 523.362 650.509C533.612 674.591 545.15 700.517 559.641 720.943M46.4067 -139.242C92.4295 -98.8083 131.441 -42.8616 154.082 9.51179C174.618 57.0573 177.349 106.958 183.688 156.973C193.208 170.378 202.645 186.375 205.672 206.481C209.949 234.55 200.512 265.743 190.247 292.259C179.295 320.473 167.766 345.881 160.615 373.112C159.761 376.446 158.966 379.799 158.232 383.172C150.82 416.085 152.262 452.244 168.287 481.388C176.198 495.761 187.746 508.435 203.137 517.455C219.028 526.771 237.902 532.22 258.821 533.331C288.772 534.897 321.44 528.533 352.78 526.144C379.498 524.106 405.28 525.143 427.723 533.576C454.004 543.558 471.753 562.426 484.728 582.623C498.306 603.712 507.476 627.144 517.391 651.846C527.306 676.548 539.007 702.991 554.434 723.19M44.1143 -139.226C88.3653 -98.4413 134.567 -46.3506 151.434 7.05911C166.509 54.7819 176.584 100.048 184.065 147.883C194.559 160.943 204.972 176.794 208.399 197.096C213.156 225.421 203.006 257.177 191.625 283.859C179.597 312.121 166.632 337.36 158.226 364.679C157.212 367.994 156.298 371.408 155.364 374.783C146.46 408.004 147.583 444.325 161.843 474.816C168.943 489.952 180.852 502.942 196.186 512.441C212.1 522.295 231.138 528.261 252.416 529.589C282.749 531.511 316.035 525.083 347.893 522.631C375.088 520.549 401.288 521.523 423.993 530.374C450.596 540.791 468.053 560.658 480.456 581.696C493.402 603.607 501.798 627.781 511.359 653.063C520.939 678.385 532.804 705.345 549.225 725.339M41.8018 -139.25C84.3208 -98.1343 131.11 -47.5423 148.826 4.5862C164.366 50.3727 175.819 93.1385 184.481 138.773C195.99 151.468 207.379 167.172 211.146 187.751C216.384 216.331 205.48 248.67 193.044 275.54C179.94 303.848 165.538 328.918 155.837 356.346C154.644 359.702 153.57 363.097 152.497 366.493C142.04 400.004 140.938 437.456 155.401 468.344C162.642 483.758 173.898 497.53 189.196 507.548C205.094 517.96 224.374 524.402 245.993 526.006C276.767 528.304 310.65 521.772 343.026 519.257C370.7 517.132 397.338 518.083 420.285 527.311C447.19 538.224 464.315 559.01 476.204 580.908C488.498 603.601 496.122 628.518 505.368 654.46C514.594 680.362 526.641 707.879 544.058 727.666M39.5096 -139.234C80.2569 -97.7675 127.614 -48.7138 146.178 2.13341C162.204 46.0234 175.055 86.2288 184.858 129.684C197.381 142.012 209.746 157.57 213.874 178.366C219.651 207.222 207.934 240.124 194.382 267.161C180.202 295.517 164.364 320.417 153.408 347.933C152.055 351.271 150.842 354.687 149.65 358.143C137.7 391.963 135.267 430.043 148.978 461.812C155.883 477.747 166.964 492.058 182.265 502.574C198.187 513.524 217.63 520.483 239.609 522.304C270.804 524.938 305.245 518.322 338.218 515.802C366.37 513.635 393.466 514.503 416.675 524.147C443.922 535.537 460.218 557.544 472.052 580.02C484.27 603.252 490.565 629.194 499.417 655.737C508.308 682.259 520.478 710.313 538.931 729.874M37.2171 -139.218C76.2128 -97.3607 123.997 -49.9242 143.551 -0.279502C160.101 41.6938 174.271 79.3791 185.255 120.634C198.792 132.596 212.093 148.028 216.641 169.061C222.898 198.172 210.467 231.637 195.801 258.841C180.505 287.264 163.29 312.015 151.019 339.6C149.527 342.958 148.135 346.416 146.783 349.853C133.28 383.963 129.575 422.689 142.535 455.341C149.065 471.816 160.05 486.626 175.314 497.66C191.22 509.168 210.885 516.564 233.226 518.702C264.841 521.671 299.86 515.012 333.351 512.429C361.981 510.218 389.516 511.063 412.966 521.084C440.496 532.93 456.996 555.633 467.801 579.233C478.869 603.548 484.909 629.971 493.406 657.094C501.902 684.216 514.296 712.807 533.703 732.182M34.9648 -139.223C72.1888 -97.0141 112.396 -46.9744 140.943 -2.75254C164.553 33.8312 173.546 72.4491 185.652 111.484C200.163 123.101 214.479 138.366 219.388 159.615C226.146 189.022 212.941 223.031 197.219 250.421C180.847 278.892 162.236 303.453 148.669 331.147C146.998 334.546 145.486 337.964 143.955 341.442C128.899 375.843 123.944 415.255 136.131 448.749C142.326 465.744 153.135 481.094 168.363 492.646C184.292 504.692 204.16 512.586 226.861 514.939C258.898 518.245 294.534 511.521 328.543 508.875C357.651 506.621 385.624 507.443 409.317 517.841C437.149 530.183 453.376 553.825 463.548 578.246C474.025 603.362 479.232 630.508 487.414 658.291C495.576 686.034 508.132 715.141 528.535 734.31M32.6726 -139.207C68.1248 -96.6473 108.484 -47.7843 138.315 -5.16565C162.429 29.2624 172.762 65.5992 186.049 102.434C201.574 113.685 216.867 128.804 222.116 150.33C229.354 179.993 215.435 214.564 198.598 242.122C181.15 270.64 161.102 295.031 146.241 322.834C144.41 326.214 142.739 329.713 141.048 333.172C124.44 367.862 118.173 407.941 129.649 442.297C135.509 459.813 146.162 475.742 161.373 487.752C177.286 500.356 197.357 508.747 220.438 511.357C252.856 515.018 289.109 508.231 323.657 505.561C353.243 503.263 381.674 504.003 405.589 514.838C433.763 527.656 449.657 552.216 459.278 577.518C469.141 603.396 473.557 631.344 481.384 659.707C489.211 688.071 501.93 717.695 523.328 736.658M30.3801 -139.191C64.0606 -96.2803 104.471 -48.5935 135.667 -7.61834C160.245 24.6742 171.998 58.6896 186.426 93.3441C202.945 104.19 219.233 119.203 224.843 140.945C232.621 170.883 217.909 206.058 199.976 233.723C181.472 262.328 159.968 286.51 143.851 314.401C141.881 317.802 140.051 321.282 138.221 324.763C120.059 359.742 112.521 400.468 123.245 435.706C128.73 453.762 139.247 470.21 154.462 482.719C170.398 495.861 190.672 504.748 214.074 507.595C246.912 511.592 283.744 504.761 318.849 502.007C348.953 499.646 377.782 500.383 401.918 511.555C430.375 524.829 446.017 550.368 455.064 576.511C464.296 603.21 467.939 631.901 475.411 660.845C482.883 689.788 495.786 719.97 518.179 738.726M28.0878 -139.175C59.9966 -95.9134 100.479 -49.3629 133.039 -10.0313C157.982 20.1264 171.214 51.8398 186.823 84.2941C204.356 94.7743 221.58 109.661 227.61 131.64C235.868 161.833 220.403 197.591 201.415 225.442C181.875 254.075 158.915 278.147 141.483 306.107C139.373 309.53 137.343 313.011 135.394 316.552C115.679 351.821 106.83 393.213 116.843 429.313C121.992 447.89 132.334 464.877 147.512 477.905C163.432 491.604 183.948 500.968 207.671 504.052C240.95 508.425 278.339 501.51 313.962 498.693C344.545 496.289 373.792 496.963 398.23 508.532C427.028 522.282 442.358 548.78 450.833 575.763C459.472 603.264 462.283 632.678 469.381 662.262C476.518 691.825 489.584 722.524 512.933 741.094M25.7953 -139.159C55.9324 -95.5464 96.4076 -50.092 130.411 -12.4443C155.738 15.6183 170.469 44.9698 187.22 75.244C205.728 85.3788 223.967 100.099 230.318 122.314C239.076 152.803 222.897 189.125 202.774 217.103C182.157 245.783 157.761 269.686 139.074 297.734C136.764 301.158 134.616 304.7 132.507 308.222C111.239 343.781 101.119 385.82 110.38 422.802C115.154 441.92 125.359 459.425 140.541 472.951C156.485 487.189 177.144 497.03 201.267 500.41C234.967 505.119 272.974 498.14 309.135 495.299C340.195 492.852 369.921 493.483 394.561 505.448C423.662 519.695 438.698 547.091 446.622 574.955C454.668 603.257 456.666 633.434 463.43 663.638C470.232 693.822 483.461 725.037 507.805 743.402M23.5033 -139.144C51.8685 -95.1796 92.2966 -50.8009 127.764 -14.8971C153.456 11.1303 169.665 38.0803 187.597 66.1542C207.119 75.9232 226.295 90.5172 233.065 112.969C242.304 143.714 225.371 180.618 204.133 208.764C182.46 237.53 156.647 261.204 136.625 289.382C134.177 292.826 131.868 296.349 129.58 299.912C106.799 335.741 95.328 378.466 103.877 416.31C108.296 435.909 118.406 454.013 133.531 468.017C149.459 482.813 170.36 493.131 194.804 496.748C228.925 501.792 267.509 494.77 304.228 491.845C335.766 489.355 365.91 489.924 390.812 502.306C420.235 516.988 434.979 545.383 442.27 574.069C449.724 603.172 450.91 634.112 457.319 664.896C463.727 695.68 477.178 727.432 502.518 745.59M21.2108 -139.128C47.8245 -94.7729 88.126 -51.4295 125.136 -17.31C151.133 6.66269 168.921 31.2104 187.994 57.1042C208.53 66.5076 228.681 80.9553 235.812 103.624C245.551 134.664 227.905 172.131 205.551 200.444C182.823 229.298 155.553 252.762 134.276 281.028C131.688 284.494 129.18 288.018 126.792 291.582C102.459 327.701 89.7161 371.072 97.5139 409.798C101.558 429.937 111.531 448.561 126.62 463.083C142.572 478.417 163.675 489.231 188.5 493.105C223.042 498.485 262.184 491.379 299.44 488.431C331.457 485.898 362.039 486.443 387.183 499.202C416.908 514.381 431.359 543.675 438.098 573.241C444.959 603.145 445.313 634.808 451.387 666.213C457.461 697.617 471.075 729.886 497.39 747.798M18.9584 -139.132C43.8004 -94.4262 83.9759 -52.0187 122.528 -19.783C148.81 2.1949 168.157 24.3006 188.391 47.9545C209.941 56.9921 231.068 71.2936 238.579 94.2185C248.838 125.494 230.398 163.565 206.969 192.025C183.165 220.926 154.479 244.261 131.886 272.595C129.139 276.042 126.512 279.627 123.945 283.232C98.0384 319.6 84.0049 363.679 91.0908 403.266C94.7991 423.926 104.597 443.089 119.689 458.109C135.625 474.001 156.951 485.252 182.116 489.403C217.059 495.079 256.838 487.949 294.633 484.977C327.128 482.4 358.188 482.903 383.534 496.059C413.601 511.713 427.74 541.966 433.906 572.373C440.175 603.079 439.717 635.505 445.436 667.489C451.154 699.474 464.952 732.299 492.222 750.026M16.6658 -139.116C39.736 -94.0592 79.7264 -52.5073 119.9 -22.196C146.448 -2.15287 167.412 17.4307 188.787 38.9045C211.312 47.5966 233.375 61.7721 241.286 84.8935C251.946 116.465 232.892 155.098 208.348 183.725C183.488 212.713 153.345 235.839 129.497 264.262C126.571 267.75 123.784 271.316 121.078 274.942C93.6183 311.6 78.2535 356.305 84.6479 396.795C87.9811 417.995 97.643 437.677 112.699 453.216C128.658 469.645 150.187 481.393 175.692 485.82C211.056 491.833 251.414 484.658 289.726 481.623C322.699 479.003 354.178 479.443 379.785 493.016C410.134 509.127 424.021 540.358 429.615 571.606C435.271 603.073 433.981 636.322 439.365 668.926C444.749 701.531 458.71 734.874 486.976 752.394M14.3739 -139.1C35.7121 -93.7127 75.458 -52.9362 117.252 -24.6489C144.087 -6.50094 166.608 10.541 189.204 29.7944C212.723 38.081 235.782 52.1499 244.074 75.5278C255.274 107.375 235.426 146.611 209.787 175.345C183.87 204.42 152.271 227.337 127.129 255.869C124.042 259.337 121.116 262.925 118.231 266.592C89.2185 303.54 72.5425 348.912 78.2251 390.263C81.2028 411.944 90.7092 432.204 105.769 448.242C121.711 465.229 143.443 477.474 169.309 482.118C205.093 488.466 246.029 481.248 284.899 478.129C318.35 475.466 350.267 475.883 376.156 489.813C406.847 506.399 420.421 538.589 425.423 570.638C430.506 602.946 428.364 636.878 433.413 670.103C438.463 703.328 452.586 737.187 481.847 754.502M12.0813 -139.084C31.6478 -93.3456 71.1499 -53.245 114.624 -27.0617C141.725 -10.749 163.478 7.53377 189.601 20.7445C212.624 32.3825 238.169 42.5881 246.821 66.1827C258.501 98.2855 237.96 138.124 211.185 166.986C184.193 196.108 151.177 218.895 124.759 247.476C121.533 250.965 118.428 254.594 115.423 258.222C84.8374 295.42 66.8705 341.498 71.8413 383.711C74.4439 405.932 83.7948 426.772 98.877 443.248C114.804 460.794 136.757 473.475 162.984 478.435C199.19 485.119 240.703 477.857 280.13 474.655C314.06 471.949 346.435 472.283 372.546 486.649C403.54 503.732 416.841 536.86 421.27 569.75C425.721 602.88 422.807 637.555 427.501 671.36C432.196 705.165 446.503 739.581 476.759 756.689M9.78899 -139.069C27.5837 -92.9787 66.9026 -53.4349 111.996 -29.4748C139.345 -14.9374 163.407 0.021369 189.998 11.6944C214.39 22.3863 240.516 33.0462 249.549 56.8973C261.729 89.2955 240.414 129.678 212.584 158.726C184.536 187.935 150.103 210.493 122.351 239.202C118.986 242.713 115.721 246.322 112.537 249.991C80.3981 287.479 61.1598 334.204 65.3791 377.299C67.6066 400.061 76.8612 421.4 91.8673 438.414C107.778 456.518 129.974 469.676 156.521 474.873C193.148 481.893 235.278 474.567 275.204 471.361C309.612 468.612 342.425 468.923 368.758 483.627C400.074 501.146 413.063 535.232 416.9 569.023C420.758 602.954 417.031 638.392 421.391 672.817C425.751 707.242 440.221 742.176 471.433 759.097M7.49666 -139.053C23.5399 -92.5721 62.5961 -53.5445 109.348 -31.9275C137.004 -19.1458 163.236 -7.58989 190.375 2.60469C216.135 12.2508 242.883 23.4445 252.276 47.5123C264.936 80.1663 242.928 121.151 213.962 150.327C184.858 179.623 148.969 201.972 119.961 230.769C116.397 234.281 112.993 237.912 109.689 241.641C76.0173 279.359 55.4281 326.771 58.9162 370.787C60.7881 394.03 69.8872 415.948 84.8966 433.46C100.831 452.102 123.19 465.777 150.137 471.171C187.165 478.587 229.893 471.157 270.377 467.867C305.262 465.075 338.514 465.363 365.089 480.444C396.706 498.459 409.423 533.484 412.688 568.116C415.953 602.848 411.394 639.009 415.419 674.054C419.445 709.1 434.077 744.55 466.285 761.266M5.18415 -139.076C19.4556 -92.2448 58.3098 -53.6144 106.7 -34.3802C134.664 -23.2547 162.924 -15.2799 190.752 -6.48502C217.801 2.05617 245.25 13.8428 255.023 38.167C268.223 71.0963 245.502 112.744 215.321 141.988C185.201 171.45 147.815 193.51 117.512 222.416C113.809 225.949 110.205 229.581 106.762 233.332C71.4574 271.28 49.6373 319.418 52.4135 364.296C53.9104 388.08 62.8734 410.516 77.8863 428.527C93.8042 447.727 116.406 461.879 143.694 467.549C181.143 475.3 224.428 467.787 265.45 464.474C300.833 461.578 334.523 461.843 361.32 477.361C393.28 495.852 405.744 531.855 408.376 567.309C411.089 602.822 405.678 639.766 409.309 675.412C412.939 711.058 427.755 747.065 460.998 763.554M2.93173 -139.081C15.4314 -91.8982 54.1443 -53.5459 104.092 -36.8533C132.403 -27.4041 162.533 -23.0293 191.169 -15.5951C219.505 -8.25855 247.657 4.22076 257.79 28.7616C271.471 61.9466 247.996 104.177 216.759 133.608C185.564 163.118 146.761 185.048 115.183 214.003C111.34 217.557 107.597 221.21 103.955 224.961C67.1367 263.179 43.9058 311.984 46.0302 357.744C47.1318 382.028 55.979 405.024 70.9555 423.553C86.8971 443.291 109.701 457.939 137.31 463.846C175.18 471.934 219.043 464.376 260.642 461.019C296.504 458.081 330.632 458.323 357.711 474.197C389.953 493.145 402.144 530.087 404.204 566.381C406.324 602.695 400.101 640.402 403.377 676.628C406.673 712.894 421.652 749.418 455.889 765.702M0.639397 -139.065C11.3674 -91.5313 49.9394 -53.3573 101.465 -39.2662C130.203 -31.4342 162.002 -30.7576 191.546 -24.6849C221.089 -18.6121 249.984 -5.36075 260.477 19.3969C274.658 52.8773 250.41 95.6512 218.098 125.229C185.786 154.806 145.587 176.547 112.714 205.611C67.7336 245.379 38.0037 299.989 39.5673 351.232C41.1308 402.476 76.6249 448.264 130.906 460.204C202.217 475.932 295.038 435.931 353.982 471.095C386.566 490.518 398.405 528.439 399.932 565.554C401.42 602.689 394.405 641.099 397.366 677.985C400.327 714.871 415.469 751.912 450.662 768.01" stroke="url(#paint0_linear_3293_63734)" stroke-width="0.5" stroke-miterlimit="10"/>
<defs>
<linearGradient id="paint0_linear_3293_63734" x1="183.418" y1="-37.4948" x2="586.913" y2="747.941" gradientUnits="userSpaceOnUse">
<stop stop-color="#2973FF"/>
<stop offset="0.48974" stop-color="#8846D3" stop-opacity="0.12"/>
<stop offset="1" stop-color="#FF22AC" stop-opacity="0.11"/>
</linearGradient>
</defs>
</svg>
